G04*
G04 #@! TF.GenerationSoftware,Altium Limited,Altium Designer,22.9.1 (49)*
G04*
G04 Layer_Color=32768*
%FSTAX24Y24*%
%MOIN*%
G70*
G04*
G04 #@! TF.SameCoordinates,D3726A14-7932-4F0B-9928-97F3702F6CAB*
G04*
G04*
G04 #@! TF.FilePolarity,Positive*
G04*
G01*
G75*
%ADD13C,0.0079*%
%ADD76C,0.0039*%
D13*
X015813Y029484D02*
X017387D01*
Y027516D02*
Y029484D01*
X015813Y027516D02*
X017387D01*
X015813D02*
Y029484D01*
X00393Y005866D02*
X00897D01*
Y008819D01*
X00393D02*
X00897D01*
X00393Y005866D02*
Y008819D01*
X024861Y006599D02*
X027125D01*
X024861Y003685D02*
Y006599D01*
Y003685D02*
X027125D01*
Y006599D01*
X00878Y03242D02*
X01382D01*
X00878Y02738D02*
Y03242D01*
Y02738D02*
X01382D01*
Y03242D01*
X01808Y008776D02*
X02312D01*
X01808Y005824D02*
Y008776D01*
Y005824D02*
X02312D01*
Y008776D01*
X021788Y000625D02*
Y002889D01*
X018875D02*
X021788D01*
X018875Y000625D02*
Y002889D01*
Y000625D02*
X021788D01*
X025245D02*
Y002889D01*
X022332D02*
X025245D01*
X022332Y000625D02*
Y002889D01*
Y000625D02*
X025245D01*
X024861Y010065D02*
X027125D01*
X024861Y007151D02*
Y010065D01*
Y007151D02*
X027125D01*
Y010065D01*
X009205Y000925D02*
Y003189D01*
X006292D02*
X009205D01*
X006292Y000925D02*
Y003189D01*
Y000925D02*
X009205D01*
X01113Y008626D02*
X01617D01*
X01113Y005674D02*
Y008626D01*
Y005674D02*
X01617D01*
Y008626D01*
X005749Y000925D02*
Y003189D01*
X002835D02*
X005749D01*
X002835Y000925D02*
Y003189D01*
Y000925D02*
X005749D01*
X000225Y003351D02*
X002489D01*
Y006265D01*
X000225D02*
X002489D01*
X000225Y003351D02*
Y006265D01*
Y006935D02*
X002489D01*
Y009849D01*
X000225D02*
X002489D01*
X000225Y006935D02*
Y009849D01*
D76*
X025145Y028088D02*
Y032812D01*
X020055Y028088D02*
Y032812D01*
Y028088D02*
X025145D01*
X020055Y032812D02*
X025145D01*
X011761Y026599D02*
X013749D01*
X011151Y025989D02*
X011761Y026599D01*
X011151Y024611D02*
X011761Y024001D01*
X011151Y024611D02*
Y025989D01*
X011761Y024001D02*
X013749D01*
Y026599D01*
X00287Y01203D02*
Y01447D01*
X00043Y01203D02*
X00287D01*
X00043D02*
Y01447D01*
X00287D01*
M02*
