G04*
G04 #@! TF.GenerationSoftware,Altium Limited,Altium Designer,22.9.1 (49)*
G04*
G04 Layer_Color=2752767*
%FSTAX24Y24*%
%MOIN*%
G70*
G04*
G04 #@! TF.SameCoordinates,D3726A14-7932-4F0B-9928-97F3702F6CAB*
G04*
G04*
G04 #@! TF.FilePolarity,Positive*
G04*
G01*
G75*
%ADD15C,0.0050*%
%ADD79C,0.0067*%
D15*
X021134Y029738D02*
Y030138D01*
X021534D01*
Y029738D01*
X021134D01*
X024134D02*
Y030138D01*
X024534D01*
Y029738D01*
X024134D01*
X026Y00445D02*
Y00485D01*
X0264D01*
Y00445D01*
X026D01*
Y005434D02*
Y005834D01*
X0264D01*
Y005434D01*
X026D01*
X01964Y00135D02*
Y00175D01*
X02004D01*
Y00135D01*
X01964D01*
X020624D02*
Y00175D01*
X021024D01*
Y00135D01*
X020624D01*
X0243Y01145D02*
X0241Y01185D01*
X0245D01*
X0243Y01145D01*
X0253D02*
X0251Y01185D01*
X0255D01*
X0253Y01145D01*
X0263D02*
X0261Y01185D01*
X0265D01*
X0263Y01145D01*
X023096Y00135D02*
Y00175D01*
X023496D01*
Y00135D01*
X023096D01*
X02408D02*
Y00175D01*
X02448D01*
Y00135D01*
X02408D01*
X026Y007916D02*
Y008316D01*
X0264D01*
Y007916D01*
X026D01*
Y0089D02*
Y0093D01*
X0264D01*
Y0089D01*
X026D01*
X007056Y00165D02*
Y00205D01*
X007456D01*
Y00165D01*
X007056D01*
X008041D02*
Y00205D01*
X008441D01*
Y00165D01*
X008041D01*
X01796Y00105D02*
X01806Y00115D01*
X01816D01*
X01806Y00125D01*
X01816Y00135D01*
X01806D01*
X01796Y00145D01*
X01786Y00135D01*
X01776D01*
X01786Y00125D01*
X01776Y00115D01*
X01786D01*
X01796Y00105D01*
X01696D02*
X01706Y00115D01*
X01716D01*
X01706Y00125D01*
X01716Y00135D01*
X01706D01*
X01696Y00145D01*
X01686Y00135D01*
X01676D01*
X01686Y00125D01*
X01676Y00115D01*
X01686D01*
X01696Y00105D01*
X01296D02*
X01306Y00115D01*
X01316D01*
X01306Y00125D01*
X01316Y00135D01*
X01306D01*
X01296Y00145D01*
X01286Y00135D01*
X01276D01*
X01286Y00125D01*
X01276Y00115D01*
X01286D01*
X01296Y00105D01*
X01096D02*
X01106Y00115D01*
X01116D01*
X01106Y00125D01*
X01116Y00135D01*
X01106D01*
X01096Y00145D01*
X01086Y00135D01*
X01076D01*
X01086Y00125D01*
X01076Y00115D01*
X01086D01*
X01096Y00105D01*
X01196D02*
X01206Y00115D01*
X01216D01*
X01206Y00125D01*
X01216Y00135D01*
X01206D01*
X01196Y00145D01*
X01186Y00135D01*
X01176D01*
X01186Y00125D01*
X01176Y00115D01*
X01186D01*
X01196Y00105D01*
X01396D02*
X01406Y00115D01*
X01416D01*
X01406Y00125D01*
X01416Y00135D01*
X01406D01*
X01396Y00145D01*
X01386Y00135D01*
X01376D01*
X01386Y00125D01*
X01376Y00115D01*
X01386D01*
X01396Y00105D01*
X01496D02*
X01506Y00115D01*
X01516D01*
X01506Y00125D01*
X01516Y00135D01*
X01506D01*
X01496Y00145D01*
X01486Y00135D01*
X01476D01*
X01486Y00125D01*
X01476Y00115D01*
X01486D01*
X01496Y00105D01*
X01596D02*
X01606Y00115D01*
X01616D01*
X01606Y00125D01*
X01616Y00135D01*
X01606D01*
X01596Y00145D01*
X01586Y00135D01*
X01576D01*
X01586Y00125D01*
X01576Y00115D01*
X01586D01*
X01596Y00105D01*
X0036Y00165D02*
Y00205D01*
X004D01*
Y00165D01*
X0036D01*
X004584D02*
Y00205D01*
X004984D01*
Y00165D01*
X004584D01*
X00095Y0051D02*
Y0055D01*
X00135D01*
Y0051D01*
X00095D01*
Y004116D02*
Y004516D01*
X00135D01*
Y004116D01*
X00095D01*
Y008684D02*
Y009084D01*
X00135D01*
Y008684D01*
X00095D01*
Y0077D02*
Y0081D01*
X00135D01*
Y0077D01*
X00095D01*
X01365Y02195D02*
X01345Y02235D01*
X01385D01*
X01365Y02195D01*
X01465D02*
X01445Y02235D01*
X01485D01*
X01465Y02195D01*
X01665D02*
X01645Y02235D01*
X01685D01*
X01665Y02195D01*
X01565D02*
X01545Y02235D01*
X01585D01*
X01565Y02195D01*
X0263Y022004D02*
X0264Y022104D01*
X0265D01*
X0264Y022204D01*
X0265Y022304D01*
X0264D01*
X0263Y022404D01*
X0262Y022304D01*
X0261D01*
X0262Y022204D01*
X0261Y022104D01*
X0262D01*
X0263Y022004D01*
Y018004D02*
X0264Y018104D01*
X0265D01*
X0264Y018204D01*
X0265Y018304D01*
X0264D01*
X0263Y018404D01*
X0262Y018304D01*
X0261D01*
X0262Y018204D01*
X0261Y018104D01*
X0262D01*
X0263Y018004D01*
Y016004D02*
X0264Y016104D01*
X0265D01*
X0264Y016204D01*
X0265Y016304D01*
X0264D01*
X0263Y016404D01*
X0262Y016304D01*
X0261D01*
X0262Y016204D01*
X0261Y016104D01*
X0262D01*
X0263Y016004D01*
Y017004D02*
X0264Y017104D01*
X0265D01*
X0264Y017204D01*
X0265Y017304D01*
X0264D01*
X0263Y017404D01*
X0262Y017304D01*
X0261D01*
X0262Y017204D01*
X0261Y017104D01*
X0262D01*
X0263Y017004D01*
Y019004D02*
X0264Y019104D01*
X0265D01*
X0264Y019204D01*
X0265Y019304D01*
X0264D01*
X0263Y019404D01*
X0262Y019304D01*
X0261D01*
X0262Y019204D01*
X0261Y019104D01*
X0262D01*
X0263Y019004D01*
Y020004D02*
X0264Y020104D01*
X0265D01*
X0264Y020204D01*
X0265Y020304D01*
X0264D01*
X0263Y020404D01*
X0262Y020304D01*
X0261D01*
X0262Y020204D01*
X0261Y020104D01*
X0262D01*
X0263Y020004D01*
Y021004D02*
X0264Y021104D01*
X0265D01*
X0264Y021204D01*
X0265Y021304D01*
X0264D01*
X0263Y021404D01*
X0262Y021304D01*
X0261D01*
X0262Y021204D01*
X0261Y021104D01*
X0262D01*
X0263Y021004D01*
Y023004D02*
X0264Y023104D01*
X0265D01*
X0264Y023204D01*
X0265Y023304D01*
X0264D01*
X0263Y023404D01*
X0262Y023304D01*
X0261D01*
X0262Y023204D01*
X0261Y023104D01*
X0262D01*
X0263Y023004D01*
Y024004D02*
X0264Y024104D01*
X0265D01*
X0264Y024204D01*
X0265Y024304D01*
X0264D01*
X0263Y024404D01*
X0262Y024304D01*
X0261D01*
X0262Y024204D01*
X0261Y024104D01*
X0262D01*
X0263Y024004D01*
Y025004D02*
X0264Y025104D01*
X0265D01*
X0264Y025204D01*
X0265Y025304D01*
X0264D01*
X0263Y025404D01*
X0262Y025304D01*
X0261D01*
X0262Y025204D01*
X0261Y025104D01*
X0262D01*
X0263Y025004D01*
X00095Y0199D02*
X00075Y0203D01*
X00115D01*
X00095Y0199D01*
Y0209D02*
X00075Y0213D01*
X00115D01*
X00095Y0209D01*
Y0229D02*
X00075Y0233D01*
X00115D01*
X00095Y0229D01*
Y0219D02*
X00075Y0223D01*
X00115D01*
X00095Y0219D01*
X0243Y0143D02*
X0241Y0147D01*
X0245D01*
X0243Y0143D01*
X0253D02*
X0251Y0147D01*
X0255D01*
X0253Y0143D01*
X0263D02*
X0261Y0147D01*
X0265D01*
X0263Y0143D01*
X00295Y0244D02*
X00275Y0248D01*
X00315D01*
X00295Y0244D01*
X00195D02*
X00175Y0248D01*
X00215D01*
X00195Y0244D01*
X00095D02*
X00075Y0248D01*
X00115D01*
X00095Y0244D01*
X0019Y025736D02*
X0017Y026136D01*
X0021D01*
X0019Y025736D01*
X0009D02*
X0007Y026136D01*
X0011D01*
X0009Y025736D01*
X0243Y012964D02*
X0241Y013364D01*
X0245D01*
X0243Y012964D01*
X0253D02*
X0251Y013364D01*
X0255D01*
X0253Y012964D01*
X0263D02*
X0261Y013364D01*
X0265D01*
X0263Y012964D01*
X0249Y03105D02*
X025D01*
X0251Y03115D01*
X0252Y03105D01*
X0253D01*
Y03115D01*
X0252Y03125D01*
X0253Y03135D01*
Y03145D01*
X0252D01*
X0251Y03135D01*
X025Y03145D01*
X0249D01*
Y03135D01*
X025Y03125D01*
X0249Y03115D01*
Y03105D01*
X02565Y02955D02*
X02575D01*
X02585Y02965D01*
X02595Y02955D01*
X02605D01*
Y02965D01*
X02595Y02975D01*
X02605Y02985D01*
Y02995D01*
X02595D01*
X02585Y02985D01*
X02575Y02995D01*
X02565D01*
Y02985D01*
X02575Y02975D01*
X02565Y02965D01*
Y02955D01*
Y02655D02*
X02575D01*
X02585Y02665D01*
X02595Y02655D01*
X02605D01*
Y02665D01*
X02595Y02675D01*
X02605Y02685D01*
Y02695D01*
X02595D01*
X02585Y02685D01*
X02575Y02695D01*
X02565D01*
Y02685D01*
X02575Y02675D01*
X02565Y02665D01*
Y02655D01*
X0249Y02505D02*
X025D01*
X0251Y02515D01*
X0252Y02505D01*
X0253D01*
Y02515D01*
X0252Y02525D01*
X0253Y02535D01*
Y02545D01*
X0252D01*
X0251Y02535D01*
X025Y02545D01*
X0249D01*
Y02535D01*
X025Y02525D01*
X0249Y02515D01*
Y02505D01*
Y02205D02*
X025D01*
X0251Y02215D01*
X0252Y02205D01*
X0253D01*
Y02215D01*
X0252Y02225D01*
X0253Y02235D01*
Y02245D01*
X0252D01*
X0251Y02235D01*
X025Y02245D01*
X0249D01*
Y02235D01*
X025Y02225D01*
X0249Y02215D01*
Y02205D01*
Y01005D02*
X025D01*
X0251Y01015D01*
X0252Y01005D01*
X0253D01*
Y01015D01*
X0252Y01025D01*
X0253Y01035D01*
Y01045D01*
X0252D01*
X0251Y01035D01*
X025Y01045D01*
X0249D01*
Y01035D01*
X025Y01025D01*
X0249Y01015D01*
Y01005D01*
Y00705D02*
X025D01*
X0251Y00715D01*
X0252Y00705D01*
X0253D01*
Y00715D01*
X0252Y00725D01*
X0253Y00735D01*
Y00745D01*
X0252D01*
X0251Y00735D01*
X025Y00745D01*
X0249D01*
Y00735D01*
X025Y00725D01*
X0249Y00715D01*
Y00705D01*
X02565Y00255D02*
X02575D01*
X02585Y00265D01*
X02595Y00255D01*
X02605D01*
Y00265D01*
X02595Y00275D01*
X02605Y00285D01*
Y00295D01*
X02595D01*
X02585Y00285D01*
X02575Y00295D01*
X02565D01*
Y00285D01*
X02575Y00275D01*
X02565Y00265D01*
Y00255D01*
X0249Y00105D02*
X025D01*
X0251Y00115D01*
X0252Y00105D01*
X0253D01*
Y00115D01*
X0252Y00125D01*
X0253Y00135D01*
Y00145D01*
X0252D01*
X0251Y00135D01*
X025Y00145D01*
X0249D01*
Y00135D01*
X025Y00125D01*
X0249Y00115D01*
Y00105D01*
X0234Y03105D02*
X0235D01*
X0236Y03115D01*
X0237Y03105D01*
X0238D01*
Y03115D01*
X0237Y03125D01*
X0238Y03135D01*
Y03145D01*
X0237D01*
X0236Y03135D01*
X0235Y03145D01*
X0234D01*
Y03135D01*
X0235Y03125D01*
X0234Y03115D01*
Y03105D01*
Y02505D02*
X0235D01*
X0236Y02515D01*
X0237Y02505D01*
X0238D01*
Y02515D01*
X0237Y02525D01*
X0238Y02535D01*
Y02545D01*
X0237D01*
X0236Y02535D01*
X0235Y02545D01*
X0234D01*
Y02535D01*
X0235Y02525D01*
X0234Y02515D01*
Y02505D01*
X02415Y02355D02*
X02425D01*
X02435Y02365D01*
X02445Y02355D01*
X02455D01*
Y02365D01*
X02445Y02375D01*
X02455Y02385D01*
Y02395D01*
X02445D01*
X02435Y02385D01*
X02425Y02395D01*
X02415D01*
Y02385D01*
X02425Y02375D01*
X02415Y02365D01*
Y02355D01*
Y02055D02*
X02425D01*
X02435Y02065D01*
X02445Y02055D01*
X02455D01*
Y02065D01*
X02445Y02075D01*
X02455Y02085D01*
Y02095D01*
X02445D01*
X02435Y02085D01*
X02425Y02095D01*
X02415D01*
Y02085D01*
X02425Y02075D01*
X02415Y02065D01*
Y02055D01*
Y01755D02*
X02425D01*
X02435Y01765D01*
X02445Y01755D01*
X02455D01*
Y01765D01*
X02445Y01775D01*
X02455Y01785D01*
Y01795D01*
X02445D01*
X02435Y01785D01*
X02425Y01795D01*
X02415D01*
Y01785D01*
X02425Y01775D01*
X02415Y01765D01*
Y01755D01*
Y00555D02*
X02425D01*
X02435Y00565D01*
X02445Y00555D01*
X02455D01*
Y00565D01*
X02445Y00575D01*
X02455Y00585D01*
Y00595D01*
X02445D01*
X02435Y00585D01*
X02425Y00595D01*
X02415D01*
Y00585D01*
X02425Y00575D01*
X02415Y00565D01*
Y00555D01*
X0219Y03105D02*
X022D01*
X0221Y03115D01*
X0222Y03105D01*
X0223D01*
Y03115D01*
X0222Y03125D01*
X0223Y03135D01*
Y03145D01*
X0222D01*
X0221Y03135D01*
X022Y03145D01*
X0219D01*
Y03135D01*
X022Y03125D01*
X0219Y03115D01*
Y03105D01*
X02265Y02955D02*
X02275D01*
X02285Y02965D01*
X02295Y02955D01*
X02305D01*
Y02965D01*
X02295Y02975D01*
X02305Y02985D01*
Y02995D01*
X02295D01*
X02285Y02985D01*
X02275Y02995D01*
X02265D01*
Y02985D01*
X02275Y02975D01*
X02265Y02965D01*
Y02955D01*
X0219Y02805D02*
X022D01*
X0221Y02815D01*
X0222Y02805D01*
X0223D01*
Y02815D01*
X0222Y02825D01*
X0223Y02835D01*
Y02845D01*
X0222D01*
X0221Y02835D01*
X022Y02845D01*
X0219D01*
Y02835D01*
X022Y02825D01*
X0219Y02815D01*
Y02805D01*
Y02505D02*
X022D01*
X0221Y02515D01*
X0222Y02505D01*
X0223D01*
Y02515D01*
X0222Y02525D01*
X0223Y02535D01*
Y02545D01*
X0222D01*
X0221Y02535D01*
X022Y02545D01*
X0219D01*
Y02535D01*
X022Y02525D01*
X0219Y02515D01*
Y02505D01*
X02265Y02355D02*
X02275D01*
X02285Y02365D01*
X02295Y02355D01*
X02305D01*
Y02365D01*
X02295Y02375D01*
X02305Y02385D01*
Y02395D01*
X02295D01*
X02285Y02385D01*
X02275Y02395D01*
X02265D01*
Y02385D01*
X02275Y02375D01*
X02265Y02365D01*
Y02355D01*
X0219Y02205D02*
X022D01*
X0221Y02215D01*
X0222Y02205D01*
X0223D01*
Y02215D01*
X0222Y02225D01*
X0223Y02235D01*
Y02245D01*
X0222D01*
X0221Y02235D01*
X022Y02245D01*
X0219D01*
Y02235D01*
X022Y02225D01*
X0219Y02215D01*
Y02205D01*
Y00105D02*
X022D01*
X0221Y00115D01*
X0222Y00105D01*
X0223D01*
Y00115D01*
X0222Y00125D01*
X0223Y00135D01*
Y00145D01*
X0222D01*
X0221Y00135D01*
X022Y00145D01*
X0219D01*
Y00135D01*
X022Y00125D01*
X0219Y00115D01*
Y00105D01*
X0204Y03105D02*
X0205D01*
X0206Y03115D01*
X0207Y03105D01*
X0208D01*
Y03115D01*
X0207Y03125D01*
X0208Y03135D01*
Y03145D01*
X0207D01*
X0206Y03135D01*
X0205Y03145D01*
X0204D01*
Y03135D01*
X0205Y03125D01*
X0204Y03115D01*
Y03105D01*
Y02505D02*
X0205D01*
X0206Y02515D01*
X0207Y02505D01*
X0208D01*
Y02515D01*
X0207Y02525D01*
X0208Y02535D01*
Y02545D01*
X0207D01*
X0206Y02535D01*
X0205Y02545D01*
X0204D01*
Y02535D01*
X0205Y02525D01*
X0204Y02515D01*
Y02505D01*
Y02205D02*
X0205D01*
X0206Y02215D01*
X0207Y02205D01*
X0208D01*
Y02215D01*
X0207Y02225D01*
X0208Y02235D01*
Y02245D01*
X0207D01*
X0206Y02235D01*
X0205Y02245D01*
X0204D01*
Y02235D01*
X0205Y02225D01*
X0204Y02215D01*
Y02205D01*
X02115Y02055D02*
X02125D01*
X02135Y02065D01*
X02145Y02055D01*
X02155D01*
Y02065D01*
X02145Y02075D01*
X02155Y02085D01*
Y02095D01*
X02145D01*
X02135Y02085D01*
X02125Y02095D01*
X02115D01*
Y02085D01*
X02125Y02075D01*
X02115Y02065D01*
Y02055D01*
Y01755D02*
X02125D01*
X02135Y01765D01*
X02145Y01755D01*
X02155D01*
Y01765D01*
X02145Y01775D01*
X02155Y01785D01*
Y01795D01*
X02145D01*
X02135Y01785D01*
X02125Y01795D01*
X02115D01*
Y01785D01*
X02125Y01775D01*
X02115Y01765D01*
Y01755D01*
X0204Y01605D02*
X0205D01*
X0206Y01615D01*
X0207Y01605D01*
X0208D01*
Y01615D01*
X0207Y01625D01*
X0208Y01635D01*
Y01645D01*
X0207D01*
X0206Y01635D01*
X0205Y01645D01*
X0204D01*
Y01635D01*
X0205Y01625D01*
X0204Y01615D01*
Y01605D01*
Y00705D02*
X0205D01*
X0206Y00715D01*
X0207Y00705D01*
X0208D01*
Y00715D01*
X0207Y00725D01*
X0208Y00735D01*
Y00745D01*
X0207D01*
X0206Y00735D01*
X0205Y00745D01*
X0204D01*
Y00735D01*
X0205Y00725D01*
X0204Y00715D01*
Y00705D01*
X0189Y03105D02*
X019D01*
X0191Y03115D01*
X0192Y03105D01*
X0193D01*
Y03115D01*
X0192Y03125D01*
X0193Y03135D01*
Y03145D01*
X0192D01*
X0191Y03135D01*
X019Y03145D01*
X0189D01*
Y03135D01*
X019Y03125D01*
X0189Y03115D01*
Y03105D01*
X01965Y02955D02*
X01975D01*
X01985Y02965D01*
X01995Y02955D01*
X02005D01*
Y02965D01*
X01995Y02975D01*
X02005Y02985D01*
Y02995D01*
X01995D01*
X01985Y02985D01*
X01975Y02995D01*
X01965D01*
Y02985D01*
X01975Y02975D01*
X01965Y02965D01*
Y02955D01*
X0189Y02505D02*
X019D01*
X0191Y02515D01*
X0192Y02505D01*
X0193D01*
Y02515D01*
X0192Y02525D01*
X0193Y02535D01*
Y02545D01*
X0192D01*
X0191Y02535D01*
X019Y02545D01*
X0189D01*
Y02535D01*
X019Y02525D01*
X0189Y02515D01*
Y02505D01*
Y00705D02*
X019D01*
X0191Y00715D01*
X0192Y00705D01*
X0193D01*
Y00715D01*
X0192Y00725D01*
X0193Y00735D01*
Y00745D01*
X0192D01*
X0191Y00735D01*
X019Y00745D01*
X0189D01*
Y00735D01*
X019Y00725D01*
X0189Y00715D01*
Y00705D01*
Y00105D02*
X019D01*
X0191Y00115D01*
X0192Y00105D01*
X0193D01*
Y00115D01*
X0192Y00125D01*
X0193Y00135D01*
Y00145D01*
X0192D01*
X0191Y00135D01*
X019Y00145D01*
X0189D01*
Y00135D01*
X019Y00125D01*
X0189Y00115D01*
Y00105D01*
X0174Y02505D02*
X0175D01*
X0176Y02515D01*
X0177Y02505D01*
X0178D01*
Y02515D01*
X0177Y02525D01*
X0178Y02535D01*
Y02545D01*
X0177D01*
X0176Y02535D01*
X0175Y02545D01*
X0174D01*
Y02535D01*
X0175Y02525D01*
X0174Y02515D01*
Y02505D01*
Y02205D02*
X0175D01*
X0176Y02215D01*
X0177Y02205D01*
X0178D01*
Y02215D01*
X0177Y02225D01*
X0178Y02235D01*
Y02245D01*
X0177D01*
X0176Y02235D01*
X0175Y02245D01*
X0174D01*
Y02235D01*
X0175Y02225D01*
X0174Y02215D01*
Y02205D01*
Y00705D02*
X0175D01*
X0176Y00715D01*
X0177Y00705D01*
X0178D01*
Y00715D01*
X0177Y00725D01*
X0178Y00735D01*
Y00745D01*
X0177D01*
X0176Y00735D01*
X0175Y00745D01*
X0174D01*
Y00735D01*
X0175Y00725D01*
X0174Y00715D01*
Y00705D01*
X0159Y02505D02*
X016D01*
X0161Y02515D01*
X0162Y02505D01*
X0163D01*
Y02515D01*
X0162Y02525D01*
X0163Y02535D01*
Y02545D01*
X0162D01*
X0161Y02535D01*
X016Y02545D01*
X0159D01*
Y02535D01*
X016Y02525D01*
X0159Y02515D01*
Y02505D01*
X01665Y01755D02*
X01675D01*
X01685Y01765D01*
X01695Y01755D01*
X01705D01*
Y01765D01*
X01695Y01775D01*
X01705Y01785D01*
Y01795D01*
X01695D01*
X01685Y01785D01*
X01675Y01795D01*
X01665D01*
Y01785D01*
X01675Y01775D01*
X01665Y01765D01*
Y01755D01*
X0159Y01605D02*
X016D01*
X0161Y01615D01*
X0162Y01605D01*
X0163D01*
Y01615D01*
X0162Y01625D01*
X0163Y01635D01*
Y01645D01*
X0162D01*
X0161Y01635D01*
X016Y01645D01*
X0159D01*
Y01635D01*
X016Y01625D01*
X0159Y01615D01*
Y01605D01*
X01665Y01455D02*
X01675D01*
X01685Y01465D01*
X01695Y01455D01*
X01705D01*
Y01465D01*
X01695Y01475D01*
X01705Y01485D01*
Y01495D01*
X01695D01*
X01685Y01485D01*
X01675Y01495D01*
X01665D01*
Y01485D01*
X01675Y01475D01*
X01665Y01465D01*
Y01455D01*
Y00855D02*
X01675D01*
X01685Y00865D01*
X01695Y00855D01*
X01705D01*
Y00865D01*
X01695Y00875D01*
X01705Y00885D01*
Y00895D01*
X01695D01*
X01685Y00885D01*
X01675Y00895D01*
X01665D01*
Y00885D01*
X01675Y00875D01*
X01665Y00865D01*
Y00855D01*
Y00555D02*
X01675D01*
X01685Y00565D01*
X01695Y00555D01*
X01705D01*
Y00565D01*
X01695Y00575D01*
X01705Y00585D01*
Y00595D01*
X01695D01*
X01685Y00585D01*
X01675Y00595D01*
X01665D01*
Y00585D01*
X01675Y00575D01*
X01665Y00565D01*
Y00555D01*
X0144Y03105D02*
X0145D01*
X0146Y03115D01*
X0147Y03105D01*
X0148D01*
Y03115D01*
X0147Y03125D01*
X0148Y03135D01*
Y03145D01*
X0147D01*
X0146Y03135D01*
X0145Y03145D01*
X0144D01*
Y03135D01*
X0145Y03125D01*
X0144Y03115D01*
Y03105D01*
X01515Y02955D02*
X01525D01*
X01535Y02965D01*
X01545Y02955D01*
X01555D01*
Y02965D01*
X01545Y02975D01*
X01555Y02985D01*
Y02995D01*
X01545D01*
X01535Y02985D01*
X01525Y02995D01*
X01515D01*
Y02985D01*
X01525Y02975D01*
X01515Y02965D01*
Y02955D01*
Y02055D02*
X01525D01*
X01535Y02065D01*
X01545Y02055D01*
X01555D01*
Y02065D01*
X01545Y02075D01*
X01555Y02085D01*
Y02095D01*
X01545D01*
X01535Y02085D01*
X01525Y02095D01*
X01515D01*
Y02085D01*
X01525Y02075D01*
X01515Y02065D01*
Y02055D01*
Y01755D02*
X01525D01*
X01535Y01765D01*
X01545Y01755D01*
X01555D01*
Y01765D01*
X01545Y01775D01*
X01555Y01785D01*
Y01795D01*
X01545D01*
X01535Y01785D01*
X01525Y01795D01*
X01515D01*
Y01785D01*
X01525Y01775D01*
X01515Y01765D01*
Y01755D01*
Y01455D02*
X01525D01*
X01535Y01465D01*
X01545Y01455D01*
X01555D01*
Y01465D01*
X01545Y01475D01*
X01555Y01485D01*
Y01495D01*
X01545D01*
X01535Y01485D01*
X01525Y01495D01*
X01515D01*
Y01485D01*
X01525Y01475D01*
X01515Y01465D01*
Y01455D01*
X0144Y00705D02*
X0145D01*
X0146Y00715D01*
X0147Y00705D01*
X0148D01*
Y00715D01*
X0147Y00725D01*
X0148Y00735D01*
Y00745D01*
X0147D01*
X0146Y00735D01*
X0145Y00745D01*
X0144D01*
Y00735D01*
X0145Y00725D01*
X0144Y00715D01*
Y00705D01*
X0129Y03105D02*
X013D01*
X0131Y03115D01*
X0132Y03105D01*
X0133D01*
Y03115D01*
X0132Y03125D01*
X0133Y03135D01*
Y03145D01*
X0132D01*
X0131Y03135D01*
X013Y03145D01*
X0129D01*
Y03135D01*
X013Y03125D01*
X0129Y03115D01*
Y03105D01*
X01365Y02955D02*
X01375D01*
X01385Y02965D01*
X01395Y02955D01*
X01405D01*
Y02965D01*
X01395Y02975D01*
X01405Y02985D01*
Y02995D01*
X01395D01*
X01385Y02985D01*
X01375Y02995D01*
X01365D01*
Y02985D01*
X01375Y02975D01*
X01365Y02965D01*
Y02955D01*
X0129Y02805D02*
X013D01*
X0131Y02815D01*
X0132Y02805D01*
X0133D01*
Y02815D01*
X0132Y02825D01*
X0133Y02835D01*
Y02845D01*
X0132D01*
X0131Y02835D01*
X013Y02845D01*
X0129D01*
Y02835D01*
X013Y02825D01*
X0129Y02815D01*
Y02805D01*
X01365Y01755D02*
X01375D01*
X01385Y01765D01*
X01395Y01755D01*
X01405D01*
Y01765D01*
X01395Y01775D01*
X01405Y01785D01*
Y01795D01*
X01395D01*
X01385Y01785D01*
X01375Y01795D01*
X01365D01*
Y01785D01*
X01375Y01775D01*
X01365Y01765D01*
Y01755D01*
X0129Y01605D02*
X013D01*
X0131Y01615D01*
X0132Y01605D01*
X0133D01*
Y01615D01*
X0132Y01625D01*
X0133Y01635D01*
Y01645D01*
X0132D01*
X0131Y01635D01*
X013Y01645D01*
X0129D01*
Y01635D01*
X013Y01625D01*
X0129Y01615D01*
Y01605D01*
X01365Y01455D02*
X01375D01*
X01385Y01465D01*
X01395Y01455D01*
X01405D01*
Y01465D01*
X01395Y01475D01*
X01405Y01485D01*
Y01495D01*
X01395D01*
X01385Y01485D01*
X01375Y01495D01*
X01365D01*
Y01485D01*
X01375Y01475D01*
X01365Y01465D01*
Y01455D01*
X0129Y00705D02*
X013D01*
X0131Y00715D01*
X0132Y00705D01*
X0133D01*
Y00715D01*
X0132Y00725D01*
X0133Y00735D01*
Y00745D01*
X0132D01*
X0131Y00735D01*
X013Y00745D01*
X0129D01*
Y00735D01*
X013Y00725D01*
X0129Y00715D01*
Y00705D01*
X01215Y02955D02*
X01225D01*
X01235Y02965D01*
X01245Y02955D01*
X01255D01*
Y02965D01*
X01245Y02975D01*
X01255Y02985D01*
Y02995D01*
X01245D01*
X01235Y02985D01*
X01225Y02995D01*
X01215D01*
Y02985D01*
X01225Y02975D01*
X01215Y02965D01*
Y02955D01*
Y02355D02*
X01225D01*
X01235Y02365D01*
X01245Y02355D01*
X01255D01*
Y02365D01*
X01245Y02375D01*
X01255Y02385D01*
Y02395D01*
X01245D01*
X01235Y02385D01*
X01225Y02395D01*
X01215D01*
Y02385D01*
X01225Y02375D01*
X01215Y02365D01*
Y02355D01*
Y01755D02*
X01225D01*
X01235Y01765D01*
X01245Y01755D01*
X01255D01*
Y01765D01*
X01245Y01775D01*
X01255Y01785D01*
Y01795D01*
X01245D01*
X01235Y01785D01*
X01225Y01795D01*
X01215D01*
Y01785D01*
X01225Y01775D01*
X01215Y01765D01*
Y01755D01*
X0114Y00705D02*
X0115D01*
X0116Y00715D01*
X0117Y00705D01*
X0118D01*
Y00715D01*
X0117Y00725D01*
X0118Y00735D01*
Y00745D01*
X0117D01*
X0116Y00735D01*
X0115Y00745D01*
X0114D01*
Y00735D01*
X0115Y00725D01*
X0114Y00715D01*
Y00705D01*
X01065Y02955D02*
X01075D01*
X01085Y02965D01*
X01095Y02955D01*
X01105D01*
Y02965D01*
X01095Y02975D01*
X01105Y02985D01*
Y02995D01*
X01095D01*
X01085Y02985D01*
X01075Y02995D01*
X01065D01*
Y02985D01*
X01075Y02975D01*
X01065Y02965D01*
Y02955D01*
Y00855D02*
X01075D01*
X01085Y00865D01*
X01095Y00855D01*
X01105D01*
Y00865D01*
X01095Y00875D01*
X01105Y00885D01*
Y00895D01*
X01095D01*
X01085Y00885D01*
X01075Y00895D01*
X01065D01*
Y00885D01*
X01075Y00875D01*
X01065Y00865D01*
Y00855D01*
X0099Y00705D02*
X01D01*
X0101Y00715D01*
X0102Y00705D01*
X0103D01*
Y00715D01*
X0102Y00725D01*
X0103Y00735D01*
Y00745D01*
X0102D01*
X0101Y00735D01*
X01Y00745D01*
X0099D01*
Y00735D01*
X01Y00725D01*
X0099Y00715D01*
Y00705D01*
X01065Y00555D02*
X01075D01*
X01085Y00565D01*
X01095Y00555D01*
X01105D01*
Y00565D01*
X01095Y00575D01*
X01105Y00585D01*
Y00595D01*
X01095D01*
X01085Y00585D01*
X01075Y00595D01*
X01065D01*
Y00585D01*
X01075Y00575D01*
X01065Y00565D01*
Y00555D01*
X0099Y00405D02*
X01D01*
X0101Y00415D01*
X0102Y00405D01*
X0103D01*
Y00415D01*
X0102Y00425D01*
X0103Y00435D01*
Y00445D01*
X0102D01*
X0101Y00435D01*
X01Y00445D01*
X0099D01*
Y00435D01*
X01Y00425D01*
X0099Y00415D01*
Y00405D01*
X01065Y00255D02*
X01075D01*
X01085Y00265D01*
X01095Y00255D01*
X01105D01*
Y00265D01*
X01095Y00275D01*
X01105Y00285D01*
Y00295D01*
X01095D01*
X01085Y00285D01*
X01075Y00295D01*
X01065D01*
Y00285D01*
X01075Y00275D01*
X01065Y00265D01*
Y00255D01*
X0099Y00105D02*
X01D01*
X0101Y00115D01*
X0102Y00105D01*
X0103D01*
Y00115D01*
X0102Y00125D01*
X0103Y00135D01*
Y00145D01*
X0102D01*
X0101Y00135D01*
X01Y00145D01*
X0099D01*
Y00135D01*
X01Y00125D01*
X0099Y00115D01*
Y00105D01*
X0084Y03105D02*
X0085D01*
X0086Y03115D01*
X0087Y03105D01*
X0088D01*
Y03115D01*
X0087Y03125D01*
X0088Y03135D01*
Y03145D01*
X0087D01*
X0086Y03135D01*
X0085Y03145D01*
X0084D01*
Y03135D01*
X0085Y03125D01*
X0084Y03115D01*
Y03105D01*
X00915Y02955D02*
X00925D01*
X00935Y02965D01*
X00945Y02955D01*
X00955D01*
Y02965D01*
X00945Y02975D01*
X00955Y02985D01*
Y02995D01*
X00945D01*
X00935Y02985D01*
X00925Y02995D01*
X00915D01*
Y02985D01*
X00925Y02975D01*
X00915Y02965D01*
Y02955D01*
X0084Y02805D02*
X0085D01*
X0086Y02815D01*
X0087Y02805D01*
X0088D01*
Y02815D01*
X0087Y02825D01*
X0088Y02835D01*
Y02845D01*
X0087D01*
X0086Y02835D01*
X0085Y02845D01*
X0084D01*
Y02835D01*
X0085Y02825D01*
X0084Y02815D01*
Y02805D01*
X00915Y02655D02*
X00925D01*
X00935Y02665D01*
X00945Y02655D01*
X00955D01*
Y02665D01*
X00945Y02675D01*
X00955Y02685D01*
Y02695D01*
X00945D01*
X00935Y02685D01*
X00925Y02695D01*
X00915D01*
Y02685D01*
X00925Y02675D01*
X00915Y02665D01*
Y02655D01*
X0084Y02505D02*
X0085D01*
X0086Y02515D01*
X0087Y02505D01*
X0088D01*
Y02515D01*
X0087Y02525D01*
X0088Y02535D01*
Y02545D01*
X0087D01*
X0086Y02535D01*
X0085Y02545D01*
X0084D01*
Y02535D01*
X0085Y02525D01*
X0084Y02515D01*
Y02505D01*
X00915Y02355D02*
X00925D01*
X00935Y02365D01*
X00945Y02355D01*
X00955D01*
Y02365D01*
X00945Y02375D01*
X00955Y02385D01*
Y02395D01*
X00945D01*
X00935Y02385D01*
X00925Y02395D01*
X00915D01*
Y02385D01*
X00925Y02375D01*
X00915Y02365D01*
Y02355D01*
Y00855D02*
X00925D01*
X00935Y00865D01*
X00945Y00855D01*
X00955D01*
Y00865D01*
X00945Y00875D01*
X00955Y00885D01*
Y00895D01*
X00945D01*
X00935Y00885D01*
X00925Y00895D01*
X00915D01*
Y00885D01*
X00925Y00875D01*
X00915Y00865D01*
Y00855D01*
X0084Y00705D02*
X0085D01*
X0086Y00715D01*
X0087Y00705D01*
X0088D01*
Y00715D01*
X0087Y00725D01*
X0088Y00735D01*
Y00745D01*
X0087D01*
X0086Y00735D01*
X0085Y00745D01*
X0084D01*
Y00735D01*
X0085Y00725D01*
X0084Y00715D01*
Y00705D01*
X00915Y00555D02*
X00925D01*
X00935Y00565D01*
X00945Y00555D01*
X00955D01*
Y00565D01*
X00945Y00575D01*
X00955Y00585D01*
Y00595D01*
X00945D01*
X00935Y00585D01*
X00925Y00595D01*
X00915D01*
Y00585D01*
X00925Y00575D01*
X00915Y00565D01*
Y00555D01*
X0084Y00405D02*
X0085D01*
X0086Y00415D01*
X0087Y00405D01*
X0088D01*
Y00415D01*
X0087Y00425D01*
X0088Y00435D01*
Y00445D01*
X0087D01*
X0086Y00435D01*
X0085Y00445D01*
X0084D01*
Y00435D01*
X0085Y00425D01*
X0084Y00415D01*
Y00405D01*
X00915Y00255D02*
X00925D01*
X00935Y00265D01*
X00945Y00255D01*
X00955D01*
Y00265D01*
X00945Y00275D01*
X00955Y00285D01*
Y00295D01*
X00945D01*
X00935Y00285D01*
X00925Y00295D01*
X00915D01*
Y00285D01*
X00925Y00275D01*
X00915Y00265D01*
Y00255D01*
X0069Y03105D02*
X007D01*
X0071Y03115D01*
X0072Y03105D01*
X0073D01*
Y03115D01*
X0072Y03125D01*
X0073Y03135D01*
Y03145D01*
X0072D01*
X0071Y03135D01*
X007Y03145D01*
X0069D01*
Y03135D01*
X007Y03125D01*
X0069Y03115D01*
Y03105D01*
Y02505D02*
X007D01*
X0071Y02515D01*
X0072Y02505D01*
X0073D01*
Y02515D01*
X0072Y02525D01*
X0073Y02535D01*
Y02545D01*
X0072D01*
X0071Y02535D01*
X007Y02545D01*
X0069D01*
Y02535D01*
X007Y02525D01*
X0069Y02515D01*
Y02505D01*
Y02205D02*
X007D01*
X0071Y02215D01*
X0072Y02205D01*
X0073D01*
Y02215D01*
X0072Y02225D01*
X0073Y02235D01*
Y02245D01*
X0072D01*
X0071Y02235D01*
X007Y02245D01*
X0069D01*
Y02235D01*
X007Y02225D01*
X0069Y02215D01*
Y02205D01*
Y00705D02*
X007D01*
X0071Y00715D01*
X0072Y00705D01*
X0073D01*
Y00715D01*
X0072Y00725D01*
X0073Y00735D01*
Y00745D01*
X0072D01*
X0071Y00735D01*
X007Y00745D01*
X0069D01*
Y00735D01*
X007Y00725D01*
X0069Y00715D01*
Y00705D01*
X0054Y02805D02*
X0055D01*
X0056Y02815D01*
X0057Y02805D01*
X0058D01*
Y02815D01*
X0057Y02825D01*
X0058Y02835D01*
Y02845D01*
X0057D01*
X0056Y02835D01*
X0055Y02845D01*
X0054D01*
Y02835D01*
X0055Y02825D01*
X0054Y02815D01*
Y02805D01*
X00615Y02655D02*
X00625D01*
X00635Y02665D01*
X00645Y02655D01*
X00655D01*
Y02665D01*
X00645Y02675D01*
X00655Y02685D01*
Y02695D01*
X00645D01*
X00635Y02685D01*
X00625Y02695D01*
X00615D01*
Y02685D01*
X00625Y02675D01*
X00615Y02665D01*
Y02655D01*
Y02355D02*
X00625D01*
X00635Y02365D01*
X00645Y02355D01*
X00655D01*
Y02365D01*
X00645Y02375D01*
X00655Y02385D01*
Y02395D01*
X00645D01*
X00635Y02385D01*
X00625Y02395D01*
X00615D01*
Y02385D01*
X00625Y02375D01*
X00615Y02365D01*
Y02355D01*
Y01755D02*
X00625D01*
X00635Y01765D01*
X00645Y01755D01*
X00655D01*
Y01765D01*
X00645Y01775D01*
X00655Y01785D01*
Y01795D01*
X00645D01*
X00635Y01785D01*
X00625Y01795D01*
X00615D01*
Y01785D01*
X00625Y01775D01*
X00615Y01765D01*
Y01755D01*
X0054Y00705D02*
X0055D01*
X0056Y00715D01*
X0057Y00705D01*
X0058D01*
Y00715D01*
X0057Y00725D01*
X0058Y00735D01*
Y00745D01*
X0057D01*
X0056Y00735D01*
X0055Y00745D01*
X0054D01*
Y00735D01*
X0055Y00725D01*
X0054Y00715D01*
Y00705D01*
X00615Y00255D02*
X00625D01*
X00635Y00265D01*
X00645Y00255D01*
X00655D01*
Y00265D01*
X00645Y00275D01*
X00655Y00285D01*
Y00295D01*
X00645D01*
X00635Y00285D01*
X00625Y00295D01*
X00615D01*
Y00285D01*
X00625Y00275D01*
X00615Y00265D01*
Y00255D01*
X0054Y00105D02*
X0055D01*
X0056Y00115D01*
X0057Y00105D01*
X0058D01*
Y00115D01*
X0057Y00125D01*
X0058Y00135D01*
Y00145D01*
X0057D01*
X0056Y00135D01*
X0055Y00145D01*
X0054D01*
Y00135D01*
X0055Y00125D01*
X0054Y00115D01*
Y00105D01*
X0039Y03105D02*
X004D01*
X0041Y03115D01*
X0042Y03105D01*
X0043D01*
Y03115D01*
X0042Y03125D01*
X0043Y03135D01*
Y03145D01*
X0042D01*
X0041Y03135D01*
X004Y03145D01*
X0039D01*
Y03135D01*
X004Y03125D01*
X0039Y03115D01*
Y03105D01*
X00465Y02655D02*
X00475D01*
X00485Y02665D01*
X00495Y02655D01*
X00505D01*
Y02665D01*
X00495Y02675D01*
X00505Y02685D01*
Y02695D01*
X00495D01*
X00485Y02685D01*
X00475Y02695D01*
X00465D01*
Y02685D01*
X00475Y02675D01*
X00465Y02665D01*
Y02655D01*
X0039Y02505D02*
X004D01*
X0041Y02515D01*
X0042Y02505D01*
X0043D01*
Y02515D01*
X0042Y02525D01*
X0043Y02535D01*
Y02545D01*
X0042D01*
X0041Y02535D01*
X004Y02545D01*
X0039D01*
Y02535D01*
X004Y02525D01*
X0039Y02515D01*
Y02505D01*
X00465Y02355D02*
X00475D01*
X00485Y02365D01*
X00495Y02355D01*
X00505D01*
Y02365D01*
X00495Y02375D01*
X00505Y02385D01*
Y02395D01*
X00495D01*
X00485Y02385D01*
X00475Y02395D01*
X00465D01*
Y02385D01*
X00475Y02375D01*
X00465Y02365D01*
Y02355D01*
X0039Y01905D02*
X004D01*
X0041Y01915D01*
X0042Y01905D01*
X0043D01*
Y01915D01*
X0042Y01925D01*
X0043Y01935D01*
Y01945D01*
X0042D01*
X0041Y01935D01*
X004Y01945D01*
X0039D01*
Y01935D01*
X004Y01925D01*
X0039Y01915D01*
Y01905D01*
X00465Y01755D02*
X00475D01*
X00485Y01765D01*
X00495Y01755D01*
X00505D01*
Y01765D01*
X00495Y01775D01*
X00505Y01785D01*
Y01795D01*
X00495D01*
X00485Y01785D01*
X00475Y01795D01*
X00465D01*
Y01785D01*
X00475Y01775D01*
X00465Y01765D01*
Y01755D01*
X0039Y01605D02*
X004D01*
X0041Y01615D01*
X0042Y01605D01*
X0043D01*
Y01615D01*
X0042Y01625D01*
X0043Y01635D01*
Y01645D01*
X0042D01*
X0041Y01635D01*
X004Y01645D01*
X0039D01*
Y01635D01*
X004Y01625D01*
X0039Y01615D01*
Y01605D01*
Y01305D02*
X004D01*
X0041Y01315D01*
X0042Y01305D01*
X0043D01*
Y01315D01*
X0042Y01325D01*
X0043Y01335D01*
Y01345D01*
X0042D01*
X0041Y01335D01*
X004Y01345D01*
X0039D01*
Y01335D01*
X004Y01325D01*
X0039Y01315D01*
Y01305D01*
Y00105D02*
X004D01*
X0041Y00115D01*
X0042Y00105D01*
X0043D01*
Y00115D01*
X0042Y00125D01*
X0043Y00135D01*
Y00145D01*
X0042D01*
X0041Y00135D01*
X004Y00145D01*
X0039D01*
Y00135D01*
X004Y00125D01*
X0039Y00115D01*
Y00105D01*
X0024Y03105D02*
X0025D01*
X0026Y03115D01*
X0027Y03105D01*
X0028D01*
Y03115D01*
X0027Y03125D01*
X0028Y03135D01*
Y03145D01*
X0027D01*
X0026Y03135D01*
X0025Y03145D01*
X0024D01*
Y03135D01*
X0025Y03125D01*
X0024Y03115D01*
Y03105D01*
X00315Y02655D02*
X00325D01*
X00335Y02665D01*
X00345Y02655D01*
X00355D01*
Y02665D01*
X00345Y02675D01*
X00355Y02685D01*
Y02695D01*
X00345D01*
X00335Y02685D01*
X00325Y02695D01*
X00315D01*
Y02685D01*
X00325Y02675D01*
X00315Y02665D01*
Y02655D01*
X0024Y01905D02*
X0025D01*
X0026Y01915D01*
X0027Y01905D01*
X0028D01*
Y01915D01*
X0027Y01925D01*
X0028Y01935D01*
Y01945D01*
X0027D01*
X0026Y01935D01*
X0025Y01945D01*
X0024D01*
Y01935D01*
X0025Y01925D01*
X0024Y01915D01*
Y01905D01*
X00315Y01755D02*
X00325D01*
X00335Y01765D01*
X00345Y01755D01*
X00355D01*
Y01765D01*
X00345Y01775D01*
X00355Y01785D01*
Y01795D01*
X00345D01*
X00335Y01785D01*
X00325Y01795D01*
X00315D01*
Y01785D01*
X00325Y01775D01*
X00315Y01765D01*
Y01755D01*
X0024Y01605D02*
X0025D01*
X0026Y01615D01*
X0027Y01605D01*
X0028D01*
Y01615D01*
X0027Y01625D01*
X0028Y01635D01*
Y01645D01*
X0027D01*
X0026Y01635D01*
X0025Y01645D01*
X0024D01*
Y01635D01*
X0025Y01625D01*
X0024Y01615D01*
Y01605D01*
Y01005D02*
X0025D01*
X0026Y01015D01*
X0027Y01005D01*
X0028D01*
Y01015D01*
X0027Y01025D01*
X0028Y01035D01*
Y01045D01*
X0027D01*
X0026Y01035D01*
X0025Y01045D01*
X0024D01*
Y01035D01*
X0025Y01025D01*
X0024Y01015D01*
Y01005D01*
X00315Y00855D02*
X00325D01*
X00335Y00865D01*
X00345Y00855D01*
X00355D01*
Y00865D01*
X00345Y00875D01*
X00355Y00885D01*
Y00895D01*
X00345D01*
X00335Y00885D01*
X00325Y00895D01*
X00315D01*
Y00885D01*
X00325Y00875D01*
X00315Y00865D01*
Y00855D01*
X0024Y00705D02*
X0025D01*
X0026Y00715D01*
X0027Y00705D01*
X0028D01*
Y00715D01*
X0027Y00725D01*
X0028Y00735D01*
Y00745D01*
X0027D01*
X0026Y00735D01*
X0025Y00745D01*
X0024D01*
Y00735D01*
X0025Y00725D01*
X0024Y00715D01*
Y00705D01*
X00315Y00555D02*
X00325D01*
X00335Y00565D01*
X00345Y00555D01*
X00355D01*
Y00565D01*
X00345Y00575D01*
X00355Y00585D01*
Y00595D01*
X00345D01*
X00335Y00585D01*
X00325Y00595D01*
X00315D01*
Y00585D01*
X00325Y00575D01*
X00315Y00565D01*
Y00555D01*
Y00255D02*
X00325D01*
X00335Y00265D01*
X00345Y00255D01*
X00355D01*
Y00265D01*
X00345Y00275D01*
X00355Y00285D01*
Y00295D01*
X00345D01*
X00335Y00285D01*
X00325Y00295D01*
X00315D01*
Y00285D01*
X00325Y00275D01*
X00315Y00265D01*
Y00255D01*
X0024Y00105D02*
X0025D01*
X0026Y00115D01*
X0027Y00105D01*
X0028D01*
Y00115D01*
X0027Y00125D01*
X0028Y00135D01*
Y00145D01*
X0027D01*
X0026Y00135D01*
X0025Y00145D01*
X0024D01*
Y00135D01*
X0025Y00125D01*
X0024Y00115D01*
Y00105D01*
X00165Y02355D02*
X00175D01*
X00185Y02365D01*
X00195Y02355D01*
X00205D01*
Y02365D01*
X00195Y02375D01*
X00205Y02385D01*
Y02395D01*
X00195D01*
X00185Y02385D01*
X00175Y02395D01*
X00165D01*
Y02385D01*
X00175Y02375D01*
X00165Y02365D01*
Y02355D01*
X0009Y01905D02*
X001D01*
X0011Y01915D01*
X0012Y01905D01*
X0013D01*
Y01915D01*
X0012Y01925D01*
X0013Y01935D01*
Y01945D01*
X0012D01*
X0011Y01935D01*
X001Y01945D01*
X0009D01*
Y01935D01*
X001Y01925D01*
X0009Y01915D01*
Y01905D01*
X00165Y01755D02*
X00175D01*
X00185Y01765D01*
X00195Y01755D01*
X00205D01*
Y01765D01*
X00195Y01775D01*
X00205Y01785D01*
Y01795D01*
X00195D01*
X00185Y01785D01*
X00175Y01795D01*
X00165D01*
Y01785D01*
X00175Y01775D01*
X00165Y01765D01*
Y01755D01*
X0009Y01605D02*
X001D01*
X0011Y01615D01*
X0012Y01605D01*
X0013D01*
Y01615D01*
X0012Y01625D01*
X0013Y01635D01*
Y01645D01*
X0012D01*
X0011Y01635D01*
X001Y01645D01*
X0009D01*
Y01635D01*
X001Y01625D01*
X0009Y01615D01*
Y01605D01*
Y01305D02*
X001D01*
X0011Y01315D01*
X0012Y01305D01*
X0013D01*
Y01315D01*
X0012Y01325D01*
X0013Y01335D01*
Y01345D01*
X0012D01*
X0011Y01335D01*
X001Y01345D01*
X0009D01*
Y01335D01*
X001Y01325D01*
X0009Y01315D01*
Y01305D01*
Y01005D02*
X001D01*
X0011Y01015D01*
X0012Y01005D01*
X0013D01*
Y01015D01*
X0012Y01025D01*
X0013Y01035D01*
Y01045D01*
X0012D01*
X0011Y01035D01*
X001Y01045D01*
X0009D01*
Y01035D01*
X001Y01025D01*
X0009Y01015D01*
Y01005D01*
X00165Y00255D02*
X00175D01*
X00185Y00265D01*
X00195Y00255D01*
X00205D01*
Y00265D01*
X00195Y00275D01*
X00205Y00285D01*
Y00295D01*
X00195D01*
X00185Y00285D01*
X00175Y00295D01*
X00165D01*
Y00285D01*
X00175Y00275D01*
X00165Y00265D01*
Y00255D01*
X01815Y01441D02*
X01825D01*
X01835Y01451D01*
X01845Y01441D01*
X01855D01*
Y01451D01*
X01845Y01461D01*
X01855Y01471D01*
Y01481D01*
X01845D01*
X01835Y01471D01*
X01825Y01481D01*
X01815D01*
Y01471D01*
X01825Y01461D01*
X01815Y01451D01*
Y01441D01*
X011714Y011173D02*
X011814D01*
X011914Y011273D01*
X012014Y011173D01*
X012114D01*
Y011273D01*
X012014Y011373D01*
X012114Y011473D01*
Y011573D01*
X012014D01*
X011914Y011473D01*
X011814Y011573D01*
X011714D01*
Y011473D01*
X011814Y011373D01*
X011714Y011273D01*
Y011173D01*
X010168Y011168D02*
X010268D01*
X010368Y011268D01*
X010468Y011168D01*
X010568D01*
Y011268D01*
X010468Y011368D01*
X010568Y011468D01*
Y011568D01*
X010468D01*
X010368Y011468D01*
X010268Y011568D01*
X010168D01*
Y011468D01*
X010268Y011368D01*
X010168Y011268D01*
Y011168D01*
X018041Y010809D02*
X018141D01*
X018241Y010909D01*
X018341Y010809D01*
X018441D01*
Y010909D01*
X018341Y011009D01*
X018441Y011109D01*
Y011209D01*
X018341D01*
X018241Y011109D01*
X018141Y011209D01*
X018041D01*
Y011109D01*
X018141Y011009D01*
X018041Y010909D01*
Y010809D01*
X02245Y01155D02*
X02255D01*
X02265Y01165D01*
X02275Y01155D01*
X02285D01*
Y01165D01*
X02275Y01175D01*
X02285Y01185D01*
Y01195D01*
X02275D01*
X02265Y01185D01*
X02255Y01195D01*
X02245D01*
Y01185D01*
X02255Y01175D01*
X02245Y01165D01*
Y01155D01*
X0243Y01D02*
X0244D01*
X0245Y0101D01*
X0246Y01D01*
X0247D01*
Y0101D01*
X0246Y0102D01*
X0247Y0103D01*
Y0104D01*
X0246D01*
X0245Y0103D01*
X0244Y0104D01*
X0243D01*
Y0103D01*
X0244Y0102D01*
X0243Y0101D01*
Y01D01*
X016Y0108D02*
X0161D01*
X0162Y0109D01*
X0163Y0108D01*
X0164D01*
Y0109D01*
X0163Y011D01*
X0164Y0111D01*
Y0112D01*
X0163D01*
X0162Y0111D01*
X0161Y0112D01*
X016D01*
Y0111D01*
X0161Y011D01*
X016Y0109D01*
Y0108D01*
X004615Y011585D02*
X004715D01*
X004815Y011685D01*
X004915Y011585D01*
X005015D01*
Y011685D01*
X004915Y011785D01*
X005015Y011885D01*
Y011985D01*
X004915D01*
X004815Y011885D01*
X004715Y011985D01*
X004615D01*
Y011885D01*
X004715Y011785D01*
X004615Y011685D01*
Y011585D01*
X0171Y00395D02*
X0172D01*
X0173Y00405D01*
X0174Y00395D01*
X0175D01*
Y00405D01*
X0174Y00415D01*
X0175Y00425D01*
Y00435D01*
X0174D01*
X0173Y00425D01*
X0172Y00435D01*
X0171D01*
Y00425D01*
X0172Y00415D01*
X0171Y00405D01*
Y00395D01*
X0232Y01D02*
X0233D01*
X0234Y0101D01*
X0235Y01D01*
X0236D01*
Y0101D01*
X0235Y0102D01*
X0236Y0103D01*
Y0104D01*
X0235D01*
X0234Y0103D01*
X0233Y0104D01*
X0232D01*
Y0103D01*
X0233Y0102D01*
X0232Y0101D01*
Y01D01*
X02115Y004D02*
X02125D01*
X02135Y0041D01*
X02145Y004D01*
X02155D01*
Y0041D01*
X02145Y0042D01*
X02155Y0043D01*
Y0044D01*
X02145D01*
X02135Y0043D01*
X02125Y0044D01*
X02115D01*
Y0043D01*
X02125Y0042D01*
X02115Y0041D01*
Y004D01*
X02325Y0035D02*
X02335D01*
X02345Y0036D01*
X02355Y0035D01*
X02365D01*
Y0036D01*
X02355Y0037D01*
X02365Y0038D01*
Y0039D01*
X02355D01*
X02345Y0038D01*
X02335Y0039D01*
X02325D01*
Y0038D01*
X02335Y0037D01*
X02325Y0036D01*
Y0035D01*
X02515Y01525D02*
X02525D01*
X02535Y01535D01*
X02545Y01525D01*
X02555D01*
Y01535D01*
X02545Y01545D01*
X02555Y01555D01*
Y01565D01*
X02545D01*
X02535Y01555D01*
X02525Y01565D01*
X02515D01*
Y01555D01*
X02525Y01545D01*
X02515Y01535D01*
Y01525D01*
X023385Y016415D02*
X023485D01*
X023585Y016515D01*
X023685Y016415D01*
X023785D01*
Y016515D01*
X023685Y016615D01*
X023785Y016715D01*
Y016815D01*
X023685D01*
X023585Y016715D01*
X023485Y016815D01*
X023385D01*
Y016715D01*
X023485Y016615D01*
X023385Y016515D01*
Y016415D01*
X020185Y018535D02*
X020285D01*
X020385Y018635D01*
X020485Y018535D01*
X020585D01*
Y018635D01*
X020485Y018735D01*
X020585Y018835D01*
Y018935D01*
X020485D01*
X020385Y018835D01*
X020285Y018935D01*
X020185D01*
Y018835D01*
X020285Y018735D01*
X020185Y018635D01*
Y018535D01*
X00075Y01515D02*
X00085D01*
X00095Y01525D01*
X00105Y01515D01*
X00115D01*
Y01525D01*
X00105Y01535D01*
X00115Y01545D01*
Y01555D01*
X00105D01*
X00095Y01545D01*
X00085Y01555D01*
X00075D01*
Y01545D01*
X00085Y01535D01*
X00075Y01525D01*
Y01515D01*
X006365Y012065D02*
X006465D01*
X006565Y012165D01*
X006665Y012065D01*
X006765D01*
Y012165D01*
X006665Y012265D01*
X006765Y012365D01*
Y012465D01*
X006665D01*
X006565Y012365D01*
X006465Y012465D01*
X006365D01*
Y012365D01*
X006465Y012265D01*
X006365Y012165D01*
Y012065D01*
Y013285D02*
X006465D01*
X006565Y013385D01*
X006665Y013285D01*
X006765D01*
Y013385D01*
X006665Y013485D01*
X006765Y013585D01*
Y013685D01*
X006665D01*
X006565Y013585D01*
X006465Y013685D01*
X006365D01*
Y013585D01*
X006465Y013485D01*
X006365Y013385D01*
Y013285D01*
X00905Y01905D02*
X00915D01*
X00925Y01915D01*
X00935Y01905D01*
X00945D01*
Y01915D01*
X00935Y01925D01*
X00945Y01935D01*
Y01945D01*
X00935D01*
X00925Y01935D01*
X00915Y01945D01*
X00905D01*
Y01935D01*
X00915Y01925D01*
X00905Y01915D01*
Y01905D01*
X01095Y0198D02*
X01105D01*
X01115Y0199D01*
X01125Y0198D01*
X01135D01*
Y0199D01*
X01125Y02D01*
X01135Y0201D01*
Y0202D01*
X01125D01*
X01115Y0201D01*
X01105Y0202D01*
X01095D01*
Y0201D01*
X01105Y02D01*
X01095Y0199D01*
Y0198D01*
X01445Y0211D02*
X01455D01*
X01465Y0212D01*
X01475Y0211D01*
X01485D01*
Y0212D01*
X01475Y0213D01*
X01485Y0214D01*
Y0215D01*
X01475D01*
X01465Y0214D01*
X01455Y0215D01*
X01445D01*
Y0214D01*
X01455Y0213D01*
X01445Y0212D01*
Y0211D01*
X0061Y029D02*
X0062D01*
X0063Y0291D01*
X0064Y029D01*
X0065D01*
Y0291D01*
X0064Y0292D01*
X0065Y0293D01*
Y0294D01*
X0064D01*
X0063Y0293D01*
X0062Y0294D01*
X0061D01*
Y0293D01*
X0062Y0292D01*
X0061Y0291D01*
Y029D01*
X001085Y026715D02*
X001185D01*
X001285Y026815D01*
X001385Y026715D01*
X001485D01*
Y026815D01*
X001385Y026915D01*
X001485Y027015D01*
Y027115D01*
X001385D01*
X001285Y027015D01*
X001185Y027115D01*
X001085D01*
Y027015D01*
X001185Y026915D01*
X001085Y026815D01*
Y026715D01*
X014Y0281D02*
X0141D01*
X0142Y0282D01*
X0143Y0281D01*
X0144D01*
Y0282D01*
X0143Y0283D01*
X0144Y0284D01*
Y0285D01*
X0143D01*
X0142Y0284D01*
X0141Y0285D01*
X014D01*
Y0284D01*
X0141Y0283D01*
X014Y0282D01*
Y0281D01*
X0188Y02235D02*
X0189D01*
X019Y02245D01*
X0191Y02235D01*
X0192D01*
Y02245D01*
X0191Y02255D01*
X0192Y02265D01*
Y02275D01*
X0191D01*
X019Y02265D01*
X0189Y02275D01*
X0188D01*
Y02265D01*
X0189Y02255D01*
X0188Y02245D01*
Y02235D01*
X0169Y02625D02*
X017D01*
X0171Y02635D01*
X0172Y02625D01*
X0173D01*
Y02635D01*
X0172Y02645D01*
X0173Y02655D01*
Y02665D01*
X0172D01*
X0171Y02655D01*
X017Y02665D01*
X0169D01*
Y02655D01*
X017Y02645D01*
X0169Y02635D01*
Y02625D01*
X019Y0273D02*
X0191D01*
X0192Y0274D01*
X0193Y0273D01*
X0194D01*
Y0274D01*
X0193Y0275D01*
X0194Y0276D01*
Y0277D01*
X0193D01*
X0192Y0276D01*
X0191Y0277D01*
X019D01*
Y0276D01*
X0191Y0275D01*
X019Y0274D01*
Y0273D01*
X014Y0268D02*
X0141D01*
X0142Y0269D01*
X0143Y0268D01*
X0144D01*
Y0269D01*
X0143Y027D01*
X0144Y0271D01*
Y0272D01*
X0143D01*
X0142Y0271D01*
X0141Y0272D01*
X014D01*
Y0271D01*
X0141Y027D01*
X014Y0269D01*
Y0268D01*
X004305Y029255D02*
X004405D01*
X004505Y029355D01*
X004605Y029255D01*
X004705D01*
Y029355D01*
X004605Y029455D01*
X004705Y029555D01*
Y029655D01*
X004605D01*
X004505Y029555D01*
X004405Y029655D01*
X004305D01*
Y029555D01*
X004405Y029455D01*
X004305Y029355D01*
Y029255D01*
X016144Y029068D02*
X016244Y029268D01*
X016144Y029468D01*
X016344Y029368D01*
X016544Y029468D01*
X016444Y029268D01*
X016544Y029068D01*
X016344Y029168D01*
X016144Y029068D01*
X016656D02*
X016756Y029268D01*
X016656Y029468D01*
X016856Y029368D01*
X017056Y029468D01*
X016956Y029268D01*
X017056Y029068D01*
X016856Y029168D01*
X016656Y029068D01*
X016144Y028556D02*
X016244Y028756D01*
X016144Y028956D01*
X016344Y028856D01*
X016544Y028956D01*
X016444Y028756D01*
X016544Y028556D01*
X016344Y028656D01*
X016144Y028556D01*
X016656D02*
X016756Y028756D01*
X016656Y028956D01*
X016856Y028856D01*
X017056Y028956D01*
X016956Y028756D01*
X017056Y028556D01*
X016856Y028656D01*
X016656Y028556D01*
X016144Y028044D02*
X016244Y028244D01*
X016144Y028444D01*
X016344Y028344D01*
X016544Y028444D01*
X016444Y028244D01*
X016544Y028044D01*
X016344Y028144D01*
X016144Y028044D01*
X016656D02*
X016756Y028244D01*
X016656Y028444D01*
X016856Y028344D01*
X017056Y028444D01*
X016956Y028244D01*
X017056Y028044D01*
X016856Y028144D01*
X016656Y028044D01*
X016144Y027532D02*
X016244Y027732D01*
X016144Y027932D01*
X016344Y027832D01*
X016544Y027932D01*
X016444Y027732D01*
X016544Y027532D01*
X016344Y027632D01*
X016144Y027532D01*
X016656D02*
X016756Y027732D01*
X016656Y027932D01*
X016856Y027832D01*
X017056Y027932D01*
X016956Y027732D01*
X017056Y027532D01*
X016856Y027632D01*
X016656Y027532D01*
X002415Y020235D02*
X002515D01*
X002615Y020335D01*
X002715Y020235D01*
X002815D01*
Y020335D01*
X002715Y020435D01*
X002815Y020535D01*
Y020635D01*
X002715D01*
X002615Y020535D01*
X002515Y020635D01*
X002415D01*
Y020535D01*
X002515Y020435D01*
X002415Y020335D01*
Y020235D01*
X012Y01625D02*
X0121D01*
X0122Y01635D01*
X0123Y01625D01*
X0124D01*
Y01635D01*
X0123Y01645D01*
X0124Y01655D01*
Y01665D01*
X0123D01*
X0122Y01655D01*
X0121Y01665D01*
X012D01*
Y01655D01*
X0121Y01645D01*
X012Y01635D01*
Y01625D01*
X0097D02*
X0098D01*
X0099Y01635D01*
X01Y01625D01*
X0101D01*
Y01635D01*
X01Y01645D01*
X0101Y01655D01*
Y01665D01*
X01D01*
X0099Y01655D01*
X0098Y01665D01*
X0097D01*
Y01655D01*
X0098Y01645D01*
X0097Y01635D01*
Y01625D01*
X0054Y02295D02*
X0055D01*
X0056Y02305D01*
X0057Y02295D01*
X0058D01*
Y02305D01*
X0057Y02315D01*
X0058Y02325D01*
Y02335D01*
X0057D01*
X0056Y02325D01*
X0055Y02335D01*
X0054D01*
Y02325D01*
X0055Y02315D01*
X0054Y02305D01*
Y02295D01*
X00315Y02245D02*
X00325D01*
X00335Y02255D01*
X00345Y02245D01*
X00355D01*
Y02255D01*
X00345Y02265D01*
X00355Y02275D01*
Y02285D01*
X00345D01*
X00335Y02275D01*
X00325Y02285D01*
X00315D01*
Y02275D01*
X00325Y02265D01*
X00315Y02255D01*
Y02245D01*
X0054Y01325D02*
X0055D01*
X0056Y01335D01*
X0057Y01325D01*
X0058D01*
Y01335D01*
X0057Y01345D01*
X0058Y01355D01*
Y01365D01*
X0057D01*
X0056Y01355D01*
X0055Y01365D01*
X0054D01*
Y01355D01*
X0055Y01345D01*
X0054Y01335D01*
Y01325D01*
Y02025D02*
X0055D01*
X0056Y02035D01*
X0057Y02025D01*
X0058D01*
Y02035D01*
X0057Y02045D01*
X0058Y02055D01*
Y02065D01*
X0057D01*
X0056Y02055D01*
X0055Y02065D01*
X0054D01*
Y02055D01*
X0055Y02045D01*
X0054Y02035D01*
Y02025D01*
Y01895D02*
X0055D01*
X0056Y01905D01*
X0057Y01895D01*
X0058D01*
Y01905D01*
X0057Y01915D01*
X0058Y01925D01*
Y01935D01*
X0057D01*
X0056Y01925D01*
X0055Y01935D01*
X0054D01*
Y01925D01*
X0055Y01915D01*
X0054Y01905D01*
Y01895D01*
X005425Y019375D02*
X005525D01*
X005625Y019475D01*
X005725Y019375D01*
X005825D01*
Y019475D01*
X005725Y019575D01*
X005825Y019675D01*
Y019775D01*
X005725D01*
X005625Y019675D01*
X005525Y019775D01*
X005425D01*
Y019675D01*
X005525Y019575D01*
X005425Y019475D01*
Y019375D01*
X02245Y01745D02*
X02255D01*
X02265Y01755D01*
X02275Y01745D01*
X02285D01*
Y01755D01*
X02275Y01765D01*
X02285Y01775D01*
Y01785D01*
X02275D01*
X02265Y01775D01*
X02255Y01785D01*
X02245D01*
Y01775D01*
X02255Y01765D01*
X02245Y01755D01*
Y01745D01*
Y01665D02*
X02255D01*
X02265Y01675D01*
X02275Y01665D01*
X02285D01*
Y01675D01*
X02275Y01685D01*
X02285Y01695D01*
Y01705D01*
X02275D01*
X02265Y01695D01*
X02255Y01705D01*
X02245D01*
Y01695D01*
X02255Y01685D01*
X02245Y01675D01*
Y01665D01*
Y01505D02*
X02255D01*
X02265Y01515D01*
X02275Y01505D01*
X02285D01*
Y01515D01*
X02275Y01525D01*
X02285Y01535D01*
Y01545D01*
X02275D01*
X02265Y01535D01*
X02255Y01545D01*
X02245D01*
Y01535D01*
X02255Y01525D01*
X02245Y01515D01*
Y01505D01*
X017451Y010401D02*
X017551D01*
X017651Y010501D01*
X017751Y010401D01*
X017851D01*
Y010501D01*
X017751Y010601D01*
X017851Y010701D01*
Y010801D01*
X017751D01*
X017651Y010701D01*
X017551Y010801D01*
X017451D01*
Y010701D01*
X017551Y010601D01*
X017451Y010501D01*
Y010401D01*
X0054Y01215D02*
X0055D01*
X0056Y01225D01*
X0057Y01215D01*
X0058D01*
Y01225D01*
X0057Y01235D01*
X0058Y01245D01*
Y01255D01*
X0057D01*
X0056Y01245D01*
X0055Y01255D01*
X0054D01*
Y01245D01*
X0055Y01235D01*
X0054Y01225D01*
Y01215D01*
X0121Y01435D02*
X0122D01*
X0123Y01445D01*
X0124Y01435D01*
X0125D01*
Y01445D01*
X0124Y01455D01*
X0125Y01465D01*
Y01475D01*
X0124D01*
X0123Y01465D01*
X0122Y01475D01*
X0121D01*
Y01465D01*
X0122Y01455D01*
X0121Y01445D01*
Y01435D01*
X0095Y01445D02*
X0096D01*
X0097Y01455D01*
X0098Y01445D01*
X0099D01*
Y01455D01*
X0098Y01465D01*
X0099Y01475D01*
Y01485D01*
X0098D01*
X0097Y01475D01*
X0096Y01485D01*
X0095D01*
Y01475D01*
X0096Y01465D01*
X0095Y01455D01*
Y01445D01*
X005425Y012675D02*
X005525D01*
X005625Y012775D01*
X005725Y012675D01*
X005825D01*
Y012775D01*
X005725Y012875D01*
X005825Y012975D01*
Y013075D01*
X005725D01*
X005625Y012975D01*
X005525Y013075D01*
X005425D01*
Y012975D01*
X005525Y012875D01*
X005425Y012775D01*
Y012675D01*
Y013875D02*
X005525D01*
X005625Y013975D01*
X005725Y013875D01*
X005825D01*
Y013975D01*
X005725Y014075D01*
X005825Y014175D01*
Y014275D01*
X005725D01*
X005625Y014175D01*
X005525Y014275D01*
X005425D01*
Y014175D01*
X005525Y014075D01*
X005425Y013975D01*
Y013875D01*
X016155Y0029D02*
X016255D01*
X016355Y003D01*
X016455Y0029D01*
X016555D01*
Y003D01*
X016455Y0031D01*
X016555Y0032D01*
Y0033D01*
X016455D01*
X016355Y0032D01*
X016255Y0033D01*
X016155D01*
Y0032D01*
X016255Y0031D01*
X016155Y003D01*
Y0029D01*
X01815Y00785D02*
X01825D01*
X01835Y00795D01*
X01845Y00785D01*
X01855D01*
Y00795D01*
X01845Y00805D01*
X01855Y00815D01*
Y00825D01*
X01845D01*
X01835Y00815D01*
X01825Y00825D01*
X01815D01*
Y00815D01*
X01825Y00805D01*
X01815Y00795D01*
Y00785D01*
X02215Y00625D02*
X02225D01*
X02235Y00635D01*
X02245Y00625D01*
X02255D01*
Y00635D01*
X02245Y00645D01*
X02255Y00655D01*
Y00665D01*
X02245D01*
X02235Y00655D01*
X02225Y00665D01*
X02215D01*
Y00655D01*
X02225Y00645D01*
X02215Y00635D01*
Y00625D01*
X00273Y02812D02*
X00283D01*
X00293Y02822D01*
X00303Y02812D01*
X00313D01*
Y02822D01*
X00303Y02832D01*
X00313Y02842D01*
Y02852D01*
X00303D01*
X00293Y02842D01*
X00283Y02852D01*
X00273D01*
Y02842D01*
X00283Y02832D01*
X00273Y02822D01*
Y02812D01*
X023Y01445D02*
X0231D01*
X0232Y01455D01*
X0233Y01445D01*
X0234D01*
Y01455D01*
X0233Y01465D01*
X0234Y01475D01*
Y01485D01*
X0233D01*
X0232Y01475D01*
X0231Y01485D01*
X023D01*
Y01475D01*
X0231Y01465D01*
X023Y01455D01*
Y01445D01*
X01175Y02195D02*
X01185D01*
X01195Y02205D01*
X01205Y02195D01*
X01215D01*
Y02205D01*
X01205Y02215D01*
X01215Y02225D01*
Y02235D01*
X01205D01*
X01195Y02225D01*
X01185Y02235D01*
X01175D01*
Y02225D01*
X01185Y02215D01*
X01175Y02205D01*
Y02195D01*
X0187Y0136D02*
X0188D01*
X0189Y0137D01*
X019Y0136D01*
X0191D01*
Y0137D01*
X019Y0138D01*
X0191Y0139D01*
Y014D01*
X019D01*
X0189Y0139D01*
X0188Y014D01*
X0187D01*
Y0139D01*
X0188Y0138D01*
X0187Y0137D01*
Y0136D01*
Y01405D02*
X0188D01*
X0189Y01415D01*
X019Y01405D01*
X0191D01*
Y01415D01*
X019Y01425D01*
X0191Y01435D01*
Y01445D01*
X019D01*
X0189Y01435D01*
X0188Y01445D01*
X0187D01*
Y01435D01*
X0188Y01425D01*
X0187Y01415D01*
Y01405D01*
X0184Y0172D02*
X0185D01*
X0186Y0173D01*
X0187Y0172D01*
X0188D01*
Y0173D01*
X0187Y0174D01*
X0188Y0175D01*
Y0176D01*
X0187D01*
X0186Y0175D01*
X0185Y0176D01*
X0184D01*
Y0175D01*
X0185Y0174D01*
X0184Y0173D01*
Y0172D01*
X018Y02085D02*
X0181D01*
X0182Y02095D01*
X0183Y02085D01*
X0184D01*
Y02095D01*
X0183Y02105D01*
X0184Y02115D01*
Y02125D01*
X0183D01*
X0182Y02115D01*
X0181Y02125D01*
X018D01*
Y02115D01*
X0181Y02105D01*
X018Y02095D01*
Y02085D01*
X01735Y02105D02*
X01745D01*
X01755Y02115D01*
X01765Y02105D01*
X01775D01*
Y02115D01*
X01765Y02125D01*
X01775Y02135D01*
Y02145D01*
X01765D01*
X01755Y02135D01*
X01745Y02145D01*
X01735D01*
Y02135D01*
X01745Y02125D01*
X01735Y02115D01*
Y02105D01*
Y0195D02*
X01745D01*
X01755Y0196D01*
X01765Y0195D01*
X01775D01*
Y0196D01*
X01765Y0197D01*
X01775Y0198D01*
Y0199D01*
X01765D01*
X01755Y0198D01*
X01745Y0199D01*
X01735D01*
Y0198D01*
X01745Y0197D01*
X01735Y0196D01*
Y0195D01*
X02495Y0185D02*
X02505D01*
X02515Y0186D01*
X02525Y0185D01*
X02535D01*
Y0186D01*
X02525Y0187D01*
X02535Y0188D01*
Y0189D01*
X02525D01*
X02515Y0188D01*
X02505Y0189D01*
X02495D01*
Y0188D01*
X02505Y0187D01*
X02495Y0186D01*
Y0185D01*
X012548Y011202D02*
X012648D01*
X012748Y011302D01*
X012848Y011202D01*
X012948D01*
Y011302D01*
X012848Y011402D01*
X012948Y011502D01*
Y011602D01*
X012848D01*
X012748Y011502D01*
X012648Y011602D01*
X012548D01*
Y011502D01*
X012648Y011402D01*
X012548Y011302D01*
Y011202D01*
X01415Y01935D02*
X01425D01*
X01435Y01945D01*
X01445Y01935D01*
X01455D01*
Y01945D01*
X01445Y01955D01*
X01455Y01965D01*
Y01975D01*
X01445D01*
X01435Y01965D01*
X01425Y01975D01*
X01415D01*
Y01965D01*
X01425Y01955D01*
X01415Y01945D01*
Y01935D01*
X01005Y02265D02*
X01015D01*
X01025Y02275D01*
X01035Y02265D01*
X01045D01*
Y02275D01*
X01035Y02285D01*
X01045Y02295D01*
Y02305D01*
X01035D01*
X01025Y02295D01*
X01015Y02305D01*
X01005D01*
Y02295D01*
X01015Y02285D01*
X01005Y02275D01*
Y02265D01*
D79*
X0265Y03215D02*
G03*
X0265Y03215I-0002J0D01*
G01*
X0012D02*
G03*
X0012Y03215I-0002J0D01*
G01*
Y00095D02*
G03*
X0012Y00095I-0002J0D01*
G01*
X0265D02*
G03*
X0265Y00095I-0002J0D01*
G01*
M02*
