G04*
G04 #@! TF.GenerationSoftware,Altium Limited,Altium Designer,22.9.1 (49)*
G04*
G04 Layer_Color=255*
%FSTAX24Y24*%
%MOIN*%
G70*
G04*
G04 #@! TF.SameCoordinates,D3726A14-7932-4F0B-9928-97F3702F6CAB*
G04*
G04*
G04 #@! TF.FilePolarity,Positive*
G04*
G01*
G75*
%ADD18R,0.0827X0.0610*%
%ADD19R,0.0315X0.0315*%
%ADD20R,0.0118X0.0472*%
%ADD21R,0.0472X0.0118*%
%ADD22R,0.0610X0.0236*%
%ADD23R,0.0315X0.0315*%
%ADD24R,0.0217X0.0354*%
G04:AMPARAMS|DCode=25|XSize=102.5mil|YSize=24.5mil|CornerRadius=12.2mil|HoleSize=0mil|Usage=FLASHONLY|Rotation=90.000|XOffset=0mil|YOffset=0mil|HoleType=Round|Shape=RoundedRectangle|*
%AMROUNDEDRECTD25*
21,1,0.1025,0.0000,0,0,90.0*
21,1,0.0780,0.0245,0,0,90.0*
1,1,0.0245,0.0000,0.0390*
1,1,0.0245,0.0000,-0.0390*
1,1,0.0245,0.0000,-0.0390*
1,1,0.0245,0.0000,0.0390*
%
%ADD25ROUNDEDRECTD25*%
%ADD26R,0.0245X0.1025*%
%ADD27R,0.0354X0.0217*%
%ADD28R,0.0610X0.1264*%
%ADD29R,0.2126X0.1142*%
%ADD30R,0.1378X0.0630*%
%ADD31R,0.0472X0.0433*%
%ADD32R,0.1280X0.0846*%
%ADD33R,0.0354X0.0846*%
%ADD34R,0.0551X0.0630*%
%ADD35R,0.0551X0.0669*%
%ADD53C,0.0610*%
%ADD54R,0.0610X0.0610*%
%ADD55R,0.0610X0.0610*%
%ADD63R,0.1161X0.1929*%
G04:AMPARAMS|DCode=65|XSize=59.1mil|YSize=59.1mil|CornerRadius=14.8mil|HoleSize=0mil|Usage=FLASHONLY|Rotation=0.000|XOffset=0mil|YOffset=0mil|HoleType=Round|Shape=RoundedRectangle|*
%AMROUNDEDRECTD65*
21,1,0.0591,0.0295,0,0,0.0*
21,1,0.0295,0.0591,0,0,0.0*
1,1,0.0295,0.0148,-0.0148*
1,1,0.0295,-0.0148,-0.0148*
1,1,0.0295,-0.0148,0.0148*
1,1,0.0295,0.0148,0.0148*
%
%ADD65ROUNDEDRECTD65*%
%ADD66C,0.0591*%
%ADD67C,0.1380*%
%ADD68R,0.0630X0.0630*%
%ADD69C,0.0630*%
%ADD70C,0.0598*%
%ADD71R,0.0598X0.0598*%
%ADD72R,0.0598X0.0598*%
%ADD73R,0.0630X0.0630*%
D18*
X021966Y027D02*
D03*
X015834Y0313D02*
D03*
X017566D02*
D03*
X020234Y027D02*
D03*
D19*
X0102Y01515D02*
D03*
Y014559D02*
D03*
X010832Y015165D02*
D03*
Y014575D02*
D03*
X01857Y028135D02*
D03*
Y028725D02*
D03*
X01922Y028135D02*
D03*
Y028725D02*
D03*
X009402Y013485D02*
D03*
Y014075D02*
D03*
X00872D02*
D03*
Y013485D02*
D03*
X008452Y012856D02*
D03*
Y012265D02*
D03*
X00782Y012875D02*
D03*
Y012285D02*
D03*
X01692Y011975D02*
D03*
Y011385D02*
D03*
X00293Y029925D02*
D03*
Y030515D02*
D03*
X00358Y029925D02*
D03*
Y030515D02*
D03*
X0072Y029859D02*
D03*
Y03045D02*
D03*
X00798Y029875D02*
D03*
Y030465D02*
D03*
X00973Y019575D02*
D03*
Y020165D02*
D03*
X01038Y018355D02*
D03*
Y018946D02*
D03*
Y019575D02*
D03*
Y020165D02*
D03*
X01972Y019325D02*
D03*
Y018735D02*
D03*
X00973Y018355D02*
D03*
Y018946D02*
D03*
X019088Y019325D02*
D03*
Y018735D02*
D03*
X02473Y016025D02*
D03*
Y016615D02*
D03*
X02403Y016025D02*
D03*
Y016615D02*
D03*
X001938Y023125D02*
D03*
Y022535D02*
D03*
X00257Y023125D02*
D03*
Y022535D02*
D03*
D20*
X012188Y018951D02*
D03*
X012385D02*
D03*
X012581D02*
D03*
X012778D02*
D03*
X012975D02*
D03*
X013172D02*
D03*
X013369D02*
D03*
X013566D02*
D03*
X013763D02*
D03*
X013959D02*
D03*
X014156D02*
D03*
X014353D02*
D03*
X01455D02*
D03*
X014747D02*
D03*
X014944D02*
D03*
X015141D02*
D03*
X015337D02*
D03*
X015534D02*
D03*
X015731D02*
D03*
X015928D02*
D03*
X016125D02*
D03*
X016322D02*
D03*
X016518D02*
D03*
X016715D02*
D03*
X016912D02*
D03*
Y012849D02*
D03*
X016715D02*
D03*
X016518D02*
D03*
X016322D02*
D03*
X016125D02*
D03*
X015928D02*
D03*
X015731D02*
D03*
X015534D02*
D03*
X015337D02*
D03*
X015141D02*
D03*
X014944D02*
D03*
X014747D02*
D03*
X01455D02*
D03*
X014353D02*
D03*
X014156D02*
D03*
X013959D02*
D03*
X013763D02*
D03*
X013566D02*
D03*
X013369D02*
D03*
X013172D02*
D03*
X012975D02*
D03*
X012778D02*
D03*
X012581D02*
D03*
X012385D02*
D03*
X012188D02*
D03*
D21*
X017601Y018262D02*
D03*
Y018065D02*
D03*
Y017868D02*
D03*
Y017672D02*
D03*
Y017475D02*
D03*
Y017278D02*
D03*
Y017081D02*
D03*
Y016884D02*
D03*
Y016687D02*
D03*
Y016491D02*
D03*
Y016294D02*
D03*
Y016097D02*
D03*
Y0159D02*
D03*
Y015703D02*
D03*
Y015506D02*
D03*
Y015309D02*
D03*
Y015113D02*
D03*
Y014916D02*
D03*
Y014719D02*
D03*
Y014522D02*
D03*
Y014325D02*
D03*
Y014128D02*
D03*
Y013931D02*
D03*
Y013735D02*
D03*
Y013538D02*
D03*
X011499D02*
D03*
Y013735D02*
D03*
Y013931D02*
D03*
Y014128D02*
D03*
Y014325D02*
D03*
Y014522D02*
D03*
Y014719D02*
D03*
Y014916D02*
D03*
Y015113D02*
D03*
Y015309D02*
D03*
Y015506D02*
D03*
Y015703D02*
D03*
Y0159D02*
D03*
Y016097D02*
D03*
Y016294D02*
D03*
Y016491D02*
D03*
Y016687D02*
D03*
Y016884D02*
D03*
Y017081D02*
D03*
Y017278D02*
D03*
Y017475D02*
D03*
Y017672D02*
D03*
Y017868D02*
D03*
Y018065D02*
D03*
Y018262D02*
D03*
D22*
X015537Y02925D02*
D03*
Y02875D02*
D03*
Y02825D02*
D03*
Y02775D02*
D03*
X017663D02*
D03*
Y02825D02*
D03*
Y02875D02*
D03*
Y02925D02*
D03*
D23*
X016385Y03018D02*
D03*
X016975D02*
D03*
X011525Y011368D02*
D03*
X010935D02*
D03*
X01155Y012D02*
D03*
X010959D02*
D03*
X017651Y01135D02*
D03*
X018241D02*
D03*
X017651Y01207D02*
D03*
X018241D02*
D03*
X011959Y01965D02*
D03*
X01255D02*
D03*
X0111Y0235D02*
D03*
X011691D02*
D03*
X011109Y02285D02*
D03*
X0117D02*
D03*
X0228Y00435D02*
D03*
X022209D02*
D03*
X0228Y0037D02*
D03*
X022209D02*
D03*
X015925Y004162D02*
D03*
X015335D02*
D03*
X015925Y00353D02*
D03*
X015335D02*
D03*
X004225Y010255D02*
D03*
X004815D02*
D03*
X004225Y010886D02*
D03*
X004815D02*
D03*
X00835Y015052D02*
D03*
X007759D02*
D03*
X0078Y01825D02*
D03*
X008391D02*
D03*
X0012Y011142D02*
D03*
X000609D02*
D03*
X019075Y01807D02*
D03*
X019665D02*
D03*
X011925Y02037D02*
D03*
X012515D02*
D03*
D24*
X015807Y02645D02*
D03*
X016378D02*
D03*
X014665D02*
D03*
X015235D02*
D03*
X001979Y011102D02*
D03*
X00255D02*
D03*
D25*
X0042Y00914D02*
D03*
X0047D02*
D03*
X0052D02*
D03*
X0057D02*
D03*
X0062D02*
D03*
X0067D02*
D03*
X0072D02*
D03*
X0077D02*
D03*
X0082D02*
D03*
X0087D02*
D03*
Y005545D02*
D03*
X0082D02*
D03*
X0077D02*
D03*
X0072D02*
D03*
X0067D02*
D03*
X0062D02*
D03*
X0057D02*
D03*
X0052D02*
D03*
X0047D02*
D03*
X02285Y005503D02*
D03*
X02235D02*
D03*
X02185D02*
D03*
X02135D02*
D03*
X02085D02*
D03*
X02035D02*
D03*
X01985D02*
D03*
X01935D02*
D03*
X01885D02*
D03*
X01835D02*
D03*
Y009097D02*
D03*
X01885D02*
D03*
X01935D02*
D03*
X01985D02*
D03*
X02035D02*
D03*
X02085D02*
D03*
X02135D02*
D03*
X02185D02*
D03*
X02235D02*
D03*
X0159Y005353D02*
D03*
X0154D02*
D03*
X0149D02*
D03*
X0144D02*
D03*
X0139D02*
D03*
X0134D02*
D03*
X0129D02*
D03*
X0124D02*
D03*
X0119D02*
D03*
X0114D02*
D03*
Y008947D02*
D03*
X0119D02*
D03*
X0124D02*
D03*
X0129D02*
D03*
X0134D02*
D03*
X0139D02*
D03*
X0144D02*
D03*
X0149D02*
D03*
X0154D02*
D03*
D26*
X0042Y005545D02*
D03*
X02285Y009097D02*
D03*
X0159Y008947D02*
D03*
D27*
X013214Y020221D02*
D03*
Y01965D02*
D03*
X00075Y026915D02*
D03*
Y027485D02*
D03*
X0073Y025983D02*
D03*
Y026554D02*
D03*
X00215Y021029D02*
D03*
Y0216D02*
D03*
Y020435D02*
D03*
Y019865D02*
D03*
D28*
X023023Y027D02*
D03*
X024677D02*
D03*
D29*
X0113Y027991D02*
D03*
Y031809D02*
D03*
D30*
X013552Y0253D02*
D03*
X011348D02*
D03*
D31*
X00075Y028323D02*
D03*
Y02915D02*
D03*
X0073Y0273D02*
D03*
Y028127D02*
D03*
D32*
X005407Y032454D02*
D03*
D33*
X006309Y030146D02*
D03*
X005407D02*
D03*
X004505D02*
D03*
D34*
X008753Y017317D02*
D03*
Y015821D02*
D03*
X007847D02*
D03*
Y017317D02*
D03*
D35*
X000863Y011931D02*
D03*
Y014569D02*
D03*
X002437Y011931D02*
D03*
Y014569D02*
D03*
D53*
X0262Y00465D02*
D03*
X01984Y00155D02*
D03*
X023296D02*
D03*
X0262Y008116D02*
D03*
X007256Y00185D02*
D03*
X0038D02*
D03*
X00115Y0053D02*
D03*
Y008884D02*
D03*
D54*
X0262Y005634D02*
D03*
Y0091D02*
D03*
X00115Y004316D02*
D03*
Y0079D02*
D03*
D55*
X020824Y00155D02*
D03*
X02428D02*
D03*
X008241Y00185D02*
D03*
X004784D02*
D03*
D63*
X0166Y0285D02*
D03*
D65*
X021334Y029938D02*
D03*
D66*
X024334D02*
D03*
D67*
X0263Y03215D02*
D03*
X001D02*
D03*
Y00095D02*
D03*
X0263D02*
D03*
D68*
X0243Y01165D02*
D03*
X01665Y02215D02*
D03*
X0243Y0145D02*
D03*
X00295Y0246D02*
D03*
X0009Y025936D02*
D03*
X0243Y013164D02*
D03*
D69*
X0253Y01165D02*
D03*
X0263D02*
D03*
X01365Y02215D02*
D03*
X01465D02*
D03*
X01565D02*
D03*
X00095Y0201D02*
D03*
Y0211D02*
D03*
Y0221D02*
D03*
X0253Y0145D02*
D03*
X0263D02*
D03*
X00195Y0246D02*
D03*
X00095D02*
D03*
X0019Y025936D02*
D03*
X0253Y013164D02*
D03*
X0263D02*
D03*
D70*
X01796Y00125D02*
D03*
X01696D02*
D03*
X01296D02*
D03*
X01196D02*
D03*
X01396D02*
D03*
X01496D02*
D03*
X01596D02*
D03*
X0263Y022204D02*
D03*
Y018204D02*
D03*
Y017204D02*
D03*
Y019204D02*
D03*
Y020204D02*
D03*
Y021204D02*
D03*
Y023204D02*
D03*
Y024204D02*
D03*
Y025204D02*
D03*
D71*
X01096Y00125D02*
D03*
D72*
X0263Y016204D02*
D03*
D73*
X00095Y0231D02*
D03*
M02*
