G04*
G04 #@! TF.GenerationSoftware,Altium Limited,Altium Designer,22.9.1 (49)*
G04*
G04 Layer_Color=16711935*
%FSTAX24Y24*%
%MOIN*%
G70*
G04*
G04 #@! TF.SameCoordinates,D3726A14-7932-4F0B-9928-97F3702F6CAB*
G04*
G04*
G04 #@! TF.FilePolarity,Positive*
G04*
G01*
G75*
%ADD75C,0.0020*%
%ADD76C,0.0039*%
D75*
X0226Y030253D02*
Y030647D01*
X022403Y03045D02*
X022797D01*
D76*
X016403Y0285D02*
X016797D01*
X0166Y028303D02*
Y028697D01*
X006253Y007343D02*
X006647D01*
X00645Y007146D02*
Y00754D01*
X025796Y005142D02*
X02619D01*
X025993Y004945D02*
Y005339D01*
X011103Y0299D02*
X011497D01*
X0113Y029703D02*
Y030097D01*
X020403Y0073D02*
X020797D01*
X0206Y007103D02*
Y007497D01*
X020332Y00156D02*
Y001954D01*
X020135Y001757D02*
X020529D01*
X023788Y00156D02*
Y001954D01*
X023591Y001757D02*
X023985D01*
X025796Y008608D02*
X02619D01*
X025993Y008411D02*
Y008805D01*
X007749Y00186D02*
Y002254D01*
X007552Y002057D02*
X007945D01*
X013453Y00715D02*
X013847D01*
X01365Y006953D02*
Y007347D01*
X004292Y00186D02*
Y002254D01*
X004095Y002057D02*
X004489D01*
X00116Y004808D02*
X001554D01*
X001357Y004611D02*
Y005005D01*
X00116Y008392D02*
X001554D01*
X001357Y008195D02*
Y008589D01*
M02*
