G04*
G04 #@! TF.GenerationSoftware,Altium Limited,Altium Designer,22.9.1 (49)*
G04*
G04 Layer_Color=255*
%FSTAX24Y24*%
%MOIN*%
G70*
G04*
G04 #@! TF.SameCoordinates,D3726A14-7932-4F0B-9928-97F3702F6CAB*
G04*
G04*
G04 #@! TF.FilePolarity,Positive*
G04*
G01*
G75*
%ADD53C,0.0610*%
%ADD54R,0.0610X0.0610*%
%ADD55R,0.0610X0.0610*%
G04:AMPARAMS|DCode=65|XSize=59.1mil|YSize=59.1mil|CornerRadius=14.8mil|HoleSize=0mil|Usage=FLASHONLY|Rotation=0.000|XOffset=0mil|YOffset=0mil|HoleType=Round|Shape=RoundedRectangle|*
%AMROUNDEDRECTD65*
21,1,0.0591,0.0295,0,0,0.0*
21,1,0.0295,0.0591,0,0,0.0*
1,1,0.0295,0.0148,-0.0148*
1,1,0.0295,-0.0148,-0.0148*
1,1,0.0295,-0.0148,0.0148*
1,1,0.0295,0.0148,0.0148*
%
%ADD65ROUNDEDRECTD65*%
%ADD66C,0.0591*%
%ADD67C,0.1380*%
%ADD68R,0.0630X0.0630*%
%ADD69C,0.0630*%
%ADD70C,0.0598*%
%ADD71R,0.0598X0.0598*%
%ADD72R,0.0598X0.0598*%
%ADD73R,0.0630X0.0630*%
D53*
X0262Y00465D02*
D03*
X01984Y00155D02*
D03*
X023296D02*
D03*
X0262Y008116D02*
D03*
X007256Y00185D02*
D03*
X0038D02*
D03*
X00115Y0053D02*
D03*
Y008884D02*
D03*
D54*
X0262Y005634D02*
D03*
Y0091D02*
D03*
X00115Y004316D02*
D03*
Y0079D02*
D03*
D55*
X020824Y00155D02*
D03*
X02428D02*
D03*
X008241Y00185D02*
D03*
X004784D02*
D03*
D65*
X021334Y029938D02*
D03*
D66*
X024334D02*
D03*
D67*
X0263Y03215D02*
D03*
X001D02*
D03*
Y00095D02*
D03*
X0263D02*
D03*
D68*
X0243Y01165D02*
D03*
X01665Y02215D02*
D03*
X0243Y0145D02*
D03*
X00295Y0246D02*
D03*
X0009Y025936D02*
D03*
X0243Y013164D02*
D03*
D69*
X0253Y01165D02*
D03*
X0263D02*
D03*
X01365Y02215D02*
D03*
X01465D02*
D03*
X01565D02*
D03*
X00095Y0201D02*
D03*
Y0211D02*
D03*
Y0221D02*
D03*
X0253Y0145D02*
D03*
X0263D02*
D03*
X00195Y0246D02*
D03*
X00095D02*
D03*
X0019Y025936D02*
D03*
X0253Y013164D02*
D03*
X0263D02*
D03*
D70*
X01796Y00125D02*
D03*
X01696D02*
D03*
X01296D02*
D03*
X01196D02*
D03*
X01396D02*
D03*
X01496D02*
D03*
X01596D02*
D03*
X0263Y022204D02*
D03*
Y018204D02*
D03*
Y017204D02*
D03*
Y019204D02*
D03*
Y020204D02*
D03*
Y021204D02*
D03*
Y023204D02*
D03*
Y024204D02*
D03*
Y025204D02*
D03*
D71*
X01096Y00125D02*
D03*
D72*
X0263Y016204D02*
D03*
D73*
X00095Y0231D02*
D03*
M02*
