G04*
G04 #@! TF.GenerationSoftware,Altium Limited,Altium Designer,22.9.1 (49)*
G04*
G04 Layer_Physical_Order=2*
G04 Layer_Color=16711680*
%FSTAX24Y24*%
%MOIN*%
G70*
G04*
G04 #@! TF.SameCoordinates,D3726A14-7932-4F0B-9928-97F3702F6CAB*
G04*
G04*
G04 #@! TF.FilePolarity,Positive*
G04*
G01*
G75*
%ADD16C,0.0100*%
%ADD53C,0.0610*%
%ADD54R,0.0610X0.0610*%
%ADD55R,0.0610X0.0610*%
%ADD62C,0.0197*%
%ADD64C,0.0300*%
G04:AMPARAMS|DCode=65|XSize=59.1mil|YSize=59.1mil|CornerRadius=14.8mil|HoleSize=0mil|Usage=FLASHONLY|Rotation=0.000|XOffset=0mil|YOffset=0mil|HoleType=Round|Shape=RoundedRectangle|*
%AMROUNDEDRECTD65*
21,1,0.0591,0.0295,0,0,0.0*
21,1,0.0295,0.0591,0,0,0.0*
1,1,0.0295,0.0148,-0.0148*
1,1,0.0295,-0.0148,-0.0148*
1,1,0.0295,-0.0148,0.0148*
1,1,0.0295,0.0148,0.0148*
%
%ADD65ROUNDEDRECTD65*%
%ADD66C,0.0591*%
%ADD67C,0.1380*%
%ADD68R,0.0630X0.0630*%
%ADD69C,0.0630*%
%ADD70C,0.0598*%
%ADD71R,0.0598X0.0598*%
%ADD72R,0.0598X0.0598*%
%ADD73R,0.0630X0.0630*%
%ADD74C,0.0236*%
G36*
X027167Y000133D02*
X026394D01*
X026389Y000183D01*
X026525Y00021D01*
X026665Y000268D01*
X026791Y000352D01*
X026898Y000459D01*
X026982Y000585D01*
X02704Y000725D01*
X02707Y000874D01*
Y001026D01*
X02704Y001175D01*
X026982Y001315D01*
X026898Y001441D01*
X026791Y001548D01*
X026665Y001632D01*
X026525Y00169D01*
X026376Y00172D01*
X026224D01*
X026075Y00169D01*
X025935Y001632D01*
X025809Y001548D01*
X025702Y001441D01*
X025618Y001315D01*
X02556Y001175D01*
X02553Y001026D01*
Y000874D01*
X02556Y000725D01*
X025618Y000585D01*
X025702Y000459D01*
X025809Y000352D01*
X025935Y000268D01*
X026075Y00021D01*
X026211Y000183D01*
X026206Y000133D01*
X001094Y000133D01*
X001089Y000183D01*
X001225Y00021D01*
X001365Y000268D01*
X001491Y000352D01*
X001598Y000459D01*
X001682Y000585D01*
X00174Y000725D01*
X00177Y000874D01*
Y001026D01*
X00174Y001175D01*
X001682Y001315D01*
X001598Y001441D01*
X001491Y001548D01*
X001365Y001632D01*
X001225Y00169D01*
X001076Y00172D01*
X000924D01*
X000775Y00169D01*
X000635Y001632D01*
X000509Y001548D01*
X000402Y001441D01*
X000318Y001315D01*
X00026Y001175D01*
X00023Y001026D01*
Y000874D01*
X00026Y000725D01*
X000318Y000585D01*
X000402Y000459D01*
X000509Y000352D01*
X000635Y000268D01*
X000775Y00021D01*
X000911Y000183D01*
X000906Y000133D01*
X000133D01*
Y032967D01*
X000906D01*
X000911Y032917D01*
X000775Y03289D01*
X000635Y032832D01*
X000509Y032748D01*
X000402Y032641D01*
X000318Y032515D01*
X00026Y032375D01*
X00023Y032226D01*
Y032074D01*
X00026Y031925D01*
X000318Y031785D01*
X000402Y031659D01*
X000509Y031552D01*
X000635Y031468D01*
X000775Y03141D01*
X000924Y03138D01*
X001076D01*
X001225Y03141D01*
X001365Y031468D01*
X001491Y031552D01*
X001598Y031659D01*
X001682Y031785D01*
X00174Y031925D01*
X00177Y032074D01*
Y032226D01*
X00174Y032375D01*
X001682Y032515D01*
X001598Y032641D01*
X001491Y032748D01*
X001365Y032832D01*
X001225Y03289D01*
X001089Y032917D01*
X001094Y032967D01*
X026206D01*
X026211Y032917D01*
X026075Y03289D01*
X025935Y032832D01*
X025809Y032748D01*
X025702Y032641D01*
X025618Y032515D01*
X02556Y032375D01*
X02553Y032226D01*
Y032074D01*
X02556Y031925D01*
X025618Y031785D01*
X025702Y031659D01*
X025809Y031552D01*
X025935Y031468D01*
X026075Y03141D01*
X026224Y03138D01*
X026376D01*
X026525Y03141D01*
X026665Y031468D01*
X026791Y031552D01*
X026898Y031659D01*
X026982Y031785D01*
X02704Y031925D01*
X02707Y032074D01*
Y032226D01*
X02704Y032375D01*
X026982Y032515D01*
X026898Y032641D01*
X026791Y032748D01*
X026665Y032832D01*
X026525Y03289D01*
X026389Y032917D01*
X026394Y032967D01*
X027167D01*
X027167Y000133D01*
D02*
G37*
%LPC*%
G36*
X02515Y031465D02*
Y0313D01*
X025315D01*
X025285Y031374D01*
X025224Y031435D01*
X02515Y031465D01*
D02*
G37*
G36*
X02505D02*
X024976Y031435D01*
X024915Y031374D01*
X024885Y0313D01*
X02505D01*
Y031465D01*
D02*
G37*
G36*
X02365D02*
Y0313D01*
X023815D01*
X023785Y031374D01*
X023724Y031435D01*
X02365Y031465D01*
D02*
G37*
G36*
X02355D02*
X023476Y031435D01*
X023415Y031374D01*
X023385Y0313D01*
X02355D01*
Y031465D01*
D02*
G37*
G36*
X02215D02*
Y0313D01*
X022315D01*
X022285Y031374D01*
X022224Y031435D01*
X02215Y031465D01*
D02*
G37*
G36*
X02205D02*
X021976Y031435D01*
X021915Y031374D01*
X021885Y0313D01*
X02205D01*
Y031465D01*
D02*
G37*
G36*
X02065D02*
Y0313D01*
X020815D01*
X020785Y031374D01*
X020724Y031435D01*
X02065Y031465D01*
D02*
G37*
G36*
X02055D02*
X020476Y031435D01*
X020415Y031374D01*
X020385Y0313D01*
X02055D01*
Y031465D01*
D02*
G37*
G36*
X01915D02*
Y0313D01*
X019315D01*
X019285Y031374D01*
X019224Y031435D01*
X01915Y031465D01*
D02*
G37*
G36*
X01905D02*
X018976Y031435D01*
X018915Y031374D01*
X018885Y0313D01*
X01905D01*
Y031465D01*
D02*
G37*
G36*
X01465D02*
Y0313D01*
X014815D01*
X014785Y031374D01*
X014724Y031435D01*
X01465Y031465D01*
D02*
G37*
G36*
X01455D02*
X014476Y031435D01*
X014415Y031374D01*
X014385Y0313D01*
X01455D01*
Y031465D01*
D02*
G37*
G36*
X01315D02*
Y0313D01*
X013315D01*
X013285Y031374D01*
X013224Y031435D01*
X01315Y031465D01*
D02*
G37*
G36*
X01305D02*
X012976Y031435D01*
X012915Y031374D01*
X012885Y0313D01*
X01305D01*
Y031465D01*
D02*
G37*
G36*
X00865D02*
Y0313D01*
X008815D01*
X008785Y031374D01*
X008724Y031435D01*
X00865Y031465D01*
D02*
G37*
G36*
X00855D02*
X008476Y031435D01*
X008415Y031374D01*
X008385Y0313D01*
X00855D01*
Y031465D01*
D02*
G37*
G36*
X00715D02*
Y0313D01*
X007315D01*
X007285Y031374D01*
X007224Y031435D01*
X00715Y031465D01*
D02*
G37*
G36*
X00705D02*
X006976Y031435D01*
X006915Y031374D01*
X006885Y0313D01*
X00705D01*
Y031465D01*
D02*
G37*
G36*
X00415D02*
Y0313D01*
X004315D01*
X004285Y031374D01*
X004224Y031435D01*
X00415Y031465D01*
D02*
G37*
G36*
X00405D02*
X003976Y031435D01*
X003915Y031374D01*
X003885Y0313D01*
X00405D01*
Y031465D01*
D02*
G37*
G36*
X00265D02*
Y0313D01*
X002815D01*
X002785Y031374D01*
X002724Y031435D01*
X00265Y031465D01*
D02*
G37*
G36*
X00255D02*
X002476Y031435D01*
X002415Y031374D01*
X002385Y0313D01*
X00255D01*
Y031465D01*
D02*
G37*
G36*
X025315Y0312D02*
X02515D01*
Y031035D01*
X025224Y031065D01*
X025285Y031126D01*
X025315Y0312D01*
D02*
G37*
G36*
X02505D02*
X024885D01*
X024915Y031126D01*
X024976Y031065D01*
X02505Y031035D01*
Y0312D01*
D02*
G37*
G36*
X023815D02*
X02365D01*
Y031035D01*
X023724Y031065D01*
X023785Y031126D01*
X023815Y0312D01*
D02*
G37*
G36*
X02355D02*
X023385D01*
X023415Y031126D01*
X023476Y031065D01*
X02355Y031035D01*
Y0312D01*
D02*
G37*
G36*
X022315D02*
X02215D01*
Y031035D01*
X022224Y031065D01*
X022285Y031126D01*
X022315Y0312D01*
D02*
G37*
G36*
X02205D02*
X021885D01*
X021915Y031126D01*
X021976Y031065D01*
X02205Y031035D01*
Y0312D01*
D02*
G37*
G36*
X020815D02*
X02065D01*
Y031035D01*
X020724Y031065D01*
X020785Y031126D01*
X020815Y0312D01*
D02*
G37*
G36*
X02055D02*
X020385D01*
X020415Y031126D01*
X020476Y031065D01*
X02055Y031035D01*
Y0312D01*
D02*
G37*
G36*
X019315D02*
X01915D01*
Y031035D01*
X019224Y031065D01*
X019285Y031126D01*
X019315Y0312D01*
D02*
G37*
G36*
X01905D02*
X018885D01*
X018915Y031126D01*
X018976Y031065D01*
X01905Y031035D01*
Y0312D01*
D02*
G37*
G36*
X014815D02*
X01465D01*
Y031035D01*
X014724Y031065D01*
X014785Y031126D01*
X014815Y0312D01*
D02*
G37*
G36*
X01455D02*
X014385D01*
X014415Y031126D01*
X014476Y031065D01*
X01455Y031035D01*
Y0312D01*
D02*
G37*
G36*
X013315D02*
X01315D01*
Y031035D01*
X013224Y031065D01*
X013285Y031126D01*
X013315Y0312D01*
D02*
G37*
G36*
X01305D02*
X012885D01*
X012915Y031126D01*
X012976Y031065D01*
X01305Y031035D01*
Y0312D01*
D02*
G37*
G36*
X008815D02*
X00865D01*
Y031035D01*
X008724Y031065D01*
X008785Y031126D01*
X008815Y0312D01*
D02*
G37*
G36*
X00855D02*
X008385D01*
X008415Y031126D01*
X008476Y031065D01*
X00855Y031035D01*
Y0312D01*
D02*
G37*
G36*
X007315D02*
X00715D01*
Y031035D01*
X007224Y031065D01*
X007285Y031126D01*
X007315Y0312D01*
D02*
G37*
G36*
X00705D02*
X006885D01*
X006915Y031126D01*
X006976Y031065D01*
X00705Y031035D01*
Y0312D01*
D02*
G37*
G36*
X004315D02*
X00415D01*
Y031035D01*
X004224Y031065D01*
X004285Y031126D01*
X004315Y0312D01*
D02*
G37*
G36*
X00405D02*
X003885D01*
X003915Y031126D01*
X003976Y031065D01*
X00405Y031035D01*
Y0312D01*
D02*
G37*
G36*
X002815D02*
X00265D01*
Y031035D01*
X002724Y031065D01*
X002785Y031126D01*
X002815Y0312D01*
D02*
G37*
G36*
X00255D02*
X002385D01*
X002415Y031126D01*
X002476Y031065D01*
X00255Y031035D01*
Y0312D01*
D02*
G37*
G36*
X0259Y029965D02*
Y0298D01*
X026065D01*
X026035Y029874D01*
X025974Y029935D01*
X0259Y029965D01*
D02*
G37*
G36*
X0258D02*
X025726Y029935D01*
X025665Y029874D01*
X025635Y0298D01*
X0258D01*
Y029965D01*
D02*
G37*
G36*
X0229D02*
Y0298D01*
X023065D01*
X023035Y029874D01*
X022974Y029935D01*
X0229Y029965D01*
D02*
G37*
G36*
X0228D02*
X022726Y029935D01*
X022665Y029874D01*
X022635Y0298D01*
X0228D01*
Y029965D01*
D02*
G37*
G36*
X0199D02*
Y0298D01*
X020065D01*
X020035Y029874D01*
X019974Y029935D01*
X0199Y029965D01*
D02*
G37*
G36*
X0198D02*
X019726Y029935D01*
X019665Y029874D01*
X019635Y0298D01*
X0198D01*
Y029965D01*
D02*
G37*
G36*
X0154D02*
Y0298D01*
X015565D01*
X015535Y029874D01*
X015474Y029935D01*
X0154Y029965D01*
D02*
G37*
G36*
X0153D02*
X015226Y029935D01*
X015165Y029874D01*
X015135Y0298D01*
X0153D01*
Y029965D01*
D02*
G37*
G36*
X0139D02*
Y0298D01*
X014065D01*
X014035Y029874D01*
X013974Y029935D01*
X0139Y029965D01*
D02*
G37*
G36*
X0138D02*
X013726Y029935D01*
X013665Y029874D01*
X013635Y0298D01*
X0138D01*
Y029965D01*
D02*
G37*
G36*
X0124D02*
Y0298D01*
X012565D01*
X012535Y029874D01*
X012474Y029935D01*
X0124Y029965D01*
D02*
G37*
G36*
X0123D02*
X012226Y029935D01*
X012165Y029874D01*
X012135Y0298D01*
X0123D01*
Y029965D01*
D02*
G37*
G36*
X0109D02*
Y0298D01*
X011065D01*
X011035Y029874D01*
X010974Y029935D01*
X0109Y029965D01*
D02*
G37*
G36*
X0108D02*
X010726Y029935D01*
X010665Y029874D01*
X010635Y0298D01*
X0108D01*
Y029965D01*
D02*
G37*
G36*
X0094D02*
Y0298D01*
X009565D01*
X009535Y029874D01*
X009474Y029935D01*
X0094Y029965D01*
D02*
G37*
G36*
X0093D02*
X009226Y029935D01*
X009165Y029874D01*
X009135Y0298D01*
X0093D01*
Y029965D01*
D02*
G37*
G36*
X024384Y030314D02*
X024285D01*
X024189Y030288D01*
X024104Y030239D01*
X024034Y030169D01*
X023985Y030083D01*
X023959Y029988D01*
Y029889D01*
X023985Y029793D01*
X024034Y029708D01*
X024104Y029638D01*
X024189Y029589D01*
X024285Y029563D01*
X024384D01*
X024479Y029589D01*
X024565Y029638D01*
X024635Y029708D01*
X024684Y029793D01*
X02471Y029889D01*
Y029988D01*
X024684Y030083D01*
X024635Y030169D01*
X024565Y030239D01*
X024479Y030288D01*
X024384Y030314D01*
D02*
G37*
G36*
X026065Y0297D02*
X0259D01*
Y029535D01*
X025974Y029565D01*
X026035Y029626D01*
X026065Y0297D01*
D02*
G37*
G36*
X0258D02*
X025635D01*
X025665Y029626D01*
X025726Y029565D01*
X0258Y029535D01*
Y0297D01*
D02*
G37*
G36*
X023065D02*
X0229D01*
Y029535D01*
X022974Y029565D01*
X023035Y029626D01*
X023065Y0297D01*
D02*
G37*
G36*
X0228D02*
X022635D01*
X022665Y029626D01*
X022726Y029565D01*
X0228Y029535D01*
Y0297D01*
D02*
G37*
G36*
X020065D02*
X0199D01*
Y029535D01*
X019974Y029565D01*
X020035Y029626D01*
X020065Y0297D01*
D02*
G37*
G36*
X0198D02*
X019635D01*
X019665Y029626D01*
X019726Y029565D01*
X0198Y029535D01*
Y0297D01*
D02*
G37*
G36*
X015565D02*
X0154D01*
Y029535D01*
X015474Y029565D01*
X015535Y029626D01*
X015565Y0297D01*
D02*
G37*
G36*
X0153D02*
X015135D01*
X015165Y029626D01*
X015226Y029565D01*
X0153Y029535D01*
Y0297D01*
D02*
G37*
G36*
X014065D02*
X0139D01*
Y029535D01*
X013974Y029565D01*
X014035Y029626D01*
X014065Y0297D01*
D02*
G37*
G36*
X0138D02*
X013635D01*
X013665Y029626D01*
X013726Y029565D01*
X0138Y029535D01*
Y0297D01*
D02*
G37*
G36*
X012565D02*
X0124D01*
Y029535D01*
X012474Y029565D01*
X012535Y029626D01*
X012565Y0297D01*
D02*
G37*
G36*
X0123D02*
X012135D01*
X012165Y029626D01*
X012226Y029565D01*
X0123Y029535D01*
Y0297D01*
D02*
G37*
G36*
X011065D02*
X0109D01*
Y029535D01*
X010974Y029565D01*
X011035Y029626D01*
X011065Y0297D01*
D02*
G37*
G36*
X0108D02*
X010635D01*
X010665Y029626D01*
X010726Y029565D01*
X0108Y029535D01*
Y0297D01*
D02*
G37*
G36*
X009565D02*
X0094D01*
Y029535D01*
X009474Y029565D01*
X009535Y029626D01*
X009565Y0297D01*
D02*
G37*
G36*
X0093D02*
X009135D01*
X009165Y029626D01*
X009226Y029565D01*
X0093Y029535D01*
Y0297D01*
D02*
G37*
G36*
X004555Y029671D02*
Y029505D01*
X004616D01*
Y029564D01*
X004628Y029553D01*
X00464Y029543D01*
X004652Y029534D01*
X004664Y029526D01*
X004677Y02952D01*
X00469Y029515D01*
X004703Y029511D01*
X004717Y029508D01*
X00472Y029507D01*
X00469Y029579D01*
X004629Y02964D01*
X004555Y029671D01*
D02*
G37*
G36*
X004455D02*
X004382Y02964D01*
X004321Y029579D01*
X00429Y029505D01*
X004455D01*
Y029671D01*
D02*
G37*
G36*
X00625Y029415D02*
X006185Y029388D01*
X006187Y029387D01*
X006199Y029379D01*
X006211Y029373D01*
X006224Y029367D01*
X006238Y029363D01*
X00625Y02936D01*
Y029415D01*
D02*
G37*
G36*
X016906Y029462D02*
Y029318D01*
X01705D01*
X017024Y02938D01*
X016968Y029436D01*
X016906Y029462D01*
D02*
G37*
G36*
X016806D02*
X016744Y029436D01*
X016688Y02938D01*
X016662Y029318D01*
X016806D01*
Y029462D01*
D02*
G37*
G36*
X016394D02*
Y029318D01*
X016538D01*
X016512Y02938D01*
X016456Y029436D01*
X016394Y029462D01*
D02*
G37*
G36*
X016294D02*
X016232Y029436D01*
X016176Y02938D01*
X01615Y029318D01*
X016294D01*
Y029462D01*
D02*
G37*
G36*
X00635Y029415D02*
Y02925D01*
X006515D01*
X006485Y029324D01*
X006424Y029385D01*
X00635Y029415D01*
D02*
G37*
G36*
X00625Y029307D02*
X006193Y02925D01*
X00625D01*
Y029307D01*
D02*
G37*
G36*
X006112Y029315D02*
X006085Y02925D01*
X00614D01*
X006137Y029262D01*
X006133Y029276D01*
X006127Y029289D01*
X006121Y029301D01*
X006113Y029313D01*
X006112Y029315D01*
D02*
G37*
G36*
X004616Y029405D02*
X004555D01*
Y02924D01*
X004629Y029271D01*
X00469Y029332D01*
X00472Y029403D01*
X004717Y029403D01*
X004703Y0294D01*
X00469Y029396D01*
X004677Y029391D01*
X004664Y029384D01*
X004652Y029377D01*
X00464Y029368D01*
X004628Y029358D01*
X004616Y029347D01*
Y029405D01*
D02*
G37*
G36*
X004455D02*
X00429D01*
X004321Y029332D01*
X004382Y029271D01*
X004455Y02924D01*
Y029405D01*
D02*
G37*
G36*
X006407Y02915D02*
X00635D01*
Y029093D01*
X006407Y02915D01*
D02*
G37*
G36*
X006515D02*
X00646D01*
X006463Y029138D01*
X006467Y029124D01*
X006473Y029111D01*
X006479Y029099D01*
X006487Y029087D01*
X006488Y029085D01*
X006515Y02915D01*
D02*
G37*
G36*
X01705Y029218D02*
X016906D01*
Y029074D01*
X016968Y0291D01*
X017024Y029155D01*
X01705Y029218D01*
D02*
G37*
G36*
X016806D02*
X016662D01*
X016688Y029155D01*
X016744Y0291D01*
X016806Y029074D01*
Y029218D01*
D02*
G37*
G36*
X016538D02*
X016394D01*
Y029074D01*
X016456Y0291D01*
X016512Y029155D01*
X016538Y029218D01*
D02*
G37*
G36*
X016294D02*
X01615D01*
X016176Y029155D01*
X016232Y0291D01*
X016294Y029074D01*
Y029218D01*
D02*
G37*
G36*
X00635Y02904D02*
Y028985D01*
X006415Y029012D01*
X006413Y029013D01*
X006401Y029021D01*
X006389Y029027D01*
X006376Y029033D01*
X006362Y029037D01*
X00635Y02904D01*
D02*
G37*
G36*
X00625Y02915D02*
X006085D01*
X006115Y029076D01*
X006176Y029015D01*
X00625Y028985D01*
Y02915D01*
D02*
G37*
G36*
X016906Y02895D02*
Y028806D01*
X01705D01*
X017024Y028868D01*
X016968Y028924D01*
X016906Y02895D01*
D02*
G37*
G36*
X016806D02*
X016744Y028924D01*
X016688Y028868D01*
X016662Y028806D01*
X016806D01*
Y02895D01*
D02*
G37*
G36*
X016394D02*
Y028806D01*
X016538D01*
X016512Y028868D01*
X016456Y028924D01*
X016394Y02895D01*
D02*
G37*
G36*
X016294D02*
X016232Y028924D01*
X016176Y028868D01*
X01615Y028806D01*
X016294D01*
Y02895D01*
D02*
G37*
G36*
X01705Y028706D02*
X016906D01*
Y028562D01*
X016968Y028588D01*
X017024Y028644D01*
X01705Y028706D01*
D02*
G37*
G36*
X016806D02*
X016662D01*
X016688Y028644D01*
X016744Y028588D01*
X016806Y028562D01*
Y028706D01*
D02*
G37*
G36*
X016538D02*
X016394D01*
Y028562D01*
X016456Y028588D01*
X016512Y028644D01*
X016538Y028706D01*
D02*
G37*
G36*
X016294D02*
X01615D01*
X016176Y028644D01*
X016232Y028588D01*
X016294Y028562D01*
Y028706D01*
D02*
G37*
G36*
X01425Y028515D02*
Y02835D01*
X014415D01*
X014385Y028424D01*
X014324Y028485D01*
X01425Y028515D01*
D02*
G37*
G36*
X01415D02*
X014076Y028485D01*
X014015Y028424D01*
X013985Y02835D01*
X014032D01*
X014033Y028351D01*
X014044Y028359D01*
X014055Y028368D01*
X014065Y028379D01*
X014075Y028391D01*
X014081Y02835D01*
X01415D01*
Y028515D01*
D02*
G37*
G36*
X01305Y028465D02*
X012976Y028435D01*
X012915Y028374D01*
X012885Y0283D01*
X013023D01*
X01304Y028328D01*
X01305Y028325D01*
Y028465D01*
D02*
G37*
G36*
X00855D02*
X008476Y028435D01*
X008415Y028374D01*
X008385Y0283D01*
X008523D01*
X00854Y028328D01*
X00855Y028325D01*
Y028465D01*
D02*
G37*
G36*
X02215D02*
Y0283D01*
X022315D01*
X022285Y028374D01*
X022224Y028435D01*
X02215Y028465D01*
D02*
G37*
G36*
X02205D02*
X021976Y028435D01*
X021915Y028374D01*
X021885Y0283D01*
X02205D01*
Y028465D01*
D02*
G37*
G36*
X01315D02*
Y028325D01*
X01316Y028328D01*
X013177Y0283D01*
X013315D01*
X013285Y028374D01*
X013224Y028435D01*
X01315Y028465D01*
D02*
G37*
G36*
X00865D02*
Y028325D01*
X00866Y028328D01*
X008677Y0283D01*
X008815D01*
X008785Y028374D01*
X008724Y028435D01*
X00865Y028465D01*
D02*
G37*
G36*
X00565D02*
Y0283D01*
X005815D01*
X005785Y028374D01*
X005724Y028435D01*
X00565Y028465D01*
D02*
G37*
G36*
X00555D02*
X005476Y028435D01*
X005415Y028374D01*
X005385Y0283D01*
X00555D01*
Y028465D01*
D02*
G37*
G36*
X016906Y028438D02*
Y028294D01*
X01705D01*
X017024Y028356D01*
X016968Y028412D01*
X016906Y028438D01*
D02*
G37*
G36*
X016806D02*
X016744Y028412D01*
X016688Y028356D01*
X016662Y028294D01*
X016806D01*
Y028438D01*
D02*
G37*
G36*
X016394D02*
Y028294D01*
X016538D01*
X016512Y028356D01*
X016456Y028412D01*
X016394Y028438D01*
D02*
G37*
G36*
X016294D02*
X016232Y028412D01*
X016176Y028356D01*
X01615Y028294D01*
X016294D01*
Y028438D01*
D02*
G37*
G36*
X014307Y02825D02*
X01425D01*
Y028193D01*
X014307Y02825D01*
D02*
G37*
G36*
X014415D02*
X01436D01*
X014363Y028238D01*
X014367Y028224D01*
X014373Y028211D01*
X014379Y028199D01*
X014387Y028187D01*
X014388Y028185D01*
X014415Y02825D01*
D02*
G37*
G36*
X01415D02*
X014095D01*
X014106Y028177D01*
X014093Y028186D01*
X014079Y028195D01*
X014066Y028203D01*
X014052Y028209D01*
X014039Y028215D01*
X014025Y02822D01*
X014011Y028223D01*
X013997Y028226D01*
X013995Y028226D01*
X014015Y028176D01*
X014076Y028115D01*
X01415Y028085D01*
Y02825D01*
D02*
G37*
G36*
X01425Y02814D02*
Y028085D01*
X014315Y028112D01*
X014313Y028113D01*
X014301Y028121D01*
X014289Y028127D01*
X014276Y028133D01*
X014262Y028137D01*
X01425Y02814D01*
D02*
G37*
G36*
X01705Y028194D02*
X016906D01*
Y02805D01*
X016968Y028076D01*
X017024Y028132D01*
X01705Y028194D01*
D02*
G37*
G36*
X016806D02*
X016662D01*
X016688Y028132D01*
X016744Y028076D01*
X016806Y02805D01*
Y028194D01*
D02*
G37*
G36*
X016538D02*
X016394D01*
Y02805D01*
X016456Y028076D01*
X016512Y028132D01*
X016538Y028194D01*
D02*
G37*
G36*
X016294D02*
X01615D01*
X016176Y028132D01*
X016232Y028076D01*
X016294Y02805D01*
Y028194D01*
D02*
G37*
G36*
X022315Y0282D02*
X02215D01*
Y028035D01*
X022224Y028065D01*
X022285Y028126D01*
X022315Y0282D01*
D02*
G37*
G36*
X02205D02*
X021885D01*
X021915Y028126D01*
X021976Y028065D01*
X02205Y028035D01*
Y0282D01*
D02*
G37*
G36*
X013315D02*
X01315D01*
Y028035D01*
X013224Y028065D01*
X013285Y028126D01*
X013315Y0282D01*
D02*
G37*
G36*
X01305D02*
X012885D01*
X012915Y028126D01*
X012976Y028065D01*
X01305Y028035D01*
Y0282D01*
D02*
G37*
G36*
X008815D02*
X00865D01*
Y028035D01*
X008724Y028065D01*
X008785Y028126D01*
X008815Y0282D01*
D02*
G37*
G36*
X00855D02*
X008385D01*
X008415Y028126D01*
X008476Y028065D01*
X00855Y028035D01*
Y0282D01*
D02*
G37*
G36*
X005815D02*
X00565D01*
Y028035D01*
X005724Y028065D01*
X005785Y028126D01*
X005815Y0282D01*
D02*
G37*
G36*
X00555D02*
X005385D01*
X005415Y028126D01*
X005476Y028065D01*
X00555Y028035D01*
Y0282D01*
D02*
G37*
G36*
X016906Y027926D02*
Y027782D01*
X01705D01*
X017024Y027845D01*
X016968Y027901D01*
X016906Y027926D01*
D02*
G37*
G36*
X016806D02*
X016744Y027901D01*
X016688Y027845D01*
X016662Y027782D01*
X016806D01*
Y027926D01*
D02*
G37*
G36*
X016394D02*
Y027782D01*
X016538D01*
X016512Y027845D01*
X016456Y027901D01*
X016394Y027926D01*
D02*
G37*
G36*
X016294D02*
X016232Y027901D01*
X016176Y027845D01*
X01615Y027782D01*
X016294D01*
Y027926D01*
D02*
G37*
G36*
X01925Y027715D02*
Y02766D01*
X019262Y027663D01*
X019276Y027667D01*
X019289Y027673D01*
X019301Y027679D01*
X019313Y027687D01*
X019315Y027688D01*
X01925Y027715D01*
D02*
G37*
G36*
X019388Y027615D02*
X019387Y027613D01*
X019379Y027601D01*
X019373Y027589D01*
X019367Y027576D01*
X019363Y027562D01*
X01936Y02755D01*
X019415D01*
X019388Y027615D01*
D02*
G37*
G36*
X01925Y027607D02*
Y02755D01*
X019307D01*
X01925Y027607D01*
D02*
G37*
G36*
X01915Y027715D02*
X019076Y027685D01*
X019015Y027624D01*
X018985Y02755D01*
X01915D01*
Y027715D01*
D02*
G37*
G36*
X01705Y027682D02*
X016906D01*
Y027538D01*
X016968Y027564D01*
X017024Y02762D01*
X01705Y027682D01*
D02*
G37*
G36*
X016806D02*
X016662D01*
X016688Y02762D01*
X016744Y027564D01*
X016806Y027538D01*
Y027682D01*
D02*
G37*
G36*
X016538D02*
X016394D01*
Y027538D01*
X016456Y027564D01*
X016512Y02762D01*
X016538Y027682D01*
D02*
G37*
G36*
X016294D02*
X01615D01*
X016176Y02762D01*
X016232Y027564D01*
X016294Y027538D01*
Y027682D01*
D02*
G37*
G36*
X01915Y02745D02*
X019093D01*
X01915Y027393D01*
Y02745D01*
D02*
G37*
G36*
X01904D02*
X018985D01*
X019012Y027385D01*
X019013Y027387D01*
X019021Y027399D01*
X019027Y027411D01*
X019033Y027424D01*
X019037Y027438D01*
X01904Y02745D01*
D02*
G37*
G36*
X019415D02*
X01925D01*
Y027285D01*
X019324Y027315D01*
X019385Y027376D01*
X019415Y02745D01*
D02*
G37*
G36*
X01915Y02734D02*
X019138Y027337D01*
X019124Y027333D01*
X019111Y027327D01*
X019099Y027321D01*
X019087Y027313D01*
X019085Y027312D01*
X01915Y027285D01*
Y02734D01*
D02*
G37*
G36*
X001335Y02713D02*
Y026965D01*
X001501D01*
X00147Y027038D01*
X001409Y027099D01*
X001335Y02713D01*
D02*
G37*
G36*
X001235D02*
X001162Y027099D01*
X001101Y027038D01*
X00107Y026965D01*
X001235D01*
Y02713D01*
D02*
G37*
G36*
X0259Y026965D02*
Y0268D01*
X026065D01*
X026035Y026874D01*
X025974Y026935D01*
X0259Y026965D01*
D02*
G37*
G36*
X0258D02*
X025726Y026935D01*
X025665Y026874D01*
X025635Y0268D01*
X0258D01*
Y026965D01*
D02*
G37*
G36*
X0094D02*
Y0268D01*
X009565D01*
X009535Y026874D01*
X009474Y026935D01*
X0094Y026965D01*
D02*
G37*
G36*
X0093D02*
X009226Y026935D01*
X009165Y026874D01*
X009135Y0268D01*
X0093D01*
Y026965D01*
D02*
G37*
G36*
X0064D02*
Y0268D01*
X006565D01*
X006535Y026874D01*
X006474Y026935D01*
X0064Y026965D01*
D02*
G37*
G36*
X0063D02*
X006226Y026935D01*
X006165Y026874D01*
X006135Y0268D01*
X0063D01*
Y026965D01*
D02*
G37*
G36*
X0049D02*
Y0268D01*
X005065D01*
X005035Y026874D01*
X004974Y026935D01*
X0049Y026965D01*
D02*
G37*
G36*
X0048D02*
X004726Y026935D01*
X004665Y026874D01*
X004635Y0268D01*
X0048D01*
Y026965D01*
D02*
G37*
G36*
X0034D02*
Y0268D01*
X003565D01*
X003535Y026874D01*
X003474Y026935D01*
X0034Y026965D01*
D02*
G37*
G36*
X0033D02*
X003226Y026935D01*
X003165Y026874D01*
X003135Y0268D01*
X0033D01*
Y026965D01*
D02*
G37*
G36*
X001501Y026865D02*
X001335D01*
Y026804D01*
X001394D01*
X001383Y026792D01*
X001373Y02678D01*
X001364Y026768D01*
X001356Y026756D01*
X00135Y026743D01*
X001345Y02673D01*
X001341Y026717D01*
X001338Y026703D01*
X001337Y0267D01*
X001409Y02673D01*
X00147Y026791D01*
X001501Y026865D01*
D02*
G37*
G36*
X001235D02*
X00107D01*
X001101Y026791D01*
X001162Y02673D01*
X001233Y0267D01*
X001233Y026703D01*
X00123Y026717D01*
X001226Y02673D01*
X001221Y026743D01*
X001214Y026756D01*
X001207Y026768D01*
X001198Y02678D01*
X001188Y026792D01*
X001177Y026804D01*
X001235D01*
Y026865D01*
D02*
G37*
G36*
X01705Y026665D02*
X016985Y026638D01*
X016987Y026637D01*
X016999Y026629D01*
X017011Y026623D01*
X017024Y026617D01*
X017038Y026613D01*
X01705Y02661D01*
Y026665D01*
D02*
G37*
G36*
X026065Y0267D02*
X0259D01*
Y026535D01*
X025974Y026565D01*
X026035Y026626D01*
X026065Y0267D01*
D02*
G37*
G36*
X0258D02*
X025635D01*
X025665Y026626D01*
X025726Y026565D01*
X0258Y026535D01*
Y0267D01*
D02*
G37*
G36*
X009565D02*
X0094D01*
Y026535D01*
X009474Y026565D01*
X009535Y026626D01*
X009565Y0267D01*
D02*
G37*
G36*
X0093D02*
X009135D01*
X009165Y026626D01*
X009226Y026565D01*
X0093Y026535D01*
Y0267D01*
D02*
G37*
G36*
X006565D02*
X0064D01*
Y026535D01*
X006474Y026565D01*
X006535Y026626D01*
X006565Y0267D01*
D02*
G37*
G36*
X0063D02*
X006135D01*
X006165Y026626D01*
X006226Y026565D01*
X0063Y026535D01*
Y0267D01*
D02*
G37*
G36*
X005065D02*
X0049D01*
Y026535D01*
X004974Y026565D01*
X005035Y026626D01*
X005065Y0267D01*
D02*
G37*
G36*
X0048D02*
X004635D01*
X004665Y026626D01*
X004726Y026565D01*
X0048Y026535D01*
Y0267D01*
D02*
G37*
G36*
X003565D02*
X0034D01*
Y026535D01*
X003474Y026565D01*
X003535Y026626D01*
X003565Y0267D01*
D02*
G37*
G36*
X0033D02*
X003135D01*
X003165Y026626D01*
X003226Y026565D01*
X0033Y026535D01*
Y0267D01*
D02*
G37*
G36*
X01715Y026665D02*
Y0265D01*
X017211D01*
Y026558D01*
X017222Y026547D01*
X017234Y026537D01*
X017246Y026529D01*
X017259Y026521D01*
X017272Y026515D01*
X017285Y026509D01*
X017298Y026505D01*
X017312Y026502D01*
X017315Y026502D01*
X017285Y026574D01*
X017224Y026635D01*
X01715Y026665D01*
D02*
G37*
G36*
X01705Y026557D02*
X016993Y0265D01*
X01705D01*
Y026557D01*
D02*
G37*
G36*
X016912Y026565D02*
X016885Y0265D01*
X01694D01*
X016937Y026512D01*
X016933Y026526D01*
X016927Y026539D01*
X016921Y026551D01*
X016913Y026563D01*
X016912Y026565D01*
D02*
G37*
G36*
X00185Y026351D02*
X001845D01*
X00174Y026323D01*
X001663Y026279D01*
X001669Y026277D01*
X001699Y026269D01*
X001732Y026262D01*
X001768Y026257D01*
X00185Y026252D01*
Y026351D01*
D02*
G37*
G36*
X017211Y0264D02*
X01715D01*
Y026235D01*
X017224Y026265D01*
X017285Y026326D01*
X017315Y026398D01*
X017312Y026398D01*
X017298Y026395D01*
X017285Y026391D01*
X017272Y026385D01*
X017259Y026379D01*
X017246Y026371D01*
X017234Y026363D01*
X017222Y026353D01*
X017211Y026342D01*
Y0264D01*
D02*
G37*
G36*
X01705D02*
X016885D01*
X016915Y026326D01*
X016976Y026265D01*
X01705Y026235D01*
Y0264D01*
D02*
G37*
G36*
X001955Y026351D02*
X00195D01*
Y025986D01*
X002315D01*
Y025991D01*
X002287Y026096D01*
X002232Y026191D01*
X002155Y026268D01*
X00206Y026323D01*
X001955Y026351D01*
D02*
G37*
G36*
X00185Y026204D02*
X001632Y025986D01*
X00185D01*
Y026204D01*
D02*
G37*
G36*
X001558Y026173D02*
X001513Y026096D01*
X001485Y025991D01*
Y025986D01*
X001585D01*
X001579Y026068D01*
X001574Y026104D01*
X001568Y026138D01*
X00156Y026167D01*
X001558Y026173D01*
D02*
G37*
G36*
X001295Y026331D02*
X000505D01*
Y025541D01*
X001295D01*
Y026331D01*
D02*
G37*
G36*
X002315Y025886D02*
X00195D01*
Y025521D01*
X001955D01*
X00206Y02555D01*
X002155Y025604D01*
X002232Y025682D01*
X002287Y025776D01*
X002315Y025882D01*
Y025886D01*
D02*
G37*
G36*
X00185D02*
X001485D01*
Y025882D01*
X001513Y025776D01*
X001568Y025682D01*
X001645Y025604D01*
X00174Y02555D01*
X001845Y025521D01*
X00185D01*
Y025886D01*
D02*
G37*
G36*
X02515Y025465D02*
Y0253D01*
X025315D01*
X025285Y025374D01*
X025224Y025435D01*
X02515Y025465D01*
D02*
G37*
G36*
X02505D02*
X024976Y025435D01*
X024915Y025374D01*
X024885Y0253D01*
X02505D01*
Y025465D01*
D02*
G37*
G36*
X02365D02*
Y0253D01*
X023815D01*
X023785Y025374D01*
X023724Y025435D01*
X02365Y025465D01*
D02*
G37*
G36*
X02355D02*
X023476Y025435D01*
X023415Y025374D01*
X023385Y0253D01*
X02355D01*
Y025465D01*
D02*
G37*
G36*
X02215D02*
Y0253D01*
X022315D01*
X022285Y025374D01*
X022224Y025435D01*
X02215Y025465D01*
D02*
G37*
G36*
X02205D02*
X021976Y025435D01*
X021915Y025374D01*
X021885Y0253D01*
X02205D01*
Y025465D01*
D02*
G37*
G36*
X02065D02*
Y0253D01*
X020815D01*
X020785Y025374D01*
X020724Y025435D01*
X02065Y025465D01*
D02*
G37*
G36*
X02055D02*
X020476Y025435D01*
X020415Y025374D01*
X020385Y0253D01*
X02055D01*
Y025465D01*
D02*
G37*
G36*
X01915D02*
Y0253D01*
X019315D01*
X019285Y025374D01*
X019224Y025435D01*
X01915Y025465D01*
D02*
G37*
G36*
X01905D02*
X018976Y025435D01*
X018915Y025374D01*
X018885Y0253D01*
X01905D01*
Y025465D01*
D02*
G37*
G36*
X01765D02*
Y0253D01*
X017815D01*
X017785Y025374D01*
X017724Y025435D01*
X01765Y025465D01*
D02*
G37*
G36*
X01755D02*
X017476Y025435D01*
X017415Y025374D01*
X017385Y0253D01*
X01755D01*
Y025465D01*
D02*
G37*
G36*
X01615D02*
Y0253D01*
X016315D01*
X016285Y025374D01*
X016224Y025435D01*
X01615Y025465D01*
D02*
G37*
G36*
X01605D02*
X015976Y025435D01*
X015915Y025374D01*
X015885Y0253D01*
X01605D01*
Y025465D01*
D02*
G37*
G36*
X00865D02*
Y0253D01*
X008815D01*
X008785Y025374D01*
X008724Y025435D01*
X00865Y025465D01*
D02*
G37*
G36*
X00855D02*
X008476Y025435D01*
X008415Y025374D01*
X008385Y0253D01*
X00855D01*
Y025465D01*
D02*
G37*
G36*
X00715D02*
Y0253D01*
X007315D01*
X007285Y025374D01*
X007224Y025435D01*
X00715Y025465D01*
D02*
G37*
G36*
X00705D02*
X006976Y025435D01*
X006915Y025374D01*
X006885Y0253D01*
X00705D01*
Y025465D01*
D02*
G37*
G36*
X00415D02*
Y0253D01*
X004315D01*
X004285Y025374D01*
X004224Y025435D01*
X00415Y025465D01*
D02*
G37*
G36*
X00405D02*
X003976Y025435D01*
X003915Y025374D01*
X003885Y0253D01*
X00405D01*
Y025465D01*
D02*
G37*
G36*
X025315Y0252D02*
X02515D01*
Y025035D01*
X025224Y025065D01*
X025285Y025126D01*
X025315Y0252D01*
D02*
G37*
G36*
X02505D02*
X024885D01*
X024915Y025126D01*
X024976Y025065D01*
X02505Y025035D01*
Y0252D01*
D02*
G37*
G36*
X023815D02*
X02365D01*
Y025035D01*
X023724Y025065D01*
X023785Y025126D01*
X023815Y0252D01*
D02*
G37*
G36*
X02355D02*
X023385D01*
X023415Y025126D01*
X023476Y025065D01*
X02355Y025035D01*
Y0252D01*
D02*
G37*
G36*
X022315D02*
X02215D01*
Y025035D01*
X022224Y025065D01*
X022285Y025126D01*
X022315Y0252D01*
D02*
G37*
G36*
X02205D02*
X021885D01*
X021915Y025126D01*
X021976Y025065D01*
X02205Y025035D01*
Y0252D01*
D02*
G37*
G36*
X020815D02*
X02065D01*
Y025035D01*
X020724Y025065D01*
X020785Y025126D01*
X020815Y0252D01*
D02*
G37*
G36*
X02055D02*
X020385D01*
X020415Y025126D01*
X020476Y025065D01*
X02055Y025035D01*
Y0252D01*
D02*
G37*
G36*
X019315D02*
X01915D01*
Y025035D01*
X019224Y025065D01*
X019285Y025126D01*
X019315Y0252D01*
D02*
G37*
G36*
X01905D02*
X018885D01*
X018915Y025126D01*
X018976Y025065D01*
X01905Y025035D01*
Y0252D01*
D02*
G37*
G36*
X017815D02*
X01765D01*
Y025035D01*
X017724Y025065D01*
X017785Y025126D01*
X017815Y0252D01*
D02*
G37*
G36*
X01755D02*
X017385D01*
X017415Y025126D01*
X017476Y025065D01*
X01755Y025035D01*
Y0252D01*
D02*
G37*
G36*
X016315D02*
X01615D01*
Y025035D01*
X016224Y025065D01*
X016285Y025126D01*
X016315Y0252D01*
D02*
G37*
G36*
X01605D02*
X015885D01*
X015915Y025126D01*
X015976Y025065D01*
X01605Y025035D01*
Y0252D01*
D02*
G37*
G36*
X008815D02*
X00865D01*
Y025035D01*
X008724Y025065D01*
X008785Y025126D01*
X008815Y0252D01*
D02*
G37*
G36*
X00855D02*
X008385D01*
X008415Y025126D01*
X008476Y025065D01*
X00855Y025035D01*
Y0252D01*
D02*
G37*
G36*
X007315D02*
X00715D01*
Y025035D01*
X007224Y025065D01*
X007285Y025126D01*
X007315Y0252D01*
D02*
G37*
G36*
X00705D02*
X006885D01*
X006915Y025126D01*
X006976Y025065D01*
X00705Y025035D01*
Y0252D01*
D02*
G37*
G36*
X004315D02*
X00415D01*
Y025035D01*
X004224Y025065D01*
X004285Y025126D01*
X004315Y0252D01*
D02*
G37*
G36*
X00405D02*
X003885D01*
X003915Y025126D01*
X003976Y025065D01*
X00405Y025035D01*
Y0252D01*
D02*
G37*
G36*
X02635Y025584D02*
X02625D01*
X026154Y025558D01*
X026067Y025508D01*
X025997Y025437D01*
X025947Y025351D01*
X025921Y025254D01*
Y025155D01*
X025947Y025058D01*
X025997Y024972D01*
X026067Y024901D01*
X026154Y024851D01*
X02625Y024825D01*
X02635D01*
X026446Y024851D01*
X026533Y024901D01*
X026603Y024972D01*
X026653Y025058D01*
X026679Y025155D01*
Y025254D01*
X026653Y025351D01*
X026603Y025437D01*
X026533Y025508D01*
X026446Y025558D01*
X02635Y025584D01*
D02*
G37*
G36*
X001005Y025015D02*
X001D01*
Y02465D01*
X001365D01*
Y024655D01*
X001337Y02476D01*
X001282Y024855D01*
X001205Y024932D01*
X00111Y024987D01*
X001005Y025015D01*
D02*
G37*
G36*
X0009D02*
X000895D01*
X00079Y024987D01*
X000695Y024932D01*
X000618Y024855D01*
X000563Y02476D01*
X000535Y024655D01*
Y02465D01*
X0009D01*
Y025015D01*
D02*
G37*
G36*
X003345Y024995D02*
X002555D01*
Y024205D01*
X003345D01*
Y024995D01*
D02*
G37*
G36*
X002002D02*
X001898D01*
X001798Y024968D01*
X001707Y024916D01*
X001634Y024843D01*
X001582Y024752D01*
X001555Y024652D01*
Y024548D01*
X001582Y024448D01*
X001634Y024357D01*
X001707Y024284D01*
X001798Y024232D01*
X001898Y024205D01*
X002002D01*
X002102Y024232D01*
X002193Y024284D01*
X002266Y024357D01*
X002318Y024448D01*
X002345Y024548D01*
Y024652D01*
X002318Y024752D01*
X002266Y024843D01*
X002193Y024916D01*
X002102Y024968D01*
X002002Y024995D01*
D02*
G37*
G36*
X001365Y02455D02*
X001D01*
Y024185D01*
X001005D01*
X00111Y024213D01*
X001205Y024268D01*
X001282Y024345D01*
X001337Y02444D01*
X001365Y024545D01*
Y02455D01*
D02*
G37*
G36*
X0009D02*
X000535D01*
Y024545D01*
X000563Y02444D01*
X000618Y024345D01*
X000695Y024268D01*
X00079Y024213D01*
X000895Y024185D01*
X0009D01*
Y02455D01*
D02*
G37*
G36*
X02635Y024584D02*
X02625D01*
X026154Y024558D01*
X026067Y024508D01*
X025997Y024437D01*
X025947Y024351D01*
X025921Y024254D01*
Y024155D01*
X025947Y024058D01*
X025997Y023972D01*
X026067Y023901D01*
X026154Y023851D01*
X02625Y023825D01*
X02635D01*
X026446Y023851D01*
X026533Y023901D01*
X026603Y023972D01*
X026653Y024058D01*
X026679Y024155D01*
Y024254D01*
X026653Y024351D01*
X026603Y024437D01*
X026533Y024508D01*
X026446Y024558D01*
X02635Y024584D01*
D02*
G37*
G36*
X0244Y023965D02*
Y0238D01*
X024565D01*
X024535Y023874D01*
X024474Y023935D01*
X0244Y023965D01*
D02*
G37*
G36*
X0243D02*
X024226Y023935D01*
X024165Y023874D01*
X024135Y0238D01*
X0243D01*
Y023965D01*
D02*
G37*
G36*
X0229D02*
Y0238D01*
X023065D01*
X023035Y023874D01*
X022974Y023935D01*
X0229Y023965D01*
D02*
G37*
G36*
X0228D02*
X022726Y023935D01*
X022665Y023874D01*
X022635Y0238D01*
X0228D01*
Y023965D01*
D02*
G37*
G36*
X0124D02*
Y0238D01*
X012565D01*
X012535Y023874D01*
X012474Y023935D01*
X0124Y023965D01*
D02*
G37*
G36*
X0123D02*
X012226Y023935D01*
X012165Y023874D01*
X012135Y0238D01*
X0123D01*
Y023965D01*
D02*
G37*
G36*
X0094D02*
Y0238D01*
X009565D01*
X009535Y023874D01*
X009474Y023935D01*
X0094Y023965D01*
D02*
G37*
G36*
X0093D02*
X009226Y023935D01*
X009165Y023874D01*
X009135Y0238D01*
X0093D01*
Y023965D01*
D02*
G37*
G36*
X0064D02*
Y0238D01*
X006565D01*
X006535Y023874D01*
X006474Y023935D01*
X0064Y023965D01*
D02*
G37*
G36*
X0063D02*
X006226Y023935D01*
X006165Y023874D01*
X006135Y0238D01*
X0063D01*
Y023965D01*
D02*
G37*
G36*
X0049D02*
Y0238D01*
X005065D01*
X005035Y023874D01*
X004974Y023935D01*
X0049Y023965D01*
D02*
G37*
G36*
X0048D02*
X004726Y023935D01*
X004665Y023874D01*
X004635Y0238D01*
X0048D01*
Y023965D01*
D02*
G37*
G36*
X0019D02*
Y0238D01*
X002065D01*
X002035Y023874D01*
X001974Y023935D01*
X0019Y023965D01*
D02*
G37*
G36*
X0018D02*
X001726Y023935D01*
X001665Y023874D01*
X001635Y0238D01*
X0018D01*
Y023965D01*
D02*
G37*
G36*
X024565Y0237D02*
X0244D01*
Y023535D01*
X024474Y023565D01*
X024535Y023626D01*
X024565Y0237D01*
D02*
G37*
G36*
X0243D02*
X024135D01*
X024165Y023626D01*
X024226Y023565D01*
X0243Y023535D01*
Y0237D01*
D02*
G37*
G36*
X023065D02*
X0229D01*
Y023535D01*
X022974Y023565D01*
X023035Y023626D01*
X023065Y0237D01*
D02*
G37*
G36*
X0228D02*
X022635D01*
X022665Y023626D01*
X022726Y023565D01*
X0228Y023535D01*
Y0237D01*
D02*
G37*
G36*
X012565D02*
X0124D01*
Y023535D01*
X012474Y023565D01*
X012535Y023626D01*
X012565Y0237D01*
D02*
G37*
G36*
X0123D02*
X012135D01*
X012165Y023626D01*
X012226Y023565D01*
X0123Y023535D01*
Y0237D01*
D02*
G37*
G36*
X009565D02*
X0094D01*
Y023535D01*
X009474Y023565D01*
X009535Y023626D01*
X009565Y0237D01*
D02*
G37*
G36*
X0093D02*
X009135D01*
X009165Y023626D01*
X009226Y023565D01*
X0093Y023535D01*
Y0237D01*
D02*
G37*
G36*
X006565D02*
X0064D01*
Y023535D01*
X006474Y023565D01*
X006535Y023626D01*
X006565Y0237D01*
D02*
G37*
G36*
X0063D02*
X006135D01*
X006165Y023626D01*
X006226Y023565D01*
X0063Y023535D01*
Y0237D01*
D02*
G37*
G36*
X005065D02*
X0049D01*
Y023535D01*
X004974Y023565D01*
X005035Y023626D01*
X005065Y0237D01*
D02*
G37*
G36*
X0048D02*
X004635D01*
X004665Y023626D01*
X004726Y023565D01*
X0048Y023535D01*
Y0237D01*
D02*
G37*
G36*
X002065D02*
X0019D01*
Y023535D01*
X001974Y023565D01*
X002035Y023626D01*
X002065Y0237D01*
D02*
G37*
G36*
X0018D02*
X001635D01*
X001665Y023626D01*
X001726Y023565D01*
X0018Y023535D01*
Y0237D01*
D02*
G37*
G36*
X02635Y023584D02*
X02625D01*
X026154Y023558D01*
X026067Y023508D01*
X025997Y023437D01*
X025947Y023351D01*
X025921Y023254D01*
Y023155D01*
X025947Y023058D01*
X025997Y022972D01*
X026067Y022901D01*
X026154Y022851D01*
X02625Y022825D01*
X02635D01*
X026446Y022851D01*
X026533Y022901D01*
X026603Y022972D01*
X026653Y023058D01*
X026679Y023155D01*
Y023254D01*
X026653Y023351D01*
X026603Y023437D01*
X026533Y023508D01*
X026446Y023558D01*
X02635Y023584D01*
D02*
G37*
G36*
X00443Y028555D02*
X00293D01*
X00284Y028537D01*
X002764Y028486D01*
X002713Y02841D01*
X002695Y02832D01*
X002713Y02823D01*
X002764Y028154D01*
X00284Y028103D01*
X00293Y028085D01*
X004333D01*
X005365Y027053D01*
Y02315D01*
Y022783D01*
X003498D01*
X003462Y022818D01*
X003389Y022848D01*
X003311D01*
X003238Y022818D01*
X003182Y022762D01*
X003152Y022689D01*
Y022611D01*
X003182Y022538D01*
X003238Y022482D01*
X003311Y022452D01*
X003389D01*
X003462Y022482D01*
X003498Y022517D01*
X005365D01*
Y020575D01*
X002755D01*
X002727Y020603D01*
X002654Y020634D01*
X002575D01*
X002502Y020603D01*
X002447Y020548D01*
X002416Y020475D01*
Y020396D01*
X002447Y020323D01*
X002502Y020267D01*
X002575Y020237D01*
X002654D01*
X002727Y020267D01*
X002769Y02031D01*
X005365D01*
Y01915D01*
Y01345D01*
Y01235D01*
Y01165D01*
X005383Y01156D01*
X005434Y011484D01*
X006484Y010434D01*
X00656Y010383D01*
X00665Y010365D01*
X016223D01*
Y003248D01*
X016187Y003212D01*
X016157Y003139D01*
Y003061D01*
X016187Y002988D01*
X016243Y002932D01*
X016316Y002902D01*
X016395D01*
X016467Y002932D01*
X016523Y002988D01*
X016553Y003061D01*
Y003139D01*
X016523Y003212D01*
X016488Y003248D01*
Y010365D01*
X022647D01*
X022737Y010383D01*
X022813Y010434D01*
X022835Y010467D01*
X023355D01*
X023357Y010418D01*
X023276Y010385D01*
X023215Y010324D01*
X023185Y01025D01*
X023615D01*
X023585Y010324D01*
X023524Y010385D01*
X023443Y010418D01*
X023445Y010467D01*
X023717D01*
Y004155D01*
X023461Y003898D01*
X023411D01*
X023338Y003868D01*
X023282Y003812D01*
X023252Y003739D01*
Y003661D01*
X023282Y003588D01*
X023338Y003532D01*
X023411Y003502D01*
X023489D01*
X023562Y003532D01*
X023618Y003588D01*
X023648Y003661D01*
Y003711D01*
X023944Y004006D01*
X023972Y004049D01*
X023983Y0041D01*
Y010541D01*
X023972Y010592D01*
X023944Y010635D01*
X023885Y010694D01*
X023842Y010722D01*
X023791Y010733D01*
X022882D01*
Y011737D01*
X022883Y011741D01*
X022883Y011741D01*
Y011747D01*
X022883Y011747D01*
X022865Y011836D01*
X022814Y011912D01*
X022814Y011912D01*
X022813Y011913D01*
X022737Y011964D01*
X022647Y011982D01*
X022558Y011964D01*
X022482Y011913D01*
X022431Y011837D01*
X022413Y011747D01*
X022414Y011744D01*
X022413Y01174D01*
Y010835D01*
X018441D01*
X018421Y010881D01*
X018426Y010885D01*
X018452Y010948D01*
X01845Y010948D01*
X018436Y010945D01*
X018422Y010941D01*
X018409Y010936D01*
X018396Y01093D01*
X018383Y010923D01*
X01837Y010914D01*
X018358Y010905D01*
X018345Y010894D01*
X018349Y010959D01*
X018133D01*
X018137Y010894D01*
X018124Y010905D01*
X018112Y010914D01*
X018099Y010923D01*
X018086Y01093D01*
X018073Y010936D01*
X01806Y010941D01*
X018046Y010945D01*
X018033Y010948D01*
X01803Y010948D01*
X018056Y010885D01*
X018061Y010881D01*
X018042Y010835D01*
X016408D01*
X016388Y010885D01*
X016415Y010948D01*
X016412Y010948D01*
X016398Y010945D01*
X016385Y010941D01*
X016372Y010935D01*
X016359Y010929D01*
X016346Y010921D01*
X016334Y010913D01*
X016322Y010903D01*
X016311Y010891D01*
Y01095D01*
X015985D01*
X016012Y010885D01*
X015992Y010835D01*
X012046D01*
Y011225D01*
X012082Y011261D01*
X012112Y011334D01*
Y011412D01*
X012082Y011485D01*
X012026Y011541D01*
X011953Y011571D01*
X011874D01*
X011802Y011541D01*
X011746Y011485D01*
X011716Y011412D01*
Y011334D01*
X011746Y011261D01*
X011781Y011225D01*
Y010835D01*
X006747D01*
X005835Y011747D01*
Y01235D01*
Y01345D01*
Y01915D01*
Y02045D01*
Y02265D01*
Y02315D01*
Y02715D01*
X005817Y02724D01*
X005766Y027316D01*
X004596Y028486D01*
X00452Y028537D01*
X00443Y028555D01*
D02*
G37*
G36*
X001345Y023495D02*
X000555D01*
Y022705D01*
X001345D01*
Y023495D01*
D02*
G37*
G36*
X014239Y027198D02*
X014161D01*
X014088Y027168D01*
X014032Y027112D01*
X014016Y027075D01*
X014015Y027074D01*
X014015Y027074D01*
X014014Y027074D01*
X014001Y027065D01*
X013989Y027057D01*
X013988Y027057D01*
X013987Y027056D01*
X013979Y027044D01*
X01397Y027031D01*
X01397Y02703D01*
X01397Y02703D01*
X013967Y027015D01*
X013963Y027D01*
X013963Y026987D01*
X013962Y026977D01*
X013961Y026968D01*
X013959Y02696D01*
X013957Y026953D01*
X013954Y026947D01*
X013951Y02694D01*
X013947Y026935D01*
X013945Y026933D01*
X010196Y023184D01*
X010168Y023141D01*
X010162Y02311D01*
X01016Y023107D01*
X01016Y023104D01*
X010158Y02309D01*
Y02308D01*
X010158Y02308D01*
X010157Y023076D01*
X010156Y023074D01*
X010155Y023072D01*
X010153Y02307D01*
X010151Y023068D01*
X010149Y023065D01*
X010145Y023062D01*
X010136Y023057D01*
X010125Y023047D01*
X010113Y023037D01*
X010113Y023036D01*
X010112Y023036D01*
X010106Y023022D01*
X010099Y023008D01*
X010099Y023008D01*
X010099Y023007D01*
X010098Y022992D01*
X010097Y022977D01*
X010082Y022962D01*
X010052Y022889D01*
Y022811D01*
X010082Y022738D01*
X010138Y022682D01*
X010211Y022652D01*
X010289D01*
X010362Y022682D01*
X010418Y022738D01*
X010448Y022811D01*
Y022886D01*
X010453Y022897D01*
X01046Y022911D01*
X01046Y022912D01*
X01046Y022912D01*
X010461Y022927D01*
X010462Y022943D01*
X010462Y022943D01*
X010462Y022944D01*
X010457Y022958D01*
X010452Y022973D01*
X010452Y022973D01*
X010452Y022974D01*
X010445Y022985D01*
X01044Y022995D01*
X010435Y023004D01*
X010432Y023014D01*
X010429Y023023D01*
X010426Y023032D01*
X010425Y023038D01*
X014133Y026745D01*
X014135Y026747D01*
X01414Y026751D01*
X014147Y026754D01*
X014153Y026757D01*
X01416Y026759D01*
X014168Y026761D01*
X014177Y026762D01*
X014187Y026763D01*
X0142Y026763D01*
X014215Y026767D01*
X01423Y02677D01*
X01423Y02677D01*
X014231Y02677D01*
X014244Y026779D01*
X014256Y026787D01*
X014257Y026788D01*
X014257Y026789D01*
X014265Y026801D01*
X014274Y026814D01*
X014274Y026815D01*
X014274Y026815D01*
X014275Y026816D01*
X014312Y026832D01*
X014368Y026888D01*
X014398Y026961D01*
Y027039D01*
X014368Y027112D01*
X014312Y027168D01*
X014239Y027198D01*
D02*
G37*
G36*
X01905Y022765D02*
Y0226D01*
X019215D01*
X019185Y022674D01*
X019124Y022735D01*
X01905Y022765D01*
D02*
G37*
G36*
X01895D02*
X018876Y022735D01*
X018815Y022674D01*
X018785Y0226D01*
X01895D01*
Y022765D01*
D02*
G37*
G36*
X019107Y0225D02*
X01905D01*
Y022443D01*
X019107Y0225D01*
D02*
G37*
G36*
X01895D02*
X018893D01*
X01895Y022443D01*
Y0225D01*
D02*
G37*
G36*
X019215D02*
X01916D01*
X019163Y022488D01*
X019167Y022474D01*
X019173Y022461D01*
X019179Y022449D01*
X019187Y022437D01*
X019188Y022435D01*
X019215Y0225D01*
D02*
G37*
G36*
X01884D02*
X018785D01*
X018812Y022435D01*
X018813Y022437D01*
X018821Y022449D01*
X018827Y022461D01*
X018833Y022474D01*
X018837Y022488D01*
X01884Y0225D01*
D02*
G37*
G36*
X01905Y02239D02*
Y022335D01*
X019115Y022362D01*
X019113Y022363D01*
X019101Y022371D01*
X019089Y022377D01*
X019076Y022383D01*
X019062Y022387D01*
X01905Y02239D01*
D02*
G37*
G36*
X01895D02*
X018938Y022387D01*
X018924Y022383D01*
X018911Y022377D01*
X018899Y022371D01*
X018887Y022363D01*
X018885Y022362D01*
X01895Y022335D01*
Y02239D01*
D02*
G37*
G36*
X02515Y022465D02*
Y0223D01*
X025315D01*
X025285Y022374D01*
X025224Y022435D01*
X02515Y022465D01*
D02*
G37*
G36*
X02505D02*
X024976Y022435D01*
X024915Y022374D01*
X024885Y0223D01*
X02505D01*
Y022465D01*
D02*
G37*
G36*
X02215D02*
Y0223D01*
X022315D01*
X022285Y022374D01*
X022224Y022435D01*
X02215Y022465D01*
D02*
G37*
G36*
X02205D02*
X021976Y022435D01*
X021915Y022374D01*
X021885Y0223D01*
X02205D01*
Y022465D01*
D02*
G37*
G36*
X02065D02*
Y0223D01*
X020815D01*
X020785Y022374D01*
X020724Y022435D01*
X02065Y022465D01*
D02*
G37*
G36*
X02055D02*
X020476Y022435D01*
X020415Y022374D01*
X020385Y0223D01*
X02055D01*
Y022465D01*
D02*
G37*
G36*
X01765D02*
Y0223D01*
X017815D01*
X017785Y022374D01*
X017724Y022435D01*
X01765Y022465D01*
D02*
G37*
G36*
X01755D02*
X017476Y022435D01*
X017415Y022374D01*
X017385Y0223D01*
X01755D01*
Y022465D01*
D02*
G37*
G36*
X00715D02*
Y0223D01*
X007315D01*
X007285Y022374D01*
X007224Y022435D01*
X00715Y022465D01*
D02*
G37*
G36*
X00705D02*
X006976Y022435D01*
X006915Y022374D01*
X006885Y0223D01*
X00705D01*
Y022465D01*
D02*
G37*
G36*
X014705Y022565D02*
X0147D01*
Y0222D01*
X015065D01*
Y022205D01*
X015037Y02231D01*
X014982Y022405D01*
X014905Y022482D01*
X01481Y022537D01*
X014705Y022565D01*
D02*
G37*
G36*
X0146D02*
X014595D01*
X01449Y022537D01*
X014395Y022482D01*
X014318Y022405D01*
X014263Y02231D01*
X014235Y022205D01*
Y0222D01*
X0146D01*
Y022565D01*
D02*
G37*
G36*
X001005Y022515D02*
X001D01*
Y02215D01*
X001365D01*
Y022155D01*
X001337Y02226D01*
X001282Y022355D01*
X001205Y022432D01*
X00111Y022487D01*
X001005Y022515D01*
D02*
G37*
G36*
X0009D02*
X000895D01*
X00079Y022487D01*
X000695Y022432D01*
X000618Y022355D01*
X000563Y02226D01*
X000535Y022155D01*
Y02215D01*
X0009D01*
Y022515D01*
D02*
G37*
G36*
X025315Y0222D02*
X02515D01*
Y022035D01*
X025224Y022065D01*
X025285Y022126D01*
X025315Y0222D01*
D02*
G37*
G36*
X02505D02*
X024885D01*
X024915Y022126D01*
X024976Y022065D01*
X02505Y022035D01*
Y0222D01*
D02*
G37*
G36*
X022315D02*
X02215D01*
Y022035D01*
X022224Y022065D01*
X022285Y022126D01*
X022315Y0222D01*
D02*
G37*
G36*
X02205D02*
X021885D01*
X021915Y022126D01*
X021976Y022065D01*
X02205Y022035D01*
Y0222D01*
D02*
G37*
G36*
X020815D02*
X02065D01*
Y022035D01*
X020724Y022065D01*
X020785Y022126D01*
X020815Y0222D01*
D02*
G37*
G36*
X02055D02*
X020385D01*
X020415Y022126D01*
X020476Y022065D01*
X02055Y022035D01*
Y0222D01*
D02*
G37*
G36*
X017815D02*
X01765D01*
Y022035D01*
X017724Y022065D01*
X017785Y022126D01*
X017815Y0222D01*
D02*
G37*
G36*
X01755D02*
X017385D01*
X017415Y022126D01*
X017476Y022065D01*
X01755Y022035D01*
Y0222D01*
D02*
G37*
G36*
X007315D02*
X00715D01*
Y022035D01*
X007224Y022065D01*
X007285Y022126D01*
X007315Y0222D01*
D02*
G37*
G36*
X00705D02*
X006885D01*
X006915Y022126D01*
X006976Y022065D01*
X00705Y022035D01*
Y0222D01*
D02*
G37*
G36*
X02635Y022584D02*
X02625D01*
X026154Y022558D01*
X026067Y022508D01*
X025997Y022437D01*
X025947Y022351D01*
X025921Y022254D01*
Y022155D01*
X025947Y022058D01*
X025954Y022046D01*
X025056Y021148D01*
X025028Y021105D01*
X025017Y021054D01*
Y018848D01*
X024982Y018812D01*
X024952Y018739D01*
Y018661D01*
X024982Y018588D01*
X025038Y018532D01*
X025111Y018502D01*
X025189D01*
X025262Y018532D01*
X025318Y018588D01*
X025348Y018661D01*
Y018739D01*
X025318Y018812D01*
X025283Y018848D01*
Y021D01*
X026141Y021858D01*
X026154Y021851D01*
X02625Y021825D01*
X02635D01*
X026446Y021851D01*
X026533Y021901D01*
X026603Y021972D01*
X026653Y022058D01*
X026679Y022155D01*
Y022254D01*
X026653Y022351D01*
X026603Y022437D01*
X026533Y022508D01*
X026446Y022558D01*
X02635Y022584D01*
D02*
G37*
G36*
X017045Y022545D02*
X016255D01*
Y021755D01*
X017045D01*
Y022545D01*
D02*
G37*
G36*
X015702D02*
X015598D01*
X015498Y022518D01*
X015407Y022466D01*
X015334Y022393D01*
X015282Y022302D01*
X015255Y022202D01*
Y022098D01*
X015282Y021998D01*
X015334Y021907D01*
X015407Y021834D01*
X015498Y021782D01*
X015598Y021755D01*
X015702D01*
X015802Y021782D01*
X015893Y021834D01*
X015966Y021907D01*
X016018Y021998D01*
X016045Y022098D01*
Y022202D01*
X016018Y022302D01*
X015966Y022393D01*
X015893Y022466D01*
X015802Y022518D01*
X015702Y022545D01*
D02*
G37*
G36*
X013702D02*
X013598D01*
X013498Y022518D01*
X013407Y022466D01*
X013334Y022393D01*
X013282Y022302D01*
X013255Y022202D01*
Y022098D01*
X013282Y021998D01*
X013334Y021907D01*
X013407Y021834D01*
X013498Y021782D01*
X013598Y021755D01*
X013702D01*
X013802Y021782D01*
X013893Y021834D01*
X013966Y021907D01*
X014018Y021998D01*
X014045Y022098D01*
Y022202D01*
X014018Y022302D01*
X013966Y022393D01*
X013893Y022466D01*
X013802Y022518D01*
X013702Y022545D01*
D02*
G37*
G36*
X015065Y0221D02*
X0147D01*
Y021735D01*
X014705D01*
X01481Y021763D01*
X014905Y021818D01*
X014982Y021895D01*
X015037Y02199D01*
X015065Y022095D01*
Y0221D01*
D02*
G37*
G36*
X0146D02*
X014235D01*
Y022095D01*
X014263Y02199D01*
X014318Y021895D01*
X014395Y021818D01*
X01449Y021763D01*
X014595Y021735D01*
X0146D01*
Y0221D01*
D02*
G37*
G36*
X001365Y02205D02*
X001D01*
Y021685D01*
X001005D01*
X00111Y021713D01*
X001205Y021768D01*
X001282Y021845D01*
X001337Y02194D01*
X001365Y022045D01*
Y02205D01*
D02*
G37*
G36*
X0009D02*
X000535D01*
Y022045D01*
X000563Y02194D01*
X000618Y021845D01*
X000695Y021768D01*
X00079Y021713D01*
X000895Y021685D01*
X0009D01*
Y02205D01*
D02*
G37*
G36*
X0147Y021515D02*
Y02135D01*
X014865D01*
X014835Y021424D01*
X014774Y021485D01*
X0147Y021515D01*
D02*
G37*
G36*
X0146D02*
X014526Y021485D01*
X014465Y021424D01*
X014435Y02135D01*
X0146D01*
Y021515D01*
D02*
G37*
G36*
Y02125D02*
X014543D01*
X0146Y021193D01*
Y02125D01*
D02*
G37*
G36*
X01449D02*
X014435D01*
X014462Y021185D01*
X014463Y021187D01*
X014471Y021199D01*
X014477Y021211D01*
X014483Y021224D01*
X014487Y021238D01*
X01449Y02125D01*
D02*
G37*
G36*
X014865D02*
X0147D01*
Y021085D01*
X014774Y021115D01*
X014835Y021176D01*
X014865Y02125D01*
D02*
G37*
G36*
X0146Y02114D02*
X014588Y021137D01*
X014574Y021133D01*
X014561Y021127D01*
X014549Y021121D01*
X014537Y021113D01*
X014535Y021112D01*
X0146Y021085D01*
Y02114D01*
D02*
G37*
G36*
X02635Y021584D02*
X02625D01*
X026154Y021558D01*
X026067Y021508D01*
X025997Y021437D01*
X025947Y021351D01*
X025921Y021254D01*
Y021155D01*
X025947Y021058D01*
X025997Y020972D01*
X026067Y020901D01*
X026154Y020851D01*
X02625Y020825D01*
X02635D01*
X026446Y020851D01*
X026533Y020901D01*
X026603Y020972D01*
X026653Y021058D01*
X026679Y021155D01*
Y021254D01*
X026653Y021351D01*
X026603Y021437D01*
X026533Y021508D01*
X026446Y021558D01*
X02635Y021584D01*
D02*
G37*
G36*
X0244Y020965D02*
Y0208D01*
X024565D01*
X024535Y020874D01*
X024474Y020935D01*
X0244Y020965D01*
D02*
G37*
G36*
X0243D02*
X024226Y020935D01*
X024165Y020874D01*
X024135Y0208D01*
X0243D01*
Y020965D01*
D02*
G37*
G36*
X0214D02*
Y0208D01*
X021565D01*
X021535Y020874D01*
X021474Y020935D01*
X0214Y020965D01*
D02*
G37*
G36*
X0213D02*
X021226Y020935D01*
X021165Y020874D01*
X021135Y0208D01*
X0213D01*
Y020965D01*
D02*
G37*
G36*
X0154D02*
Y0208D01*
X015565D01*
X015535Y020874D01*
X015474Y020935D01*
X0154Y020965D01*
D02*
G37*
G36*
X0153D02*
X015226Y020935D01*
X015165Y020874D01*
X015135Y0208D01*
X0153D01*
Y020965D01*
D02*
G37*
G36*
X001002Y021495D02*
X000898D01*
X000798Y021468D01*
X000707Y021416D01*
X000634Y021343D01*
X000582Y021252D01*
X000555Y021152D01*
Y021048D01*
X000582Y020948D01*
X000634Y020857D01*
X000707Y020784D01*
X000798Y020732D01*
X000898Y020705D01*
X001002D01*
X001102Y020732D01*
X001193Y020784D01*
X001266Y020857D01*
X001318Y020948D01*
X001345Y021048D01*
Y021152D01*
X001318Y021252D01*
X001266Y021343D01*
X001193Y021416D01*
X001102Y021468D01*
X001002Y021495D01*
D02*
G37*
G36*
X024565Y0207D02*
X0244D01*
Y020535D01*
X024474Y020565D01*
X024535Y020626D01*
X024565Y0207D01*
D02*
G37*
G36*
X0243D02*
X024135D01*
X024165Y020626D01*
X024226Y020565D01*
X0243Y020535D01*
Y0207D01*
D02*
G37*
G36*
X021565D02*
X0214D01*
Y020535D01*
X021474Y020565D01*
X021535Y020626D01*
X021565Y0207D01*
D02*
G37*
G36*
X0213D02*
X021135D01*
X021165Y020626D01*
X021226Y020565D01*
X0213Y020535D01*
Y0207D01*
D02*
G37*
G36*
X015565D02*
X0154D01*
Y020535D01*
X015474Y020565D01*
X015535Y020626D01*
X015565Y0207D01*
D02*
G37*
G36*
X0153D02*
X015135D01*
X015165Y020626D01*
X015226Y020565D01*
X0153Y020535D01*
Y0207D01*
D02*
G37*
G36*
X0112Y020215D02*
Y02005D01*
X011261D01*
Y020108D01*
X011272Y020097D01*
X011284Y020087D01*
X011296Y020079D01*
X011309Y020071D01*
X011322Y020065D01*
X011335Y020059D01*
X011348Y020055D01*
X011362Y020052D01*
X011365Y020052D01*
X011335Y020124D01*
X011274Y020185D01*
X0112Y020215D01*
D02*
G37*
G36*
X0111D02*
X011026Y020185D01*
X010965Y020124D01*
X010935Y020052D01*
X010938Y020052D01*
X010952Y020055D01*
X010965Y020059D01*
X010978Y020065D01*
X010991Y020071D01*
X011004Y020079D01*
X011016Y020087D01*
X011028Y020097D01*
X011039Y020108D01*
Y02005D01*
X0111D01*
Y020215D01*
D02*
G37*
G36*
Y01995D02*
X011039D01*
Y019892D01*
X011028Y019903D01*
X011016Y019913D01*
X011004Y019921D01*
X010991Y019929D01*
X010978Y019935D01*
X010965Y019941D01*
X010952Y019945D01*
X010938Y019948D01*
X010935Y019948D01*
X010965Y019876D01*
X011026Y019815D01*
X0111Y019785D01*
Y01995D01*
D02*
G37*
G36*
X02635Y020584D02*
X02625D01*
X026154Y020558D01*
X026067Y020508D01*
X025997Y020437D01*
X025947Y020351D01*
X025921Y020254D01*
Y020155D01*
X025947Y020058D01*
X025997Y019972D01*
X026067Y019901D01*
X026154Y019851D01*
X02625Y019825D01*
X02635D01*
X026446Y019851D01*
X026533Y019901D01*
X026603Y019972D01*
X026653Y020058D01*
X026679Y020155D01*
Y020254D01*
X026653Y020351D01*
X026603Y020437D01*
X026533Y020508D01*
X026446Y020558D01*
X02635Y020584D01*
D02*
G37*
G36*
X011261Y01995D02*
X0112D01*
Y019785D01*
X011274Y019815D01*
X011335Y019876D01*
X011365Y019948D01*
X011362Y019948D01*
X011348Y019945D01*
X011335Y019941D01*
X011322Y019935D01*
X011309Y019929D01*
X011296Y019921D01*
X011284Y019913D01*
X011272Y019903D01*
X011261Y019892D01*
Y01995D01*
D02*
G37*
G36*
X001002Y020495D02*
X000898D01*
X000798Y020468D01*
X000707Y020416D01*
X000634Y020343D01*
X000582Y020252D01*
X000555Y020152D01*
Y020048D01*
X000582Y019948D01*
X000634Y019857D01*
X000707Y019784D01*
X000798Y019732D01*
X000898Y019705D01*
X001002D01*
X001102Y019732D01*
X001193Y019784D01*
X001266Y019857D01*
X001318Y019948D01*
X001345Y020048D01*
Y020152D01*
X001318Y020252D01*
X001266Y020343D01*
X001193Y020416D01*
X001102Y020468D01*
X001002Y020495D01*
D02*
G37*
G36*
X017589Y021448D02*
X017511D01*
X017438Y021418D01*
X017382Y021362D01*
X017352Y021289D01*
Y021211D01*
X017382Y021138D01*
X017417Y021102D01*
Y019848D01*
X017382Y019812D01*
X017352Y019739D01*
Y019661D01*
X017382Y019588D01*
X017438Y019532D01*
X017511Y019502D01*
X017589D01*
X017662Y019532D01*
X017718Y019588D01*
X017748Y019661D01*
Y019739D01*
X017718Y019812D01*
X017683Y019848D01*
Y021102D01*
X017718Y021138D01*
X017748Y021211D01*
Y021289D01*
X017718Y021362D01*
X017662Y021418D01*
X017589Y021448D01*
D02*
G37*
G36*
X0093Y019465D02*
Y01941D01*
X009312Y019413D01*
X009326Y019417D01*
X009339Y019423D01*
X009351Y019429D01*
X009363Y019437D01*
X009365Y019438D01*
X0093Y019465D01*
D02*
G37*
G36*
X009438Y019365D02*
X009437Y019363D01*
X009429Y019351D01*
X009423Y019339D01*
X009417Y019326D01*
X009413Y019312D01*
X00941Y0193D01*
X009465D01*
X009438Y019365D01*
D02*
G37*
G36*
X0093Y019357D02*
Y0193D01*
X009357D01*
X0093Y019357D01*
D02*
G37*
G36*
X0092Y019465D02*
X009126Y019435D01*
X009065Y019374D01*
X009035Y0193D01*
X0092D01*
Y019465D01*
D02*
G37*
G36*
X00415D02*
Y0193D01*
X004315D01*
X004285Y019374D01*
X004224Y019435D01*
X00415Y019465D01*
D02*
G37*
G36*
X00405D02*
X003976Y019435D01*
X003915Y019374D01*
X003885Y0193D01*
X00405D01*
Y019465D01*
D02*
G37*
G36*
X00265D02*
Y0193D01*
X002815D01*
X002785Y019374D01*
X002724Y019435D01*
X00265Y019465D01*
D02*
G37*
G36*
X00255D02*
X002476Y019435D01*
X002415Y019374D01*
X002385Y0193D01*
X00255D01*
Y019465D01*
D02*
G37*
G36*
X00115D02*
Y0193D01*
X001315D01*
X001285Y019374D01*
X001224Y019435D01*
X00115Y019465D01*
D02*
G37*
G36*
X00105D02*
X000976Y019435D01*
X000915Y019374D01*
X000885Y0193D01*
X00105D01*
Y019465D01*
D02*
G37*
G36*
X009465Y0192D02*
X0093D01*
Y019035D01*
X009374Y019065D01*
X009435Y019126D01*
X009465Y0192D01*
D02*
G37*
G36*
X0092D02*
X009035D01*
X009065Y019126D01*
X009126Y019065D01*
X0092Y019035D01*
Y0192D01*
D02*
G37*
G36*
X004315D02*
X00415D01*
Y019035D01*
X004224Y019065D01*
X004285Y019126D01*
X004315Y0192D01*
D02*
G37*
G36*
X00405D02*
X003885D01*
X003915Y019126D01*
X003976Y019065D01*
X00405Y019035D01*
Y0192D01*
D02*
G37*
G36*
X002815D02*
X00265D01*
Y019035D01*
X002724Y019065D01*
X002785Y019126D01*
X002815Y0192D01*
D02*
G37*
G36*
X00255D02*
X002385D01*
X002415Y019126D01*
X002476Y019065D01*
X00255Y019035D01*
Y0192D01*
D02*
G37*
G36*
X001315D02*
X00115D01*
Y019035D01*
X001224Y019065D01*
X001285Y019126D01*
X001315Y0192D01*
D02*
G37*
G36*
X00105D02*
X000885D01*
X000915Y019126D01*
X000976Y019065D01*
X00105Y019035D01*
Y0192D01*
D02*
G37*
G36*
X02635Y019584D02*
X02625D01*
X026154Y019558D01*
X026067Y019508D01*
X025997Y019437D01*
X025947Y019351D01*
X025921Y019254D01*
Y019155D01*
X025947Y019058D01*
X025997Y018972D01*
X026067Y018901D01*
X026154Y018851D01*
X02625Y018825D01*
X02635D01*
X026446Y018851D01*
X026533Y018901D01*
X026603Y018972D01*
X026653Y019058D01*
X026679Y019155D01*
Y019254D01*
X026653Y019351D01*
X026603Y019437D01*
X026533Y019508D01*
X026446Y019558D01*
X02635Y019584D01*
D02*
G37*
G36*
X020437Y018949D02*
X020437Y018946D01*
X02044Y018933D01*
X020444Y018919D01*
X020449Y018906D01*
X020456Y018894D01*
X020463Y018881D01*
X020472Y018869D01*
X020482Y018857D01*
X020493Y018845D01*
X020435D01*
Y018785D01*
X0206D01*
X02057Y018858D01*
X020508Y01892D01*
X020437Y018949D01*
D02*
G37*
G36*
X020333D02*
X020261Y01892D01*
X0202Y018858D01*
X020169Y018785D01*
X020335D01*
Y018845D01*
X020276D01*
X020287Y018857D01*
X020297Y018869D01*
X020306Y018881D01*
X020314Y018894D01*
X02032Y018906D01*
X020325Y018919D01*
X020329Y018933D01*
X020332Y018946D01*
X020333Y018949D01*
D02*
G37*
G36*
X0206Y018685D02*
X020435D01*
Y018519D01*
X020508Y01855D01*
X02057Y018611D01*
X0206Y018685D01*
D02*
G37*
G36*
X020335D02*
X020169D01*
X0202Y018611D01*
X020261Y01855D01*
X020335Y018519D01*
Y018685D01*
D02*
G37*
G36*
X02635Y018584D02*
X02625D01*
X026154Y018558D01*
X026067Y018508D01*
X025997Y018437D01*
X025947Y018351D01*
X025921Y018254D01*
Y018155D01*
X025947Y018058D01*
X025997Y017972D01*
X026067Y017901D01*
X026154Y017851D01*
X02625Y017825D01*
X02635D01*
X026446Y017851D01*
X026533Y017901D01*
X026603Y017972D01*
X026653Y018058D01*
X026679Y018155D01*
Y018254D01*
X026653Y018351D01*
X026603Y018437D01*
X026533Y018508D01*
X026446Y018558D01*
X02635Y018584D01*
D02*
G37*
G36*
X0244Y017965D02*
Y0178D01*
X024565D01*
X024535Y017874D01*
X024474Y017935D01*
X0244Y017965D01*
D02*
G37*
G36*
X0243D02*
X024226Y017935D01*
X024165Y017874D01*
X024135Y0178D01*
X0243D01*
Y017965D01*
D02*
G37*
G36*
X0214D02*
Y0178D01*
X021565D01*
X021535Y017874D01*
X021474Y017935D01*
X0214Y017965D01*
D02*
G37*
G36*
X0213D02*
X021226Y017935D01*
X021165Y017874D01*
X021135Y0178D01*
X0213D01*
Y017965D01*
D02*
G37*
G36*
X0169D02*
Y0178D01*
X017065D01*
X017035Y017874D01*
X016974Y017935D01*
X0169Y017965D01*
D02*
G37*
G36*
X0168D02*
X016726Y017935D01*
X016665Y017874D01*
X016635Y0178D01*
X0168D01*
Y017965D01*
D02*
G37*
G36*
X0154D02*
Y0178D01*
X015565D01*
X015535Y017874D01*
X015474Y017935D01*
X0154Y017965D01*
D02*
G37*
G36*
X0153D02*
X015226Y017935D01*
X015165Y017874D01*
X015135Y0178D01*
X0153D01*
Y017965D01*
D02*
G37*
G36*
X0139D02*
Y0178D01*
X014065D01*
X014035Y017874D01*
X013974Y017935D01*
X0139Y017965D01*
D02*
G37*
G36*
X0138D02*
X013726Y017935D01*
X013665Y017874D01*
X013635Y0178D01*
X0138D01*
Y017965D01*
D02*
G37*
G36*
X0124D02*
Y0178D01*
X012565D01*
X012535Y017874D01*
X012474Y017935D01*
X0124Y017965D01*
D02*
G37*
G36*
X0123D02*
X012226Y017935D01*
X012165Y017874D01*
X012135Y0178D01*
X0123D01*
Y017965D01*
D02*
G37*
G36*
X0064D02*
Y0178D01*
X006565D01*
X006535Y017874D01*
X006474Y017935D01*
X0064Y017965D01*
D02*
G37*
G36*
X0063D02*
X006226Y017935D01*
X006165Y017874D01*
X006135Y0178D01*
X0063D01*
Y017965D01*
D02*
G37*
G36*
X0049D02*
Y0178D01*
X005065D01*
X005035Y017874D01*
X004974Y017935D01*
X0049Y017965D01*
D02*
G37*
G36*
X0048D02*
X004726Y017935D01*
X004665Y017874D01*
X004635Y0178D01*
X0048D01*
Y017965D01*
D02*
G37*
G36*
X0034D02*
Y0178D01*
X003565D01*
X003535Y017874D01*
X003474Y017935D01*
X0034Y017965D01*
D02*
G37*
G36*
X0033D02*
X003226Y017935D01*
X003165Y017874D01*
X003135Y0178D01*
X0033D01*
Y017965D01*
D02*
G37*
G36*
X0019D02*
Y0178D01*
X002065D01*
X002035Y017874D01*
X001974Y017935D01*
X0019Y017965D01*
D02*
G37*
G36*
X0018D02*
X001726Y017935D01*
X001665Y017874D01*
X001635Y0178D01*
X0018D01*
Y017965D01*
D02*
G37*
G36*
X024565Y0177D02*
X0244D01*
Y017535D01*
X024474Y017565D01*
X024535Y017626D01*
X024565Y0177D01*
D02*
G37*
G36*
X0243D02*
X024135D01*
X024165Y017626D01*
X024226Y017565D01*
X0243Y017535D01*
Y0177D01*
D02*
G37*
G36*
X021565D02*
X0214D01*
Y017535D01*
X021474Y017565D01*
X021535Y017626D01*
X021565Y0177D01*
D02*
G37*
G36*
X0213D02*
X021135D01*
X021165Y017626D01*
X021226Y017565D01*
X0213Y017535D01*
Y0177D01*
D02*
G37*
G36*
X017065D02*
X0169D01*
Y017535D01*
X016974Y017565D01*
X017035Y017626D01*
X017065Y0177D01*
D02*
G37*
G36*
X0168D02*
X016635D01*
X016665Y017626D01*
X016726Y017565D01*
X0168Y017535D01*
Y0177D01*
D02*
G37*
G36*
X015565D02*
X0154D01*
Y017535D01*
X015474Y017565D01*
X015535Y017626D01*
X015565Y0177D01*
D02*
G37*
G36*
X0153D02*
X015135D01*
X015165Y017626D01*
X015226Y017565D01*
X0153Y017535D01*
Y0177D01*
D02*
G37*
G36*
X014065D02*
X0139D01*
Y017535D01*
X013974Y017565D01*
X014035Y017626D01*
X014065Y0177D01*
D02*
G37*
G36*
X0138D02*
X013635D01*
X013665Y017626D01*
X013726Y017565D01*
X0138Y017535D01*
Y0177D01*
D02*
G37*
G36*
X012565D02*
X0124D01*
Y017535D01*
X012474Y017565D01*
X012535Y017626D01*
X012565Y0177D01*
D02*
G37*
G36*
X0123D02*
X012135D01*
X012165Y017626D01*
X012226Y017565D01*
X0123Y017535D01*
Y0177D01*
D02*
G37*
G36*
X006565D02*
X0064D01*
Y017535D01*
X006474Y017565D01*
X006535Y017626D01*
X006565Y0177D01*
D02*
G37*
G36*
X0063D02*
X006135D01*
X006165Y017626D01*
X006226Y017565D01*
X0063Y017535D01*
Y0177D01*
D02*
G37*
G36*
X005065D02*
X0049D01*
Y017535D01*
X004974Y017565D01*
X005035Y017626D01*
X005065Y0177D01*
D02*
G37*
G36*
X0048D02*
X004635D01*
X004665Y017626D01*
X004726Y017565D01*
X0048Y017535D01*
Y0177D01*
D02*
G37*
G36*
X003565D02*
X0034D01*
Y017535D01*
X003474Y017565D01*
X003535Y017626D01*
X003565Y0177D01*
D02*
G37*
G36*
X0033D02*
X003135D01*
X003165Y017626D01*
X003226Y017565D01*
X0033Y017535D01*
Y0177D01*
D02*
G37*
G36*
X002065D02*
X0019D01*
Y017535D01*
X001974Y017565D01*
X002035Y017626D01*
X002065Y0177D01*
D02*
G37*
G36*
X0018D02*
X001635D01*
X001665Y017626D01*
X001726Y017565D01*
X0018Y017535D01*
Y0177D01*
D02*
G37*
G36*
X026353Y017604D02*
X02635D01*
Y017254D01*
X026699D01*
Y017257D01*
X026672Y017359D01*
X026619Y01745D01*
X026545Y017524D01*
X026454Y017576D01*
X026353Y017604D01*
D02*
G37*
G36*
X02625D02*
X026247D01*
X026146Y017576D01*
X026055Y017524D01*
X025981Y01745D01*
X025928Y017359D01*
X025901Y017257D01*
Y017254D01*
X02625D01*
Y017604D01*
D02*
G37*
G36*
X018239Y021248D02*
X018161D01*
X018088Y021218D01*
X018032Y021162D01*
X018002Y021089D01*
Y021011D01*
X018032Y020938D01*
X018088Y020882D01*
X018161Y020852D01*
X018211D01*
X018467Y020595D01*
Y017548D01*
X018432Y017512D01*
X018402Y017439D01*
Y017361D01*
X018432Y017288D01*
X018488Y017232D01*
X018561Y017202D01*
X018639D01*
X018712Y017232D01*
X018768Y017288D01*
X018798Y017361D01*
Y017439D01*
X018768Y017512D01*
X018733Y017548D01*
Y02065D01*
X018722Y020701D01*
X018694Y020744D01*
X018398Y021039D01*
Y021089D01*
X018368Y021162D01*
X018312Y021218D01*
X018239Y021248D01*
D02*
G37*
G36*
X026Y017154D02*
X025901D01*
Y017152D01*
X025928Y01705D01*
X025971Y016975D01*
X025976Y016987D01*
X025984Y017016D01*
X02599Y017047D01*
X025995Y017081D01*
X026Y017154D01*
D02*
G37*
G36*
X02625D02*
X026048D01*
X02625Y016952D01*
Y017154D01*
D02*
G37*
G36*
X026699D02*
X02635D01*
Y016805D01*
X026353D01*
X026454Y016832D01*
X026545Y016885D01*
X026619Y016959D01*
X026672Y01705D01*
X026699Y017152D01*
Y017154D01*
D02*
G37*
G36*
X02625Y016905D02*
X026176Y0169D01*
X026142Y016895D01*
X026111Y016888D01*
X026083Y01688D01*
X026071Y016876D01*
X026146Y016832D01*
X026247Y016805D01*
X02625D01*
Y016905D01*
D02*
G37*
G36*
X023635Y016831D02*
Y016665D01*
X0238D01*
X02377Y016739D01*
X023709Y0168D01*
X023635Y016831D01*
D02*
G37*
G36*
X01225Y016665D02*
Y01661D01*
X012262Y016613D01*
X012276Y016617D01*
X012289Y016623D01*
X012301Y016629D01*
X012313Y016637D01*
X012315Y016638D01*
X01225Y016665D01*
D02*
G37*
G36*
X0089Y0187D02*
X00685D01*
X0068Y01865D01*
Y01465D01*
X00685Y0146D01*
X00895D01*
X0101Y01575D01*
X01125D01*
Y01585D01*
X0098D01*
X0087Y01475D01*
X00705D01*
X007Y0148D01*
Y0185D01*
X00705Y01855D01*
X00865D01*
X0087Y0185D01*
Y01815D01*
X0103Y01655D01*
X01075D01*
Y0166D01*
X00895Y0184D01*
Y01865D01*
X0089Y0187D01*
D02*
G37*
G36*
X00995Y016665D02*
Y0165D01*
X010011D01*
Y016559D01*
X010022Y016547D01*
X010034Y016537D01*
X010046Y016529D01*
X010059Y016521D01*
X010072Y016515D01*
X010085Y016509D01*
X010098Y016505D01*
X010112Y016502D01*
X010115Y016502D01*
X010085Y016574D01*
X010024Y016635D01*
X00995Y016665D01*
D02*
G37*
G36*
X012388Y016565D02*
X012387Y016563D01*
X012379Y016551D01*
X012373Y016539D01*
X012367Y016526D01*
X012363Y016512D01*
X01236Y0165D01*
X012415D01*
X012388Y016565D01*
D02*
G37*
G36*
X01225Y016557D02*
Y0165D01*
X012307D01*
X01225Y016557D01*
D02*
G37*
G36*
X01215Y016665D02*
X012076Y016635D01*
X012015Y016574D01*
X011985Y016502D01*
X011988Y016502D01*
X012002Y016505D01*
X012015Y016509D01*
X012028Y016515D01*
X012041Y016521D01*
X012054Y016529D01*
X012066Y016537D01*
X012078Y016547D01*
X012089Y016559D01*
Y0165D01*
X01215D01*
Y016665D01*
D02*
G37*
G36*
X00985D02*
X009776Y016635D01*
X009715Y016574D01*
X009685Y0165D01*
X00985D01*
Y016665D01*
D02*
G37*
G36*
X0238Y016565D02*
X023635D01*
Y0164D01*
X023709Y01643D01*
X02377Y016492D01*
X0238Y016565D01*
D02*
G37*
G36*
X0217Y023785D02*
X01335D01*
X01326Y023767D01*
X013184Y023716D01*
X011784Y022316D01*
X011733Y02224D01*
X011715Y02215D01*
X011733Y02206D01*
X011784Y021984D01*
X01186Y021933D01*
X01195Y021915D01*
X01204Y021933D01*
X012116Y021984D01*
X013447Y023315D01*
X021603D01*
X022965Y021953D01*
Y01465D01*
X022983Y01456D01*
X023034Y014484D01*
X02311Y014433D01*
X0232Y014415D01*
X02329Y014433D01*
X023366Y014484D01*
X023417Y01456D01*
X023435Y01465D01*
Y016392D01*
X023485Y016421D01*
X023535Y0164D01*
Y016615D01*
Y016831D01*
X023485Y01681D01*
X023435Y016839D01*
Y02205D01*
X023417Y02214D01*
X023366Y022216D01*
X021866Y023716D01*
X02179Y023767D01*
X0217Y023785D01*
D02*
G37*
G36*
X01215Y0164D02*
X012089D01*
Y016342D01*
X012078Y016353D01*
X012066Y016363D01*
X012054Y016371D01*
X012041Y016379D01*
X012028Y016385D01*
X012015Y016391D01*
X012002Y016395D01*
X011988Y016398D01*
X011985Y016398D01*
X012015Y016326D01*
X012076Y016265D01*
X01215Y016235D01*
Y0164D01*
D02*
G37*
G36*
X02065Y016465D02*
Y0163D01*
X020815D01*
X020785Y016374D01*
X020724Y016435D01*
X02065Y016465D01*
D02*
G37*
G36*
X02055D02*
X020476Y016435D01*
X020415Y016374D01*
X020385Y0163D01*
X02055D01*
Y016465D01*
D02*
G37*
G36*
X01615D02*
Y0163D01*
X016315D01*
X016285Y016374D01*
X016224Y016435D01*
X01615Y016465D01*
D02*
G37*
G36*
X01605D02*
X015976Y016435D01*
X015915Y016374D01*
X015885Y0163D01*
X01605D01*
Y016465D01*
D02*
G37*
G36*
X01315D02*
Y0163D01*
X013315D01*
X013285Y016374D01*
X013224Y016435D01*
X01315Y016465D01*
D02*
G37*
G36*
X01305D02*
X012976Y016435D01*
X012915Y016374D01*
X012885Y0163D01*
X01305D01*
Y016465D01*
D02*
G37*
G36*
X00415D02*
Y0163D01*
X004315D01*
X004285Y016374D01*
X004224Y016435D01*
X00415Y016465D01*
D02*
G37*
G36*
X00405D02*
X003976Y016435D01*
X003915Y016374D01*
X003885Y0163D01*
X00405D01*
Y016465D01*
D02*
G37*
G36*
X00265D02*
Y0163D01*
X002815D01*
X002785Y016374D01*
X002724Y016435D01*
X00265Y016465D01*
D02*
G37*
G36*
X00255D02*
X002476Y016435D01*
X002415Y016374D01*
X002385Y0163D01*
X00255D01*
Y016465D01*
D02*
G37*
G36*
X00115D02*
Y0163D01*
X001315D01*
X001285Y016374D01*
X001224Y016435D01*
X00115Y016465D01*
D02*
G37*
G36*
X00105D02*
X000976Y016435D01*
X000915Y016374D01*
X000885Y0163D01*
X00105D01*
Y016465D01*
D02*
G37*
G36*
X012415Y0164D02*
X01225D01*
Y016235D01*
X012324Y016265D01*
X012385Y016326D01*
X012415Y0164D01*
D02*
G37*
G36*
X010011D02*
X00995D01*
Y016235D01*
X010024Y016265D01*
X010085Y016326D01*
X010115Y016398D01*
X010112Y016398D01*
X010098Y016395D01*
X010085Y016391D01*
X010072Y016385D01*
X010059Y016379D01*
X010046Y016371D01*
X010034Y016363D01*
X010022Y016353D01*
X010011Y016342D01*
Y0164D01*
D02*
G37*
G36*
X00985D02*
X009685D01*
X009715Y016326D01*
X009776Y016265D01*
X00985Y016235D01*
Y0164D01*
D02*
G37*
G36*
X020815Y0162D02*
X02065D01*
Y016035D01*
X020724Y016065D01*
X020785Y016126D01*
X020815Y0162D01*
D02*
G37*
G36*
X02055D02*
X020385D01*
X020415Y016126D01*
X020476Y016065D01*
X02055Y016035D01*
Y0162D01*
D02*
G37*
G36*
X016315D02*
X01615D01*
Y016035D01*
X016224Y016065D01*
X016285Y016126D01*
X016315Y0162D01*
D02*
G37*
G36*
X01605D02*
X015885D01*
X015915Y016126D01*
X015976Y016065D01*
X01605Y016035D01*
Y0162D01*
D02*
G37*
G36*
X013315D02*
X01315D01*
Y016035D01*
X013224Y016065D01*
X013285Y016126D01*
X013315Y0162D01*
D02*
G37*
G36*
X01305D02*
X012885D01*
X012915Y016126D01*
X012976Y016065D01*
X01305Y016035D01*
Y0162D01*
D02*
G37*
G36*
X004315D02*
X00415D01*
Y016035D01*
X004224Y016065D01*
X004285Y016126D01*
X004315Y0162D01*
D02*
G37*
G36*
X00405D02*
X003885D01*
X003915Y016126D01*
X003976Y016065D01*
X00405Y016035D01*
Y0162D01*
D02*
G37*
G36*
X002815D02*
X00265D01*
Y016035D01*
X002724Y016065D01*
X002785Y016126D01*
X002815Y0162D01*
D02*
G37*
G36*
X00255D02*
X002385D01*
X002415Y016126D01*
X002476Y016065D01*
X00255Y016035D01*
Y0162D01*
D02*
G37*
G36*
X001315D02*
X00115D01*
Y016035D01*
X001224Y016065D01*
X001285Y016126D01*
X001315Y0162D01*
D02*
G37*
G36*
X00105D02*
X000885D01*
X000915Y016126D01*
X000976Y016065D01*
X00105Y016035D01*
Y0162D01*
D02*
G37*
G36*
X026679Y016584D02*
X025921D01*
Y015825D01*
X026679D01*
Y016584D01*
D02*
G37*
G36*
X025402Y015665D02*
X025402Y015662D01*
X025405Y015648D01*
X025409Y015635D01*
X025415Y015622D01*
X025421Y015609D01*
X025429Y015596D01*
X025437Y015584D01*
X025447Y015572D01*
X025459Y015561D01*
X0254D01*
Y0155D01*
X025565D01*
X025535Y015574D01*
X025474Y015635D01*
X025402Y015665D01*
D02*
G37*
G36*
X025298D02*
X025226Y015635D01*
X025165Y015574D01*
X025135Y0155D01*
X0253D01*
Y015561D01*
X025241D01*
X025253Y015572D01*
X025263Y015584D01*
X025271Y015596D01*
X025279Y015609D01*
X025285Y015622D01*
X025291Y015635D01*
X025295Y015648D01*
X025298Y015662D01*
X025298Y015665D01*
D02*
G37*
G36*
X001Y015565D02*
Y0154D01*
X001061D01*
Y015459D01*
X001072Y015447D01*
X001084Y015437D01*
X001096Y015429D01*
X001109Y015421D01*
X001122Y015415D01*
X001135Y015409D01*
X001148Y015405D01*
X001162Y015402D01*
X001165Y015402D01*
X001135Y015474D01*
X001074Y015535D01*
X001Y015565D01*
D02*
G37*
G36*
X0009D02*
X000826Y015535D01*
X000765Y015474D01*
X000735Y0154D01*
X0009D01*
Y015565D01*
D02*
G37*
G36*
X025565Y0154D02*
X0254D01*
Y015235D01*
X025474Y015265D01*
X025535Y015326D01*
X025565Y0154D01*
D02*
G37*
G36*
X0253D02*
X025135D01*
X025165Y015326D01*
X025226Y015265D01*
X0253Y015235D01*
Y0154D01*
D02*
G37*
G36*
X001061Y0153D02*
X001D01*
Y015135D01*
X001074Y015165D01*
X001135Y015226D01*
X001165Y015298D01*
X001162Y015298D01*
X001148Y015295D01*
X001135Y015291D01*
X001122Y015285D01*
X001109Y015279D01*
X001096Y015271D01*
X001084Y015263D01*
X001072Y015253D01*
X001061Y015242D01*
Y0153D01*
D02*
G37*
G36*
X0009D02*
X000735D01*
X000765Y015226D01*
X000826Y015165D01*
X0009Y015135D01*
Y0153D01*
D02*
G37*
G36*
X02265Y017885D02*
X02256Y017867D01*
X022484Y017816D01*
X022433Y01774D01*
X022415Y01765D01*
Y01685D01*
Y01525D01*
X022433Y01516D01*
X022484Y015084D01*
X02256Y015033D01*
X02265Y015015D01*
X02274Y015033D01*
X022816Y015084D01*
X022867Y01516D01*
X022885Y01525D01*
Y01685D01*
Y01765D01*
X022867Y01774D01*
X022816Y017816D01*
X02274Y017867D01*
X02265Y017885D01*
D02*
G37*
G36*
X0169Y014965D02*
Y0148D01*
X017065D01*
X017035Y014874D01*
X016974Y014935D01*
X0169Y014965D01*
D02*
G37*
G36*
X0168D02*
X016726Y014935D01*
X016665Y014874D01*
X016635Y0148D01*
X0168D01*
Y014965D01*
D02*
G37*
G36*
X0154D02*
Y0148D01*
X015565D01*
X015535Y014874D01*
X015474Y014935D01*
X0154Y014965D01*
D02*
G37*
G36*
X0153D02*
X015226Y014935D01*
X015165Y014874D01*
X015135Y0148D01*
X0153D01*
Y014965D01*
D02*
G37*
G36*
X0139D02*
Y0148D01*
X014065D01*
X014035Y014874D01*
X013974Y014935D01*
X0139Y014965D01*
D02*
G37*
G36*
X0138D02*
X013726Y014935D01*
X013665Y014874D01*
X013635Y0148D01*
X0138D01*
Y014965D01*
D02*
G37*
G36*
X00975Y014865D02*
Y0147D01*
X009811D01*
Y014758D01*
X009822Y014747D01*
X009834Y014737D01*
X009846Y014729D01*
X009859Y014721D01*
X009872Y014715D01*
X009885Y014709D01*
X009898Y014705D01*
X009912Y014702D01*
X009915Y014702D01*
X009885Y014774D01*
X009824Y014835D01*
X00975Y014865D01*
D02*
G37*
G36*
X012248Y014765D02*
X012176Y014735D01*
X012142Y014701D01*
X012224Y014701D01*
X012229Y014709D01*
X012235Y014722D01*
X012241Y014735D01*
X012245Y014748D01*
X012248Y014762D01*
X012248Y014765D01*
D02*
G37*
G36*
X00965Y014865D02*
X009576Y014835D01*
X009515Y014774D01*
X009485Y0147D01*
X00965D01*
Y014865D01*
D02*
G37*
G36*
X012352Y014765D02*
X012352Y014762D01*
X012355Y014748D01*
X012359Y014735D01*
X012365Y014722D01*
X012371Y014709D01*
X012379Y014696D01*
X012387Y014684D01*
X012397Y014672D01*
X012408Y014661D01*
X01235D01*
Y0146D01*
X012515D01*
X012485Y014674D01*
X012424Y014735D01*
X012352Y014765D01*
D02*
G37*
G36*
X01225Y014661D02*
X012237D01*
X012192Y0146D01*
X01225D01*
Y014661D01*
D02*
G37*
G36*
X026355Y014915D02*
X02635D01*
Y01455D01*
X026715D01*
Y014555D01*
X026687Y01466D01*
X026632Y014755D01*
X026555Y014832D01*
X02646Y014887D01*
X026355Y014915D01*
D02*
G37*
G36*
X02625D02*
X026245D01*
X02614Y014887D01*
X026045Y014832D01*
X025968Y014755D01*
X025913Y01466D01*
X025885Y014555D01*
Y01455D01*
X02625D01*
Y014915D01*
D02*
G37*
G36*
X017065Y0147D02*
X0169D01*
Y014535D01*
X016974Y014565D01*
X017035Y014626D01*
X017065Y0147D01*
D02*
G37*
G36*
X0168D02*
X016635D01*
X016665Y014626D01*
X016726Y014565D01*
X0168Y014535D01*
Y0147D01*
D02*
G37*
G36*
X015565D02*
X0154D01*
Y014535D01*
X015474Y014565D01*
X015535Y014626D01*
X015565Y0147D01*
D02*
G37*
G36*
X0153D02*
X015135D01*
X015165Y014626D01*
X015226Y014565D01*
X0153Y014535D01*
Y0147D01*
D02*
G37*
G36*
X014065D02*
X0139D01*
Y014535D01*
X013974Y014565D01*
X014035Y014626D01*
X014065Y0147D01*
D02*
G37*
G36*
X0138D02*
X013635D01*
X013665Y014626D01*
X013726Y014565D01*
X0138Y014535D01*
Y0147D01*
D02*
G37*
G36*
X009811Y0146D02*
X00975D01*
Y014435D01*
X009824Y014465D01*
X009885Y014526D01*
X009915Y014598D01*
X009912Y014598D01*
X009898Y014595D01*
X009885Y014591D01*
X009872Y014585D01*
X009859Y014579D01*
X009846Y014571D01*
X009834Y014563D01*
X009822Y014553D01*
X009811Y014541D01*
Y0146D01*
D02*
G37*
G36*
X00965D02*
X009485D01*
X009515Y014526D01*
X009576Y014465D01*
X00965Y014435D01*
Y0146D01*
D02*
G37*
G36*
X012515Y0145D02*
X01235D01*
Y014335D01*
X012424Y014365D01*
X012485Y014426D01*
X012515Y0145D01*
D02*
G37*
G36*
X01225D02*
X012085D01*
X012115Y014426D01*
X012176Y014365D01*
X01225Y014335D01*
Y0145D01*
D02*
G37*
G36*
X025352Y014895D02*
X025248D01*
X025148Y014868D01*
X025057Y014816D01*
X024984Y014743D01*
X024932Y014652D01*
X024905Y014552D01*
Y014448D01*
X024932Y014348D01*
X024984Y014257D01*
X025057Y014184D01*
X025148Y014132D01*
X025248Y014105D01*
X025352D01*
X025452Y014132D01*
X025543Y014184D01*
X025616Y014257D01*
X025668Y014348D01*
X025695Y014448D01*
Y014552D01*
X025668Y014652D01*
X025616Y014743D01*
X025543Y014816D01*
X025452Y014868D01*
X025352Y014895D01*
D02*
G37*
G36*
X024695D02*
X023905D01*
Y014105D01*
X024695D01*
Y014895D01*
D02*
G37*
G36*
X026715Y01445D02*
X02635D01*
Y014085D01*
X026355D01*
X02646Y014113D01*
X026555Y014168D01*
X026632Y014245D01*
X026687Y01434D01*
X026715Y014445D01*
Y01445D01*
D02*
G37*
G36*
X02625D02*
X025885D01*
Y014445D01*
X025913Y01434D01*
X025968Y014245D01*
X026045Y014168D01*
X02614Y014113D01*
X026245Y014085D01*
X02625D01*
Y01445D01*
D02*
G37*
G36*
X006615Y0137D02*
Y013535D01*
X006781D01*
X00675Y013608D01*
X006689Y01367D01*
X006615Y0137D01*
D02*
G37*
G36*
X006515D02*
X006442Y01367D01*
X00638Y013608D01*
X00635Y013535D01*
X006515D01*
Y0137D01*
D02*
G37*
G36*
X00415Y013465D02*
Y0133D01*
X004315D01*
X004285Y013374D01*
X004224Y013435D01*
X00415Y013465D01*
D02*
G37*
G36*
X00405D02*
X003976Y013435D01*
X003915Y013374D01*
X003885Y0133D01*
X00405D01*
Y013465D01*
D02*
G37*
G36*
X00115D02*
Y0133D01*
X001315D01*
X001285Y013374D01*
X001224Y013435D01*
X00115Y013465D01*
D02*
G37*
G36*
X00105D02*
X000976Y013435D01*
X000915Y013374D01*
X000885Y0133D01*
X00105D01*
Y013465D01*
D02*
G37*
G36*
X006781Y013435D02*
X006615D01*
Y013374D01*
X006674D01*
X006663Y013362D01*
X006653Y013351D01*
X006644Y013338D01*
X006636Y013326D01*
X00663Y013313D01*
X006625Y0133D01*
X006621Y013287D01*
X006618Y013273D01*
X006617Y01327D01*
X006689Y0133D01*
X00675Y013361D01*
X006781Y013435D01*
D02*
G37*
G36*
X006515D02*
X00635D01*
X00638Y013361D01*
X006442Y0133D01*
X006513Y01327D01*
X006513Y013273D01*
X00651Y013287D01*
X006506Y0133D01*
X006501Y013313D01*
X006494Y013326D01*
X006487Y013338D01*
X006478Y013351D01*
X006468Y013362D01*
X006457Y013374D01*
X006515D01*
Y013435D01*
D02*
G37*
G36*
X026355Y013579D02*
X02635D01*
Y013214D01*
X026715D01*
Y013218D01*
X026687Y013324D01*
X026632Y013418D01*
X026555Y013496D01*
X02646Y01355D01*
X026355Y013579D01*
D02*
G37*
G36*
X02625D02*
X026245D01*
X02614Y01355D01*
X026045Y013496D01*
X025968Y013418D01*
X025913Y013324D01*
X025885Y013218D01*
Y013214D01*
X02625D01*
Y013579D01*
D02*
G37*
G36*
X004315Y0132D02*
X00415D01*
Y013035D01*
X004224Y013065D01*
X004285Y013126D01*
X004315Y0132D01*
D02*
G37*
G36*
X00405D02*
X003885D01*
X003915Y013126D01*
X003976Y013065D01*
X00405Y013035D01*
Y0132D01*
D02*
G37*
G36*
X001315D02*
X00115D01*
Y013035D01*
X001224Y013065D01*
X001285Y013126D01*
X001315Y0132D01*
D02*
G37*
G36*
X00105D02*
X000885D01*
X000915Y013126D01*
X000976Y013065D01*
X00105Y013035D01*
Y0132D01*
D02*
G37*
G36*
X018389Y014808D02*
X018311D01*
X018238Y014778D01*
X018182Y014722D01*
X018152Y01465D01*
Y014571D01*
X018182Y014498D01*
X018238Y014442D01*
X018311Y014412D01*
X018389D01*
X018462Y014442D01*
X018498Y014478D01*
X018801D01*
X018811Y014428D01*
X018788Y014418D01*
X018732Y014362D01*
X018702Y014289D01*
Y014211D01*
X018732Y014138D01*
X018788Y014082D01*
X018861Y014052D01*
X018939D01*
X019012Y014082D01*
X019048Y014117D01*
X020249D01*
X02131Y013056D01*
X021353Y013028D01*
X021403Y013017D01*
X023905D01*
Y012769D01*
X024695D01*
Y013559D01*
X023905D01*
Y013283D01*
X021458D01*
X020397Y014344D01*
X020354Y014372D01*
X020303Y014383D01*
X019048D01*
X019012Y014418D01*
X018989Y014428D01*
X018999Y014478D01*
X021163D01*
X021885Y013756D01*
X021928Y013728D01*
X021978Y013717D01*
X025045D01*
X025167Y013595D01*
Y013537D01*
X025148Y013532D01*
X025057Y01348D01*
X024984Y013406D01*
X024932Y013316D01*
X024905Y013216D01*
Y013112D01*
X024932Y013011D01*
X024984Y012921D01*
X025057Y012848D01*
X025148Y012796D01*
X025248Y012769D01*
X025352D01*
X025452Y012796D01*
X025543Y012848D01*
X025616Y012921D01*
X025668Y013011D01*
X025695Y013112D01*
Y013216D01*
X025668Y013316D01*
X025616Y013406D01*
X025543Y01348D01*
X025452Y013532D01*
X025433Y013537D01*
Y01365D01*
X025422Y013701D01*
X025394Y013744D01*
X025194Y013944D01*
X025151Y013972D01*
X0251Y013983D01*
X022033D01*
X021312Y014704D01*
X021269Y014733D01*
X021218Y014743D01*
X018498D01*
X018462Y014778D01*
X018389Y014808D01*
D02*
G37*
G36*
X026715Y013114D02*
X02635D01*
Y012749D01*
X026355D01*
X02646Y012777D01*
X026555Y012832D01*
X026632Y012909D01*
X026687Y013004D01*
X026715Y013109D01*
Y013114D01*
D02*
G37*
G36*
X02625D02*
X025885D01*
Y013109D01*
X025913Y013004D01*
X025968Y012909D01*
X026045Y012832D01*
X02614Y012777D01*
X026245Y012749D01*
X02625D01*
Y013114D01*
D02*
G37*
G36*
X006617Y01248D02*
X006618Y012477D01*
X006621Y012463D01*
X006625Y01245D01*
X00663Y012437D01*
X006636Y012424D01*
X006644Y012412D01*
X006653Y012399D01*
X006663Y012388D01*
X006674Y012376D01*
X006615D01*
Y012315D01*
X006781D01*
X00675Y012389D01*
X006689Y01245D01*
X006617Y01248D01*
D02*
G37*
G36*
X006513D02*
X006442Y01245D01*
X00638Y012389D01*
X00635Y012315D01*
X006515D01*
Y012376D01*
X006457D01*
X006468Y012388D01*
X006478Y012399D01*
X006487Y012412D01*
X006494Y012424D01*
X006501Y012437D01*
X006506Y01245D01*
X00651Y012463D01*
X006513Y012477D01*
X006513Y01248D01*
D02*
G37*
G36*
X006672Y012215D02*
X006615D01*
Y012159D01*
X006672Y012215D01*
D02*
G37*
G36*
X006781D02*
X006725D01*
X006728Y012203D01*
X006732Y01219D01*
X006738Y012177D01*
X006744Y012164D01*
X006752Y012153D01*
X006754Y01215D01*
X006781Y012215D01*
D02*
G37*
G36*
X006615Y012106D02*
Y01205D01*
X00668Y012077D01*
X006678Y012079D01*
X006666Y012086D01*
X006654Y012093D01*
X006641Y012098D01*
X006627Y012103D01*
X006615Y012106D01*
D02*
G37*
G36*
X006515Y012215D02*
X00635D01*
X00638Y012142D01*
X006442Y01208D01*
X006515Y01205D01*
Y012215D01*
D02*
G37*
G36*
X004765Y012D02*
X0047Y011973D01*
X004703Y011971D01*
X004714Y011964D01*
X004727Y011957D01*
X00474Y011952D01*
X004753Y011947D01*
X004765Y011944D01*
Y012D01*
D02*
G37*
G36*
X004865D02*
Y011835D01*
X005031D01*
X005Y011908D01*
X004939Y01197D01*
X004865Y012D01*
D02*
G37*
G36*
X004765Y011891D02*
X004709Y011835D01*
X004765D01*
Y011891D01*
D02*
G37*
G36*
X004627Y0119D02*
X0046Y011835D01*
X004656D01*
X004653Y011847D01*
X004648Y01186D01*
X004643Y011873D01*
X004636Y011886D01*
X004629Y011897D01*
X004627Y0119D01*
D02*
G37*
G36*
X026355Y012065D02*
X02635D01*
Y0117D01*
X026715D01*
Y011705D01*
X026687Y01181D01*
X026632Y011905D01*
X026555Y011982D01*
X02646Y012037D01*
X026355Y012065D01*
D02*
G37*
G36*
X02625D02*
X026245D01*
X02614Y012037D01*
X026045Y011982D01*
X025968Y011905D01*
X025913Y01181D01*
X025885Y011705D01*
Y0117D01*
X02625D01*
Y012065D01*
D02*
G37*
G36*
X005031Y011735D02*
X004865D01*
Y011569D01*
X004939Y0116D01*
X005Y011661D01*
X005031Y011735D01*
D02*
G37*
G36*
X004765D02*
X0046D01*
X00463Y011661D01*
X004692Y0116D01*
X004765Y011569D01*
Y011735D01*
D02*
G37*
G36*
X010418Y011584D02*
Y011418D01*
X010584D01*
X010553Y011492D01*
X010492Y011553D01*
X010418Y011584D01*
D02*
G37*
G36*
X010318D02*
X010245Y011553D01*
X010184Y011492D01*
X010154Y01142D01*
X010157Y011421D01*
X01017Y011424D01*
X010184Y011428D01*
X010197Y011433D01*
X01021Y011439D01*
X010222Y011447D01*
X010234Y011456D01*
X010246Y011466D01*
X010258Y011477D01*
Y011418D01*
X010318D01*
Y011584D01*
D02*
G37*
G36*
Y011318D02*
X010258D01*
Y01126D01*
X010246Y011271D01*
X010234Y011281D01*
X010222Y01129D01*
X01021Y011297D01*
X010197Y011304D01*
X010184Y011309D01*
X01017Y011313D01*
X010157Y011316D01*
X010154Y011316D01*
X010184Y011245D01*
X010245Y011184D01*
X010318Y011153D01*
Y011318D01*
D02*
G37*
G36*
X018939Y013998D02*
X018861D01*
X018788Y013968D01*
X018732Y013912D01*
X018702Y013839D01*
Y013761D01*
X018732Y013688D01*
X018788Y013632D01*
X018861Y013602D01*
X018911D01*
X020206Y012306D01*
X020249Y012278D01*
X0203Y012267D01*
X024845D01*
X025066Y012046D01*
Y011971D01*
X025057Y011966D01*
X024984Y011893D01*
X024932Y011802D01*
X024905Y011702D01*
Y011598D01*
X024932Y011498D01*
X024984Y011407D01*
X025057Y011334D01*
X025148Y011282D01*
X025248Y011255D01*
X025352D01*
X025452Y011282D01*
X025543Y011334D01*
X025616Y011407D01*
X025668Y011498D01*
X025695Y011598D01*
Y011702D01*
X025668Y011802D01*
X025616Y011893D01*
X025543Y011966D01*
X025452Y012018D01*
X025352Y012045D01*
X025331D01*
Y012101D01*
X025321Y012152D01*
X025292Y012195D01*
X024994Y012494D01*
X024951Y012522D01*
X0249Y012533D01*
X020355D01*
X019098Y013789D01*
Y013839D01*
X019068Y013912D01*
X019012Y013968D01*
X018939Y013998D01*
D02*
G37*
G36*
X024695Y012045D02*
X023905D01*
Y011255D01*
X024695D01*
Y012045D01*
D02*
G37*
G36*
X026715Y0116D02*
X02635D01*
Y011235D01*
X026355D01*
X02646Y011263D01*
X026555Y011318D01*
X026632Y011395D01*
X026687Y01149D01*
X026715Y011595D01*
Y0116D01*
D02*
G37*
G36*
X02625D02*
X025885D01*
Y011595D01*
X025913Y01149D01*
X025968Y011395D01*
X026045Y011318D01*
X02614Y011263D01*
X026245Y011235D01*
X02625D01*
Y0116D01*
D02*
G37*
G36*
X014389Y019748D02*
X014311D01*
X014238Y019718D01*
X014182Y019662D01*
X014152Y019589D01*
Y019511D01*
X014182Y019438D01*
X014217Y019402D01*
Y013052D01*
X012765Y0116D01*
X012709D01*
X012636Y011569D01*
X012581Y011514D01*
X01255Y011441D01*
Y011362D01*
X012581Y011289D01*
X012636Y011234D01*
X012709Y011203D01*
X012788D01*
X012861Y011234D01*
X012916Y011289D01*
X012947Y011362D01*
Y011406D01*
X014444Y012903D01*
X014472Y012946D01*
X014483Y012997D01*
Y019402D01*
X014518Y019438D01*
X014548Y019511D01*
Y019589D01*
X014518Y019662D01*
X014462Y019718D01*
X014389Y019748D01*
D02*
G37*
G36*
X010584Y011318D02*
X010418D01*
Y011153D01*
X010492Y011184D01*
X010553Y011245D01*
X010584Y011318D01*
D02*
G37*
G36*
X018291Y011224D02*
Y011059D01*
X018355D01*
X018358Y011111D01*
X018369Y011099D01*
X01838Y011089D01*
X018391Y01108D01*
X018403Y011072D01*
X018416Y011065D01*
X018429Y01106D01*
X018431Y011059D01*
X018456D01*
X018426Y011132D01*
X018365Y011194D01*
X018291Y011224D01*
D02*
G37*
G36*
X018191D02*
X018118Y011194D01*
X018056Y011132D01*
X018026Y011059D01*
X018051D01*
X018054Y01106D01*
X018066Y011065D01*
X018079Y011072D01*
X018091Y01108D01*
X018102Y011089D01*
X018114Y011099D01*
X018124Y011111D01*
X018127Y011059D01*
X018191D01*
Y011224D01*
D02*
G37*
G36*
X01625Y011215D02*
Y01105D01*
X016311D01*
Y011108D01*
X016322Y011097D01*
X016334Y011087D01*
X016346Y011079D01*
X016359Y011071D01*
X016372Y011065D01*
X016385Y011059D01*
X016398Y011055D01*
X016412Y011052D01*
X016415Y011052D01*
X016385Y011124D01*
X016324Y011185D01*
X01625Y011215D01*
D02*
G37*
G36*
X01615D02*
X016076Y011185D01*
X016015Y011124D01*
X015985Y01105D01*
X01615D01*
Y011215D01*
D02*
G37*
G36*
X02515Y010465D02*
Y0103D01*
X025315D01*
X025285Y010374D01*
X025224Y010435D01*
X02515Y010465D01*
D02*
G37*
G36*
X02505D02*
X024976Y010435D01*
X024915Y010374D01*
X024885Y0103D01*
X02505D01*
Y010465D01*
D02*
G37*
G36*
X00265D02*
Y0103D01*
X002815D01*
X002785Y010374D01*
X002724Y010435D01*
X00265Y010465D01*
D02*
G37*
G36*
X00255D02*
X002476Y010435D01*
X002415Y010374D01*
X002385Y0103D01*
X00255D01*
Y010465D01*
D02*
G37*
G36*
X00115D02*
Y0103D01*
X001315D01*
X001285Y010374D01*
X001224Y010435D01*
X00115Y010465D01*
D02*
G37*
G36*
X00105D02*
X000976Y010435D01*
X000915Y010374D01*
X000885Y0103D01*
X00105D01*
Y010465D01*
D02*
G37*
G36*
X02455Y010415D02*
Y01025D01*
X024715D01*
X024685Y010324D01*
X024624Y010385D01*
X02455Y010415D01*
D02*
G37*
G36*
X02445D02*
X024376Y010385D01*
X024315Y010324D01*
X024285Y01025D01*
X02445D01*
Y010415D01*
D02*
G37*
G36*
X025315Y0102D02*
X02515D01*
Y010035D01*
X025224Y010065D01*
X025285Y010126D01*
X025315Y0102D01*
D02*
G37*
G36*
X02505D02*
X024885D01*
X024915Y010126D01*
X024976Y010065D01*
X02505Y010035D01*
Y0102D01*
D02*
G37*
G36*
X002815D02*
X00265D01*
Y010035D01*
X002724Y010065D01*
X002785Y010126D01*
X002815Y0102D01*
D02*
G37*
G36*
X00255D02*
X002385D01*
X002415Y010126D01*
X002476Y010065D01*
X00255Y010035D01*
Y0102D01*
D02*
G37*
G36*
X001315D02*
X00115D01*
Y010035D01*
X001224Y010065D01*
X001285Y010126D01*
X001315Y0102D01*
D02*
G37*
G36*
X00105D02*
X000885D01*
X000915Y010126D01*
X000976Y010065D01*
X00105Y010035D01*
Y0102D01*
D02*
G37*
G36*
X023615Y01015D02*
X02345D01*
Y010089D01*
X023509D01*
X023497Y010078D01*
X023487Y010066D01*
X023479Y010054D01*
X023471Y010041D01*
X023465Y010028D01*
X023459Y010015D01*
X023455Y010002D01*
X023452Y009988D01*
X023452Y009985D01*
X023524Y010015D01*
X023585Y010076D01*
X023615Y01015D01*
D02*
G37*
G36*
X02335D02*
X023185D01*
X023215Y010076D01*
X023276Y010015D01*
X023348Y009985D01*
X023348Y009988D01*
X023345Y010002D01*
X023341Y010015D01*
X023335Y010028D01*
X023329Y010041D01*
X023321Y010054D01*
X023313Y010066D01*
X023303Y010078D01*
X023291Y010089D01*
X02335D01*
Y01015D01*
D02*
G37*
G36*
X024715D02*
X02455D01*
Y009985D01*
X024624Y010015D01*
X024685Y010076D01*
X024715Y01015D01*
D02*
G37*
G36*
X02445D02*
X024285D01*
X024315Y010076D01*
X024376Y010015D01*
X02445Y009985D01*
Y01015D01*
D02*
G37*
G36*
X0169Y008965D02*
Y0088D01*
X017065D01*
X017035Y008874D01*
X016974Y008935D01*
X0169Y008965D01*
D02*
G37*
G36*
X0168D02*
X016726Y008935D01*
X016665Y008874D01*
X016635Y0088D01*
X0168D01*
Y008965D01*
D02*
G37*
G36*
X0109D02*
Y0088D01*
X011065D01*
X011035Y008874D01*
X010974Y008935D01*
X0109Y008965D01*
D02*
G37*
G36*
X0108D02*
X010726Y008935D01*
X010665Y008874D01*
X010635Y0088D01*
X0108D01*
Y008965D01*
D02*
G37*
G36*
X0094D02*
Y0088D01*
X009565D01*
X009535Y008874D01*
X009474Y008935D01*
X0094Y008965D01*
D02*
G37*
G36*
X0093D02*
X009226Y008935D01*
X009165Y008874D01*
X009135Y0088D01*
X0093D01*
Y008965D01*
D02*
G37*
G36*
X0034D02*
Y0088D01*
X003565D01*
X003535Y008874D01*
X003474Y008935D01*
X0034Y008965D01*
D02*
G37*
G36*
X0033D02*
X003226Y008935D01*
X003165Y008874D01*
X003135Y0088D01*
X0033D01*
Y008965D01*
D02*
G37*
G36*
X026585Y009485D02*
X025815D01*
Y008715D01*
X026585D01*
Y009485D01*
D02*
G37*
G36*
X017065Y0087D02*
X0169D01*
Y008535D01*
X016974Y008565D01*
X017035Y008626D01*
X017065Y0087D01*
D02*
G37*
G36*
X0168D02*
X016635D01*
X016665Y008626D01*
X016726Y008565D01*
X0168Y008535D01*
Y0087D01*
D02*
G37*
G36*
X011065D02*
X0109D01*
Y008535D01*
X010974Y008565D01*
X011035Y008626D01*
X011065Y0087D01*
D02*
G37*
G36*
X0108D02*
X010635D01*
X010665Y008626D01*
X010726Y008565D01*
X0108Y008535D01*
Y0087D01*
D02*
G37*
G36*
X009565D02*
X0094D01*
Y008535D01*
X009474Y008565D01*
X009535Y008626D01*
X009565Y0087D01*
D02*
G37*
G36*
X0093D02*
X009135D01*
X009165Y008626D01*
X009226Y008565D01*
X0093Y008535D01*
Y0087D01*
D02*
G37*
G36*
X003565D02*
X0034D01*
Y008535D01*
X003474Y008565D01*
X003535Y008626D01*
X003565Y0087D01*
D02*
G37*
G36*
X0033D02*
X003135D01*
X003165Y008626D01*
X003226Y008565D01*
X0033Y008535D01*
Y0087D01*
D02*
G37*
G36*
X001201Y009269D02*
X001099D01*
X001001Y009243D01*
X000914Y009192D01*
X000842Y00912D01*
X000791Y009033D01*
X000765Y008935D01*
Y008833D01*
X000791Y008735D01*
X000842Y008647D01*
X000914Y008576D01*
X001001Y008525D01*
X001099Y008499D01*
X001201D01*
X001299Y008525D01*
X001386Y008576D01*
X001458Y008647D01*
X001509Y008735D01*
X001535Y008833D01*
Y008935D01*
X001509Y009033D01*
X001458Y00912D01*
X001386Y009192D01*
X001299Y009243D01*
X001201Y009269D01*
D02*
G37*
G36*
X0184Y008265D02*
Y0081D01*
X018461D01*
Y008159D01*
X018472Y008147D01*
X018484Y008137D01*
X018496Y008129D01*
X018509Y008121D01*
X018522Y008115D01*
X018535Y008109D01*
X018548Y008105D01*
X018562Y008102D01*
X018565Y008102D01*
X018535Y008174D01*
X018474Y008235D01*
X0184Y008265D01*
D02*
G37*
G36*
X0183D02*
X018226Y008235D01*
X018165Y008174D01*
X018135Y0081D01*
X0183D01*
Y008265D01*
D02*
G37*
G36*
X018461Y008D02*
X0184D01*
Y007835D01*
X018474Y007865D01*
X018535Y007926D01*
X018565Y007998D01*
X018562Y007998D01*
X018548Y007995D01*
X018535Y007991D01*
X018522Y007985D01*
X018509Y007979D01*
X018496Y007971D01*
X018484Y007963D01*
X018472Y007953D01*
X018461Y007941D01*
Y008D01*
D02*
G37*
G36*
X0183D02*
X018135D01*
X018165Y007926D01*
X018226Y007865D01*
X0183Y007835D01*
Y008D01*
D02*
G37*
G36*
X026251Y008501D02*
X026149D01*
X026051Y008475D01*
X025964Y008424D01*
X025892Y008352D01*
X025841Y008264D01*
X025815Y008166D01*
Y008065D01*
X025841Y007967D01*
X025892Y007879D01*
X025964Y007808D01*
X026051Y007757D01*
X026149Y007731D01*
X026251D01*
X026349Y007757D01*
X026436Y007808D01*
X026508Y007879D01*
X026559Y007967D01*
X026585Y008065D01*
Y008166D01*
X026559Y008264D01*
X026508Y008352D01*
X026436Y008424D01*
X026349Y008475D01*
X026251Y008501D01*
D02*
G37*
G36*
X001535Y008285D02*
X000765D01*
Y007515D01*
X001535D01*
Y008285D01*
D02*
G37*
G36*
X02515Y007465D02*
Y0073D01*
X025315D01*
X025285Y007374D01*
X025224Y007435D01*
X02515Y007465D01*
D02*
G37*
G36*
X02505D02*
X024976Y007435D01*
X024915Y007374D01*
X024885Y0073D01*
X02505D01*
Y007465D01*
D02*
G37*
G36*
X02065D02*
Y0073D01*
X020815D01*
X020785Y007374D01*
X020724Y007435D01*
X02065Y007465D01*
D02*
G37*
G36*
X02055D02*
X020476Y007435D01*
X020415Y007374D01*
X020385Y0073D01*
X02055D01*
Y007465D01*
D02*
G37*
G36*
X01915D02*
Y0073D01*
X019315D01*
X019285Y007374D01*
X019224Y007435D01*
X01915Y007465D01*
D02*
G37*
G36*
X01905D02*
X018976Y007435D01*
X018915Y007374D01*
X018885Y0073D01*
X01905D01*
Y007465D01*
D02*
G37*
G36*
X01765D02*
Y0073D01*
X017815D01*
X017785Y007374D01*
X017724Y007435D01*
X01765Y007465D01*
D02*
G37*
G36*
X01755D02*
X017476Y007435D01*
X017415Y007374D01*
X017385Y0073D01*
X01755D01*
Y007465D01*
D02*
G37*
G36*
X01465D02*
Y0073D01*
X014815D01*
X014785Y007374D01*
X014724Y007435D01*
X01465Y007465D01*
D02*
G37*
G36*
X01455D02*
X014476Y007435D01*
X014415Y007374D01*
X014385Y0073D01*
X01455D01*
Y007465D01*
D02*
G37*
G36*
X01315D02*
Y0073D01*
X013315D01*
X013285Y007374D01*
X013224Y007435D01*
X01315Y007465D01*
D02*
G37*
G36*
X01305D02*
X012976Y007435D01*
X012915Y007374D01*
X012885Y0073D01*
X01305D01*
Y007465D01*
D02*
G37*
G36*
X01165D02*
Y0073D01*
X011815D01*
X011785Y007374D01*
X011724Y007435D01*
X01165Y007465D01*
D02*
G37*
G36*
X01155D02*
X011476Y007435D01*
X011415Y007374D01*
X011385Y0073D01*
X01155D01*
Y007465D01*
D02*
G37*
G36*
X01015D02*
Y0073D01*
X010315D01*
X010285Y007374D01*
X010224Y007435D01*
X01015Y007465D01*
D02*
G37*
G36*
X01005D02*
X009976Y007435D01*
X009915Y007374D01*
X009885Y0073D01*
X01005D01*
Y007465D01*
D02*
G37*
G36*
X00865D02*
Y0073D01*
X008815D01*
X008785Y007374D01*
X008724Y007435D01*
X00865Y007465D01*
D02*
G37*
G36*
X00855D02*
X008476Y007435D01*
X008415Y007374D01*
X008385Y0073D01*
X00855D01*
Y007465D01*
D02*
G37*
G36*
X00715D02*
Y0073D01*
X007315D01*
X007285Y007374D01*
X007224Y007435D01*
X00715Y007465D01*
D02*
G37*
G36*
X00705D02*
X006976Y007435D01*
X006915Y007374D01*
X006885Y0073D01*
X00705D01*
Y007465D01*
D02*
G37*
G36*
X00565D02*
Y0073D01*
X005815D01*
X005785Y007374D01*
X005724Y007435D01*
X00565Y007465D01*
D02*
G37*
G36*
X00555D02*
X005476Y007435D01*
X005415Y007374D01*
X005385Y0073D01*
X00555D01*
Y007465D01*
D02*
G37*
G36*
X00265D02*
Y0073D01*
X002815D01*
X002785Y007374D01*
X002724Y007435D01*
X00265Y007465D01*
D02*
G37*
G36*
X00255D02*
X002476Y007435D01*
X002415Y007374D01*
X002385Y0073D01*
X00255D01*
Y007465D01*
D02*
G37*
G36*
X025315Y0072D02*
X02515D01*
Y007035D01*
X025224Y007065D01*
X025285Y007126D01*
X025315Y0072D01*
D02*
G37*
G36*
X02505D02*
X024885D01*
X024915Y007126D01*
X024976Y007065D01*
X02505Y007035D01*
Y0072D01*
D02*
G37*
G36*
X020815D02*
X02065D01*
Y007035D01*
X020724Y007065D01*
X020785Y007126D01*
X020815Y0072D01*
D02*
G37*
G36*
X02055D02*
X020385D01*
X020415Y007126D01*
X020476Y007065D01*
X02055Y007035D01*
Y0072D01*
D02*
G37*
G36*
X019315D02*
X01915D01*
Y007035D01*
X019224Y007065D01*
X019285Y007126D01*
X019315Y0072D01*
D02*
G37*
G36*
X01905D02*
X018885D01*
X018915Y007126D01*
X018976Y007065D01*
X01905Y007035D01*
Y0072D01*
D02*
G37*
G36*
X017815D02*
X01765D01*
Y007035D01*
X017724Y007065D01*
X017785Y007126D01*
X017815Y0072D01*
D02*
G37*
G36*
X01755D02*
X017385D01*
X017415Y007126D01*
X017476Y007065D01*
X01755Y007035D01*
Y0072D01*
D02*
G37*
G36*
X014815D02*
X01465D01*
Y007035D01*
X014724Y007065D01*
X014785Y007126D01*
X014815Y0072D01*
D02*
G37*
G36*
X01455D02*
X014385D01*
X014415Y007126D01*
X014476Y007065D01*
X01455Y007035D01*
Y0072D01*
D02*
G37*
G36*
X013315D02*
X01315D01*
Y007035D01*
X013224Y007065D01*
X013285Y007126D01*
X013315Y0072D01*
D02*
G37*
G36*
X01305D02*
X012885D01*
X012915Y007126D01*
X012976Y007065D01*
X01305Y007035D01*
Y0072D01*
D02*
G37*
G36*
X011815D02*
X01165D01*
Y007035D01*
X011724Y007065D01*
X011785Y007126D01*
X011815Y0072D01*
D02*
G37*
G36*
X01155D02*
X011385D01*
X011415Y007126D01*
X011476Y007065D01*
X01155Y007035D01*
Y0072D01*
D02*
G37*
G36*
X010315D02*
X01015D01*
Y007035D01*
X010224Y007065D01*
X010285Y007126D01*
X010315Y0072D01*
D02*
G37*
G36*
X01005D02*
X009885D01*
X009915Y007126D01*
X009976Y007065D01*
X01005Y007035D01*
Y0072D01*
D02*
G37*
G36*
X008815D02*
X00865D01*
Y007035D01*
X008724Y007065D01*
X008785Y007126D01*
X008815Y0072D01*
D02*
G37*
G36*
X00855D02*
X008385D01*
X008415Y007126D01*
X008476Y007065D01*
X00855Y007035D01*
Y0072D01*
D02*
G37*
G36*
X007315D02*
X00715D01*
Y007035D01*
X007224Y007065D01*
X007285Y007126D01*
X007315Y0072D01*
D02*
G37*
G36*
X00705D02*
X006885D01*
X006915Y007126D01*
X006976Y007065D01*
X00705Y007035D01*
Y0072D01*
D02*
G37*
G36*
X005815D02*
X00565D01*
Y007035D01*
X005724Y007065D01*
X005785Y007126D01*
X005815Y0072D01*
D02*
G37*
G36*
X00555D02*
X005385D01*
X005415Y007126D01*
X005476Y007065D01*
X00555Y007035D01*
Y0072D01*
D02*
G37*
G36*
X002815D02*
X00265D01*
Y007035D01*
X002724Y007065D01*
X002785Y007126D01*
X002815Y0072D01*
D02*
G37*
G36*
X00255D02*
X002385D01*
X002415Y007126D01*
X002476Y007065D01*
X00255Y007035D01*
Y0072D01*
D02*
G37*
G36*
X0223Y006665D02*
X022235Y006638D01*
X022237Y006637D01*
X022249Y006629D01*
X022261Y006623D01*
X022274Y006617D01*
X022288Y006613D01*
X0223Y00661D01*
Y006665D01*
D02*
G37*
G36*
X0224D02*
Y0065D01*
X022565D01*
X022535Y006574D01*
X022474Y006635D01*
X0224Y006665D01*
D02*
G37*
G36*
X0223Y006557D02*
X022243Y0065D01*
X0223D01*
Y006557D01*
D02*
G37*
G36*
X022162Y006565D02*
X022135Y0065D01*
X02219D01*
X022187Y006512D01*
X022183Y006526D01*
X022177Y006539D01*
X022171Y006551D01*
X022163Y006563D01*
X022162Y006565D01*
D02*
G37*
G36*
X022565Y0064D02*
X0224D01*
Y006235D01*
X022474Y006265D01*
X022535Y006326D01*
X022565Y0064D01*
D02*
G37*
G36*
X0223D02*
X022135D01*
X022165Y006326D01*
X022226Y006265D01*
X0223Y006235D01*
Y0064D01*
D02*
G37*
G36*
X0244Y005965D02*
Y0058D01*
X024565D01*
X024535Y005874D01*
X024474Y005935D01*
X0244Y005965D01*
D02*
G37*
G36*
X0243D02*
X024226Y005935D01*
X024165Y005874D01*
X024135Y0058D01*
X0243D01*
Y005965D01*
D02*
G37*
G36*
X0169D02*
Y0058D01*
X017065D01*
X017035Y005874D01*
X016974Y005935D01*
X0169Y005965D01*
D02*
G37*
G36*
X0168D02*
X016726Y005935D01*
X016665Y005874D01*
X016635Y0058D01*
X0168D01*
Y005965D01*
D02*
G37*
G36*
X0109D02*
Y0058D01*
X011065D01*
X011035Y005874D01*
X010974Y005935D01*
X0109Y005965D01*
D02*
G37*
G36*
X0108D02*
X010726Y005935D01*
X010665Y005874D01*
X010635Y0058D01*
X0108D01*
Y005965D01*
D02*
G37*
G36*
X0094D02*
Y0058D01*
X009565D01*
X009535Y005874D01*
X009474Y005935D01*
X0094Y005965D01*
D02*
G37*
G36*
X0093D02*
X009226Y005935D01*
X009165Y005874D01*
X009135Y0058D01*
X0093D01*
Y005965D01*
D02*
G37*
G36*
X0034D02*
Y0058D01*
X003565D01*
X003535Y005874D01*
X003474Y005935D01*
X0034Y005965D01*
D02*
G37*
G36*
X0033D02*
X003226Y005935D01*
X003165Y005874D01*
X003135Y0058D01*
X0033D01*
Y005965D01*
D02*
G37*
G36*
X024565Y0057D02*
X0244D01*
Y005535D01*
X024474Y005565D01*
X024535Y005626D01*
X024565Y0057D01*
D02*
G37*
G36*
X0243D02*
X024135D01*
X024165Y005626D01*
X024226Y005565D01*
X0243Y005535D01*
Y0057D01*
D02*
G37*
G36*
X017065D02*
X0169D01*
Y005535D01*
X016974Y005565D01*
X017035Y005626D01*
X017065Y0057D01*
D02*
G37*
G36*
X0168D02*
X016635D01*
X016665Y005626D01*
X016726Y005565D01*
X0168Y005535D01*
Y0057D01*
D02*
G37*
G36*
X011065D02*
X0109D01*
Y005535D01*
X010974Y005565D01*
X011035Y005626D01*
X011065Y0057D01*
D02*
G37*
G36*
X0108D02*
X010635D01*
X010665Y005626D01*
X010726Y005565D01*
X0108Y005535D01*
Y0057D01*
D02*
G37*
G36*
X009565D02*
X0094D01*
Y005535D01*
X009474Y005565D01*
X009535Y005626D01*
X009565Y0057D01*
D02*
G37*
G36*
X0093D02*
X009135D01*
X009165Y005626D01*
X009226Y005565D01*
X0093Y005535D01*
Y0057D01*
D02*
G37*
G36*
X003565D02*
X0034D01*
Y005535D01*
X003474Y005565D01*
X003535Y005626D01*
X003565Y0057D01*
D02*
G37*
G36*
X0033D02*
X003135D01*
X003165Y005626D01*
X003226Y005565D01*
X0033Y005535D01*
Y0057D01*
D02*
G37*
G36*
X026585Y006019D02*
X025815D01*
Y005249D01*
X026585D01*
Y006019D01*
D02*
G37*
G36*
X001201Y005685D02*
X001099D01*
X001001Y005659D01*
X000914Y005608D01*
X000842Y005536D01*
X000791Y005449D01*
X000765Y005351D01*
Y005249D01*
X000791Y005151D01*
X000842Y005064D01*
X000914Y004992D01*
X001001Y004941D01*
X001099Y004915D01*
X001201D01*
X001299Y004941D01*
X001386Y004992D01*
X001458Y005064D01*
X001509Y005151D01*
X001535Y005249D01*
Y005351D01*
X001509Y005449D01*
X001458Y005536D01*
X001386Y005608D01*
X001299Y005659D01*
X001201Y005685D01*
D02*
G37*
G36*
X0214Y004415D02*
Y00436D01*
X021412Y004363D01*
X021426Y004367D01*
X021439Y004373D01*
X021451Y004379D01*
X021463Y004387D01*
X021465Y004388D01*
X0214Y004415D01*
D02*
G37*
G36*
X01015Y004465D02*
Y0043D01*
X010315D01*
X010285Y004374D01*
X010224Y004435D01*
X01015Y004465D01*
D02*
G37*
G36*
X01005D02*
X009976Y004435D01*
X009915Y004374D01*
X009885Y0043D01*
X01005D01*
Y004465D01*
D02*
G37*
G36*
X00865D02*
Y0043D01*
X008815D01*
X008785Y004374D01*
X008724Y004435D01*
X00865Y004465D01*
D02*
G37*
G36*
X00855D02*
X008476Y004435D01*
X008415Y004374D01*
X008385Y0043D01*
X00855D01*
Y004465D01*
D02*
G37*
G36*
X026251Y005035D02*
X026149D01*
X026051Y005009D01*
X025964Y004958D01*
X025892Y004886D01*
X025841Y004799D01*
X025815Y004701D01*
Y004599D01*
X025841Y004501D01*
X025892Y004414D01*
X025964Y004342D01*
X026051Y004291D01*
X026149Y004265D01*
X026251D01*
X026349Y004291D01*
X026436Y004342D01*
X026508Y004414D01*
X026559Y004501D01*
X026585Y004599D01*
Y004701D01*
X026559Y004799D01*
X026508Y004886D01*
X026436Y004958D01*
X026349Y005009D01*
X026251Y005035D01*
D02*
G37*
G36*
X021538Y004315D02*
X021537Y004313D01*
X021529Y004301D01*
X021523Y004289D01*
X021517Y004276D01*
X021513Y004262D01*
X02151Y00425D01*
X021565D01*
X021538Y004315D01*
D02*
G37*
G36*
X0214Y004307D02*
Y00425D01*
X021457D01*
X0214Y004307D01*
D02*
G37*
G36*
X0213Y004415D02*
X021226Y004385D01*
X021165Y004324D01*
X021135Y00425D01*
X021185D01*
X021194Y004256D01*
X021204Y004266D01*
X021214Y004277D01*
X021223Y004289D01*
X02123Y00425D01*
X0213D01*
Y004415D01*
D02*
G37*
G36*
X01735Y004365D02*
Y0042D01*
X017404D01*
X017392Y004275D01*
X017405Y004265D01*
X017433Y004249D01*
X017446Y004243D01*
X01746Y004237D01*
X017474Y004233D01*
X017487Y004229D01*
X017501Y004227D01*
X017504Y004227D01*
X017485Y004274D01*
X017424Y004335D01*
X01735Y004365D01*
D02*
G37*
G36*
X01725D02*
X017176Y004335D01*
X017115Y004274D01*
X017085Y0042D01*
X01725D01*
Y004365D01*
D02*
G37*
G36*
X0213Y00415D02*
X021246D01*
X021258Y004075D01*
X021245Y004085D01*
X021217Y004101D01*
X021204Y004107D01*
X02119Y004113D01*
X021176Y004117D01*
X021163Y004121D01*
X021149Y004123D01*
X021146Y004123D01*
X021165Y004076D01*
X021226Y004015D01*
X0213Y003985D01*
Y00415D01*
D02*
G37*
G36*
X017515Y0041D02*
X017465D01*
X017456Y004094D01*
X017446Y004084D01*
X017436Y004073D01*
X017427Y004061D01*
X01742Y0041D01*
X01735D01*
Y003935D01*
X017424Y003965D01*
X017485Y004026D01*
X017515Y0041D01*
D02*
G37*
G36*
X010315Y0042D02*
X01015D01*
Y004035D01*
X010224Y004065D01*
X010285Y004126D01*
X010315Y0042D01*
D02*
G37*
G36*
X01005D02*
X009885D01*
X009915Y004126D01*
X009976Y004065D01*
X01005Y004035D01*
Y0042D01*
D02*
G37*
G36*
X008815D02*
X00865D01*
Y004035D01*
X008724Y004065D01*
X008785Y004126D01*
X008815Y0042D01*
D02*
G37*
G36*
X00855D02*
X008385D01*
X008415Y004126D01*
X008476Y004065D01*
X00855Y004035D01*
Y0042D01*
D02*
G37*
G36*
X021565Y00415D02*
X0214D01*
Y003985D01*
X021474Y004015D01*
X021535Y004076D01*
X021565Y00415D01*
D02*
G37*
G36*
X01725Y0041D02*
X017085D01*
X017115Y004026D01*
X017176Y003965D01*
X01725Y003935D01*
Y0041D01*
D02*
G37*
G36*
X001535Y004701D02*
X000765D01*
Y003931D01*
X001535D01*
Y004701D01*
D02*
G37*
G36*
X0259Y002965D02*
Y0028D01*
X026065D01*
X026035Y002874D01*
X025974Y002935D01*
X0259Y002965D01*
D02*
G37*
G36*
X0258D02*
X025726Y002935D01*
X025665Y002874D01*
X025635Y0028D01*
X0258D01*
Y002965D01*
D02*
G37*
G36*
X0109D02*
Y0028D01*
X011065D01*
X011035Y002874D01*
X010974Y002935D01*
X0109Y002965D01*
D02*
G37*
G36*
X0108D02*
X010726Y002935D01*
X010665Y002874D01*
X010635Y0028D01*
X0108D01*
Y002965D01*
D02*
G37*
G36*
X0094D02*
Y0028D01*
X009565D01*
X009535Y002874D01*
X009474Y002935D01*
X0094Y002965D01*
D02*
G37*
G36*
X0093D02*
X009226Y002935D01*
X009165Y002874D01*
X009135Y0028D01*
X0093D01*
Y002965D01*
D02*
G37*
G36*
X0064D02*
Y0028D01*
X006565D01*
X006535Y002874D01*
X006474Y002935D01*
X0064Y002965D01*
D02*
G37*
G36*
X0063D02*
X006226Y002935D01*
X006165Y002874D01*
X006135Y0028D01*
X0063D01*
Y002965D01*
D02*
G37*
G36*
X0034D02*
Y0028D01*
X003565D01*
X003535Y002874D01*
X003474Y002935D01*
X0034Y002965D01*
D02*
G37*
G36*
X0033D02*
X003226Y002935D01*
X003165Y002874D01*
X003135Y0028D01*
X0033D01*
Y002965D01*
D02*
G37*
G36*
X0019D02*
Y0028D01*
X002065D01*
X002035Y002874D01*
X001974Y002935D01*
X0019Y002965D01*
D02*
G37*
G36*
X0018D02*
X001726Y002935D01*
X001665Y002874D01*
X001635Y0028D01*
X0018D01*
Y002965D01*
D02*
G37*
G36*
X026065Y0027D02*
X0259D01*
Y002535D01*
X025974Y002565D01*
X026035Y002626D01*
X026065Y0027D01*
D02*
G37*
G36*
X0258D02*
X025635D01*
X025665Y002626D01*
X025726Y002565D01*
X0258Y002535D01*
Y0027D01*
D02*
G37*
G36*
X011065D02*
X0109D01*
Y002535D01*
X010974Y002565D01*
X011035Y002626D01*
X011065Y0027D01*
D02*
G37*
G36*
X0108D02*
X010635D01*
X010665Y002626D01*
X010726Y002565D01*
X0108Y002535D01*
Y0027D01*
D02*
G37*
G36*
X009565D02*
X0094D01*
Y002535D01*
X009474Y002565D01*
X009535Y002626D01*
X009565Y0027D01*
D02*
G37*
G36*
X0093D02*
X009135D01*
X009165Y002626D01*
X009226Y002565D01*
X0093Y002535D01*
Y0027D01*
D02*
G37*
G36*
X006565D02*
X0064D01*
Y002535D01*
X006474Y002565D01*
X006535Y002626D01*
X006565Y0027D01*
D02*
G37*
G36*
X0063D02*
X006135D01*
X006165Y002626D01*
X006226Y002565D01*
X0063Y002535D01*
Y0027D01*
D02*
G37*
G36*
X003565D02*
X0034D01*
Y002535D01*
X003474Y002565D01*
X003535Y002626D01*
X003565Y0027D01*
D02*
G37*
G36*
X0033D02*
X003135D01*
X003165Y002626D01*
X003226Y002565D01*
X0033Y002535D01*
Y0027D01*
D02*
G37*
G36*
X002065D02*
X0019D01*
Y002535D01*
X001974Y002565D01*
X002035Y002626D01*
X002065Y0027D01*
D02*
G37*
G36*
X0018D02*
X001635D01*
X001665Y002626D01*
X001726Y002565D01*
X0018Y002535D01*
Y0027D01*
D02*
G37*
G36*
X008626Y002235D02*
X007856D01*
Y001465D01*
X008626D01*
Y002235D01*
D02*
G37*
G36*
X007307D02*
X007206D01*
X007108Y002209D01*
X00702Y002158D01*
X006948Y002086D01*
X006898Y001999D01*
X006871Y001901D01*
Y001799D01*
X006898Y001701D01*
X006948Y001614D01*
X00702Y001542D01*
X007108Y001491D01*
X007206Y001465D01*
X007307D01*
X007405Y001491D01*
X007493Y001542D01*
X007565Y001614D01*
X007615Y001701D01*
X007642Y001799D01*
Y001901D01*
X007615Y001999D01*
X007565Y002086D01*
X007493Y002158D01*
X007405Y002209D01*
X007307Y002235D01*
D02*
G37*
G36*
X005169D02*
X004399D01*
Y001465D01*
X005169D01*
Y002235D01*
D02*
G37*
G36*
X003851D02*
X003749D01*
X003651Y002209D01*
X003564Y002158D01*
X003492Y002086D01*
X003441Y001999D01*
X003415Y001901D01*
Y001799D01*
X003441Y001701D01*
X003492Y001614D01*
X003564Y001542D01*
X003651Y001491D01*
X003749Y001465D01*
X003851D01*
X003949Y001491D01*
X004036Y001542D01*
X004108Y001614D01*
X004159Y001701D01*
X004185Y001799D01*
Y001901D01*
X004159Y001999D01*
X004108Y002086D01*
X004036Y002158D01*
X003949Y002209D01*
X003851Y002235D01*
D02*
G37*
G36*
X02515Y001465D02*
Y0013D01*
X025315D01*
X025285Y001374D01*
X025224Y001435D01*
X02515Y001465D01*
D02*
G37*
G36*
X02505D02*
X024976Y001435D01*
X024915Y001374D01*
X024885Y0013D01*
X02505D01*
Y001465D01*
D02*
G37*
G36*
X02215D02*
Y0013D01*
X022315D01*
X022285Y001374D01*
X022224Y001435D01*
X02215Y001465D01*
D02*
G37*
G36*
X02205D02*
X021976Y001435D01*
X021915Y001374D01*
X021885Y0013D01*
X02205D01*
Y001465D01*
D02*
G37*
G36*
X01915D02*
Y0013D01*
X019315D01*
X019285Y001374D01*
X019224Y001435D01*
X01915Y001465D01*
D02*
G37*
G36*
X01905D02*
X018976Y001435D01*
X018915Y001374D01*
X018885Y0013D01*
X01905D01*
Y001465D01*
D02*
G37*
G36*
X01015D02*
Y0013D01*
X010315D01*
X010285Y001374D01*
X010224Y001435D01*
X01015Y001465D01*
D02*
G37*
G36*
X01005D02*
X009976Y001435D01*
X009915Y001374D01*
X009885Y0013D01*
X01005D01*
Y001465D01*
D02*
G37*
G36*
X00565D02*
Y0013D01*
X005815D01*
X005785Y001374D01*
X005724Y001435D01*
X00565Y001465D01*
D02*
G37*
G36*
X00555D02*
X005476Y001435D01*
X005415Y001374D01*
X005385Y0013D01*
X00555D01*
Y001465D01*
D02*
G37*
G36*
X00415D02*
Y0013D01*
X004315D01*
X004285Y001374D01*
X004224Y001435D01*
X00415Y001465D01*
D02*
G37*
G36*
X00405D02*
X003976Y001435D01*
X003915Y001374D01*
X003885Y0013D01*
X00405D01*
Y001465D01*
D02*
G37*
G36*
X00265D02*
Y0013D01*
X002815D01*
X002785Y001374D01*
X002724Y001435D01*
X00265Y001465D01*
D02*
G37*
G36*
X00255D02*
X002476Y001435D01*
X002415Y001374D01*
X002385Y0013D01*
X00255D01*
Y001465D01*
D02*
G37*
G36*
X024665Y001935D02*
X023895D01*
Y001165D01*
X024665D01*
Y001935D01*
D02*
G37*
G36*
X023347D02*
X023245D01*
X023147Y001909D01*
X02306Y001858D01*
X022988Y001786D01*
X022937Y001699D01*
X022911Y001601D01*
Y001499D01*
X022937Y001401D01*
X022988Y001314D01*
X02306Y001242D01*
X023147Y001191D01*
X023245Y001165D01*
X023347D01*
X023445Y001191D01*
X023533Y001242D01*
X023604Y001314D01*
X023655Y001401D01*
X023681Y001499D01*
Y001601D01*
X023655Y001699D01*
X023604Y001786D01*
X023533Y001858D01*
X023445Y001909D01*
X023347Y001935D01*
D02*
G37*
G36*
X021209D02*
X020439D01*
Y001165D01*
X021209D01*
Y001935D01*
D02*
G37*
G36*
X01989D02*
X019789D01*
X019691Y001909D01*
X019603Y001858D01*
X019532Y001786D01*
X019481Y001699D01*
X019455Y001601D01*
Y001499D01*
X019481Y001401D01*
X019532Y001314D01*
X019603Y001242D01*
X019691Y001191D01*
X019789Y001165D01*
X01989D01*
X019988Y001191D01*
X020076Y001242D01*
X020148Y001314D01*
X020199Y001401D01*
X020225Y001499D01*
Y001601D01*
X020199Y001699D01*
X020148Y001786D01*
X020076Y001858D01*
X019988Y001909D01*
X01989Y001935D01*
D02*
G37*
G36*
X025315Y0012D02*
X02515D01*
Y001035D01*
X025224Y001065D01*
X025285Y001126D01*
X025315Y0012D01*
D02*
G37*
G36*
X02505D02*
X024885D01*
X024915Y001126D01*
X024976Y001065D01*
X02505Y001035D01*
Y0012D01*
D02*
G37*
G36*
X022315D02*
X02215D01*
Y001035D01*
X022224Y001065D01*
X022285Y001126D01*
X022315Y0012D01*
D02*
G37*
G36*
X02205D02*
X021885D01*
X021915Y001126D01*
X021976Y001065D01*
X02205Y001035D01*
Y0012D01*
D02*
G37*
G36*
X019315D02*
X01915D01*
Y001035D01*
X019224Y001065D01*
X019285Y001126D01*
X019315Y0012D01*
D02*
G37*
G36*
X01905D02*
X018885D01*
X018915Y001126D01*
X018976Y001065D01*
X01905Y001035D01*
Y0012D01*
D02*
G37*
G36*
X010315D02*
X01015D01*
Y001035D01*
X010224Y001065D01*
X010285Y001126D01*
X010315Y0012D01*
D02*
G37*
G36*
X01005D02*
X009885D01*
X009915Y001126D01*
X009976Y001065D01*
X01005Y001035D01*
Y0012D01*
D02*
G37*
G36*
X005815D02*
X00565D01*
Y001035D01*
X005724Y001065D01*
X005785Y001126D01*
X005815Y0012D01*
D02*
G37*
G36*
X00555D02*
X005385D01*
X005415Y001126D01*
X005476Y001065D01*
X00555Y001035D01*
Y0012D01*
D02*
G37*
G36*
X004315D02*
X00415D01*
Y001035D01*
X004224Y001065D01*
X004285Y001126D01*
X004315Y0012D01*
D02*
G37*
G36*
X00405D02*
X003885D01*
X003915Y001126D01*
X003976Y001065D01*
X00405Y001035D01*
Y0012D01*
D02*
G37*
G36*
X002815D02*
X00265D01*
Y001035D01*
X002724Y001065D01*
X002785Y001126D01*
X002815Y0012D01*
D02*
G37*
G36*
X00255D02*
X002385D01*
X002415Y001126D01*
X002476Y001065D01*
X00255Y001035D01*
Y0012D01*
D02*
G37*
G36*
X01801Y001629D02*
X01791D01*
X017814Y001603D01*
X017727Y001553D01*
X017657Y001483D01*
X017607Y001396D01*
X017581Y0013D01*
Y0012D01*
X017607Y001104D01*
X017657Y001017D01*
X017727Y000947D01*
X017814Y000897D01*
X01791Y000871D01*
X01801D01*
X018106Y000897D01*
X018193Y000947D01*
X018263Y001017D01*
X018313Y001104D01*
X018339Y0012D01*
Y0013D01*
X018313Y001396D01*
X018263Y001483D01*
X018193Y001553D01*
X018106Y001603D01*
X01801Y001629D01*
D02*
G37*
G36*
X01701D02*
X01691D01*
X016814Y001603D01*
X016727Y001553D01*
X016657Y001483D01*
X016607Y001396D01*
X016581Y0013D01*
Y0012D01*
X016607Y001104D01*
X016657Y001017D01*
X016727Y000947D01*
X016814Y000897D01*
X01691Y000871D01*
X01701D01*
X017106Y000897D01*
X017193Y000947D01*
X017263Y001017D01*
X017313Y001104D01*
X017339Y0012D01*
Y0013D01*
X017313Y001396D01*
X017263Y001483D01*
X017193Y001553D01*
X017106Y001603D01*
X01701Y001629D01*
D02*
G37*
G36*
X01601D02*
X01591D01*
X015814Y001603D01*
X015727Y001553D01*
X015657Y001483D01*
X015607Y001396D01*
X015581Y0013D01*
Y0012D01*
X015607Y001104D01*
X015657Y001017D01*
X015727Y000947D01*
X015814Y000897D01*
X01591Y000871D01*
X01601D01*
X016106Y000897D01*
X016193Y000947D01*
X016263Y001017D01*
X016313Y001104D01*
X016339Y0012D01*
Y0013D01*
X016313Y001396D01*
X016263Y001483D01*
X016193Y001553D01*
X016106Y001603D01*
X01601Y001629D01*
D02*
G37*
G36*
X01501D02*
X01491D01*
X014814Y001603D01*
X014727Y001553D01*
X014657Y001483D01*
X014607Y001396D01*
X014581Y0013D01*
Y0012D01*
X014607Y001104D01*
X014657Y001017D01*
X014727Y000947D01*
X014814Y000897D01*
X01491Y000871D01*
X01501D01*
X015106Y000897D01*
X015193Y000947D01*
X015263Y001017D01*
X015313Y001104D01*
X015339Y0012D01*
Y0013D01*
X015313Y001396D01*
X015263Y001483D01*
X015193Y001553D01*
X015106Y001603D01*
X01501Y001629D01*
D02*
G37*
G36*
X01401D02*
X01391D01*
X013814Y001603D01*
X013727Y001553D01*
X013657Y001483D01*
X013607Y001396D01*
X013581Y0013D01*
Y0012D01*
X013607Y001104D01*
X013657Y001017D01*
X013727Y000947D01*
X013814Y000897D01*
X01391Y000871D01*
X01401D01*
X014106Y000897D01*
X014193Y000947D01*
X014263Y001017D01*
X014313Y001104D01*
X014339Y0012D01*
Y0013D01*
X014313Y001396D01*
X014263Y001483D01*
X014193Y001553D01*
X014106Y001603D01*
X01401Y001629D01*
D02*
G37*
G36*
X01301D02*
X01291D01*
X012814Y001603D01*
X012727Y001553D01*
X012657Y001483D01*
X012607Y001396D01*
X012581Y0013D01*
Y0012D01*
X012607Y001104D01*
X012657Y001017D01*
X012727Y000947D01*
X012814Y000897D01*
X01291Y000871D01*
X01301D01*
X013106Y000897D01*
X013193Y000947D01*
X013263Y001017D01*
X013313Y001104D01*
X013339Y0012D01*
Y0013D01*
X013313Y001396D01*
X013263Y001483D01*
X013193Y001553D01*
X013106Y001603D01*
X01301Y001629D01*
D02*
G37*
G36*
X01201D02*
X01191D01*
X011814Y001603D01*
X011727Y001553D01*
X011657Y001483D01*
X011607Y001396D01*
X011581Y0013D01*
Y0012D01*
X011607Y001104D01*
X011657Y001017D01*
X011727Y000947D01*
X011814Y000897D01*
X01191Y000871D01*
X01201D01*
X012106Y000897D01*
X012193Y000947D01*
X012263Y001017D01*
X012313Y001104D01*
X012339Y0012D01*
Y0013D01*
X012313Y001396D01*
X012263Y001483D01*
X012193Y001553D01*
X012106Y001603D01*
X01201Y001629D01*
D02*
G37*
G36*
X011339D02*
X010581D01*
Y000871D01*
X011339D01*
Y001629D01*
D02*
G37*
%LPD*%
G36*
X005495Y020336D02*
X005482Y020347D01*
X00547Y020357D01*
X005457Y020365D01*
X005444Y020372D01*
X005431Y020379D01*
X005418Y020384D01*
X005405Y020388D01*
X005391Y02039D01*
X005377Y020392D01*
X005363Y020393D01*
X005358Y020493D01*
X005372Y020493D01*
X005386Y020495D01*
X0054Y020498D01*
X005413Y020502D01*
X005426Y020508D01*
X005438Y020514D01*
X00545Y020522D01*
X005462Y020531D01*
X005473Y020542D01*
X005484Y020553D01*
X005495Y020336D01*
D02*
G37*
G36*
X014198Y026845D02*
X014182Y026845D01*
X014167Y026843D01*
X014152Y026841D01*
X014138Y026837D01*
X014124Y026833D01*
X014111Y026827D01*
X014099Y026821D01*
X014087Y026813D01*
X014076Y026805D01*
X014066Y026795D01*
X013995Y026866D01*
X014005Y026876D01*
X014013Y026887D01*
X014021Y026899D01*
X014027Y026911D01*
X014033Y026924D01*
X014037Y026938D01*
X014041Y026952D01*
X014043Y026967D01*
X014045Y026982D01*
X014045Y026998D01*
X014198Y026845D01*
D02*
G37*
G36*
X01034Y023069D02*
X010341Y023055D01*
X010342Y023041D01*
X010344Y023027D01*
X010347Y023013D01*
X01035Y022999D01*
X010355Y022986D01*
X01036Y022972D01*
X010367Y022959D01*
X010374Y022945D01*
X010381Y022932D01*
X010177Y022987D01*
X010189Y022994D01*
X0102Y023002D01*
X010209Y02301D01*
X010218Y023019D01*
X010224Y023029D01*
X01023Y02304D01*
X010235Y023052D01*
X010238Y023064D01*
X01024Y023077D01*
X01024Y02309D01*
X01034Y023069D01*
D02*
G37*
G36*
X023987Y01305D02*
X023986Y01306D01*
X023983Y013068D01*
X023978Y013075D01*
X023971Y013082D01*
X023962Y013088D01*
X023951Y013092D01*
X023938Y013096D01*
X023923Y013098D01*
X023905Y013099D01*
X023886Y0131D01*
Y0132D01*
X023905Y013201D01*
X023923Y013202D01*
X023938Y013204D01*
X023951Y013208D01*
X023962Y013212D01*
X023971Y013218D01*
X023978Y013225D01*
X023983Y013232D01*
X023986Y01324D01*
X023987Y01325D01*
Y01305D01*
D02*
G37*
D16*
X01835Y01461D02*
X021218D01*
X011914Y010614D02*
Y011373D01*
X007462Y011368D02*
X010368D01*
X006565Y012265D02*
X007462Y011368D01*
X007222Y028278D02*
X014222D01*
X0162Y011D02*
X019078D01*
X02446Y01024D02*
X0245Y0102D01*
X0228Y01205D02*
X02446Y01039D01*
Y01024D02*
Y01039D01*
X020128Y01205D02*
X0228D01*
X019078Y011D02*
X020128Y01205D01*
X00455D02*
X004815Y011785D01*
X0173Y00415D02*
X017325Y004175D01*
X021325D01*
X02135Y0042D01*
X0234Y00625D02*
Y0102D01*
X02135Y0042D02*
X0234Y00625D01*
X02345Y0037D02*
X02385Y0041D01*
X02535Y01545D02*
Y016254D01*
X0263Y017204D01*
X019Y02255D02*
X020385Y021165D01*
Y018735D02*
Y021165D01*
X00095Y01535D02*
X004D01*
X00455Y0148D01*
Y01205D02*
Y0148D01*
X006565Y012265D02*
Y013485D01*
X0122Y016393D02*
Y01645D01*
X0123Y01455D02*
Y016293D01*
X0122Y016393D02*
X0123Y016293D01*
X01Y02D02*
X01115D01*
X00925Y01925D02*
X01Y02D01*
X01115D02*
X01335D01*
X01465Y0213D01*
X0063Y0292D02*
X007222Y028278D01*
X006045Y029455D02*
X0063Y0292D01*
X001285Y026551D02*
X0019Y025936D01*
X001285Y026551D02*
Y026915D01*
X0155Y027D02*
X01655D01*
X0171Y02645D01*
X014222Y028278D02*
X0155Y027D01*
X004505Y029455D02*
X006045D01*
X017985Y021535D02*
X019Y02255D01*
X015932Y021535D02*
X017985D01*
X013919Y019522D02*
X015932Y021535D01*
X013919Y018169D02*
Y019522D01*
X0122Y01645D02*
X013919Y018169D01*
X01755Y0197D02*
Y02125D01*
X0171Y02645D02*
X01815D01*
X0192Y0275D01*
X021193Y029493D01*
Y029797D02*
X021334Y029938D01*
X021193Y029493D02*
Y029797D01*
X01029Y02309D02*
X0142Y027D01*
X002622Y020443D02*
X005593D01*
X002615Y020435D02*
X002622Y020443D01*
X005593D02*
X0056Y02045D01*
X0099Y01645D02*
X0122D01*
X02385Y0041D02*
Y010541D01*
X023791Y0106D02*
X02385Y010541D01*
X022647Y0106D02*
X023791D01*
X00335Y02265D02*
X0056D01*
X0203Y0124D02*
X0249D01*
X025199Y012101D01*
X0189Y0138D02*
X0203Y0124D01*
X0119Y0106D02*
X011914Y010614D01*
X0122Y01465D02*
X0123Y01455D01*
X0097Y01465D02*
X0122D01*
X01635Y0106D02*
X016355Y010595D01*
Y0031D02*
Y010595D01*
X01835Y00805D02*
X02075D01*
X02235Y00645D01*
X025199Y011751D02*
Y012101D01*
Y011751D02*
X0253Y01165D01*
X021218Y01461D02*
X021978Y01385D01*
X020303Y01425D02*
X021403Y01315D01*
X0189Y01425D02*
X020303D01*
X0186Y0174D02*
Y02065D01*
X0182Y02105D02*
X0186Y02065D01*
X021403Y01315D02*
X024286D01*
X0243Y013164D01*
X0251Y01385D02*
X0253Y01365D01*
Y013164D02*
Y01365D01*
X021978Y01385D02*
X0251D01*
X02515Y0187D02*
Y021054D01*
X0263Y022204D01*
X012755Y011402D02*
X01435Y012997D01*
X012748Y011402D02*
X012755D01*
X01435Y012997D02*
Y01955D01*
X01025Y02285D02*
X01029Y02289D01*
Y02309D01*
D53*
X0262Y00465D02*
D03*
X01984Y00155D02*
D03*
X023296D02*
D03*
X0262Y008116D02*
D03*
X007256Y00185D02*
D03*
X0038D02*
D03*
X00115Y0053D02*
D03*
Y008884D02*
D03*
D54*
X0262Y005634D02*
D03*
Y0091D02*
D03*
X00115Y004316D02*
D03*
Y0079D02*
D03*
D55*
X020824Y00155D02*
D03*
X02428D02*
D03*
X008241Y00185D02*
D03*
X004784D02*
D03*
D62*
X016344Y029268D02*
D03*
X016856D02*
D03*
X016344Y028756D02*
D03*
X016856D02*
D03*
X016344Y028244D02*
D03*
X016856D02*
D03*
X016344Y027732D02*
D03*
X016856D02*
D03*
D64*
X01635Y0106D02*
X022647D01*
X00665D02*
X0119D01*
X0056Y01165D02*
X00665Y0106D01*
X0056Y01235D02*
Y01345D01*
X022647Y01174D02*
X022648Y011741D01*
X022647Y011747D02*
X022648Y011747D01*
Y011741D02*
Y011747D01*
X022647Y0106D02*
Y01174D01*
X022647Y0106D02*
X022647Y0106D01*
X00443Y02832D02*
X0056Y02715D01*
Y02315D02*
Y02715D01*
X00293Y02832D02*
X00443D01*
X0056Y01915D02*
Y02045D01*
Y02265D02*
Y02315D01*
Y02045D02*
Y02265D01*
Y01345D02*
Y01915D01*
X02265Y01685D02*
Y01765D01*
Y01525D02*
Y01685D01*
X0119Y0106D02*
X01635D01*
X0056Y01165D02*
Y01235D01*
X0232Y01465D02*
Y02205D01*
X0217Y02355D02*
X0232Y02205D01*
X01335Y02355D02*
X0217D01*
X01195Y02215D02*
X01335Y02355D01*
D65*
X021334Y029938D02*
D03*
D66*
X024334D02*
D03*
D67*
X0263Y03215D02*
D03*
X001D02*
D03*
Y00095D02*
D03*
X0263D02*
D03*
D68*
X0243Y01165D02*
D03*
X01665Y02215D02*
D03*
X0243Y0145D02*
D03*
X00295Y0246D02*
D03*
X0009Y025936D02*
D03*
X0243Y013164D02*
D03*
D69*
X0253Y01165D02*
D03*
X0263D02*
D03*
X01365Y02215D02*
D03*
X01465D02*
D03*
X01565D02*
D03*
X00095Y0201D02*
D03*
Y0211D02*
D03*
Y0221D02*
D03*
X0253Y0145D02*
D03*
X0263D02*
D03*
X00195Y0246D02*
D03*
X00095D02*
D03*
X0019Y025936D02*
D03*
X0253Y013164D02*
D03*
X0263D02*
D03*
D70*
X01796Y00125D02*
D03*
X01696D02*
D03*
X01296D02*
D03*
X01196D02*
D03*
X01396D02*
D03*
X01496D02*
D03*
X01596D02*
D03*
X0263Y022204D02*
D03*
Y018204D02*
D03*
Y017204D02*
D03*
Y019204D02*
D03*
Y020204D02*
D03*
Y021204D02*
D03*
Y023204D02*
D03*
Y024204D02*
D03*
Y025204D02*
D03*
D71*
X01096Y00125D02*
D03*
D72*
X0263Y016204D02*
D03*
D73*
X00095Y0231D02*
D03*
D74*
X0251Y03125D02*
D03*
X02585Y02975D02*
D03*
Y02675D02*
D03*
X0251Y02525D02*
D03*
Y02225D02*
D03*
Y01025D02*
D03*
Y00725D02*
D03*
X02585Y00275D02*
D03*
X0251Y00125D02*
D03*
X0236Y03125D02*
D03*
Y02525D02*
D03*
X02435Y02375D02*
D03*
Y02075D02*
D03*
Y01775D02*
D03*
Y00575D02*
D03*
X0221Y03125D02*
D03*
X02285Y02975D02*
D03*
X0221Y02825D02*
D03*
Y02525D02*
D03*
X02285Y02375D02*
D03*
X0221Y02225D02*
D03*
Y00125D02*
D03*
X0206Y03125D02*
D03*
Y02525D02*
D03*
Y02225D02*
D03*
X02135Y02075D02*
D03*
Y01775D02*
D03*
X0206Y01625D02*
D03*
Y00725D02*
D03*
X0191Y03125D02*
D03*
X01985Y02975D02*
D03*
X0191Y02525D02*
D03*
Y00725D02*
D03*
Y00125D02*
D03*
X0176Y02525D02*
D03*
Y02225D02*
D03*
Y00725D02*
D03*
X0161Y02525D02*
D03*
X01685Y01775D02*
D03*
X0161Y01625D02*
D03*
X01685Y01475D02*
D03*
Y00875D02*
D03*
Y00575D02*
D03*
X0146Y03125D02*
D03*
X01535Y02975D02*
D03*
Y02075D02*
D03*
Y01775D02*
D03*
Y01475D02*
D03*
X0146Y00725D02*
D03*
X0131Y03125D02*
D03*
X01385Y02975D02*
D03*
X0131Y02825D02*
D03*
X01385Y01775D02*
D03*
X0131Y01625D02*
D03*
X01385Y01475D02*
D03*
X0131Y00725D02*
D03*
X01235Y02975D02*
D03*
Y02375D02*
D03*
Y01775D02*
D03*
X0116Y00725D02*
D03*
X01085Y02975D02*
D03*
Y00875D02*
D03*
X0101Y00725D02*
D03*
X01085Y00575D02*
D03*
X0101Y00425D02*
D03*
X01085Y00275D02*
D03*
X0101Y00125D02*
D03*
X0086Y03125D02*
D03*
X00935Y02975D02*
D03*
X0086Y02825D02*
D03*
X00935Y02675D02*
D03*
X0086Y02525D02*
D03*
X00935Y02375D02*
D03*
Y00875D02*
D03*
X0086Y00725D02*
D03*
X00935Y00575D02*
D03*
X0086Y00425D02*
D03*
X00935Y00275D02*
D03*
X0071Y03125D02*
D03*
Y02525D02*
D03*
Y02225D02*
D03*
Y00725D02*
D03*
X0056Y02825D02*
D03*
X00635Y02675D02*
D03*
Y02375D02*
D03*
Y01775D02*
D03*
X0056Y00725D02*
D03*
X00635Y00275D02*
D03*
X0056Y00125D02*
D03*
X0041Y03125D02*
D03*
X00485Y02675D02*
D03*
X0041Y02525D02*
D03*
X00485Y02375D02*
D03*
X0041Y01925D02*
D03*
X00485Y01775D02*
D03*
X0041Y01625D02*
D03*
Y01325D02*
D03*
Y00125D02*
D03*
X0026Y03125D02*
D03*
X00335Y02675D02*
D03*
X0026Y01925D02*
D03*
X00335Y01775D02*
D03*
X0026Y01625D02*
D03*
Y01025D02*
D03*
X00335Y00875D02*
D03*
X0026Y00725D02*
D03*
X00335Y00575D02*
D03*
Y00275D02*
D03*
X0026Y00125D02*
D03*
X00185Y02375D02*
D03*
X0011Y01925D02*
D03*
X00185Y01775D02*
D03*
X0011Y01625D02*
D03*
Y01325D02*
D03*
Y01025D02*
D03*
X00185Y00275D02*
D03*
X01835Y01461D02*
D03*
X011914Y011373D02*
D03*
X010368Y011368D02*
D03*
X018241Y011009D02*
D03*
X02265Y01175D02*
D03*
X0245Y0102D02*
D03*
X0162Y011D02*
D03*
X004815Y011785D02*
D03*
X0173Y00415D02*
D03*
X0234Y0102D02*
D03*
X02135Y0042D02*
D03*
X02345Y0037D02*
D03*
X02535Y01545D02*
D03*
X023585Y016615D02*
D03*
X020385Y018735D02*
D03*
X00095Y01535D02*
D03*
X006565Y012265D02*
D03*
Y013485D02*
D03*
X00925Y01925D02*
D03*
X01115Y02D02*
D03*
X01465Y0213D02*
D03*
X0063Y0292D02*
D03*
X001285Y026915D02*
D03*
X0142Y0283D02*
D03*
X019Y02255D02*
D03*
X0171Y02645D02*
D03*
X0192Y0275D02*
D03*
X0142Y027D02*
D03*
X004505Y029455D02*
D03*
X002615Y020435D02*
D03*
X0122Y01645D02*
D03*
X0099D02*
D03*
X0056Y02315D02*
D03*
X00335Y02265D02*
D03*
X0056Y01345D02*
D03*
Y02045D02*
D03*
Y01915D02*
D03*
X005625Y019575D02*
D03*
X02265Y01765D02*
D03*
Y01685D02*
D03*
Y01525D02*
D03*
X017651Y010601D02*
D03*
X0056Y01235D02*
D03*
X0123Y01455D02*
D03*
X0097Y01465D02*
D03*
X005625Y012875D02*
D03*
Y014075D02*
D03*
X016355Y0031D02*
D03*
X01835Y00805D02*
D03*
X02235Y00645D02*
D03*
X00293Y02832D02*
D03*
X0232Y01465D02*
D03*
X01195Y02215D02*
D03*
X0189Y0138D02*
D03*
Y01425D02*
D03*
X0186Y0174D02*
D03*
X0182Y02105D02*
D03*
X01755Y02125D02*
D03*
Y0197D02*
D03*
X02515Y0187D02*
D03*
X012748Y011402D02*
D03*
X01435Y01955D02*
D03*
X01025Y02285D02*
D03*
M02*
