G04*
G04 #@! TF.GenerationSoftware,Altium Limited,Altium Designer,22.9.1 (49)*
G04*
G04 Layer_Color=32896*
%FSTAX24Y24*%
%MOIN*%
G70*
G04*
G04 #@! TF.SameCoordinates,D3726A14-7932-4F0B-9928-97F3702F6CAB*
G04*
G04*
G04 #@! TF.FilePolarity,Positive*
G04*
G01*
G75*
%ADD16C,0.0100*%
G36*
X011228Y011601D02*
X011209D01*
Y011621D01*
X011228D01*
Y011601D01*
D02*
G37*
G36*
X011209Y011582D02*
X01119D01*
Y011601D01*
X011209D01*
Y011582D01*
D02*
G37*
G36*
X01119Y011563D02*
X011152D01*
Y011582D01*
X01119D01*
Y011563D01*
D02*
G37*
G36*
X011018Y011544D02*
X010941D01*
Y011563D01*
X011018D01*
Y011544D01*
D02*
G37*
G36*
X011152D02*
X011133D01*
Y011525D01*
X011075D01*
Y011544D01*
X011094D01*
Y011563D01*
X011152D01*
Y011544D01*
D02*
G37*
G36*
X010941Y011525D02*
X010922D01*
Y011544D01*
X010941D01*
Y011525D01*
D02*
G37*
G36*
X011324Y011563D02*
X011362D01*
Y011525D01*
X011286D01*
Y011506D01*
X011228D01*
Y011525D01*
X011247D01*
Y011544D01*
X011267D01*
Y011563D01*
X011305D01*
Y011582D01*
X011324D01*
Y011563D01*
D02*
G37*
G36*
X011228Y011487D02*
X011209D01*
Y011506D01*
X011228D01*
Y011487D01*
D02*
G37*
G36*
X012071Y01141D02*
X012129D01*
Y011391D01*
X012167D01*
Y011372D01*
X012186D01*
Y011352D01*
X012167D01*
Y011333D01*
X012205D01*
Y011314D01*
X012225D01*
Y011295D01*
X012244D01*
Y011257D01*
X012263D01*
Y011218D01*
X012244D01*
Y011199D01*
X012225D01*
Y011257D01*
X012205D01*
Y011314D01*
X012186D01*
Y011218D01*
X012205D01*
Y011199D01*
X012225D01*
Y011161D01*
X012186D01*
Y01118D01*
X012167D01*
Y011199D01*
X012148D01*
Y011218D01*
X01211D01*
Y011237D01*
X01209D01*
Y011257D01*
X012052D01*
Y011276D01*
X012033D01*
Y011295D01*
X011995D01*
Y011314D01*
X011956D01*
Y011333D01*
X011937D01*
Y011352D01*
X011899D01*
Y011372D01*
X011841D01*
Y011391D01*
X011803D01*
Y01141D01*
X011861D01*
Y011429D01*
X012071D01*
Y01141D01*
D02*
G37*
G36*
X010539Y011257D02*
X010558D01*
Y011237D01*
X010577D01*
Y011199D01*
X010596D01*
Y011142D01*
X010577D01*
Y011123D01*
X010558D01*
Y011103D01*
X010539D01*
Y011084D01*
X010519D01*
Y011065D01*
X0105D01*
Y011046D01*
X010481D01*
Y011027D01*
X010462D01*
Y011008D01*
X010443D01*
Y010988D01*
X010424D01*
Y011027D01*
X010405D01*
Y011008D01*
X010385D01*
Y010988D01*
X010366D01*
Y010969D01*
X010347D01*
Y01095D01*
X010328D01*
Y010912D01*
X010347D01*
Y010931D01*
X010366D01*
Y01095D01*
X010385D01*
Y010912D01*
X010366D01*
Y010816D01*
X010347D01*
Y010644D01*
X010366D01*
Y010567D01*
X010385D01*
Y01049D01*
X010405D01*
Y010433D01*
X010424D01*
Y010375D01*
X010443D01*
Y010318D01*
X010462D01*
Y01028D01*
X010481D01*
Y010222D01*
X0105D01*
Y010184D01*
X010519D01*
Y010145D01*
X010539D01*
Y010088D01*
X010558D01*
Y010031D01*
X010577D01*
Y009973D01*
X010596D01*
Y009916D01*
X010615D01*
Y009839D01*
X010634D01*
Y00982D01*
X010654D01*
Y009801D01*
X010673D01*
Y009781D01*
X010692D01*
Y009762D01*
X010711D01*
Y009743D01*
X010749D01*
Y009724D01*
X010788D01*
Y009705D01*
X010826D01*
Y009686D01*
X010864D01*
Y009667D01*
X010903D01*
Y009647D01*
X010941D01*
Y009628D01*
X010979D01*
Y009609D01*
X011018D01*
Y00959D01*
X011056D01*
Y009571D01*
X011075D01*
Y009552D01*
X011113D01*
Y009532D01*
X011152D01*
Y009513D01*
X01119D01*
Y009494D01*
X011228D01*
Y009475D01*
X011267D01*
Y009456D01*
X011286D01*
Y009437D01*
X011324D01*
Y009417D01*
X011362D01*
Y009398D01*
X011401D01*
Y009379D01*
X01142D01*
Y00936D01*
X011458D01*
Y009341D01*
X011497D01*
Y009322D01*
X011516D01*
Y009303D01*
X011535D01*
Y009283D01*
X011554D01*
Y009264D01*
X011765D01*
Y009245D01*
X011784D01*
Y009226D01*
X011803D01*
Y009188D01*
X011822D01*
Y009149D01*
X011841D01*
Y009111D01*
X011861D01*
Y009073D01*
X01188D01*
Y009034D01*
X011899D01*
Y009053D01*
X011918D01*
Y009015D01*
X011899D01*
Y008977D01*
X01188D01*
Y008958D01*
X011861D01*
Y008977D01*
X011746D01*
Y008996D01*
X011611D01*
Y008977D01*
X011592D01*
Y008958D01*
X011554D01*
Y008939D01*
X011535D01*
Y008919D01*
X011497D01*
Y0089D01*
X011477D01*
Y008881D01*
X011439D01*
Y008862D01*
X011382D01*
Y008843D01*
X011267D01*
Y008824D01*
X011037D01*
Y008804D01*
X01096D01*
Y008824D01*
X010922D01*
Y008804D01*
X010864D01*
Y008785D01*
X010845D01*
Y008766D01*
X010807D01*
Y008747D01*
X010788D01*
Y008728D01*
X010769D01*
Y008709D01*
X010749D01*
Y008689D01*
X010711D01*
Y008709D01*
X01073D01*
Y008728D01*
X010749D01*
Y008747D01*
X010769D01*
Y008766D01*
X010788D01*
Y008785D01*
X010826D01*
Y008804D01*
X010845D01*
Y008824D01*
X010903D01*
Y008862D01*
X010845D01*
Y008881D01*
X010807D01*
Y0089D01*
X010749D01*
Y008919D01*
X010596D01*
Y008939D01*
X010577D01*
Y008919D01*
X010443D01*
Y0089D01*
X010385D01*
Y008881D01*
X010347D01*
Y008862D01*
X01029D01*
Y008843D01*
X01027D01*
Y008824D01*
X010232D01*
Y008804D01*
X010213D01*
Y008785D01*
X010175D01*
Y008766D01*
X010155D01*
Y008747D01*
X010136D01*
Y008728D01*
X010117D01*
Y008709D01*
X010098D01*
Y00867D01*
X010079D01*
Y008651D01*
X01006D01*
Y008632D01*
X010041D01*
Y008594D01*
X010021D01*
Y008555D01*
X010002D01*
Y008498D01*
X009983D01*
Y008479D01*
X009945D01*
Y008517D01*
X009926D01*
Y008555D01*
X009906D01*
Y008613D01*
X009887D01*
Y00867D01*
X009868D01*
Y008709D01*
X009849D01*
Y008747D01*
X00983D01*
Y008785D01*
X009811D01*
Y008824D01*
X009791D01*
Y008843D01*
X009772D01*
Y008881D01*
X009753D01*
Y008919D01*
X009734D01*
Y008958D01*
X009715D01*
Y008996D01*
X009696D01*
Y009015D01*
X009677D01*
Y009053D01*
X009657D01*
Y009073D01*
X009638D01*
Y009111D01*
X009619D01*
Y00913D01*
X0096D01*
Y009168D01*
X009581D01*
Y009188D01*
X009562D01*
Y009207D01*
X009542D01*
Y009245D01*
X009523D01*
Y009264D01*
X009504D01*
Y009283D01*
X009485D01*
Y009303D01*
X009466D01*
Y009322D01*
X009447D01*
Y009341D01*
X009427D01*
Y00936D01*
X009389D01*
Y009379D01*
X00937D01*
Y009398D01*
X009332D01*
Y009417D01*
X009025D01*
Y009398D01*
X008949D01*
Y009379D01*
X008872D01*
Y00936D01*
X008814D01*
Y009341D01*
X008776D01*
Y009322D01*
X008757D01*
Y009303D01*
X008719D01*
Y009283D01*
X008699D01*
Y009264D01*
X008661D01*
Y009245D01*
X008642D01*
Y009226D01*
X008623D01*
Y009207D01*
X008604D01*
Y009188D01*
X008585D01*
Y009168D01*
X008546D01*
Y009149D01*
X008527D01*
Y00913D01*
X008508D01*
Y009092D01*
X008489D01*
Y009073D01*
X00847D01*
Y009053D01*
X00845D01*
Y009034D01*
X008431D01*
Y009015D01*
X008412D01*
Y008977D01*
X008393D01*
Y008958D01*
X008374D01*
Y008919D01*
X008355D01*
Y0089D01*
X008335D01*
Y008862D01*
X008316D01*
Y008843D01*
X008297D01*
Y008804D01*
X008278D01*
Y008766D01*
X008259D01*
Y008709D01*
X00824D01*
Y00867D01*
X008221D01*
Y008632D01*
X008201D01*
Y008594D01*
X008182D01*
Y008536D01*
X008163D01*
Y00844D01*
X008144D01*
Y008421D01*
Y008402D01*
Y008325D01*
X008163D01*
Y008287D01*
X008182D01*
Y008153D01*
X008144D01*
Y008172D01*
X008125D01*
Y008191D01*
X008106D01*
Y00823D01*
X008086D01*
Y008268D01*
X008067D01*
Y008345D01*
X008048D01*
Y008402D01*
X008029D01*
Y008479D01*
X00801D01*
Y008594D01*
X007991D01*
Y008747D01*
X007971D01*
Y008977D01*
Y008996D01*
Y009053D01*
X007991D01*
Y009207D01*
X00801D01*
Y008651D01*
X008029D01*
Y008536D01*
X008048D01*
Y00844D01*
X008067D01*
Y008383D01*
X008086D01*
Y008306D01*
X008106D01*
Y008268D01*
X008125D01*
Y008211D01*
X008144D01*
Y008172D01*
X008163D01*
Y008211D01*
X008144D01*
Y008287D01*
X008125D01*
Y008364D01*
X008106D01*
Y008498D01*
X008086D01*
Y008766D01*
X008067D01*
Y008996D01*
X008086D01*
Y00913D01*
X008106D01*
Y009207D01*
X008125D01*
Y009283D01*
X008144D01*
Y009341D01*
X008163D01*
Y00936D01*
X008182D01*
Y009398D01*
X008201D01*
Y009437D01*
X008221D01*
Y009456D01*
X00824D01*
Y009494D01*
X008259D01*
Y009532D01*
X008278D01*
Y009552D01*
X008297D01*
Y00959D01*
X008316D01*
Y009628D01*
X008335D01*
Y009667D01*
X008355D01*
Y009686D01*
X008374D01*
Y009724D01*
X008393D01*
Y009762D01*
X008412D01*
Y009781D01*
X008431D01*
Y00982D01*
X00845D01*
Y009839D01*
X00847D01*
Y009877D01*
X008489D01*
Y009916D01*
X008508D01*
Y009954D01*
X008527D01*
Y009992D01*
X008546D01*
Y010031D01*
X008565D01*
Y01005D01*
X008585D01*
Y010088D01*
X008604D01*
Y010126D01*
X008623D01*
Y010165D01*
X008642D01*
Y010184D01*
X008661D01*
Y010203D01*
X00868D01*
Y010222D01*
X008699D01*
Y010241D01*
X008719D01*
Y01026D01*
X008757D01*
Y01028D01*
X008776D01*
Y010299D01*
X008795D01*
Y010318D01*
X008834D01*
Y010337D01*
X008853D01*
Y010356D01*
X008891D01*
Y010375D01*
X00891D01*
Y010395D01*
X008949D01*
Y010414D01*
X008987D01*
Y010433D01*
X009006D01*
Y010452D01*
X009044D01*
Y010471D01*
X009063D01*
Y01049D01*
X009102D01*
Y010509D01*
X00914D01*
Y010529D01*
X009178D01*
Y010548D01*
X009217D01*
Y010567D01*
X009255D01*
Y010586D01*
X009293D01*
Y010605D01*
X009351D01*
Y010624D01*
X009389D01*
Y010644D01*
X009427D01*
Y010663D01*
X009389D01*
Y010682D01*
X009408D01*
Y010701D01*
X009447D01*
Y01072D01*
X009485D01*
Y010739D01*
X009504D01*
Y010759D01*
X009542D01*
Y010778D01*
X009734D01*
Y010759D01*
X009811D01*
Y010778D01*
X009906D01*
Y010797D01*
X01006D01*
Y010778D01*
X010098D01*
Y010759D01*
X010117D01*
Y010739D01*
X010136D01*
Y01072D01*
X010155D01*
Y010701D01*
X010175D01*
Y010663D01*
X010194D01*
Y010624D01*
X010213D01*
Y010586D01*
X010232D01*
Y010644D01*
X010213D01*
Y010682D01*
X010194D01*
Y010701D01*
X010175D01*
Y01072D01*
X010155D01*
Y010739D01*
X010136D01*
Y010759D01*
X010117D01*
Y010778D01*
X010098D01*
Y010797D01*
X010117D01*
Y010778D01*
X010194D01*
Y010797D01*
X010213D01*
Y010816D01*
X010232D01*
Y010778D01*
X010251D01*
Y010816D01*
X010232D01*
Y010835D01*
X010251D01*
Y010816D01*
X01027D01*
Y010835D01*
X01029D01*
Y010873D01*
X01027D01*
Y010912D01*
X01029D01*
Y010931D01*
X010309D01*
Y010969D01*
X010328D01*
Y010988D01*
X010347D01*
Y011008D01*
X010366D01*
Y011027D01*
X010385D01*
Y011046D01*
X010405D01*
Y011065D01*
X010424D01*
Y011084D01*
X010443D01*
Y011103D01*
X010462D01*
Y011123D01*
X010481D01*
Y011142D01*
X0105D01*
Y011218D01*
X010539D01*
Y01118D01*
X010558D01*
Y011218D01*
X010539D01*
Y011237D01*
X010519D01*
Y011257D01*
X010462D01*
Y011237D01*
X010443D01*
Y011218D01*
X010405D01*
Y011237D01*
X010424D01*
Y011257D01*
X010443D01*
Y011276D01*
X010539D01*
Y011257D01*
D02*
G37*
G36*
X010405Y01118D02*
X010385D01*
Y011161D01*
X010366D01*
Y011142D01*
X010328D01*
Y011161D01*
X010347D01*
Y01118D01*
X010366D01*
Y011199D01*
X010385D01*
Y011218D01*
X010405D01*
Y01118D01*
D02*
G37*
G36*
X010328Y011123D02*
X010309D01*
Y011142D01*
X010328D01*
Y011123D01*
D02*
G37*
G36*
X010309Y011103D02*
X01029D01*
Y011123D01*
X010309D01*
Y011103D01*
D02*
G37*
G36*
X014389Y011027D02*
X014351D01*
Y011046D01*
X014389D01*
Y011027D01*
D02*
G37*
G36*
X014351Y011008D02*
X014332D01*
Y011027D01*
X014351D01*
Y011008D01*
D02*
G37*
G36*
X010424Y010969D02*
X010405D01*
Y010988D01*
X010424D01*
Y010969D01*
D02*
G37*
G36*
X010405Y01095D02*
X010385D01*
Y010969D01*
X010405D01*
Y01095D01*
D02*
G37*
G36*
X01029Y011065D02*
X01027D01*
Y011046D01*
X010251D01*
Y011027D01*
X010232D01*
Y011008D01*
X010213D01*
Y010969D01*
X010194D01*
Y01095D01*
X010175D01*
Y010931D01*
X010155D01*
Y010969D01*
X010175D01*
Y010988D01*
X010194D01*
Y011008D01*
X010136D01*
Y010988D01*
X010021D01*
Y010969D01*
X009887D01*
Y01095D01*
X009772D01*
Y010931D01*
X0096D01*
Y010912D01*
X009466D01*
Y010893D01*
X009427D01*
Y010873D01*
X009408D01*
Y010854D01*
X00937D01*
Y010873D01*
X009389D01*
Y010893D01*
X009408D01*
Y010912D01*
X009447D01*
Y010931D01*
X009581D01*
Y01095D01*
X009753D01*
Y010969D01*
X009868D01*
Y010988D01*
X010002D01*
Y011008D01*
X010117D01*
Y011027D01*
X010194D01*
Y011046D01*
X010232D01*
Y011065D01*
X010251D01*
Y011084D01*
X01027D01*
Y011103D01*
X01029D01*
Y011065D01*
D02*
G37*
G36*
X010922Y011333D02*
X010941D01*
Y011295D01*
X01096D01*
Y011276D01*
X010998D01*
Y011257D01*
X011037D01*
Y011237D01*
X011133D01*
Y011257D01*
X011152D01*
Y011276D01*
X011171D01*
Y011295D01*
X01119D01*
Y011314D01*
X011209D01*
Y011333D01*
X011228D01*
Y011352D01*
X011286D01*
Y011372D01*
X01142D01*
Y011352D01*
X011458D01*
Y011333D01*
X011477D01*
Y011314D01*
X011497D01*
Y011295D01*
X011535D01*
Y011276D01*
X011573D01*
Y011257D01*
X011611D01*
Y011237D01*
X011669D01*
Y011218D01*
X011707D01*
Y011199D01*
X011765D01*
Y01118D01*
X011822D01*
Y011161D01*
X011861D01*
Y011142D01*
X011937D01*
Y011123D01*
X012033D01*
Y011103D01*
X01209D01*
Y011084D01*
X01211D01*
Y011065D01*
X012129D01*
Y011027D01*
X012148D01*
Y010988D01*
X012167D01*
Y01095D01*
X012186D01*
Y010873D01*
X012167D01*
Y010912D01*
X012148D01*
Y01095D01*
X012129D01*
Y010988D01*
X01211D01*
Y011008D01*
X01209D01*
Y011027D01*
X012052D01*
Y011046D01*
X012033D01*
Y011065D01*
X012014D01*
Y011084D01*
X011937D01*
Y011103D01*
X011861D01*
Y011123D01*
X011822D01*
Y011142D01*
X011765D01*
Y011161D01*
X011726D01*
Y01118D01*
X011669D01*
Y011199D01*
X011611D01*
Y011218D01*
X011573D01*
Y011237D01*
X011535D01*
Y011257D01*
X011497D01*
Y011276D01*
X011477D01*
Y011257D01*
X011458D01*
Y011218D01*
X011439D01*
Y011199D01*
X01142D01*
Y01118D01*
X011401D01*
Y011161D01*
X011382D01*
Y01118D01*
X011362D01*
Y011199D01*
X011343D01*
Y011257D01*
X011324D01*
Y011333D01*
X011286D01*
Y011314D01*
X011247D01*
Y011295D01*
X011228D01*
Y011276D01*
X01119D01*
Y011237D01*
X011152D01*
Y011218D01*
X011113D01*
Y011199D01*
X011037D01*
Y011218D01*
X011018D01*
Y011103D01*
X010998D01*
Y011161D01*
X010979D01*
Y011199D01*
X01096D01*
Y011257D01*
X010941D01*
Y011276D01*
X010922D01*
Y011333D01*
X010903D01*
Y011352D01*
Y011372D01*
Y011525D01*
X010922D01*
Y011333D01*
D02*
G37*
G36*
X01027Y010854D02*
X010251D01*
Y010873D01*
X01027D01*
Y010854D01*
D02*
G37*
G36*
X011382Y011678D02*
X01142D01*
Y011659D01*
X011458D01*
Y01164D01*
X011477D01*
Y011621D01*
X011497D01*
Y011601D01*
X011516D01*
Y011582D01*
X011554D01*
Y011563D01*
X011573D01*
Y011544D01*
X011592D01*
Y011525D01*
X01165D01*
Y011506D01*
X011726D01*
Y011487D01*
X012129D01*
Y011467D01*
X012167D01*
Y011448D01*
X012186D01*
Y011429D01*
X012205D01*
Y01141D01*
X012225D01*
Y011391D01*
X012244D01*
Y011352D01*
X012263D01*
Y011333D01*
X012282D01*
Y011314D01*
X012301D01*
Y011295D01*
X01232D01*
Y011276D01*
X012339D01*
Y011257D01*
X012359D01*
Y011237D01*
X012397D01*
Y011218D01*
X012416D01*
Y011199D01*
X012435D01*
Y01118D01*
X012474D01*
Y011161D01*
X012512D01*
Y011142D01*
X012531D01*
Y011123D01*
X012569D01*
Y011103D01*
X012589D01*
Y011084D01*
X012627D01*
Y011065D01*
X012646D01*
Y011046D01*
X012684D01*
Y011027D01*
X012723D01*
Y011008D01*
X012742D01*
Y010988D01*
X01278D01*
Y010969D01*
X012818D01*
Y01095D01*
X012857D01*
Y010931D01*
X012895D01*
Y010912D01*
X012933D01*
Y010893D01*
X012953D01*
Y010873D01*
X012972D01*
Y010854D01*
X012991D01*
Y010816D01*
X012972D01*
Y010854D01*
X012953D01*
Y010873D01*
X012914D01*
Y010893D01*
X012895D01*
Y010912D01*
X012857D01*
Y010931D01*
X012818D01*
Y01095D01*
X01278D01*
Y010969D01*
X012742D01*
Y010988D01*
X012703D01*
Y011008D01*
X012684D01*
Y011027D01*
X012646D01*
Y011046D01*
X012608D01*
Y011065D01*
X012589D01*
Y011084D01*
X01255D01*
Y011103D01*
X012531D01*
Y011123D01*
X012493D01*
Y011142D01*
X012435D01*
Y011161D01*
X012416D01*
Y01118D01*
X012397D01*
Y011199D01*
X012378D01*
Y011218D01*
X012359D01*
Y011237D01*
X012339D01*
Y011257D01*
X01232D01*
Y011276D01*
X012301D01*
Y011295D01*
X012282D01*
Y011314D01*
X012263D01*
Y011333D01*
X012244D01*
Y011352D01*
X012225D01*
Y011372D01*
X012205D01*
Y011391D01*
X012186D01*
Y01141D01*
X012167D01*
Y011429D01*
X012129D01*
Y011448D01*
X01211D01*
Y011467D01*
X011688D01*
Y011487D01*
X01165D01*
Y011506D01*
X011592D01*
Y011525D01*
X011573D01*
Y011544D01*
X011535D01*
Y011563D01*
X011516D01*
Y011582D01*
X011497D01*
Y011601D01*
X011477D01*
Y011621D01*
X011458D01*
Y01164D01*
X01142D01*
Y011659D01*
X011305D01*
Y01164D01*
X011267D01*
Y011621D01*
X011228D01*
Y01164D01*
X011247D01*
Y011659D01*
X011286D01*
Y011678D01*
X011305D01*
Y011697D01*
X011382D01*
Y011678D01*
D02*
G37*
G36*
X009791Y010778D02*
X009772D01*
Y010797D01*
X009791D01*
Y010778D01*
D02*
G37*
G36*
X012991Y010759D02*
X012972D01*
Y010778D01*
Y010797D01*
X012991D01*
Y010759D01*
D02*
G37*
G36*
X00937Y010835D02*
X009351D01*
Y010816D01*
X009332D01*
Y010797D01*
X009313D01*
Y010778D01*
X009293D01*
Y010759D01*
X009274D01*
Y010739D01*
X009255D01*
Y010778D01*
X009274D01*
Y010797D01*
X009293D01*
Y010816D01*
X009313D01*
Y010835D01*
X009332D01*
Y010854D01*
X00937D01*
Y010835D01*
D02*
G37*
G36*
X0146Y01072D02*
X014581D01*
Y010739D01*
X0146D01*
Y01072D01*
D02*
G37*
G36*
X012435Y010912D02*
X012531D01*
Y010893D01*
X012569D01*
Y010873D01*
X012627D01*
Y010854D01*
X012665D01*
Y010835D01*
X012703D01*
Y010816D01*
X012742D01*
Y010797D01*
X012761D01*
Y010778D01*
X012799D01*
Y010759D01*
X012857D01*
Y010739D01*
X012933D01*
Y010759D01*
X012972D01*
Y010739D01*
X012953D01*
Y01072D01*
X012838D01*
Y010739D01*
X012799D01*
Y010759D01*
X012761D01*
Y010778D01*
X012742D01*
Y010797D01*
X012703D01*
Y010816D01*
X012665D01*
Y010835D01*
X012608D01*
Y010854D01*
X01255D01*
Y010873D01*
X012474D01*
Y010893D01*
X012435D01*
Y010873D01*
X012416D01*
Y010778D01*
X012435D01*
Y01072D01*
X012454D01*
Y010701D01*
X012474D01*
Y010682D01*
X012493D01*
Y010663D01*
X012512D01*
Y010644D01*
X012531D01*
Y010548D01*
X012512D01*
Y010529D01*
X012493D01*
Y010471D01*
X012512D01*
Y010395D01*
X012531D01*
Y010337D01*
X01255D01*
Y010241D01*
X012569D01*
Y010184D01*
X012589D01*
Y010107D01*
X012569D01*
Y010165D01*
X01255D01*
Y010222D01*
X012531D01*
Y010299D01*
X012512D01*
Y010375D01*
X012493D01*
Y010452D01*
X012474D01*
Y010509D01*
X012454D01*
Y010567D01*
X012435D01*
Y010624D01*
X012416D01*
Y01072D01*
X012397D01*
Y010931D01*
X012416D01*
Y01095D01*
X012435D01*
Y010912D01*
D02*
G37*
G36*
X009255Y01072D02*
X009236D01*
Y010739D01*
X009255D01*
Y01072D01*
D02*
G37*
G36*
X009236Y010701D02*
X009217D01*
Y01072D01*
X009236D01*
Y010701D01*
D02*
G37*
G36*
X00937Y010644D02*
X009351D01*
Y010663D01*
X00937D01*
Y010644D01*
D02*
G37*
G36*
X009217Y010682D02*
X009198D01*
Y010663D01*
X009178D01*
Y010644D01*
X009159D01*
Y010624D01*
X00914D01*
Y010605D01*
X009121D01*
Y010586D01*
X009083D01*
Y010605D01*
X009102D01*
Y010624D01*
X009121D01*
Y010644D01*
X00914D01*
Y010663D01*
X009159D01*
Y010682D01*
X009178D01*
Y010701D01*
X009217D01*
Y010682D01*
D02*
G37*
G36*
X014447Y011046D02*
X014485D01*
Y011027D01*
Y011008D01*
X014504D01*
Y010988D01*
X014523D01*
Y01095D01*
X014543D01*
Y010912D01*
X014562D01*
Y010893D01*
X014581D01*
Y010854D01*
X0146D01*
Y010816D01*
X014619D01*
Y010778D01*
X014638D01*
Y010759D01*
X014658D01*
Y010739D01*
X014677D01*
Y01072D01*
X014715D01*
Y010701D01*
X014734D01*
Y010682D01*
X014753D01*
Y010663D01*
X014773D01*
Y010644D01*
X014792D01*
Y010624D01*
X014811D01*
Y010605D01*
X014849D01*
Y010586D01*
X014868D01*
Y010567D01*
X014887D01*
Y010548D01*
X014926D01*
Y010529D01*
X014945D01*
Y010509D01*
X014983D01*
Y01049D01*
X015022D01*
Y010471D01*
X01506D01*
Y010452D01*
X015117D01*
Y010433D01*
X015156D01*
Y010414D01*
X015194D01*
Y010395D01*
X015213D01*
Y010375D01*
X015232D01*
Y010356D01*
X015251D01*
Y010318D01*
X015271D01*
Y01026D01*
X01529D01*
Y010241D01*
X015309D01*
Y010203D01*
X015328D01*
Y010184D01*
X015347D01*
Y010145D01*
X015366D01*
Y010126D01*
X015386D01*
Y010107D01*
X015405D01*
Y010088D01*
X015424D01*
Y010069D01*
X015443D01*
Y01005D01*
X015462D01*
Y010011D01*
X015481D01*
Y009992D01*
X015501D01*
Y009973D01*
X01552D01*
Y009954D01*
X015539D01*
Y009935D01*
X015558D01*
Y009916D01*
X015577D01*
Y009896D01*
X015596D01*
Y009877D01*
X015635D01*
Y009858D01*
X015654D01*
Y009839D01*
X015673D01*
Y00982D01*
X015711D01*
Y009801D01*
X01573D01*
Y009781D01*
X01575D01*
Y009762D01*
X015788D01*
Y009743D01*
X015845D01*
Y009724D01*
X015903D01*
Y009705D01*
X015922D01*
Y009686D01*
X015941D01*
Y009667D01*
X01596D01*
Y009609D01*
X015979D01*
Y009552D01*
X015999D01*
Y009494D01*
X016018D01*
Y009437D01*
X016037D01*
Y009379D01*
X016056D01*
Y009303D01*
X016075D01*
Y009245D01*
X016094D01*
Y009168D01*
X016114D01*
Y009073D01*
X016133D01*
Y008977D01*
X016152D01*
Y008881D01*
X016171D01*
Y008747D01*
X01619D01*
Y008613D01*
X016209D01*
Y008345D01*
X016229D01*
Y007961D01*
X016209D01*
Y007885D01*
X01619D01*
Y007827D01*
X016171D01*
Y00777D01*
X016152D01*
Y007732D01*
X016133D01*
Y007674D01*
X016114D01*
Y007636D01*
X016094D01*
Y007597D01*
X016075D01*
Y007559D01*
X016056D01*
Y00754D01*
X016037D01*
Y007521D01*
X015999D01*
Y007636D01*
X016018D01*
Y007751D01*
X015999D01*
Y007866D01*
X015979D01*
Y007904D01*
Y007923D01*
Y007961D01*
X01596D01*
Y008038D01*
X015941D01*
Y008096D01*
X015922D01*
Y008172D01*
X015903D01*
Y008249D01*
X015884D01*
Y008306D01*
X015865D01*
Y008364D01*
X015845D01*
Y008402D01*
X015826D01*
Y008421D01*
X015807D01*
Y00844D01*
X015788D01*
Y00846D01*
X015769D01*
Y008479D01*
X01575D01*
Y008498D01*
X01573D01*
Y008517D01*
X015711D01*
Y008536D01*
X015692D01*
Y008555D01*
X015654D01*
Y008575D01*
X015635D01*
Y008594D01*
X015615D01*
Y008613D01*
X015596D01*
Y008632D01*
X015558D01*
Y008651D01*
X015539D01*
Y00867D01*
X01552D01*
Y008689D01*
X015501D01*
Y008709D01*
X015462D01*
Y008728D01*
X015443D01*
Y008747D01*
X015405D01*
Y008785D01*
X015366D01*
Y008804D01*
X015347D01*
Y008824D01*
X015309D01*
Y008843D01*
X01529D01*
Y008862D01*
X015251D01*
Y008881D01*
X015232D01*
Y0089D01*
X015194D01*
Y008919D01*
X015156D01*
Y008939D01*
X015137D01*
Y008958D01*
X015098D01*
Y008977D01*
X01506D01*
Y008958D01*
X015041D01*
Y008939D01*
X015022D01*
Y008919D01*
X015002D01*
Y0089D01*
X014983D01*
Y008881D01*
X014964D01*
Y008862D01*
X014945D01*
Y008843D01*
X014926D01*
Y008824D01*
X014907D01*
Y008804D01*
X014887D01*
Y008766D01*
X014868D01*
Y008747D01*
X014849D01*
Y008728D01*
X01483D01*
Y008689D01*
X014811D01*
Y00867D01*
X014792D01*
Y008651D01*
X014773D01*
Y008613D01*
X014753D01*
Y008594D01*
X014734D01*
Y008555D01*
X014715D01*
Y008517D01*
X014696D01*
Y008498D01*
X014677D01*
Y00846D01*
X014658D01*
Y008421D01*
X014638D01*
Y008402D01*
X014619D01*
Y008383D01*
X0146D01*
Y008345D01*
X014581D01*
Y008306D01*
X014562D01*
Y008268D01*
X014543D01*
Y00823D01*
X014523D01*
Y008211D01*
X014485D01*
Y008249D01*
X014466D01*
Y008287D01*
X014447D01*
Y008306D01*
X014428D01*
Y008345D01*
X014409D01*
Y008383D01*
X014389D01*
Y008402D01*
X01437D01*
Y00844D01*
X014351D01*
Y008479D01*
X014332D01*
Y008498D01*
X014313D01*
Y008536D01*
X014294D01*
Y008555D01*
X014274D01*
Y008594D01*
X014255D01*
Y008613D01*
X014236D01*
Y008651D01*
X014217D01*
Y00867D01*
X014198D01*
Y008689D01*
X014159D01*
Y008709D01*
X01414D01*
Y008728D01*
X014083D01*
Y008747D01*
X014045D01*
Y008766D01*
X013949D01*
Y008785D01*
X013815D01*
Y008747D01*
X013834D01*
Y008709D01*
X013853D01*
Y008689D01*
X013872D01*
Y00867D01*
X013891D01*
Y008651D01*
X01391D01*
Y008632D01*
X01393D01*
Y008613D01*
X013949D01*
Y008594D01*
X013968D01*
Y008575D01*
X013987D01*
Y008555D01*
X014006D01*
Y008517D01*
X014025D01*
Y008498D01*
X014045D01*
Y008479D01*
X014064D01*
Y00846D01*
X014083D01*
Y00844D01*
X014102D01*
Y008421D01*
X014121D01*
Y008402D01*
X01414D01*
Y008383D01*
X014179D01*
Y008364D01*
X014198D01*
Y008345D01*
X014236D01*
Y008325D01*
X01437D01*
Y008306D01*
X014389D01*
Y008287D01*
X014409D01*
Y008249D01*
X014428D01*
Y008211D01*
X014447D01*
Y008191D01*
X014485D01*
Y008172D01*
X014523D01*
Y008153D01*
X014562D01*
Y008134D01*
X014581D01*
Y008115D01*
X0146D01*
Y008057D01*
X014619D01*
Y007961D01*
X0146D01*
Y007942D01*
X014581D01*
Y007923D01*
X014562D01*
Y007904D01*
X014543D01*
Y007885D01*
X014523D01*
Y007904D01*
X014504D01*
Y007923D01*
X014466D01*
Y007885D01*
X014485D01*
Y007847D01*
X014466D01*
Y007885D01*
X014447D01*
Y007961D01*
X014428D01*
Y007981D01*
X014409D01*
Y008D01*
X014332D01*
Y007981D01*
X014313D01*
Y007961D01*
X014294D01*
Y007923D01*
X014313D01*
Y007885D01*
X014332D01*
Y007847D01*
X014351D01*
Y007808D01*
X014332D01*
Y007751D01*
X014313D01*
Y007732D01*
X014294D01*
Y00777D01*
X014313D01*
Y007827D01*
X014332D01*
Y007847D01*
X014313D01*
Y007885D01*
X014294D01*
Y007904D01*
Y007923D01*
X014274D01*
Y008D01*
X014313D01*
Y008019D01*
X014428D01*
Y008D01*
X014447D01*
Y007981D01*
X014466D01*
Y007961D01*
X014504D01*
Y007942D01*
X014562D01*
Y007961D01*
X014581D01*
Y008096D01*
X014562D01*
Y008115D01*
X014543D01*
Y008134D01*
X014485D01*
Y008153D01*
X014466D01*
Y008172D01*
X014447D01*
Y008191D01*
X014428D01*
Y008211D01*
X014409D01*
Y00823D01*
Y008249D01*
X014389D01*
Y008268D01*
X01437D01*
Y008287D01*
X014332D01*
Y008306D01*
X014236D01*
Y008325D01*
X014198D01*
Y008345D01*
X014159D01*
Y008364D01*
X01414D01*
Y008383D01*
X014121D01*
Y008402D01*
X014102D01*
Y008421D01*
X014083D01*
Y00844D01*
X014064D01*
Y00846D01*
X014045D01*
Y008479D01*
X014025D01*
Y008498D01*
X014006D01*
Y008517D01*
X013987D01*
Y008536D01*
Y008555D01*
X013968D01*
Y008575D01*
X013949D01*
Y008594D01*
X01393D01*
Y008613D01*
X01391D01*
Y008632D01*
X013891D01*
Y008651D01*
X013872D01*
Y00867D01*
X013853D01*
Y008689D01*
X013834D01*
Y008709D01*
X013815D01*
Y008728D01*
X013795D01*
Y008747D01*
X013776D01*
Y008766D01*
X013757D01*
Y008785D01*
X013719D01*
Y008804D01*
X0137D01*
Y008824D01*
X013642D01*
Y008804D01*
X013585D01*
Y008785D01*
X013317D01*
Y008804D01*
X013182D01*
Y008824D01*
X013163D01*
Y008843D01*
X013125D01*
Y008862D01*
X013087D01*
Y008881D01*
X013029D01*
Y0089D01*
X012972D01*
Y008919D01*
X012914D01*
Y008939D01*
X012876D01*
Y008919D01*
X012895D01*
Y008843D01*
X012914D01*
Y008824D01*
Y008804D01*
X012895D01*
Y008843D01*
X012876D01*
Y008881D01*
X012857D01*
Y008939D01*
X012838D01*
Y009015D01*
X012818D01*
Y009092D01*
X012799D01*
Y009168D01*
X01278D01*
Y009245D01*
X012761D01*
Y009322D01*
X012742D01*
Y009417D01*
X012723D01*
Y009494D01*
X012703D01*
Y00959D01*
X012684D01*
Y009686D01*
X012665D01*
Y009781D01*
X012646D01*
Y009877D01*
X012627D01*
Y009954D01*
X012608D01*
Y010011D01*
X012627D01*
Y009954D01*
X012646D01*
Y009877D01*
X012665D01*
Y009801D01*
X012684D01*
Y009724D01*
X012703D01*
Y009667D01*
X012723D01*
Y009552D01*
X012742D01*
Y009456D01*
X012761D01*
Y00936D01*
X01278D01*
Y009283D01*
X012799D01*
Y009188D01*
X012818D01*
Y00913D01*
X012838D01*
Y009073D01*
X012876D01*
Y009092D01*
X012895D01*
Y00913D01*
X012914D01*
Y009168D01*
X012933D01*
Y009188D01*
X012953D01*
Y009226D01*
X013221D01*
Y009245D01*
X013278D01*
Y009264D01*
X013317D01*
Y009283D01*
X013374D01*
Y009303D01*
X013412D01*
Y009322D01*
X01347D01*
Y009341D01*
X013527D01*
Y009322D01*
X013489D01*
Y009303D01*
X013451D01*
Y009283D01*
X013393D01*
Y009264D01*
X013355D01*
Y009245D01*
X013317D01*
Y009226D01*
X013278D01*
Y009207D01*
X012972D01*
Y009168D01*
X012953D01*
Y009149D01*
X012933D01*
Y009111D01*
X012953D01*
Y009092D01*
X012991D01*
Y009111D01*
X013029D01*
Y00913D01*
X013067D01*
Y009149D01*
X013087D01*
Y009168D01*
X013106D01*
Y009188D01*
X013144D01*
Y009168D01*
X01324D01*
Y009188D01*
X013297D01*
Y009207D01*
X013336D01*
Y009226D01*
X013393D01*
Y009245D01*
X013431D01*
Y009264D01*
X01347D01*
Y009283D01*
X013508D01*
Y009303D01*
X013546D01*
Y009322D01*
X013604D01*
Y009341D01*
X013661D01*
Y00936D01*
X0137D01*
Y009379D01*
X013738D01*
Y009398D01*
X013795D01*
Y009417D01*
X013834D01*
Y009437D01*
X013872D01*
Y009456D01*
X01393D01*
Y009475D01*
X013949D01*
Y009494D01*
X013987D01*
Y009456D01*
X013968D01*
Y009417D01*
X013987D01*
Y009437D01*
X014006D01*
Y009494D01*
X014025D01*
Y009532D01*
X014045D01*
Y00959D01*
X014064D01*
Y009628D01*
X014083D01*
Y009667D01*
X014102D01*
Y009705D01*
X014121D01*
Y009743D01*
X01414D01*
Y009781D01*
X014159D01*
Y009839D01*
X014179D01*
Y009877D01*
X014198D01*
Y009916D01*
X014217D01*
Y009954D01*
X014236D01*
Y009992D01*
X014255D01*
Y010031D01*
X014274D01*
Y01005D01*
X014294D01*
Y010088D01*
X014313D01*
Y010126D01*
X014332D01*
Y010165D01*
X014351D01*
Y010184D01*
X01437D01*
Y010203D01*
X014389D01*
Y010241D01*
X014409D01*
Y01026D01*
X014428D01*
Y01028D01*
X014447D01*
Y010299D01*
X014466D01*
Y010337D01*
X014485D01*
Y010356D01*
X014466D01*
Y010375D01*
X014485D01*
Y010356D01*
X014504D01*
Y010375D01*
X014485D01*
Y010433D01*
X014504D01*
Y010471D01*
X014523D01*
Y010548D01*
X014504D01*
Y010586D01*
X014485D01*
Y01049D01*
X014466D01*
Y010452D01*
X014447D01*
Y010414D01*
X014428D01*
Y010375D01*
X014409D01*
Y010356D01*
X014389D01*
Y010395D01*
X014409D01*
Y010433D01*
X014428D01*
Y010471D01*
X014447D01*
Y010529D01*
X014466D01*
Y010701D01*
X014447D01*
Y010739D01*
X014428D01*
Y010778D01*
X014409D01*
Y010816D01*
X014389D01*
Y010854D01*
X01437D01*
Y010893D01*
X014351D01*
Y010912D01*
X014332D01*
Y01095D01*
X014313D01*
Y010969D01*
Y011008D01*
X014332D01*
Y01095D01*
X014351D01*
Y010931D01*
X01437D01*
Y010912D01*
X014389D01*
Y010893D01*
Y010873D01*
X014409D01*
Y010835D01*
X014428D01*
Y010797D01*
X014447D01*
Y010739D01*
X014466D01*
Y01072D01*
X014485D01*
Y010663D01*
X014504D01*
Y010624D01*
X014523D01*
Y010586D01*
X014543D01*
Y010548D01*
X014562D01*
Y010586D01*
X014581D01*
Y010567D01*
X014619D01*
Y010605D01*
X0146D01*
Y010701D01*
X014619D01*
Y010682D01*
X014638D01*
Y010644D01*
X014658D01*
Y010624D01*
X014677D01*
Y010586D01*
X014696D01*
Y010567D01*
X014734D01*
Y010586D01*
X014696D01*
Y010624D01*
X014677D01*
Y010663D01*
X014658D01*
Y010682D01*
X014638D01*
Y01072D01*
X014619D01*
Y010759D01*
X0146D01*
Y010797D01*
X014581D01*
Y010835D01*
X014562D01*
Y010873D01*
X014543D01*
Y010912D01*
X014523D01*
Y01095D01*
X014504D01*
Y010969D01*
X014485D01*
Y011008D01*
X014466D01*
Y011027D01*
X014447D01*
Y011046D01*
X014389D01*
Y011065D01*
X014447D01*
Y011046D01*
D02*
G37*
G36*
X009083Y010567D02*
X009063D01*
Y010548D01*
X009044D01*
Y010529D01*
X009006D01*
Y010548D01*
X009025D01*
Y010567D01*
X009044D01*
Y010586D01*
X009083D01*
Y010567D01*
D02*
G37*
G36*
X009006Y010509D02*
X008987D01*
Y01049D01*
X008949D01*
Y010509D01*
X008968D01*
Y010529D01*
X009006D01*
Y010509D01*
D02*
G37*
G36*
X011803Y010567D02*
X011841D01*
Y010548D01*
X011861D01*
Y010529D01*
X011899D01*
Y01049D01*
X011918D01*
Y010471D01*
Y010452D01*
X011899D01*
Y010471D01*
X01188D01*
Y01049D01*
X011861D01*
Y010529D01*
X011822D01*
Y010548D01*
X011803D01*
Y010567D01*
X011784D01*
Y010586D01*
X011803D01*
Y010567D01*
D02*
G37*
G36*
X008949Y010471D02*
X008929D01*
Y010452D01*
X008891D01*
Y010433D01*
X008853D01*
Y010452D01*
X008872D01*
Y010471D01*
X00891D01*
Y01049D01*
X008949D01*
Y010471D01*
D02*
G37*
G36*
X012014Y010414D02*
Y010375D01*
X011995D01*
Y010395D01*
X011975D01*
Y010433D01*
X012014D01*
Y010414D01*
D02*
G37*
G36*
X011937Y010395D02*
X011956D01*
Y010375D01*
Y010356D01*
X011937D01*
Y010395D01*
X011918D01*
Y010414D01*
Y010433D01*
X011937D01*
Y010395D01*
D02*
G37*
G36*
X008853Y010414D02*
X008834D01*
Y010395D01*
X008795D01*
Y010375D01*
X008757D01*
Y010356D01*
X008699D01*
Y010375D01*
X008738D01*
Y010395D01*
X008776D01*
Y010414D01*
X008814D01*
Y010433D01*
X008853D01*
Y010414D01*
D02*
G37*
G36*
X008699Y010337D02*
X008661D01*
Y010356D01*
X008699D01*
Y010337D01*
D02*
G37*
G36*
X008661Y010318D02*
X008623D01*
Y010337D01*
X008661D01*
Y010318D01*
D02*
G37*
G36*
X008623Y010299D02*
X008585D01*
Y010318D01*
X008623D01*
Y010299D01*
D02*
G37*
G36*
X008585Y01028D02*
X008546D01*
Y010299D01*
X008585D01*
Y01028D01*
D02*
G37*
G36*
X012608Y010031D02*
X012589D01*
Y010088D01*
X012608D01*
Y010031D01*
D02*
G37*
G36*
X008546Y010241D02*
X008527D01*
Y010203D01*
X008508D01*
Y010165D01*
X008489D01*
Y010107D01*
X00847D01*
Y010069D01*
Y01005D01*
X00845D01*
Y010031D01*
X008431D01*
Y010088D01*
X00845D01*
Y010126D01*
X00847D01*
Y010184D01*
X008489D01*
Y010222D01*
X008508D01*
Y01026D01*
X008527D01*
Y01028D01*
X008546D01*
Y010241D01*
D02*
G37*
G36*
X008431Y009973D02*
X008412D01*
Y009935D01*
X008393D01*
Y009896D01*
X008374D01*
Y009858D01*
X008355D01*
Y009839D01*
X008335D01*
Y009877D01*
X008355D01*
Y009916D01*
X008374D01*
Y009954D01*
X008393D01*
Y009992D01*
X008412D01*
Y010031D01*
X008431D01*
Y009973D01*
D02*
G37*
G36*
X014389Y010318D02*
X01437D01*
Y01028D01*
X014351D01*
Y01026D01*
X014332D01*
Y010222D01*
X014313D01*
Y010184D01*
X014294D01*
Y010165D01*
X014274D01*
Y010126D01*
X014255D01*
Y010088D01*
X014236D01*
Y010069D01*
X014217D01*
Y010031D01*
X014198D01*
Y009992D01*
X014179D01*
Y009973D01*
X014159D01*
Y009935D01*
X01414D01*
Y009896D01*
X014121D01*
Y009858D01*
X014102D01*
Y00982D01*
X014083D01*
Y009781D01*
X014064D01*
Y009762D01*
X014045D01*
Y009781D01*
Y009801D01*
X014064D01*
Y009839D01*
X014083D01*
Y009877D01*
X014102D01*
Y009916D01*
X014121D01*
Y009954D01*
X01414D01*
Y009992D01*
X014159D01*
Y010011D01*
X014179D01*
Y01005D01*
X014198D01*
Y010088D01*
X014217D01*
Y010107D01*
X014236D01*
Y010145D01*
X014255D01*
Y010184D01*
X014274D01*
Y010203D01*
X014294D01*
Y010241D01*
X014313D01*
Y01028D01*
X014332D01*
Y010299D01*
X014351D01*
Y010337D01*
X01437D01*
Y010356D01*
X014389D01*
Y010318D01*
D02*
G37*
G36*
X011037Y011065D02*
Y011046D01*
Y011008D01*
X011056D01*
Y01095D01*
X011075D01*
Y010912D01*
X011094D01*
Y010893D01*
Y010873D01*
X011113D01*
Y010854D01*
X011133D01*
Y010816D01*
X011152D01*
Y010797D01*
X01119D01*
Y010778D01*
X011209D01*
Y010759D01*
X011247D01*
Y010739D01*
X011267D01*
Y01072D01*
X011305D01*
Y010701D01*
X011343D01*
Y010682D01*
X011382D01*
Y010663D01*
X01142D01*
Y010644D01*
X011477D01*
Y010624D01*
X011573D01*
Y010605D01*
X01165D01*
Y010586D01*
X011707D01*
Y010567D01*
X011746D01*
Y010548D01*
X011803D01*
Y010529D01*
X011822D01*
Y01049D01*
X011841D01*
Y010452D01*
X011861D01*
Y010433D01*
Y010395D01*
X01188D01*
Y010337D01*
X011899D01*
Y010318D01*
Y010299D01*
Y01028D01*
X011918D01*
Y010203D01*
X011937D01*
Y010184D01*
Y010107D01*
X011956D01*
Y010011D01*
Y009992D01*
X011975D01*
Y009801D01*
X011995D01*
Y009724D01*
X011975D01*
Y009743D01*
X011956D01*
Y009973D01*
X011937D01*
Y010107D01*
X011918D01*
Y010203D01*
X011899D01*
Y010222D01*
Y01028D01*
X01188D01*
Y010337D01*
X011861D01*
Y010375D01*
Y010395D01*
X011841D01*
Y010452D01*
X011822D01*
Y010471D01*
X011803D01*
Y01049D01*
Y010509D01*
X011765D01*
Y010529D01*
X011746D01*
Y010548D01*
X011688D01*
Y010567D01*
X01165D01*
Y010586D01*
X011554D01*
Y010605D01*
X011477D01*
Y010624D01*
X011401D01*
Y010644D01*
X011343D01*
Y010663D01*
X011324D01*
Y010682D01*
X011286D01*
Y010701D01*
X011267D01*
Y01072D01*
X011228D01*
Y010739D01*
X011209D01*
Y010759D01*
X01119D01*
Y010778D01*
X011152D01*
Y010797D01*
X011133D01*
Y010816D01*
X011113D01*
Y010835D01*
X011094D01*
Y010854D01*
X011075D01*
Y010893D01*
X011056D01*
Y01095D01*
X011037D01*
Y010988D01*
Y011008D01*
X011018D01*
Y011084D01*
X011037D01*
Y011065D01*
D02*
G37*
G36*
X008335Y009801D02*
Y009781D01*
X008316D01*
Y009743D01*
X008297D01*
Y009724D01*
X008278D01*
Y009762D01*
X008297D01*
Y009801D01*
X008316D01*
Y009839D01*
X008335D01*
Y009801D01*
D02*
G37*
G36*
X014045Y009705D02*
X014025D01*
Y009686D01*
X014006D01*
Y009724D01*
X014025D01*
Y009762D01*
X014045D01*
Y009705D01*
D02*
G37*
G36*
X008278Y009686D02*
X008259D01*
Y009705D01*
Y009724D01*
X008278D01*
Y009686D01*
D02*
G37*
G36*
X014006Y009647D02*
X013987D01*
Y009667D01*
Y009686D01*
X014006D01*
Y009647D01*
D02*
G37*
G36*
X013987Y009609D02*
X013968D01*
Y00959D01*
X013949D01*
Y009609D01*
Y009628D01*
X013968D01*
Y009647D01*
X013987D01*
Y009609D01*
D02*
G37*
G36*
X008259Y009647D02*
X00824D01*
Y009628D01*
Y009609D01*
X008221D01*
Y00959D01*
X008201D01*
Y009628D01*
X008221D01*
Y009667D01*
X00824D01*
Y009686D01*
X008259D01*
Y009647D01*
D02*
G37*
G36*
X013949Y009552D02*
X01393D01*
Y009532D01*
X01391D01*
Y009513D01*
X013872D01*
Y009532D01*
X013891D01*
Y009552D01*
X01391D01*
Y009571D01*
X01393D01*
Y00959D01*
X013949D01*
Y009552D01*
D02*
G37*
G36*
X013872Y009494D02*
X013834D01*
Y009513D01*
X013872D01*
Y009494D01*
D02*
G37*
G36*
X008201Y009552D02*
X008182D01*
Y009513D01*
X008163D01*
Y009494D01*
X008144D01*
Y009456D01*
X008125D01*
Y009437D01*
X008106D01*
Y009475D01*
X008125D01*
Y009513D01*
X008144D01*
Y009532D01*
X008163D01*
Y009552D01*
Y009571D01*
X008182D01*
Y00959D01*
X008201D01*
Y009552D01*
D02*
G37*
G36*
X008106Y009398D02*
X008086D01*
Y009379D01*
X008067D01*
Y009417D01*
X008086D01*
Y009437D01*
X008106D01*
Y009398D01*
D02*
G37*
G36*
X013834Y009475D02*
X013815D01*
Y009456D01*
X013776D01*
Y009437D01*
X013738D01*
Y009417D01*
X0137D01*
Y009398D01*
X013661D01*
Y009379D01*
X013623D01*
Y00936D01*
X013585D01*
Y009341D01*
X013527D01*
Y00936D01*
X013566D01*
Y009379D01*
X013604D01*
Y009398D01*
X013642D01*
Y009417D01*
X013681D01*
Y009437D01*
X013719D01*
Y009456D01*
X013757D01*
Y009475D01*
X013795D01*
Y009494D01*
X013834D01*
Y009475D01*
D02*
G37*
G36*
X008067Y009322D02*
X008048D01*
Y009283D01*
X008029D01*
Y009341D01*
X008048D01*
Y009379D01*
X008067D01*
Y009322D01*
D02*
G37*
G36*
X008029Y009264D02*
Y009245D01*
Y009226D01*
X00801D01*
Y009283D01*
X008029D01*
Y009264D01*
D02*
G37*
G36*
X011975Y009705D02*
X011995D01*
Y009283D01*
X011975D01*
Y009149D01*
X011956D01*
Y009092D01*
X011937D01*
Y009053D01*
X011918D01*
Y009111D01*
X011937D01*
Y009168D01*
X011956D01*
Y009303D01*
X011975D01*
Y009647D01*
X011956D01*
Y009705D01*
Y009724D01*
X011975D01*
Y009705D01*
D02*
G37*
G36*
X015328Y008728D02*
X015309D01*
Y008785D01*
X015328D01*
Y008728D01*
D02*
G37*
G36*
X011975Y008824D02*
X011995D01*
Y008804D01*
Y008785D01*
Y008728D01*
X011956D01*
Y008843D01*
X011937D01*
Y008862D01*
X011975D01*
Y008824D01*
D02*
G37*
G36*
X015405Y008728D02*
X015424D01*
Y008709D01*
X015405D01*
Y008728D01*
X015366D01*
Y008747D01*
X015405D01*
Y008728D01*
D02*
G37*
G36*
X015328Y00867D02*
X015309D01*
Y008709D01*
X015328D01*
Y00867D01*
D02*
G37*
G36*
X010711D02*
X010692D01*
Y008689D01*
X010711D01*
Y00867D01*
D02*
G37*
G36*
X015309Y008651D02*
X01529D01*
Y00867D01*
X015309D01*
Y008651D01*
D02*
G37*
G36*
X015271D02*
X015232D01*
Y00867D01*
X015271D01*
Y008651D01*
D02*
G37*
G36*
X010692D02*
X010673D01*
Y00867D01*
X010692D01*
Y008651D01*
D02*
G37*
G36*
X015232Y008632D02*
X015213D01*
Y008651D01*
X015232D01*
Y008632D01*
D02*
G37*
G36*
X010673D02*
X010654D01*
Y008651D01*
X010673D01*
Y008632D01*
D02*
G37*
G36*
X010654Y008613D02*
X010634D01*
Y008632D01*
X010654D01*
Y008613D01*
D02*
G37*
G36*
X015443Y008594D02*
X015424D01*
Y00867D01*
Y008689D01*
X015443D01*
Y008594D01*
D02*
G37*
G36*
X010634D02*
X010615D01*
Y008613D01*
X010634D01*
Y008594D01*
D02*
G37*
G36*
X010615Y008575D02*
X010596D01*
Y008594D01*
X010615D01*
Y008575D01*
D02*
G37*
G36*
X010596Y008555D02*
X010577D01*
Y008575D01*
X010596D01*
Y008555D01*
D02*
G37*
G36*
X008067D02*
X008048D01*
Y008575D01*
Y008613D01*
X008067D01*
Y008555D01*
D02*
G37*
G36*
X010577Y008536D02*
X010558D01*
Y008555D01*
X010577D01*
Y008536D01*
D02*
G37*
G36*
X015405Y008517D02*
X015386D01*
Y008594D01*
X015405D01*
Y008517D01*
D02*
G37*
G36*
X010558Y008498D02*
X010539D01*
Y008479D01*
X010519D01*
Y008517D01*
X010539D01*
Y008536D01*
X010558D01*
Y008498D01*
D02*
G37*
G36*
X015424Y00844D02*
X015386D01*
Y00846D01*
X015424D01*
Y00844D01*
D02*
G37*
G36*
X015386Y008421D02*
X015366D01*
Y00844D01*
X015386D01*
Y008421D01*
D02*
G37*
G36*
X012205D02*
X012148D01*
Y00844D01*
X012205D01*
Y008421D01*
D02*
G37*
G36*
X015232Y008575D02*
Y008555D01*
Y008421D01*
X015213D01*
Y008402D01*
X015194D01*
Y00844D01*
X015213D01*
Y008613D01*
X015232D01*
Y008575D01*
D02*
G37*
G36*
X012148Y008402D02*
X01211D01*
Y008421D01*
X012148D01*
Y008402D01*
D02*
G37*
G36*
X010519Y00844D02*
X0105D01*
Y008421D01*
X010481D01*
Y008402D01*
X010424D01*
Y008421D01*
X010462D01*
Y00844D01*
X010481D01*
Y00846D01*
X0105D01*
Y008479D01*
X010519D01*
Y00844D01*
D02*
G37*
G36*
X01209Y008383D02*
X012071D01*
Y008402D01*
X01209D01*
Y008383D01*
D02*
G37*
G36*
X011382Y008594D02*
X011477D01*
Y008575D01*
X011497D01*
Y008555D01*
X011516D01*
Y008517D01*
X011535D01*
Y008383D01*
X011516D01*
Y00844D01*
X011497D01*
Y008402D01*
X011477D01*
Y008383D01*
X011458D01*
Y008364D01*
X011439D01*
Y008345D01*
X01142D01*
Y008325D01*
X011401D01*
Y008287D01*
X011382D01*
Y008268D01*
X011362D01*
Y008249D01*
X011343D01*
Y00823D01*
X011324D01*
Y008191D01*
X011305D01*
Y008172D01*
X011286D01*
Y008211D01*
X011305D01*
Y008249D01*
X011324D01*
Y00844D01*
X011305D01*
Y008498D01*
X011286D01*
Y008536D01*
X011267D01*
Y008555D01*
X011247D01*
Y008575D01*
Y008594D01*
X01096D01*
Y008575D01*
X010941D01*
Y008555D01*
X010922D01*
Y008536D01*
X010903D01*
Y008517D01*
X010883D01*
Y008498D01*
X010864D01*
Y008479D01*
X010845D01*
Y00846D01*
X010826D01*
Y00844D01*
X010807D01*
Y008421D01*
X010788D01*
Y008402D01*
X010769D01*
Y00844D01*
X010788D01*
Y00846D01*
X010807D01*
Y008479D01*
X010826D01*
Y008498D01*
X010845D01*
Y008517D01*
X010864D01*
Y008536D01*
X010883D01*
Y008555D01*
X010903D01*
Y008575D01*
X010922D01*
Y008594D01*
X010941D01*
Y008613D01*
X011382D01*
Y008594D01*
D02*
G37*
G36*
X010424Y008383D02*
X010347D01*
Y008402D01*
X010424D01*
Y008383D01*
D02*
G37*
G36*
X015615Y008364D02*
X015596D01*
Y008383D01*
X015615D01*
Y008364D01*
D02*
G37*
G36*
X012071D02*
X012033D01*
Y008383D01*
X012071D01*
Y008364D01*
D02*
G37*
G36*
X011516D02*
X011497D01*
Y008383D01*
X011516D01*
Y008364D01*
D02*
G37*
G36*
X010328D02*
X01027D01*
Y008383D01*
X010328D01*
Y008364D01*
D02*
G37*
G36*
X015271Y008383D02*
X01529D01*
Y008364D01*
X015328D01*
Y008345D01*
X015271D01*
Y008364D01*
Y008383D01*
X015251D01*
Y008421D01*
X015271D01*
Y008383D01*
D02*
G37*
G36*
X012033Y008345D02*
X012014D01*
Y008325D01*
X011975D01*
Y008345D01*
X011995D01*
Y008364D01*
X012033D01*
Y008345D01*
D02*
G37*
G36*
X011937Y008287D02*
X011918D01*
Y008306D01*
X011937D01*
Y008287D01*
D02*
G37*
G36*
X015386Y008306D02*
X015366D01*
Y008268D01*
X015386D01*
Y008287D01*
X015405D01*
Y008268D01*
Y008249D01*
X015366D01*
Y008268D01*
X015347D01*
Y008325D01*
X015366D01*
Y008364D01*
X015386D01*
Y008306D01*
D02*
G37*
G36*
X015232Y008249D02*
X015213D01*
Y008287D01*
Y008306D01*
X015232D01*
Y008249D01*
D02*
G37*
G36*
X013566Y008594D02*
X013604D01*
Y008575D01*
X013623D01*
Y008555D01*
X013642D01*
Y008536D01*
X013661D01*
Y008517D01*
X013681D01*
Y008498D01*
X0137D01*
Y008479D01*
X013719D01*
Y00846D01*
X013757D01*
Y00844D01*
X013776D01*
Y008421D01*
X013795D01*
Y008402D01*
X013815D01*
Y008383D01*
Y008364D01*
X013834D01*
Y008345D01*
X013853D01*
Y008325D01*
Y008306D01*
X013872D01*
Y008287D01*
X013891D01*
Y008249D01*
X013872D01*
Y008268D01*
Y008287D01*
X013853D01*
Y008306D01*
X013834D01*
Y008345D01*
X013815D01*
Y008364D01*
X013795D01*
Y008383D01*
X013776D01*
Y008402D01*
X013757D01*
Y008421D01*
X013738D01*
Y00844D01*
X013719D01*
Y00846D01*
X0137D01*
Y008479D01*
X013681D01*
Y008498D01*
X013661D01*
Y008517D01*
X013642D01*
Y008536D01*
X013604D01*
Y008555D01*
X013585D01*
Y008575D01*
X013489D01*
Y008555D01*
X013393D01*
Y008536D01*
X013336D01*
Y008517D01*
X013317D01*
Y008498D01*
X013297D01*
Y00846D01*
X013278D01*
Y00844D01*
X013259D01*
Y008383D01*
X01324D01*
Y008325D01*
X013221D01*
Y008249D01*
X013202D01*
Y008134D01*
X013221D01*
Y008076D01*
X01324D01*
Y008038D01*
X013259D01*
Y007981D01*
X013278D01*
Y007942D01*
X013297D01*
Y007885D01*
X013317D01*
Y007827D01*
X013336D01*
Y007751D01*
X013355D01*
Y007693D01*
X013374D01*
Y007597D01*
X013393D01*
Y007521D01*
X013412D01*
Y007483D01*
X013431D01*
Y007444D01*
X013451D01*
Y007406D01*
X01347D01*
Y007368D01*
X013489D01*
Y007329D01*
X013508D01*
Y007291D01*
X013546D01*
Y007272D01*
X013566D01*
Y007253D01*
X013604D01*
Y007233D01*
X013642D01*
Y007214D01*
X013661D01*
Y007195D01*
X013681D01*
Y007176D01*
X0137D01*
Y007157D01*
X013719D01*
Y007138D01*
X013738D01*
Y007119D01*
X013757D01*
Y007099D01*
X013776D01*
Y007061D01*
X013795D01*
Y007042D01*
X013815D01*
Y007023D01*
X013834D01*
Y007004D01*
X013853D01*
Y006984D01*
X013872D01*
Y006965D01*
X013891D01*
Y006946D01*
X01391D01*
Y006927D01*
X01393D01*
Y006889D01*
X013949D01*
Y006869D01*
X013968D01*
Y00685D01*
X013987D01*
Y006831D01*
X014006D01*
Y006812D01*
X014025D01*
Y006793D01*
X014045D01*
Y006755D01*
X014064D01*
Y006735D01*
X014083D01*
Y006697D01*
X014102D01*
Y006678D01*
X014121D01*
Y00664D01*
X01414D01*
Y006601D01*
X014159D01*
Y006582D01*
X014179D01*
Y006544D01*
X014198D01*
Y006486D01*
X014332D01*
Y006505D01*
X014466D01*
Y006525D01*
X014543D01*
Y006544D01*
X014619D01*
Y006563D01*
X014677D01*
Y006582D01*
X014734D01*
Y006601D01*
X014792D01*
Y00662D01*
X01483D01*
Y00664D01*
X014868D01*
Y006659D01*
X014907D01*
Y006678D01*
X014945D01*
Y006697D01*
X014983D01*
Y006678D01*
X014964D01*
Y006659D01*
X014926D01*
Y00664D01*
X014887D01*
Y00662D01*
X014849D01*
Y006601D01*
X014811D01*
Y006582D01*
X014753D01*
Y006563D01*
X014696D01*
Y006544D01*
X014638D01*
Y006525D01*
X014581D01*
Y006505D01*
X014485D01*
Y006486D01*
X014351D01*
Y006467D01*
X014217D01*
Y006295D01*
X014198D01*
Y006256D01*
X014217D01*
Y006276D01*
X014294D01*
Y006295D01*
X014389D01*
Y006314D01*
X014447D01*
Y006333D01*
X014504D01*
Y006352D01*
X014562D01*
Y006371D01*
X014619D01*
Y006391D01*
X014658D01*
Y00641D01*
X0146D01*
Y006429D01*
X014658D01*
Y006448D01*
X014696D01*
Y006467D01*
X014734D01*
Y006486D01*
X014773D01*
Y006467D01*
X014753D01*
Y006448D01*
X014792D01*
Y006467D01*
X014811D01*
Y006486D01*
X014773D01*
Y006505D01*
X014811D01*
Y006486D01*
X014849D01*
Y006505D01*
X014811D01*
Y006525D01*
X014849D01*
Y006505D01*
X014887D01*
Y006525D01*
X014907D01*
Y006544D01*
X014926D01*
Y006563D01*
X014964D01*
Y006582D01*
X014945D01*
Y006601D01*
X014964D01*
Y006582D01*
X014983D01*
Y006601D01*
X014964D01*
Y00662D01*
X014983D01*
Y006601D01*
X015022D01*
Y00662D01*
X015041D01*
Y00664D01*
X01506D01*
Y006659D01*
X015079D01*
Y006678D01*
X015098D01*
Y006697D01*
X015117D01*
Y006716D01*
X015137D01*
Y006735D01*
X015156D01*
Y006755D01*
X015175D01*
Y006774D01*
X015194D01*
Y006793D01*
X015213D01*
Y006831D01*
X015232D01*
Y00685D01*
X015251D01*
Y006869D01*
X015271D01*
Y006889D01*
X01529D01*
Y006908D01*
X015309D01*
Y006927D01*
X015328D01*
Y007004D01*
X015309D01*
Y006984D01*
X01529D01*
Y006965D01*
X015271D01*
Y007004D01*
X01529D01*
Y007042D01*
X015328D01*
Y007061D01*
X015347D01*
Y00708D01*
X015386D01*
Y007061D01*
X015405D01*
Y00708D01*
X015424D01*
Y007004D01*
X015443D01*
Y006984D01*
X015386D01*
Y006946D01*
X015366D01*
Y006908D01*
X015347D01*
Y006889D01*
X015328D01*
Y00685D01*
X015309D01*
Y006831D01*
X01529D01*
Y006793D01*
X015271D01*
Y006774D01*
X015251D01*
Y006755D01*
X015232D01*
Y006716D01*
X015213D01*
Y006697D01*
X015194D01*
Y006735D01*
X015175D01*
Y006716D01*
X015156D01*
Y006697D01*
X015137D01*
Y006659D01*
X015156D01*
Y006678D01*
X015175D01*
Y00664D01*
X015156D01*
Y00662D01*
X015137D01*
Y006601D01*
X015117D01*
Y00664D01*
X015098D01*
Y00662D01*
X015079D01*
Y006601D01*
X015041D01*
Y006582D01*
X015022D01*
Y006563D01*
X015002D01*
Y006544D01*
X014964D01*
Y006525D01*
X014945D01*
Y006505D01*
X014926D01*
Y006486D01*
X014887D01*
Y006467D01*
X014868D01*
Y006448D01*
X01483D01*
Y006429D01*
X014792D01*
Y00641D01*
X014753D01*
Y006391D01*
X014715D01*
Y006371D01*
X014677D01*
Y006352D01*
X014619D01*
Y006333D01*
X014562D01*
Y006314D01*
X014523D01*
Y006295D01*
X014466D01*
Y006276D01*
X014409D01*
Y006256D01*
X014313D01*
Y006237D01*
X014217D01*
Y006218D01*
X014198D01*
Y006199D01*
X014179D01*
Y006084D01*
X014159D01*
Y006027D01*
X014179D01*
Y006046D01*
X014236D01*
Y006027D01*
X014198D01*
Y006007D01*
X014159D01*
Y005988D01*
X01414D01*
Y005969D01*
X014159D01*
Y005931D01*
X014179D01*
Y005912D01*
X014198D01*
Y005892D01*
X014217D01*
Y005873D01*
X014236D01*
Y005854D01*
X014255D01*
Y005816D01*
X014274D01*
Y005797D01*
X014294D01*
Y005777D01*
X014313D01*
Y005758D01*
X014332D01*
Y005739D01*
X01437D01*
Y00572D01*
X014389D01*
Y005701D01*
X014409D01*
Y005663D01*
X014428D01*
Y005643D01*
X014409D01*
Y005663D01*
X014389D01*
Y005682D01*
X01437D01*
Y005701D01*
X014351D01*
Y00572D01*
X014332D01*
Y005739D01*
X014313D01*
Y005758D01*
X014294D01*
Y005777D01*
X014255D01*
Y00572D01*
X014236D01*
Y005663D01*
X014255D01*
Y005643D01*
X014351D01*
Y005624D01*
X014389D01*
Y005605D01*
X014428D01*
Y005624D01*
X014447D01*
Y005586D01*
X014389D01*
Y005605D01*
X014332D01*
Y005624D01*
X014274D01*
Y005586D01*
X014294D01*
Y005567D01*
X014274D01*
Y005586D01*
X014255D01*
Y005605D01*
X014236D01*
Y005624D01*
X014217D01*
Y005643D01*
X014198D01*
Y005663D01*
X014179D01*
Y005682D01*
X014159D01*
Y00572D01*
X01414D01*
Y005739D01*
X014102D01*
Y005758D01*
X014083D01*
Y005739D01*
X014064D01*
Y00572D01*
X014045D01*
Y005701D01*
X014025D01*
Y005739D01*
X014045D01*
Y005758D01*
X014064D01*
Y005777D01*
X01414D01*
Y005758D01*
X014159D01*
Y005739D01*
X014179D01*
Y00572D01*
X014198D01*
Y005701D01*
X014217D01*
Y00572D01*
Y005739D01*
X014236D01*
Y005835D01*
X014217D01*
Y005854D01*
X014198D01*
Y005873D01*
X014179D01*
Y005892D01*
X014159D01*
Y005931D01*
X01414D01*
Y00595D01*
X014121D01*
Y006046D01*
X01414D01*
Y00618D01*
X014159D01*
Y006314D01*
X014179D01*
Y006505D01*
X014159D01*
Y006544D01*
X01414D01*
Y006601D01*
X014121D01*
Y00662D01*
Y00664D01*
X014102D01*
Y006659D01*
X014083D01*
Y006678D01*
Y006697D01*
X014064D01*
Y006716D01*
X014045D01*
Y006755D01*
X014025D01*
Y006774D01*
X014006D01*
Y006793D01*
X013987D01*
Y006812D01*
X013968D01*
Y006831D01*
X013949D01*
Y00685D01*
X01393D01*
Y006869D01*
X01391D01*
Y006908D01*
X013891D01*
Y006927D01*
X013872D01*
Y006946D01*
X013853D01*
Y006965D01*
X013834D01*
Y006984D01*
X013815D01*
Y007004D01*
X013795D01*
Y007023D01*
X013776D01*
Y007061D01*
X013757D01*
Y00708D01*
X013738D01*
Y007099D01*
X013719D01*
Y007119D01*
X0137D01*
Y007138D01*
X013681D01*
Y007157D01*
X013661D01*
Y007176D01*
X013642D01*
Y007195D01*
X013604D01*
Y007214D01*
X013585D01*
Y007233D01*
X013546D01*
Y007214D01*
X013566D01*
Y007176D01*
X013585D01*
Y007138D01*
X013566D01*
Y007157D01*
X013546D01*
Y007195D01*
X013527D01*
Y007233D01*
X013508D01*
Y007272D01*
X013489D01*
Y00731D01*
X01347D01*
Y007348D01*
X013451D01*
Y007387D01*
X013431D01*
Y007425D01*
X013412D01*
Y007176D01*
X013393D01*
Y007119D01*
X013374D01*
Y007023D01*
X013355D01*
Y006946D01*
X013336D01*
Y006889D01*
X013317D01*
Y00685D01*
X013297D01*
Y006812D01*
X013278D01*
Y006869D01*
X013297D01*
Y006927D01*
X013317D01*
Y007004D01*
X013336D01*
Y007099D01*
X013355D01*
Y007483D01*
X013336D01*
Y007578D01*
X013317D01*
Y007655D01*
X013297D01*
Y007712D01*
X013278D01*
Y007751D01*
X013259D01*
Y007808D01*
X01324D01*
Y007847D01*
X013221D01*
Y007885D01*
X013202D01*
Y007923D01*
X013182D01*
Y007961D01*
X013163D01*
Y007981D01*
X013144D01*
Y008019D01*
X013125D01*
Y008038D01*
X013106D01*
Y008076D01*
X013087D01*
Y008096D01*
X013067D01*
Y008134D01*
X013048D01*
Y008153D01*
X013029D01*
Y008172D01*
X01301D01*
Y008191D01*
X012991D01*
Y008211D01*
X012972D01*
Y00823D01*
X012953D01*
Y008249D01*
X012933D01*
Y008268D01*
X012914D01*
Y008287D01*
X012895D01*
Y008306D01*
X012876D01*
Y008325D01*
X012838D01*
Y008345D01*
X012818D01*
Y008364D01*
X012799D01*
Y008383D01*
X012761D01*
Y008402D01*
X012723D01*
Y008421D01*
X012684D01*
Y00844D01*
X012608D01*
Y00846D01*
X012531D01*
Y008479D01*
X012378D01*
Y00846D01*
X012282D01*
Y00844D01*
X012205D01*
Y00846D01*
X012244D01*
Y008479D01*
X012339D01*
Y008498D01*
X012569D01*
Y008479D01*
X012646D01*
Y00846D01*
X012684D01*
Y00844D01*
X012742D01*
Y008421D01*
X01278D01*
Y008402D01*
X012799D01*
Y008383D01*
X012838D01*
Y008364D01*
X012876D01*
Y008345D01*
X012895D01*
Y008325D01*
X012914D01*
Y008306D01*
X012933D01*
Y008287D01*
X012953D01*
Y008268D01*
X012972D01*
Y008249D01*
X012991D01*
Y00823D01*
X013029D01*
Y008191D01*
X013048D01*
Y008172D01*
X013067D01*
Y008153D01*
X013087D01*
Y008134D01*
X013106D01*
Y008096D01*
X013125D01*
Y008076D01*
X013144D01*
Y008038D01*
X013163D01*
Y008019D01*
X013182D01*
Y007981D01*
X013202D01*
Y007942D01*
X013221D01*
Y007904D01*
X01324D01*
Y007866D01*
X013259D01*
Y007827D01*
X013278D01*
Y00777D01*
X013297D01*
Y007732D01*
X013317D01*
Y007674D01*
X013336D01*
Y007751D01*
X013317D01*
Y007808D01*
X013297D01*
Y007847D01*
X013278D01*
Y007923D01*
X013259D01*
Y007961D01*
X01324D01*
Y008019D01*
X013221D01*
Y008057D01*
X013202D01*
Y008115D01*
X013182D01*
Y008172D01*
X013163D01*
Y008211D01*
X013144D01*
Y008249D01*
X013125D01*
Y008287D01*
X013106D01*
Y008325D01*
X013087D01*
Y008364D01*
X013067D01*
Y008402D01*
X013048D01*
Y00846D01*
X013067D01*
Y00844D01*
X013087D01*
Y008402D01*
X013106D01*
Y00844D01*
X013125D01*
Y008479D01*
X013144D01*
Y008498D01*
X013163D01*
Y008517D01*
X013182D01*
Y008536D01*
X013221D01*
Y008555D01*
X013374D01*
Y008575D01*
X01347D01*
Y008594D01*
X013546D01*
Y008613D01*
X013566D01*
Y008594D01*
D02*
G37*
G36*
X011918Y008268D02*
X011899D01*
Y008249D01*
X011861D01*
Y008268D01*
X01188D01*
Y008287D01*
X011918D01*
Y008268D01*
D02*
G37*
G36*
X01027Y008345D02*
X010232D01*
Y008325D01*
X010194D01*
Y008306D01*
X010175D01*
Y008287D01*
X010155D01*
Y008268D01*
X010136D01*
Y008249D01*
X010117D01*
Y008287D01*
X010136D01*
Y008306D01*
X010155D01*
Y008325D01*
X010175D01*
Y008345D01*
X010213D01*
Y008364D01*
X01027D01*
Y008345D01*
D02*
G37*
G36*
X010117Y00823D02*
X010098D01*
Y008249D01*
X010117D01*
Y00823D01*
D02*
G37*
G36*
X015271Y008211D02*
X015251D01*
Y00823D01*
X015271D01*
Y008211D01*
D02*
G37*
G36*
X01391D02*
X013891D01*
Y00823D01*
X01391D01*
Y008211D01*
D02*
G37*
G36*
X010098D02*
X01006D01*
Y00823D01*
X010098D01*
Y008211D01*
D02*
G37*
G36*
X01006Y008191D02*
X010041D01*
Y008211D01*
X01006D01*
Y008191D01*
D02*
G37*
G36*
X013891Y008172D02*
X013872D01*
Y008191D01*
Y008211D01*
X013891D01*
Y008172D01*
D02*
G37*
G36*
X015251Y008153D02*
X015232D01*
Y008172D01*
Y008191D01*
Y008211D01*
X015251D01*
Y008153D01*
D02*
G37*
G36*
X015309Y008115D02*
X01529D01*
Y008134D01*
X015309D01*
Y008115D01*
D02*
G37*
G36*
X013872Y008134D02*
X013853D01*
Y008115D01*
X013815D01*
Y008134D01*
X013834D01*
Y008153D01*
X013853D01*
Y008172D01*
X013872D01*
Y008134D01*
D02*
G37*
G36*
X011286Y008153D02*
Y008134D01*
X011267D01*
Y008115D01*
X011247D01*
Y008153D01*
X011267D01*
Y008172D01*
X011286D01*
Y008153D01*
D02*
G37*
G36*
X010194Y008115D02*
X010175D01*
Y008134D01*
X010194D01*
Y008115D01*
D02*
G37*
G36*
X013815Y008096D02*
X013795D01*
Y008115D01*
X013815D01*
Y008096D01*
D02*
G37*
G36*
X011861Y00823D02*
X011841D01*
Y008211D01*
X011822D01*
Y008191D01*
X011803D01*
Y008172D01*
X011784D01*
Y008153D01*
X011765D01*
Y008134D01*
X011746D01*
Y008115D01*
X011726D01*
Y008096D01*
X011707D01*
Y008134D01*
X011726D01*
Y008153D01*
X011746D01*
Y008172D01*
X011765D01*
Y008191D01*
X011784D01*
Y008211D01*
X011803D01*
Y00823D01*
X011822D01*
Y008249D01*
X011861D01*
Y00823D01*
D02*
G37*
G36*
X011247Y008096D02*
X011228D01*
Y008115D01*
X011247D01*
Y008096D01*
D02*
G37*
G36*
X010769Y008364D02*
X010749D01*
Y008345D01*
X01073D01*
Y008306D01*
X010749D01*
Y008268D01*
X010769D01*
Y008249D01*
X010788D01*
Y00823D01*
X010807D01*
Y008211D01*
X010826D01*
Y008191D01*
X010845D01*
Y008153D01*
X010864D01*
Y008096D01*
X010845D01*
Y008134D01*
X010826D01*
Y008172D01*
X010807D01*
Y008191D01*
X010788D01*
Y008211D01*
X010769D01*
Y00823D01*
X010749D01*
Y008249D01*
X01073D01*
Y008306D01*
X010711D01*
Y008364D01*
X01073D01*
Y008383D01*
X010749D01*
Y008402D01*
X010769D01*
Y008364D01*
D02*
G37*
G36*
X014255Y008134D02*
X014274D01*
Y008115D01*
Y008076D01*
X014255D01*
Y008115D01*
X014236D01*
Y008153D01*
X014255D01*
Y008134D01*
D02*
G37*
G36*
X013795Y008076D02*
X013776D01*
Y008096D01*
X013795D01*
Y008076D01*
D02*
G37*
G36*
X01006D02*
X010041D01*
Y008096D01*
X01006D01*
Y008076D01*
D02*
G37*
G36*
X010213Y008249D02*
X010232D01*
Y008211D01*
X010251D01*
Y008191D01*
X01027D01*
Y008172D01*
X01029D01*
Y008153D01*
X010309D01*
Y008057D01*
X01029D01*
Y008134D01*
X01027D01*
Y008153D01*
X010251D01*
Y008134D01*
X010194D01*
Y008153D01*
X010232D01*
Y008172D01*
X010251D01*
Y008191D01*
X010232D01*
Y008211D01*
X010213D01*
Y00823D01*
X010194D01*
Y008287D01*
X010213D01*
Y008249D01*
D02*
G37*
G36*
X011228Y008057D02*
X011209D01*
Y008038D01*
X01119D01*
Y008076D01*
X011209D01*
Y008096D01*
X011228D01*
Y008057D01*
D02*
G37*
G36*
X010041Y008172D02*
X010021D01*
Y008134D01*
X010002D01*
Y008115D01*
X010021D01*
Y008057D01*
X010136D01*
Y008115D01*
X010175D01*
Y008076D01*
X010155D01*
Y008019D01*
X010136D01*
Y008038D01*
X010117D01*
Y008019D01*
X010098D01*
Y008D01*
X010117D01*
Y007981D01*
X010155D01*
Y007961D01*
X010117D01*
Y007981D01*
X010079D01*
Y008D01*
X01006D01*
Y008019D01*
X010021D01*
Y008038D01*
X010002D01*
Y008057D01*
X009983D01*
Y008153D01*
X010002D01*
Y008191D01*
X010041D01*
Y008172D01*
D02*
G37*
G36*
X015462Y008D02*
X015443D01*
Y008019D01*
X015462D01*
Y008D01*
D02*
G37*
G36*
X011707Y008057D02*
X011688D01*
Y008038D01*
X011669D01*
Y008019D01*
X01165D01*
Y008D01*
X011631D01*
Y008038D01*
X01165D01*
Y008057D01*
X011669D01*
Y008076D01*
X011688D01*
Y008096D01*
X011707D01*
Y008057D01*
D02*
G37*
G36*
X0105Y008D02*
X010481D01*
Y008019D01*
X0105D01*
Y008D01*
D02*
G37*
G36*
X01029D02*
X01027D01*
Y008057D01*
X01029D01*
Y008D01*
D02*
G37*
G36*
X015386Y008115D02*
Y008096D01*
Y008D01*
X015366D01*
Y007981D01*
X015347D01*
Y008096D01*
X015366D01*
Y008134D01*
X015347D01*
Y008153D01*
X015386D01*
Y008115D01*
D02*
G37*
G36*
X01119Y008019D02*
Y008D01*
X011171D01*
Y007981D01*
X011152D01*
Y008019D01*
X011171D01*
Y008038D01*
X01119D01*
Y008019D01*
D02*
G37*
G36*
X01027Y007981D02*
X010251D01*
Y008D01*
X01027D01*
Y007981D01*
D02*
G37*
G36*
X015443Y007961D02*
X015424D01*
Y007981D01*
Y008D01*
X015443D01*
Y007961D01*
D02*
G37*
G36*
X013776D02*
X013757D01*
Y008076D01*
X013776D01*
Y007961D01*
D02*
G37*
G36*
X013968Y007942D02*
X013949D01*
Y007961D01*
X013968D01*
Y007942D01*
D02*
G37*
G36*
X011152D02*
X011133D01*
Y007981D01*
X011152D01*
Y007942D01*
D02*
G37*
G36*
X010481Y007961D02*
X010462D01*
Y007942D01*
X010443D01*
Y007981D01*
X010462D01*
Y008D01*
X010481D01*
Y007961D01*
D02*
G37*
G36*
X013949Y007904D02*
X01393D01*
Y007942D01*
X013949D01*
Y007904D01*
D02*
G37*
G36*
X011631Y007961D02*
X011611D01*
Y007923D01*
X011592D01*
Y007904D01*
X011573D01*
Y007942D01*
X011592D01*
Y007981D01*
X011611D01*
Y008D01*
X011631D01*
Y007961D01*
D02*
G37*
G36*
X01552Y008038D02*
Y008019D01*
Y007885D01*
X015501D01*
Y007981D01*
X015481D01*
Y008D01*
X015501D01*
Y008019D01*
X015481D01*
Y008038D01*
X015501D01*
Y008076D01*
X01552D01*
Y008038D01*
D02*
G37*
G36*
X015481Y007885D02*
Y007866D01*
X015462D01*
Y007904D01*
X015481D01*
Y007885D01*
D02*
G37*
G36*
X014523Y007866D02*
X014504D01*
Y007885D01*
X014523D01*
Y007866D01*
D02*
G37*
G36*
X01393Y007885D02*
Y007866D01*
X01391D01*
Y007904D01*
X01393D01*
Y007885D01*
D02*
G37*
G36*
X015615Y007847D02*
X015596D01*
Y007904D01*
X015615D01*
Y007847D01*
D02*
G37*
G36*
X010845Y007923D02*
X010864D01*
Y007904D01*
X010845D01*
Y007847D01*
X010826D01*
Y007827D01*
X010807D01*
Y007847D01*
X010788D01*
Y007827D01*
X010807D01*
Y007808D01*
X010769D01*
Y007827D01*
X01073D01*
Y007847D01*
X010711D01*
Y007866D01*
X010692D01*
Y007885D01*
X01073D01*
Y007866D01*
X010749D01*
Y007847D01*
X010769D01*
Y007866D01*
X010826D01*
Y008076D01*
X010845D01*
Y007923D01*
D02*
G37*
G36*
X011573Y007866D02*
X011554D01*
Y007827D01*
X011535D01*
Y007885D01*
X011554D01*
Y007904D01*
X011573D01*
Y007866D01*
D02*
G37*
G36*
X015194Y00777D02*
X015175D01*
Y007789D01*
X015194D01*
Y00777D01*
D02*
G37*
G36*
X013757Y007923D02*
X013776D01*
Y007904D01*
X013795D01*
Y007885D01*
X013815D01*
Y007866D01*
X013795D01*
Y007847D01*
X013891D01*
Y007866D01*
X01391D01*
Y00777D01*
X013891D01*
Y007827D01*
X013872D01*
Y007808D01*
X013834D01*
Y007789D01*
X013853D01*
Y00777D01*
X013891D01*
Y007751D01*
X013853D01*
Y00777D01*
X013815D01*
Y007789D01*
X013795D01*
Y007808D01*
X013776D01*
Y007827D01*
X013757D01*
Y007847D01*
X013738D01*
Y007866D01*
X013719D01*
Y007904D01*
X013738D01*
Y007961D01*
X013757D01*
Y007923D01*
D02*
G37*
G36*
X010558Y008038D02*
X010615D01*
Y008019D01*
X010654D01*
Y007961D01*
X010673D01*
Y007847D01*
X010692D01*
Y007827D01*
X01073D01*
Y007808D01*
X010769D01*
Y007789D01*
X01073D01*
Y00777D01*
X010711D01*
Y007789D01*
X010692D01*
Y007808D01*
X010654D01*
Y007961D01*
X010634D01*
Y008D01*
X010596D01*
Y008019D01*
X010558D01*
Y008038D01*
X010539D01*
Y008019D01*
X0105D01*
Y008038D01*
X010519D01*
Y008057D01*
X010558D01*
Y008038D01*
D02*
G37*
G36*
X010673Y00777D02*
X010634D01*
Y007789D01*
X010673D01*
Y00777D01*
D02*
G37*
G36*
X010251Y007904D02*
X01027D01*
Y007885D01*
X010366D01*
Y007866D01*
X010385D01*
Y007847D01*
X010405D01*
Y007904D01*
X010424D01*
Y007942D01*
X010443D01*
Y007904D01*
Y007885D01*
X010424D01*
Y007808D01*
X010443D01*
Y00777D01*
X010309D01*
Y007789D01*
X01027D01*
Y007808D01*
X010251D01*
Y007827D01*
X010232D01*
Y007981D01*
X010251D01*
Y007904D01*
D02*
G37*
G36*
X011535Y007789D02*
X011516D01*
Y007751D01*
X011497D01*
Y007808D01*
X011516D01*
Y007827D01*
X011535D01*
Y007789D01*
D02*
G37*
G36*
X015405Y007732D02*
X015386D01*
Y007751D01*
X015366D01*
Y007808D01*
X015405D01*
Y007732D01*
D02*
G37*
G36*
X011133Y007904D02*
X011113D01*
Y007866D01*
X011094D01*
Y007827D01*
X011075D01*
Y007789D01*
X011056D01*
Y007751D01*
X011037D01*
Y007712D01*
X011018D01*
Y00777D01*
X011037D01*
Y007808D01*
X011056D01*
Y007847D01*
X011075D01*
Y007885D01*
X011094D01*
Y007923D01*
X011113D01*
Y007942D01*
X011133D01*
Y007904D01*
D02*
G37*
G36*
X015558Y007693D02*
X015539D01*
Y007712D01*
X015558D01*
Y007693D01*
D02*
G37*
G36*
X014064Y007961D02*
X014083D01*
Y007942D01*
X014102D01*
Y007904D01*
X014121D01*
Y007885D01*
Y007866D01*
X01414D01*
Y00777D01*
X014159D01*
Y007732D01*
X014198D01*
Y007712D01*
X014217D01*
Y007732D01*
X014198D01*
Y007751D01*
X014179D01*
Y00777D01*
X014159D01*
Y007808D01*
X014179D01*
Y007789D01*
X014198D01*
Y00777D01*
X014236D01*
Y007751D01*
X014274D01*
Y007732D01*
X014294D01*
Y007712D01*
X014274D01*
Y007693D01*
X014159D01*
Y007712D01*
X01414D01*
Y007732D01*
X014121D01*
Y007693D01*
X014159D01*
Y007674D01*
X014102D01*
Y007751D01*
X014121D01*
Y00777D01*
X014102D01*
Y007827D01*
X014121D01*
Y007847D01*
Y007866D01*
X014102D01*
Y007904D01*
X014083D01*
Y007923D01*
X014064D01*
Y007942D01*
X014045D01*
Y007961D01*
X013968D01*
Y007981D01*
X014064D01*
Y007961D01*
D02*
G37*
G36*
X01575Y007655D02*
X015711D01*
Y007674D01*
X01575D01*
Y007655D01*
D02*
G37*
G36*
X015194Y007617D02*
X015137D01*
Y007559D01*
X015117D01*
Y007655D01*
X015137D01*
Y007636D01*
X015175D01*
Y007655D01*
X015194D01*
Y007617D01*
D02*
G37*
G36*
X01573D02*
X015711D01*
Y007636D01*
X01573D01*
Y007617D01*
D02*
G37*
G36*
X015711Y007597D02*
X015673D01*
Y007578D01*
X015635D01*
Y007597D01*
X015654D01*
Y007617D01*
X015711D01*
Y007597D01*
D02*
G37*
G36*
X015079Y007578D02*
X01506D01*
Y007597D01*
X015079D01*
Y007578D01*
D02*
G37*
G36*
X011018Y007674D02*
X010998D01*
Y007617D01*
X01096D01*
Y007597D01*
X010922D01*
Y007578D01*
X010883D01*
Y007597D01*
X010903D01*
Y007617D01*
X010941D01*
Y007636D01*
X01096D01*
Y007674D01*
X010979D01*
Y007693D01*
X010998D01*
Y007712D01*
X011018D01*
Y007674D01*
D02*
G37*
G36*
X015788Y007617D02*
X015807D01*
Y007597D01*
Y007559D01*
X015788D01*
Y007597D01*
X015769D01*
Y007655D01*
X015788D01*
Y007617D01*
D02*
G37*
G36*
X015213Y007559D02*
X015194D01*
Y007597D01*
X015213D01*
Y007559D01*
D02*
G37*
G36*
X010883D02*
X010845D01*
Y007578D01*
X010883D01*
Y007559D01*
D02*
G37*
G36*
X015788Y00754D02*
X015769D01*
Y007559D01*
X015788D01*
Y00754D01*
D02*
G37*
G36*
X015117D02*
X015098D01*
Y007559D01*
X015117D01*
Y00754D01*
D02*
G37*
G36*
X01506D02*
X015041D01*
Y007578D01*
X01506D01*
Y00754D01*
D02*
G37*
G36*
X010845D02*
X010826D01*
Y007559D01*
X010845D01*
Y00754D01*
D02*
G37*
G36*
X015769Y007521D02*
X01575D01*
Y007502D01*
X01573D01*
Y00754D01*
X015769D01*
Y007521D01*
D02*
G37*
G36*
X010826D02*
X010807D01*
Y007502D01*
X010769D01*
Y007521D01*
X010788D01*
Y00754D01*
X010826D01*
Y007521D01*
D02*
G37*
G36*
X010769Y007483D02*
X010749D01*
Y007502D01*
X010769D01*
Y007483D01*
D02*
G37*
G36*
X015635Y007559D02*
X015615D01*
Y00754D01*
Y007521D01*
Y007444D01*
X015596D01*
Y00754D01*
X015577D01*
Y007559D01*
X015596D01*
Y007578D01*
X015635D01*
Y007559D01*
D02*
G37*
G36*
X01529Y007502D02*
X015309D01*
Y007425D01*
X01529D01*
Y007444D01*
X015271D01*
Y007463D01*
Y007483D01*
Y007521D01*
X01529D01*
Y007502D01*
D02*
G37*
G36*
X015232Y007483D02*
X015251D01*
Y007444D01*
X015271D01*
Y007425D01*
X015232D01*
Y007463D01*
X015213D01*
Y00754D01*
X015232D01*
Y007483D01*
D02*
G37*
G36*
X015865Y007406D02*
X015845D01*
Y007425D01*
X015865D01*
Y007406D01*
D02*
G37*
G36*
X010749Y007463D02*
X01073D01*
Y007444D01*
X010711D01*
Y007425D01*
X010692D01*
Y007406D01*
X010673D01*
Y007387D01*
X010654D01*
Y007425D01*
X010673D01*
Y007444D01*
X010692D01*
Y007463D01*
X010711D01*
Y007483D01*
X010749D01*
Y007463D01*
D02*
G37*
G36*
X015826Y007348D02*
X015807D01*
Y007368D01*
X015826D01*
Y007348D01*
D02*
G37*
G36*
X015807Y007291D02*
X015788D01*
Y00731D01*
X01575D01*
Y007348D01*
X015769D01*
Y007329D01*
X015788D01*
Y007348D01*
X015807D01*
Y007291D01*
D02*
G37*
G36*
X010654Y007348D02*
X010634D01*
Y007329D01*
X010615D01*
Y00731D01*
X010596D01*
Y007348D01*
X010615D01*
Y007368D01*
X010634D01*
Y007387D01*
X010654D01*
Y007348D01*
D02*
G37*
G36*
X015807Y007214D02*
X015788D01*
Y007233D01*
Y007253D01*
X015807D01*
Y007214D01*
D02*
G37*
G36*
X015788Y007195D02*
X015769D01*
Y007214D01*
X015788D01*
Y007195D01*
D02*
G37*
G36*
X009696Y007253D02*
X009638D01*
Y007233D01*
X0096D01*
Y007214D01*
X009562D01*
Y007195D01*
X009523D01*
Y007176D01*
X009485D01*
Y007195D01*
X009504D01*
Y007214D01*
X009542D01*
Y007233D01*
X009581D01*
Y007253D01*
X009619D01*
Y007272D01*
X009696D01*
Y007253D01*
D02*
G37*
G36*
X009485Y007157D02*
X009466D01*
Y007138D01*
X009427D01*
Y007157D01*
X009447D01*
Y007176D01*
X009485D01*
Y007157D01*
D02*
G37*
G36*
X015615Y007119D02*
X015596D01*
Y007138D01*
X015615D01*
Y007119D01*
D02*
G37*
G36*
X015596Y007099D02*
X015577D01*
Y007119D01*
X015596D01*
Y007099D01*
D02*
G37*
G36*
X009427Y007119D02*
X009408D01*
Y007099D01*
X009389D01*
Y00708D01*
X009351D01*
Y007099D01*
X00937D01*
Y007119D01*
X009389D01*
Y007138D01*
X009427D01*
Y007119D01*
D02*
G37*
G36*
X015577Y007061D02*
X015558D01*
Y00708D01*
Y007099D01*
X015577D01*
Y007061D01*
D02*
G37*
G36*
X015558Y007042D02*
X015539D01*
Y007061D01*
X015558D01*
Y007042D01*
D02*
G37*
G36*
X01552Y007023D02*
X015481D01*
Y007042D01*
X01552D01*
Y007023D01*
D02*
G37*
G36*
X015481Y007004D02*
X015443D01*
Y007023D01*
X015481D01*
Y007004D01*
D02*
G37*
G36*
X009696Y007023D02*
X009657D01*
Y007004D01*
X009542D01*
Y006984D01*
X009504D01*
Y007004D01*
X009523D01*
Y007023D01*
X009562D01*
Y007042D01*
X009696D01*
Y007023D01*
D02*
G37*
G36*
X009351Y007061D02*
X009332D01*
Y007042D01*
X009313D01*
Y007023D01*
X009293D01*
Y007004D01*
X009274D01*
Y006984D01*
X009255D01*
Y006965D01*
X009236D01*
Y006946D01*
X009217D01*
Y006927D01*
X009198D01*
Y006965D01*
X009217D01*
Y006984D01*
X009236D01*
Y007004D01*
X009255D01*
Y007023D01*
X009274D01*
Y007042D01*
X009293D01*
Y007061D01*
X009313D01*
Y00708D01*
X009351D01*
Y007061D01*
D02*
G37*
G36*
X015271Y006927D02*
X015251D01*
Y006908D01*
X015232D01*
Y006889D01*
X015213D01*
Y006869D01*
X015194D01*
Y00685D01*
X015175D01*
Y006889D01*
X015194D01*
Y006908D01*
X015213D01*
Y006927D01*
X015232D01*
Y006946D01*
X015251D01*
Y006965D01*
X015271D01*
Y006927D01*
D02*
G37*
G36*
X015175Y006831D02*
X015156D01*
Y00685D01*
X015175D01*
Y006831D01*
D02*
G37*
G36*
X015156Y006812D02*
X015137D01*
Y006793D01*
X015117D01*
Y006774D01*
X015098D01*
Y006755D01*
X015079D01*
Y006735D01*
X015041D01*
Y006755D01*
X01506D01*
Y006774D01*
X015079D01*
Y006793D01*
X015098D01*
Y006812D01*
X015117D01*
Y006831D01*
X015156D01*
Y006812D01*
D02*
G37*
G36*
X015041Y006716D02*
X015022D01*
Y006697D01*
X014983D01*
Y006716D01*
X015002D01*
Y006735D01*
X015041D01*
Y006716D01*
D02*
G37*
G36*
X013278Y006755D02*
X013259D01*
Y006716D01*
X01324D01*
Y006697D01*
X013221D01*
Y006716D01*
Y006735D01*
X01324D01*
Y006774D01*
X013259D01*
Y006793D01*
X013278D01*
Y006755D01*
D02*
G37*
G36*
X015194Y006678D02*
X015175D01*
Y006697D01*
X015194D01*
Y006678D01*
D02*
G37*
G36*
X009198Y006889D02*
X009178D01*
Y006869D01*
X009159D01*
Y00685D01*
X00914D01*
Y006812D01*
X009121D01*
Y006793D01*
X009102D01*
Y006774D01*
X009083D01*
Y006735D01*
X009063D01*
Y006716D01*
X009044D01*
Y006678D01*
X009025D01*
Y006659D01*
X009006D01*
Y006697D01*
X009025D01*
Y006735D01*
X009044D01*
Y006755D01*
X009063D01*
Y006793D01*
X009083D01*
Y006812D01*
X009102D01*
Y006831D01*
X009121D01*
Y006869D01*
X00914D01*
Y006889D01*
X009159D01*
Y006908D01*
X009178D01*
Y006927D01*
X009198D01*
Y006889D01*
D02*
G37*
G36*
X013221Y006659D02*
X013202D01*
Y00664D01*
X013182D01*
Y006678D01*
X013202D01*
Y006697D01*
X013221D01*
Y006659D01*
D02*
G37*
G36*
X013182Y006601D02*
X013163D01*
Y006582D01*
X013144D01*
Y006563D01*
X013125D01*
Y006601D01*
X013144D01*
Y00662D01*
X013163D01*
Y00664D01*
X013182D01*
Y006601D01*
D02*
G37*
G36*
X013125Y006544D02*
X013106D01*
Y006563D01*
X013125D01*
Y006544D01*
D02*
G37*
G36*
X015117Y006563D02*
X015098D01*
Y006544D01*
X015079D01*
Y006525D01*
X01506D01*
Y006563D01*
X015079D01*
Y006582D01*
X015098D01*
Y006601D01*
X015117D01*
Y006563D01*
D02*
G37*
G36*
X014868Y006525D02*
X014849D01*
Y006544D01*
X014868D01*
Y006525D01*
D02*
G37*
G36*
X013106D02*
X013087D01*
Y006544D01*
X013106D01*
Y006525D01*
D02*
G37*
G36*
X01414Y006486D02*
X014121D01*
Y006525D01*
X01414D01*
Y006486D01*
D02*
G37*
G36*
X01006Y007329D02*
X010194D01*
Y00731D01*
X01029D01*
Y007291D01*
X010366D01*
Y007272D01*
X010443D01*
Y007253D01*
X010539D01*
Y007272D01*
X010558D01*
Y007291D01*
X010577D01*
Y00731D01*
X010596D01*
Y007272D01*
X010577D01*
Y007253D01*
X010558D01*
Y007214D01*
X010539D01*
Y007195D01*
X010519D01*
Y007176D01*
X0105D01*
Y007138D01*
X010481D01*
Y007119D01*
X010462D01*
Y00708D01*
X010443D01*
Y007061D01*
X010424D01*
Y007023D01*
X010405D01*
Y007004D01*
X010385D01*
Y006965D01*
X010366D01*
Y006927D01*
X010347D01*
Y006908D01*
X010328D01*
Y00685D01*
X010309D01*
Y006812D01*
X01029D01*
Y006755D01*
X01027D01*
Y006697D01*
X010251D01*
Y00664D01*
X010232D01*
Y006544D01*
X010213D01*
Y006486D01*
X010194D01*
Y006429D01*
X010175D01*
Y006333D01*
X010155D01*
Y006256D01*
X010136D01*
Y006103D01*
X010117D01*
Y006027D01*
X010098D01*
Y00595D01*
X010079D01*
Y005912D01*
X01006D01*
Y005854D01*
X010041D01*
Y005816D01*
X010021D01*
Y005777D01*
X010002D01*
Y005835D01*
X009983D01*
Y005816D01*
X009868D01*
Y005797D01*
X009696D01*
Y005777D01*
X009581D01*
Y005797D01*
X009466D01*
Y005816D01*
X009408D01*
Y005835D01*
X00937D01*
Y005854D01*
X009332D01*
Y005873D01*
X009313D01*
Y005892D01*
X009274D01*
Y005912D01*
X009255D01*
Y005931D01*
X009217D01*
Y00595D01*
X009198D01*
Y005969D01*
X009178D01*
Y005988D01*
X009159D01*
Y006007D01*
X009121D01*
Y006027D01*
X009102D01*
Y006046D01*
X009083D01*
Y006065D01*
X009063D01*
Y006103D01*
X009044D01*
Y006122D01*
X009025D01*
Y006141D01*
Y006161D01*
X009006D01*
Y00618D01*
X008987D01*
Y006199D01*
X008968D01*
Y006237D01*
X008949D01*
Y006276D01*
X008929D01*
Y006314D01*
X00891D01*
Y006467D01*
X008929D01*
Y006563D01*
X008949D01*
Y006601D01*
X008968D01*
Y00664D01*
X008987D01*
Y006659D01*
X009006D01*
Y00662D01*
X008987D01*
Y006582D01*
X008968D01*
Y006525D01*
X008949D01*
Y00641D01*
X008968D01*
Y006467D01*
X009006D01*
Y006448D01*
X009025D01*
Y006429D01*
X009063D01*
Y00641D01*
X00914D01*
Y006391D01*
X009408D01*
Y00641D01*
X009466D01*
Y006429D01*
X009542D01*
Y006448D01*
X0096D01*
Y006467D01*
X009677D01*
Y006486D01*
X009734D01*
Y006505D01*
X009811D01*
Y006525D01*
X009868D01*
Y006544D01*
X009926D01*
Y006563D01*
X009964D01*
Y006582D01*
X010021D01*
Y006601D01*
X01006D01*
Y00662D01*
X010117D01*
Y00664D01*
X010155D01*
Y006659D01*
X010213D01*
Y006716D01*
X010232D01*
Y006755D01*
X010251D01*
Y006812D01*
X01027D01*
Y006869D01*
X01029D01*
Y006908D01*
X010309D01*
Y006946D01*
X010328D01*
Y006984D01*
X010347D01*
Y007004D01*
X010366D01*
Y007023D01*
X010385D01*
Y007042D01*
X010347D01*
Y007023D01*
X010309D01*
Y007004D01*
X010232D01*
Y006984D01*
X010155D01*
Y006965D01*
X010041D01*
Y006946D01*
X009696D01*
Y006965D01*
X009677D01*
Y006946D01*
X0096D01*
Y006965D01*
X009619D01*
Y006984D01*
X00983D01*
Y007004D01*
X009734D01*
Y007023D01*
X009715D01*
Y007042D01*
X009849D01*
Y007023D01*
X009887D01*
Y007004D01*
X009926D01*
Y006984D01*
X010021D01*
Y007004D01*
X009926D01*
Y007023D01*
X009887D01*
Y007061D01*
X009906D01*
Y007195D01*
X009887D01*
Y007233D01*
X009868D01*
Y007253D01*
X009849D01*
Y007272D01*
X00983D01*
Y007291D01*
X009753D01*
Y007272D01*
X009696D01*
Y007291D01*
X009734D01*
Y00731D01*
X009791D01*
Y007329D01*
X009906D01*
Y007348D01*
X01006D01*
Y007329D01*
D02*
G37*
G36*
X01506Y006486D02*
X015041D01*
Y006467D01*
X015022D01*
Y006448D01*
X015002D01*
Y00641D01*
X014983D01*
Y006391D01*
X014964D01*
Y006371D01*
X014945D01*
Y006352D01*
X014907D01*
Y006371D01*
X014926D01*
Y006391D01*
X014945D01*
Y00641D01*
X014964D01*
Y006429D01*
X014983D01*
Y006467D01*
X015002D01*
Y006486D01*
X015022D01*
Y006505D01*
X015041D01*
Y006525D01*
X01506D01*
Y006486D01*
D02*
G37*
G36*
X010385Y006505D02*
Y006486D01*
Y006391D01*
X010405D01*
Y006333D01*
X010385D01*
Y006371D01*
X010366D01*
Y00641D01*
X010347D01*
Y006525D01*
X010366D01*
Y006544D01*
X010385D01*
Y006505D01*
D02*
G37*
G36*
X014907Y006333D02*
X014887D01*
Y006314D01*
X014849D01*
Y006333D01*
X014868D01*
Y006352D01*
X014907D01*
Y006333D01*
D02*
G37*
G36*
X0146Y006391D02*
X014543D01*
Y006371D01*
X014485D01*
Y006352D01*
X014428D01*
Y006333D01*
X01437D01*
Y006314D01*
X014274D01*
Y006295D01*
X014236D01*
Y006352D01*
X014313D01*
Y006371D01*
X014409D01*
Y006391D01*
X014523D01*
Y00641D01*
X0146D01*
Y006391D01*
D02*
G37*
G36*
X014159Y006352D02*
X01414D01*
Y006295D01*
X014121D01*
Y006276D01*
X014102D01*
Y006333D01*
X014121D01*
Y00641D01*
X01414D01*
Y006467D01*
X014159D01*
Y006352D01*
D02*
G37*
G36*
X010807Y006314D02*
X010788D01*
Y006295D01*
X010769D01*
Y006276D01*
X010749D01*
Y006256D01*
X010711D01*
Y006276D01*
X01073D01*
Y006295D01*
X010749D01*
Y006314D01*
X010769D01*
Y006333D01*
X010788D01*
Y006352D01*
X010807D01*
Y006314D01*
D02*
G37*
G36*
X013834D02*
X013853D01*
Y006276D01*
X013872D01*
Y006256D01*
X013891D01*
Y006237D01*
X013853D01*
Y006256D01*
X013834D01*
Y006295D01*
X013815D01*
Y006333D01*
X013834D01*
Y006314D01*
D02*
G37*
G36*
X014102Y006256D02*
Y006237D01*
Y006218D01*
X014083D01*
Y006276D01*
X014102D01*
Y006256D01*
D02*
G37*
G36*
X011497Y007693D02*
X011477D01*
Y007655D01*
X011458D01*
Y007578D01*
X011439D01*
Y007521D01*
X01142D01*
Y007425D01*
X011401D01*
Y007195D01*
X01142D01*
Y006735D01*
X011401D01*
Y006659D01*
X011382D01*
Y00662D01*
X011362D01*
Y006601D01*
X011343D01*
Y006563D01*
X011324D01*
Y006525D01*
X011305D01*
Y006505D01*
X011286D01*
Y006486D01*
X011267D01*
Y006467D01*
X011247D01*
Y006448D01*
X011228D01*
Y006429D01*
X011209D01*
Y00641D01*
X01119D01*
Y006391D01*
X011171D01*
Y006371D01*
X011152D01*
Y006352D01*
X011133D01*
Y006333D01*
X011113D01*
Y006314D01*
X011075D01*
Y006295D01*
X011056D01*
Y006276D01*
X011075D01*
Y006256D01*
X011133D01*
Y006237D01*
X011113D01*
Y006218D01*
X011152D01*
Y006199D01*
X011247D01*
Y00618D01*
X011324D01*
Y006161D01*
X011477D01*
Y006141D01*
X011611D01*
Y006122D01*
X011822D01*
Y006103D01*
X011841D01*
Y006084D01*
X011784D01*
Y006103D01*
X011746D01*
Y006084D01*
X01165D01*
Y006103D01*
X011516D01*
Y006122D01*
X011401D01*
Y006141D01*
X011324D01*
Y006161D01*
X011228D01*
Y00618D01*
X011133D01*
Y006199D01*
X011075D01*
Y006218D01*
X010979D01*
Y006199D01*
X01096D01*
Y00618D01*
X010941D01*
Y006161D01*
X010922D01*
Y006065D01*
X010903D01*
Y005912D01*
X011018D01*
Y005892D01*
X010903D01*
Y005873D01*
X010883D01*
Y005682D01*
X010864D01*
Y005643D01*
X010845D01*
Y005605D01*
X010826D01*
Y005663D01*
X010845D01*
Y00572D01*
X010864D01*
Y006007D01*
X010883D01*
Y006065D01*
X010864D01*
Y006046D01*
X010845D01*
Y006027D01*
X010826D01*
Y006065D01*
X010845D01*
Y006103D01*
X010864D01*
Y006122D01*
X010883D01*
Y006161D01*
X010903D01*
Y00618D01*
X010922D01*
Y006199D01*
X010941D01*
Y006218D01*
X01096D01*
Y006237D01*
X010979D01*
Y006256D01*
X010998D01*
Y006276D01*
X011018D01*
Y006295D01*
X011037D01*
Y006314D01*
X011056D01*
Y006333D01*
X011075D01*
Y006352D01*
X011113D01*
Y006371D01*
X011133D01*
Y006391D01*
X011152D01*
Y00641D01*
X011171D01*
Y006429D01*
X01119D01*
Y006448D01*
X011209D01*
Y006467D01*
X011228D01*
Y006486D01*
X011247D01*
Y006505D01*
X011267D01*
Y006525D01*
X011286D01*
Y006563D01*
X011305D01*
Y006582D01*
X011324D01*
Y00662D01*
X011343D01*
Y006659D01*
X011362D01*
Y006735D01*
X011382D01*
Y007233D01*
X011362D01*
Y007368D01*
X011382D01*
Y007483D01*
X011401D01*
Y007559D01*
X01142D01*
Y007617D01*
X011439D01*
Y007674D01*
X011458D01*
Y007712D01*
X011477D01*
Y007751D01*
X011497D01*
Y007693D01*
D02*
G37*
G36*
X014849Y006295D02*
X01483D01*
Y006276D01*
X014792D01*
Y006256D01*
X014753D01*
Y006237D01*
X014715D01*
Y006218D01*
X014677D01*
Y006199D01*
X014638D01*
Y00618D01*
X014581D01*
Y006161D01*
X014543D01*
Y006141D01*
X014485D01*
Y006122D01*
X014447D01*
Y006103D01*
X014389D01*
Y006084D01*
X014351D01*
Y006065D01*
X014294D01*
Y006046D01*
X014236D01*
Y006065D01*
X014274D01*
Y006084D01*
X014332D01*
Y006103D01*
X01437D01*
Y006122D01*
X014428D01*
Y006141D01*
X014466D01*
Y006161D01*
X014523D01*
Y00618D01*
X014562D01*
Y006199D01*
X014619D01*
Y006218D01*
X014658D01*
Y006237D01*
X014696D01*
Y006256D01*
X014734D01*
Y006276D01*
X014773D01*
Y006295D01*
X014811D01*
Y006314D01*
X014849D01*
Y006295D01*
D02*
G37*
G36*
X011956Y006027D02*
X011841D01*
Y006046D01*
X011956D01*
Y006027D01*
D02*
G37*
G36*
X011841Y006007D02*
X011746D01*
Y006027D01*
X011841D01*
Y006007D01*
D02*
G37*
G36*
X011746Y005988D02*
X011631D01*
Y006007D01*
X011746D01*
Y005988D01*
D02*
G37*
G36*
X011631Y005969D02*
X011477D01*
Y005988D01*
X011631D01*
Y005969D01*
D02*
G37*
G36*
X011477Y00595D02*
X011343D01*
Y005931D01*
X01119D01*
Y005912D01*
X011018D01*
Y005931D01*
X011171D01*
Y00595D01*
X011324D01*
Y005969D01*
X011477D01*
Y00595D01*
D02*
G37*
G36*
X013681Y005931D02*
X013795D01*
Y005912D01*
X013834D01*
Y005931D01*
X013853D01*
Y005892D01*
X013891D01*
Y005873D01*
X01391D01*
Y005892D01*
X013987D01*
Y005912D01*
X014025D01*
Y005931D01*
X014045D01*
Y005892D01*
X014025D01*
Y005873D01*
X013987D01*
Y005854D01*
X013968D01*
Y005873D01*
X01393D01*
Y005854D01*
X013815D01*
Y005873D01*
X013795D01*
Y005892D01*
X013681D01*
Y005912D01*
X013642D01*
Y005931D01*
X013623D01*
Y00595D01*
X013681D01*
Y005931D01*
D02*
G37*
G36*
X010769Y005854D02*
X010749D01*
Y005816D01*
X01073D01*
Y005797D01*
X010711D01*
Y005777D01*
X010692D01*
Y005758D01*
X010673D01*
Y005797D01*
X010692D01*
Y005816D01*
X010711D01*
Y005835D01*
X01073D01*
Y005873D01*
X010749D01*
Y005892D01*
X010769D01*
Y005854D01*
D02*
G37*
G36*
X010155Y005969D02*
X010175D01*
Y005912D01*
X010194D01*
Y005873D01*
X010213D01*
Y005854D01*
X010232D01*
Y005835D01*
X010251D01*
Y005797D01*
X01029D01*
Y005777D01*
X010328D01*
Y005758D01*
X010251D01*
Y005777D01*
X010232D01*
Y005797D01*
X010213D01*
Y005835D01*
X010194D01*
Y005854D01*
X010175D01*
Y005892D01*
X010155D01*
Y005931D01*
X010136D01*
Y005969D01*
X010117D01*
Y006007D01*
X010155D01*
Y005969D01*
D02*
G37*
G36*
X010079Y005643D02*
X01006D01*
Y005624D01*
X010041D01*
Y005605D01*
X010021D01*
Y005643D01*
X010041D01*
Y005663D01*
X01006D01*
Y005682D01*
X010079D01*
Y005643D01*
D02*
G37*
G36*
X010826Y005586D02*
X010807D01*
Y005605D01*
X010826D01*
Y005586D01*
D02*
G37*
G36*
X010807Y005567D02*
X010788D01*
Y005586D01*
X010807D01*
Y005567D01*
D02*
G37*
G36*
X014313Y005528D02*
X014294D01*
Y005548D01*
X014313D01*
Y005528D01*
D02*
G37*
G36*
X010002Y00572D02*
X009983D01*
Y005682D01*
X010002D01*
Y005605D01*
X010021D01*
Y005567D01*
X010002D01*
Y005528D01*
X009983D01*
Y005548D01*
Y005567D01*
Y005624D01*
X009964D01*
Y005739D01*
X009983D01*
Y005777D01*
X010002D01*
Y00572D01*
D02*
G37*
G36*
X010405Y005663D02*
X010424D01*
Y005643D01*
X010443D01*
Y005624D01*
X010462D01*
Y005586D01*
X010481D01*
Y00549D01*
X010462D01*
Y005471D01*
X010539D01*
Y005528D01*
X010558D01*
Y005567D01*
X010577D01*
Y005605D01*
X010596D01*
Y005643D01*
X010615D01*
Y005663D01*
X010673D01*
Y005643D01*
X010711D01*
Y005624D01*
X01073D01*
Y005586D01*
X010749D01*
Y005567D01*
X010788D01*
Y005528D01*
X010769D01*
Y00549D01*
X010749D01*
Y005528D01*
X01073D01*
Y005567D01*
X010711D01*
Y005605D01*
X010692D01*
Y005624D01*
X010634D01*
Y005605D01*
X010615D01*
Y005586D01*
X010596D01*
Y005548D01*
X010577D01*
Y005452D01*
X010596D01*
Y005413D01*
X010615D01*
Y005394D01*
X010634D01*
Y005375D01*
X010654D01*
Y005356D01*
X010673D01*
Y005337D01*
X010711D01*
Y005318D01*
X01073D01*
Y005394D01*
X010749D01*
Y005413D01*
X010769D01*
Y005375D01*
X010749D01*
Y005299D01*
X010692D01*
Y005318D01*
X010673D01*
Y005337D01*
X010654D01*
Y005356D01*
X010634D01*
Y005375D01*
X010615D01*
Y005394D01*
X010596D01*
Y005413D01*
X010558D01*
Y005433D01*
X010519D01*
Y005452D01*
X0105D01*
Y005433D01*
X010443D01*
Y005413D01*
X010405D01*
Y005433D01*
X010424D01*
Y005471D01*
X010443D01*
Y005509D01*
X010462D01*
Y005528D01*
X010443D01*
Y005605D01*
X010424D01*
Y005624D01*
X010405D01*
Y005643D01*
X010347D01*
Y005624D01*
X010328D01*
Y005605D01*
X010309D01*
Y005643D01*
X010328D01*
Y005663D01*
X010347D01*
Y005682D01*
X010405D01*
Y005663D01*
D02*
G37*
G36*
X013087Y006486D02*
X013067D01*
Y006467D01*
X013048D01*
Y006448D01*
X013029D01*
Y006429D01*
X01301D01*
Y00641D01*
X012972D01*
Y006391D01*
X012953D01*
Y006371D01*
X012933D01*
Y006352D01*
X012895D01*
Y006333D01*
X012876D01*
Y006314D01*
X012972D01*
Y006295D01*
X01301D01*
Y006276D01*
X013067D01*
Y006256D01*
X013106D01*
Y006237D01*
X013144D01*
Y006218D01*
X013202D01*
Y006199D01*
X01324D01*
Y00618D01*
X013297D01*
Y006161D01*
X013317D01*
Y006141D01*
X013336D01*
Y006103D01*
X013355D01*
Y006065D01*
X013374D01*
Y005988D01*
X013393D01*
Y005912D01*
X013412D01*
Y005777D01*
X013431D01*
Y005739D01*
X01347D01*
Y00572D01*
X013508D01*
Y005701D01*
X013566D01*
Y005682D01*
X013604D01*
Y005663D01*
X013661D01*
Y005643D01*
X013681D01*
Y005663D01*
X0137D01*
Y005682D01*
X013719D01*
Y005643D01*
X013757D01*
Y005624D01*
X013795D01*
Y005605D01*
X013834D01*
Y005586D01*
X013853D01*
Y005567D01*
X013891D01*
Y005548D01*
X01391D01*
Y005528D01*
X013949D01*
Y005509D01*
X013968D01*
Y005605D01*
X013949D01*
Y005643D01*
X01393D01*
Y005663D01*
X01391D01*
Y005701D01*
X013891D01*
Y00572D01*
X013872D01*
Y005758D01*
X013795D01*
Y005739D01*
X013776D01*
Y00572D01*
X013757D01*
Y005701D01*
X013738D01*
Y005682D01*
X013719D01*
Y00572D01*
X013738D01*
Y005739D01*
X013757D01*
Y005758D01*
X013776D01*
Y005777D01*
X013815D01*
Y005797D01*
X013872D01*
Y005777D01*
X013891D01*
Y005739D01*
X01391D01*
Y00572D01*
X01393D01*
Y005682D01*
X013949D01*
Y005663D01*
X013968D01*
Y005643D01*
X013987D01*
Y005682D01*
X014006D01*
Y005701D01*
X014025D01*
Y005663D01*
X014006D01*
Y005605D01*
X014045D01*
Y005586D01*
X014102D01*
Y005567D01*
X01414D01*
Y005548D01*
X014198D01*
Y005528D01*
X014255D01*
Y005509D01*
X014274D01*
Y00549D01*
X014313D01*
Y005509D01*
X014332D01*
Y005471D01*
Y005452D01*
X014294D01*
Y005471D01*
X014274D01*
Y00549D01*
X014236D01*
Y005509D01*
X014198D01*
Y005528D01*
X01414D01*
Y005548D01*
X014083D01*
Y005567D01*
X014045D01*
Y005586D01*
X013987D01*
Y00549D01*
X01393D01*
Y005509D01*
X01391D01*
Y005528D01*
X013891D01*
Y005548D01*
X013853D01*
Y005567D01*
X013815D01*
Y005586D01*
X013795D01*
Y005605D01*
X013757D01*
Y005624D01*
X013661D01*
Y005643D01*
X013604D01*
Y005663D01*
X013527D01*
Y005682D01*
X013489D01*
Y005701D01*
X013451D01*
Y00572D01*
X013431D01*
Y005739D01*
X013393D01*
Y005892D01*
X013374D01*
Y005912D01*
X013029D01*
Y005931D01*
X012895D01*
Y00595D01*
X012799D01*
Y005969D01*
X012703D01*
Y005988D01*
X012608D01*
Y006007D01*
X012512D01*
Y006027D01*
X012435D01*
Y006046D01*
X012378D01*
Y006065D01*
X012301D01*
Y006084D01*
X012129D01*
Y006065D01*
X012033D01*
Y006046D01*
X011956D01*
Y006065D01*
X012014D01*
Y006084D01*
X011956D01*
Y006103D01*
X012071D01*
Y006122D01*
X012263D01*
Y006141D01*
X012359D01*
Y006161D01*
X012435D01*
Y00618D01*
X012512D01*
Y006199D01*
X01255D01*
Y006218D01*
X012608D01*
Y006237D01*
X012646D01*
Y006256D01*
X012703D01*
Y006276D01*
X012742D01*
Y006295D01*
X01278D01*
Y006314D01*
X012818D01*
Y006333D01*
X012857D01*
Y006352D01*
X012876D01*
Y006371D01*
X012914D01*
Y006391D01*
X012933D01*
Y00641D01*
X012953D01*
Y006429D01*
X012972D01*
Y006448D01*
X01301D01*
Y006467D01*
X013029D01*
Y006486D01*
X013048D01*
Y006505D01*
X013067D01*
Y006525D01*
X013087D01*
Y006486D01*
D02*
G37*
G36*
X010155Y005452D02*
X010117D01*
Y005471D01*
X010155D01*
Y005452D01*
D02*
G37*
G36*
X010769Y005433D02*
X010749D01*
Y005471D01*
X010769D01*
Y005433D01*
D02*
G37*
G36*
X010117D02*
X010098D01*
Y005452D01*
X010117D01*
Y005433D01*
D02*
G37*
G36*
X010098Y005413D02*
X01006D01*
Y005433D01*
X010098D01*
Y005413D01*
D02*
G37*
G36*
X010405Y005394D02*
X010385D01*
Y005413D01*
X010405D01*
Y005394D01*
D02*
G37*
G36*
X01006D02*
X010041D01*
Y005413D01*
X01006D01*
Y005394D01*
D02*
G37*
G36*
X010385Y005375D02*
X010366D01*
Y005394D01*
X010385D01*
Y005375D01*
D02*
G37*
G36*
X010041D02*
X010021D01*
Y005394D01*
X010041D01*
Y005375D01*
D02*
G37*
G36*
X009983D02*
X010021D01*
Y005356D01*
X010002D01*
Y005337D01*
X009964D01*
Y005509D01*
X009983D01*
Y005375D01*
D02*
G37*
G36*
X010366Y005337D02*
X010347D01*
Y005318D01*
X010328D01*
Y005337D01*
Y005356D01*
X010347D01*
Y005375D01*
X010366D01*
Y005337D01*
D02*
G37*
G36*
X010136Y005682D02*
X010155D01*
Y005643D01*
X010175D01*
Y005624D01*
X010194D01*
Y005586D01*
X010213D01*
Y005509D01*
Y00549D01*
X010194D01*
Y005471D01*
X010232D01*
Y005509D01*
X010251D01*
Y005548D01*
X01027D01*
Y005586D01*
X01029D01*
Y005605D01*
X010309D01*
Y005567D01*
X01029D01*
Y005528D01*
X01027D01*
Y00549D01*
X010251D01*
Y005394D01*
X01027D01*
Y005279D01*
X01029D01*
Y005299D01*
X010309D01*
Y005318D01*
X010328D01*
Y005279D01*
X010309D01*
Y00526D01*
X01029D01*
Y005222D01*
X01027D01*
Y005241D01*
X010251D01*
Y005375D01*
X010232D01*
Y005433D01*
X010213D01*
Y005452D01*
X010175D01*
Y005471D01*
X010155D01*
Y00549D01*
X010175D01*
Y005567D01*
X010155D01*
Y005624D01*
X010136D01*
Y005643D01*
X010117D01*
Y005663D01*
X010098D01*
Y005682D01*
X010079D01*
Y005701D01*
X010136D01*
Y005682D01*
D02*
G37*
%LPC*%
G36*
X011975Y011391D02*
X011937D01*
Y011372D01*
X011956D01*
Y011352D01*
X011975D01*
Y011333D01*
X011995D01*
Y011372D01*
X011975D01*
Y011391D01*
D02*
G37*
G36*
X01209D02*
X012014D01*
Y011352D01*
X012033D01*
Y011314D01*
X012052D01*
Y011295D01*
X012071D01*
Y011276D01*
X01209D01*
Y011257D01*
X012129D01*
Y011237D01*
X012167D01*
Y011276D01*
X012148D01*
Y011333D01*
X012129D01*
Y011372D01*
X01209D01*
Y011391D01*
D02*
G37*
G36*
X010558Y011161D02*
X010539D01*
Y011142D01*
X010558D01*
Y011161D01*
D02*
G37*
G36*
X010539Y011142D02*
X010519D01*
Y011123D01*
X010539D01*
Y011142D01*
D02*
G37*
G36*
X010519Y011123D02*
X0105D01*
Y011103D01*
X010519D01*
Y011123D01*
D02*
G37*
G36*
X0105Y011103D02*
X010481D01*
Y011084D01*
X0105D01*
Y011103D01*
D02*
G37*
G36*
X010481Y011084D02*
X010462D01*
Y011065D01*
X010481D01*
Y011084D01*
D02*
G37*
G36*
X010462Y011065D02*
X010443D01*
Y011046D01*
X010462D01*
Y011065D01*
D02*
G37*
G36*
X010443Y011046D02*
X010424D01*
Y011027D01*
X010443D01*
Y011046D01*
D02*
G37*
G36*
X010328Y010912D02*
X010309D01*
Y010893D01*
X010328D01*
Y010912D01*
D02*
G37*
G36*
X010309Y010893D02*
X01029D01*
Y010873D01*
X010309D01*
Y010893D01*
D02*
G37*
G36*
X010328Y010835D02*
X010309D01*
Y010797D01*
X010328D01*
Y010835D01*
D02*
G37*
G36*
X010232Y010778D02*
X010213D01*
Y010759D01*
X010232D01*
Y010778D01*
D02*
G37*
G36*
X009734Y010759D02*
X009677D01*
Y010739D01*
X009734D01*
Y010759D01*
D02*
G37*
G36*
X010309Y010797D02*
X01029D01*
Y010759D01*
X01027D01*
Y010739D01*
X01029D01*
Y01072D01*
X01027D01*
Y010739D01*
X010251D01*
Y01072D01*
X01027D01*
Y010548D01*
X01029D01*
Y010452D01*
X010309D01*
Y010433D01*
Y010414D01*
X01029D01*
Y010452D01*
X01027D01*
Y010414D01*
X01029D01*
Y010337D01*
X010309D01*
Y01028D01*
X010328D01*
Y010222D01*
X010347D01*
Y010165D01*
X010366D01*
Y010126D01*
X010385D01*
Y01005D01*
X010405D01*
Y009992D01*
X010424D01*
Y009916D01*
X010443D01*
Y009858D01*
X010462D01*
Y009801D01*
X010481D01*
Y009743D01*
X0105D01*
Y009686D01*
X010519D01*
Y009667D01*
X010539D01*
Y009647D01*
X010577D01*
Y009628D01*
X010615D01*
Y009609D01*
X010711D01*
Y00959D01*
X010769D01*
Y009571D01*
X010845D01*
Y009552D01*
X010903D01*
Y009532D01*
X010941D01*
Y009513D01*
X010979D01*
Y009494D01*
X011018D01*
Y009475D01*
X011056D01*
Y009456D01*
X011094D01*
Y009437D01*
X011133D01*
Y009417D01*
X011171D01*
Y009398D01*
X011209D01*
Y009379D01*
X011228D01*
Y00936D01*
X011247D01*
Y009341D01*
X011267D01*
Y009322D01*
X011305D01*
Y009303D01*
X011324D01*
Y009283D01*
X011362D01*
Y009264D01*
X011382D01*
Y009245D01*
X011401D01*
Y009226D01*
X01142D01*
Y009207D01*
X011439D01*
Y009188D01*
X011458D01*
Y009168D01*
X011477D01*
Y009149D01*
X011497D01*
Y00913D01*
X011516D01*
Y009111D01*
X011535D01*
Y009092D01*
X011554D01*
Y009073D01*
X011573D01*
Y009092D01*
X011554D01*
Y009111D01*
X011535D01*
Y009149D01*
X011516D01*
Y009168D01*
X011497D01*
Y009188D01*
X011477D01*
Y009207D01*
X011458D01*
Y009226D01*
X01142D01*
Y009245D01*
X011401D01*
Y009264D01*
X011382D01*
Y009283D01*
X011362D01*
Y009303D01*
X011382D01*
Y009283D01*
X011401D01*
Y009264D01*
X01142D01*
Y009245D01*
X011458D01*
Y009226D01*
X011497D01*
Y009207D01*
X011535D01*
Y009188D01*
X011573D01*
Y009168D01*
X011611D01*
Y009188D01*
X011592D01*
Y009226D01*
X011573D01*
Y009245D01*
X011554D01*
Y009264D01*
X011516D01*
Y009283D01*
X011497D01*
Y009303D01*
X011477D01*
Y009322D01*
X011439D01*
Y009341D01*
X01142D01*
Y00936D01*
X011382D01*
Y009379D01*
X011343D01*
Y009398D01*
X011324D01*
Y009417D01*
X011286D01*
Y009437D01*
X011247D01*
Y009456D01*
X011209D01*
Y009475D01*
X011171D01*
Y009494D01*
X011133D01*
Y009513D01*
X011113D01*
Y009532D01*
X011075D01*
Y009552D01*
X011037D01*
Y009571D01*
X010998D01*
Y00959D01*
X01096D01*
Y009609D01*
X010922D01*
Y009628D01*
X010883D01*
Y009647D01*
X010864D01*
Y009667D01*
X010826D01*
Y009686D01*
X010788D01*
Y009705D01*
X01073D01*
Y009724D01*
X010692D01*
Y009743D01*
X010673D01*
Y009762D01*
X010654D01*
Y009781D01*
X010615D01*
Y009839D01*
X010596D01*
Y009896D01*
X010577D01*
Y009954D01*
X010558D01*
Y010011D01*
X010539D01*
Y010069D01*
X010519D01*
Y010126D01*
X0105D01*
Y010165D01*
X010481D01*
Y010222D01*
X010462D01*
Y01026D01*
X010443D01*
Y010299D01*
X010424D01*
Y010356D01*
X010405D01*
Y010414D01*
X010385D01*
Y010471D01*
X010366D01*
Y010529D01*
X010347D01*
Y010586D01*
X010328D01*
Y010701D01*
X010309D01*
Y010797D01*
D02*
G37*
G36*
X009677Y010739D02*
X0096D01*
Y01072D01*
X009677D01*
Y010739D01*
D02*
G37*
G36*
X0096Y01072D02*
X009542D01*
Y010701D01*
X0096D01*
Y01072D01*
D02*
G37*
G36*
X009542Y010701D02*
X009485D01*
Y010682D01*
X009542D01*
Y010701D01*
D02*
G37*
G36*
X009485Y010682D02*
X009427D01*
Y010663D01*
X009485D01*
Y010682D01*
D02*
G37*
G36*
X010251Y010567D02*
X010232D01*
Y010529D01*
X010251D01*
Y010567D01*
D02*
G37*
G36*
X01027Y010509D02*
X010251D01*
Y010471D01*
X01027D01*
Y01049D01*
Y010509D01*
D02*
G37*
G36*
X010155Y010414D02*
X010136D01*
Y010318D01*
X010155D01*
Y010414D01*
D02*
G37*
G36*
X010136Y010318D02*
X010117D01*
Y010241D01*
X010136D01*
Y010318D01*
D02*
G37*
G36*
X009964Y010701D02*
X009945D01*
Y010682D01*
X009849D01*
Y010663D01*
X009734D01*
Y010644D01*
X009657D01*
Y010624D01*
X009581D01*
Y010605D01*
X009523D01*
Y010586D01*
X009466D01*
Y010567D01*
X009408D01*
Y010548D01*
X00937D01*
Y010529D01*
X009332D01*
Y010509D01*
X009293D01*
Y01049D01*
X009255D01*
Y010471D01*
X009217D01*
Y010452D01*
X009178D01*
Y010433D01*
X009159D01*
Y010414D01*
X009121D01*
Y010395D01*
X009083D01*
Y010375D01*
X009044D01*
Y010356D01*
X009025D01*
Y010337D01*
X009006D01*
Y010318D01*
X009044D01*
Y01028D01*
X009063D01*
Y010241D01*
X009044D01*
Y010222D01*
X009006D01*
Y010203D01*
X008987D01*
Y010222D01*
X008929D01*
Y01028D01*
X00891D01*
Y01026D01*
X008872D01*
Y010241D01*
X008853D01*
Y010203D01*
X008872D01*
Y010165D01*
X008853D01*
Y010145D01*
X008834D01*
Y010126D01*
X008795D01*
Y010107D01*
X008757D01*
Y010126D01*
X008719D01*
Y010107D01*
X008738D01*
Y010088D01*
X008776D01*
Y010069D01*
X008795D01*
Y01005D01*
X008814D01*
Y010031D01*
X008834D01*
Y010011D01*
X008814D01*
Y009992D01*
X008776D01*
Y009973D01*
X00868D01*
Y009992D01*
X008661D01*
Y009973D01*
X008642D01*
Y009954D01*
X008623D01*
Y009935D01*
X008604D01*
Y009896D01*
X008585D01*
Y009877D01*
X008565D01*
Y009858D01*
X008546D01*
Y00982D01*
X008527D01*
Y009781D01*
X008508D01*
Y009743D01*
X008527D01*
Y009762D01*
X008585D01*
Y009781D01*
X008604D01*
Y009801D01*
X008623D01*
Y00982D01*
X008642D01*
Y009839D01*
X008661D01*
Y00982D01*
X00868D01*
Y009801D01*
X008699D01*
Y009781D01*
X008719D01*
Y009762D01*
X008738D01*
Y009686D01*
X008642D01*
Y009667D01*
X008623D01*
Y009647D01*
X008604D01*
Y009628D01*
X008565D01*
Y009647D01*
X008508D01*
Y009686D01*
X008489D01*
Y009705D01*
X00847D01*
Y009667D01*
X00845D01*
Y009647D01*
X00847D01*
Y009609D01*
X008527D01*
Y00959D01*
X008565D01*
Y009571D01*
X008585D01*
Y009532D01*
X008565D01*
Y009513D01*
X008527D01*
Y009494D01*
X008508D01*
Y009475D01*
X008546D01*
Y009437D01*
X008565D01*
Y009417D01*
X008661D01*
Y009379D01*
X008642D01*
Y00936D01*
X008623D01*
Y009341D01*
X008604D01*
Y009322D01*
X008585D01*
Y009303D01*
X008508D01*
Y009283D01*
X008489D01*
Y009264D01*
X00845D01*
Y009226D01*
X008489D01*
Y009245D01*
X008508D01*
Y009264D01*
X008546D01*
Y009245D01*
X008565D01*
Y009264D01*
X008585D01*
Y009283D01*
X008604D01*
Y009303D01*
X008642D01*
Y009322D01*
X008661D01*
Y009341D01*
X00868D01*
Y00936D01*
X008719D01*
Y009379D01*
X008757D01*
Y009398D01*
X008795D01*
Y009417D01*
X008834D01*
Y009437D01*
X00891D01*
Y009456D01*
X008987D01*
Y009475D01*
X009063D01*
Y009494D01*
X009274D01*
Y009475D01*
X009332D01*
Y009456D01*
X009351D01*
Y009437D01*
X00937D01*
Y009417D01*
X009408D01*
Y009398D01*
X009427D01*
Y009379D01*
X009447D01*
Y00936D01*
X009466D01*
Y009341D01*
X009485D01*
Y009322D01*
X009504D01*
Y009303D01*
X009523D01*
Y009283D01*
X009542D01*
Y009264D01*
X009562D01*
Y009226D01*
X009581D01*
Y009207D01*
X0096D01*
Y009188D01*
X009619D01*
Y009149D01*
X009638D01*
Y00913D01*
X009657D01*
Y009111D01*
X009677D01*
Y00913D01*
X009657D01*
Y009168D01*
X009715D01*
Y009149D01*
X009734D01*
Y009111D01*
X009753D01*
Y009149D01*
X009772D01*
Y00913D01*
X009868D01*
Y009053D01*
X009887D01*
Y00913D01*
X009906D01*
Y009207D01*
X009926D01*
Y009303D01*
X009906D01*
Y009264D01*
X009887D01*
Y009322D01*
X009906D01*
Y00936D01*
X009926D01*
Y009303D01*
X009945D01*
Y009379D01*
X009964D01*
Y009456D01*
X009983D01*
Y009532D01*
X010002D01*
Y009609D01*
X010021D01*
Y009686D01*
X010041D01*
Y009743D01*
X010021D01*
Y009762D01*
X010002D01*
Y009724D01*
X009983D01*
Y009686D01*
X009964D01*
Y009628D01*
X009945D01*
Y009552D01*
X009926D01*
Y009475D01*
X009906D01*
Y009398D01*
X009887D01*
Y00936D01*
X009868D01*
Y009571D01*
X009849D01*
Y009667D01*
X009868D01*
Y00982D01*
X009887D01*
Y009858D01*
X009868D01*
Y009839D01*
X009849D01*
Y009954D01*
X009868D01*
Y010107D01*
X009887D01*
Y010203D01*
X009906D01*
Y010337D01*
X009926D01*
Y010452D01*
X009945D01*
Y010548D01*
X009964D01*
Y010663D01*
X009983D01*
Y010682D01*
X009964D01*
Y010701D01*
D02*
G37*
G36*
X01027Y010184D02*
X010213D01*
Y010165D01*
X010251D01*
Y010145D01*
X01027D01*
Y010165D01*
Y010184D01*
D02*
G37*
G36*
X008719Y010069D02*
X008699D01*
Y01005D01*
X008719D01*
Y010069D01*
D02*
G37*
G36*
X010117Y010184D02*
X010098D01*
Y010107D01*
X010079D01*
Y010031D01*
X010155D01*
Y01005D01*
X010194D01*
Y010088D01*
X010175D01*
Y010107D01*
X010155D01*
Y010126D01*
X010117D01*
Y010184D01*
D02*
G37*
G36*
X010232Y010031D02*
X010213D01*
Y010011D01*
X010232D01*
Y010031D01*
D02*
G37*
G36*
X010175Y009954D02*
X010155D01*
Y009916D01*
X010175D01*
Y009954D01*
D02*
G37*
G36*
X010251D02*
X010232D01*
Y009896D01*
X01029D01*
Y009935D01*
X010251D01*
Y009954D01*
D02*
G37*
G36*
X010079Y010031D02*
X01006D01*
Y009954D01*
X010041D01*
Y009916D01*
X010079D01*
Y009877D01*
X010098D01*
Y009954D01*
X010117D01*
Y009973D01*
X010136D01*
Y009992D01*
X010098D01*
Y009973D01*
X010079D01*
Y010031D01*
D02*
G37*
G36*
X01006Y009896D02*
X010041D01*
Y009839D01*
X010021D01*
Y009781D01*
X01006D01*
Y00982D01*
X010079D01*
Y009877D01*
X01006D01*
Y009896D01*
D02*
G37*
G36*
X010155Y009916D02*
X010136D01*
Y009858D01*
X010117D01*
Y009781D01*
X010136D01*
Y009762D01*
X010175D01*
Y009781D01*
X010155D01*
Y00982D01*
Y009839D01*
Y009916D01*
D02*
G37*
G36*
X010251Y009781D02*
X010213D01*
Y009743D01*
X01027D01*
Y009762D01*
X010251D01*
Y009781D01*
D02*
G37*
G36*
X008508Y009743D02*
X008489D01*
Y009724D01*
X008508D01*
Y009743D01*
D02*
G37*
G36*
X010385Y009801D02*
X010366D01*
Y009781D01*
Y009762D01*
X010347D01*
Y009705D01*
X010366D01*
Y009724D01*
X010385D01*
Y009743D01*
X010405D01*
Y009762D01*
X010385D01*
Y009801D01*
D02*
G37*
G36*
X010155Y009628D02*
X010136D01*
Y009609D01*
X010155D01*
Y009628D01*
D02*
G37*
G36*
X010328Y009609D02*
X010309D01*
Y00959D01*
Y009571D01*
X010347D01*
Y00959D01*
X010328D01*
Y009609D01*
D02*
G37*
G36*
X00845D02*
X008412D01*
Y009571D01*
X00845D01*
Y00959D01*
Y009609D01*
D02*
G37*
G36*
X010558Y009552D02*
X010539D01*
Y009532D01*
X010558D01*
Y009552D01*
D02*
G37*
G36*
X010596Y009494D02*
X010577D01*
Y009456D01*
X010615D01*
Y009475D01*
X010596D01*
Y009494D01*
D02*
G37*
G36*
X008431Y009456D02*
X008412D01*
Y009437D01*
X008393D01*
Y009417D01*
X008374D01*
Y009398D01*
Y009379D01*
X008393D01*
Y009398D01*
X008431D01*
Y009456D01*
D02*
G37*
G36*
X010347Y009398D02*
X010328D01*
Y009379D01*
X010347D01*
Y00936D01*
X010366D01*
Y009379D01*
X010347D01*
Y009398D01*
D02*
G37*
G36*
X011765Y009226D02*
X011669D01*
Y009207D01*
X01165D01*
Y009226D01*
X011631D01*
Y009207D01*
X01165D01*
Y009188D01*
X011765D01*
Y009149D01*
X011784D01*
Y009111D01*
X011803D01*
Y009092D01*
X011822D01*
Y009053D01*
X011841Y009034D01*
X011746D01*
Y009015D01*
X011861D01*
Y009053D01*
X011841D01*
Y009092D01*
X011822D01*
Y00913D01*
X011803D01*
Y009168D01*
X011784D01*
Y009207D01*
X011765D01*
Y009226D01*
D02*
G37*
G36*
X010098Y009341D02*
X010079D01*
Y009303D01*
X01006D01*
Y009207D01*
X010079D01*
Y009283D01*
X010098D01*
Y009341D01*
D02*
G37*
G36*
X011726Y009053D02*
X011611D01*
Y009034D01*
X011726D01*
Y009053D01*
D02*
G37*
G36*
X011592D02*
X011573D01*
Y009034D01*
Y009015D01*
X011592D01*
Y009053D01*
D02*
G37*
G36*
X009696Y009092D02*
X009677D01*
Y009073D01*
X009696D01*
Y009034D01*
X009715D01*
Y009015D01*
X009734D01*
Y008977D01*
X009753D01*
Y008958D01*
X009772D01*
Y008919D01*
X009791D01*
Y008881D01*
X009811D01*
Y008919D01*
X009791D01*
Y008958D01*
X009772D01*
Y008996D01*
X009753D01*
Y009015D01*
X009734D01*
Y009034D01*
X009715D01*
Y009073D01*
X009696D01*
Y009092D01*
D02*
G37*
G36*
X009906Y008804D02*
X009887D01*
Y008785D01*
X009906D01*
Y008766D01*
X009926D01*
Y008785D01*
X009906Y008804D01*
D02*
G37*
G36*
Y008728D02*
X009887D01*
Y008689D01*
X009906D01*
Y008709D01*
Y008728D01*
D02*
G37*
G36*
X009926Y00867D02*
X009906D01*
Y008651D01*
X009926D01*
Y00867D01*
D02*
G37*
G36*
X009983Y008613D02*
X009964D01*
Y008594D01*
X009983D01*
Y008613D01*
D02*
G37*
G36*
X009945Y008632D02*
X009926D01*
Y008575D01*
X009945D01*
Y008517D01*
X009983D01*
Y008555D01*
X009964D01*
Y008594D01*
X009945D01*
Y008632D01*
D02*
G37*
%LPD*%
G36*
X010328Y010337D02*
X010347D01*
Y01028D01*
X010366D01*
Y010222D01*
X010347D01*
Y01026D01*
Y01028D01*
X010328D01*
Y010337D01*
X010309D01*
Y010375D01*
Y010395D01*
X010328D01*
Y010337D01*
D02*
G37*
G36*
X010385Y010184D02*
X010366D01*
Y010203D01*
X010385D01*
Y010184D01*
D02*
G37*
G36*
X010405Y010126D02*
X010385D01*
Y010145D01*
X010405D01*
Y010126D01*
D02*
G37*
G36*
X010462Y009916D02*
X010443D01*
Y009935D01*
Y009954D01*
X010462D01*
Y009916D01*
D02*
G37*
G36*
X010481Y009877D02*
Y009858D01*
X010462D01*
Y009896D01*
X010481D01*
Y009877D01*
D02*
G37*
G36*
X0105Y009801D02*
X010481D01*
Y00982D01*
Y009839D01*
X0105D01*
Y009801D01*
D02*
G37*
G36*
X010519Y009762D02*
Y009743D01*
X010539D01*
Y009705D01*
X010558D01*
Y009686D01*
X010596D01*
Y009667D01*
X010634D01*
Y009647D01*
X010673D01*
Y009628D01*
X010615D01*
Y009647D01*
X010577D01*
Y009667D01*
X010558D01*
Y009686D01*
X010539D01*
Y009705D01*
X010519D01*
Y009743D01*
X0105D01*
Y009781D01*
X010519D01*
Y009762D01*
D02*
G37*
G36*
X009562Y009283D02*
X009581D01*
Y009264D01*
X0096D01*
Y009245D01*
X009581D01*
Y009264D01*
X009562D01*
Y009283D01*
X009542D01*
Y009303D01*
X009562D01*
Y009283D01*
D02*
G37*
%LPC*%
G36*
X011439Y011333D02*
X011362D01*
Y011276D01*
Y011257D01*
Y011237D01*
X011382D01*
Y011199D01*
X011401D01*
Y011218D01*
X01142D01*
Y011237D01*
X011439D01*
Y011276D01*
X011458D01*
Y011314D01*
X011439D01*
Y011333D01*
D02*
G37*
G36*
X010998Y011237D02*
X010979D01*
Y011199D01*
X010998D01*
Y011237D01*
D02*
G37*
G36*
X012493Y010663D02*
X012454D01*
Y010644D01*
X012474D01*
Y010567D01*
X012512D01*
Y010624D01*
X012493D01*
Y010663D01*
D02*
G37*
G36*
X015098Y010203D02*
X015079D01*
Y010184D01*
X015098D01*
Y010165D01*
X015117D01*
Y010145D01*
X015137D01*
Y010126D01*
X015156D01*
Y010088D01*
X015175D01*
Y010069D01*
X015213D01*
Y010088D01*
X015194D01*
Y010107D01*
X015175D01*
Y010126D01*
X015156D01*
Y010145D01*
X015137D01*
Y010165D01*
X015117D01*
Y010184D01*
X015098D01*
Y010203D01*
D02*
G37*
G36*
X015251Y010031D02*
X015232D01*
Y010011D01*
X015251D01*
Y009992D01*
X015271D01*
Y009954D01*
X015309D01*
Y009916D01*
X015347D01*
Y009896D01*
X015366D01*
Y009858D01*
X015405D01*
Y009839D01*
X015424D01*
Y00982D01*
X015443D01*
Y009801D01*
X015462D01*
Y009781D01*
X015405D01*
Y009801D01*
X015386D01*
Y009781D01*
X015366D01*
Y009743D01*
X015328D01*
Y009724D01*
X015309D01*
Y009743D01*
X015271D01*
Y009762D01*
X015251D01*
Y009801D01*
X015232D01*
Y009858D01*
X015251D01*
Y009935D01*
X015232D01*
Y009916D01*
X015194D01*
Y009877D01*
X015213D01*
Y009858D01*
X015194D01*
Y009839D01*
X015175D01*
Y00982D01*
X015156D01*
Y009801D01*
X015117D01*
Y00982D01*
X015098D01*
Y009839D01*
X015079D01*
Y009858D01*
X01506D01*
Y009877D01*
X015041D01*
Y009896D01*
X01506D01*
Y009916D01*
X015098D01*
Y009935D01*
X015079D01*
Y010011D01*
X01506D01*
Y010031D01*
X015041D01*
Y009935D01*
X015022D01*
Y009839D01*
Y00982D01*
X014983D01*
Y009858D01*
X014964D01*
Y009724D01*
X014983D01*
Y009609D01*
X015002D01*
Y009475D01*
X015022D01*
Y00936D01*
X015041D01*
Y009264D01*
X01506D01*
Y009168D01*
X015079D01*
Y009073D01*
X015098D01*
Y009034D01*
X015137D01*
Y009015D01*
X015175D01*
Y008996D01*
X015213D01*
Y008977D01*
X015232D01*
Y008958D01*
X015271D01*
Y008939D01*
X015309D01*
Y008919D01*
X015347D01*
Y0089D01*
X015386D01*
Y008881D01*
X015424D01*
Y008862D01*
X015443D01*
Y008843D01*
X015481D01*
Y008824D01*
X015501D01*
Y008843D01*
X01552D01*
Y008862D01*
X015539D01*
Y008843D01*
X015577D01*
Y008881D01*
X015596D01*
Y0089D01*
X015635D01*
Y008939D01*
X015654D01*
Y008977D01*
X01575D01*
Y008958D01*
X015769D01*
Y008939D01*
X015788D01*
Y008958D01*
X015826D01*
Y008977D01*
X015807D01*
Y008996D01*
X015788D01*
Y009034D01*
X015769D01*
Y009073D01*
X015788D01*
Y009092D01*
X015807D01*
Y009111D01*
X015903D01*
Y009226D01*
X015826D01*
Y009245D01*
X01575D01*
Y009303D01*
X015769D01*
Y00936D01*
X015788D01*
Y009379D01*
X015807D01*
Y009417D01*
X015826D01*
Y009437D01*
X015807D01*
Y009475D01*
X015788D01*
Y009494D01*
X015769D01*
Y009513D01*
X01573D01*
Y009532D01*
X015711D01*
Y009513D01*
X015692D01*
Y009552D01*
X015673D01*
Y00959D01*
X015654D01*
Y009609D01*
X015635D01*
Y009647D01*
X015615D01*
Y009667D01*
X015596D01*
Y009705D01*
X015577D01*
Y009724D01*
X015558D01*
Y009743D01*
X015539D01*
Y009762D01*
X01552D01*
Y009781D01*
X015501D01*
Y009801D01*
X015481D01*
Y00982D01*
X015462D01*
Y009839D01*
X015424D01*
Y009858D01*
X015405D01*
Y009877D01*
X015386D01*
Y009896D01*
X015366D01*
Y009916D01*
X015347D01*
Y009935D01*
X015328D01*
Y009954D01*
X015309D01*
Y009973D01*
X01529D01*
Y009992D01*
X015271D01*
Y010011D01*
X015251D01*
Y010031D01*
D02*
G37*
G36*
X014715Y010682D02*
X014696D01*
Y010663D01*
X014715D01*
Y010644D01*
X014734D01*
Y010605D01*
X014773D01*
Y010586D01*
X014792D01*
Y010567D01*
X014811D01*
Y010548D01*
X01483D01*
Y010529D01*
X014849D01*
Y010509D01*
X014887D01*
Y01049D01*
X014926D01*
Y010471D01*
X014945D01*
Y010452D01*
X014964D01*
Y010433D01*
X014983D01*
Y010414D01*
X015002D01*
Y010395D01*
X015022D01*
Y010375D01*
X015041D01*
Y010356D01*
X015079D01*
Y010337D01*
X015137D01*
Y010318D01*
X015175D01*
Y010299D01*
X015194D01*
Y010318D01*
X015213D01*
Y01028D01*
X015232D01*
Y010241D01*
X015251D01*
Y010222D01*
X015271D01*
Y010184D01*
X01529D01*
Y010145D01*
X015309D01*
Y010126D01*
X015328D01*
Y010107D01*
X015347D01*
Y010088D01*
X015366D01*
Y010069D01*
X015386D01*
Y010031D01*
X015405D01*
Y010011D01*
X015424D01*
Y009992D01*
X015443D01*
Y009973D01*
X015462D01*
Y009954D01*
X015481D01*
Y009935D01*
X015501D01*
Y009916D01*
X01552D01*
Y009896D01*
X015539D01*
Y009877D01*
X015558D01*
Y009858D01*
X015577D01*
Y009839D01*
X015596D01*
Y00982D01*
X015615D01*
Y009801D01*
X015635D01*
Y009781D01*
X015654D01*
Y009762D01*
X015673D01*
Y009743D01*
X015692D01*
Y009724D01*
X015711D01*
Y009705D01*
X01573D01*
Y009686D01*
X01575D01*
Y009667D01*
X015769D01*
Y009647D01*
X015807D01*
Y009628D01*
X015826D01*
Y009609D01*
X015845D01*
Y00959D01*
X015826D01*
Y009609D01*
X015807D01*
Y009628D01*
X015769D01*
Y009647D01*
X01575D01*
Y009667D01*
X01573D01*
Y009686D01*
X015711D01*
Y009705D01*
X015692D01*
Y009724D01*
X015673D01*
Y009743D01*
X015635D01*
Y009762D01*
X015615D01*
Y009781D01*
X015596D01*
Y009801D01*
X015558D01*
Y00982D01*
X015539D01*
Y009858D01*
X015501D01*
Y009877D01*
X015481D01*
Y009896D01*
X015462D01*
Y009916D01*
X015443D01*
Y009935D01*
X015424D01*
Y009954D01*
X015386D01*
Y009973D01*
X015366D01*
Y009992D01*
X015347D01*
Y010011D01*
X015328D01*
Y010031D01*
X015309D01*
Y01005D01*
X01529D01*
Y010088D01*
X015271D01*
Y010107D01*
X015251D01*
Y010126D01*
X015232D01*
Y010145D01*
X015213D01*
Y010165D01*
X015194D01*
Y010184D01*
X015175D01*
Y010203D01*
X015156D01*
Y010222D01*
X015137D01*
Y01026D01*
X015117D01*
Y01028D01*
X015098D01*
Y010299D01*
X015079D01*
Y010318D01*
X01506D01*
Y010337D01*
X015041D01*
Y010356D01*
X015002D01*
Y010375D01*
X014983D01*
Y010395D01*
X014964D01*
Y010414D01*
X014945D01*
Y010433D01*
X014907D01*
Y010452D01*
X014887D01*
Y010471D01*
X014849D01*
Y01049D01*
X014811D01*
Y010509D01*
X014773D01*
Y010529D01*
X014658D01*
Y010509D01*
X014619D01*
Y01049D01*
X014581D01*
Y010471D01*
X014562D01*
Y010452D01*
X014543D01*
Y010433D01*
X014523D01*
Y010414D01*
X014504D01*
Y010375D01*
X014523D01*
Y010395D01*
X014543D01*
Y010414D01*
X014562D01*
Y010433D01*
X014581D01*
Y010452D01*
X0146D01*
Y010471D01*
X014638D01*
Y01049D01*
X014677D01*
Y010509D01*
X014753D01*
Y01049D01*
X014792D01*
Y010471D01*
X01483D01*
Y010452D01*
X014868D01*
Y010433D01*
X014907D01*
Y010414D01*
X014926D01*
Y010395D01*
X014945D01*
Y010375D01*
X014983D01*
Y010356D01*
X015002D01*
Y010337D01*
X015022D01*
Y010318D01*
X015041D01*
Y010299D01*
X01506D01*
Y01028D01*
X015079D01*
Y01026D01*
X015098D01*
Y010241D01*
X015117D01*
Y010222D01*
X015137D01*
Y010203D01*
X015156D01*
Y010184D01*
X015175D01*
Y010165D01*
X015194D01*
Y010145D01*
X015213D01*
Y010126D01*
X015232D01*
Y010107D01*
X015251D01*
Y010069D01*
X015271D01*
Y01005D01*
X01529D01*
Y010031D01*
X015309D01*
Y010011D01*
X015328D01*
Y009992D01*
X015347D01*
Y009973D01*
X015366D01*
Y009954D01*
X015386D01*
Y009935D01*
X015405D01*
Y009916D01*
X015443D01*
Y009896D01*
X015462D01*
Y009877D01*
X015481D01*
Y009858D01*
X015501D01*
Y009839D01*
X01552D01*
Y00982D01*
X015539D01*
Y009801D01*
X015558D01*
Y009781D01*
X015577D01*
Y009762D01*
X015615D01*
Y009743D01*
X015635D01*
Y009724D01*
X015654D01*
Y009705D01*
X015673D01*
Y009686D01*
X015692D01*
Y009667D01*
X01573D01*
Y009647D01*
X01575D01*
Y009628D01*
X015769D01*
Y009609D01*
X015807D01*
Y00959D01*
X015826D01*
Y009571D01*
X015865D01*
Y009552D01*
X015884D01*
Y009532D01*
X015903D01*
Y009513D01*
X015922D01*
Y009475D01*
X015941D01*
Y009417D01*
X01596D01*
Y00936D01*
X015979D01*
Y009303D01*
X015999D01*
Y009245D01*
X016018D01*
Y009168D01*
X016037D01*
Y009092D01*
X016056D01*
Y009034D01*
X016075D01*
Y008958D01*
X016094D01*
Y008862D01*
X016114D01*
Y008766D01*
X016133D01*
Y008153D01*
X016114D01*
Y007981D01*
X016094D01*
Y007866D01*
X016075D01*
Y00777D01*
X016056D01*
Y007655D01*
X016037D01*
Y007578D01*
X016056D01*
Y007636D01*
X016075D01*
Y007674D01*
X016094D01*
Y007712D01*
X016114D01*
Y007751D01*
X016133D01*
Y007808D01*
X016152D01*
Y007847D01*
X016171D01*
Y007904D01*
X016152D01*
Y007923D01*
Y008019D01*
X016171D01*
Y007904D01*
X01619D01*
Y008402D01*
X016171D01*
Y008115D01*
X016152D01*
Y00846D01*
X016171D01*
Y008728D01*
X016152D01*
Y008843D01*
X016133D01*
Y008939D01*
X016114D01*
Y009015D01*
X016094D01*
Y009111D01*
X016075D01*
Y009188D01*
X016056D01*
Y009264D01*
X016037D01*
Y009341D01*
X016018D01*
Y009398D01*
X015999D01*
Y009456D01*
X015979D01*
Y009513D01*
X01596D01*
Y009571D01*
X015941D01*
Y009628D01*
X015922D01*
Y009667D01*
X015903D01*
Y009686D01*
X015865D01*
Y009705D01*
X015826D01*
Y009724D01*
X015788D01*
Y009743D01*
X01575D01*
Y009762D01*
X015711D01*
Y009781D01*
X015692D01*
Y009801D01*
X015654D01*
Y00982D01*
X015635D01*
Y009839D01*
X015615D01*
Y009858D01*
X015577D01*
Y009877D01*
X015558D01*
Y009896D01*
X015539D01*
Y009916D01*
X01552D01*
Y009935D01*
X015501D01*
Y009954D01*
X015481D01*
Y009973D01*
X015462D01*
Y009992D01*
X015443D01*
Y010031D01*
X015424D01*
Y01005D01*
X015405D01*
Y010069D01*
X015386D01*
Y010088D01*
X015366D01*
Y010107D01*
X015347D01*
Y010126D01*
X015328D01*
Y010165D01*
X015309D01*
Y010184D01*
X01529D01*
Y010222D01*
X015271D01*
Y01026D01*
X015251D01*
Y01028D01*
X015232D01*
Y010337D01*
X015213D01*
Y010356D01*
X015194D01*
Y010375D01*
X015175D01*
Y010395D01*
X015137D01*
Y010414D01*
X015079D01*
Y010433D01*
X015041D01*
Y010452D01*
X015002D01*
Y010471D01*
X014964D01*
Y01049D01*
X014945D01*
Y010509D01*
X014907D01*
Y010529D01*
X014868D01*
Y010548D01*
X014849D01*
Y010567D01*
X01483D01*
Y010586D01*
X014792D01*
Y010605D01*
X014773D01*
Y010624D01*
X014753D01*
Y010644D01*
X014734D01*
Y010663D01*
X014715D01*
Y010682D01*
D02*
G37*
G36*
X014409Y009686D02*
X01437D01*
Y009647D01*
X014351D01*
Y00959D01*
X014332D01*
Y009532D01*
X01437D01*
Y009552D01*
X014389D01*
Y009532D01*
X014428D01*
Y009513D01*
X014466D01*
Y009475D01*
X014447D01*
Y009456D01*
X014428D01*
Y009437D01*
X014409D01*
Y009417D01*
X01437D01*
Y009398D01*
X014332D01*
Y009417D01*
X014313D01*
Y009494D01*
X014294D01*
Y009456D01*
X014274D01*
Y009379D01*
X014255D01*
Y009322D01*
X014236D01*
Y009264D01*
X014217D01*
Y009207D01*
X014294D01*
Y009226D01*
X014313D01*
Y009245D01*
X01437D01*
Y009207D01*
X014389D01*
Y00913D01*
X014485D01*
Y009111D01*
X014504D01*
Y009034D01*
X014485D01*
Y009015D01*
X014466D01*
Y008996D01*
X014428D01*
Y009015D01*
X014409D01*
Y009034D01*
X014389D01*
Y009053D01*
X01437D01*
Y009111D01*
X014389D01*
Y00913D01*
X01437D01*
Y009149D01*
X014294D01*
Y00913D01*
X014274D01*
Y009111D01*
X014255D01*
Y009092D01*
X014236D01*
Y009073D01*
X014217D01*
Y009053D01*
X014274D01*
Y009034D01*
X014255D01*
Y008939D01*
X014274D01*
Y0089D01*
X014313D01*
Y008919D01*
X01437D01*
Y0089D01*
X014389D01*
Y008804D01*
X014351D01*
Y008785D01*
X014313D01*
Y008804D01*
X014294D01*
Y008824D01*
X014274D01*
Y008843D01*
X014198D01*
Y008862D01*
X014179D01*
Y0089D01*
X014159D01*
Y008881D01*
Y008824D01*
X014179D01*
Y008843D01*
X014198D01*
Y008824D01*
X014217D01*
Y008785D01*
X014198D01*
Y008766D01*
X014217D01*
Y008747D01*
X014255D01*
Y008728D01*
X014274D01*
Y008709D01*
X014294D01*
Y008689D01*
X014274D01*
Y00867D01*
X014255D01*
Y008651D01*
X014274D01*
Y008632D01*
X014294D01*
Y008613D01*
X014313D01*
Y008575D01*
X014332D01*
Y008555D01*
X014351D01*
Y008536D01*
X01437D01*
Y008517D01*
X014389D01*
Y008498D01*
X014409D01*
Y00846D01*
X014428D01*
Y008421D01*
X014447D01*
Y008498D01*
X014466D01*
Y008575D01*
X014485D01*
Y008728D01*
X014504D01*
Y008843D01*
X014466D01*
Y008862D01*
X014447D01*
Y008881D01*
X014504D01*
Y008919D01*
X014523D01*
Y009073D01*
X014543D01*
Y009245D01*
X014562D01*
Y009379D01*
X014523D01*
Y009494D01*
X014543D01*
Y009667D01*
X014523D01*
Y009609D01*
X014504D01*
Y00959D01*
X014485D01*
Y009571D01*
X014466D01*
Y009609D01*
X014447D01*
Y009628D01*
X014409D01*
Y009686D01*
D02*
G37*
G36*
X015884Y009379D02*
X015865D01*
Y00936D01*
X015884D01*
Y009379D01*
D02*
G37*
G36*
X013968Y009417D02*
X01393D01*
Y009398D01*
X013891D01*
Y009379D01*
X013834D01*
Y00936D01*
X013776D01*
Y009341D01*
X013738D01*
Y009322D01*
X0137D01*
Y009303D01*
X013757D01*
Y009322D01*
X013815D01*
Y009341D01*
X013853D01*
Y00936D01*
X01393D01*
Y009379D01*
X013968D01*
Y009417D01*
D02*
G37*
G36*
X0137Y009303D02*
X013661D01*
Y009283D01*
X0137D01*
Y009303D01*
D02*
G37*
G36*
X013661Y009283D02*
X013604D01*
Y009264D01*
X013546D01*
Y009245D01*
X013623D01*
Y009264D01*
X013661D01*
Y009283D01*
D02*
G37*
G36*
X013546Y009245D02*
X013489D01*
Y009226D01*
X013546D01*
Y009245D01*
D02*
G37*
G36*
X013489Y009226D02*
X013412D01*
Y009207D01*
X013374D01*
Y009188D01*
X013431D01*
Y009207D01*
X013489D01*
Y009226D01*
D02*
G37*
G36*
X013374Y009188D02*
X013336D01*
Y009168D01*
X013374D01*
Y009188D01*
D02*
G37*
G36*
X013336Y009168D02*
X013297D01*
Y009149D01*
X013278D01*
Y00913D01*
X013317D01*
Y009149D01*
X013336D01*
Y009168D01*
D02*
G37*
G36*
X012933Y009111D02*
X012914D01*
Y009073D01*
X012933D01*
Y009111D01*
D02*
G37*
G36*
X013278Y00913D02*
X01324D01*
Y009111D01*
X013221D01*
Y009092D01*
X013202D01*
Y009073D01*
X013182D01*
Y009053D01*
X013221D01*
Y009073D01*
X01324D01*
Y009092D01*
X013259D01*
Y009111D01*
X013278D01*
Y00913D01*
D02*
G37*
G36*
X013106Y009073D02*
X013087D01*
Y009053D01*
X013106D01*
Y009073D01*
D02*
G37*
G36*
X012914D02*
X012895D01*
Y009034D01*
X012914D01*
Y009073D01*
D02*
G37*
G36*
X013067Y009015D02*
X013048D01*
Y008996D01*
X013067D01*
Y009015D01*
D02*
G37*
G36*
X013182Y009053D02*
X013163D01*
Y009034D01*
X013144D01*
Y009015D01*
X013125D01*
Y008996D01*
X013106D01*
Y008977D01*
X013144D01*
Y008996D01*
X013163D01*
Y009015D01*
X013182D01*
Y009053D01*
D02*
G37*
G36*
X013106Y008977D02*
X013087D01*
Y008958D01*
X013106D01*
Y008977D01*
D02*
G37*
G36*
X012895Y009034D02*
X012876D01*
Y008996D01*
X012895D01*
Y008977D01*
X012933D01*
Y008958D01*
X01301D01*
Y008939D01*
X013067D01*
Y008919D01*
X013106D01*
Y008939D01*
X013087D01*
Y008958D01*
X013029D01*
Y008977D01*
X012953D01*
Y008996D01*
X012895D01*
Y009034D01*
D02*
G37*
G36*
X015615Y008804D02*
X015577D01*
Y008785D01*
X015558D01*
Y008766D01*
X015577D01*
Y008747D01*
X015596D01*
Y008728D01*
X015615D01*
Y008804D01*
D02*
G37*
G36*
X016037Y007578D02*
X016018D01*
Y007559D01*
X016037D01*
Y007578D01*
D02*
G37*
%LPD*%
G36*
X015903Y009609D02*
X015922D01*
Y009571D01*
X015941D01*
Y009513D01*
X01596D01*
Y009475D01*
X015941D01*
Y009494D01*
Y009513D01*
X015922D01*
Y009532D01*
X015903D01*
Y009552D01*
X015884D01*
Y009571D01*
X015865D01*
Y00959D01*
X015884D01*
Y009647D01*
X015903D01*
Y009609D01*
D02*
G37*
G36*
X015979Y009437D02*
X01596D01*
Y009456D01*
X015979D01*
Y009437D01*
D02*
G37*
G36*
X016018Y009322D02*
X015999D01*
Y009341D01*
X016018D01*
Y009322D01*
D02*
G37*
G36*
X016152Y007866D02*
X016133D01*
Y007885D01*
X016152D01*
Y007866D01*
D02*
G37*
G36*
X016133Y007827D02*
X016114D01*
Y007847D01*
X016133D01*
Y007827D01*
D02*
G37*
%LPC*%
G36*
X013355Y007636D02*
X013336D01*
Y007617D01*
X013355D01*
Y007636D01*
D02*
G37*
G36*
X015213Y006755D02*
X015194D01*
Y006735D01*
X015213D01*
Y006755D01*
D02*
G37*
G36*
X015137Y006659D02*
X015117D01*
Y00664D01*
X015137D01*
Y006659D01*
D02*
G37*
G36*
X014753Y006448D02*
X014715D01*
Y006429D01*
X014753D01*
Y006448D01*
D02*
G37*
G36*
X014715Y006429D02*
X014677D01*
Y00641D01*
X014715D01*
Y006429D01*
D02*
G37*
G36*
X010385Y007847D02*
X010366D01*
Y007827D01*
X010385D01*
Y007847D01*
D02*
G37*
G36*
X010328D02*
X01029D01*
Y007827D01*
X010309D01*
Y007808D01*
X010366D01*
Y007827D01*
X010328D01*
Y007847D01*
D02*
G37*
G36*
X010424Y007808D02*
X010385D01*
Y007789D01*
X010424D01*
Y007808D01*
D02*
G37*
G36*
X010079Y00731D02*
X009887D01*
Y007291D01*
X010079D01*
Y00731D01*
D02*
G37*
G36*
X010251Y007291D02*
X010136D01*
Y007272D01*
X010251D01*
Y007253D01*
X010347D01*
Y007233D01*
X010424D01*
Y007214D01*
X010462D01*
Y007176D01*
X010481D01*
Y007195D01*
X0105D01*
Y007233D01*
X010424D01*
Y007253D01*
X010347D01*
Y007272D01*
X010251D01*
Y007291D01*
D02*
G37*
G36*
X010462Y007176D02*
X010443D01*
Y007157D01*
X010462D01*
Y007176D01*
D02*
G37*
G36*
X010443Y007157D02*
X010424D01*
Y007138D01*
X010405D01*
Y007119D01*
X010385D01*
Y007099D01*
X010424D01*
Y007119D01*
X010443D01*
Y007157D01*
D02*
G37*
G36*
X010385Y007099D02*
X010347D01*
Y00708D01*
X010385D01*
Y007099D01*
D02*
G37*
G36*
X010347Y00708D02*
X01029D01*
Y007061D01*
X010347D01*
Y00708D01*
D02*
G37*
G36*
X01029Y007061D02*
X010213D01*
Y007042D01*
X01029D01*
Y007061D01*
D02*
G37*
G36*
X010213Y007042D02*
X010136D01*
Y007023D01*
X010213D01*
Y007042D01*
D02*
G37*
G36*
X010136Y007023D02*
X010041D01*
Y007004D01*
X010136D01*
Y007023D01*
D02*
G37*
G36*
X010194Y00664D02*
X010175D01*
Y006601D01*
Y006582D01*
X010194D01*
Y00664D01*
D02*
G37*
G36*
X010175Y006563D02*
X010155D01*
Y006505D01*
X010175D01*
Y006563D01*
D02*
G37*
G36*
X010155Y006505D02*
X010136D01*
Y006429D01*
X010155D01*
Y006505D01*
D02*
G37*
G36*
X010136Y006429D02*
X010117D01*
Y006352D01*
X010136D01*
Y006429D01*
D02*
G37*
G36*
X010117Y006352D02*
X010098D01*
Y006314D01*
X01006D01*
Y006295D01*
X010117D01*
Y006352D01*
D02*
G37*
G36*
X01006Y006295D02*
X010021D01*
Y006276D01*
X01006D01*
Y006295D01*
D02*
G37*
G36*
X010021Y006276D02*
X009983D01*
Y006256D01*
X010021D01*
Y006276D01*
D02*
G37*
G36*
X009964Y006256D02*
X009906D01*
Y006237D01*
X009964D01*
Y006256D01*
D02*
G37*
G36*
X008968Y006371D02*
X008949D01*
Y006333D01*
X008968D01*
Y006314D01*
Y006295D01*
X008987D01*
Y006256D01*
X009006D01*
Y006237D01*
X009025D01*
Y006276D01*
X009006D01*
Y006295D01*
X008987D01*
Y006333D01*
X008968D01*
Y006371D01*
D02*
G37*
G36*
X009868Y006237D02*
X009849D01*
Y006218D01*
X009868D01*
Y006237D01*
D02*
G37*
G36*
X009063D02*
X009044D01*
Y006218D01*
X009063D01*
Y006237D01*
D02*
G37*
G36*
X009102Y006218D02*
X009083D01*
Y006199D01*
X009102D01*
Y006218D01*
D02*
G37*
G36*
X0096Y006199D02*
X009581D01*
Y00618D01*
X0096D01*
Y006199D01*
D02*
G37*
G36*
X009178D02*
X009159D01*
Y00618D01*
X009178D01*
Y006199D01*
D02*
G37*
G36*
X009485Y00618D02*
X009198D01*
Y006161D01*
X009485D01*
Y00618D01*
D02*
G37*
G36*
X010098Y006256D02*
X010079D01*
Y006237D01*
X010021D01*
Y006218D01*
X009964D01*
Y006199D01*
X009887D01*
Y00618D01*
X009791D01*
Y006161D01*
X009696D01*
Y006141D01*
X009523D01*
Y006122D01*
X009198D01*
Y006141D01*
X009121D01*
Y006161D01*
X009063D01*
Y00618D01*
X009044D01*
Y006199D01*
X009006D01*
Y00618D01*
X009025D01*
Y006161D01*
X009044D01*
Y006141D01*
X009063D01*
Y006103D01*
X009083D01*
Y006084D01*
X009102D01*
Y006065D01*
X009121D01*
Y006046D01*
X00914D01*
Y006027D01*
X009159D01*
Y006007D01*
X009178D01*
Y005988D01*
X009198D01*
Y005969D01*
X009236D01*
Y00595D01*
X009255D01*
Y005931D01*
X009293D01*
Y005912D01*
X009313D01*
Y005892D01*
X009351D01*
Y005873D01*
X009389D01*
Y005854D01*
X009427D01*
Y005835D01*
X009485D01*
Y005816D01*
X009791D01*
Y005835D01*
X009964D01*
Y005854D01*
X010021D01*
Y005912D01*
X010041D01*
Y00595D01*
X01006D01*
Y006027D01*
X010079D01*
Y006141D01*
X010098D01*
Y006256D01*
D02*
G37*
G36*
X011075D02*
X011018D01*
Y006237D01*
X011075D01*
Y006256D01*
D02*
G37*
G36*
X012953Y006276D02*
X01278D01*
Y006256D01*
X012857D01*
Y006237D01*
X012914D01*
Y006218D01*
X013029D01*
Y006199D01*
X013106D01*
Y00618D01*
X013144D01*
Y006199D01*
X013106D01*
Y006218D01*
X013048D01*
Y006237D01*
X012991D01*
Y006256D01*
X012953D01*
Y006276D01*
D02*
G37*
G36*
X01278Y006237D02*
X012703D01*
Y006218D01*
X012646D01*
Y006199D01*
X012608D01*
Y00618D01*
X01255D01*
Y006161D01*
X012493D01*
Y006141D01*
X012416D01*
Y006122D01*
X012359D01*
Y006103D01*
X012301D01*
Y006084D01*
X012397D01*
Y006065D01*
X012454D01*
Y006046D01*
X01255D01*
Y006027D01*
X012646D01*
Y006007D01*
X012723D01*
Y005988D01*
X012818D01*
Y005969D01*
X012933D01*
Y00595D01*
X013087D01*
Y005931D01*
X013355D01*
Y005988D01*
X013336D01*
Y006046D01*
X013317D01*
Y006103D01*
X013297D01*
Y006122D01*
X013278D01*
Y006141D01*
X013106D01*
Y006161D01*
X012991D01*
Y00618D01*
X012914D01*
Y006199D01*
X012857D01*
Y006218D01*
X01278D01*
Y006237D01*
D02*
G37*
%LPD*%
G36*
X012933D02*
X012914D01*
Y006256D01*
X012933D01*
Y006237D01*
D02*
G37*
D16*
X02445Y02615D02*
X02455Y02625D01*
X02475D01*
X02485Y02615D01*
Y02605D01*
X02475Y02595D01*
X02455D01*
X02445Y02585D01*
Y02575D01*
X02455Y02565D01*
X02475D01*
X02485Y02575D01*
X02425Y02625D02*
X02385D01*
X02405D01*
Y02565D01*
X02365D02*
Y02625D01*
X02345Y02605D01*
X023251Y02625D01*
Y02565D01*
X023051Y02615D02*
X022951Y02625D01*
X022751D01*
X022651Y02615D01*
Y02605D01*
X022751Y02595D01*
X022851D01*
X022751D01*
X022651Y02585D01*
Y02575D01*
X022751Y02565D01*
X022951D01*
X023051Y02575D01*
X022051Y02565D02*
X022451D01*
X022051Y02605D01*
Y02615D01*
X022151Y02625D01*
X022351D01*
X022451Y02615D01*
X021451Y02625D02*
X021851D01*
Y02595D01*
X021651D01*
X021851D01*
Y02565D01*
X020951D02*
Y02625D01*
X021251Y02595D01*
X020851D01*
X020651Y02615D02*
X020551Y02625D01*
X020351D01*
X020251Y02615D01*
Y02575D01*
X020351Y02565D01*
X020551D01*
X020651Y02575D01*
Y02615D01*
X020052Y02625D02*
X019652D01*
Y02615D01*
X020052Y02575D01*
Y02565D01*
X019452Y02625D02*
Y02585D01*
X019252Y02565D01*
X019052Y02585D01*
Y02625D01*
X018452D02*
X018852D01*
Y02565D01*
X018452D01*
X018852Y02595D02*
X018652D01*
X018252Y02625D02*
X017852D01*
X018052D01*
Y02565D01*
X017252Y02625D02*
X017452Y02615D01*
X017652Y02595D01*
Y02575D01*
X017552Y02565D01*
X017352D01*
X017252Y02575D01*
Y02585D01*
X017352Y02595D01*
X017652D01*
X0228Y0163D02*
X0229Y0164D01*
X0231D01*
X0232Y0163D01*
Y0162D01*
X0231Y0161D01*
X0229D01*
X0228Y016D01*
Y0159D01*
X0229Y0158D01*
X0231D01*
X0232Y0159D01*
X0226Y0158D02*
Y0164D01*
X0223D01*
X0222Y0163D01*
Y0161D01*
X0223Y016D01*
X0226D01*
X022Y0164D02*
X0218D01*
X0219D01*
Y0158D01*
X022D01*
X0218D01*
X021501Y0163D02*
X021401Y0164D01*
X021201D01*
X021101Y0163D01*
Y0162D01*
X021201Y0161D01*
X021301D01*
X021201D01*
X021101Y016D01*
Y0159D01*
X021201Y0158D01*
X021401D01*
X021501Y0159D01*
X0233Y0174D02*
X0231D01*
X0232D01*
Y0168D01*
X0233D01*
X0231D01*
X0224D02*
X0228D01*
X0224Y0172D01*
Y0173D01*
X0225Y0174D01*
X0227D01*
X0228Y0173D01*
X0218D02*
X0219Y0174D01*
X0221D01*
X0222Y0173D01*
Y0169D01*
X0221Y0168D01*
X0219D01*
X0218Y0169D01*
X021601Y0168D02*
X021401D01*
X021501D01*
Y0174D01*
X021601Y0173D01*
X02295Y01845D02*
X02335D01*
Y01785D01*
X02295D01*
X02335Y01815D02*
X02315D01*
X02275Y01785D02*
Y01845D01*
X02235Y01785D01*
Y01845D01*
X02185Y01785D02*
Y01845D01*
X02215Y01815D01*
X021751D01*
X021551Y01825D02*
X021451D01*
Y01815D01*
X021551D01*
Y01825D01*
Y01795D02*
X021451D01*
Y01785D01*
X021551D01*
Y01795D01*
X020451Y01845D02*
X020051D01*
X020251D01*
Y01785D01*
X019851Y01845D02*
X019651D01*
X019751D01*
Y01785D01*
X019851D01*
X019651D01*
X019351D02*
Y01845D01*
X019151Y01825D01*
X018951Y01845D01*
Y01785D01*
X018352Y01845D02*
X018751D01*
Y01815D01*
X018552Y01825D01*
X018452D01*
X018352Y01815D01*
Y01795D01*
X018452Y01785D01*
X018652D01*
X018751Y01795D01*
X023Y01955D02*
X0234D01*
Y01895D01*
X023D01*
X0234Y01925D02*
X0232D01*
X0228Y01895D02*
Y01955D01*
X0224Y01895D01*
Y01955D01*
X0222Y01945D02*
X0221Y01955D01*
X0219D01*
X021801Y01945D01*
Y01935D01*
X0219Y01925D01*
X022D01*
X0219D01*
X021801Y01915D01*
Y01905D01*
X0219Y01895D01*
X0221D01*
X0222Y01905D01*
X021601Y01935D02*
X021501D01*
Y01925D01*
X021601D01*
Y01935D01*
Y01905D02*
X021501D01*
Y01895D01*
X021601D01*
Y01905D01*
X020501Y01955D02*
X020101D01*
X020301D01*
Y01895D01*
X019901Y01955D02*
X019701D01*
X019801D01*
Y01895D01*
X019901D01*
X019701D01*
X019401D02*
Y01955D01*
X019201Y01935D01*
X019001Y01955D01*
Y01895D01*
X018402D02*
X018801D01*
X018402Y01935D01*
Y01945D01*
X018502Y01955D01*
X018702D01*
X018801Y01945D01*
X023Y02065D02*
X0234D01*
Y02005D01*
X023D01*
X0234Y02035D02*
X0232D01*
X0228Y02005D02*
Y02065D01*
X0224Y02005D01*
Y02065D01*
X021801Y02005D02*
X0222D01*
X021801Y02045D01*
Y02055D01*
X0219Y02065D01*
X0221D01*
X0222Y02055D01*
X021601Y02045D02*
X021501D01*
Y02035D01*
X021601D01*
Y02045D01*
Y02015D02*
X021501D01*
Y02005D01*
X021601D01*
Y02015D01*
X020501Y02065D02*
X020101D01*
X020301D01*
Y02005D01*
X019901Y02065D02*
X019701D01*
X019801D01*
Y02005D01*
X019901D01*
X019701D01*
X019401D02*
Y02065D01*
X019201Y02045D01*
X019001Y02065D01*
Y02005D01*
X018801Y02055D02*
X018702Y02065D01*
X018502D01*
X018402Y02055D01*
Y02045D01*
X018502Y02035D01*
X018602D01*
X018502D01*
X018402Y02025D01*
Y02015D01*
X018502Y02005D01*
X018702D01*
X018801Y02015D01*
X023Y02165D02*
X0234D01*
Y02105D01*
X023D01*
X0234Y02135D02*
X0232D01*
X0228Y02105D02*
Y02165D01*
X0224Y02105D01*
Y02165D01*
X0222Y02105D02*
X022D01*
X0221D01*
Y02165D01*
X0222Y02155D01*
X021701Y02145D02*
X021601D01*
Y02135D01*
X021701D01*
Y02145D01*
Y02115D02*
X021601D01*
Y02105D01*
X021701D01*
Y02115D01*
X020601Y02165D02*
X020201D01*
X020401D01*
Y02105D01*
X020001Y02165D02*
X019801D01*
X019901D01*
Y02105D01*
X020001D01*
X019801D01*
X019501D02*
Y02165D01*
X019301Y02145D01*
X019101Y02165D01*
Y02105D01*
X018901D02*
X018702D01*
X018801D01*
Y02165D01*
X018901Y02155D01*
X02475Y0234D02*
Y024D01*
X02445D01*
X02435Y0239D01*
Y0237D01*
X02445Y0236D01*
X02475D01*
X02415Y024D02*
Y0234D01*
X02395Y0236D01*
X02375Y0234D01*
Y024D01*
X02355Y0234D02*
Y024D01*
X02335Y0238D01*
X023151Y024D01*
Y0234D01*
X022551Y024D02*
X022951D01*
Y0237D01*
X022751Y0238D01*
X022651D01*
X022551Y0237D01*
Y0235D01*
X022651Y0234D01*
X022851D01*
X022951Y0235D01*
X022351Y0237D02*
X021951D01*
X021751Y0239D02*
X021651Y024D01*
X021451D01*
X021351Y0239D01*
Y0238D01*
X021451Y0237D01*
X021351Y0236D01*
Y0235D01*
X021451Y0234D01*
X021651D01*
X021751Y0235D01*
Y0236D01*
X021651Y0237D01*
X021751Y0238D01*
Y0239D01*
X021651Y0237D02*
X021451D01*
X021151Y0238D02*
X021051D01*
Y0237D01*
X021151D01*
Y0238D01*
Y0235D02*
X021051D01*
Y0234D01*
X021151D01*
Y0235D01*
X020052Y024D02*
X019652D01*
X019852D01*
Y0234D01*
X019452Y024D02*
X019252D01*
X019352D01*
Y0234D01*
X019452D01*
X019252D01*
X018952D02*
Y024D01*
X018752Y0238D01*
X018552Y024D01*
Y0234D01*
X018352Y0239D02*
X018252Y024D01*
X018052D01*
X017952Y0239D01*
Y0238D01*
X018052Y0237D01*
X017952Y0236D01*
Y0235D01*
X018052Y0234D01*
X018252D01*
X018352Y0235D01*
Y0236D01*
X018252Y0237D01*
X018352Y0238D01*
Y0239D01*
X018252Y0237D02*
X018052D01*
X02475Y0245D02*
Y0251D01*
X02445D01*
X02435Y025D01*
Y0248D01*
X02445Y0247D01*
X02475D01*
X02415Y0251D02*
Y0245D01*
X02395Y0247D01*
X02375Y0245D01*
Y0251D01*
X02355Y0245D02*
Y0251D01*
X02335Y0249D01*
X023151Y0251D01*
Y0245D01*
X022951D02*
X022751D01*
X022851D01*
Y0251D01*
X022951Y025D01*
X022451Y0248D02*
X022051D01*
X021551Y0245D02*
Y0251D01*
X021851Y0248D01*
X021451D01*
X021251Y0249D02*
X021151D01*
Y0248D01*
X021251D01*
Y0249D01*
Y0246D02*
X021151D01*
Y0245D01*
X021251D01*
Y0246D01*
X020151Y0251D02*
X019752D01*
X019952D01*
Y0245D01*
X019552Y0251D02*
X019352D01*
X019452D01*
Y0245D01*
X019552D01*
X019352D01*
X019052D02*
Y0251D01*
X018852Y0249D01*
X018652Y0251D01*
Y0245D01*
X018152D02*
Y0251D01*
X018452Y0248D01*
X018052D01*
M02*
