M48
;Layer_Color=9474304
;FILE_FORMAT=2:4
INCH,LZ
;TYPE=PLATED
T1F00S00C0.0079
T2F00S00C0.0118
T3F00S00C0.0394
T4F00S00C0.0402
T5F00S00C0.0433
T6F00S00C0.1181
%
T01
X049744Y044482
Y044994
Y045506
Y046018
X050256
Y045506
Y044994
Y044482
T02
X049755Y01985
X0507Y0209
X05025Y0225
X051Y024
X0525
X054
X05575Y0232
X05775Y0225
X0585Y024
Y027
X0579Y02695
X0568
X05605Y0285
X051641Y027759
X051051Y027351
X0496Y02775
X05025Y0255
X05175Y0248
X048Y024
X05475Y02095
X05685Y02045
X05925Y0195
X0585Y018
X0555
X0525
X0523Y03055
Y031
X046148Y028152
X045314Y028123
X043768Y028118
X04425Y0255
X04275
X0435Y024
X045
X0465
X04425Y0225
X04275
X0435Y021
X042
X04275Y0195
X04425
X0435Y018
X039
X0375
X036
X03675Y0195
X03525
X03975
X0405Y024
X042
X039
X036
X03675Y0255
X036Y027
X0345
Y03
X0375
X039Y0302
X039025Y029625
X039Y0291
X039965Y029015
Y030235
X039025Y030825
X038215Y028535
X03675Y0225
X0375Y033
X036
X0345
X03435Y0321
X03525Y0345
X03675
X03825
X03975
X039Y0359
X039025Y036325
X039Y0372
X0375Y036
X036
X036015Y037185
X0345Y036
X03525Y0405
X03675Y0394
X03825Y0405
X039Y0399
X03975Y0405
X0405Y042
X042
X04275Y0435
X042Y045
X04275Y0465
X04425
X04575
X0465Y045
X04575Y0405
X04535Y0389
X04365Y0396
X04275Y0405
X0405Y039
X04265Y036
X04455Y03675
X04575Y0345
X0456Y0332
X0465Y033
X0457Y0313
X0431Y0314
X0433Y0332
X03975Y0435
X03825
X03675
X03633Y04507
X037905Y046205
X0397Y04595
X039Y045
X0375Y042
X034685Y043665
X0476Y04375
Y04505
X04725Y0465
X04875
X05325
X0526Y04425
X0525Y042
X054
X0555
X057
X0585
X05925Y0435
Y0465
X05625
X0555Y045
X05625Y0405
X05775
X0585Y039
X05775Y0375
X05855Y03545
X05775Y0345
X05605Y0344
Y0336
X056985Y033365
X05605Y032
X0566Y0314
X05875Y0322
X054Y033
X05475Y0345
X053785Y035485
X05475Y0375
X0555Y039
X054
X0524Y0393
X051Y039
X05095Y038
X0516Y0378
X05095Y03645
X05025Y0345
X04875
X04725
X04775Y0363
X04805Y03805
X04875Y0375
X0495Y042
X051
X0505Y0432
X052Y03415
X05175Y03136
X05025Y0315
X04875
X04725
X0495Y033
X048Y048
X0525
X054
X0555
X057
X0585
X0465
X042
X0405
X0375
X036
T03
X05324Y0183
X054224
X056696
X05768
X0596Y0214
Y022384
Y024866
Y02585
X041641Y0186
X040656
X038184
X0372
X03455Y021066
Y02205
Y02465
Y025634
X054734Y046688
X057734
T04
X04736Y018
X04836
X04936
X05036
X05136
X04636
X04536
X04436
X0597Y032954
Y033954
Y034954
Y035954
Y036954
Y037954
Y038954
Y039954
Y040954
Y041954
T05
X0577Y0284
X0587
X0597
Y029914
X0587
X0577
X03435Y03685
Y03785
Y03885
Y03985
Y04135
X03535
X03635
X0353Y042686
X0343
X04705Y0389
X04805
X04905
X05005
X0577Y03125
X0587
X0597
T06
X0597Y0177
X0344
X0597Y0489
X0344
M30
