G04*
G04 #@! TF.GenerationSoftware,Altium Limited,Altium Designer,22.9.1 (49)*
G04*
G04 Layer_Color=32768*
%FSTAX24Y24*%
%MOIN*%
G70*
G04*
G04 #@! TF.SameCoordinates,D3726A14-7932-4F0B-9928-97F3702F6CAB*
G04*
G04*
G04 #@! TF.FilePolarity,Positive*
G04*
G01*
G75*
%ADD13C,0.0079*%
%ADD76C,0.0039*%
G36*
X016798Y028611D02*
Y02861D01*
Y028609D01*
Y028607D01*
Y028604D01*
X016798Y028601D01*
Y028598D01*
X016797Y028593D01*
X016797Y028589D01*
X016796Y028579D01*
X016794Y028569D01*
X016792Y028559D01*
X016791Y028554D01*
X016789Y02855D01*
Y028549D01*
X016789Y028549D01*
X016788Y028548D01*
X016787Y028546D01*
X016785Y028542D01*
X016782Y028537D01*
X016778Y028531D01*
X016773Y028525D01*
X016766Y028519D01*
X016758Y028514D01*
X016758D01*
X016757Y028513D01*
X016756Y028513D01*
X016754Y028512D01*
X016752Y028511D01*
X016749Y028509D01*
X016746Y028508D01*
X016742Y028507D01*
X016738Y028505D01*
X016734Y028504D01*
X016729Y028503D01*
X016724Y028502D01*
X016718Y028501D01*
X016712Y028501D01*
X016699Y0285D01*
X016696D01*
X016694Y0285D01*
X016691D01*
X016687Y028501D01*
X016683Y028501D01*
X016679Y028501D01*
X01667Y028503D01*
X01666Y028505D01*
X016651Y028508D01*
X016641Y028512D01*
X016641D01*
X01664Y028513D01*
X016639Y028513D01*
X016638Y028514D01*
X016634Y028517D01*
X016629Y028521D01*
X016624Y028526D01*
X016619Y028532D01*
X016613Y028539D01*
X016609Y028547D01*
Y028548D01*
X016609Y028548D01*
X016609Y02855D01*
X016608Y028552D01*
X016607Y028554D01*
X016607Y028557D01*
X016605Y02856D01*
X016605Y028564D01*
X016604Y028568D01*
X016603Y028573D01*
X016602Y028578D01*
X016601Y028584D01*
X016601Y02859D01*
X0166Y028596D01*
X0166Y028603D01*
Y028611D01*
Y028756D01*
X016633D01*
Y028611D01*
Y02861D01*
Y028609D01*
Y028607D01*
Y028605D01*
X016634Y028603D01*
Y028599D01*
X016634Y028592D01*
X016635Y028584D01*
X016636Y028576D01*
X016637Y028569D01*
X016638Y028566D01*
X016639Y028562D01*
X01664Y028562D01*
X01664Y02856D01*
X016642Y028557D01*
X016644Y028554D01*
X016647Y02855D01*
X016651Y028546D01*
X016655Y028542D01*
X01666Y028539D01*
X016661Y028538D01*
X016663Y028537D01*
X016666Y028536D01*
X01667Y028535D01*
X016675Y028533D01*
X016682Y028532D01*
X016689Y028531D01*
X016696Y02853D01*
X0167D01*
X016702Y028531D01*
X016706D01*
X016709Y028531D01*
X016717Y028532D01*
X016726Y028534D01*
X016734Y028537D01*
X016742Y028541D01*
X016746Y028544D01*
X016749Y028547D01*
X016749Y028547D01*
X01675Y028547D01*
X01675Y028548D01*
X016751Y02855D01*
X016753Y028552D01*
X016754Y028554D01*
X016755Y028558D01*
X016757Y028561D01*
X016758Y028565D01*
X016759Y02857D01*
X016761Y028575D01*
X016762Y028581D01*
X016763Y028587D01*
X016764Y028594D01*
X016765Y028602D01*
Y028611D01*
Y028756D01*
X016798D01*
Y028611D01*
D02*
G37*
G36*
X016996Y028723D02*
X016895D01*
X016882Y028655D01*
X016882Y028656D01*
X016883Y028656D01*
X016884Y028657D01*
X016886Y028658D01*
X016888Y028659D01*
X01689Y028661D01*
X016896Y028663D01*
X016904Y028666D01*
X016912Y028669D01*
X01692Y028671D01*
X016925Y028671D01*
X016933D01*
X016935Y028671D01*
X016938Y028671D01*
X016941Y02867D01*
X016945Y02867D01*
X016949Y028669D01*
X016957Y028666D01*
X016962Y028664D01*
X016967Y028662D01*
X016972Y028659D01*
X016976Y028656D01*
X016981Y028653D01*
X016985Y028649D01*
X016985Y028648D01*
X016986Y028647D01*
X016987Y028646D01*
X016989Y028644D01*
X016991Y028642D01*
X016992Y028639D01*
X016995Y028636D01*
X016997Y028632D01*
X016999Y028628D01*
X017001Y028624D01*
X017003Y028619D01*
X017004Y028614D01*
X017006Y028608D01*
X017007Y028602D01*
X017008Y028596D01*
X017008Y02859D01*
Y028589D01*
Y028588D01*
Y028586D01*
X017008Y028584D01*
X017007Y028581D01*
X017007Y028578D01*
X017006Y028574D01*
X017005Y02857D01*
X017003Y02856D01*
X017Y02855D01*
X016997Y028545D01*
X016995Y02854D01*
X016992Y028535D01*
X016988Y028531D01*
X016988Y02853D01*
X016987Y028529D01*
X016985Y028528D01*
X016984Y028526D01*
X016981Y028524D01*
X016978Y028521D01*
X016975Y028518D01*
X016971Y028515D01*
X016966Y028512D01*
X016961Y02851D01*
X016956Y028507D01*
X01695Y028505D01*
X016944Y028503D01*
X016937Y028501D01*
X016929Y0285D01*
X016922Y0285D01*
X016918D01*
X016916Y0285D01*
X016913Y028501D01*
X01691Y028501D01*
X016906Y028501D01*
X016902Y028503D01*
X016893Y028505D01*
X016884Y028508D01*
X016879Y02851D01*
X016874Y028513D01*
X01687Y028516D01*
X016865Y028519D01*
X016865Y028519D01*
X016864Y02852D01*
X016864Y028521D01*
X016862Y028523D01*
X01686Y028524D01*
X016858Y028527D01*
X016856Y028529D01*
X016854Y028533D01*
X016852Y028536D01*
X01685Y02854D01*
X016846Y028549D01*
X016843Y028559D01*
X016842Y028564D01*
X016841Y02857D01*
X016873Y028573D01*
Y028572D01*
Y028572D01*
X016874Y028571D01*
X016874Y028569D01*
X016875Y028565D01*
X016877Y028559D01*
X016879Y028554D01*
X016882Y028548D01*
X016885Y028542D01*
X01689Y028537D01*
X01689Y028537D01*
X016892Y028535D01*
X016895Y028533D01*
X016899Y028531D01*
X016903Y028529D01*
X016909Y028527D01*
X016915Y028526D01*
X016922Y028525D01*
X016924D01*
X016925Y028526D01*
X01693Y028526D01*
X016935Y028528D01*
X016941Y028529D01*
X016947Y028532D01*
X016954Y028537D01*
X016957Y028539D01*
X01696Y028542D01*
X01696Y028543D01*
X01696Y028543D01*
X016961Y028544D01*
X016962Y028545D01*
X016965Y028549D01*
X016968Y028554D01*
X01697Y02856D01*
X016973Y028568D01*
X016975Y028577D01*
X016975Y028582D01*
Y028587D01*
Y028587D01*
Y028588D01*
Y02859D01*
X016975Y028591D01*
Y028594D01*
X016975Y028596D01*
X016973Y028602D01*
X016972Y028609D01*
X016969Y028616D01*
X016965Y028622D01*
X01696Y028628D01*
Y028629D01*
X01696Y028629D01*
X016958Y028631D01*
X016955Y028634D01*
X01695Y028636D01*
X016944Y028639D01*
X016938Y028642D01*
X01693Y028643D01*
X016926Y028644D01*
X016919D01*
X016916Y028644D01*
X016912Y028643D01*
X016908Y028642D01*
X016904Y028641D01*
X016899Y028639D01*
X016894Y028637D01*
X016894Y028637D01*
X016892Y028636D01*
X01689Y028634D01*
X016887Y028632D01*
X016884Y02863D01*
X016881Y028627D01*
X016878Y028623D01*
X016876Y028619D01*
X016846Y028623D01*
X016871Y028753D01*
X016996D01*
Y028723D01*
D02*
G37*
G36*
X006385Y007714D02*
X006446D01*
Y007683D01*
X006385D01*
Y007573D01*
X006357D01*
X006194Y007689D01*
Y007714D01*
X006357D01*
Y007748D01*
X006385D01*
Y007714D01*
D02*
G37*
G36*
X006349Y007541D02*
X006352D01*
X006357Y00754D01*
X006361Y00754D01*
X006371Y007539D01*
X006381Y007537D01*
X006391Y007535D01*
X006396Y007534D01*
X0064Y007532D01*
X0064D01*
X006401Y007532D01*
X006402Y007531D01*
X006404Y00753D01*
X006408Y007528D01*
X006413Y007525D01*
X006419Y00752D01*
X006425Y007515D01*
X006431Y007509D01*
X006436Y007501D01*
Y0075D01*
X006437Y0075D01*
X006437Y007499D01*
X006438Y007497D01*
X006439Y007495D01*
X006441Y007492D01*
X006442Y007489D01*
X006443Y007485D01*
X006445Y007481D01*
X006446Y007477D01*
X006447Y007472D01*
X006448Y007467D01*
X006449Y007461D01*
X006449Y007455D01*
X00645Y007442D01*
Y007439D01*
X00645Y007436D01*
Y007434D01*
X006449Y00743D01*
X006449Y007426D01*
X006449Y007422D01*
X006447Y007413D01*
X006445Y007403D01*
X006442Y007393D01*
X006438Y007384D01*
Y007384D01*
X006437Y007383D01*
X006437Y007382D01*
X006436Y007381D01*
X006433Y007377D01*
X006429Y007372D01*
X006424Y007367D01*
X006418Y007361D01*
X006411Y007356D01*
X006403Y007352D01*
X006402D01*
X006402Y007352D01*
X0064Y007352D01*
X006398Y007351D01*
X006396Y00735D01*
X006393Y007349D01*
X00639Y007348D01*
X006386Y007348D01*
X006382Y007347D01*
X006377Y007346D01*
X006372Y007345D01*
X006366Y007344D01*
X00636Y007344D01*
X006354Y007343D01*
X006347Y007343D01*
X006339D01*
X006194D01*
Y007376D01*
X006339D01*
X00634D01*
X006341D01*
X006343D01*
X006345D01*
X006347Y007377D01*
X006351D01*
X006358Y007377D01*
X006366Y007378D01*
X006374Y007379D01*
X006381Y00738D01*
X006384Y007381D01*
X006388Y007382D01*
X006388Y007383D01*
X00639Y007383D01*
X006393Y007385D01*
X006396Y007387D01*
X0064Y00739D01*
X006404Y007393D01*
X006408Y007398D01*
X006411Y007403D01*
X006412Y007404D01*
X006413Y007405D01*
X006414Y007409D01*
X006415Y007413D01*
X006417Y007418D01*
X006418Y007425D01*
X006419Y007432D01*
X00642Y007439D01*
Y007443D01*
X006419Y007445D01*
Y007448D01*
X006419Y007452D01*
X006418Y00746D01*
X006416Y007468D01*
X006413Y007477D01*
X006409Y007485D01*
X006406Y007488D01*
X006403Y007492D01*
X006403Y007492D01*
X006403Y007492D01*
X006402Y007493D01*
X0064Y007494D01*
X006398Y007495D01*
X006396Y007497D01*
X006392Y007498D01*
X006389Y0075D01*
X006385Y007501D01*
X00638Y007502D01*
X006375Y007504D01*
X006369Y007505D01*
X006363Y007506D01*
X006356Y007507D01*
X006348Y007507D01*
X006339D01*
X006194D01*
Y007541D01*
X006339D01*
X00634D01*
X006341D01*
X006343D01*
X006346D01*
X006349Y007541D01*
D02*
G37*
G36*
X026073Y005112D02*
X026073D01*
X026072D01*
X02607D01*
X026068Y005112D01*
X026066Y005111D01*
X026064D01*
X026057Y00511D01*
X026051Y005109D01*
X026044Y005107D01*
X026038Y005105D01*
X026036Y005103D01*
X026034Y005101D01*
X026033Y005101D01*
X026032Y0051D01*
X02603Y005097D01*
X026029Y005094D01*
X026026Y00509D01*
X026025Y005086D01*
X026024Y005081D01*
X026023Y005075D01*
Y005073D01*
X026024Y00507D01*
X026024Y005067D01*
X026025Y005064D01*
X026025Y00506D01*
X026027Y005057D01*
X026029Y005053D01*
X026029Y005053D01*
X02603Y005051D01*
X026031Y00505D01*
X026033Y005048D01*
X026035Y005046D01*
X026038Y005044D01*
X026041Y005042D01*
X026044Y005041D01*
X026045D01*
X026046Y00504D01*
X026049Y005039D01*
X026052Y005039D01*
X026056Y005038D01*
X026062Y005038D01*
X026068Y005037D01*
X026076D01*
X02625D01*
Y005003D01*
X026078D01*
X026077D01*
X026076D01*
X026075D01*
X026073D01*
X02607Y005004D01*
X026067D01*
X02606Y005005D01*
X026052Y005005D01*
X026044Y005007D01*
X026036Y005009D01*
X026029Y005011D01*
X026028D01*
X026028Y005012D01*
X026026Y005013D01*
X026023Y005015D01*
X026019Y005017D01*
X026015Y005021D01*
X02601Y005025D01*
X026006Y00503D01*
X026002Y005036D01*
X026002Y005037D01*
X026001Y005039D01*
X025999Y005042D01*
X025998Y005047D01*
X025996Y005053D01*
X025995Y005059D01*
X025994Y005066D01*
X025993Y005074D01*
Y005078D01*
X025994Y00508D01*
X025994Y005083D01*
X025994Y005086D01*
X025996Y005093D01*
X025998Y005101D01*
X026001Y00511D01*
X026003Y005114D01*
X026006Y005118D01*
X026009Y005122D01*
X026012Y005125D01*
X026013Y005126D01*
X026013Y005126D01*
X026014Y005127D01*
X026016Y005128D01*
X026018Y005129D01*
X02602Y005131D01*
X026023Y005132D01*
X026026Y005134D01*
X02603Y005136D01*
X026034Y005137D01*
X026039Y005138D01*
X026044Y00514D01*
X026049Y005141D01*
X026056Y005142D01*
X026062Y005142D01*
X026069D01*
X026073Y005112D01*
D02*
G37*
G36*
X02625Y004857D02*
Y004832D01*
X026086D01*
Y004797D01*
X026058D01*
Y004832D01*
X025998D01*
Y004863D01*
X026058D01*
Y004972D01*
X026086D01*
X02625Y004857D01*
D02*
G37*
G36*
X011552Y029867D02*
X01133D01*
Y029742D01*
X0113D01*
Y0299D01*
X011552D01*
Y029867D01*
D02*
G37*
G36*
X01149Y029691D02*
X01149Y029691D01*
X011491Y029689D01*
X011492Y029687D01*
X011493Y029685D01*
X011494Y029683D01*
X011498Y029677D01*
X011502Y029669D01*
X011507Y029662D01*
X011513Y029654D01*
X011519Y029647D01*
X011519Y029646D01*
X01152Y029646D01*
X011521Y029645D01*
X011522Y029643D01*
X011526Y02964D01*
X01153Y029636D01*
X011535Y029631D01*
X011541Y029627D01*
X011547Y029623D01*
X011553Y029619D01*
Y029599D01*
X0113D01*
Y02963D01*
X011497D01*
X011497Y02963D01*
X011495Y029632D01*
X011493Y029634D01*
X01149Y029638D01*
X011487Y029642D01*
X011483Y029647D01*
X011479Y029653D01*
X011475Y029659D01*
Y02966D01*
X011475Y02966D01*
X011474Y029662D01*
X011472Y029666D01*
X01147Y02967D01*
X011467Y029675D01*
X011465Y029681D01*
X011462Y029686D01*
X01146Y029692D01*
X01149D01*
Y029691D01*
D02*
G37*
G36*
X020856Y007267D02*
X020711D01*
X02071D01*
X020709D01*
X020707D01*
X020705D01*
X020703Y007266D01*
X020699D01*
X020692Y007266D01*
X020684Y007265D01*
X020676Y007264D01*
X020669Y007263D01*
X020666Y007262D01*
X020662Y007261D01*
X020662Y00726D01*
X02066Y00726D01*
X020657Y007258D01*
X020654Y007256D01*
X02065Y007253D01*
X020646Y007249D01*
X020642Y007245D01*
X020639Y00724D01*
X020638Y007239D01*
X020637Y007237D01*
X020636Y007234D01*
X020635Y00723D01*
X020633Y007225D01*
X020632Y007218D01*
X020631Y007211D01*
X02063Y007204D01*
Y0072D01*
X020631Y007198D01*
Y007194D01*
X020631Y007191D01*
X020632Y007183D01*
X020634Y007174D01*
X020637Y007166D01*
X020641Y007158D01*
X020644Y007154D01*
X020647Y007151D01*
X020647Y007151D01*
X020647Y00715D01*
X020648Y00715D01*
X02065Y007149D01*
X020652Y007147D01*
X020654Y007146D01*
X020658Y007145D01*
X020661Y007143D01*
X020665Y007142D01*
X02067Y007141D01*
X020675Y007139D01*
X020681Y007138D01*
X020687Y007137D01*
X020694Y007136D01*
X020702Y007135D01*
X020711D01*
X020856D01*
Y007102D01*
X020711D01*
X02071D01*
X020709D01*
X020707D01*
X020704D01*
X020701Y007102D01*
X020698D01*
X020693Y007103D01*
X020689Y007103D01*
X020679Y007104D01*
X020669Y007106D01*
X020659Y007108D01*
X020654Y007109D01*
X02065Y007111D01*
X020649D01*
X020649Y007111D01*
X020648Y007112D01*
X020646Y007113D01*
X020642Y007115D01*
X020637Y007118D01*
X020631Y007122D01*
X020625Y007127D01*
X020619Y007134D01*
X020614Y007142D01*
Y007142D01*
X020613Y007143D01*
X020613Y007144D01*
X020612Y007146D01*
X020611Y007148D01*
X020609Y007151D01*
X020608Y007154D01*
X020607Y007158D01*
X020605Y007162D01*
X020604Y007166D01*
X020603Y007171D01*
X020602Y007176D01*
X020601Y007182D01*
X020601Y007188D01*
X0206Y007201D01*
Y007204D01*
X0206Y007206D01*
Y007209D01*
X020601Y007213D01*
X020601Y007217D01*
X020601Y007221D01*
X020603Y00723D01*
X020605Y00724D01*
X020608Y007249D01*
X020612Y007259D01*
Y007259D01*
X020613Y00726D01*
X020613Y007261D01*
X020614Y007262D01*
X020617Y007266D01*
X020621Y007271D01*
X020626Y007276D01*
X020632Y007281D01*
X020639Y007287D01*
X020647Y007291D01*
X020648D01*
X020648Y007291D01*
X02065Y007291D01*
X020652Y007292D01*
X020654Y007293D01*
X020657Y007293D01*
X02066Y007295D01*
X020664Y007295D01*
X020668Y007296D01*
X020673Y007297D01*
X020678Y007298D01*
X020684Y007299D01*
X02069Y007299D01*
X020696Y0073D01*
X020703Y0073D01*
X020711D01*
X020856D01*
Y007267D01*
D02*
G37*
G36*
X020611Y007063D02*
X020615Y007063D01*
X020618Y007062D01*
X020622Y007061D01*
X020626Y00706D01*
X020626D01*
X020627Y007059D01*
X020629Y007059D01*
X020632Y007057D01*
X020636Y007055D01*
X020641Y007052D01*
X020647Y007048D01*
X020653Y007044D01*
X020659Y007039D01*
X02066D01*
X02066Y007039D01*
X020662Y007037D01*
X020666Y007034D01*
X02067Y007029D01*
X020676Y007023D01*
X020682Y007016D01*
X02069Y007008D01*
X020697Y006999D01*
X020698Y006999D01*
X020699Y006997D01*
X0207Y006995D01*
X020703Y006992D01*
X020706Y006989D01*
X020709Y006985D01*
X020712Y006981D01*
X020716Y006976D01*
X020725Y006967D01*
X020734Y006958D01*
X020738Y006954D01*
X020743Y00695D01*
X020747Y006946D01*
X020751Y006943D01*
X020751D01*
X020751Y006943D01*
X020753Y006942D01*
X020754Y006941D01*
X020758Y006939D01*
X020763Y006936D01*
X020769Y006933D01*
X020775Y006931D01*
X020782Y006929D01*
X020788Y006928D01*
X020789D01*
X020789D01*
X020791Y006929D01*
X020795Y006929D01*
X020799Y00693D01*
X020804Y006932D01*
X020809Y006934D01*
X020814Y006937D01*
X020819Y006942D01*
X02082Y006943D01*
X020821Y006944D01*
X020823Y006947D01*
X020826Y006951D01*
X020828Y006956D01*
X02083Y006962D01*
X020831Y006969D01*
X020832Y006976D01*
Y006979D01*
X020831Y00698D01*
X020831Y006984D01*
X02083Y00699D01*
X020829Y006995D01*
X020826Y007001D01*
X020823Y007007D01*
X020818Y007012D01*
X020818Y007013D01*
X020816Y007015D01*
X020813Y007017D01*
X020809Y007019D01*
X020803Y007022D01*
X020797Y007024D01*
X02079Y007025D01*
X020781Y007026D01*
X020785Y007058D01*
X020785D01*
X020786Y007057D01*
X020788D01*
X02079Y007057D01*
X020793Y007056D01*
X020797Y007055D01*
X020801Y007054D01*
X020805Y007053D01*
X020813Y00705D01*
X020822Y007046D01*
X020826Y007043D01*
X020831Y00704D01*
X020835Y007037D01*
X020838Y007033D01*
X020839Y007033D01*
X020839Y007032D01*
X02084Y007031D01*
X020841Y007029D01*
X020843Y007027D01*
X020844Y007024D01*
X020846Y007022D01*
X020848Y007018D01*
X02085Y007014D01*
X020852Y00701D01*
X020853Y007005D01*
X020854Y007D01*
X020856Y006994D01*
X020857Y006988D01*
X020857Y006982D01*
X020857Y006976D01*
Y006972D01*
X020857Y006969D01*
X020857Y006967D01*
X020856Y006963D01*
X020856Y006959D01*
X020855Y006955D01*
X020852Y006945D01*
X020849Y006936D01*
X020846Y006931D01*
X020844Y006927D01*
X020841Y006922D01*
X020837Y006918D01*
X020837Y006918D01*
X020836Y006917D01*
X020835Y006916D01*
X020833Y006915D01*
X020831Y006913D01*
X020829Y006911D01*
X020826Y006909D01*
X020823Y006907D01*
X020816Y006904D01*
X020807Y0069D01*
X020803Y006899D01*
X020798Y006898D01*
X020793Y006897D01*
X020787Y006897D01*
X020787D01*
X020785D01*
X020782Y006897D01*
X020778Y006897D01*
X020774Y006898D01*
X020769Y0069D01*
X020763Y006901D01*
X020758Y006903D01*
X020757Y006904D01*
X020755Y006904D01*
X020752Y006906D01*
X020748Y006908D01*
X020744Y006911D01*
X020738Y006915D01*
X020733Y006919D01*
X020727Y006924D01*
X020726Y006925D01*
X020724Y006927D01*
X020722Y006928D01*
X02072Y00693D01*
X020718Y006932D01*
X020715Y006935D01*
X020712Y006938D01*
X020709Y006942D01*
X020705Y006945D01*
X020701Y00695D01*
X020697Y006955D01*
X020692Y00696D01*
X020688Y006965D01*
X020683Y006971D01*
X020682Y006972D01*
X020682Y006972D01*
X02068Y006974D01*
X020679Y006976D01*
X020677Y006978D01*
X020675Y00698D01*
X02067Y006986D01*
X020664Y006992D01*
X020659Y006998D01*
X020654Y007003D01*
X020652Y007006D01*
X020651Y007007D01*
X02065Y007008D01*
X020649Y007009D01*
X020648Y00701D01*
X020645Y007012D01*
X020643Y007014D01*
X02064Y007016D01*
X020634Y00702D01*
Y006896D01*
X020604D01*
Y007063D01*
X020605D01*
X020606D01*
X020608D01*
X020611Y007063D01*
D02*
G37*
G36*
X02027Y001756D02*
X020272Y001756D01*
X020275Y001756D01*
X020283Y001754D01*
X020291Y001752D01*
X020299Y001749D01*
X020304Y001747D01*
X020308Y001744D01*
X020311Y001741D01*
X020315Y001738D01*
X020315Y001737D01*
X020316Y001737D01*
X020317Y001736D01*
X020318Y001734D01*
X020319Y001732D01*
X020321Y00173D01*
X020322Y001727D01*
X020324Y001724D01*
X020325Y00172D01*
X020327Y001716D01*
X020328Y001711D01*
X02033Y001706D01*
X02033Y001701D01*
X020331Y001694D01*
X020332Y001688D01*
Y001681D01*
X020302Y001677D01*
Y001677D01*
Y001678D01*
Y00168D01*
X020301Y001682D01*
X020301Y001684D01*
Y001686D01*
X0203Y001693D01*
X020299Y001699D01*
X020296Y001706D01*
X020294Y001712D01*
X020293Y001714D01*
X020291Y001716D01*
X020291Y001717D01*
X020289Y001718D01*
X020287Y00172D01*
X020284Y001721D01*
X02028Y001724D01*
X020276Y001725D01*
X02027Y001726D01*
X020264Y001727D01*
X020262D01*
X02026Y001726D01*
X020257Y001726D01*
X020254Y001725D01*
X02025Y001725D01*
X020246Y001723D01*
X020243Y001721D01*
X020242Y001721D01*
X020241Y00172D01*
X02024Y001719D01*
X020238Y001717D01*
X020236Y001715D01*
X020234Y001712D01*
X020232Y001709D01*
X02023Y001706D01*
Y001705D01*
X02023Y001704D01*
X020229Y001701D01*
X020228Y001698D01*
X020228Y001694D01*
X020227Y001688D01*
X020227Y001682D01*
Y001674D01*
Y0015D01*
X020193D01*
Y001672D01*
Y001673D01*
Y001674D01*
Y001675D01*
Y001677D01*
X020193Y00168D01*
Y001683D01*
X020194Y00169D01*
X020195Y001698D01*
X020196Y001706D01*
X020199Y001714D01*
X020201Y001721D01*
Y001722D01*
X020201Y001722D01*
X020203Y001724D01*
X020204Y001727D01*
X020207Y001731D01*
X020211Y001735D01*
X020215Y00174D01*
X02022Y001744D01*
X020226Y001748D01*
X020226Y001748D01*
X020228Y001749D01*
X020232Y001751D01*
X020236Y001752D01*
X020242Y001754D01*
X020249Y001755D01*
X020256Y001756D01*
X020264Y001757D01*
X020267D01*
X02027Y001756D01*
D02*
G37*
G36*
X020156Y001752D02*
Y001751D01*
Y001748D01*
X020155Y001745D01*
X020155Y001742D01*
X020154Y001738D01*
X020153Y001735D01*
X020152Y001731D01*
Y00173D01*
X020152Y00173D01*
X020151Y001728D01*
X020149Y001725D01*
X020147Y00172D01*
X020144Y001715D01*
X020141Y001709D01*
X020137Y001704D01*
X020132Y001697D01*
Y001697D01*
X020131Y001697D01*
X020129Y001694D01*
X020126Y001691D01*
X020121Y001686D01*
X020116Y001681D01*
X020109Y001674D01*
X0201Y001667D01*
X020091Y00166D01*
X020091Y001659D01*
X020089Y001658D01*
X020087Y001656D01*
X020085Y001654D01*
X020081Y001651D01*
X020077Y001648D01*
X020073Y001644D01*
X020069Y00164D01*
X02006Y001631D01*
X02005Y001623D01*
X020046Y001618D01*
X020042Y001614D01*
X020038Y00161D01*
X020036Y001606D01*
Y001606D01*
X020035Y001605D01*
X020034Y001604D01*
X020033Y001603D01*
X020031Y001599D01*
X020028Y001594D01*
X020025Y001588D01*
X020023Y001582D01*
X020021Y001575D01*
X020021Y001569D01*
Y001568D01*
Y001568D01*
X020021Y001566D01*
X020021Y001562D01*
X020022Y001558D01*
X020024Y001553D01*
X020026Y001548D01*
X02003Y001543D01*
X020034Y001538D01*
X020035Y001537D01*
X020037Y001535D01*
X020039Y001534D01*
X020043Y001531D01*
X020048Y001529D01*
X020054Y001527D01*
X020061Y001525D01*
X020069Y001525D01*
X020071D01*
X020072Y001525D01*
X020077Y001526D01*
X020082Y001527D01*
X020087Y001528D01*
X020093Y001531D01*
X020099Y001534D01*
X020105Y001538D01*
X020105Y001539D01*
X020107Y001541D01*
X020109Y001544D01*
X020111Y001548D01*
X020114Y001553D01*
X020116Y00156D01*
X020117Y001567D01*
X020118Y001575D01*
X02015Y001572D01*
Y001572D01*
X020149Y001571D01*
Y001569D01*
X020149Y001566D01*
X020148Y001563D01*
X020148Y00156D01*
X020147Y001556D01*
X020145Y001552D01*
X020143Y001543D01*
X020138Y001535D01*
X020136Y00153D01*
X020132Y001526D01*
X020129Y001522D01*
X020125Y001518D01*
X020125Y001518D01*
X020124Y001518D01*
X020123Y001516D01*
X020121Y001515D01*
X020119Y001514D01*
X020117Y001512D01*
X020114Y001511D01*
X02011Y001509D01*
X020106Y001507D01*
X020102Y001505D01*
X020097Y001504D01*
X020092Y001502D01*
X020086Y001501D01*
X020081Y0015D01*
X020074Y0015D01*
X020068Y001499D01*
X020064D01*
X020062Y0015D01*
X020059Y0015D01*
X020055Y0015D01*
X020051Y001501D01*
X020047Y001502D01*
X020038Y001504D01*
X020028Y001508D01*
X020023Y00151D01*
X020019Y001513D01*
X020014Y001516D01*
X02001Y00152D01*
X02001Y00152D01*
X020009Y00152D01*
X020009Y001522D01*
X020007Y001523D01*
X020005Y001525D01*
X020003Y001528D01*
X020002Y00153D01*
X019999Y001534D01*
X019996Y00154D01*
X019992Y001549D01*
X019991Y001554D01*
X01999Y001559D01*
X019989Y001564D01*
X019989Y001569D01*
Y00157D01*
Y001572D01*
X019989Y001575D01*
X01999Y001579D01*
X01999Y001583D01*
X019992Y001588D01*
X019993Y001594D01*
X019995Y001599D01*
X019996Y0016D01*
X019997Y001602D01*
X019998Y001605D01*
X02Y001609D01*
X020003Y001613D01*
X020007Y001618D01*
X020011Y001624D01*
X020016Y00163D01*
X020017Y001631D01*
X020019Y001633D01*
X020021Y001635D01*
X020022Y001637D01*
X020025Y001639D01*
X020027Y001642D01*
X02003Y001645D01*
X020034Y001648D01*
X020038Y001652D01*
X020042Y001656D01*
X020047Y00166D01*
X020052Y001664D01*
X020058Y001669D01*
X020064Y001674D01*
X020064Y001674D01*
X020065Y001675D01*
X020066Y001676D01*
X020068Y001678D01*
X02007Y00168D01*
X020073Y001682D01*
X020078Y001687D01*
X020085Y001692D01*
X02009Y001698D01*
X020096Y001702D01*
X020098Y001704D01*
X0201Y001706D01*
X0201Y001706D01*
X020101Y001708D01*
X020102Y001709D01*
X020104Y001711D01*
X020106Y001714D01*
X020108Y001716D01*
X020113Y001722D01*
X019989D01*
Y001752D01*
X020156D01*
Y001752D01*
D02*
G37*
G36*
X023533Y001756D02*
X023536Y001756D01*
X023539Y001756D01*
X023543Y001755D01*
X023547Y001754D01*
X023556Y001752D01*
X023565Y001748D01*
X023569Y001746D01*
X023574Y001744D01*
X023578Y00174D01*
X023583Y001737D01*
X023583Y001737D01*
X023584Y001736D01*
X023585Y001735D01*
X023586Y001733D01*
X023588Y001732D01*
X023589Y001729D01*
X023592Y001726D01*
X023594Y001723D01*
X023596Y00172D01*
X023598Y001716D01*
X023602Y001707D01*
X023605Y001697D01*
X023607Y001692D01*
X023607Y001686D01*
X023576Y001682D01*
Y001682D01*
X023576Y001683D01*
X023576Y001684D01*
X023575Y001686D01*
X023575Y001688D01*
X023574Y001691D01*
X023572Y001696D01*
X02357Y001703D01*
X023567Y001709D01*
X023563Y001715D01*
X023559Y00172D01*
X023558Y00172D01*
X023556Y001722D01*
X023553Y001724D01*
X02355Y001725D01*
X023545Y001728D01*
X02354Y001729D01*
X023534Y001731D01*
X023527Y001731D01*
X023525D01*
X023524Y001731D01*
X02352Y00173D01*
X023514Y001729D01*
X023509Y001728D01*
X023502Y001725D01*
X023496Y001721D01*
X02349Y001716D01*
X02349Y001716D01*
X023488Y001713D01*
X023486Y00171D01*
X023483Y001706D01*
X02348Y0017D01*
X023478Y001694D01*
X023476Y001687D01*
X023475Y001679D01*
Y001678D01*
Y001678D01*
Y001677D01*
X023476Y001675D01*
X023476Y001671D01*
X023477Y001666D01*
X023478Y001661D01*
X023481Y001655D01*
X023485Y001649D01*
X023489Y001643D01*
X02349Y001643D01*
X023492Y001641D01*
X023495Y001639D01*
X023499Y001637D01*
X023504Y001634D01*
X02351Y001632D01*
X023517Y00163D01*
X023525Y00163D01*
X023528D01*
X02353Y00163D01*
X023534Y00163D01*
X023537Y001631D01*
X023542Y001632D01*
X023547Y001633D01*
X023543Y001606D01*
X023541D01*
X02354Y001606D01*
X023535D01*
X023531Y001605D01*
X023526Y001605D01*
X023521Y001603D01*
X023514Y001602D01*
X023509Y001599D01*
X023502Y001596D01*
X023502D01*
X023502Y001595D01*
X0235Y001594D01*
X023497Y001591D01*
X023494Y001588D01*
X023492Y001583D01*
X023489Y001578D01*
X023487Y001572D01*
X023486Y001568D01*
Y001564D01*
Y001564D01*
Y001563D01*
Y001561D01*
X023487Y001558D01*
X023488Y001554D01*
X023489Y00155D01*
X023491Y001545D01*
X023494Y00154D01*
X023498Y001536D01*
X023498Y001536D01*
X0235Y001534D01*
X023503Y001532D01*
X023506Y00153D01*
X02351Y001528D01*
X023516Y001527D01*
X023521Y001525D01*
X023528Y001525D01*
X023531D01*
X023534Y001526D01*
X023538Y001526D01*
X023543Y001528D01*
X023548Y00153D01*
X023553Y001532D01*
X023558Y001536D01*
X023558Y001536D01*
X02356Y001538D01*
X023562Y001541D01*
X023564Y001544D01*
X023567Y001549D01*
X023569Y001555D01*
X023572Y001562D01*
X023573Y00157D01*
X023604Y001565D01*
Y001564D01*
X023604Y001563D01*
X023603Y001562D01*
X023603Y001559D01*
X023602Y001557D01*
X023601Y001554D01*
X023599Y001547D01*
X023595Y001539D01*
X023591Y001531D01*
X023585Y001523D01*
X023579Y001516D01*
X023578Y001516D01*
X023577Y001516D01*
X023576Y001515D01*
X023575Y001514D01*
X023573Y001512D01*
X023571Y001511D01*
X023568Y00151D01*
X023565Y001508D01*
X023557Y001505D01*
X023549Y001502D01*
X023539Y0015D01*
X023534Y001499D01*
X023525D01*
X023521Y0015D01*
X023516Y0015D01*
X02351Y001502D01*
X023504Y001503D01*
X023497Y001506D01*
X023491Y001508D01*
X02349D01*
X02349Y001509D01*
X023488Y00151D01*
X023485Y001512D01*
X023481Y001515D01*
X023477Y001518D01*
X023472Y001522D01*
X023468Y001527D01*
X023464Y001532D01*
X023464Y001533D01*
X023463Y001535D01*
X023461Y001538D01*
X02346Y001542D01*
X023458Y001547D01*
X023456Y001552D01*
X023455Y001559D01*
X023455Y001565D01*
Y001566D01*
Y001568D01*
X023455Y001571D01*
X023456Y001575D01*
X023457Y001579D01*
X023459Y001585D01*
X023461Y00159D01*
X023464Y001595D01*
X023464Y001595D01*
X023465Y001597D01*
X023468Y001599D01*
X02347Y001602D01*
X023474Y001606D01*
X023478Y001609D01*
X023484Y001613D01*
X02349Y001616D01*
X023489D01*
X023489Y001616D01*
X023488Y001617D01*
X023486Y001617D01*
X023482Y001618D01*
X023477Y001621D01*
X023471Y001623D01*
X023465Y001627D01*
X02346Y001632D01*
X023455Y001637D01*
X023454Y001638D01*
X023453Y00164D01*
X023451Y001644D01*
X023449Y001649D01*
X023446Y001654D01*
X023444Y001661D01*
X023443Y001669D01*
X023442Y001678D01*
Y001678D01*
Y00168D01*
Y001681D01*
X023443Y001684D01*
X023443Y001686D01*
X023444Y00169D01*
X023445Y001693D01*
X023445Y001697D01*
X023448Y001706D01*
X02345Y001711D01*
X023453Y001715D01*
X023456Y00172D01*
X023459Y001725D01*
X023462Y001729D01*
X023467Y001734D01*
X023467Y001734D01*
X023468Y001735D01*
X023469Y001736D01*
X023471Y001737D01*
X023473Y001739D01*
X023476Y001741D01*
X02348Y001743D01*
X023484Y001745D01*
X023488Y001747D01*
X023492Y001749D01*
X023497Y001751D01*
X023502Y001753D01*
X023508Y001755D01*
X023514Y001756D01*
X023521Y001756D01*
X023528Y001757D01*
X023531D01*
X023533Y001756D01*
D02*
G37*
G36*
X023726D02*
X023729Y001756D01*
X023732Y001756D01*
X023739Y001754D01*
X023747Y001752D01*
X023756Y001749D01*
X02376Y001747D01*
X023764Y001744D01*
X023768Y001741D01*
X023771Y001738D01*
X023772Y001737D01*
X023772Y001737D01*
X023773Y001736D01*
X023774Y001734D01*
X023775Y001732D01*
X023777Y00173D01*
X023778Y001727D01*
X02378Y001724D01*
X023782Y00172D01*
X023783Y001716D01*
X023785Y001711D01*
X023786Y001706D01*
X023787Y001701D01*
X023788Y001694D01*
X023788Y001688D01*
Y001681D01*
X023758Y001677D01*
Y001677D01*
Y001678D01*
Y00168D01*
X023758Y001682D01*
X023757Y001684D01*
Y001686D01*
X023756Y001693D01*
X023755Y001699D01*
X023753Y001706D01*
X023751Y001712D01*
X023749Y001714D01*
X023747Y001716D01*
X023747Y001717D01*
X023746Y001718D01*
X023743Y00172D01*
X023741Y001721D01*
X023737Y001724D01*
X023732Y001725D01*
X023727Y001726D01*
X023721Y001727D01*
X023719D01*
X023716Y001726D01*
X023713Y001726D01*
X02371Y001725D01*
X023706Y001725D01*
X023703Y001723D01*
X023699Y001721D01*
X023699Y001721D01*
X023698Y00172D01*
X023696Y001719D01*
X023694Y001717D01*
X023692Y001715D01*
X02369Y001712D01*
X023688Y001709D01*
X023687Y001706D01*
Y001705D01*
X023686Y001704D01*
X023686Y001701D01*
X023685Y001698D01*
X023684Y001694D01*
X023684Y001688D01*
X023683Y001682D01*
Y001674D01*
Y0015D01*
X02365D01*
Y001672D01*
Y001673D01*
Y001674D01*
Y001675D01*
Y001677D01*
X02365Y00168D01*
Y001683D01*
X023651Y00169D01*
X023651Y001698D01*
X023653Y001706D01*
X023655Y001714D01*
X023658Y001721D01*
Y001722D01*
X023658Y001722D01*
X023659Y001724D01*
X023661Y001727D01*
X023663Y001731D01*
X023667Y001735D01*
X023671Y00174D01*
X023676Y001744D01*
X023682Y001748D01*
X023683Y001748D01*
X023685Y001749D01*
X023688Y001751D01*
X023693Y001752D01*
X023699Y001754D01*
X023705Y001755D01*
X023712Y001756D01*
X023721Y001757D01*
X023724D01*
X023726Y001756D01*
D02*
G37*
G36*
X026073Y008578D02*
X026073D01*
X026072D01*
X02607D01*
X026068Y008577D01*
X026066Y008577D01*
X026064D01*
X026057Y008576D01*
X026051Y008575D01*
X026044Y008573D01*
X026038Y00857D01*
X026036Y008569D01*
X026034Y008567D01*
X026033Y008567D01*
X026032Y008565D01*
X02603Y008563D01*
X026029Y00856D01*
X026026Y008556D01*
X026025Y008552D01*
X026024Y008546D01*
X026023Y008541D01*
Y008538D01*
X026024Y008536D01*
X026024Y008533D01*
X026025Y00853D01*
X026025Y008526D01*
X026027Y008522D01*
X026029Y008519D01*
X026029Y008518D01*
X02603Y008517D01*
X026031Y008516D01*
X026033Y008514D01*
X026035Y008512D01*
X026038Y00851D01*
X026041Y008508D01*
X026044Y008506D01*
X026045D01*
X026046Y008506D01*
X026049Y008505D01*
X026052Y008504D01*
X026056Y008504D01*
X026062Y008503D01*
X026068Y008503D01*
X026076D01*
X02625D01*
Y008469D01*
X026078D01*
X026077D01*
X026076D01*
X026075D01*
X026073D01*
X02607Y00847D01*
X026067D01*
X02606Y00847D01*
X026052Y008471D01*
X026044Y008472D01*
X026036Y008475D01*
X026029Y008477D01*
X026028D01*
X026028Y008478D01*
X026026Y008479D01*
X026023Y00848D01*
X026019Y008483D01*
X026015Y008487D01*
X02601Y008491D01*
X026006Y008496D01*
X026002Y008502D01*
X026002Y008502D01*
X026001Y008504D01*
X025999Y008508D01*
X025998Y008513D01*
X025996Y008518D01*
X025995Y008525D01*
X025994Y008532D01*
X025993Y00854D01*
Y008543D01*
X025994Y008546D01*
X025994Y008549D01*
X025994Y008551D01*
X025996Y008559D01*
X025998Y008567D01*
X026001Y008575D01*
X026003Y00858D01*
X026006Y008584D01*
X026009Y008587D01*
X026012Y008591D01*
X026013Y008591D01*
X026013Y008592D01*
X026014Y008593D01*
X026016Y008594D01*
X026018Y008595D01*
X02602Y008597D01*
X026023Y008598D01*
X026026Y0086D01*
X02603Y008601D01*
X026034Y008603D01*
X026039Y008604D01*
X026044Y008606D01*
X026049Y008606D01*
X026056Y008608D01*
X026062Y008608D01*
X026069D01*
X026073Y008578D01*
D02*
G37*
G36*
X026066Y008395D02*
X026066D01*
X026065D01*
X026064Y008395D01*
X026062Y008394D01*
X026058Y008393D01*
X026053Y008392D01*
X026047Y008389D01*
X026041Y008387D01*
X026036Y008383D01*
X02603Y008379D01*
X02603Y008378D01*
X026029Y008376D01*
X026027Y008373D01*
X026025Y008369D01*
X026022Y008365D01*
X026021Y00836D01*
X026019Y008353D01*
X026019Y008347D01*
Y008344D01*
X026019Y008343D01*
X02602Y008339D01*
X026021Y008333D01*
X026023Y008327D01*
X026026Y008321D01*
X02603Y008314D01*
X026033Y008312D01*
X026036Y008309D01*
X026036Y008308D01*
X026036Y008308D01*
X026037Y008307D01*
X026038Y008306D01*
X026042Y008304D01*
X026048Y008301D01*
X026054Y008298D01*
X026061Y008296D01*
X02607Y008294D01*
X026075Y008293D01*
X02608D01*
X026081D01*
X026081D01*
X026083D01*
X026085Y008293D01*
X026087D01*
X026089Y008294D01*
X026095Y008295D01*
X026102Y008297D01*
X026109Y008299D01*
X026116Y008303D01*
X026122Y008308D01*
X026122D01*
X026123Y008309D01*
X026124Y00831D01*
X026127Y008314D01*
X02613Y008318D01*
X026132Y008324D01*
X026135Y008331D01*
X026137Y008338D01*
X026137Y008343D01*
Y008349D01*
X026137Y008352D01*
X026137Y008356D01*
X026136Y00836D01*
X026135Y008365D01*
X026133Y008369D01*
X026131Y008374D01*
X02613Y008375D01*
X026129Y008376D01*
X026128Y008378D01*
X026126Y008381D01*
X026123Y008384D01*
X02612Y008387D01*
X026117Y00839D01*
X026113Y008393D01*
X026117Y008422D01*
X026246Y008397D01*
Y008272D01*
X026217D01*
Y008373D01*
X026149Y008387D01*
X026149Y008386D01*
X026149Y008385D01*
X02615Y008384D01*
X026151Y008383D01*
X026152Y00838D01*
X026154Y008378D01*
X026157Y008372D01*
X02616Y008365D01*
X026162Y008357D01*
X026164Y008348D01*
X026165Y008344D01*
Y008336D01*
X026164Y008333D01*
X026164Y008331D01*
X026164Y008327D01*
X026163Y008324D01*
X026162Y00832D01*
X026159Y008311D01*
X026157Y008306D01*
X026155Y008301D01*
X026152Y008297D01*
X026149Y008292D01*
X026146Y008288D01*
X026142Y008283D01*
X026141Y008283D01*
X026141Y008282D01*
X02614Y008281D01*
X026138Y00828D01*
X026135Y008278D01*
X026133Y008276D01*
X026129Y008274D01*
X026126Y008272D01*
X026122Y00827D01*
X026117Y008268D01*
X026112Y008266D01*
X026107Y008264D01*
X026102Y008262D01*
X026096Y008261D01*
X026089Y008261D01*
X026083Y00826D01*
X026082D01*
X026081D01*
X02608D01*
X026077Y008261D01*
X026074Y008261D01*
X026071Y008261D01*
X026067Y008262D01*
X026063Y008263D01*
X026053Y008265D01*
X026044Y008269D01*
X026038Y008271D01*
X026034Y008274D01*
X026029Y008277D01*
X026024Y00828D01*
X026024Y008281D01*
X026022Y008281D01*
X026021Y008283D01*
X026019Y008285D01*
X026017Y008287D01*
X026014Y00829D01*
X026012Y008294D01*
X026009Y008298D01*
X026006Y008302D01*
X026003Y008307D01*
X026001Y008313D01*
X025998Y008318D01*
X025996Y008325D01*
X025995Y008332D01*
X025994Y008339D01*
X025993Y008347D01*
Y00835D01*
X025994Y008352D01*
X025994Y008355D01*
X025994Y008359D01*
X025995Y008363D01*
X025996Y008367D01*
X025998Y008376D01*
X026001Y008385D01*
X026003Y008389D01*
X026006Y008394D01*
X026009Y008399D01*
X026012Y008403D01*
X026013Y008403D01*
X026013Y008404D01*
X026014Y008405D01*
X026016Y008406D01*
X026018Y008408D01*
X02602Y00841D01*
X026023Y008412D01*
X026026Y008414D01*
X026029Y008416D01*
X026033Y008418D01*
X026042Y008422D01*
X026052Y008426D01*
X026058Y008427D01*
X026064Y008427D01*
X026066Y008395D01*
D02*
G37*
G36*
X007686Y002056D02*
X007689Y002056D01*
X007692Y002056D01*
X0077Y002054D01*
X007708Y002052D01*
X007716Y002049D01*
X007721Y002047D01*
X007725Y002044D01*
X007728Y002041D01*
X007732Y002038D01*
X007732Y002037D01*
X007733Y002037D01*
X007733Y002036D01*
X007734Y002034D01*
X007736Y002032D01*
X007737Y00203D01*
X007739Y002027D01*
X007741Y002024D01*
X007742Y00202D01*
X007743Y002016D01*
X007745Y002011D01*
X007746Y002006D01*
X007747Y002001D01*
X007748Y001994D01*
X007749Y001988D01*
Y001981D01*
X007718Y001977D01*
Y001977D01*
Y001978D01*
Y00198D01*
X007718Y001982D01*
X007718Y001984D01*
Y001986D01*
X007717Y001993D01*
X007715Y001999D01*
X007713Y002006D01*
X007711Y002012D01*
X00771Y002014D01*
X007708Y002016D01*
X007707Y002017D01*
X007706Y002018D01*
X007704Y00202D01*
X007701Y002021D01*
X007697Y002024D01*
X007692Y002025D01*
X007687Y002026D01*
X007681Y002027D01*
X007679D01*
X007677Y002026D01*
X007674Y002026D01*
X00767Y002025D01*
X007667Y002025D01*
X007663Y002023D01*
X007659Y002021D01*
X007659Y002021D01*
X007658Y00202D01*
X007656Y002019D01*
X007654Y002017D01*
X007652Y002015D01*
X00765Y002012D01*
X007648Y002009D01*
X007647Y002006D01*
Y002005D01*
X007646Y002004D01*
X007646Y002001D01*
X007645Y001998D01*
X007644Y001994D01*
X007644Y001988D01*
X007643Y001982D01*
Y001974D01*
Y0018D01*
X00761D01*
Y001972D01*
Y001973D01*
Y001974D01*
Y001975D01*
Y001977D01*
X00761Y00198D01*
Y001983D01*
X007611Y00199D01*
X007612Y001998D01*
X007613Y002006D01*
X007615Y002014D01*
X007618Y002021D01*
Y002022D01*
X007618Y002022D01*
X007619Y002024D01*
X007621Y002027D01*
X007624Y002031D01*
X007627Y002035D01*
X007631Y00204D01*
X007636Y002044D01*
X007642Y002048D01*
X007643Y002048D01*
X007645Y002049D01*
X007648Y002051D01*
X007653Y002052D01*
X007659Y002054D01*
X007666Y002055D01*
X007673Y002056D01*
X007681Y002057D01*
X007684D01*
X007686Y002056D01*
D02*
G37*
G36*
X007486D02*
X007489D01*
X007492Y002056D01*
X007496Y002055D01*
X0075Y002054D01*
X007504Y002053D01*
X007509Y002052D01*
X007514Y00205D01*
X00752Y002048D01*
X007525Y002045D01*
X00753Y002041D01*
X007535Y002038D01*
X00754Y002033D01*
X007545Y002028D01*
X007545Y002028D01*
X007546Y002027D01*
X007547Y002025D01*
X007549Y002023D01*
X007551Y00202D01*
X007553Y002016D01*
X007555Y002011D01*
X007557Y002006D01*
X00756Y002D01*
X007562Y001993D01*
X007564Y001985D01*
X007565Y001977D01*
X007567Y001968D01*
X007568Y001957D01*
X007569Y001946D01*
X007569Y001935D01*
Y001934D01*
Y001934D01*
Y001933D01*
Y001931D01*
X007569Y001928D01*
Y001923D01*
X007569Y001917D01*
X007568Y00191D01*
X007567Y001902D01*
X007566Y001894D01*
X007565Y001886D01*
X007563Y001877D01*
X007561Y001868D01*
X007558Y001859D01*
X007555Y001851D01*
X007551Y001843D01*
X007547Y001835D01*
X007543Y001828D01*
X007542Y001828D01*
X007541Y001827D01*
X00754Y001826D01*
X007538Y001824D01*
X007536Y001822D01*
X007533Y001819D01*
X007529Y001816D01*
X007526Y001814D01*
X007521Y001811D01*
X007517Y001808D01*
X007511Y001806D01*
X007506Y001804D01*
X0075Y001802D01*
X007493Y0018D01*
X007486Y0018D01*
X007479Y001799D01*
X007476D01*
X007474Y0018D01*
X007471D01*
X007468Y0018D01*
X007461Y001802D01*
X007454Y001803D01*
X007446Y001806D01*
X007438Y001811D01*
X007434Y001813D01*
X00743Y001816D01*
X00743Y001816D01*
X007429Y001817D01*
X007428Y001818D01*
X007427Y001819D01*
X007425Y001821D01*
X007424Y001823D01*
X00742Y001828D01*
X007416Y001835D01*
X007412Y001843D01*
X007409Y001852D01*
X007407Y001862D01*
X007438Y001865D01*
Y001864D01*
X007438Y001864D01*
X007438Y001862D01*
X007439Y001858D01*
X007441Y001854D01*
X007442Y00185D01*
X007445Y001846D01*
X007447Y001842D01*
X00745Y001838D01*
X00745Y001838D01*
X007452Y001836D01*
X007454Y001834D01*
X007458Y001831D01*
X007463Y001829D01*
X007468Y001827D01*
X007474Y001826D01*
X007481Y001825D01*
X007483D01*
X007486Y001825D01*
X007489Y001826D01*
X007494Y001827D01*
X007498Y001828D01*
X007502Y00183D01*
X007507Y001833D01*
X007508Y001834D01*
X007509Y001835D01*
X007512Y001838D01*
X007515Y001841D01*
X007519Y001846D01*
X007523Y001851D01*
X007526Y001857D01*
X00753Y001865D01*
Y001865D01*
X00753Y001866D01*
X007531Y001867D01*
X007532Y001868D01*
X007532Y00187D01*
X007533Y001873D01*
X007533Y001876D01*
X007534Y001879D01*
X007535Y001883D01*
X007536Y001888D01*
X007537Y001893D01*
X007537Y001898D01*
X007538Y001903D01*
X007538Y001909D01*
X007538Y001916D01*
Y001922D01*
X007538Y001922D01*
X007537Y00192D01*
X007534Y001917D01*
X007531Y001913D01*
X007527Y001909D01*
X007522Y001905D01*
X007517Y001901D01*
X007512Y001897D01*
X007511D01*
X007511Y001897D01*
X007509Y001896D01*
X007505Y001895D01*
X007501Y001893D01*
X007496Y001891D01*
X00749Y00189D01*
X007484Y001889D01*
X007477Y001889D01*
X007474D01*
X007472Y001889D01*
X007469Y00189D01*
X007466Y00189D01*
X007463Y001891D01*
X007459Y001892D01*
X007451Y001894D01*
X007446Y001896D01*
X007442Y001899D01*
X007438Y001901D01*
X007433Y001904D01*
X007429Y001908D01*
X007425Y001912D01*
X007424Y001912D01*
X007423Y001913D01*
X007422Y001914D01*
X007421Y001916D01*
X007419Y001918D01*
X007418Y001921D01*
X007416Y001924D01*
X007414Y001928D01*
X007411Y001932D01*
X00741Y001936D01*
X007408Y001941D01*
X007406Y001946D01*
X007405Y001952D01*
X007404Y001958D01*
X007403Y001964D01*
X007403Y001971D01*
Y001971D01*
Y001972D01*
Y001973D01*
Y001975D01*
X007403Y001977D01*
Y001979D01*
X007404Y001985D01*
X007405Y001992D01*
X007407Y001999D01*
X00741Y002007D01*
X007413Y002015D01*
Y002015D01*
X007414Y002016D01*
X007414Y002017D01*
X007415Y002018D01*
X007417Y002022D01*
X007421Y002026D01*
X007425Y002032D01*
X007429Y002037D01*
X007435Y002042D01*
X007441Y002046D01*
X007442D01*
X007442Y002047D01*
X007443Y002047D01*
X007445Y002048D01*
X007448Y002049D01*
X007453Y002051D01*
X007459Y002053D01*
X007466Y002055D01*
X007474Y002056D01*
X007482Y002057D01*
X007484D01*
X007486Y002056D01*
D02*
G37*
G36*
X013906Y007117D02*
X013761D01*
X01376D01*
X013759D01*
X013757D01*
X013755D01*
X013753Y007116D01*
X013749D01*
X013742Y007116D01*
X013734Y007115D01*
X013726Y007114D01*
X013719Y007113D01*
X013716Y007112D01*
X013712Y007111D01*
X013712Y00711D01*
X01371Y00711D01*
X013707Y007108D01*
X013704Y007106D01*
X0137Y007103D01*
X013696Y007099D01*
X013692Y007095D01*
X013689Y00709D01*
X013688Y007089D01*
X013687Y007087D01*
X013686Y007084D01*
X013685Y00708D01*
X013683Y007075D01*
X013682Y007068D01*
X013681Y007061D01*
X01368Y007054D01*
Y00705D01*
X013681Y007048D01*
Y007044D01*
X013681Y007041D01*
X013682Y007033D01*
X013684Y007024D01*
X013687Y007016D01*
X013691Y007008D01*
X013694Y007004D01*
X013697Y007001D01*
X013697Y007001D01*
X013697Y007D01*
X013698Y007D01*
X0137Y006999D01*
X013702Y006997D01*
X013704Y006996D01*
X013708Y006995D01*
X013711Y006993D01*
X013715Y006992D01*
X01372Y006991D01*
X013725Y006989D01*
X013731Y006988D01*
X013737Y006987D01*
X013744Y006986D01*
X013752Y006985D01*
X013761D01*
X013906D01*
Y006952D01*
X013761D01*
X01376D01*
X013759D01*
X013757D01*
X013754D01*
X013751Y006952D01*
X013748D01*
X013743Y006953D01*
X013739Y006953D01*
X013729Y006954D01*
X013719Y006956D01*
X013709Y006958D01*
X013704Y006959D01*
X0137Y006961D01*
X0137D01*
X013699Y006961D01*
X013698Y006962D01*
X013696Y006963D01*
X013692Y006965D01*
X013687Y006968D01*
X013681Y006972D01*
X013675Y006977D01*
X013669Y006984D01*
X013664Y006992D01*
Y006992D01*
X013663Y006993D01*
X013663Y006994D01*
X013662Y006996D01*
X013661Y006998D01*
X013659Y007001D01*
X013658Y007004D01*
X013657Y007008D01*
X013655Y007012D01*
X013654Y007016D01*
X013653Y007021D01*
X013652Y007026D01*
X013651Y007032D01*
X013651Y007038D01*
X01365Y007051D01*
Y007054D01*
X01365Y007056D01*
Y007059D01*
X013651Y007063D01*
X013651Y007067D01*
X013651Y007071D01*
X013653Y00708D01*
X013655Y00709D01*
X013658Y007099D01*
X013662Y007109D01*
Y007109D01*
X013663Y00711D01*
X013663Y007111D01*
X013664Y007112D01*
X013667Y007116D01*
X013671Y007121D01*
X013676Y007126D01*
X013682Y007131D01*
X013689Y007137D01*
X013697Y007141D01*
X013698D01*
X013698Y007141D01*
X0137Y007141D01*
X013702Y007142D01*
X013704Y007143D01*
X013707Y007143D01*
X01371Y007145D01*
X013714Y007145D01*
X013718Y007146D01*
X013723Y007147D01*
X013728Y007148D01*
X013734Y007149D01*
X01374Y007149D01*
X013746Y00715D01*
X013753Y00715D01*
X013761D01*
X013906D01*
Y007117D01*
D02*
G37*
G36*
X013725Y006878D02*
X013725D01*
X013724Y006877D01*
X013722Y006877D01*
X013721Y006877D01*
X013718Y006876D01*
X013716Y006876D01*
X01371Y006874D01*
X013704Y006871D01*
X013698Y006868D01*
X013692Y006864D01*
X013687Y00686D01*
X013686Y006859D01*
X013685Y006858D01*
X013683Y006855D01*
X013681Y006851D01*
X013679Y006847D01*
X013677Y006841D01*
X013676Y006835D01*
X013675Y006829D01*
Y006826D01*
X013676Y006825D01*
X013676Y006821D01*
X013677Y006816D01*
X013679Y00681D01*
X013682Y006804D01*
X013685Y006798D01*
X01369Y006792D01*
X013691Y006791D01*
X013693Y006789D01*
X013697Y006787D01*
X013701Y006784D01*
X013706Y006781D01*
X013713Y006779D01*
X01372Y006777D01*
X013728Y006777D01*
X013728D01*
X013729D01*
X01373D01*
X013732Y006777D01*
X013736Y006777D01*
X01374Y006778D01*
X013746Y00678D01*
X013752Y006782D01*
X013758Y006786D01*
X013763Y006791D01*
X013764Y006791D01*
X013765Y006793D01*
X013768Y006796D01*
X01377Y0068D01*
X013773Y006805D01*
X013775Y006811D01*
X013776Y006818D01*
X013777Y006826D01*
Y006829D01*
X013777Y006832D01*
X013776Y006835D01*
X013776Y006839D01*
X013775Y006843D01*
X013774Y006848D01*
X013801Y006844D01*
Y006842D01*
X013801Y006841D01*
Y006836D01*
X013801Y006832D01*
X013802Y006827D01*
X013803Y006822D01*
X013805Y006816D01*
X013808Y00681D01*
X013811Y006804D01*
Y006803D01*
X013811Y006803D01*
X013813Y006801D01*
X013815Y006799D01*
X013819Y006796D01*
X013823Y006793D01*
X013829Y00679D01*
X013835Y006789D01*
X013839Y006788D01*
X013843D01*
X013843D01*
X013843D01*
X013845D01*
X013848Y006789D01*
X013852Y006789D01*
X013857Y006791D01*
X013861Y006793D01*
X013866Y006795D01*
X013871Y006799D01*
X013871Y0068D01*
X013872Y006802D01*
X013874Y006804D01*
X013876Y006807D01*
X013878Y006812D01*
X01388Y006817D01*
X013881Y006823D01*
X013882Y006829D01*
Y006832D01*
X013881Y006836D01*
X01388Y00684D01*
X013879Y006845D01*
X013877Y006849D01*
X013874Y006854D01*
X013871Y006859D01*
X01387Y00686D01*
X013868Y006861D01*
X013866Y006863D01*
X013862Y006866D01*
X013857Y006868D01*
X013852Y006871D01*
X013845Y006873D01*
X013837Y006874D01*
X013842Y006905D01*
X013843D01*
X013844Y006905D01*
X013845Y006905D01*
X013847Y006904D01*
X01385Y006904D01*
X013853Y006902D01*
X01386Y0069D01*
X013868Y006897D01*
X013876Y006892D01*
X013883Y006887D01*
X01389Y00688D01*
X013891Y00688D01*
X013891Y006879D01*
X013892Y006878D01*
X013893Y006876D01*
X013894Y006874D01*
X013896Y006872D01*
X013897Y006869D01*
X013899Y006866D01*
X013902Y006859D01*
X013905Y00685D01*
X013907Y006841D01*
X013907Y006836D01*
Y006826D01*
X013907Y006822D01*
X013906Y006818D01*
X013905Y006812D01*
X013903Y006805D01*
X013901Y006799D01*
X013898Y006792D01*
Y006792D01*
X013898Y006791D01*
X013897Y006789D01*
X013895Y006786D01*
X013892Y006782D01*
X013888Y006778D01*
X013884Y006774D01*
X01388Y006769D01*
X013874Y006766D01*
X013873Y006765D01*
X013872Y006764D01*
X013868Y006763D01*
X013864Y006761D01*
X01386Y006759D01*
X013854Y006758D01*
X013848Y006757D01*
X013842Y006756D01*
X013841D01*
X013839D01*
X013836Y006757D01*
X013832Y006757D01*
X013827Y006758D01*
X013822Y00676D01*
X013817Y006762D01*
X013812Y006765D01*
X013811Y006766D01*
X01381Y006767D01*
X013807Y006769D01*
X013804Y006772D01*
X013801Y006775D01*
X013797Y00678D01*
X013794Y006785D01*
X013791Y006791D01*
Y006791D01*
X013791Y00679D01*
X01379Y006789D01*
X01379Y006787D01*
X013788Y006783D01*
X013786Y006778D01*
X013783Y006773D01*
X01378Y006767D01*
X013775Y006761D01*
X013769Y006756D01*
X013769Y006756D01*
X013766Y006754D01*
X013763Y006752D01*
X013758Y00675D01*
X013752Y006748D01*
X013745Y006746D01*
X013737Y006744D01*
X013729Y006744D01*
X013728D01*
X013727D01*
X013725D01*
X013723Y006744D01*
X01372Y006745D01*
X013717Y006745D01*
X013713Y006746D01*
X013709Y006747D01*
X013701Y00675D01*
X013696Y006752D01*
X013691Y006754D01*
X013687Y006757D01*
X013682Y00676D01*
X013677Y006764D01*
X013673Y006768D01*
X013673Y006769D01*
X013672Y006769D01*
X013671Y006771D01*
X013669Y006773D01*
X013667Y006775D01*
X013666Y006778D01*
X013663Y006781D01*
X013662Y006785D01*
X013659Y006789D01*
X013657Y006794D01*
X013655Y006798D01*
X013654Y006804D01*
X013652Y00681D01*
X013651Y006816D01*
X01365Y006822D01*
X01365Y006829D01*
Y006832D01*
X01365Y006834D01*
X013651Y006837D01*
X013651Y006841D01*
X013652Y006844D01*
X013653Y006848D01*
X013655Y006857D01*
X013658Y006866D01*
X013661Y006871D01*
X013663Y006875D01*
X013666Y00688D01*
X01367Y006884D01*
X01367Y006884D01*
X013671Y006885D01*
X013672Y006886D01*
X013673Y006887D01*
X013675Y006889D01*
X013678Y006891D01*
X01368Y006893D01*
X013683Y006895D01*
X013687Y006897D01*
X013691Y0069D01*
X0137Y006904D01*
X01371Y006907D01*
X013715Y006908D01*
X013721Y006909D01*
X013725Y006878D01*
D02*
G37*
G36*
X00423Y002056D02*
X004233Y002056D01*
X004236Y002056D01*
X004243Y002054D01*
X004251Y002052D01*
X00426Y002049D01*
X004264Y002047D01*
X004268Y002044D01*
X004272Y002041D01*
X004275Y002038D01*
X004276Y002037D01*
X004276Y002037D01*
X004277Y002036D01*
X004278Y002034D01*
X004279Y002032D01*
X004281Y00203D01*
X004282Y002027D01*
X004284Y002024D01*
X004286Y00202D01*
X004287Y002016D01*
X004288Y002011D01*
X00429Y002006D01*
X004291Y002001D01*
X004292Y001994D01*
X004292Y001988D01*
Y001981D01*
X004262Y001977D01*
Y001977D01*
Y001978D01*
Y00198D01*
X004262Y001982D01*
X004261Y001984D01*
Y001986D01*
X00426Y001993D01*
X004259Y001999D01*
X004257Y002006D01*
X004255Y002012D01*
X004253Y002014D01*
X004251Y002016D01*
X004251Y002017D01*
X00425Y002018D01*
X004247Y00202D01*
X004244Y002021D01*
X00424Y002024D01*
X004236Y002025D01*
X004231Y002026D01*
X004225Y002027D01*
X004223D01*
X00422Y002026D01*
X004217Y002026D01*
X004214Y002025D01*
X00421Y002025D01*
X004207Y002023D01*
X004203Y002021D01*
X004203Y002021D01*
X004201Y00202D01*
X0042Y002019D01*
X004198Y002017D01*
X004196Y002015D01*
X004194Y002012D01*
X004192Y002009D01*
X004191Y002006D01*
Y002005D01*
X00419Y002004D01*
X004189Y002001D01*
X004189Y001998D01*
X004188Y001994D01*
X004188Y001988D01*
X004187Y001982D01*
Y001974D01*
Y0018D01*
X004153D01*
Y001972D01*
Y001973D01*
Y001974D01*
Y001975D01*
Y001977D01*
X004154Y00198D01*
Y001983D01*
X004155Y00199D01*
X004155Y001998D01*
X004157Y002006D01*
X004159Y002014D01*
X004161Y002021D01*
Y002022D01*
X004162Y002022D01*
X004163Y002024D01*
X004165Y002027D01*
X004167Y002031D01*
X004171Y002035D01*
X004175Y00204D01*
X00418Y002044D01*
X004186Y002048D01*
X004187Y002048D01*
X004189Y002049D01*
X004192Y002051D01*
X004197Y002052D01*
X004203Y002054D01*
X004209Y002055D01*
X004216Y002056D01*
X004224Y002057D01*
X004228D01*
X00423Y002056D01*
D02*
G37*
G36*
X004074Y002052D02*
Y002051D01*
Y002049D01*
X004074Y002047D01*
Y002044D01*
X004073Y002041D01*
X004073Y002037D01*
X004073Y002032D01*
X004072Y002027D01*
X004071Y002022D01*
X00407Y002016D01*
X004069Y00201D01*
X004068Y002003D01*
X004066Y001996D01*
X004063Y001981D01*
Y001981D01*
X004062Y001979D01*
X004062Y001977D01*
X004061Y001974D01*
X00406Y00197D01*
X004058Y001966D01*
X004057Y001961D01*
X004054Y001955D01*
X004052Y001949D01*
X00405Y001943D01*
X004045Y001929D01*
X004038Y001914D01*
X004031Y0019D01*
X00403Y001899D01*
X00403Y001898D01*
X004029Y001896D01*
X004027Y001893D01*
X004025Y00189D01*
X004023Y001886D01*
X00402Y001882D01*
X004017Y001877D01*
X00401Y001866D01*
X004003Y001855D01*
X003995Y001844D01*
X003986Y001834D01*
X004109D01*
Y001804D01*
X003946D01*
Y001828D01*
X003947Y001828D01*
X003947Y001829D01*
X003949Y001831D01*
X00395Y001833D01*
X003953Y001835D01*
X003955Y001838D01*
X003958Y001842D01*
X003962Y001846D01*
X003965Y001851D01*
X003969Y001856D01*
X003973Y001862D01*
X003977Y001867D01*
X003981Y001874D01*
X003986Y001881D01*
X00399Y001889D01*
X003994Y001896D01*
X003995Y001897D01*
X003995Y001898D01*
X003997Y0019D01*
X003998Y001903D01*
X004Y001907D01*
X004002Y001912D01*
X004005Y001917D01*
X004007Y001923D01*
X00401Y001929D01*
X004014Y001936D01*
X004017Y001943D01*
X004019Y001951D01*
X004025Y001966D01*
X004031Y001983D01*
Y001984D01*
X004031Y001985D01*
X004032Y001986D01*
X004032Y001989D01*
X004033Y001992D01*
X004034Y001995D01*
X004035Y001999D01*
X004036Y002004D01*
X004037Y002009D01*
X004038Y002014D01*
X00404Y002026D01*
X004041Y002039D01*
X004042Y002052D01*
X004074D01*
Y002052D01*
D02*
G37*
G36*
X001286Y005154D02*
X001289Y005153D01*
X001292Y005153D01*
X001296Y005152D01*
X0013Y005151D01*
X001308Y005149D01*
X001313Y005147D01*
X001317Y005144D01*
X001322Y005142D01*
X001326Y005139D01*
X00133Y005135D01*
X001335Y005131D01*
X001335Y005131D01*
X001336Y00513D01*
X001337Y005129D01*
X001338Y005127D01*
X00134Y005125D01*
X001342Y005122D01*
X001344Y005119D01*
X001346Y005115D01*
X001348Y005111D01*
X00135Y005106D01*
X001352Y005101D01*
X001353Y005096D01*
X001355Y00509D01*
X001356Y005084D01*
X001356Y005078D01*
X001357Y005071D01*
Y005067D01*
X001356Y005065D01*
X001356Y005062D01*
X001356Y005058D01*
X001355Y005054D01*
X001354Y00505D01*
X001351Y00504D01*
X001349Y005035D01*
X001348Y00503D01*
X001345Y005025D01*
X001342Y00502D01*
X001339Y005015D01*
X001335Y005011D01*
X001334Y00501D01*
X001334Y00501D01*
X001333Y005008D01*
X001331Y005007D01*
X001329Y005006D01*
X001326Y005003D01*
X001323Y005002D01*
X00132Y004999D01*
X001316Y004997D01*
X001312Y004995D01*
X001302Y004992D01*
X001297Y00499D01*
X001292Y004989D01*
X001286Y004988D01*
X00128Y004988D01*
X00128D01*
X001279D01*
X001277D01*
X001276Y004988D01*
X001274D01*
X001271Y004989D01*
X001265Y00499D01*
X001259Y004991D01*
X001252Y004993D01*
X001245Y004996D01*
X001239Y005D01*
X001238D01*
X001238Y005001D01*
X001236Y005003D01*
X001233Y005006D01*
X00123Y00501D01*
X001226Y005015D01*
X001222Y005021D01*
X001219Y005028D01*
X001216Y005036D01*
Y005036D01*
X001216Y005035D01*
X001215Y005034D01*
X001215Y005033D01*
X001213Y00503D01*
X001211Y005025D01*
X001208Y00502D01*
X001205Y005016D01*
X001201Y005011D01*
X001196Y005007D01*
X001195Y005007D01*
X001194Y005006D01*
X001191Y005004D01*
X001187Y005003D01*
X001183Y005001D01*
X001177Y005D01*
X001171Y004999D01*
X001165Y004998D01*
X001164D01*
X001163D01*
X001162D01*
X00116Y004999D01*
X001158Y004999D01*
X001155Y004999D01*
X001148Y005001D01*
X001141Y005003D01*
X001134Y005007D01*
X00113Y005009D01*
X001126Y005011D01*
X001122Y005015D01*
X001118Y005018D01*
X001118Y005018D01*
X001118Y005019D01*
X001116Y00502D01*
X001115Y005022D01*
X001114Y005023D01*
X001112Y005026D01*
X001111Y005029D01*
X001109Y005032D01*
X001107Y005035D01*
X001105Y005039D01*
X001104Y005044D01*
X001102Y005048D01*
X0011Y005059D01*
X0011Y005064D01*
X001099Y00507D01*
Y005074D01*
X0011Y005076D01*
X0011Y005079D01*
X0011Y005082D01*
X001101Y005086D01*
X001102Y005089D01*
X001104Y005098D01*
X001107Y005107D01*
X00111Y005111D01*
X001112Y005115D01*
X001115Y005119D01*
X001119Y005123D01*
X001119Y005124D01*
X001119Y005124D01*
X00112Y005125D01*
X001122Y005127D01*
X001124Y005128D01*
X001126Y00513D01*
X001132Y005134D01*
X001139Y005137D01*
X001147Y005141D01*
X001156Y005143D01*
X00116Y005143D01*
X001166Y005144D01*
X001166D01*
X001166D01*
X001169D01*
X001172Y005143D01*
X001176Y005143D01*
X001181Y005142D01*
X001186Y00514D01*
X001191Y005138D01*
X001196Y005134D01*
X001197Y005134D01*
X001198Y005133D01*
X001201Y00513D01*
X001203Y005127D01*
X001207Y005123D01*
X00121Y005119D01*
X001213Y005113D01*
X001216Y005107D01*
Y005107D01*
X001217Y005108D01*
X001217Y005109D01*
X001218Y00511D01*
X001219Y005115D01*
X001222Y00512D01*
X001226Y005125D01*
X00123Y005131D01*
X001235Y005137D01*
X001241Y005142D01*
X001241D01*
X001241Y005142D01*
X001243Y005143D01*
X001247Y005146D01*
X001252Y005148D01*
X001258Y00515D01*
X001265Y005152D01*
X001272Y005154D01*
X001281Y005154D01*
X001281D01*
X001282D01*
X001284D01*
X001286Y005154D01*
D02*
G37*
G36*
X00128Y004946D02*
X001283D01*
X00129Y004945D01*
X001298Y004945D01*
X001306Y004943D01*
X001314Y004941D01*
X001321Y004939D01*
X001322D01*
X001322Y004938D01*
X001324Y004937D01*
X001327Y004935D01*
X001331Y004933D01*
X001335Y004929D01*
X00134Y004925D01*
X001344Y00492D01*
X001348Y004914D01*
X001348Y004913D01*
X001349Y004911D01*
X001351Y004908D01*
X001352Y004903D01*
X001354Y004897D01*
X001355Y004891D01*
X001356Y004884D01*
X001357Y004876D01*
Y004872D01*
X001356Y00487D01*
X001356Y004867D01*
X001356Y004864D01*
X001354Y004857D01*
X001352Y004849D01*
X001349Y00484D01*
X001347Y004836D01*
X001344Y004832D01*
X001341Y004828D01*
X001338Y004825D01*
X001337Y004824D01*
X001337Y004824D01*
X001336Y004823D01*
X001334Y004822D01*
X001332Y004821D01*
X00133Y004819D01*
X001327Y004818D01*
X001324Y004816D01*
X00132Y004814D01*
X001316Y004813D01*
X001311Y004812D01*
X001306Y00481D01*
X001301Y004809D01*
X001294Y004808D01*
X001288Y004808D01*
X001281D01*
X001277Y004838D01*
X001277D01*
X001278D01*
X00128D01*
X001282Y004838D01*
X001284Y004839D01*
X001286D01*
X001293Y00484D01*
X001299Y004841D01*
X001306Y004843D01*
X001312Y004845D01*
X001314Y004847D01*
X001316Y004849D01*
X001317Y004849D01*
X001318Y00485D01*
X00132Y004853D01*
X001321Y004856D01*
X001324Y00486D01*
X001325Y004864D01*
X001326Y004869D01*
X001327Y004875D01*
Y004877D01*
X001326Y00488D01*
X001326Y004883D01*
X001325Y004886D01*
X001325Y00489D01*
X001323Y004893D01*
X001321Y004897D01*
X001321Y004897D01*
X00132Y004899D01*
X001319Y0049D01*
X001317Y004902D01*
X001315Y004904D01*
X001312Y004906D01*
X001309Y004908D01*
X001306Y004909D01*
X001305D01*
X001304Y00491D01*
X001301Y004911D01*
X001298Y004911D01*
X001294Y004912D01*
X001288Y004912D01*
X001282Y004913D01*
X001274D01*
X0011D01*
Y004947D01*
X001272D01*
X001273D01*
X001274D01*
X001275D01*
X001277D01*
X00128Y004946D01*
D02*
G37*
G36*
X001239Y008932D02*
X001244D01*
X001249Y008932D01*
X001254Y008932D01*
X001265Y008931D01*
X001277Y008929D01*
X001289Y008927D01*
X001294Y008925D01*
X0013Y008923D01*
X0013D01*
X001301Y008923D01*
X001302Y008922D01*
X001304Y008921D01*
X001307Y008921D01*
X001309Y008919D01*
X001316Y008916D01*
X001322Y008913D01*
X001329Y008908D01*
X001336Y008903D01*
X001342Y008896D01*
Y008896D01*
X001343Y008895D01*
X001344Y008894D01*
X001344Y008893D01*
X001345Y008891D01*
X001347Y008889D01*
X001349Y008884D01*
X001352Y008877D01*
X001355Y008869D01*
X001356Y00886D01*
X001357Y00885D01*
Y008847D01*
X001356Y008844D01*
X001356Y008841D01*
X001355Y008838D01*
X001355Y008834D01*
X001353Y008829D01*
X001352Y008825D01*
X001351Y00882D01*
X001348Y008816D01*
X001346Y008811D01*
X001343Y008806D01*
X001339Y008801D01*
X001335Y008797D01*
X001331Y008793D01*
X00133Y008793D01*
X001329Y008792D01*
X001328Y008791D01*
X001325Y008789D01*
X001321Y008787D01*
X001317Y008785D01*
X001312Y008783D01*
X001306Y008781D01*
X0013Y008778D01*
X001292Y008776D01*
X001284Y008774D01*
X001274Y008772D01*
X001264Y00877D01*
X001253Y008769D01*
X001241Y008769D01*
X001228Y008768D01*
X001228D01*
X001226D01*
X001224D01*
X001221D01*
X001217Y008769D01*
X001213D01*
X001208Y008769D01*
X001202Y008769D01*
X001191Y00877D01*
X001179Y008772D01*
X001167Y008774D01*
X001162Y008776D01*
X001156Y008777D01*
X001156D01*
X001155Y008778D01*
X001154Y008778D01*
X001152Y008779D01*
X001149Y00878D01*
X001147Y008781D01*
X00114Y008784D01*
X001134Y008788D01*
X001127Y008793D01*
X00112Y008798D01*
X001114Y008805D01*
Y008805D01*
X001114Y008805D01*
X001113Y008806D01*
X001112Y008808D01*
X001111Y00881D01*
X00111Y008812D01*
X001107Y008817D01*
X001104Y008824D01*
X001102Y008832D01*
X0011Y008841D01*
X001099Y00885D01*
Y008854D01*
X0011Y008858D01*
X0011Y008862D01*
X001102Y008868D01*
X001103Y008874D01*
X001105Y00888D01*
X001108Y008886D01*
Y008886D01*
X001108Y008887D01*
X001109Y008888D01*
X001111Y008891D01*
X001114Y008895D01*
X001117Y008899D01*
X001121Y008903D01*
X001126Y008907D01*
X001131Y008911D01*
X001132Y008912D01*
X001134Y008913D01*
X001137Y008915D01*
X001142Y008917D01*
X001147Y008919D01*
X001154Y008922D01*
X001161Y008925D01*
X001169Y008927D01*
X001169D01*
X00117Y008927D01*
X001171Y008928D01*
X001173Y008928D01*
X001175Y008928D01*
X001178Y008929D01*
X001181Y008929D01*
X001185Y00893D01*
X001189Y008931D01*
X001193Y008931D01*
X001198Y008931D01*
X001203Y008932D01*
X001209Y008932D01*
X001215D01*
X001221Y008933D01*
X001228D01*
X001229D01*
X00123D01*
X001233D01*
X001235D01*
X001239Y008932D01*
D02*
G37*
G36*
X001352Y008658D02*
X001155D01*
X001156Y008658D01*
X001157Y008656D01*
X001159Y008654D01*
X001162Y00865D01*
X001165Y008646D01*
X001169Y008641D01*
X001173Y008635D01*
X001177Y008628D01*
Y008628D01*
X001177Y008628D01*
X001179Y008626D01*
X001181Y008622D01*
X001183Y008618D01*
X001185Y008612D01*
X001188Y008607D01*
X00119Y008601D01*
X001193Y008596D01*
X001163D01*
Y008596D01*
X001162Y008597D01*
X001162Y008599D01*
X00116Y0086D01*
X001159Y008603D01*
X001158Y008605D01*
X001154Y008611D01*
X00115Y008619D01*
X001145Y008626D01*
X001139Y008634D01*
X001133Y008641D01*
X001133Y008642D01*
X001132Y008642D01*
X001131Y008643D01*
X00113Y008644D01*
X001127Y008648D01*
X001122Y008652D01*
X001117Y008656D01*
X001111Y008661D01*
X001106Y008665D01*
X001099Y008669D01*
Y008689D01*
X001352D01*
Y008658D01*
D02*
G37*
G36*
X00128Y00853D02*
X001283D01*
X00129Y008529D01*
X001298Y008529D01*
X001306Y008527D01*
X001314Y008525D01*
X001321Y008522D01*
X001322D01*
X001322Y008522D01*
X001324Y008521D01*
X001327Y008519D01*
X001331Y008517D01*
X001335Y008513D01*
X00134Y008509D01*
X001344Y008504D01*
X001348Y008498D01*
X001348Y008497D01*
X001349Y008495D01*
X001351Y008492D01*
X001352Y008487D01*
X001354Y008481D01*
X001355Y008475D01*
X001356Y008468D01*
X001357Y00846D01*
Y008456D01*
X001356Y008454D01*
X001356Y008451D01*
X001356Y008448D01*
X001354Y008441D01*
X001352Y008433D01*
X001349Y008424D01*
X001347Y00842D01*
X001344Y008416D01*
X001341Y008412D01*
X001338Y008409D01*
X001337Y008408D01*
X001337Y008408D01*
X001336Y008407D01*
X001334Y008406D01*
X001332Y008405D01*
X00133Y008403D01*
X001327Y008402D01*
X001324Y0084D01*
X00132Y008398D01*
X001316Y008397D01*
X001311Y008395D01*
X001306Y008394D01*
X001301Y008393D01*
X001294Y008392D01*
X001288Y008392D01*
X001281D01*
X001277Y008422D01*
X001277D01*
X001278D01*
X00128D01*
X001282Y008422D01*
X001284Y008423D01*
X001286D01*
X001293Y008424D01*
X001299Y008425D01*
X001306Y008427D01*
X001312Y008429D01*
X001314Y008431D01*
X001316Y008433D01*
X001317Y008433D01*
X001318Y008434D01*
X00132Y008437D01*
X001321Y00844D01*
X001324Y008444D01*
X001325Y008448D01*
X001326Y008453D01*
X001327Y008459D01*
Y008461D01*
X001326Y008464D01*
X001326Y008467D01*
X001325Y00847D01*
X001325Y008474D01*
X001323Y008477D01*
X001321Y008481D01*
X001321Y008481D01*
X00132Y008482D01*
X001319Y008484D01*
X001317Y008486D01*
X001315Y008488D01*
X001312Y00849D01*
X001309Y008492D01*
X001306Y008493D01*
X001305D01*
X001304Y008494D01*
X001301Y008494D01*
X001298Y008495D01*
X001294Y008496D01*
X001288Y008496D01*
X001282Y008497D01*
X001274D01*
X0011D01*
Y008531D01*
X001272D01*
X001273D01*
X001274D01*
X001275D01*
X001277D01*
X00128Y00853D01*
D02*
G37*
%LPC*%
G36*
X006357Y007683D02*
X006244D01*
X006357Y007603D01*
Y007683D01*
D02*
G37*
G36*
X026086Y004942D02*
Y004863D01*
X026199D01*
X026086Y004942D01*
D02*
G37*
G36*
X007482Y002031D02*
X007481D01*
X007479Y002031D01*
X007476Y00203D01*
X007471Y002029D01*
X007466Y002027D01*
X00746Y002025D01*
X007454Y002021D01*
X007451Y002018D01*
X007449Y002016D01*
Y002015D01*
X007448Y002015D01*
X007446Y002013D01*
X007444Y002009D01*
X007441Y002004D01*
X007439Y001998D01*
X007437Y001991D01*
X007435Y001982D01*
X007434Y001973D01*
Y001972D01*
Y001972D01*
Y00197D01*
X007435Y001968D01*
Y001966D01*
X007435Y001964D01*
X007436Y001958D01*
X007438Y001951D01*
X00744Y001944D01*
X007444Y001938D01*
X007449Y001931D01*
X007449Y001931D01*
X007451Y001929D01*
X007454Y001927D01*
X007458Y001924D01*
X007463Y001921D01*
X007469Y001919D01*
X007476Y001917D01*
X007484Y001916D01*
X007486D01*
X007487Y001917D01*
X007491Y001917D01*
X007496Y001918D01*
X007501Y00192D01*
X007508Y001923D01*
X007513Y001926D01*
X007519Y001931D01*
X00752Y001932D01*
X007521Y001934D01*
X007524Y001937D01*
X007526Y001942D01*
X007529Y001947D01*
X007532Y001954D01*
X007533Y001962D01*
X007534Y001971D01*
Y001972D01*
Y001973D01*
X007533Y001977D01*
X007533Y001981D01*
X007532Y001985D01*
X007531Y00199D01*
X007529Y001996D01*
X007527Y002001D01*
X007527Y002002D01*
X007526Y002004D01*
X007524Y002006D01*
X007522Y00201D01*
X00752Y002013D01*
X007516Y002017D01*
X007513Y00202D01*
X007508Y002024D01*
X007508Y002024D01*
X007506Y002025D01*
X007504Y002026D01*
X0075Y002027D01*
X007497Y002029D01*
X007492Y00203D01*
X007488Y002031D01*
X007482Y002031D01*
D02*
G37*
G36*
X001165Y005112D02*
X001165D01*
X001165D01*
X001162D01*
X001159Y005111D01*
X001155Y005111D01*
X001151Y005109D01*
X001146Y005107D01*
X001141Y005104D01*
X001136Y0051D01*
X001136Y0051D01*
X001135Y005098D01*
X001133Y005095D01*
X001131Y005092D01*
X001128Y005088D01*
X001127Y005083D01*
X001125Y005077D01*
X001125Y005071D01*
Y005068D01*
X001126Y005065D01*
X001126Y00506D01*
X001128Y005056D01*
X00113Y005051D01*
X001132Y005046D01*
X001136Y005041D01*
X001137Y005041D01*
X001138Y005039D01*
X001141Y005038D01*
X001144Y005036D01*
X001148Y005034D01*
X001153Y005032D01*
X001158Y00503D01*
X001164Y00503D01*
X001164D01*
X001165D01*
X001167Y00503D01*
X00117Y005031D01*
X001174Y005031D01*
X001179Y005033D01*
X001183Y005035D01*
X001189Y005038D01*
X001193Y005041D01*
X001193Y005042D01*
X001195Y005043D01*
X001197Y005046D01*
X001198Y005049D01*
X001201Y005054D01*
X001202Y005059D01*
X001204Y005064D01*
X001204Y005071D01*
Y005072D01*
X001204Y005074D01*
X001203Y005077D01*
X001203Y005082D01*
X001201Y005086D01*
X001199Y005091D01*
X001197Y005096D01*
X001193Y005101D01*
X001193Y005101D01*
X001191Y005102D01*
X001189Y005104D01*
X001185Y005106D01*
X001181Y005109D01*
X001177Y00511D01*
X001171Y005112D01*
X001165Y005112D01*
D02*
G37*
G36*
X001281Y005122D02*
X001281D01*
X00128D01*
X001279D01*
X001277Y005122D01*
X001273Y005122D01*
X001268Y005121D01*
X001262Y005119D01*
X001256Y005116D01*
X00125Y005113D01*
X001244Y005107D01*
X001243Y005107D01*
X001242Y005105D01*
X001239Y005102D01*
X001237Y005097D01*
X001234Y005092D01*
X001231Y005085D01*
X00123Y005078D01*
X001229Y00507D01*
Y005068D01*
X00123Y005066D01*
X00123Y005062D01*
X001231Y005057D01*
X001233Y005051D01*
X001235Y005046D01*
X001239Y005039D01*
X001244Y005034D01*
X001245Y005033D01*
X001246Y005032D01*
X00125Y00503D01*
X001254Y005027D01*
X001259Y005024D01*
X001265Y005022D01*
X001272Y00502D01*
X00128Y00502D01*
X001281D01*
X001282D01*
X001285Y00502D01*
X001288Y00502D01*
X001292Y005021D01*
X001296Y005022D01*
X001301Y005024D01*
X001305Y005026D01*
X001306Y005026D01*
X001308Y005027D01*
X00131Y005028D01*
X001312Y00503D01*
X001316Y005033D01*
X001319Y005036D01*
X001322Y00504D01*
X001325Y005044D01*
X001325Y005045D01*
X001326Y005046D01*
X001327Y005049D01*
X001328Y005052D01*
X001329Y005056D01*
X00133Y005061D01*
X001331Y005066D01*
X001331Y005071D01*
Y005073D01*
X001331Y005075D01*
X00133Y005079D01*
X001329Y005084D01*
X001328Y00509D01*
X001325Y005096D01*
X001322Y005102D01*
X001317Y005108D01*
X001316Y005109D01*
X001314Y00511D01*
X001311Y005113D01*
X001307Y005115D01*
X001302Y005118D01*
X001296Y00512D01*
X001289Y005122D01*
X001281Y005122D01*
D02*
G37*
G36*
X001239Y008901D02*
X001228D01*
X001228D01*
X001227D01*
X001226D01*
X001222D01*
X001218Y008901D01*
X001213D01*
X001207Y0089D01*
X001201Y0089D01*
X001194Y008899D01*
X001181Y008897D01*
X001174Y008896D01*
X001167Y008895D01*
X001161Y008893D01*
X001155Y008891D01*
X00115Y008889D01*
X001146Y008887D01*
X001145D01*
X001145Y008886D01*
X001144Y008885D01*
X001142Y008884D01*
X001139Y008881D01*
X001135Y008877D01*
X001131Y008871D01*
X001128Y008865D01*
X001127Y008862D01*
X001126Y008858D01*
X001125Y008854D01*
X001125Y00885D01*
Y008848D01*
X001125Y008846D01*
X001126Y008842D01*
X001127Y008838D01*
X001129Y008832D01*
X001132Y008826D01*
X001135Y008824D01*
X001137Y008821D01*
X00114Y008818D01*
X001143Y008816D01*
X001143D01*
X001144Y008815D01*
X001146Y008814D01*
X001147Y008813D01*
X00115Y008812D01*
X001154Y00881D01*
X001158Y008809D01*
X001162Y008808D01*
X001168Y008806D01*
X001174Y008805D01*
X001181Y008804D01*
X001189Y008802D01*
X001197Y008801D01*
X001207Y008801D01*
X001217Y0088D01*
X001228Y0088D01*
X001229D01*
X001231D01*
X001234D01*
X001238Y0088D01*
X001243D01*
X001249Y008801D01*
X001255Y008801D01*
X001262Y008802D01*
X001276Y008804D01*
X001283Y008805D01*
X001289Y008806D01*
X001296Y008808D01*
X001301Y00881D01*
X001306Y008812D01*
X001311Y008814D01*
X001311D01*
X001312Y008815D01*
X001314Y008817D01*
X001317Y00882D01*
X001321Y008824D01*
X001325Y00883D01*
X001328Y008836D01*
X00133Y008843D01*
X001331Y008846D01*
X001331Y00885D01*
Y008853D01*
X001331Y008854D01*
X00133Y008858D01*
X001329Y008863D01*
X001326Y008868D01*
X001322Y008874D01*
X00132Y008877D01*
X001317Y00888D01*
X001314Y008883D01*
X001311Y008886D01*
X00131D01*
X00131Y008887D01*
X001309Y008888D01*
X001307Y008888D01*
X001304Y00889D01*
X001301Y008891D01*
X001297Y008892D01*
X001293Y008894D01*
X001288Y008895D01*
X001282Y008896D01*
X001275Y008898D01*
X001268Y008899D01*
X001259Y0089D01*
X00125Y0089D01*
X001239Y008901D01*
D02*
G37*
%LPD*%
D13*
X015193Y029583D02*
X018007D01*
Y027417D02*
Y029583D01*
X015193Y027417D02*
X018007D01*
X015193D02*
Y029583D01*
X003733Y004836D02*
X009167D01*
Y00985D01*
X003733D02*
X009167D01*
X003733Y004836D02*
Y00985D01*
X024822Y006638D02*
X027165D01*
X024822Y003646D02*
Y006638D01*
Y003646D02*
X027165D01*
Y006638D01*
X008741Y032459D02*
X013859D01*
X008741Y027341D02*
Y032459D01*
Y027341D02*
X013859D01*
Y032459D01*
X017883Y009807D02*
X023317D01*
X017883Y004793D02*
Y009807D01*
Y004793D02*
X023317D01*
Y009807D01*
X021828Y000585D02*
Y002928D01*
X018836D02*
X021828D01*
X018836Y000585D02*
Y002928D01*
Y000585D02*
X021828D01*
X025284D02*
Y002928D01*
X022292D02*
X025284D01*
X022292Y000585D02*
Y002928D01*
Y000585D02*
X025284D01*
X024822Y010104D02*
X027165D01*
X024822Y007112D02*
Y010104D01*
Y007112D02*
X027165D01*
Y010104D01*
X009245Y000885D02*
Y003228D01*
X006252D02*
X009245D01*
X006252Y000885D02*
Y003228D01*
Y000885D02*
X009245D01*
X010933Y009657D02*
X016367D01*
X010933Y004643D02*
Y009657D01*
Y004643D02*
X016367D01*
Y009657D01*
X005788Y000885D02*
Y003228D01*
X002796D02*
X005788D01*
X002796Y000885D02*
Y003228D01*
Y000885D02*
X005788D01*
X000185Y003312D02*
X002528D01*
Y006304D01*
X000185D02*
X002528D01*
X000185Y003312D02*
Y006304D01*
Y006896D02*
X002528D01*
Y009888D01*
X000185D02*
X002528D01*
X000185Y006896D02*
Y009888D01*
D76*
X00043Y01447D02*
X00287D01*
X00043Y01203D02*
Y01447D01*
Y01203D02*
X00287D01*
Y01447D01*
X001716Y012004D02*
X001781Y012069D01*
Y0122D01*
X001716Y012266D01*
X00165D01*
X001584Y0122D01*
Y012069D01*
X001519Y012004D01*
X001453D01*
X001388Y012069D01*
Y0122D01*
X001453Y012266D01*
X001781Y011872D02*
X001388D01*
X001519Y011741D01*
X001388Y01161D01*
X001781D01*
X001388Y011479D02*
Y011348D01*
Y011413D01*
X001781D01*
X001716Y011479D01*
M02*
