G04*
G04 #@! TF.GenerationSoftware,Altium Limited,Altium Designer,22.9.1 (49)*
G04*
G04 Layer_Color=8388736*
%FSTAX24Y24*%
%MOIN*%
G70*
G04*
G04 #@! TF.SameCoordinates,D3726A14-7932-4F0B-9928-97F3702F6CAB*
G04*
G04*
G04 #@! TF.FilePolarity,Positive*
G04*
G01*
G75*
%ADD13C,0.0079*%
%ADD75C,0.0020*%
D13*
X015193Y029583D02*
X018007D01*
Y027417D02*
Y029583D01*
X015193Y027417D02*
X018007D01*
X015193D02*
Y029583D01*
X003733Y004836D02*
X009167D01*
Y00985D01*
X003733D02*
X009167D01*
X003733Y004836D02*
Y00985D01*
X024822Y006638D02*
X027165D01*
X024822Y003646D02*
Y006638D01*
Y003646D02*
X027165D01*
Y006638D01*
X008741Y032459D02*
X013859D01*
X008741Y027341D02*
Y032459D01*
Y027341D02*
X013859D01*
Y032459D01*
X017883Y009807D02*
X023317D01*
X017883Y004793D02*
Y009807D01*
Y004793D02*
X023317D01*
Y009807D01*
X021828Y000585D02*
Y002928D01*
X018836D02*
X021828D01*
X018836Y000585D02*
Y002928D01*
Y000585D02*
X021828D01*
X025284D02*
Y002928D01*
X022292D02*
X025284D01*
X022292Y000585D02*
Y002928D01*
Y000585D02*
X025284D01*
X024822Y010104D02*
X027165D01*
X024822Y007112D02*
Y010104D01*
Y007112D02*
X027165D01*
Y010104D01*
X009245Y000885D02*
Y003228D01*
X006252D02*
X009245D01*
X006252Y000885D02*
Y003228D01*
Y000885D02*
X009245D01*
X010933Y009657D02*
X016367D01*
X010933Y004643D02*
Y009657D01*
Y004643D02*
X016367D01*
Y009657D01*
X005788Y000885D02*
Y003228D01*
X002796D02*
X005788D01*
X002796Y000885D02*
Y003228D01*
Y000885D02*
X005788D01*
X000185Y003312D02*
X002528D01*
Y006304D01*
X000185D02*
X002528D01*
X000185Y003312D02*
Y006304D01*
Y006896D02*
X002528D01*
Y009888D01*
X000185D02*
X002528D01*
X000185Y006896D02*
Y009888D01*
D75*
X019976Y032891D02*
X025224D01*
Y028009D02*
Y032891D01*
X019976Y028009D02*
X025224D01*
X019976D02*
Y032891D01*
X01245Y025103D02*
Y025497D01*
X012253Y0253D02*
X012647D01*
X01432Y023883D02*
Y026717D01*
X01058D02*
X01432D01*
X01058Y023883D02*
Y026717D01*
Y023883D02*
X01432D01*
X000311Y014982D02*
X002989D01*
X000311Y011518D02*
Y014982D01*
Y011518D02*
X002989D01*
Y014982D01*
X001453Y01325D02*
X001847D01*
X00165Y013053D02*
Y013447D01*
M02*
