G04*
G04 #@! TF.GenerationSoftware,Altium Limited,Altium Designer,22.9.1 (49)*
G04*
G04 Layer_Color=65535*
%FSTAX24Y24*%
%MOIN*%
G70*
G04*
G04 #@! TF.SameCoordinates,2FAE9610-6970-4823-A7E0-823FAA2A8A52*
G04*
G04*
G04 #@! TF.FilePolarity,Positive*
G04*
G01*
G75*
%ADD10C,0.0098*%
%ADD11C,0.0197*%
%ADD12C,0.0050*%
%ADD13C,0.0060*%
%ADD14C,0.0079*%
%ADD15C,0.0100*%
G36*
X010721Y02246D02*
X010657D01*
Y022481D01*
X010721D01*
Y02246D01*
D02*
G37*
G36*
X012036Y023732D02*
X012099D01*
Y023711D01*
X012163D01*
Y02369D01*
X012205D01*
Y023668D01*
X012248D01*
Y023647D01*
X012269D01*
Y023626D01*
X01229D01*
Y023605D01*
X012333D01*
Y023583D01*
X012354D01*
Y023562D01*
X012375D01*
Y023541D01*
X012396D01*
Y02352D01*
X012417D01*
Y023499D01*
X012439D01*
Y023477D01*
X01246D01*
Y023435D01*
X012481D01*
Y023414D01*
X012502D01*
Y023393D01*
X012523D01*
Y023371D01*
X012672D01*
Y02335D01*
X012735D01*
Y023329D01*
X012778D01*
Y023308D01*
X01282D01*
Y023287D01*
X012842D01*
Y023265D01*
X012863D01*
Y023244D01*
X012884D01*
Y023223D01*
X012905D01*
Y023202D01*
X012948D01*
Y023181D01*
X012969D01*
Y023138D01*
X01299D01*
Y023117D01*
X013011D01*
Y023096D01*
X013032D01*
Y023053D01*
X013054D01*
Y023032D01*
X013075D01*
Y023011D01*
X01316D01*
Y023032D01*
X013605D01*
Y023011D01*
X013732D01*
Y02299D01*
X013775D01*
Y022947D01*
X013796D01*
Y022905D01*
X013817D01*
Y02282D01*
X013838D01*
Y022672D01*
X014135D01*
Y02265D01*
X014241D01*
Y022629D01*
X014305D01*
Y022608D01*
X014368D01*
Y022587D01*
X014411D01*
Y022566D01*
X014453D01*
Y022523D01*
X014474D01*
Y022311D01*
X014453D01*
Y022163D01*
X014432D01*
Y022078D01*
X014411D01*
Y021993D01*
X01439D01*
Y021929D01*
X014368D01*
Y021887D01*
X014347D01*
Y021845D01*
X014326D01*
Y021802D01*
X014305D01*
Y02176D01*
X014283D01*
Y021717D01*
X014262D01*
Y021696D01*
X014241D01*
Y021654D01*
X01422D01*
Y021633D01*
X014199D01*
Y02159D01*
X014177D01*
Y021442D01*
X014199D01*
Y021421D01*
X01422D01*
Y021399D01*
X014241D01*
Y021378D01*
X014262D01*
Y021357D01*
X014283D01*
Y021336D01*
X014305D01*
Y021315D01*
X014326D01*
Y021272D01*
X014347D01*
Y021251D01*
X014368D01*
Y02123D01*
X01439D01*
Y021187D01*
X014411D01*
Y021166D01*
X014432D01*
Y021124D01*
X014453D01*
Y021081D01*
X014474D01*
Y02106D01*
X014496D01*
Y020996D01*
X014517D01*
Y020954D01*
X014538D01*
Y020912D01*
X014559D01*
Y020848D01*
X01458D01*
Y020827D01*
X014559D01*
Y020763D01*
X014538D01*
Y020742D01*
X014517D01*
Y0207D01*
X014496D01*
Y020678D01*
X014474D01*
Y020657D01*
X014453D01*
Y020636D01*
X014432D01*
Y020615D01*
X01439D01*
Y020594D01*
X014368D01*
Y020572D01*
X014326D01*
Y020551D01*
X014283D01*
Y02053D01*
X014241D01*
Y020509D01*
X014199D01*
Y020487D01*
X014177D01*
Y020339D01*
X014199D01*
Y020254D01*
X01422D01*
Y020106D01*
X014199D01*
Y020021D01*
X014177D01*
Y019979D01*
X014156D01*
Y019957D01*
X014135D01*
Y019915D01*
X014114D01*
Y019894D01*
X014093D01*
Y019873D01*
X014071D01*
Y019851D01*
X01405D01*
Y01983D01*
X014008D01*
Y019809D01*
X013965D01*
Y019788D01*
X013923D01*
Y019767D01*
X013838D01*
Y019745D01*
X013753D01*
Y019767D01*
X013647D01*
Y019788D01*
X013584D01*
Y019809D01*
X013563D01*
Y01983D01*
X01352D01*
Y019851D01*
X013456D01*
Y01983D01*
X013244D01*
Y019809D01*
X013223D01*
Y019788D01*
X013202D01*
Y019767D01*
X013181D01*
Y019745D01*
X01316D01*
Y019724D01*
X013117D01*
Y019703D01*
X013096D01*
Y019682D01*
X013054D01*
Y01966D01*
X013011D01*
Y019639D01*
X012948D01*
Y019618D01*
X012863D01*
Y019597D01*
X012651D01*
Y019618D01*
X012545D01*
Y019639D01*
X012481D01*
Y01966D01*
X012439D01*
Y019682D01*
X012396D01*
Y019703D01*
X012375D01*
Y019724D01*
X012354D01*
Y019745D01*
X012333D01*
Y019767D01*
X01229D01*
Y019809D01*
X012269D01*
Y01983D01*
X012184D01*
Y019851D01*
X012078D01*
Y019873D01*
X011993D01*
Y019894D01*
X01193D01*
Y019915D01*
X011887D01*
Y019936D01*
X011845D01*
Y019957D01*
X011802D01*
Y019979D01*
X011781D01*
Y02D01*
X01176D01*
Y020021D01*
X011739D01*
Y020042D01*
X011718D01*
Y020063D01*
X011696D01*
Y020085D01*
X011633D01*
Y020063D01*
X011548D01*
Y020042D01*
X0114D01*
Y020021D01*
X011018D01*
Y020042D01*
X010869D01*
Y020063D01*
X010785D01*
Y020085D01*
X010721D01*
Y020106D01*
X010679D01*
Y020127D01*
X010657D01*
Y020148D01*
X010636D01*
Y020318D01*
X010657D01*
Y020381D01*
X010679D01*
Y020445D01*
X0107D01*
Y020487D01*
X010721D01*
Y020509D01*
X0107D01*
Y02053D01*
X010657D01*
Y020551D01*
X010615D01*
Y020572D01*
X010573D01*
Y020594D01*
X01053D01*
Y020615D01*
X010488D01*
Y020636D01*
X010467D01*
Y020657D01*
X010424D01*
Y020678D01*
X010403D01*
Y0207D01*
X010382D01*
Y020721D01*
X01036D01*
Y020742D01*
X010339D01*
Y020763D01*
X010318D01*
Y020784D01*
X010297D01*
Y020933D01*
X010318D01*
Y020996D01*
X010339D01*
Y021039D01*
X01036D01*
Y021081D01*
X010382D01*
Y021124D01*
X010403D01*
Y021166D01*
X010424D01*
Y021208D01*
X010445D01*
Y02123D01*
X010467D01*
Y021251D01*
X010488D01*
Y021293D01*
X010509D01*
Y021315D01*
X01053D01*
Y021336D01*
X010551D01*
Y021357D01*
X010573D01*
Y021378D01*
X010594D01*
Y021399D01*
X010615D01*
Y021421D01*
X010636D01*
Y021463D01*
X010615D01*
Y021484D01*
X010594D01*
Y021527D01*
X010573D01*
Y021548D01*
X010551D01*
Y02159D01*
X01053D01*
Y021611D01*
X010509D01*
Y021654D01*
X010488D01*
Y021696D01*
X010467D01*
Y021717D01*
X010445D01*
Y02176D01*
X010424D01*
Y021802D01*
X010403D01*
Y021845D01*
X010382D01*
Y021887D01*
X01036D01*
Y021951D01*
X010339D01*
Y021993D01*
X010318D01*
Y022057D01*
X010297D01*
Y022142D01*
X010276D01*
Y02229D01*
X010297D01*
Y022248D01*
X010318D01*
Y022269D01*
X010339D01*
Y02229D01*
X01036D01*
Y022269D01*
X010382D01*
Y022184D01*
X010403D01*
Y02212D01*
X010424D01*
Y022057D01*
X010445D01*
Y021993D01*
X010467D01*
Y021951D01*
X010488D01*
Y021908D01*
X010509D01*
Y021866D01*
X01053D01*
Y021823D01*
X010551D01*
Y021781D01*
X010573D01*
Y021739D01*
X010594D01*
Y021717D01*
X010615D01*
Y021675D01*
X010636D01*
Y021633D01*
X010657D01*
Y021611D01*
X010679D01*
Y021569D01*
X0107D01*
Y021548D01*
X010721D01*
Y021527D01*
X010742D01*
Y021484D01*
X010763D01*
Y021463D01*
X010785D01*
Y021442D01*
X010806D01*
Y021399D01*
X010785D01*
Y021378D01*
X010742D01*
Y021357D01*
X010721D01*
Y021336D01*
X0107D01*
Y021315D01*
X010679D01*
Y021293D01*
X010657D01*
Y021272D01*
X010636D01*
Y021251D01*
X010615D01*
Y02123D01*
X010594D01*
Y021208D01*
X010573D01*
Y021166D01*
X010551D01*
Y021145D01*
X01053D01*
Y021102D01*
X010509D01*
Y021081D01*
X010488D01*
Y021039D01*
X010467D01*
Y020996D01*
X010445D01*
Y020933D01*
X010424D01*
Y020827D01*
X010445D01*
Y020806D01*
X010467D01*
Y020784D01*
X010488D01*
Y020763D01*
X010509D01*
Y020742D01*
X010551D01*
Y020721D01*
X010573D01*
Y0207D01*
X010615D01*
Y020678D01*
X010679D01*
Y020657D01*
X010721D01*
Y020636D01*
X010763D01*
Y020615D01*
X010827D01*
Y020594D01*
X010869D01*
Y020551D01*
X010848D01*
Y020487D01*
X010827D01*
Y020445D01*
X010806D01*
Y020381D01*
X010785D01*
Y020318D01*
X010763D01*
Y020233D01*
X010742D01*
Y020212D01*
X010785D01*
Y020191D01*
X010848D01*
Y020169D01*
X010954D01*
Y020148D01*
X011463D01*
Y020169D01*
X011548D01*
Y020191D01*
X011569D01*
Y020212D01*
X011548D01*
Y020297D01*
X011569D01*
Y020381D01*
X011548D01*
Y020869D01*
X011569D01*
Y020954D01*
X01159D01*
Y021039D01*
X011612D01*
Y021102D01*
X011633D01*
Y021166D01*
X011654D01*
Y021208D01*
X011675D01*
Y021251D01*
X011696D01*
Y021293D01*
X011718D01*
Y021336D01*
X011739D01*
Y021378D01*
X01176D01*
Y021399D01*
X011781D01*
Y021442D01*
X011802D01*
Y021463D01*
X011824D01*
Y021484D01*
X011845D01*
Y021527D01*
X011866D01*
Y021548D01*
X011887D01*
Y021569D01*
X011908D01*
Y02159D01*
X01193D01*
Y021611D01*
X011951D01*
Y021633D01*
X011972D01*
Y021654D01*
X011993D01*
Y021675D01*
X012015D01*
Y021696D01*
X012036D01*
Y021717D01*
X012057D01*
Y021739D01*
X012078D01*
Y02176D01*
X012121D01*
Y021781D01*
X012142D01*
Y021802D01*
X012163D01*
Y021823D01*
X012205D01*
Y021845D01*
X012227D01*
Y021866D01*
X012269D01*
Y021887D01*
X012311D01*
Y021908D01*
X012354D01*
Y021929D01*
X012396D01*
Y021951D01*
X012439D01*
Y021972D01*
X012481D01*
Y021993D01*
X012545D01*
Y022014D01*
X012608D01*
Y022035D01*
X012672D01*
Y022057D01*
X012778D01*
Y022078D01*
X012905D01*
Y022099D01*
X013266D01*
Y022078D01*
X013393D01*
Y022057D01*
X013478D01*
Y022035D01*
X013541D01*
Y022014D01*
X013584D01*
Y021993D01*
X013647D01*
Y021972D01*
X013669D01*
Y021951D01*
X013711D01*
Y021929D01*
X013732D01*
Y021908D01*
X013775D01*
Y021887D01*
X013796D01*
Y021866D01*
X013817D01*
Y021845D01*
X013838D01*
Y021866D01*
X013817D01*
Y021908D01*
X013796D01*
Y021951D01*
X013775D01*
Y021972D01*
X013753D01*
Y022014D01*
X013732D01*
Y022035D01*
X013711D01*
Y022078D01*
X01369D01*
Y022099D01*
X013669D01*
Y02212D01*
X013647D01*
Y022142D01*
X013626D01*
Y022184D01*
X013605D01*
Y022205D01*
X013584D01*
Y022226D01*
X013563D01*
Y022248D01*
X013541D01*
Y022269D01*
X01352D01*
Y02229D01*
X013499D01*
Y022311D01*
X013478D01*
Y022332D01*
X013456D01*
Y022354D01*
X013435D01*
Y022375D01*
X013414D01*
Y022396D01*
X013393D01*
Y022417D01*
X01335D01*
Y022438D01*
X013329D01*
Y02246D01*
X013308D01*
Y022481D01*
X013266D01*
Y022502D01*
X013244D01*
Y022523D01*
X013223D01*
Y022544D01*
X013181D01*
Y022566D01*
X01316D01*
Y022587D01*
X013138D01*
Y022629D01*
X013117D01*
Y02265D01*
X01316D01*
Y022629D01*
X013202D01*
Y022608D01*
X013223D01*
Y022587D01*
X013266D01*
Y022566D01*
X013287D01*
Y022544D01*
X013329D01*
Y022523D01*
X01335D01*
Y022502D01*
X013372D01*
Y022481D01*
X013393D01*
Y02246D01*
X013435D01*
Y022438D01*
X013456D01*
Y022417D01*
X013478D01*
Y022396D01*
X013499D01*
Y022375D01*
X01352D01*
Y022354D01*
X013541D01*
Y022332D01*
X013563D01*
Y022311D01*
X013584D01*
Y02229D01*
X013605D01*
Y022269D01*
X013626D01*
Y022248D01*
X013647D01*
Y022226D01*
X013669D01*
Y022184D01*
X01369D01*
Y022163D01*
X013711D01*
Y022142D01*
X013732D01*
Y02212D01*
X013753D01*
Y022078D01*
X013775D01*
Y022057D01*
X013796D01*
Y022014D01*
X013817D01*
Y021993D01*
X013838D01*
Y021951D01*
X013859D01*
Y021908D01*
X013881D01*
Y021887D01*
X013902D01*
Y021845D01*
X013923D01*
Y021802D01*
X013944D01*
Y021739D01*
X013965D01*
Y021696D01*
X013987D01*
Y021633D01*
X014008D01*
Y02159D01*
X014029D01*
Y021527D01*
X01405D01*
Y021505D01*
X014071D01*
Y021654D01*
X014093D01*
Y021696D01*
X014114D01*
Y021717D01*
X014135D01*
Y021739D01*
X014156D01*
Y021781D01*
X014177D01*
Y021823D01*
X014199D01*
Y021845D01*
X01422D01*
Y021908D01*
X014241D01*
Y021951D01*
X014262D01*
Y021993D01*
X014283D01*
Y022057D01*
X014305D01*
Y022142D01*
X014326D01*
Y022248D01*
X014347D01*
Y022481D01*
X014305D01*
Y022502D01*
X014241D01*
Y022523D01*
X014177D01*
Y022544D01*
X013753D01*
Y022523D01*
X013732D01*
Y022735D01*
X013711D01*
Y022841D01*
X01369D01*
Y022884D01*
X013647D01*
Y022905D01*
X013478D01*
Y022926D01*
X013223D01*
Y022905D01*
X013138D01*
Y022884D01*
X013075D01*
Y022863D01*
X013011D01*
Y022905D01*
X01299D01*
Y022947D01*
X012969D01*
Y022969D01*
X012948D01*
Y023011D01*
X012926D01*
Y023032D01*
X012905D01*
Y023053D01*
X012884D01*
Y023096D01*
X012863D01*
Y023117D01*
X012842D01*
Y023138D01*
X012799D01*
Y023159D01*
X012778D01*
Y023181D01*
X012757D01*
Y023202D01*
X012714D01*
Y023223D01*
X012672D01*
Y023244D01*
X012502D01*
Y023223D01*
X012481D01*
Y023244D01*
X01246D01*
Y023287D01*
X012439D01*
Y023308D01*
X012417D01*
Y023329D01*
X012396D01*
Y02335D01*
X012375D01*
Y023393D01*
X012354D01*
Y023414D01*
X012333D01*
Y023435D01*
X012311D01*
Y023456D01*
X01229D01*
Y023477D01*
X012269D01*
Y023499D01*
X012227D01*
Y02352D01*
X012205D01*
Y023541D01*
X012184D01*
Y023562D01*
X012142D01*
Y023583D01*
X012099D01*
Y023605D01*
X012036D01*
Y023626D01*
X011951D01*
Y023605D01*
X011908D01*
Y023583D01*
X011887D01*
Y023562D01*
X011866D01*
Y023541D01*
X011845D01*
Y02352D01*
X011824D01*
Y023499D01*
X011802D01*
Y023477D01*
X011781D01*
Y023435D01*
X01176D01*
Y023414D01*
X011739D01*
Y023371D01*
X011718D01*
Y023329D01*
X011696D01*
Y023287D01*
X011675D01*
Y023244D01*
X011654D01*
Y023181D01*
X011633D01*
Y023117D01*
X011612D01*
Y023096D01*
X011548D01*
Y023117D01*
X011506D01*
Y023138D01*
X011463D01*
Y023117D01*
X011442D01*
Y023075D01*
X011421D01*
Y023032D01*
X0114D01*
Y02299D01*
X011378D01*
Y022947D01*
X011357D01*
Y022884D01*
X011336D01*
Y022841D01*
X011315D01*
Y022756D01*
X011294D01*
Y022693D01*
X011272D01*
Y022608D01*
X011251D01*
Y022523D01*
X01123D01*
Y022502D01*
X010891D01*
Y022481D01*
X010721D01*
Y022502D01*
X010679D01*
Y022523D01*
X010721D01*
Y022544D01*
X010679D01*
Y022566D01*
X010721D01*
Y022587D01*
X010806D01*
Y022608D01*
X010975D01*
Y022629D01*
X011145D01*
Y02265D01*
Y022672D01*
X011166D01*
Y022756D01*
X011187D01*
Y022841D01*
X011209D01*
Y022905D01*
X01123D01*
Y022947D01*
X011251D01*
Y023011D01*
X011272D01*
Y023053D01*
X011294D01*
Y023096D01*
X011315D01*
Y023138D01*
X011336D01*
Y023159D01*
X011357D01*
Y023202D01*
X011378D01*
Y023223D01*
X0114D01*
Y023244D01*
X011442D01*
Y023265D01*
X011506D01*
Y023244D01*
X011548D01*
Y023308D01*
X011569D01*
Y02335D01*
X01159D01*
Y023393D01*
X011612D01*
Y023435D01*
X011633D01*
Y023477D01*
X011654D01*
Y023499D01*
X011675D01*
Y023541D01*
X011696D01*
Y023562D01*
X011718D01*
Y023583D01*
X011739D01*
Y023605D01*
X01176D01*
Y023626D01*
X011781D01*
Y023647D01*
X011802D01*
Y023668D01*
X011824D01*
Y02369D01*
X011866D01*
Y023711D01*
X011887D01*
Y023732D01*
X011951D01*
Y023753D01*
X012036D01*
Y023732D01*
D02*
G37*
%LPC*%
G36*
X014135Y021336D02*
X014114D01*
Y021251D01*
X014135D01*
Y021166D01*
X014156D01*
Y021081D01*
Y02106D01*
Y021039D01*
X014177D01*
Y020827D01*
X014199D01*
Y020636D01*
X014241D01*
Y020657D01*
X014283D01*
Y020678D01*
X014305D01*
Y0207D01*
X014347D01*
Y020721D01*
X014368D01*
Y020742D01*
X01439D01*
Y020763D01*
X014411D01*
Y020784D01*
X014432D01*
Y020827D01*
X014453D01*
Y020848D01*
X014432D01*
Y02089D01*
X014411D01*
Y020954D01*
X01439D01*
Y020996D01*
X014368D01*
Y021039D01*
X014347D01*
Y02106D01*
X014326D01*
Y021102D01*
X014305D01*
Y021124D01*
X014283D01*
Y021166D01*
X014262D01*
Y021187D01*
X014241D01*
Y021208D01*
X01422D01*
Y021251D01*
X014199D01*
Y021272D01*
X014177D01*
Y021293D01*
X014156D01*
Y021315D01*
X014135D01*
Y021336D01*
D02*
G37*
G36*
X013287Y021972D02*
X012884D01*
Y021951D01*
X012778D01*
Y021929D01*
X012693D01*
Y021908D01*
X012608D01*
Y021887D01*
X012566D01*
Y021866D01*
X012502D01*
Y021845D01*
X01246D01*
Y021823D01*
X012417D01*
Y021802D01*
X012375D01*
Y021781D01*
X012333D01*
Y02176D01*
X012311D01*
Y021739D01*
X012269D01*
Y021717D01*
X012248D01*
Y021696D01*
X012205D01*
Y021675D01*
X012184D01*
Y021654D01*
X012163D01*
Y021633D01*
X012121D01*
Y021611D01*
X012099D01*
Y02159D01*
X012078D01*
Y021569D01*
X012057D01*
Y021548D01*
X012036D01*
Y021527D01*
X012015D01*
Y021505D01*
X011993D01*
Y021484D01*
X011972D01*
Y021442D01*
X011951D01*
Y021421D01*
X01193D01*
Y021399D01*
X011908D01*
Y021357D01*
X011887D01*
Y021336D01*
X011866D01*
Y021293D01*
X011845D01*
Y021272D01*
X011824D01*
Y02123D01*
X011802D01*
Y021187D01*
X011781D01*
Y021145D01*
X01176D01*
Y021081D01*
X011739D01*
Y021039D01*
X011718D01*
Y020954D01*
X011696D01*
Y020869D01*
X011675D01*
Y020678D01*
X011654D01*
Y02053D01*
X011675D01*
Y02036D01*
X011696D01*
Y020297D01*
X011718D01*
Y020233D01*
X011739D01*
Y020212D01*
X01176D01*
Y020169D01*
X011781D01*
Y020148D01*
X011802D01*
Y020127D01*
X011824D01*
Y020106D01*
X011845D01*
Y020085D01*
X011866D01*
Y020063D01*
X011908D01*
Y020042D01*
X011951D01*
Y020021D01*
X011993D01*
Y02D01*
X012057D01*
Y019979D01*
X012163D01*
Y019957D01*
X012311D01*
Y019936D01*
X012333D01*
Y019915D01*
X012354D01*
Y019894D01*
X012375D01*
Y019873D01*
X012396D01*
Y019851D01*
X012417D01*
Y01983D01*
X012439D01*
Y019809D01*
X01246D01*
Y019788D01*
X012502D01*
Y019767D01*
X012545D01*
Y019745D01*
X012608D01*
Y019724D01*
X012884D01*
Y019745D01*
X012948D01*
Y019767D01*
X01299D01*
Y019788D01*
X013032D01*
Y019809D01*
X013075D01*
Y01983D01*
X013096D01*
Y019851D01*
X013117D01*
Y019873D01*
X013138D01*
Y019915D01*
X01316D01*
Y020127D01*
X013138D01*
Y020191D01*
X013117D01*
Y020212D01*
X013096D01*
Y020254D01*
X013075D01*
Y020275D01*
X013054D01*
Y020297D01*
X013011D01*
Y020318D01*
X012948D01*
Y020403D01*
X01299D01*
Y020381D01*
X013054D01*
Y02036D01*
X013075D01*
Y020339D01*
X013117D01*
Y020318D01*
X013138D01*
Y020275D01*
X01316D01*
Y020254D01*
X013181D01*
Y020212D01*
X013202D01*
Y020169D01*
X013223D01*
Y020063D01*
X013244D01*
Y019979D01*
X013223D01*
Y019936D01*
X01335D01*
Y019957D01*
X013478D01*
Y019979D01*
X013456D01*
Y020021D01*
X013435D01*
Y020254D01*
X013456D01*
Y020297D01*
X013478D01*
Y020339D01*
X013499D01*
Y02036D01*
X01352D01*
Y020381D01*
X013563D01*
Y02036D01*
X013584D01*
Y020318D01*
X013563D01*
Y020297D01*
X013541D01*
Y020254D01*
X01352D01*
Y020212D01*
X013499D01*
Y020063D01*
X01352D01*
Y02D01*
X013541D01*
Y019979D01*
X013563D01*
Y019957D01*
X013584D01*
Y019936D01*
X013605D01*
Y019915D01*
X013647D01*
Y019894D01*
X01369D01*
Y019873D01*
X013859D01*
Y019894D01*
X013923D01*
Y019915D01*
X013965D01*
Y019936D01*
X013987D01*
Y019957D01*
X014008D01*
Y019979D01*
X014029D01*
Y02D01*
X01405D01*
Y020042D01*
X014071D01*
Y020106D01*
X014093D01*
Y020275D01*
X014071D01*
Y020318D01*
X01405D01*
Y020445D01*
X014071D01*
Y02089D01*
X01405D01*
Y02106D01*
X014029D01*
Y021187D01*
X014008D01*
Y021272D01*
X013987D01*
Y021357D01*
X013965D01*
Y021421D01*
X013944D01*
Y021463D01*
X013923D01*
Y021527D01*
X013902D01*
Y021569D01*
X013881D01*
Y02159D01*
X013859D01*
Y021633D01*
X013838D01*
Y021654D01*
X013817D01*
Y021696D01*
X013796D01*
Y021717D01*
X013775D01*
Y021739D01*
X013753D01*
Y02176D01*
X013732D01*
Y021781D01*
X013711D01*
Y021802D01*
X01369D01*
Y021823D01*
X013647D01*
Y021845D01*
X013626D01*
Y021866D01*
X013584D01*
Y021887D01*
X013541D01*
Y021908D01*
X013478D01*
Y021929D01*
X013393D01*
Y021951D01*
X013287D01*
Y021972D01*
D02*
G37*
%LPD*%
G36*
X011908Y020445D02*
X011951D01*
Y020424D01*
X011972D01*
Y020403D01*
X011993D01*
Y020381D01*
X012015D01*
Y020339D01*
X012036D01*
Y020297D01*
X012057D01*
Y020233D01*
X012078D01*
Y020148D01*
X012057D01*
Y020106D01*
X011951D01*
Y020127D01*
X01193D01*
Y020148D01*
X011908D01*
Y020169D01*
X011887D01*
Y020191D01*
X011866D01*
Y020212D01*
X011845D01*
Y020254D01*
X011824D01*
Y020339D01*
X011802D01*
Y020403D01*
X011824D01*
Y020445D01*
X011845D01*
Y020466D01*
X011908D01*
Y020445D01*
D02*
G37*
D10*
X003912Y024056D02*
G03*
X003912Y024056I-000049J0D01*
G01*
X019414Y00165D02*
G03*
X019414Y00165I-000049J0D01*
G01*
X017127Y0209D02*
G03*
X017127Y0209I-000049J0D01*
G01*
X003935D02*
G03*
X003935Y0209I-000049J0D01*
G01*
X022572Y00165D02*
G03*
X022572Y00165I-000049J0D01*
G01*
X016912Y024056D02*
G03*
X016912Y024056I-000049J0D01*
G01*
X019865Y01345D02*
G03*
X019865Y01345I-000049J0D01*
G01*
X014315D02*
G03*
X014315Y01345I-000049J0D01*
G01*
X016849Y003561D02*
G03*
X016849Y003561I-000049J0D01*
G01*
X007565Y01345D02*
G03*
X007565Y01345I-000049J0D01*
G01*
X001815D02*
G03*
X001815Y01345I-000049J0D01*
G01*
D11*
X016924Y005304D02*
G03*
X016924Y005304I-000098J0D01*
G01*
D12*
X01535Y0009D02*
X01605D01*
X01535Y00235D02*
X01545Y00245D01*
X01595D02*
X01605Y00235D01*
X01545Y00245D02*
X01595D01*
X01535Y0009D02*
Y00145D01*
Y00185D02*
Y00235D01*
X01605Y0009D02*
Y00145D01*
Y00185D02*
Y00235D01*
D13*
X01543Y003642D02*
X015976D01*
X01543Y00266D02*
Y003642D01*
Y00266D02*
X015976D01*
Y003642D01*
X01491Y00193D02*
Y001999D01*
X01445D02*
X01491D01*
X01445Y00094D02*
Y001999D01*
Y00094D02*
X01491D01*
Y00193D01*
X01043Y012031D02*
X010976D01*
X01043Y011049D02*
Y012031D01*
Y011049D02*
X010976D01*
Y012031D01*
X01764Y010972D02*
Y011041D01*
Y010972D02*
X0181D01*
Y012031D01*
X01764D02*
X0181D01*
X01764Y011041D02*
Y012031D01*
X00926Y00193D02*
Y001999D01*
X0088D02*
X00926D01*
X0088Y00094D02*
Y001999D01*
Y00094D02*
X00926D01*
Y00193D01*
X01021D02*
Y001999D01*
X00975D02*
X01021D01*
X00975Y00094D02*
Y001999D01*
Y00094D02*
X01021D01*
Y00193D01*
X01109Y010972D02*
Y011041D01*
Y010972D02*
X01155D01*
Y012031D01*
X01109D02*
X01155D01*
X01109Y011041D02*
Y012031D01*
X00903D02*
X009576D01*
X00903Y011049D02*
Y012031D01*
Y011049D02*
X009576D01*
Y012031D01*
X00973D02*
X010276D01*
X00973Y011049D02*
Y012031D01*
Y011049D02*
X010276D01*
Y012031D01*
X01172Y010972D02*
Y011041D01*
Y010972D02*
X01218D01*
Y012031D01*
X01172D02*
X01218D01*
X01172Y011041D02*
Y012031D01*
X00612Y010972D02*
Y011041D01*
Y010972D02*
X00658D01*
Y012031D01*
X00612D02*
X00658D01*
X00612Y011041D02*
Y012031D01*
X01698D02*
X017526D01*
X01698Y011049D02*
Y012031D01*
Y011049D02*
X017526D01*
Y012031D01*
X01824Y010972D02*
Y011041D01*
Y010972D02*
X0187D01*
Y012031D01*
X01824D02*
X0187D01*
X01824Y011041D02*
Y012031D01*
X01421Y00193D02*
Y001999D01*
X01375D02*
X01421D01*
X01375Y00094D02*
Y001999D01*
Y00094D02*
X01421D01*
Y00193D01*
X02138Y012031D02*
X021926D01*
X02138Y011049D02*
Y012031D01*
Y011049D02*
X021926D01*
Y012031D01*
X01563D02*
X016176D01*
X01563Y011049D02*
Y012031D01*
Y011049D02*
X016176D01*
Y012031D01*
X02203D02*
X022576D01*
X02203Y011049D02*
Y012031D01*
Y011049D02*
X022576D01*
Y012031D01*
X01633D02*
X016876D01*
X01633Y011049D02*
Y012031D01*
Y011049D02*
X016876D01*
Y012031D01*
X02268D02*
X023226D01*
X02268Y011049D02*
Y012031D01*
Y011049D02*
X023226D01*
Y012031D01*
X02334Y010972D02*
Y011041D01*
Y010972D02*
X0238D01*
Y012031D01*
X02334D02*
X0238D01*
X02334Y011041D02*
Y012031D01*
X02394Y010972D02*
Y011041D01*
Y010972D02*
X0244D01*
Y012031D01*
X02394D02*
X0244D01*
X02394Y011041D02*
Y012031D01*
X01598Y008455D02*
Y008525D01*
X01552D02*
X01598D01*
X01552Y007465D02*
Y008525D01*
Y007465D02*
X01598D01*
Y008455D01*
X01533Y008465D02*
Y008534D01*
X01487D02*
X01533D01*
X01487Y007475D02*
Y008534D01*
Y007475D02*
X01533D01*
Y008465D01*
X00358Y012031D02*
X004126D01*
X00358Y011049D02*
Y012031D01*
Y011049D02*
X004126D01*
Y012031D01*
X00423D02*
X004776D01*
X00423Y011049D02*
Y012031D01*
Y011049D02*
X004776D01*
Y012031D01*
X00488D02*
X005426D01*
X00488Y011049D02*
Y012031D01*
Y011049D02*
X005426D01*
Y012031D01*
X00552Y010972D02*
Y011041D01*
Y010972D02*
X00598D01*
Y012031D01*
X00552D02*
X00598D01*
X00552Y011041D02*
Y012031D01*
X002056Y006136D02*
Y006547D01*
X002261Y006341D02*
X00185D01*
D14*
X01082Y00275D02*
X01348D01*
X01082D02*
Y0055D01*
X01348D01*
Y00275D02*
Y0055D01*
X003017Y023878D02*
X008646D01*
X003017Y021949D02*
Y023878D01*
Y021949D02*
X008646D01*
Y023878D01*
X019099Y000725D02*
Y002989D01*
X016185D02*
X019099D01*
X016185Y000725D02*
Y002989D01*
Y000725D02*
X019099D01*
X003029Y005464D02*
X004486D01*
X002714Y005779D02*
X003029Y005464D01*
X002714Y006921D02*
X003029Y007236D01*
X004486D01*
Y005464D02*
Y005917D01*
Y006783D02*
Y007236D01*
X002714Y005779D02*
Y005917D01*
Y006783D02*
Y006921D01*
X017343Y019561D02*
Y021825D01*
Y019561D02*
X020257D01*
Y021825D01*
X017343D02*
X020257D01*
X004151Y019561D02*
Y021825D01*
Y019561D02*
X007065D01*
Y021825D01*
X004151D02*
X007065D01*
X022257Y000725D02*
Y002989D01*
X019343D02*
X022257D01*
X019343Y000725D02*
Y002989D01*
Y000725D02*
X022257D01*
X016017Y023878D02*
X021646D01*
X016017Y021949D02*
Y023878D01*
Y021949D02*
X021646D01*
Y023878D01*
X023649Y014828D02*
Y015359D01*
X019751Y014828D02*
X023649D01*
X019751D02*
Y015359D01*
X018099Y014828D02*
Y015359D01*
X014201Y014828D02*
X018099D01*
X014201D02*
Y015359D01*
X007345Y000388D02*
Y005112D01*
X002255Y000388D02*
Y005112D01*
Y000388D02*
X007345D01*
X002255Y005112D02*
X007345D01*
X01653Y005009D02*
X02157D01*
Y007186D01*
X01653D02*
X02157D01*
X01653Y005009D02*
Y007186D01*
X011349Y014828D02*
Y015359D01*
X007451Y014828D02*
X011349D01*
X007451D02*
Y015359D01*
X005599Y014828D02*
Y015359D01*
X001701Y014828D02*
X005599D01*
X001701D02*
Y015359D01*
D15*
X02095Y02055D02*
Y02095D01*
X02115Y02115D01*
X02135Y02095D01*
Y02055D01*
Y02085D01*
X02095D01*
X0218Y02115D02*
Y02055D01*
X0221D01*
X0222Y02065D01*
Y02075D01*
X0221Y02085D01*
X0218D01*
X0221D01*
X0222Y02095D01*
Y02105D01*
X0221Y02115D01*
X0218D01*
X0083Y02105D02*
Y02045D01*
X0086D01*
X0087Y02055D01*
Y02065D01*
X0086Y02075D01*
X0083D01*
X0086D01*
X0087Y02085D01*
Y02095D01*
X0086Y02105D01*
X0083D01*
X0075Y02045D02*
Y02085D01*
X0077Y02105D01*
X0079Y02085D01*
Y02045D01*
Y02075D01*
X0075D01*
X0223Y00555D02*
X0229D01*
Y00525D01*
X0228Y00515D01*
X0226D01*
X0225Y00525D01*
Y00555D01*
X0229Y00495D02*
X0223D01*
X0225Y00475D01*
X0223Y00455D01*
X0229D01*
X0223Y00435D02*
X0229D01*
X0227Y00415D01*
X0229Y003951D01*
X0223D01*
Y003451D02*
X0229D01*
X0226Y003751D01*
Y003351D01*
X02325Y00555D02*
X02385D01*
Y00525D01*
X02375Y00515D01*
X02355D01*
X02345Y00525D01*
Y00555D01*
X02385Y00495D02*
X02325D01*
X02345Y00475D01*
X02325Y00455D01*
X02385D01*
X02325Y00435D02*
X02385D01*
X02365Y00415D01*
X02385Y003951D01*
X02325D01*
X02375Y003751D02*
X02385Y003651D01*
Y003451D01*
X02375Y003351D01*
X02365D01*
X02355Y003451D01*
Y003551D01*
Y003451D01*
X02345Y003351D01*
X02335D01*
X02325Y003451D01*
Y003651D01*
X02335Y003751D01*
X0242Y00555D02*
X0248D01*
Y00525D01*
X0247Y00515D01*
X0245D01*
X0244Y00525D01*
Y00555D01*
X0248Y00495D02*
X0242D01*
X0244Y00475D01*
X0242Y00455D01*
X0248D01*
X0242Y00435D02*
X0248D01*
X0246Y00415D01*
X0248Y003951D01*
X0242D01*
Y003351D02*
Y003751D01*
X0246Y003351D01*
X0247D01*
X0248Y003451D01*
Y003651D01*
X0247Y003751D01*
X02515Y0056D02*
X02575D01*
Y0053D01*
X02565Y0052D01*
X02545D01*
X02535Y0053D01*
Y0056D01*
X02575Y005D02*
X02515D01*
X02535Y0048D01*
X02515Y0046D01*
X02575D01*
X02515Y0044D02*
X02575D01*
X02555Y0042D01*
X02575Y004001D01*
X02515D01*
Y003801D02*
Y003601D01*
Y003701D01*
X02575D01*
X02565Y003801D01*
X00065Y0032D02*
X00165D01*
X00115Y0037D02*
Y0027D01*
X01415Y00475D02*
Y00535D01*
X01445D01*
X01455Y00525D01*
Y00505D01*
X01445Y00495D01*
X01415D01*
X01435D02*
X01455Y00475D01*
X01475D02*
X01495D01*
X01485D01*
Y00535D01*
X01475Y00525D01*
X01525D02*
X01535Y00535D01*
X01555D01*
X01565Y00525D01*
Y00515D01*
X01555Y00505D01*
X01545D01*
X01555D01*
X01565Y00495D01*
Y00485D01*
X01555Y00475D01*
X01535D01*
X01525Y00485D01*
X01415Y0046D02*
Y004D01*
X01445D01*
X01455Y0041D01*
Y0045D01*
X01445Y0046D01*
X01415D01*
X01475Y004D02*
X01495D01*
X01485D01*
Y0046D01*
X01475Y0045D01*
X00275Y0202D02*
Y0197D01*
X00285Y0196D01*
X00305D01*
X00315Y0197D01*
Y0202D01*
X00375D02*
X00355Y0201D01*
X00335Y0199D01*
Y0197D01*
X00345Y0196D01*
X00365D01*
X00375Y0197D01*
Y0198D01*
X00365Y0199D01*
X00335D01*
X00875Y0202D02*
Y0197D01*
X00885Y0196D01*
X00905D01*
X00915Y0197D01*
Y0202D01*
X00975D02*
X00935D01*
Y0199D01*
X00955Y02D01*
X00965D01*
X00975Y0199D01*
Y0197D01*
X00965Y0196D01*
X00945D01*
X00935Y0197D01*
X0154Y00675D02*
Y00625D01*
X0155Y00615D01*
X0157D01*
X0158Y00625D01*
Y00675D01*
X0163Y00615D02*
Y00675D01*
X016Y00645D01*
X0164D01*
X0155Y02005D02*
Y01955D01*
X0156Y01945D01*
X0158D01*
X0159Y01955D01*
Y02005D01*
X0161Y01995D02*
X0162Y02005D01*
X0164D01*
X0165Y01995D01*
Y01985D01*
X0164Y01975D01*
X0163D01*
X0164D01*
X0165Y01965D01*
Y01955D01*
X0164Y01945D01*
X0162D01*
X0161Y01955D01*
X02115Y0202D02*
Y0197D01*
X02125Y0196D01*
X02145D01*
X02155Y0197D01*
Y0202D01*
X02215Y0196D02*
X02175D01*
X02215Y02D01*
Y0201D01*
X02205Y0202D01*
X02185D01*
X02175Y0201D01*
X0097Y00555D02*
Y00505D01*
X0098Y00495D01*
X01D01*
X0101Y00505D01*
Y00555D01*
X0103Y00495D02*
X0105D01*
X0104D01*
Y00555D01*
X0103Y00545D01*
X0026Y0103D02*
X0032D01*
Y01D01*
X0031Y0099D01*
X0029D01*
X0028Y01D01*
Y0103D01*
Y0101D02*
X0026Y0099D01*
Y0097D02*
Y0095D01*
Y0096D01*
X0032D01*
X0031Y0097D01*
X0026Y0088D02*
Y0092D01*
X003Y0088D01*
X0031D01*
X0032Y0089D01*
Y0091D01*
X0031Y0092D01*
X00785Y0099D02*
X00845D01*
Y0096D01*
X00835Y0095D01*
X00815D01*
X00805Y0096D01*
Y0099D01*
Y0097D02*
X00785Y0095D01*
Y0093D02*
Y0091D01*
Y0092D01*
X00845D01*
X00835Y0093D01*
X00785Y0088D02*
Y0086D01*
Y0087D01*
X00845D01*
X00835Y0088D01*
X0149Y01085D02*
X0155D01*
Y01055D01*
X0154Y01045D01*
X0152D01*
X0151Y01055D01*
Y01085D01*
Y01065D02*
X0149Y01045D01*
Y01025D02*
Y01005D01*
Y01015D01*
X0155D01*
X0154Y01025D01*
Y00975D02*
X0155Y00965D01*
Y00945D01*
X0154Y00935D01*
X015D01*
X0149Y00945D01*
Y00965D01*
X015Y00975D01*
X0154D01*
X02085Y01075D02*
X02145D01*
Y01045D01*
X02135Y01035D01*
X02115D01*
X02105Y01045D01*
Y01075D01*
Y01055D02*
X02085Y01035D01*
X02095Y01015D02*
X02085Y01005D01*
Y00985D01*
X02095Y00975D01*
X02135D01*
X02145Y00985D01*
Y01005D01*
X02135Y01015D01*
X02125D01*
X02115Y01005D01*
Y00975D01*
X0045Y0103D02*
X0051D01*
Y01D01*
X005Y0099D01*
X0048D01*
X0047Y01D01*
Y0103D01*
Y0101D02*
X0045Y0099D01*
X005Y0097D02*
X0051Y0096D01*
Y0094D01*
X005Y0093D01*
X0049D01*
X0048Y0094D01*
X0047Y0093D01*
X0046D01*
X0045Y0094D01*
Y0096D01*
X0046Y0097D01*
X0047D01*
X0048Y0096D01*
X0049Y0097D01*
X005D01*
X0048Y0096D02*
Y0094D01*
X0098Y00975D02*
X0104D01*
Y00945D01*
X0103Y00935D01*
X0101D01*
X01Y00945D01*
Y00975D01*
Y00955D02*
X0098Y00935D01*
X0104Y00915D02*
Y00875D01*
X0103D01*
X0099Y00915D01*
X0098D01*
X0036Y0103D02*
X0042D01*
Y01D01*
X0041Y0099D01*
X0039D01*
X0038Y01D01*
Y0103D01*
Y0101D02*
X0036Y0099D01*
X0042Y0093D02*
X0041Y0095D01*
X0039Y0097D01*
X0037D01*
X0036Y0096D01*
Y0094D01*
X0037Y0093D01*
X0038D01*
X0039Y0094D01*
Y0097D01*
X00895Y0098D02*
X00955D01*
Y0095D01*
X00945Y0094D01*
X00925D01*
X00915Y0095D01*
Y0098D01*
Y0096D02*
X00895Y0094D01*
X00955Y0088D02*
Y0092D01*
X00925D01*
X00935Y009D01*
Y0089D01*
X00925Y0088D01*
X00905D01*
X00895Y0089D01*
Y0091D01*
X00905Y0092D01*
X017Y010689D02*
X0176D01*
Y010389D01*
X0175Y010289D01*
X0173D01*
X0172Y010389D01*
Y010689D01*
Y010489D02*
X017Y010289D01*
Y009789D02*
X0176D01*
X0173Y010089D01*
Y009689D01*
X02245Y0107D02*
X02305D01*
Y0104D01*
X02295Y0103D01*
X02275D01*
X02265Y0104D01*
Y0107D01*
Y0105D02*
X02245Y0103D01*
X02295Y0101D02*
X02305Y01D01*
Y0098D01*
X02295Y0097D01*
X02285D01*
X02275Y0098D01*
Y0099D01*
Y0098D01*
X02265Y0097D01*
X02255D01*
X02245Y0098D01*
Y01D01*
X02255Y0101D01*
X0162Y01075D02*
X0168D01*
Y01045D01*
X0167Y01035D01*
X0165D01*
X0164Y01045D01*
Y01075D01*
Y01055D02*
X0162Y01035D01*
Y00975D02*
Y01015D01*
X0166Y00975D01*
X0167D01*
X0168Y00985D01*
Y01005D01*
X0167Y01015D01*
X0217Y0107D02*
X0223D01*
Y0104D01*
X0222Y0103D01*
X022D01*
X0219Y0104D01*
Y0107D01*
Y0105D02*
X0217Y0103D01*
Y0101D02*
Y0099D01*
Y01D01*
X0223D01*
X0222Y0101D01*
X00585Y0099D02*
X00595Y01D01*
Y0102D01*
X00585Y0103D01*
X00545D01*
X00535Y0102D01*
Y01D01*
X00545Y0099D01*
X00535Y0097D02*
Y0095D01*
Y0096D01*
X00595D01*
X00585Y0097D01*
Y0092D02*
X00595Y0091D01*
Y0089D01*
X00585Y0088D01*
X00575D01*
X00565Y0089D01*
X00555Y0088D01*
X00545D01*
X00535Y0089D01*
Y0091D01*
X00545Y0092D01*
X00555D01*
X00565Y0091D01*
X00575Y0092D01*
X00585D01*
X00565Y0091D02*
Y0089D01*
X00725Y0099D02*
X00735Y01D01*
Y0102D01*
X00725Y0103D01*
X00685D01*
X00675Y0102D01*
Y01D01*
X00685Y0099D01*
X00675Y0097D02*
Y0095D01*
Y0096D01*
X00735D01*
X00725Y0097D01*
X00735Y0092D02*
Y0088D01*
X00725D01*
X00685Y0092D01*
X00675D01*
X01115Y00955D02*
X01125Y00965D01*
Y00985D01*
X01115Y00995D01*
X01075D01*
X01065Y00985D01*
Y00965D01*
X01075Y00955D01*
X01065Y00935D02*
Y00915D01*
Y00925D01*
X01125D01*
X01115Y00935D01*
X01125Y00845D02*
X01115Y00865D01*
X01095Y00885D01*
X01075D01*
X01065Y00875D01*
Y00855D01*
X01075Y00845D01*
X01085D01*
X01095Y00855D01*
Y00885D01*
X0119Y0095D02*
X012Y0096D01*
Y0098D01*
X0119Y0099D01*
X0115D01*
X0114Y0098D01*
Y0096D01*
X0115Y0095D01*
X0114Y0093D02*
Y0091D01*
Y0092D01*
X012D01*
X0119Y0093D01*
X012Y0084D02*
Y0088D01*
X0117D01*
X0118Y0086D01*
Y0085D01*
X0117Y0084D01*
X0115D01*
X0114Y0085D01*
Y0087D01*
X0115Y0088D01*
X01475Y0069D02*
X01485Y007D01*
Y0072D01*
X01475Y0073D01*
X01435D01*
X01425Y0072D01*
Y007D01*
X01435Y0069D01*
X01425Y0067D02*
Y0065D01*
Y0066D01*
X01485D01*
X01475Y0067D01*
X01425Y0058D02*
Y0062D01*
X01465Y0058D01*
X01475D01*
X01485Y0059D01*
Y0061D01*
X01475Y0062D01*
X01375Y0068D02*
X01385Y0069D01*
Y0071D01*
X01375Y0072D01*
X01335D01*
X01325Y0071D01*
Y0069D01*
X01335Y0068D01*
X01325Y0066D02*
Y0064D01*
Y0065D01*
X01385D01*
X01375Y0066D01*
X01325Y0061D02*
Y0059D01*
Y006D01*
X01385D01*
X01375Y0061D01*
X0183Y01035D02*
X0184Y01045D01*
Y01065D01*
X0183Y01075D01*
X0179D01*
X0178Y01065D01*
Y01045D01*
X0179Y01035D01*
X0178Y01015D02*
Y00995D01*
Y01005D01*
X0184D01*
X0183Y01015D01*
Y00965D02*
X0184Y00955D01*
Y00935D01*
X0183Y00925D01*
X0179D01*
X0178Y00935D01*
Y00955D01*
X0179Y00965D01*
X0183D01*
X01895Y01005D02*
X01885Y00995D01*
Y00975D01*
X01895Y00965D01*
X01935D01*
X01945Y00975D01*
Y00995D01*
X01935Y01005D01*
Y01025D02*
X01945Y01035D01*
Y01055D01*
X01935Y01065D01*
X01895D01*
X01885Y01055D01*
Y01035D01*
X01895Y01025D01*
X01905D01*
X01915Y01035D01*
Y01065D01*
X0237Y01025D02*
X0238Y01035D01*
Y01055D01*
X0237Y01065D01*
X0233D01*
X0232Y01055D01*
Y01035D01*
X0233Y01025D01*
X0237Y01005D02*
X0238Y00995D01*
Y00975D01*
X0237Y00965D01*
X0236D01*
X0235Y00975D01*
X0234Y00965D01*
X0233D01*
X0232Y00975D01*
Y00995D01*
X0233Y01005D01*
X0234D01*
X0235Y00995D01*
X0236Y01005D01*
X0237D01*
X0235Y00995D02*
Y00975D01*
X02495Y0103D02*
X02505Y0104D01*
Y0106D01*
X02495Y0107D01*
X02455D01*
X02445Y0106D01*
Y0104D01*
X02455Y0103D01*
X02505Y0101D02*
Y0097D01*
X02495D01*
X02455Y0101D01*
X02445D01*
X0057Y0065D02*
X0058Y0066D01*
Y0068D01*
X0057Y0069D01*
X0053D01*
X0052Y0068D01*
Y0066D01*
X0053Y0065D01*
X0058Y0059D02*
Y0063D01*
X0055D01*
X0056Y0061D01*
Y006D01*
X0055Y0059D01*
X0053D01*
X0052Y006D01*
Y0062D01*
X0053Y0063D01*
X015Y003D02*
X0151Y0031D01*
Y0033D01*
X015Y0034D01*
X0146D01*
X0145Y0033D01*
Y0031D01*
X0146Y003D01*
X0145Y0025D02*
X0151D01*
X0148Y0028D01*
Y0024D01*
X0142Y00305D02*
X0143Y00315D01*
Y00335D01*
X0142Y00345D01*
X0138D01*
X0137Y00335D01*
Y00315D01*
X0138Y00305D01*
X0142Y00285D02*
X0143Y00275D01*
Y00255D01*
X0142Y00245D01*
X0141D01*
X014Y00255D01*
Y00265D01*
Y00255D01*
X0139Y00245D01*
X0138D01*
X0137Y00255D01*
Y00275D01*
X0138Y00285D01*
X0102Y00305D02*
X0103Y00315D01*
Y00335D01*
X0102Y00345D01*
X0098D01*
X0097Y00335D01*
Y00315D01*
X0098Y00305D01*
X0097Y00245D02*
Y00285D01*
X0101Y00245D01*
X0102D01*
X0103Y00255D01*
Y00275D01*
X0102Y00285D01*
X0092Y003D02*
X0093Y0031D01*
Y0033D01*
X0092Y0034D01*
X0088D01*
X0087Y0033D01*
Y0031D01*
X0088Y003D01*
X0087Y0028D02*
Y0026D01*
Y0027D01*
X0093D01*
X0092Y0028D01*
M02*
