G04*
G04 #@! TF.GenerationSoftware,Altium Limited,Altium Designer,22.9.1 (49)*
G04*
G04 Layer_Color=32896*
%FSTAX24Y24*%
%MOIN*%
G70*
G04*
G04 #@! TF.SameCoordinates,2FAE9610-6970-4823-A7E0-823FAA2A8A52*
G04*
G04*
G04 #@! TF.FilePolarity,Positive*
G04*
G01*
G75*
G36*
X011689Y018045D02*
X011654D01*
Y018079D01*
X011689D01*
Y018045D01*
D02*
G37*
G36*
X011654Y018011D02*
X01162D01*
Y018045D01*
X011654D01*
Y018011D01*
D02*
G37*
G36*
X01162Y017976D02*
X011551D01*
Y018011D01*
X01162D01*
Y017976D01*
D02*
G37*
G36*
X011311Y017942D02*
X011174D01*
Y017976D01*
X011311D01*
Y017942D01*
D02*
G37*
G36*
X011551D02*
X011517D01*
Y017908D01*
X011414D01*
Y017942D01*
X011448D01*
Y017976D01*
X011551D01*
Y017942D01*
D02*
G37*
G36*
X011174Y017908D02*
X01114D01*
Y017942D01*
X011174D01*
Y017908D01*
D02*
G37*
G36*
X01186Y017976D02*
X011929D01*
Y017908D01*
X011792D01*
Y017873D01*
X011689D01*
Y017908D01*
X011723D01*
Y017942D01*
X011757D01*
Y017976D01*
X011826D01*
Y018011D01*
X01186D01*
Y017976D01*
D02*
G37*
G36*
X011689Y017839D02*
X011654D01*
Y017873D01*
X011689D01*
Y017839D01*
D02*
G37*
G36*
X013199Y017702D02*
X013301D01*
Y017667D01*
X01337D01*
Y017633D01*
X013404D01*
Y017599D01*
X01337D01*
Y017565D01*
X013439D01*
Y01753D01*
X013473D01*
Y017496D01*
X013507D01*
Y017427D01*
X013542D01*
Y017359D01*
X013507D01*
Y017324D01*
X013473D01*
Y017427D01*
X013439D01*
Y01753D01*
X013404D01*
Y017359D01*
X013439D01*
Y017324D01*
X013473D01*
Y017256D01*
X013404D01*
Y01729D01*
X01337D01*
Y017324D01*
X013336D01*
Y017359D01*
X013267D01*
Y017393D01*
X013233D01*
Y017427D01*
X013164D01*
Y017462D01*
X01313D01*
Y017496D01*
X013061D01*
Y01753D01*
X012993D01*
Y017565D01*
X012958D01*
Y017599D01*
X01289D01*
Y017633D01*
X012787D01*
Y017667D01*
X012718D01*
Y017702D01*
X012821D01*
Y017736D01*
X013199D01*
Y017702D01*
D02*
G37*
G36*
X010453Y017427D02*
X010488D01*
Y017393D01*
X010522D01*
Y017324D01*
X010556D01*
Y017221D01*
X010522D01*
Y017187D01*
X010488D01*
Y017153D01*
X010453D01*
Y017118D01*
X010419D01*
Y017084D01*
X010385D01*
Y01705D01*
X01035D01*
Y017015D01*
X010316D01*
Y016981D01*
X010282D01*
Y016947D01*
X010247D01*
Y017015D01*
X010213D01*
Y016981D01*
X010179D01*
Y016947D01*
X010144D01*
Y016913D01*
X01011D01*
Y016878D01*
X010076D01*
Y01681D01*
X01011D01*
Y016844D01*
X010144D01*
Y016878D01*
X010179D01*
Y01681D01*
X010144D01*
Y016638D01*
X01011D01*
Y016329D01*
X010144D01*
Y016192D01*
X010179D01*
Y016055D01*
X010213D01*
Y015952D01*
X010247D01*
Y015849D01*
X010282D01*
Y015746D01*
X010316D01*
Y015677D01*
X01035D01*
Y015574D01*
X010385D01*
Y015506D01*
X010419D01*
Y015437D01*
X010453D01*
Y015334D01*
X010488D01*
Y015231D01*
X010522D01*
Y015128D01*
X010556D01*
Y015025D01*
X010591D01*
Y014888D01*
X010625D01*
Y014854D01*
X010659D01*
Y014819D01*
X010693D01*
Y014785D01*
X010728D01*
Y014751D01*
X010762D01*
Y014716D01*
X010831D01*
Y014682D01*
X010899D01*
Y014648D01*
X010968D01*
Y014613D01*
X011037D01*
Y014579D01*
X011105D01*
Y014545D01*
X011174D01*
Y01451D01*
X011243D01*
Y014476D01*
X011311D01*
Y014442D01*
X01138D01*
Y014407D01*
X011414D01*
Y014373D01*
X011483D01*
Y014339D01*
X011551D01*
Y014305D01*
X01162D01*
Y01427D01*
X011689D01*
Y014236D01*
X011757D01*
Y014202D01*
X011792D01*
Y014167D01*
X01186D01*
Y014133D01*
X011929D01*
Y014099D01*
X011997D01*
Y014064D01*
X012032D01*
Y01403D01*
X0121D01*
Y013996D01*
X012169D01*
Y013961D01*
X012203D01*
Y013927D01*
X012238D01*
Y013893D01*
X012272D01*
Y013858D01*
X012649D01*
Y013824D01*
X012684D01*
Y01379D01*
X012718D01*
Y013721D01*
X012752D01*
Y013653D01*
X012787D01*
Y013584D01*
X012821D01*
Y013515D01*
X012855D01*
Y013447D01*
X01289D01*
Y013481D01*
X012924D01*
Y013412D01*
X01289D01*
Y013344D01*
X012855D01*
Y013309D01*
X012821D01*
Y013344D01*
X012615D01*
Y013378D01*
X012375D01*
Y013344D01*
X012341D01*
Y013309D01*
X012272D01*
Y013275D01*
X012238D01*
Y013241D01*
X012169D01*
Y013206D01*
X012135D01*
Y013172D01*
X012066D01*
Y013138D01*
X011963D01*
Y013103D01*
X011757D01*
Y013069D01*
X011345D01*
Y013035D01*
X011208D01*
Y013069D01*
X01114D01*
Y013035D01*
X011037D01*
Y013001D01*
X011002D01*
Y012966D01*
X010934D01*
Y012932D01*
X010899D01*
Y012898D01*
X010865D01*
Y012863D01*
X010831D01*
Y012829D01*
X010762D01*
Y012863D01*
X010796D01*
Y012898D01*
X010831D01*
Y012932D01*
X010865D01*
Y012966D01*
X010899D01*
Y013001D01*
X010968D01*
Y013035D01*
X011002D01*
Y013069D01*
X011105D01*
Y013138D01*
X011002D01*
Y013172D01*
X010934D01*
Y013206D01*
X010831D01*
Y013241D01*
X010556D01*
Y013275D01*
X010522D01*
Y013241D01*
X010282D01*
Y013206D01*
X010179D01*
Y013172D01*
X01011D01*
Y013138D01*
X010007D01*
Y013103D01*
X009973D01*
Y013069D01*
X009904D01*
Y013035D01*
X00987D01*
Y013001D01*
X009801D01*
Y012966D01*
X009767D01*
Y012932D01*
X009733D01*
Y012898D01*
X009698D01*
Y012863D01*
X009664D01*
Y012795D01*
X00963D01*
Y01276D01*
X009595D01*
Y012726D01*
X009561D01*
Y012657D01*
X009527D01*
Y012589D01*
X009492D01*
Y012486D01*
X009458D01*
Y012451D01*
X009389D01*
Y01252D01*
X009355D01*
Y012589D01*
X009321D01*
Y012692D01*
X009287D01*
Y012795D01*
X009252D01*
Y012863D01*
X009218D01*
Y012932D01*
X009184D01*
Y013001D01*
X009149D01*
Y013069D01*
X009115D01*
Y013103D01*
X009081D01*
Y013172D01*
X009046D01*
Y013241D01*
X009012D01*
Y013309D01*
X008978D01*
Y013378D01*
X008943D01*
Y013412D01*
X008909D01*
Y013481D01*
X008875D01*
Y013515D01*
X00884D01*
Y013584D01*
X008806D01*
Y013618D01*
X008772D01*
Y013687D01*
X008737D01*
Y013721D01*
X008703D01*
Y013755D01*
X008669D01*
Y013824D01*
X008635D01*
Y013858D01*
X0086D01*
Y013893D01*
X008566D01*
Y013927D01*
X008532D01*
Y013961D01*
X008497D01*
Y013996D01*
X008463D01*
Y01403D01*
X008394D01*
Y014064D01*
X00836D01*
Y014099D01*
X008291D01*
Y014133D01*
X007742D01*
Y014099D01*
X007605D01*
Y014064D01*
X007468D01*
Y01403D01*
X007365D01*
Y013996D01*
X007296D01*
Y013961D01*
X007262D01*
Y013927D01*
X007193D01*
Y013893D01*
X007159D01*
Y013858D01*
X00709D01*
Y013824D01*
X007056D01*
Y01379D01*
X007022D01*
Y013755D01*
X006987D01*
Y013721D01*
X006953D01*
Y013687D01*
X006884D01*
Y013653D01*
X00685D01*
Y013618D01*
X006816D01*
Y01355D01*
X006781D01*
Y013515D01*
X006747D01*
Y013481D01*
X006713D01*
Y013447D01*
X006679D01*
Y013412D01*
X006644D01*
Y013344D01*
X00661D01*
Y013309D01*
X006576D01*
Y013241D01*
X006541D01*
Y013206D01*
X006507D01*
Y013138D01*
X006473D01*
Y013103D01*
X006438D01*
Y013035D01*
X006404D01*
Y012966D01*
X00637D01*
Y012863D01*
X006335D01*
Y012795D01*
X006301D01*
Y012726D01*
X006267D01*
Y012657D01*
X006232D01*
Y012554D01*
X006198D01*
Y012383D01*
X006164D01*
Y012349D01*
Y012314D01*
Y012177D01*
X006198D01*
Y012108D01*
X006232D01*
Y011868D01*
X006164D01*
Y011902D01*
X006129D01*
Y011937D01*
X006095D01*
Y012005D01*
X006061D01*
Y012074D01*
X006027D01*
Y012211D01*
X005992D01*
Y012314D01*
X005958D01*
Y012451D01*
X005924D01*
Y012657D01*
X005889D01*
Y012932D01*
X005855D01*
Y013344D01*
Y013378D01*
Y013481D01*
X005889D01*
Y013755D01*
X005924D01*
Y01276D01*
X005958D01*
Y012554D01*
X005992D01*
Y012383D01*
X006027D01*
Y01228D01*
X006061D01*
Y012143D01*
X006095D01*
Y012074D01*
X006129D01*
Y011971D01*
X006164D01*
Y011902D01*
X006198D01*
Y011971D01*
X006164D01*
Y012108D01*
X006129D01*
Y012246D01*
X006095D01*
Y012486D01*
X006061D01*
Y012966D01*
X006027D01*
Y013378D01*
X006061D01*
Y013618D01*
X006095D01*
Y013755D01*
X006129D01*
Y013893D01*
X006164D01*
Y013996D01*
X006198D01*
Y01403D01*
X006232D01*
Y014099D01*
X006267D01*
Y014167D01*
X006301D01*
Y014202D01*
X006335D01*
Y01427D01*
X00637D01*
Y014339D01*
X006404D01*
Y014373D01*
X006438D01*
Y014442D01*
X006473D01*
Y01451D01*
X006507D01*
Y014579D01*
X006541D01*
Y014613D01*
X006576D01*
Y014682D01*
X00661D01*
Y014751D01*
X006644D01*
Y014785D01*
X006679D01*
Y014854D01*
X006713D01*
Y014888D01*
X006747D01*
Y014957D01*
X006781D01*
Y015025D01*
X006816D01*
Y015094D01*
X00685D01*
Y015162D01*
X006884D01*
Y015231D01*
X006919D01*
Y015265D01*
X006953D01*
Y015334D01*
X006987D01*
Y015403D01*
X007022D01*
Y015471D01*
X007056D01*
Y015506D01*
X00709D01*
Y01554D01*
X007125D01*
Y015574D01*
X007159D01*
Y015609D01*
X007193D01*
Y015643D01*
X007262D01*
Y015677D01*
X007296D01*
Y015711D01*
X007331D01*
Y015746D01*
X007399D01*
Y01578D01*
X007433D01*
Y015814D01*
X007502D01*
Y015849D01*
X007536D01*
Y015883D01*
X007605D01*
Y015917D01*
X007674D01*
Y015952D01*
X007708D01*
Y015986D01*
X007777D01*
Y01602D01*
X007811D01*
Y016055D01*
X00788D01*
Y016089D01*
X007948D01*
Y016123D01*
X008017D01*
Y016158D01*
X008085D01*
Y016192D01*
X008154D01*
Y016226D01*
X008223D01*
Y016261D01*
X008326D01*
Y016295D01*
X008394D01*
Y016329D01*
X008463D01*
Y016363D01*
X008394D01*
Y016398D01*
X008429D01*
Y016432D01*
X008497D01*
Y016466D01*
X008566D01*
Y016501D01*
X0086D01*
Y016535D01*
X008669D01*
Y016569D01*
X009012D01*
Y016535D01*
X009149D01*
Y016569D01*
X009321D01*
Y016604D01*
X009595D01*
Y016569D01*
X009664D01*
Y016535D01*
X009698D01*
Y016501D01*
X009733D01*
Y016466D01*
X009767D01*
Y016432D01*
X009801D01*
Y016363D01*
X009836D01*
Y016295D01*
X00987D01*
Y016226D01*
X009904D01*
Y016329D01*
X00987D01*
Y016398D01*
X009836D01*
Y016432D01*
X009801D01*
Y016466D01*
X009767D01*
Y016501D01*
X009733D01*
Y016535D01*
X009698D01*
Y016569D01*
X009664D01*
Y016604D01*
X009698D01*
Y016569D01*
X009836D01*
Y016604D01*
X00987D01*
Y016638D01*
X009904D01*
Y016569D01*
X009939D01*
Y016638D01*
X009904D01*
Y016672D01*
X009939D01*
Y016638D01*
X009973D01*
Y016672D01*
X010007D01*
Y016741D01*
X009973D01*
Y01681D01*
X010007D01*
Y016844D01*
X010041D01*
Y016913D01*
X010076D01*
Y016947D01*
X01011D01*
Y016981D01*
X010144D01*
Y017015D01*
X010179D01*
Y01705D01*
X010213D01*
Y017084D01*
X010247D01*
Y017118D01*
X010282D01*
Y017153D01*
X010316D01*
Y017187D01*
X01035D01*
Y017221D01*
X010385D01*
Y017359D01*
X010453D01*
Y01729D01*
X010488D01*
Y017359D01*
X010453D01*
Y017393D01*
X010419D01*
Y017427D01*
X010316D01*
Y017393D01*
X010282D01*
Y017359D01*
X010213D01*
Y017393D01*
X010247D01*
Y017427D01*
X010282D01*
Y017462D01*
X010453D01*
Y017427D01*
D02*
G37*
G36*
X010213Y01729D02*
X010179D01*
Y017256D01*
X010144D01*
Y017221D01*
X010076D01*
Y017256D01*
X01011D01*
Y01729D01*
X010144D01*
Y017324D01*
X010179D01*
Y017359D01*
X010213D01*
Y01729D01*
D02*
G37*
G36*
X010076Y017187D02*
X010041D01*
Y017221D01*
X010076D01*
Y017187D01*
D02*
G37*
G36*
X010041Y017153D02*
X010007D01*
Y017187D01*
X010041D01*
Y017153D01*
D02*
G37*
G36*
X017351Y017015D02*
X017282D01*
Y01705D01*
X017351D01*
Y017015D01*
D02*
G37*
G36*
X017282Y016981D02*
X017248D01*
Y017015D01*
X017282D01*
Y016981D01*
D02*
G37*
G36*
X010247Y016913D02*
X010213D01*
Y016947D01*
X010247D01*
Y016913D01*
D02*
G37*
G36*
X010213Y016878D02*
X010179D01*
Y016913D01*
X010213D01*
Y016878D01*
D02*
G37*
G36*
X010007Y017084D02*
X009973D01*
Y01705D01*
X009939D01*
Y017015D01*
X009904D01*
Y016981D01*
X00987D01*
Y016913D01*
X009836D01*
Y016878D01*
X009801D01*
Y016844D01*
X009767D01*
Y016913D01*
X009801D01*
Y016947D01*
X009836D01*
Y016981D01*
X009733D01*
Y016947D01*
X009527D01*
Y016913D01*
X009287D01*
Y016878D01*
X009081D01*
Y016844D01*
X008772D01*
Y01681D01*
X008532D01*
Y016775D01*
X008463D01*
Y016741D01*
X008429D01*
Y016707D01*
X00836D01*
Y016741D01*
X008394D01*
Y016775D01*
X008429D01*
Y01681D01*
X008497D01*
Y016844D01*
X008737D01*
Y016878D01*
X009046D01*
Y016913D01*
X009252D01*
Y016947D01*
X009492D01*
Y016981D01*
X009698D01*
Y017015D01*
X009836D01*
Y01705D01*
X009904D01*
Y017084D01*
X009939D01*
Y017118D01*
X009973D01*
Y017153D01*
X010007D01*
Y017084D01*
D02*
G37*
G36*
X01114Y017565D02*
X011174D01*
Y017496D01*
X011208D01*
Y017462D01*
X011277D01*
Y017427D01*
X011345D01*
Y017393D01*
X011517D01*
Y017427D01*
X011551D01*
Y017462D01*
X011586D01*
Y017496D01*
X01162D01*
Y01753D01*
X011654D01*
Y017565D01*
X011689D01*
Y017599D01*
X011792D01*
Y017633D01*
X012032D01*
Y017599D01*
X0121D01*
Y017565D01*
X012135D01*
Y01753D01*
X012169D01*
Y017496D01*
X012238D01*
Y017462D01*
X012306D01*
Y017427D01*
X012375D01*
Y017393D01*
X012478D01*
Y017359D01*
X012547D01*
Y017324D01*
X012649D01*
Y01729D01*
X012752D01*
Y017256D01*
X012821D01*
Y017221D01*
X012958D01*
Y017187D01*
X01313D01*
Y017153D01*
X013233D01*
Y017118D01*
X013267D01*
Y017084D01*
X013301D01*
Y017015D01*
X013336D01*
Y016947D01*
X01337D01*
Y016878D01*
X013404D01*
Y016741D01*
X01337D01*
Y01681D01*
X013336D01*
Y016878D01*
X013301D01*
Y016947D01*
X013267D01*
Y016981D01*
X013233D01*
Y017015D01*
X013164D01*
Y01705D01*
X01313D01*
Y017084D01*
X013096D01*
Y017118D01*
X012958D01*
Y017153D01*
X012821D01*
Y017187D01*
X012752D01*
Y017221D01*
X012649D01*
Y017256D01*
X012581D01*
Y01729D01*
X012478D01*
Y017324D01*
X012375D01*
Y017359D01*
X012306D01*
Y017393D01*
X012238D01*
Y017427D01*
X012169D01*
Y017462D01*
X012135D01*
Y017427D01*
X0121D01*
Y017359D01*
X012066D01*
Y017324D01*
X012032D01*
Y01729D01*
X011997D01*
Y017256D01*
X011963D01*
Y01729D01*
X011929D01*
Y017324D01*
X011895D01*
Y017427D01*
X01186D01*
Y017565D01*
X011792D01*
Y01753D01*
X011723D01*
Y017496D01*
X011689D01*
Y017462D01*
X01162D01*
Y017393D01*
X011551D01*
Y017359D01*
X011483D01*
Y017324D01*
X011345D01*
Y017359D01*
X011311D01*
Y017153D01*
X011277D01*
Y017256D01*
X011243D01*
Y017324D01*
X011208D01*
Y017427D01*
X011174D01*
Y017462D01*
X01114D01*
Y017565D01*
X011105D01*
Y017599D01*
Y017633D01*
Y017908D01*
X01114D01*
Y017565D01*
D02*
G37*
G36*
X009973Y016707D02*
X009939D01*
Y016741D01*
X009973D01*
Y016707D01*
D02*
G37*
G36*
X011963Y018182D02*
X012032D01*
Y018148D01*
X0121D01*
Y018114D01*
X012135D01*
Y018079D01*
X012169D01*
Y018045D01*
X012203D01*
Y018011D01*
X012272D01*
Y017976D01*
X012306D01*
Y017942D01*
X012341D01*
Y017908D01*
X012444D01*
Y017873D01*
X012581D01*
Y017839D01*
X013301D01*
Y017805D01*
X01337D01*
Y01777D01*
X013404D01*
Y017736D01*
X013439D01*
Y017702D01*
X013473D01*
Y017667D01*
X013507D01*
Y017599D01*
X013542D01*
Y017565D01*
X013576D01*
Y01753D01*
X01361D01*
Y017496D01*
X013645D01*
Y017462D01*
X013679D01*
Y017427D01*
X013713D01*
Y017393D01*
X013782D01*
Y017359D01*
X013816D01*
Y017324D01*
X013851D01*
Y01729D01*
X013919D01*
Y017256D01*
X013988D01*
Y017221D01*
X014022D01*
Y017187D01*
X014091D01*
Y017153D01*
X014125D01*
Y017118D01*
X014194D01*
Y017084D01*
X014228D01*
Y01705D01*
X014297D01*
Y017015D01*
X014365D01*
Y016981D01*
X0144D01*
Y016947D01*
X014468D01*
Y016913D01*
X014537D01*
Y016878D01*
X014605D01*
Y016844D01*
X014674D01*
Y01681D01*
X014743D01*
Y016775D01*
X014777D01*
Y016741D01*
X014811D01*
Y016707D01*
X014846D01*
Y016638D01*
X014811D01*
Y016707D01*
X014777D01*
Y016741D01*
X014708D01*
Y016775D01*
X014674D01*
Y01681D01*
X014605D01*
Y016844D01*
X014537D01*
Y016878D01*
X014468D01*
Y016913D01*
X0144D01*
Y016947D01*
X014331D01*
Y016981D01*
X014297D01*
Y017015D01*
X014228D01*
Y01705D01*
X014159D01*
Y017084D01*
X014125D01*
Y017118D01*
X014056D01*
Y017153D01*
X014022D01*
Y017187D01*
X013953D01*
Y017221D01*
X013851D01*
Y017256D01*
X013816D01*
Y01729D01*
X013782D01*
Y017324D01*
X013748D01*
Y017359D01*
X013713D01*
Y017393D01*
X013679D01*
Y017427D01*
X013645D01*
Y017462D01*
X01361D01*
Y017496D01*
X013576D01*
Y01753D01*
X013542D01*
Y017565D01*
X013507D01*
Y017599D01*
X013473D01*
Y017633D01*
X013439D01*
Y017667D01*
X013404D01*
Y017702D01*
X01337D01*
Y017736D01*
X013301D01*
Y01777D01*
X013267D01*
Y017805D01*
X012512D01*
Y017839D01*
X012444D01*
Y017873D01*
X012341D01*
Y017908D01*
X012306D01*
Y017942D01*
X012238D01*
Y017976D01*
X012203D01*
Y018011D01*
X012169D01*
Y018045D01*
X012135D01*
Y018079D01*
X0121D01*
Y018114D01*
X012032D01*
Y018148D01*
X011826D01*
Y018114D01*
X011757D01*
Y018079D01*
X011689D01*
Y018114D01*
X011723D01*
Y018148D01*
X011792D01*
Y018182D01*
X011826D01*
Y018217D01*
X011963D01*
Y018182D01*
D02*
G37*
G36*
X009115Y016569D02*
X009081D01*
Y016604D01*
X009115D01*
Y016569D01*
D02*
G37*
G36*
X014846Y016535D02*
X014811D01*
Y016569D01*
Y016604D01*
X014846D01*
Y016535D01*
D02*
G37*
G36*
X00836Y016672D02*
X008326D01*
Y016638D01*
X008291D01*
Y016604D01*
X008257D01*
Y016569D01*
X008223D01*
Y016535D01*
X008188D01*
Y016501D01*
X008154D01*
Y016569D01*
X008188D01*
Y016604D01*
X008223D01*
Y016638D01*
X008257D01*
Y016672D01*
X008291D01*
Y016707D01*
X00836D01*
Y016672D01*
D02*
G37*
G36*
X017728Y016466D02*
X017694D01*
Y016501D01*
X017728D01*
Y016466D01*
D02*
G37*
G36*
X013851Y01681D02*
X014022D01*
Y016775D01*
X014091D01*
Y016741D01*
X014194D01*
Y016707D01*
X014262D01*
Y016672D01*
X014331D01*
Y016638D01*
X0144D01*
Y016604D01*
X014434D01*
Y016569D01*
X014503D01*
Y016535D01*
X014605D01*
Y016501D01*
X014743D01*
Y016535D01*
X014811D01*
Y016501D01*
X014777D01*
Y016466D01*
X014571D01*
Y016501D01*
X014503D01*
Y016535D01*
X014434D01*
Y016569D01*
X0144D01*
Y016604D01*
X014331D01*
Y016638D01*
X014262D01*
Y016672D01*
X014159D01*
Y016707D01*
X014056D01*
Y016741D01*
X013919D01*
Y016775D01*
X013851D01*
Y016741D01*
X013816D01*
Y016569D01*
X013851D01*
Y016466D01*
X013885D01*
Y016432D01*
X013919D01*
Y016398D01*
X013953D01*
Y016363D01*
X013988D01*
Y016329D01*
X014022D01*
Y016158D01*
X013988D01*
Y016123D01*
X013953D01*
Y01602D01*
X013988D01*
Y015883D01*
X014022D01*
Y01578D01*
X014056D01*
Y015609D01*
X014091D01*
Y015506D01*
X014125D01*
Y015368D01*
X014091D01*
Y015471D01*
X014056D01*
Y015574D01*
X014022D01*
Y015711D01*
X013988D01*
Y015849D01*
X013953D01*
Y015986D01*
X013919D01*
Y016089D01*
X013885D01*
Y016192D01*
X013851D01*
Y016295D01*
X013816D01*
Y016466D01*
X013782D01*
Y016844D01*
X013816D01*
Y016878D01*
X013851D01*
Y01681D01*
D02*
G37*
G36*
X008154Y016466D02*
X00812D01*
Y016501D01*
X008154D01*
Y016466D01*
D02*
G37*
G36*
X00812Y016432D02*
X008085D01*
Y016466D01*
X00812D01*
Y016432D01*
D02*
G37*
G36*
X00836Y016329D02*
X008326D01*
Y016363D01*
X00836D01*
Y016329D01*
D02*
G37*
G36*
X008085Y016398D02*
X008051D01*
Y016363D01*
X008017D01*
Y016329D01*
X007983D01*
Y016295D01*
X007948D01*
Y016261D01*
X007914D01*
Y016226D01*
X007845D01*
Y016261D01*
X00788D01*
Y016295D01*
X007914D01*
Y016329D01*
X007948D01*
Y016363D01*
X007983D01*
Y016398D01*
X008017D01*
Y016432D01*
X008085D01*
Y016398D01*
D02*
G37*
G36*
X017454Y01705D02*
X017522D01*
Y017015D01*
Y016981D01*
X017557D01*
Y016947D01*
X017591D01*
Y016878D01*
X017625D01*
Y01681D01*
X01766D01*
Y016775D01*
X017694D01*
Y016707D01*
X017728D01*
Y016638D01*
X017763D01*
Y016569D01*
X017797D01*
Y016535D01*
X017831D01*
Y016501D01*
X017865D01*
Y016466D01*
X017934D01*
Y016432D01*
X017968D01*
Y016398D01*
X018003D01*
Y016363D01*
X018037D01*
Y016329D01*
X018071D01*
Y016295D01*
X018106D01*
Y016261D01*
X018174D01*
Y016226D01*
X018209D01*
Y016192D01*
X018243D01*
Y016158D01*
X018312D01*
Y016123D01*
X018346D01*
Y016089D01*
X018415D01*
Y016055D01*
X018483D01*
Y01602D01*
X018552D01*
Y015986D01*
X018655D01*
Y015952D01*
X018723D01*
Y015917D01*
X018792D01*
Y015883D01*
X018826D01*
Y015849D01*
X018861D01*
Y015814D01*
X018895D01*
Y015746D01*
X018929D01*
Y015643D01*
X018964D01*
Y015609D01*
X018998D01*
Y01554D01*
X019032D01*
Y015506D01*
X019067D01*
Y015437D01*
X019101D01*
Y015403D01*
X019135D01*
Y015368D01*
X019169D01*
Y015334D01*
X019204D01*
Y0153D01*
X019238D01*
Y015265D01*
X019272D01*
Y015197D01*
X019307D01*
Y015162D01*
X019341D01*
Y015128D01*
X019375D01*
Y015094D01*
X01941D01*
Y015059D01*
X019444D01*
Y015025D01*
X019478D01*
Y014991D01*
X019513D01*
Y014957D01*
X019581D01*
Y014922D01*
X019616D01*
Y014888D01*
X01965D01*
Y014854D01*
X019719D01*
Y014819D01*
X019753D01*
Y014785D01*
X019787D01*
Y014751D01*
X019856D01*
Y014716D01*
X019959D01*
Y014682D01*
X020062D01*
Y014648D01*
X020096D01*
Y014613D01*
X02013D01*
Y014579D01*
X020165D01*
Y014476D01*
X020199D01*
Y014373D01*
X020233D01*
Y01427D01*
X020268D01*
Y014167D01*
X020302D01*
Y014064D01*
X020336D01*
Y013927D01*
X020371D01*
Y013824D01*
X020405D01*
Y013687D01*
X020439D01*
Y013515D01*
X020473D01*
Y013344D01*
X020508D01*
Y013172D01*
X020542D01*
Y012932D01*
X020576D01*
Y012692D01*
X020611D01*
Y012211D01*
X020645D01*
Y011525D01*
X020611D01*
Y011388D01*
X020576D01*
Y011285D01*
X020542D01*
Y011182D01*
X020508D01*
Y011113D01*
X020473D01*
Y01101D01*
X020439D01*
Y010942D01*
X020405D01*
Y010873D01*
X020371D01*
Y010804D01*
X020336D01*
Y01077D01*
X020302D01*
Y010736D01*
X020233D01*
Y010942D01*
X020268D01*
Y011147D01*
X020233D01*
Y011353D01*
X020199D01*
Y011422D01*
Y011456D01*
Y011525D01*
X020165D01*
Y011662D01*
X02013D01*
Y011765D01*
X020096D01*
Y011902D01*
X020062D01*
Y01204D01*
X020027D01*
Y012143D01*
X019993D01*
Y012246D01*
X019959D01*
Y012314D01*
X019924D01*
Y012349D01*
X01989D01*
Y012383D01*
X019856D01*
Y012417D01*
X019821D01*
Y012451D01*
X019787D01*
Y012486D01*
X019753D01*
Y01252D01*
X019719D01*
Y012554D01*
X019684D01*
Y012589D01*
X019616D01*
Y012623D01*
X019581D01*
Y012657D01*
X019547D01*
Y012692D01*
X019513D01*
Y012726D01*
X019444D01*
Y01276D01*
X01941D01*
Y012795D01*
X019375D01*
Y012829D01*
X019341D01*
Y012863D01*
X019272D01*
Y012898D01*
X019238D01*
Y012932D01*
X019169D01*
Y013001D01*
X019101D01*
Y013035D01*
X019067D01*
Y013069D01*
X018998D01*
Y013103D01*
X018964D01*
Y013138D01*
X018895D01*
Y013172D01*
X018861D01*
Y013206D01*
X018792D01*
Y013241D01*
X018723D01*
Y013275D01*
X018689D01*
Y013309D01*
X01862D01*
Y013344D01*
X018552D01*
Y013309D01*
X018517D01*
Y013275D01*
X018483D01*
Y013241D01*
X018449D01*
Y013206D01*
X018415D01*
Y013172D01*
X01838D01*
Y013138D01*
X018346D01*
Y013103D01*
X018312D01*
Y013069D01*
X018277D01*
Y013035D01*
X018243D01*
Y012966D01*
X018209D01*
Y012932D01*
X018174D01*
Y012898D01*
X01814D01*
Y012829D01*
X018106D01*
Y012795D01*
X018071D01*
Y01276D01*
X018037D01*
Y012692D01*
X018003D01*
Y012657D01*
X017968D01*
Y012589D01*
X017934D01*
Y01252D01*
X0179D01*
Y012486D01*
X017865D01*
Y012417D01*
X017831D01*
Y012349D01*
X017797D01*
Y012314D01*
X017763D01*
Y01228D01*
X017728D01*
Y012211D01*
X017694D01*
Y012143D01*
X01766D01*
Y012074D01*
X017625D01*
Y012005D01*
X017591D01*
Y011971D01*
X017522D01*
Y01204D01*
X017488D01*
Y012108D01*
X017454D01*
Y012143D01*
X017419D01*
Y012211D01*
X017385D01*
Y01228D01*
X017351D01*
Y012314D01*
X017316D01*
Y012383D01*
X017282D01*
Y012451D01*
X017248D01*
Y012486D01*
X017213D01*
Y012554D01*
X017179D01*
Y012589D01*
X017145D01*
Y012657D01*
X017111D01*
Y012692D01*
X017076D01*
Y01276D01*
X017042D01*
Y012795D01*
X017008D01*
Y012829D01*
X016939D01*
Y012863D01*
X016905D01*
Y012898D01*
X016802D01*
Y012932D01*
X016733D01*
Y012966D01*
X016561D01*
Y013001D01*
X016321D01*
Y012932D01*
X016356D01*
Y012863D01*
X01639D01*
Y012829D01*
X016424D01*
Y012795D01*
X016459D01*
Y01276D01*
X016493D01*
Y012726D01*
X016527D01*
Y012692D01*
X016561D01*
Y012657D01*
X016596D01*
Y012623D01*
X01663D01*
Y012589D01*
X016664D01*
Y01252D01*
X016699D01*
Y012486D01*
X016733D01*
Y012451D01*
X016767D01*
Y012417D01*
X016802D01*
Y012383D01*
X016836D01*
Y012349D01*
X01687D01*
Y012314D01*
X016905D01*
Y01228D01*
X016973D01*
Y012246D01*
X017008D01*
Y012211D01*
X017076D01*
Y012177D01*
X017316D01*
Y012143D01*
X017351D01*
Y012108D01*
X017385D01*
Y01204D01*
X017419D01*
Y011971D01*
X017454D01*
Y011937D01*
X017522D01*
Y011902D01*
X017591D01*
Y011868D01*
X01766D01*
Y011834D01*
X017694D01*
Y011799D01*
X017728D01*
Y011697D01*
X017763D01*
Y011525D01*
X017728D01*
Y011491D01*
X017694D01*
Y011456D01*
X01766D01*
Y011422D01*
X017625D01*
Y011388D01*
X017591D01*
Y011422D01*
X017557D01*
Y011456D01*
X017488D01*
Y011388D01*
X017522D01*
Y011319D01*
X017488D01*
Y011388D01*
X017454D01*
Y011525D01*
X017419D01*
Y011559D01*
X017385D01*
Y011594D01*
X017248D01*
Y011559D01*
X017213D01*
Y011525D01*
X017179D01*
Y011456D01*
X017213D01*
Y011388D01*
X017248D01*
Y011319D01*
X017282D01*
Y01125D01*
X017248D01*
Y011147D01*
X017213D01*
Y011113D01*
X017179D01*
Y011182D01*
X017213D01*
Y011285D01*
X017248D01*
Y011319D01*
X017213D01*
Y011388D01*
X017179D01*
Y011422D01*
Y011456D01*
X017145D01*
Y011594D01*
X017213D01*
Y011628D01*
X017419D01*
Y011594D01*
X017454D01*
Y011559D01*
X017488D01*
Y011525D01*
X017557D01*
Y011491D01*
X01766D01*
Y011525D01*
X017694D01*
Y011765D01*
X01766D01*
Y011799D01*
X017625D01*
Y011834D01*
X017522D01*
Y011868D01*
X017488D01*
Y011902D01*
X017454D01*
Y011937D01*
X017419D01*
Y011971D01*
X017385D01*
Y012005D01*
Y01204D01*
X017351D01*
Y012074D01*
X017316D01*
Y012108D01*
X017248D01*
Y012143D01*
X017076D01*
Y012177D01*
X017008D01*
Y012211D01*
X016939D01*
Y012246D01*
X016905D01*
Y01228D01*
X01687D01*
Y012314D01*
X016836D01*
Y012349D01*
X016802D01*
Y012383D01*
X016767D01*
Y012417D01*
X016733D01*
Y012451D01*
X016699D01*
Y012486D01*
X016664D01*
Y01252D01*
X01663D01*
Y012554D01*
Y012589D01*
X016596D01*
Y012623D01*
X016561D01*
Y012657D01*
X016527D01*
Y012692D01*
X016493D01*
Y012726D01*
X016459D01*
Y01276D01*
X016424D01*
Y012795D01*
X01639D01*
Y012829D01*
X016356D01*
Y012863D01*
X016321D01*
Y012898D01*
X016287D01*
Y012932D01*
X016253D01*
Y012966D01*
X016218D01*
Y013001D01*
X01615D01*
Y013035D01*
X016115D01*
Y013069D01*
X016012D01*
Y013035D01*
X015909D01*
Y013001D01*
X015429D01*
Y013035D01*
X015189D01*
Y013069D01*
X015155D01*
Y013103D01*
X015086D01*
Y013138D01*
X015017D01*
Y013172D01*
X014914D01*
Y013206D01*
X014811D01*
Y013241D01*
X014708D01*
Y013275D01*
X01464D01*
Y013241D01*
X014674D01*
Y013103D01*
X014708D01*
Y013069D01*
Y013035D01*
X014674D01*
Y013103D01*
X01464D01*
Y013172D01*
X014605D01*
Y013275D01*
X014571D01*
Y013412D01*
X014537D01*
Y01355D01*
X014503D01*
Y013687D01*
X014468D01*
Y013824D01*
X014434D01*
Y013961D01*
X0144D01*
Y014133D01*
X014365D01*
Y01427D01*
X014331D01*
Y014442D01*
X014297D01*
Y014613D01*
X014262D01*
Y014785D01*
X014228D01*
Y014957D01*
X014194D01*
Y015094D01*
X014159D01*
Y015197D01*
X014194D01*
Y015094D01*
X014228D01*
Y014957D01*
X014262D01*
Y014819D01*
X014297D01*
Y014682D01*
X014331D01*
Y014579D01*
X014365D01*
Y014373D01*
X0144D01*
Y014202D01*
X014434D01*
Y01403D01*
X014468D01*
Y013893D01*
X014503D01*
Y013721D01*
X014537D01*
Y013618D01*
X014571D01*
Y013515D01*
X01464D01*
Y01355D01*
X014674D01*
Y013618D01*
X014708D01*
Y013687D01*
X014743D01*
Y013721D01*
X014777D01*
Y01379D01*
X015257D01*
Y013824D01*
X01536D01*
Y013858D01*
X015429D01*
Y013893D01*
X015532D01*
Y013927D01*
X015601D01*
Y013961D01*
X015704D01*
Y013996D01*
X015807D01*
Y013961D01*
X015738D01*
Y013927D01*
X015669D01*
Y013893D01*
X015566D01*
Y013858D01*
X015498D01*
Y013824D01*
X015429D01*
Y01379D01*
X01536D01*
Y013755D01*
X014811D01*
Y013687D01*
X014777D01*
Y013653D01*
X014743D01*
Y013584D01*
X014777D01*
Y01355D01*
X014846D01*
Y013584D01*
X014914D01*
Y013618D01*
X014983D01*
Y013653D01*
X015017D01*
Y013687D01*
X015052D01*
Y013721D01*
X01512D01*
Y013687D01*
X015292D01*
Y013721D01*
X015395D01*
Y013755D01*
X015463D01*
Y01379D01*
X015566D01*
Y013824D01*
X015635D01*
Y013858D01*
X015704D01*
Y013893D01*
X015772D01*
Y013927D01*
X015841D01*
Y013961D01*
X015944D01*
Y013996D01*
X016047D01*
Y01403D01*
X016115D01*
Y014064D01*
X016184D01*
Y014099D01*
X016287D01*
Y014133D01*
X016356D01*
Y014167D01*
X016424D01*
Y014202D01*
X016527D01*
Y014236D01*
X016561D01*
Y01427D01*
X01663D01*
Y014202D01*
X016596D01*
Y014133D01*
X01663D01*
Y014167D01*
X016664D01*
Y01427D01*
X016699D01*
Y014339D01*
X016733D01*
Y014442D01*
X016767D01*
Y01451D01*
X016802D01*
Y014579D01*
X016836D01*
Y014648D01*
X01687D01*
Y014716D01*
X016905D01*
Y014785D01*
X016939D01*
Y014888D01*
X016973D01*
Y014957D01*
X017008D01*
Y015025D01*
X017042D01*
Y015094D01*
X017076D01*
Y015162D01*
X017111D01*
Y015231D01*
X017145D01*
Y015265D01*
X017179D01*
Y015334D01*
X017213D01*
Y015403D01*
X017248D01*
Y015471D01*
X017282D01*
Y015506D01*
X017316D01*
Y01554D01*
X017351D01*
Y015609D01*
X017385D01*
Y015643D01*
X017419D01*
Y015677D01*
X017454D01*
Y015711D01*
X017488D01*
Y01578D01*
X017522D01*
Y015814D01*
X017488D01*
Y015849D01*
X017522D01*
Y015814D01*
X017557D01*
Y015849D01*
X017522D01*
Y015952D01*
X017557D01*
Y01602D01*
X017591D01*
Y016158D01*
X017557D01*
Y016226D01*
X017522D01*
Y016055D01*
X017488D01*
Y015986D01*
X017454D01*
Y015917D01*
X017419D01*
Y015849D01*
X017385D01*
Y015814D01*
X017351D01*
Y015883D01*
X017385D01*
Y015952D01*
X017419D01*
Y01602D01*
X017454D01*
Y016123D01*
X017488D01*
Y016432D01*
X017454D01*
Y016501D01*
X017419D01*
Y016569D01*
X017385D01*
Y016638D01*
X017351D01*
Y016707D01*
X017316D01*
Y016775D01*
X017282D01*
Y01681D01*
X017248D01*
Y016878D01*
X017213D01*
Y016913D01*
Y016981D01*
X017248D01*
Y016878D01*
X017282D01*
Y016844D01*
X017316D01*
Y01681D01*
X017351D01*
Y016775D01*
Y016741D01*
X017385D01*
Y016672D01*
X017419D01*
Y016604D01*
X017454D01*
Y016501D01*
X017488D01*
Y016466D01*
X017522D01*
Y016363D01*
X017557D01*
Y016295D01*
X017591D01*
Y016226D01*
X017625D01*
Y016158D01*
X01766D01*
Y016226D01*
X017694D01*
Y016192D01*
X017763D01*
Y016261D01*
X017728D01*
Y016432D01*
X017763D01*
Y016398D01*
X017797D01*
Y016329D01*
X017831D01*
Y016295D01*
X017865D01*
Y016226D01*
X0179D01*
Y016192D01*
X017968D01*
Y016226D01*
X0179D01*
Y016295D01*
X017865D01*
Y016363D01*
X017831D01*
Y016398D01*
X017797D01*
Y016466D01*
X017763D01*
Y016535D01*
X017728D01*
Y016604D01*
X017694D01*
Y016672D01*
X01766D01*
Y016741D01*
X017625D01*
Y01681D01*
X017591D01*
Y016878D01*
X017557D01*
Y016913D01*
X017522D01*
Y016981D01*
X017488D01*
Y017015D01*
X017454D01*
Y01705D01*
X017351D01*
Y017084D01*
X017454D01*
Y01705D01*
D02*
G37*
G36*
X007845Y016192D02*
X007811D01*
Y016158D01*
X007777D01*
Y016123D01*
X007708D01*
Y016158D01*
X007742D01*
Y016192D01*
X007777D01*
Y016226D01*
X007845D01*
Y016192D01*
D02*
G37*
G36*
X007708Y016089D02*
X007674D01*
Y016055D01*
X007605D01*
Y016089D01*
X007639D01*
Y016123D01*
X007708D01*
Y016089D01*
D02*
G37*
G36*
X012718Y016192D02*
X012787D01*
Y016158D01*
X012821D01*
Y016123D01*
X01289D01*
Y016055D01*
X012924D01*
Y01602D01*
Y015986D01*
X01289D01*
Y01602D01*
X012855D01*
Y016055D01*
X012821D01*
Y016123D01*
X012752D01*
Y016158D01*
X012718D01*
Y016192D01*
X012684D01*
Y016226D01*
X012718D01*
Y016192D01*
D02*
G37*
G36*
X007605Y01602D02*
X007571D01*
Y015986D01*
X007502D01*
Y015952D01*
X007433D01*
Y015986D01*
X007468D01*
Y01602D01*
X007536D01*
Y016055D01*
X007605D01*
Y01602D01*
D02*
G37*
G36*
X013096Y015917D02*
Y015849D01*
X013061D01*
Y015883D01*
X013027D01*
Y015952D01*
X013096D01*
Y015917D01*
D02*
G37*
G36*
X012958Y015883D02*
X012993D01*
Y015849D01*
Y015814D01*
X012958D01*
Y015883D01*
X012924D01*
Y015917D01*
Y015952D01*
X012958D01*
Y015883D01*
D02*
G37*
G36*
X007433Y015917D02*
X007399D01*
Y015883D01*
X007331D01*
Y015849D01*
X007262D01*
Y015814D01*
X007159D01*
Y015849D01*
X007228D01*
Y015883D01*
X007296D01*
Y015917D01*
X007365D01*
Y015952D01*
X007433D01*
Y015917D01*
D02*
G37*
G36*
X007159Y01578D02*
X00709D01*
Y015814D01*
X007159D01*
Y01578D01*
D02*
G37*
G36*
X00709Y015746D02*
X007022D01*
Y01578D01*
X00709D01*
Y015746D01*
D02*
G37*
G36*
X007022Y015711D02*
X006953D01*
Y015746D01*
X007022D01*
Y015711D01*
D02*
G37*
G36*
X006953Y015677D02*
X006884D01*
Y015711D01*
X006953D01*
Y015677D01*
D02*
G37*
G36*
X014159Y015231D02*
X014125D01*
Y015334D01*
X014159D01*
Y015231D01*
D02*
G37*
G36*
X006884Y015609D02*
X00685D01*
Y01554D01*
X006816D01*
Y015471D01*
X006781D01*
Y015368D01*
X006747D01*
Y0153D01*
Y015265D01*
X006713D01*
Y015231D01*
X006679D01*
Y015334D01*
X006713D01*
Y015403D01*
X006747D01*
Y015506D01*
X006781D01*
Y015574D01*
X006816D01*
Y015643D01*
X00685D01*
Y015677D01*
X006884D01*
Y015609D01*
D02*
G37*
G36*
X006679Y015128D02*
X006644D01*
Y015059D01*
X00661D01*
Y014991D01*
X006576D01*
Y014922D01*
X006541D01*
Y014888D01*
X006507D01*
Y014957D01*
X006541D01*
Y015025D01*
X006576D01*
Y015094D01*
X00661D01*
Y015162D01*
X006644D01*
Y015231D01*
X006679D01*
Y015128D01*
D02*
G37*
G36*
X017351Y015746D02*
X017316D01*
Y015677D01*
X017282D01*
Y015643D01*
X017248D01*
Y015574D01*
X017213D01*
Y015506D01*
X017179D01*
Y015471D01*
X017145D01*
Y015403D01*
X017111D01*
Y015334D01*
X017076D01*
Y0153D01*
X017042D01*
Y015231D01*
X017008D01*
Y015162D01*
X016973D01*
Y015128D01*
X016939D01*
Y015059D01*
X016905D01*
Y014991D01*
X01687D01*
Y014922D01*
X016836D01*
Y014854D01*
X016802D01*
Y014785D01*
X016767D01*
Y014751D01*
X016733D01*
Y014785D01*
Y014819D01*
X016767D01*
Y014888D01*
X016802D01*
Y014957D01*
X016836D01*
Y015025D01*
X01687D01*
Y015094D01*
X016905D01*
Y015162D01*
X016939D01*
Y015197D01*
X016973D01*
Y015265D01*
X017008D01*
Y015334D01*
X017042D01*
Y015368D01*
X017076D01*
Y015437D01*
X017111D01*
Y015506D01*
X017145D01*
Y01554D01*
X017179D01*
Y015609D01*
X017213D01*
Y015677D01*
X017248D01*
Y015711D01*
X017282D01*
Y01578D01*
X017316D01*
Y015814D01*
X017351D01*
Y015746D01*
D02*
G37*
G36*
X011345Y017084D02*
Y01705D01*
Y016981D01*
X01138D01*
Y016878D01*
X011414D01*
Y01681D01*
X011448D01*
Y016775D01*
Y016741D01*
X011483D01*
Y016707D01*
X011517D01*
Y016638D01*
X011551D01*
Y016604D01*
X01162D01*
Y016569D01*
X011654D01*
Y016535D01*
X011723D01*
Y016501D01*
X011757D01*
Y016466D01*
X011826D01*
Y016432D01*
X011895D01*
Y016398D01*
X011963D01*
Y016363D01*
X012032D01*
Y016329D01*
X012135D01*
Y016295D01*
X012306D01*
Y016261D01*
X012444D01*
Y016226D01*
X012547D01*
Y016192D01*
X012615D01*
Y016158D01*
X012718D01*
Y016123D01*
X012752D01*
Y016055D01*
X012787D01*
Y015986D01*
X012821D01*
Y015952D01*
Y015883D01*
X012855D01*
Y01578D01*
X01289D01*
Y015746D01*
Y015711D01*
Y015677D01*
X012924D01*
Y01554D01*
X012958D01*
Y015506D01*
Y015368D01*
X012993D01*
Y015197D01*
Y015162D01*
X013027D01*
Y014819D01*
X013061D01*
Y014682D01*
X013027D01*
Y014716D01*
X012993D01*
Y015128D01*
X012958D01*
Y015368D01*
X012924D01*
Y01554D01*
X01289D01*
Y015574D01*
Y015677D01*
X012855D01*
Y01578D01*
X012821D01*
Y015849D01*
Y015883D01*
X012787D01*
Y015986D01*
X012752D01*
Y01602D01*
X012718D01*
Y016055D01*
Y016089D01*
X012649D01*
Y016123D01*
X012615D01*
Y016158D01*
X012512D01*
Y016192D01*
X012444D01*
Y016226D01*
X012272D01*
Y016261D01*
X012135D01*
Y016295D01*
X011997D01*
Y016329D01*
X011895D01*
Y016363D01*
X01186D01*
Y016398D01*
X011792D01*
Y016432D01*
X011757D01*
Y016466D01*
X011689D01*
Y016501D01*
X011654D01*
Y016535D01*
X01162D01*
Y016569D01*
X011551D01*
Y016604D01*
X011517D01*
Y016638D01*
X011483D01*
Y016672D01*
X011448D01*
Y016707D01*
X011414D01*
Y016775D01*
X01138D01*
Y016878D01*
X011345D01*
Y016947D01*
Y016981D01*
X011311D01*
Y017118D01*
X011345D01*
Y017084D01*
D02*
G37*
G36*
X006507Y014819D02*
Y014785D01*
X006473D01*
Y014716D01*
X006438D01*
Y014682D01*
X006404D01*
Y014751D01*
X006438D01*
Y014819D01*
X006473D01*
Y014888D01*
X006507D01*
Y014819D01*
D02*
G37*
G36*
X016733Y014648D02*
X016699D01*
Y014613D01*
X016664D01*
Y014682D01*
X016699D01*
Y014751D01*
X016733D01*
Y014648D01*
D02*
G37*
G36*
X006404Y014613D02*
X00637D01*
Y014648D01*
Y014682D01*
X006404D01*
Y014613D01*
D02*
G37*
G36*
X016664Y014545D02*
X01663D01*
Y014579D01*
Y014613D01*
X016664D01*
Y014545D01*
D02*
G37*
G36*
X01663Y014476D02*
X016596D01*
Y014442D01*
X016561D01*
Y014476D01*
Y01451D01*
X016596D01*
Y014545D01*
X01663D01*
Y014476D01*
D02*
G37*
G36*
X00637Y014545D02*
X006335D01*
Y01451D01*
Y014476D01*
X006301D01*
Y014442D01*
X006267D01*
Y01451D01*
X006301D01*
Y014579D01*
X006335D01*
Y014613D01*
X00637D01*
Y014545D01*
D02*
G37*
G36*
X016561Y014373D02*
X016527D01*
Y014339D01*
X016493D01*
Y014305D01*
X016424D01*
Y014339D01*
X016459D01*
Y014373D01*
X016493D01*
Y014407D01*
X016527D01*
Y014442D01*
X016561D01*
Y014373D01*
D02*
G37*
G36*
X016424Y01427D02*
X016356D01*
Y014305D01*
X016424D01*
Y01427D01*
D02*
G37*
G36*
X006267Y014373D02*
X006232D01*
Y014305D01*
X006198D01*
Y01427D01*
X006164D01*
Y014202D01*
X006129D01*
Y014167D01*
X006095D01*
Y014236D01*
X006129D01*
Y014305D01*
X006164D01*
Y014339D01*
X006198D01*
Y014373D01*
Y014407D01*
X006232D01*
Y014442D01*
X006267D01*
Y014373D01*
D02*
G37*
G36*
X006095Y014099D02*
X006061D01*
Y014064D01*
X006027D01*
Y014133D01*
X006061D01*
Y014167D01*
X006095D01*
Y014099D01*
D02*
G37*
G36*
X016356Y014236D02*
X016321D01*
Y014202D01*
X016253D01*
Y014167D01*
X016184D01*
Y014133D01*
X016115D01*
Y014099D01*
X016047D01*
Y014064D01*
X015978D01*
Y01403D01*
X015909D01*
Y013996D01*
X015807D01*
Y01403D01*
X015875D01*
Y014064D01*
X015944D01*
Y014099D01*
X016012D01*
Y014133D01*
X016081D01*
Y014167D01*
X01615D01*
Y014202D01*
X016218D01*
Y014236D01*
X016287D01*
Y01427D01*
X016356D01*
Y014236D01*
D02*
G37*
G36*
X006027Y013961D02*
X005992D01*
Y013893D01*
X005958D01*
Y013996D01*
X005992D01*
Y014064D01*
X006027D01*
Y013961D01*
D02*
G37*
G36*
X005958Y013858D02*
Y013824D01*
Y01379D01*
X005924D01*
Y013893D01*
X005958D01*
Y013858D01*
D02*
G37*
G36*
X013027Y014648D02*
X013061D01*
Y013893D01*
X013027D01*
Y013653D01*
X012993D01*
Y01355D01*
X012958D01*
Y013481D01*
X012924D01*
Y013584D01*
X012958D01*
Y013687D01*
X012993D01*
Y013927D01*
X013027D01*
Y014545D01*
X012993D01*
Y014648D01*
Y014682D01*
X013027D01*
Y014648D01*
D02*
G37*
G36*
X019032Y012898D02*
X018998D01*
Y013001D01*
X019032D01*
Y012898D01*
D02*
G37*
G36*
X013027Y013069D02*
X013061D01*
Y013035D01*
Y013001D01*
Y012898D01*
X012993D01*
Y013103D01*
X012958D01*
Y013138D01*
X013027D01*
Y013069D01*
D02*
G37*
G36*
X019169Y012898D02*
X019204D01*
Y012863D01*
X019169D01*
Y012898D01*
X019101D01*
Y012932D01*
X019169D01*
Y012898D01*
D02*
G37*
G36*
X019032Y012795D02*
X018998D01*
Y012863D01*
X019032D01*
Y012795D01*
D02*
G37*
G36*
X010762D02*
X010728D01*
Y012829D01*
X010762D01*
Y012795D01*
D02*
G37*
G36*
X018998Y01276D02*
X018964D01*
Y012795D01*
X018998D01*
Y01276D01*
D02*
G37*
G36*
X018929D02*
X018861D01*
Y012795D01*
X018929D01*
Y01276D01*
D02*
G37*
G36*
X010728D02*
X010693D01*
Y012795D01*
X010728D01*
Y01276D01*
D02*
G37*
G36*
X018861Y012726D02*
X018826D01*
Y01276D01*
X018861D01*
Y012726D01*
D02*
G37*
G36*
X010693D02*
X010659D01*
Y01276D01*
X010693D01*
Y012726D01*
D02*
G37*
G36*
X010659Y012692D02*
X010625D01*
Y012726D01*
X010659D01*
Y012692D01*
D02*
G37*
G36*
X019238Y012657D02*
X019204D01*
Y012795D01*
Y012829D01*
X019238D01*
Y012657D01*
D02*
G37*
G36*
X010625D02*
X010591D01*
Y012692D01*
X010625D01*
Y012657D01*
D02*
G37*
G36*
X010591Y012623D02*
X010556D01*
Y012657D01*
X010591D01*
Y012623D01*
D02*
G37*
G36*
X010556Y012589D02*
X010522D01*
Y012623D01*
X010556D01*
Y012589D01*
D02*
G37*
G36*
X006027D02*
X005992D01*
Y012623D01*
Y012692D01*
X006027D01*
Y012589D01*
D02*
G37*
G36*
X010522Y012554D02*
X010488D01*
Y012589D01*
X010522D01*
Y012554D01*
D02*
G37*
G36*
X019169Y01252D02*
X019135D01*
Y012657D01*
X019169D01*
Y01252D01*
D02*
G37*
G36*
X010488Y012486D02*
X010453D01*
Y012451D01*
X010419D01*
Y01252D01*
X010453D01*
Y012554D01*
X010488D01*
Y012486D01*
D02*
G37*
G36*
X019204Y012383D02*
X019135D01*
Y012417D01*
X019204D01*
Y012383D01*
D02*
G37*
G36*
X019135Y012349D02*
X019101D01*
Y012383D01*
X019135D01*
Y012349D01*
D02*
G37*
G36*
X013439D02*
X013336D01*
Y012383D01*
X013439D01*
Y012349D01*
D02*
G37*
G36*
X018861Y012623D02*
Y012589D01*
Y012349D01*
X018826D01*
Y012314D01*
X018792D01*
Y012383D01*
X018826D01*
Y012692D01*
X018861D01*
Y012623D01*
D02*
G37*
G36*
X013336Y012314D02*
X013267D01*
Y012349D01*
X013336D01*
Y012314D01*
D02*
G37*
G36*
X010419Y012383D02*
X010385D01*
Y012349D01*
X01035D01*
Y012314D01*
X010247D01*
Y012349D01*
X010316D01*
Y012383D01*
X01035D01*
Y012417D01*
X010385D01*
Y012451D01*
X010419D01*
Y012383D01*
D02*
G37*
G36*
X013233Y01228D02*
X013199D01*
Y012314D01*
X013233D01*
Y01228D01*
D02*
G37*
G36*
X011963Y012657D02*
X012135D01*
Y012623D01*
X012169D01*
Y012589D01*
X012203D01*
Y01252D01*
X012238D01*
Y01228D01*
X012203D01*
Y012383D01*
X012169D01*
Y012314D01*
X012135D01*
Y01228D01*
X0121D01*
Y012246D01*
X012066D01*
Y012211D01*
X012032D01*
Y012177D01*
X011997D01*
Y012108D01*
X011963D01*
Y012074D01*
X011929D01*
Y01204D01*
X011895D01*
Y012005D01*
X01186D01*
Y011937D01*
X011826D01*
Y011902D01*
X011792D01*
Y011971D01*
X011826D01*
Y01204D01*
X01186D01*
Y012383D01*
X011826D01*
Y012486D01*
X011792D01*
Y012554D01*
X011757D01*
Y012589D01*
X011723D01*
Y012623D01*
Y012657D01*
X011208D01*
Y012623D01*
X011174D01*
Y012589D01*
X01114D01*
Y012554D01*
X011105D01*
Y01252D01*
X011071D01*
Y012486D01*
X011037D01*
Y012451D01*
X011002D01*
Y012417D01*
X010968D01*
Y012383D01*
X010934D01*
Y012349D01*
X010899D01*
Y012314D01*
X010865D01*
Y012383D01*
X010899D01*
Y012417D01*
X010934D01*
Y012451D01*
X010968D01*
Y012486D01*
X011002D01*
Y01252D01*
X011037D01*
Y012554D01*
X011071D01*
Y012589D01*
X011105D01*
Y012623D01*
X01114D01*
Y012657D01*
X011174D01*
Y012692D01*
X011963D01*
Y012657D01*
D02*
G37*
G36*
X010247Y01228D02*
X01011D01*
Y012314D01*
X010247D01*
Y01228D01*
D02*
G37*
G36*
X019547Y012246D02*
X019513D01*
Y01228D01*
X019547D01*
Y012246D01*
D02*
G37*
G36*
X013199D02*
X01313D01*
Y01228D01*
X013199D01*
Y012246D01*
D02*
G37*
G36*
X012203D02*
X012169D01*
Y01228D01*
X012203D01*
Y012246D01*
D02*
G37*
G36*
X010076D02*
X009973D01*
Y01228D01*
X010076D01*
Y012246D01*
D02*
G37*
G36*
X018929Y01228D02*
X018964D01*
Y012246D01*
X019032D01*
Y012211D01*
X018929D01*
Y012246D01*
Y01228D01*
X018895D01*
Y012349D01*
X018929D01*
Y01228D01*
D02*
G37*
G36*
X01313Y012211D02*
X013096D01*
Y012177D01*
X013027D01*
Y012211D01*
X013061D01*
Y012246D01*
X01313D01*
Y012211D01*
D02*
G37*
G36*
X012958Y012108D02*
X012924D01*
Y012143D01*
X012958D01*
Y012108D01*
D02*
G37*
G36*
X019135Y012143D02*
X019101D01*
Y012074D01*
X019135D01*
Y012108D01*
X019169D01*
Y012074D01*
Y01204D01*
X019101D01*
Y012074D01*
X019067D01*
Y012177D01*
X019101D01*
Y012246D01*
X019135D01*
Y012143D01*
D02*
G37*
G36*
X018861Y01204D02*
X018826D01*
Y012108D01*
Y012143D01*
X018861D01*
Y01204D01*
D02*
G37*
G36*
X015875Y012657D02*
X015944D01*
Y012623D01*
X015978D01*
Y012589D01*
X016012D01*
Y012554D01*
X016047D01*
Y01252D01*
X016081D01*
Y012486D01*
X016115D01*
Y012451D01*
X01615D01*
Y012417D01*
X016218D01*
Y012383D01*
X016253D01*
Y012349D01*
X016287D01*
Y012314D01*
X016321D01*
Y01228D01*
Y012246D01*
X016356D01*
Y012211D01*
X01639D01*
Y012177D01*
Y012143D01*
X016424D01*
Y012108D01*
X016459D01*
Y01204D01*
X016424D01*
Y012074D01*
Y012108D01*
X01639D01*
Y012143D01*
X016356D01*
Y012211D01*
X016321D01*
Y012246D01*
X016287D01*
Y01228D01*
X016253D01*
Y012314D01*
X016218D01*
Y012349D01*
X016184D01*
Y012383D01*
X01615D01*
Y012417D01*
X016115D01*
Y012451D01*
X016081D01*
Y012486D01*
X016047D01*
Y01252D01*
X016012D01*
Y012554D01*
X015944D01*
Y012589D01*
X015909D01*
Y012623D01*
X015738D01*
Y012589D01*
X015566D01*
Y012554D01*
X015463D01*
Y01252D01*
X015429D01*
Y012486D01*
X015395D01*
Y012417D01*
X01536D01*
Y012383D01*
X015326D01*
Y01228D01*
X015292D01*
Y012177D01*
X015257D01*
Y01204D01*
X015223D01*
Y011834D01*
X015257D01*
Y011731D01*
X015292D01*
Y011662D01*
X015326D01*
Y011559D01*
X01536D01*
Y011491D01*
X015395D01*
Y011388D01*
X015429D01*
Y011285D01*
X015463D01*
Y011147D01*
X015498D01*
Y011045D01*
X015532D01*
Y010873D01*
X015566D01*
Y010736D01*
X015601D01*
Y010667D01*
X015635D01*
Y010598D01*
X015669D01*
Y01053D01*
X015704D01*
Y010461D01*
X015738D01*
Y010393D01*
X015772D01*
Y010324D01*
X015841D01*
Y01029D01*
X015875D01*
Y010255D01*
X015944D01*
Y010221D01*
X016012D01*
Y010187D01*
X016047D01*
Y010152D01*
X016081D01*
Y010118D01*
X016115D01*
Y010084D01*
X01615D01*
Y010049D01*
X016184D01*
Y010015D01*
X016218D01*
Y009981D01*
X016253D01*
Y009912D01*
X016287D01*
Y009878D01*
X016321D01*
Y009843D01*
X016356D01*
Y009809D01*
X01639D01*
Y009775D01*
X016424D01*
Y009741D01*
X016459D01*
Y009706D01*
X016493D01*
Y009672D01*
X016527D01*
Y009603D01*
X016561D01*
Y009569D01*
X016596D01*
Y009535D01*
X01663D01*
Y0095D01*
X016664D01*
Y009466D01*
X016699D01*
Y009432D01*
X016733D01*
Y009363D01*
X016767D01*
Y009329D01*
X016802D01*
Y00926D01*
X016836D01*
Y009226D01*
X01687D01*
Y009157D01*
X016905D01*
Y009089D01*
X016939D01*
Y009054D01*
X016973D01*
Y008986D01*
X017008D01*
Y008883D01*
X017248D01*
Y008917D01*
X017488D01*
Y008951D01*
X017625D01*
Y008986D01*
X017763D01*
Y00902D01*
X017865D01*
Y009054D01*
X017968D01*
Y009089D01*
X018071D01*
Y009123D01*
X01814D01*
Y009157D01*
X018209D01*
Y009191D01*
X018277D01*
Y009226D01*
X018346D01*
Y00926D01*
X018415D01*
Y009226D01*
X01838D01*
Y009191D01*
X018312D01*
Y009157D01*
X018243D01*
Y009123D01*
X018174D01*
Y009089D01*
X018106D01*
Y009054D01*
X018003D01*
Y00902D01*
X0179D01*
Y008986D01*
X017797D01*
Y008951D01*
X017694D01*
Y008917D01*
X017522D01*
Y008883D01*
X017282D01*
Y008848D01*
X017042D01*
Y008539D01*
X017008D01*
Y008471D01*
X017042D01*
Y008505D01*
X017179D01*
Y008539D01*
X017351D01*
Y008574D01*
X017454D01*
Y008608D01*
X017557D01*
Y008642D01*
X01766D01*
Y008677D01*
X017763D01*
Y008711D01*
X017831D01*
Y008745D01*
X017728D01*
Y00878D01*
X017831D01*
Y008814D01*
X0179D01*
Y008848D01*
X017968D01*
Y008883D01*
X018037D01*
Y008848D01*
X018003D01*
Y008814D01*
X018071D01*
Y008848D01*
X018106D01*
Y008883D01*
X018037D01*
Y008917D01*
X018106D01*
Y008883D01*
X018174D01*
Y008917D01*
X018106D01*
Y008951D01*
X018174D01*
Y008917D01*
X018243D01*
Y008951D01*
X018277D01*
Y008986D01*
X018312D01*
Y00902D01*
X01838D01*
Y009054D01*
X018346D01*
Y009089D01*
X01838D01*
Y009054D01*
X018415D01*
Y009089D01*
X01838D01*
Y009123D01*
X018415D01*
Y009089D01*
X018483D01*
Y009123D01*
X018517D01*
Y009157D01*
X018552D01*
Y009191D01*
X018586D01*
Y009226D01*
X01862D01*
Y00926D01*
X018655D01*
Y009294D01*
X018689D01*
Y009329D01*
X018723D01*
Y009363D01*
X018758D01*
Y009397D01*
X018792D01*
Y009432D01*
X018826D01*
Y0095D01*
X018861D01*
Y009535D01*
X018895D01*
Y009569D01*
X018929D01*
Y009603D01*
X018964D01*
Y009638D01*
X018998D01*
Y009672D01*
X019032D01*
Y009809D01*
X018998D01*
Y009775D01*
X018964D01*
Y009741D01*
X018929D01*
Y009809D01*
X018964D01*
Y009878D01*
X019032D01*
Y009912D01*
X019067D01*
Y009946D01*
X019135D01*
Y009912D01*
X019169D01*
Y009946D01*
X019204D01*
Y009809D01*
X019238D01*
Y009775D01*
X019135D01*
Y009706D01*
X019101D01*
Y009638D01*
X019067D01*
Y009603D01*
X019032D01*
Y009535D01*
X018998D01*
Y0095D01*
X018964D01*
Y009432D01*
X018929D01*
Y009397D01*
X018895D01*
Y009363D01*
X018861D01*
Y009294D01*
X018826D01*
Y00926D01*
X018792D01*
Y009329D01*
X018758D01*
Y009294D01*
X018723D01*
Y00926D01*
X018689D01*
Y009191D01*
X018723D01*
Y009226D01*
X018758D01*
Y009157D01*
X018723D01*
Y009123D01*
X018689D01*
Y009089D01*
X018655D01*
Y009157D01*
X01862D01*
Y009123D01*
X018586D01*
Y009089D01*
X018517D01*
Y009054D01*
X018483D01*
Y00902D01*
X018449D01*
Y008986D01*
X01838D01*
Y008951D01*
X018346D01*
Y008917D01*
X018312D01*
Y008883D01*
X018243D01*
Y008848D01*
X018209D01*
Y008814D01*
X01814D01*
Y00878D01*
X018071D01*
Y008745D01*
X018003D01*
Y008711D01*
X017934D01*
Y008677D01*
X017865D01*
Y008642D01*
X017763D01*
Y008608D01*
X01766D01*
Y008574D01*
X017591D01*
Y008539D01*
X017488D01*
Y008505D01*
X017385D01*
Y008471D01*
X017213D01*
Y008437D01*
X017042D01*
Y008402D01*
X017008D01*
Y008368D01*
X016973D01*
Y008162D01*
X016939D01*
Y008059D01*
X016973D01*
Y008093D01*
X017076D01*
Y008059D01*
X017008D01*
Y008025D01*
X016939D01*
Y00799D01*
X016905D01*
Y007956D01*
X016939D01*
Y007887D01*
X016973D01*
Y007853D01*
X017008D01*
Y007819D01*
X017042D01*
Y007785D01*
X017076D01*
Y00775D01*
X017111D01*
Y007682D01*
X017145D01*
Y007647D01*
X017179D01*
Y007613D01*
X017213D01*
Y007579D01*
X017248D01*
Y007544D01*
X017316D01*
Y00751D01*
X017351D01*
Y007476D01*
X017385D01*
Y007407D01*
X017419D01*
Y007373D01*
X017385D01*
Y007407D01*
X017351D01*
Y007441D01*
X017316D01*
Y007476D01*
X017282D01*
Y00751D01*
X017248D01*
Y007544D01*
X017213D01*
Y007579D01*
X017179D01*
Y007613D01*
X017111D01*
Y00751D01*
X017076D01*
Y007407D01*
X017111D01*
Y007373D01*
X017282D01*
Y007338D01*
X017351D01*
Y007304D01*
X017419D01*
Y007338D01*
X017454D01*
Y00727D01*
X017351D01*
Y007304D01*
X017248D01*
Y007338D01*
X017145D01*
Y00727D01*
X017179D01*
Y007235D01*
X017145D01*
Y00727D01*
X017111D01*
Y007304D01*
X017076D01*
Y007338D01*
X017042D01*
Y007373D01*
X017008D01*
Y007407D01*
X016973D01*
Y007441D01*
X016939D01*
Y00751D01*
X016905D01*
Y007544D01*
X016836D01*
Y007579D01*
X016802D01*
Y007544D01*
X016767D01*
Y00751D01*
X016733D01*
Y007476D01*
X016699D01*
Y007544D01*
X016733D01*
Y007579D01*
X016767D01*
Y007613D01*
X016905D01*
Y007579D01*
X016939D01*
Y007544D01*
X016973D01*
Y00751D01*
X017008D01*
Y007476D01*
X017042D01*
Y00751D01*
Y007544D01*
X017076D01*
Y007716D01*
X017042D01*
Y00775D01*
X017008D01*
Y007785D01*
X016973D01*
Y007819D01*
X016939D01*
Y007887D01*
X016905D01*
Y007922D01*
X01687D01*
Y008093D01*
X016905D01*
Y008334D01*
X016939D01*
Y008574D01*
X016973D01*
Y008917D01*
X016939D01*
Y008986D01*
X016905D01*
Y009089D01*
X01687D01*
Y009123D01*
Y009157D01*
X016836D01*
Y009191D01*
X016802D01*
Y009226D01*
Y00926D01*
X016767D01*
Y009294D01*
X016733D01*
Y009363D01*
X016699D01*
Y009397D01*
X016664D01*
Y009432D01*
X01663D01*
Y009466D01*
X016596D01*
Y0095D01*
X016561D01*
Y009535D01*
X016527D01*
Y009569D01*
X016493D01*
Y009638D01*
X016459D01*
Y009672D01*
X016424D01*
Y009706D01*
X01639D01*
Y009741D01*
X016356D01*
Y009775D01*
X016321D01*
Y009809D01*
X016287D01*
Y009843D01*
X016253D01*
Y009912D01*
X016218D01*
Y009946D01*
X016184D01*
Y009981D01*
X01615D01*
Y010015D01*
X016115D01*
Y010049D01*
X016081D01*
Y010084D01*
X016047D01*
Y010118D01*
X016012D01*
Y010152D01*
X015944D01*
Y010187D01*
X015909D01*
Y010221D01*
X015841D01*
Y010187D01*
X015875D01*
Y010118D01*
X015909D01*
Y010049D01*
X015875D01*
Y010084D01*
X015841D01*
Y010152D01*
X015807D01*
Y010221D01*
X015772D01*
Y01029D01*
X015738D01*
Y010358D01*
X015704D01*
Y010427D01*
X015669D01*
Y010495D01*
X015635D01*
Y010564D01*
X015601D01*
Y010118D01*
X015566D01*
Y010015D01*
X015532D01*
Y009843D01*
X015498D01*
Y009706D01*
X015463D01*
Y009603D01*
X015429D01*
Y009535D01*
X015395D01*
Y009466D01*
X01536D01*
Y009569D01*
X015395D01*
Y009672D01*
X015429D01*
Y009809D01*
X015463D01*
Y009981D01*
X015498D01*
Y010667D01*
X015463D01*
Y010839D01*
X015429D01*
Y010976D01*
X015395D01*
Y011079D01*
X01536D01*
Y011147D01*
X015326D01*
Y01125D01*
X015292D01*
Y011319D01*
X015257D01*
Y011388D01*
X015223D01*
Y011456D01*
X015189D01*
Y011525D01*
X015155D01*
Y011559D01*
X01512D01*
Y011628D01*
X015086D01*
Y011662D01*
X015052D01*
Y011731D01*
X015017D01*
Y011765D01*
X014983D01*
Y011834D01*
X014949D01*
Y011868D01*
X014914D01*
Y011902D01*
X01488D01*
Y011937D01*
X014846D01*
Y011971D01*
X014811D01*
Y012005D01*
X014777D01*
Y01204D01*
X014743D01*
Y012074D01*
X014708D01*
Y012108D01*
X014674D01*
Y012143D01*
X01464D01*
Y012177D01*
X014571D01*
Y012211D01*
X014537D01*
Y012246D01*
X014503D01*
Y01228D01*
X014434D01*
Y012314D01*
X014365D01*
Y012349D01*
X014297D01*
Y012383D01*
X014159D01*
Y012417D01*
X014022D01*
Y012451D01*
X013748D01*
Y012417D01*
X013576D01*
Y012383D01*
X013439D01*
Y012417D01*
X013507D01*
Y012451D01*
X013679D01*
Y012486D01*
X014091D01*
Y012451D01*
X014228D01*
Y012417D01*
X014297D01*
Y012383D01*
X0144D01*
Y012349D01*
X014468D01*
Y012314D01*
X014503D01*
Y01228D01*
X014571D01*
Y012246D01*
X01464D01*
Y012211D01*
X014674D01*
Y012177D01*
X014708D01*
Y012143D01*
X014743D01*
Y012108D01*
X014777D01*
Y012074D01*
X014811D01*
Y01204D01*
X014846D01*
Y012005D01*
X014914D01*
Y011937D01*
X014949D01*
Y011902D01*
X014983D01*
Y011868D01*
X015017D01*
Y011834D01*
X015052D01*
Y011765D01*
X015086D01*
Y011731D01*
X01512D01*
Y011662D01*
X015155D01*
Y011628D01*
X015189D01*
Y011559D01*
X015223D01*
Y011491D01*
X015257D01*
Y011422D01*
X015292D01*
Y011353D01*
X015326D01*
Y011285D01*
X01536D01*
Y011182D01*
X015395D01*
Y011113D01*
X015429D01*
Y01101D01*
X015463D01*
Y011147D01*
X015429D01*
Y01125D01*
X015395D01*
Y011319D01*
X01536D01*
Y011456D01*
X015326D01*
Y011525D01*
X015292D01*
Y011628D01*
X015257D01*
Y011697D01*
X015223D01*
Y011799D01*
X015189D01*
Y011902D01*
X015155D01*
Y011971D01*
X01512D01*
Y01204D01*
X015086D01*
Y012108D01*
X015052D01*
Y012177D01*
X015017D01*
Y012246D01*
X014983D01*
Y012314D01*
X014949D01*
Y012417D01*
X014983D01*
Y012383D01*
X015017D01*
Y012314D01*
X015052D01*
Y012383D01*
X015086D01*
Y012451D01*
X01512D01*
Y012486D01*
X015155D01*
Y01252D01*
X015189D01*
Y012554D01*
X015257D01*
Y012589D01*
X015532D01*
Y012623D01*
X015704D01*
Y012657D01*
X015841D01*
Y012692D01*
X015875D01*
Y012657D01*
D02*
G37*
G36*
X012924Y012074D02*
X01289D01*
Y01204D01*
X012821D01*
Y012074D01*
X012855D01*
Y012108D01*
X012924D01*
Y012074D01*
D02*
G37*
G36*
X009973Y012211D02*
X009904D01*
Y012177D01*
X009836D01*
Y012143D01*
X009801D01*
Y012108D01*
X009767D01*
Y012074D01*
X009733D01*
Y01204D01*
X009698D01*
Y012108D01*
X009733D01*
Y012143D01*
X009767D01*
Y012177D01*
X009801D01*
Y012211D01*
X00987D01*
Y012246D01*
X009973D01*
Y012211D01*
D02*
G37*
G36*
X009698Y012005D02*
X009664D01*
Y01204D01*
X009698D01*
Y012005D01*
D02*
G37*
G36*
X018929Y011971D02*
X018895D01*
Y012005D01*
X018929D01*
Y011971D01*
D02*
G37*
G36*
X016493D02*
X016459D01*
Y012005D01*
X016493D01*
Y011971D01*
D02*
G37*
G36*
X009664D02*
X009595D01*
Y012005D01*
X009664D01*
Y011971D01*
D02*
G37*
G36*
X009595Y011937D02*
X009561D01*
Y011971D01*
X009595D01*
Y011937D01*
D02*
G37*
G36*
X016459Y011902D02*
X016424D01*
Y011937D01*
Y011971D01*
X016459D01*
Y011902D01*
D02*
G37*
G36*
X018895Y011868D02*
X018861D01*
Y011902D01*
Y011937D01*
Y011971D01*
X018895D01*
Y011868D01*
D02*
G37*
G36*
X018998Y011799D02*
X018964D01*
Y011834D01*
X018998D01*
Y011799D01*
D02*
G37*
G36*
X016424Y011834D02*
X01639D01*
Y011799D01*
X016321D01*
Y011834D01*
X016356D01*
Y011868D01*
X01639D01*
Y011902D01*
X016424D01*
Y011834D01*
D02*
G37*
G36*
X011792Y011868D02*
Y011834D01*
X011757D01*
Y011799D01*
X011723D01*
Y011868D01*
X011757D01*
Y011902D01*
X011792D01*
Y011868D01*
D02*
G37*
G36*
X009836Y011799D02*
X009801D01*
Y011834D01*
X009836D01*
Y011799D01*
D02*
G37*
G36*
X016321Y011765D02*
X016287D01*
Y011799D01*
X016321D01*
Y011765D01*
D02*
G37*
G36*
X012821Y012005D02*
X012787D01*
Y011971D01*
X012752D01*
Y011937D01*
X012718D01*
Y011902D01*
X012684D01*
Y011868D01*
X012649D01*
Y011834D01*
X012615D01*
Y011799D01*
X012581D01*
Y011765D01*
X012547D01*
Y011834D01*
X012581D01*
Y011868D01*
X012615D01*
Y011902D01*
X012649D01*
Y011937D01*
X012684D01*
Y011971D01*
X012718D01*
Y012005D01*
X012752D01*
Y01204D01*
X012821D01*
Y012005D01*
D02*
G37*
G36*
X011723Y011765D02*
X011689D01*
Y011799D01*
X011723D01*
Y011765D01*
D02*
G37*
G36*
X010865Y012246D02*
X010831D01*
Y012211D01*
X010796D01*
Y012143D01*
X010831D01*
Y012074D01*
X010865D01*
Y01204D01*
X010899D01*
Y012005D01*
X010934D01*
Y011971D01*
X010968D01*
Y011937D01*
X011002D01*
Y011868D01*
X011037D01*
Y011765D01*
X011002D01*
Y011834D01*
X010968D01*
Y011902D01*
X010934D01*
Y011937D01*
X010899D01*
Y011971D01*
X010865D01*
Y012005D01*
X010831D01*
Y01204D01*
X010796D01*
Y012143D01*
X010762D01*
Y012246D01*
X010796D01*
Y01228D01*
X010831D01*
Y012314D01*
X010865D01*
Y012246D01*
D02*
G37*
G36*
X017111Y011834D02*
X017145D01*
Y011799D01*
Y011731D01*
X017111D01*
Y011799D01*
X017076D01*
Y011868D01*
X017111D01*
Y011834D01*
D02*
G37*
G36*
X016287Y011731D02*
X016253D01*
Y011765D01*
X016287D01*
Y011731D01*
D02*
G37*
G36*
X009595D02*
X009561D01*
Y011765D01*
X009595D01*
Y011731D01*
D02*
G37*
G36*
X00987Y01204D02*
X009904D01*
Y011971D01*
X009939D01*
Y011937D01*
X009973D01*
Y011902D01*
X010007D01*
Y011868D01*
X010041D01*
Y011697D01*
X010007D01*
Y011834D01*
X009973D01*
Y011868D01*
X009939D01*
Y011834D01*
X009836D01*
Y011868D01*
X009904D01*
Y011902D01*
X009939D01*
Y011937D01*
X009904D01*
Y011971D01*
X00987D01*
Y012005D01*
X009836D01*
Y012108D01*
X00987D01*
Y01204D01*
D02*
G37*
G36*
X011689Y011697D02*
X011654D01*
Y011662D01*
X01162D01*
Y011731D01*
X011654D01*
Y011765D01*
X011689D01*
Y011697D01*
D02*
G37*
G36*
X009561Y011902D02*
X009527D01*
Y011834D01*
X009492D01*
Y011799D01*
X009527D01*
Y011697D01*
X009733D01*
Y011799D01*
X009801D01*
Y011731D01*
X009767D01*
Y011628D01*
X009733D01*
Y011662D01*
X009698D01*
Y011628D01*
X009664D01*
Y011594D01*
X009698D01*
Y011559D01*
X009767D01*
Y011525D01*
X009698D01*
Y011559D01*
X00963D01*
Y011594D01*
X009595D01*
Y011628D01*
X009527D01*
Y011662D01*
X009492D01*
Y011697D01*
X009458D01*
Y011868D01*
X009492D01*
Y011937D01*
X009561D01*
Y011902D01*
D02*
G37*
G36*
X019272Y011594D02*
X019238D01*
Y011628D01*
X019272D01*
Y011594D01*
D02*
G37*
G36*
X012547Y011697D02*
X012512D01*
Y011662D01*
X012478D01*
Y011628D01*
X012444D01*
Y011594D01*
X012409D01*
Y011662D01*
X012444D01*
Y011697D01*
X012478D01*
Y011731D01*
X012512D01*
Y011765D01*
X012547D01*
Y011697D01*
D02*
G37*
G36*
X010385Y011594D02*
X01035D01*
Y011628D01*
X010385D01*
Y011594D01*
D02*
G37*
G36*
X010007D02*
X009973D01*
Y011697D01*
X010007D01*
Y011594D01*
D02*
G37*
G36*
X019135Y011799D02*
Y011765D01*
Y011594D01*
X019101D01*
Y011559D01*
X019067D01*
Y011765D01*
X019101D01*
Y011834D01*
X019067D01*
Y011868D01*
X019135D01*
Y011799D01*
D02*
G37*
G36*
X01162Y011628D02*
Y011594D01*
X011586D01*
Y011559D01*
X011551D01*
Y011628D01*
X011586D01*
Y011662D01*
X01162D01*
Y011628D01*
D02*
G37*
G36*
X009973Y011559D02*
X009939D01*
Y011594D01*
X009973D01*
Y011559D01*
D02*
G37*
G36*
X019238Y011525D02*
X019204D01*
Y011559D01*
Y011594D01*
X019238D01*
Y011525D01*
D02*
G37*
G36*
X016253D02*
X016218D01*
Y011731D01*
X016253D01*
Y011525D01*
D02*
G37*
G36*
X016596Y011491D02*
X016561D01*
Y011525D01*
X016596D01*
Y011491D01*
D02*
G37*
G36*
X011551D02*
X011517D01*
Y011559D01*
X011551D01*
Y011491D01*
D02*
G37*
G36*
X01035Y011525D02*
X010316D01*
Y011491D01*
X010282D01*
Y011559D01*
X010316D01*
Y011594D01*
X01035D01*
Y011525D01*
D02*
G37*
G36*
X016561Y011422D02*
X016527D01*
Y011491D01*
X016561D01*
Y011422D01*
D02*
G37*
G36*
X012409Y011525D02*
X012375D01*
Y011456D01*
X012341D01*
Y011422D01*
X012306D01*
Y011491D01*
X012341D01*
Y011559D01*
X012375D01*
Y011594D01*
X012409D01*
Y011525D01*
D02*
G37*
G36*
X019375Y011662D02*
Y011628D01*
Y011388D01*
X019341D01*
Y011559D01*
X019307D01*
Y011594D01*
X019341D01*
Y011628D01*
X019307D01*
Y011662D01*
X019341D01*
Y011731D01*
X019375D01*
Y011662D01*
D02*
G37*
G36*
X019307Y011388D02*
Y011353D01*
X019272D01*
Y011422D01*
X019307D01*
Y011388D01*
D02*
G37*
G36*
X017591Y011353D02*
X017557D01*
Y011388D01*
X017591D01*
Y011353D01*
D02*
G37*
G36*
X016527Y011388D02*
Y011353D01*
X016493D01*
Y011422D01*
X016527D01*
Y011388D01*
D02*
G37*
G36*
X019547Y011319D02*
X019513D01*
Y011422D01*
X019547D01*
Y011319D01*
D02*
G37*
G36*
X011002Y011456D02*
X011037D01*
Y011422D01*
X011002D01*
Y011319D01*
X010968D01*
Y011285D01*
X010934D01*
Y011319D01*
X010899D01*
Y011285D01*
X010934D01*
Y01125D01*
X010865D01*
Y011285D01*
X010796D01*
Y011319D01*
X010762D01*
Y011353D01*
X010728D01*
Y011388D01*
X010796D01*
Y011353D01*
X010831D01*
Y011319D01*
X010865D01*
Y011353D01*
X010968D01*
Y011731D01*
X011002D01*
Y011456D01*
D02*
G37*
G36*
X012306Y011353D02*
X012272D01*
Y011285D01*
X012238D01*
Y011388D01*
X012272D01*
Y011422D01*
X012306D01*
Y011353D01*
D02*
G37*
G36*
X018792Y011182D02*
X018758D01*
Y011216D01*
X018792D01*
Y011182D01*
D02*
G37*
G36*
X016218Y011456D02*
X016253D01*
Y011422D01*
X016287D01*
Y011388D01*
X016321D01*
Y011353D01*
X016287D01*
Y011319D01*
X016459D01*
Y011353D01*
X016493D01*
Y011182D01*
X016459D01*
Y011285D01*
X016424D01*
Y01125D01*
X016356D01*
Y011216D01*
X01639D01*
Y011182D01*
X016459D01*
Y011147D01*
X01639D01*
Y011182D01*
X016321D01*
Y011216D01*
X016287D01*
Y01125D01*
X016253D01*
Y011285D01*
X016218D01*
Y011319D01*
X016184D01*
Y011353D01*
X01615D01*
Y011422D01*
X016184D01*
Y011525D01*
X016218D01*
Y011456D01*
D02*
G37*
G36*
X010488Y011662D02*
X010591D01*
Y011628D01*
X010659D01*
Y011525D01*
X010693D01*
Y011319D01*
X010728D01*
Y011285D01*
X010796D01*
Y01125D01*
X010865D01*
Y011216D01*
X010796D01*
Y011182D01*
X010762D01*
Y011216D01*
X010728D01*
Y01125D01*
X010659D01*
Y011525D01*
X010625D01*
Y011594D01*
X010556D01*
Y011628D01*
X010488D01*
Y011662D01*
X010453D01*
Y011628D01*
X010385D01*
Y011662D01*
X010419D01*
Y011697D01*
X010488D01*
Y011662D01*
D02*
G37*
G36*
X010693Y011182D02*
X010625D01*
Y011216D01*
X010693D01*
Y011182D01*
D02*
G37*
G36*
X009939Y011422D02*
X009973D01*
Y011388D01*
X010144D01*
Y011353D01*
X010179D01*
Y011319D01*
X010213D01*
Y011422D01*
X010247D01*
Y011491D01*
X010282D01*
Y011422D01*
Y011388D01*
X010247D01*
Y01125D01*
X010282D01*
Y011182D01*
X010041D01*
Y011216D01*
X009973D01*
Y01125D01*
X009939D01*
Y011285D01*
X009904D01*
Y011559D01*
X009939D01*
Y011422D01*
D02*
G37*
G36*
X012238Y011216D02*
X012203D01*
Y011147D01*
X012169D01*
Y01125D01*
X012203D01*
Y011285D01*
X012238D01*
Y011216D01*
D02*
G37*
G36*
X019169Y011113D02*
X019135D01*
Y011147D01*
X019101D01*
Y01125D01*
X019169D01*
Y011113D01*
D02*
G37*
G36*
X011517Y011422D02*
X011483D01*
Y011353D01*
X011448D01*
Y011285D01*
X011414D01*
Y011216D01*
X01138D01*
Y011147D01*
X011345D01*
Y011079D01*
X011311D01*
Y011182D01*
X011345D01*
Y01125D01*
X01138D01*
Y011319D01*
X011414D01*
Y011388D01*
X011448D01*
Y011456D01*
X011483D01*
Y011491D01*
X011517D01*
Y011422D01*
D02*
G37*
G36*
X019444Y011045D02*
X01941D01*
Y011079D01*
X019444D01*
Y011045D01*
D02*
G37*
G36*
X016767Y011525D02*
X016802D01*
Y011491D01*
X016836D01*
Y011422D01*
X01687D01*
Y011388D01*
Y011353D01*
X016905D01*
Y011182D01*
X016939D01*
Y011113D01*
X017008D01*
Y011079D01*
X017042D01*
Y011113D01*
X017008D01*
Y011147D01*
X016973D01*
Y011182D01*
X016939D01*
Y01125D01*
X016973D01*
Y011216D01*
X017008D01*
Y011182D01*
X017076D01*
Y011147D01*
X017145D01*
Y011113D01*
X017179D01*
Y011079D01*
X017145D01*
Y011045D01*
X016939D01*
Y011079D01*
X016905D01*
Y011113D01*
X01687D01*
Y011045D01*
X016939D01*
Y01101D01*
X016836D01*
Y011147D01*
X01687D01*
Y011182D01*
X016836D01*
Y011285D01*
X01687D01*
Y011319D01*
Y011353D01*
X016836D01*
Y011422D01*
X016802D01*
Y011456D01*
X016767D01*
Y011491D01*
X016733D01*
Y011525D01*
X016596D01*
Y011559D01*
X016767D01*
Y011525D01*
D02*
G37*
G36*
X019787Y010976D02*
X019719D01*
Y01101D01*
X019787D01*
Y010976D01*
D02*
G37*
G36*
X018792Y010907D02*
X018689D01*
Y010804D01*
X018655D01*
Y010976D01*
X018689D01*
Y010942D01*
X018758D01*
Y010976D01*
X018792D01*
Y010907D01*
D02*
G37*
G36*
X019753D02*
X019719D01*
Y010942D01*
X019753D01*
Y010907D01*
D02*
G37*
G36*
X019719Y010873D02*
X01965D01*
Y010839D01*
X019581D01*
Y010873D01*
X019616D01*
Y010907D01*
X019719D01*
Y010873D01*
D02*
G37*
G36*
X018586Y010839D02*
X018552D01*
Y010873D01*
X018586D01*
Y010839D01*
D02*
G37*
G36*
X011311Y01101D02*
X011277D01*
Y010907D01*
X011208D01*
Y010873D01*
X01114D01*
Y010839D01*
X011071D01*
Y010873D01*
X011105D01*
Y010907D01*
X011174D01*
Y010942D01*
X011208D01*
Y01101D01*
X011243D01*
Y011045D01*
X011277D01*
Y011079D01*
X011311D01*
Y01101D01*
D02*
G37*
G36*
X019856Y010907D02*
X01989D01*
Y010873D01*
Y010804D01*
X019856D01*
Y010873D01*
X019821D01*
Y010976D01*
X019856D01*
Y010907D01*
D02*
G37*
G36*
X018826Y010804D02*
X018792D01*
Y010873D01*
X018826D01*
Y010804D01*
D02*
G37*
G36*
X011071D02*
X011002D01*
Y010839D01*
X011071D01*
Y010804D01*
D02*
G37*
G36*
X019856Y01077D02*
X019821D01*
Y010804D01*
X019856D01*
Y01077D01*
D02*
G37*
G36*
X018655D02*
X01862D01*
Y010804D01*
X018655D01*
Y01077D01*
D02*
G37*
G36*
X018552D02*
X018517D01*
Y010839D01*
X018552D01*
Y01077D01*
D02*
G37*
G36*
X011002D02*
X010968D01*
Y010804D01*
X011002D01*
Y01077D01*
D02*
G37*
G36*
X019821Y010736D02*
X019787D01*
Y010701D01*
X019753D01*
Y01077D01*
X019821D01*
Y010736D01*
D02*
G37*
G36*
X010968D02*
X010934D01*
Y010701D01*
X010865D01*
Y010736D01*
X010899D01*
Y01077D01*
X010968D01*
Y010736D01*
D02*
G37*
G36*
X010865Y010667D02*
X010831D01*
Y010701D01*
X010865D01*
Y010667D01*
D02*
G37*
G36*
X019581Y010804D02*
X019547D01*
Y01077D01*
Y010736D01*
Y010598D01*
X019513D01*
Y01077D01*
X019478D01*
Y010804D01*
X019513D01*
Y010839D01*
X019581D01*
Y010804D01*
D02*
G37*
G36*
X018964Y010701D02*
X018998D01*
Y010564D01*
X018964D01*
Y010598D01*
X018929D01*
Y010633D01*
Y010667D01*
Y010736D01*
X018964D01*
Y010701D01*
D02*
G37*
G36*
X018861Y010667D02*
X018895D01*
Y010598D01*
X018929D01*
Y010564D01*
X018861D01*
Y010633D01*
X018826D01*
Y01077D01*
X018861D01*
Y010667D01*
D02*
G37*
G36*
X019993Y01053D02*
X019959D01*
Y010564D01*
X019993D01*
Y01053D01*
D02*
G37*
G36*
X010831Y010633D02*
X010796D01*
Y010598D01*
X010762D01*
Y010564D01*
X010728D01*
Y01053D01*
X010693D01*
Y010495D01*
X010659D01*
Y010564D01*
X010693D01*
Y010598D01*
X010728D01*
Y010633D01*
X010762D01*
Y010667D01*
X010831D01*
Y010633D01*
D02*
G37*
G36*
X019924Y010427D02*
X01989D01*
Y010461D01*
X019924D01*
Y010427D01*
D02*
G37*
G36*
X01989Y010324D02*
X019856D01*
Y010358D01*
X019787D01*
Y010427D01*
X019821D01*
Y010393D01*
X019856D01*
Y010427D01*
X01989D01*
Y010324D01*
D02*
G37*
G36*
X010659Y010427D02*
X010625D01*
Y010393D01*
X010591D01*
Y010358D01*
X010556D01*
Y010427D01*
X010591D01*
Y010461D01*
X010625D01*
Y010495D01*
X010659D01*
Y010427D01*
D02*
G37*
G36*
X01989Y010187D02*
X019856D01*
Y010221D01*
Y010255D01*
X01989D01*
Y010187D01*
D02*
G37*
G36*
X019856Y010152D02*
X019821D01*
Y010187D01*
X019856D01*
Y010152D01*
D02*
G37*
G36*
X008943Y010255D02*
X00884D01*
Y010221D01*
X008772D01*
Y010187D01*
X008703D01*
Y010152D01*
X008635D01*
Y010118D01*
X008566D01*
Y010152D01*
X0086D01*
Y010187D01*
X008669D01*
Y010221D01*
X008737D01*
Y010255D01*
X008806D01*
Y01029D01*
X008943D01*
Y010255D01*
D02*
G37*
G36*
X008566Y010084D02*
X008532D01*
Y010049D01*
X008463D01*
Y010084D01*
X008497D01*
Y010118D01*
X008566D01*
Y010084D01*
D02*
G37*
G36*
X019547Y010015D02*
X019513D01*
Y010049D01*
X019547D01*
Y010015D01*
D02*
G37*
G36*
X019513Y009981D02*
X019478D01*
Y010015D01*
X019513D01*
Y009981D01*
D02*
G37*
G36*
X008463Y010015D02*
X008429D01*
Y009981D01*
X008394D01*
Y009946D01*
X008326D01*
Y009981D01*
X00836D01*
Y010015D01*
X008394D01*
Y010049D01*
X008463D01*
Y010015D01*
D02*
G37*
G36*
X019478Y009912D02*
X019444D01*
Y009946D01*
Y009981D01*
X019478D01*
Y009912D01*
D02*
G37*
G36*
X019444Y009878D02*
X01941D01*
Y009912D01*
X019444D01*
Y009878D01*
D02*
G37*
G36*
X019375Y009843D02*
X019307D01*
Y009878D01*
X019375D01*
Y009843D01*
D02*
G37*
G36*
X019307Y009809D02*
X019238D01*
Y009843D01*
X019307D01*
Y009809D01*
D02*
G37*
G36*
X008943Y009843D02*
X008875D01*
Y009809D01*
X008669D01*
Y009775D01*
X0086D01*
Y009809D01*
X008635D01*
Y009843D01*
X008703D01*
Y009878D01*
X008943D01*
Y009843D01*
D02*
G37*
G36*
X008326Y009912D02*
X008291D01*
Y009878D01*
X008257D01*
Y009843D01*
X008223D01*
Y009809D01*
X008188D01*
Y009775D01*
X008154D01*
Y009741D01*
X00812D01*
Y009706D01*
X008085D01*
Y009672D01*
X008051D01*
Y009741D01*
X008085D01*
Y009775D01*
X00812D01*
Y009809D01*
X008154D01*
Y009843D01*
X008188D01*
Y009878D01*
X008223D01*
Y009912D01*
X008257D01*
Y009946D01*
X008326D01*
Y009912D01*
D02*
G37*
G36*
X018929Y009672D02*
X018895D01*
Y009638D01*
X018861D01*
Y009603D01*
X018826D01*
Y009569D01*
X018792D01*
Y009535D01*
X018758D01*
Y009603D01*
X018792D01*
Y009638D01*
X018826D01*
Y009672D01*
X018861D01*
Y009706D01*
X018895D01*
Y009741D01*
X018929D01*
Y009672D01*
D02*
G37*
G36*
X018758Y0095D02*
X018723D01*
Y009535D01*
X018758D01*
Y0095D01*
D02*
G37*
G36*
X018723Y009466D02*
X018689D01*
Y009432D01*
X018655D01*
Y009397D01*
X01862D01*
Y009363D01*
X018586D01*
Y009329D01*
X018517D01*
Y009363D01*
X018552D01*
Y009397D01*
X018586D01*
Y009432D01*
X01862D01*
Y009466D01*
X018655D01*
Y0095D01*
X018723D01*
Y009466D01*
D02*
G37*
G36*
X018517Y009294D02*
X018483D01*
Y00926D01*
X018415D01*
Y009294D01*
X018449D01*
Y009329D01*
X018517D01*
Y009294D01*
D02*
G37*
G36*
X01536Y009363D02*
X015326D01*
Y009294D01*
X015292D01*
Y00926D01*
X015257D01*
Y009294D01*
Y009329D01*
X015292D01*
Y009397D01*
X015326D01*
Y009432D01*
X01536D01*
Y009363D01*
D02*
G37*
G36*
X018792Y009226D02*
X018758D01*
Y00926D01*
X018792D01*
Y009226D01*
D02*
G37*
G36*
X008051Y009603D02*
X008017D01*
Y009569D01*
X007983D01*
Y009535D01*
X007948D01*
Y009466D01*
X007914D01*
Y009432D01*
X00788D01*
Y009397D01*
X007845D01*
Y009329D01*
X007811D01*
Y009294D01*
X007777D01*
Y009226D01*
X007742D01*
Y009191D01*
X007708D01*
Y00926D01*
X007742D01*
Y009329D01*
X007777D01*
Y009363D01*
X007811D01*
Y009432D01*
X007845D01*
Y009466D01*
X00788D01*
Y0095D01*
X007914D01*
Y009569D01*
X007948D01*
Y009603D01*
X007983D01*
Y009638D01*
X008017D01*
Y009672D01*
X008051D01*
Y009603D01*
D02*
G37*
G36*
X015257Y009191D02*
X015223D01*
Y009157D01*
X015189D01*
Y009226D01*
X015223D01*
Y00926D01*
X015257D01*
Y009191D01*
D02*
G37*
G36*
X015189Y009089D02*
X015155D01*
Y009054D01*
X01512D01*
Y00902D01*
X015086D01*
Y009089D01*
X01512D01*
Y009123D01*
X015155D01*
Y009157D01*
X015189D01*
Y009089D01*
D02*
G37*
G36*
X015086Y008986D02*
X015052D01*
Y00902D01*
X015086D01*
Y008986D01*
D02*
G37*
G36*
X018655Y00902D02*
X01862D01*
Y008986D01*
X018586D01*
Y008951D01*
X018552D01*
Y00902D01*
X018586D01*
Y009054D01*
X01862D01*
Y009089D01*
X018655D01*
Y00902D01*
D02*
G37*
G36*
X018209Y008951D02*
X018174D01*
Y008986D01*
X018209D01*
Y008951D01*
D02*
G37*
G36*
X015052D02*
X015017D01*
Y008986D01*
X015052D01*
Y008951D01*
D02*
G37*
G36*
X016905Y008883D02*
X01687D01*
Y008951D01*
X016905D01*
Y008883D01*
D02*
G37*
G36*
X009595Y010393D02*
X009836D01*
Y010358D01*
X010007D01*
Y010324D01*
X010144D01*
Y01029D01*
X010282D01*
Y010255D01*
X010453D01*
Y01029D01*
X010488D01*
Y010324D01*
X010522D01*
Y010358D01*
X010556D01*
Y01029D01*
X010522D01*
Y010255D01*
X010488D01*
Y010187D01*
X010453D01*
Y010152D01*
X010419D01*
Y010118D01*
X010385D01*
Y010049D01*
X01035D01*
Y010015D01*
X010316D01*
Y009946D01*
X010282D01*
Y009912D01*
X010247D01*
Y009843D01*
X010213D01*
Y009809D01*
X010179D01*
Y009741D01*
X010144D01*
Y009672D01*
X01011D01*
Y009638D01*
X010076D01*
Y009535D01*
X010041D01*
Y009466D01*
X010007D01*
Y009363D01*
X009973D01*
Y00926D01*
X009939D01*
Y009157D01*
X009904D01*
Y008986D01*
X00987D01*
Y008883D01*
X009836D01*
Y00878D01*
X009801D01*
Y008608D01*
X009767D01*
Y008471D01*
X009733D01*
Y008196D01*
X009698D01*
Y008059D01*
X009664D01*
Y007922D01*
X00963D01*
Y007853D01*
X009595D01*
Y00775D01*
X009561D01*
Y007682D01*
X009527D01*
Y007613D01*
X009492D01*
Y007716D01*
X009458D01*
Y007682D01*
X009252D01*
Y007647D01*
X008943D01*
Y007613D01*
X008737D01*
Y007647D01*
X008532D01*
Y007682D01*
X008429D01*
Y007716D01*
X00836D01*
Y00775D01*
X008291D01*
Y007785D01*
X008257D01*
Y007819D01*
X008188D01*
Y007853D01*
X008154D01*
Y007887D01*
X008085D01*
Y007922D01*
X008051D01*
Y007956D01*
X008017D01*
Y00799D01*
X007983D01*
Y008025D01*
X007914D01*
Y008059D01*
X00788D01*
Y008093D01*
X007845D01*
Y008128D01*
X007811D01*
Y008196D01*
X007777D01*
Y008231D01*
X007742D01*
Y008265D01*
Y008299D01*
X007708D01*
Y008334D01*
X007674D01*
Y008368D01*
X007639D01*
Y008437D01*
X007605D01*
Y008505D01*
X007571D01*
Y008574D01*
X007536D01*
Y008848D01*
X007571D01*
Y00902D01*
X007605D01*
Y009089D01*
X007639D01*
Y009157D01*
X007674D01*
Y009191D01*
X007708D01*
Y009123D01*
X007674D01*
Y009054D01*
X007639D01*
Y008951D01*
X007605D01*
Y008745D01*
X007639D01*
Y008848D01*
X007708D01*
Y008814D01*
X007742D01*
Y00878D01*
X007811D01*
Y008745D01*
X007948D01*
Y008711D01*
X008429D01*
Y008745D01*
X008532D01*
Y00878D01*
X008669D01*
Y008814D01*
X008772D01*
Y008848D01*
X008909D01*
Y008883D01*
X009012D01*
Y008917D01*
X009149D01*
Y008951D01*
X009252D01*
Y008986D01*
X009355D01*
Y00902D01*
X009424D01*
Y009054D01*
X009527D01*
Y009089D01*
X009595D01*
Y009123D01*
X009698D01*
Y009157D01*
X009767D01*
Y009191D01*
X00987D01*
Y009294D01*
X009904D01*
Y009363D01*
X009939D01*
Y009466D01*
X009973D01*
Y009569D01*
X010007D01*
Y009638D01*
X010041D01*
Y009706D01*
X010076D01*
Y009775D01*
X01011D01*
Y009809D01*
X010144D01*
Y009843D01*
X010179D01*
Y009878D01*
X01011D01*
Y009843D01*
X010041D01*
Y009809D01*
X009904D01*
Y009775D01*
X009767D01*
Y009741D01*
X009561D01*
Y009706D01*
X008943D01*
Y009741D01*
X008909D01*
Y009706D01*
X008772D01*
Y009741D01*
X008806D01*
Y009775D01*
X009184D01*
Y009809D01*
X009012D01*
Y009843D01*
X008978D01*
Y009878D01*
X009218D01*
Y009843D01*
X009287D01*
Y009809D01*
X009355D01*
Y009775D01*
X009527D01*
Y009809D01*
X009355D01*
Y009843D01*
X009287D01*
Y009912D01*
X009321D01*
Y010152D01*
X009287D01*
Y010221D01*
X009252D01*
Y010255D01*
X009218D01*
Y01029D01*
X009184D01*
Y010324D01*
X009046D01*
Y01029D01*
X008943D01*
Y010324D01*
X009012D01*
Y010358D01*
X009115D01*
Y010393D01*
X009321D01*
Y010427D01*
X009595D01*
Y010393D01*
D02*
G37*
G36*
X018552Y008883D02*
X018517D01*
Y008848D01*
X018483D01*
Y008814D01*
X018449D01*
Y008745D01*
X018415D01*
Y008711D01*
X01838D01*
Y008677D01*
X018346D01*
Y008642D01*
X018277D01*
Y008677D01*
X018312D01*
Y008711D01*
X018346D01*
Y008745D01*
X01838D01*
Y00878D01*
X018415D01*
Y008848D01*
X018449D01*
Y008883D01*
X018483D01*
Y008917D01*
X018517D01*
Y008951D01*
X018552D01*
Y008883D01*
D02*
G37*
G36*
X010179Y008917D02*
Y008883D01*
Y008711D01*
X010213D01*
Y008608D01*
X010179D01*
Y008677D01*
X010144D01*
Y008745D01*
X01011D01*
Y008951D01*
X010144D01*
Y008986D01*
X010179D01*
Y008917D01*
D02*
G37*
G36*
X018277Y008608D02*
X018243D01*
Y008574D01*
X018174D01*
Y008608D01*
X018209D01*
Y008642D01*
X018277D01*
Y008608D01*
D02*
G37*
G36*
X017728Y008711D02*
X017625D01*
Y008677D01*
X017522D01*
Y008642D01*
X017419D01*
Y008608D01*
X017316D01*
Y008574D01*
X017145D01*
Y008539D01*
X017076D01*
Y008642D01*
X017213D01*
Y008677D01*
X017385D01*
Y008711D01*
X017591D01*
Y008745D01*
X017728D01*
Y008711D01*
D02*
G37*
G36*
X016939Y008642D02*
X016905D01*
Y008539D01*
X01687D01*
Y008505D01*
X016836D01*
Y008608D01*
X01687D01*
Y008745D01*
X016905D01*
Y008848D01*
X016939D01*
Y008642D01*
D02*
G37*
G36*
X010934Y008574D02*
X010899D01*
Y008539D01*
X010865D01*
Y008505D01*
X010831D01*
Y008471D01*
X010762D01*
Y008505D01*
X010796D01*
Y008539D01*
X010831D01*
Y008574D01*
X010865D01*
Y008608D01*
X010899D01*
Y008642D01*
X010934D01*
Y008574D01*
D02*
G37*
G36*
X016356D02*
X01639D01*
Y008505D01*
X016424D01*
Y008471D01*
X016459D01*
Y008437D01*
X01639D01*
Y008471D01*
X016356D01*
Y008539D01*
X016321D01*
Y008608D01*
X016356D01*
Y008574D01*
D02*
G37*
G36*
X016836Y008471D02*
Y008437D01*
Y008402D01*
X016802D01*
Y008505D01*
X016836D01*
Y008471D01*
D02*
G37*
G36*
X012169Y011045D02*
X012135D01*
Y010976D01*
X0121D01*
Y010839D01*
X012066D01*
Y010736D01*
X012032D01*
Y010564D01*
X011997D01*
Y010152D01*
X012032D01*
Y009329D01*
X011997D01*
Y009191D01*
X011963D01*
Y009123D01*
X011929D01*
Y009089D01*
X011895D01*
Y00902D01*
X01186D01*
Y008951D01*
X011826D01*
Y008917D01*
X011792D01*
Y008883D01*
X011757D01*
Y008848D01*
X011723D01*
Y008814D01*
X011689D01*
Y00878D01*
X011654D01*
Y008745D01*
X01162D01*
Y008711D01*
X011586D01*
Y008677D01*
X011551D01*
Y008642D01*
X011517D01*
Y008608D01*
X011483D01*
Y008574D01*
X011414D01*
Y008539D01*
X01138D01*
Y008505D01*
X011414D01*
Y008471D01*
X011517D01*
Y008437D01*
X011483D01*
Y008402D01*
X011551D01*
Y008368D01*
X011723D01*
Y008334D01*
X01186D01*
Y008299D01*
X012135D01*
Y008265D01*
X012375D01*
Y008231D01*
X012752D01*
Y008196D01*
X012787D01*
Y008162D01*
X012684D01*
Y008196D01*
X012615D01*
Y008162D01*
X012444D01*
Y008196D01*
X012203D01*
Y008231D01*
X011997D01*
Y008265D01*
X01186D01*
Y008299D01*
X011689D01*
Y008334D01*
X011517D01*
Y008368D01*
X011414D01*
Y008402D01*
X011243D01*
Y008368D01*
X011208D01*
Y008334D01*
X011174D01*
Y008299D01*
X01114D01*
Y008128D01*
X011105D01*
Y007853D01*
X011311D01*
Y007819D01*
X011105D01*
Y007785D01*
X011071D01*
Y007441D01*
X011037D01*
Y007373D01*
X011002D01*
Y007304D01*
X010968D01*
Y007407D01*
X011002D01*
Y00751D01*
X011037D01*
Y008025D01*
X011071D01*
Y008128D01*
X011037D01*
Y008093D01*
X011002D01*
Y008059D01*
X010968D01*
Y008128D01*
X011002D01*
Y008196D01*
X011037D01*
Y008231D01*
X011071D01*
Y008299D01*
X011105D01*
Y008334D01*
X01114D01*
Y008368D01*
X011174D01*
Y008402D01*
X011208D01*
Y008437D01*
X011243D01*
Y008471D01*
X011277D01*
Y008505D01*
X011311D01*
Y008539D01*
X011345D01*
Y008574D01*
X01138D01*
Y008608D01*
X011414D01*
Y008642D01*
X011483D01*
Y008677D01*
X011517D01*
Y008711D01*
X011551D01*
Y008745D01*
X011586D01*
Y00878D01*
X01162D01*
Y008814D01*
X011654D01*
Y008848D01*
X011689D01*
Y008883D01*
X011723D01*
Y008917D01*
X011757D01*
Y008951D01*
X011792D01*
Y00902D01*
X011826D01*
Y009054D01*
X01186D01*
Y009123D01*
X011895D01*
Y009191D01*
X011929D01*
Y009329D01*
X011963D01*
Y010221D01*
X011929D01*
Y010461D01*
X011963D01*
Y010667D01*
X011997D01*
Y010804D01*
X012032D01*
Y010907D01*
X012066D01*
Y01101D01*
X0121D01*
Y011079D01*
X012135D01*
Y011147D01*
X012169D01*
Y011045D01*
D02*
G37*
G36*
X018174Y008539D02*
X01814D01*
Y008505D01*
X018071D01*
Y008471D01*
X018003D01*
Y008437D01*
X017934D01*
Y008402D01*
X017865D01*
Y008368D01*
X017797D01*
Y008334D01*
X017694D01*
Y008299D01*
X017625D01*
Y008265D01*
X017522D01*
Y008231D01*
X017454D01*
Y008196D01*
X017351D01*
Y008162D01*
X017282D01*
Y008128D01*
X017179D01*
Y008093D01*
X017076D01*
Y008128D01*
X017145D01*
Y008162D01*
X017248D01*
Y008196D01*
X017316D01*
Y008231D01*
X017419D01*
Y008265D01*
X017488D01*
Y008299D01*
X017591D01*
Y008334D01*
X01766D01*
Y008368D01*
X017763D01*
Y008402D01*
X017831D01*
Y008437D01*
X0179D01*
Y008471D01*
X017968D01*
Y008505D01*
X018037D01*
Y008539D01*
X018106D01*
Y008574D01*
X018174D01*
Y008539D01*
D02*
G37*
G36*
X012993Y008059D02*
X012787D01*
Y008093D01*
X012993D01*
Y008059D01*
D02*
G37*
G36*
X012787Y008025D02*
X012615D01*
Y008059D01*
X012787D01*
Y008025D01*
D02*
G37*
G36*
X012615Y00799D02*
X012409D01*
Y008025D01*
X012615D01*
Y00799D01*
D02*
G37*
G36*
X012409Y007956D02*
X012135D01*
Y00799D01*
X012409D01*
Y007956D01*
D02*
G37*
G36*
X012135Y007922D02*
X011895D01*
Y007887D01*
X01162D01*
Y007853D01*
X011311D01*
Y007887D01*
X011586D01*
Y007922D01*
X01186D01*
Y007956D01*
X012135D01*
Y007922D01*
D02*
G37*
G36*
X016081Y007887D02*
X016287D01*
Y007853D01*
X016356D01*
Y007887D01*
X01639D01*
Y007819D01*
X016459D01*
Y007785D01*
X016493D01*
Y007819D01*
X01663D01*
Y007853D01*
X016699D01*
Y007887D01*
X016733D01*
Y007819D01*
X016699D01*
Y007785D01*
X01663D01*
Y00775D01*
X016596D01*
Y007785D01*
X016527D01*
Y00775D01*
X016321D01*
Y007785D01*
X016287D01*
Y007819D01*
X016081D01*
Y007853D01*
X016012D01*
Y007887D01*
X015978D01*
Y007922D01*
X016081D01*
Y007887D01*
D02*
G37*
G36*
X010865Y00775D02*
X010831D01*
Y007682D01*
X010796D01*
Y007647D01*
X010762D01*
Y007613D01*
X010728D01*
Y007579D01*
X010693D01*
Y007647D01*
X010728D01*
Y007682D01*
X010762D01*
Y007716D01*
X010796D01*
Y007785D01*
X010831D01*
Y007819D01*
X010865D01*
Y00775D01*
D02*
G37*
G36*
X009767Y007956D02*
X009801D01*
Y007853D01*
X009836D01*
Y007785D01*
X00987D01*
Y00775D01*
X009904D01*
Y007716D01*
X009939D01*
Y007647D01*
X010007D01*
Y007613D01*
X010076D01*
Y007579D01*
X009939D01*
Y007613D01*
X009904D01*
Y007647D01*
X00987D01*
Y007716D01*
X009836D01*
Y00775D01*
X009801D01*
Y007819D01*
X009767D01*
Y007887D01*
X009733D01*
Y007956D01*
X009698D01*
Y008025D01*
X009767D01*
Y007956D01*
D02*
G37*
G36*
X00963Y007373D02*
X009595D01*
Y007338D01*
X009561D01*
Y007304D01*
X009527D01*
Y007373D01*
X009561D01*
Y007407D01*
X009595D01*
Y007441D01*
X00963D01*
Y007373D01*
D02*
G37*
G36*
X010968Y00727D02*
X010934D01*
Y007304D01*
X010968D01*
Y00727D01*
D02*
G37*
G36*
X010934Y007235D02*
X010899D01*
Y00727D01*
X010934D01*
Y007235D01*
D02*
G37*
G36*
X017213Y007167D02*
X017179D01*
Y007201D01*
X017213D01*
Y007167D01*
D02*
G37*
G36*
X009492Y00751D02*
X009458D01*
Y007441D01*
X009492D01*
Y007304D01*
X009527D01*
Y007235D01*
X009492D01*
Y007167D01*
X009458D01*
Y007201D01*
Y007235D01*
Y007338D01*
X009424D01*
Y007544D01*
X009458D01*
Y007613D01*
X009492D01*
Y00751D01*
D02*
G37*
G36*
X010213Y007407D02*
X010247D01*
Y007373D01*
X010282D01*
Y007338D01*
X010316D01*
Y00727D01*
X01035D01*
Y007098D01*
X010316D01*
Y007064D01*
X010453D01*
Y007167D01*
X010488D01*
Y007235D01*
X010522D01*
Y007304D01*
X010556D01*
Y007373D01*
X010591D01*
Y007407D01*
X010693D01*
Y007373D01*
X010762D01*
Y007338D01*
X010796D01*
Y00727D01*
X010831D01*
Y007235D01*
X010899D01*
Y007167D01*
X010865D01*
Y007098D01*
X010831D01*
Y007167D01*
X010796D01*
Y007235D01*
X010762D01*
Y007304D01*
X010728D01*
Y007338D01*
X010625D01*
Y007304D01*
X010591D01*
Y00727D01*
X010556D01*
Y007201D01*
X010522D01*
Y00703D01*
X010556D01*
Y006961D01*
X010591D01*
Y006927D01*
X010625D01*
Y006892D01*
X010659D01*
Y006858D01*
X010693D01*
Y006824D01*
X010762D01*
Y006789D01*
X010796D01*
Y006927D01*
X010831D01*
Y006961D01*
X010865D01*
Y006892D01*
X010831D01*
Y006755D01*
X010728D01*
Y006789D01*
X010693D01*
Y006824D01*
X010659D01*
Y006858D01*
X010625D01*
Y006892D01*
X010591D01*
Y006927D01*
X010556D01*
Y006961D01*
X010488D01*
Y006995D01*
X010419D01*
Y00703D01*
X010385D01*
Y006995D01*
X010282D01*
Y006961D01*
X010213D01*
Y006995D01*
X010247D01*
Y007064D01*
X010282D01*
Y007133D01*
X010316D01*
Y007167D01*
X010282D01*
Y007304D01*
X010247D01*
Y007338D01*
X010213D01*
Y007373D01*
X01011D01*
Y007338D01*
X010076D01*
Y007304D01*
X010041D01*
Y007373D01*
X010076D01*
Y007407D01*
X01011D01*
Y007441D01*
X010213D01*
Y007407D01*
D02*
G37*
G36*
X015017Y008883D02*
X014983D01*
Y008848D01*
X014949D01*
Y008814D01*
X014914D01*
Y00878D01*
X01488D01*
Y008745D01*
X014811D01*
Y008711D01*
X014777D01*
Y008677D01*
X014743D01*
Y008642D01*
X014674D01*
Y008608D01*
X01464D01*
Y008574D01*
X014811D01*
Y008539D01*
X01488D01*
Y008505D01*
X014983D01*
Y008471D01*
X015052D01*
Y008437D01*
X01512D01*
Y008402D01*
X015223D01*
Y008368D01*
X015292D01*
Y008334D01*
X015395D01*
Y008299D01*
X015429D01*
Y008265D01*
X015463D01*
Y008196D01*
X015498D01*
Y008128D01*
X015532D01*
Y00799D01*
X015566D01*
Y007853D01*
X015601D01*
Y007613D01*
X015635D01*
Y007544D01*
X015704D01*
Y00751D01*
X015772D01*
Y007476D01*
X015875D01*
Y007441D01*
X015944D01*
Y007407D01*
X016047D01*
Y007373D01*
X016081D01*
Y007407D01*
X016115D01*
Y007441D01*
X01615D01*
Y007373D01*
X016218D01*
Y007338D01*
X016287D01*
Y007304D01*
X016356D01*
Y00727D01*
X01639D01*
Y007235D01*
X016459D01*
Y007201D01*
X016493D01*
Y007167D01*
X016561D01*
Y007133D01*
X016596D01*
Y007304D01*
X016561D01*
Y007373D01*
X016527D01*
Y007407D01*
X016493D01*
Y007476D01*
X016459D01*
Y00751D01*
X016424D01*
Y007579D01*
X016287D01*
Y007544D01*
X016253D01*
Y00751D01*
X016218D01*
Y007476D01*
X016184D01*
Y007441D01*
X01615D01*
Y00751D01*
X016184D01*
Y007544D01*
X016218D01*
Y007579D01*
X016253D01*
Y007613D01*
X016321D01*
Y007647D01*
X016424D01*
Y007613D01*
X016459D01*
Y007544D01*
X016493D01*
Y00751D01*
X016527D01*
Y007441D01*
X016561D01*
Y007407D01*
X016596D01*
Y007373D01*
X01663D01*
Y007441D01*
X016664D01*
Y007476D01*
X016699D01*
Y007407D01*
X016664D01*
Y007304D01*
X016733D01*
Y00727D01*
X016836D01*
Y007235D01*
X016905D01*
Y007201D01*
X017008D01*
Y007167D01*
X017111D01*
Y007133D01*
X017145D01*
Y007098D01*
X017213D01*
Y007133D01*
X017248D01*
Y007064D01*
Y00703D01*
X017179D01*
Y007064D01*
X017145D01*
Y007098D01*
X017076D01*
Y007133D01*
X017008D01*
Y007167D01*
X016905D01*
Y007201D01*
X016802D01*
Y007235D01*
X016733D01*
Y00727D01*
X01663D01*
Y007098D01*
X016527D01*
Y007133D01*
X016493D01*
Y007167D01*
X016459D01*
Y007201D01*
X01639D01*
Y007235D01*
X016321D01*
Y00727D01*
X016287D01*
Y007304D01*
X016218D01*
Y007338D01*
X016047D01*
Y007373D01*
X015944D01*
Y007407D01*
X015807D01*
Y007441D01*
X015738D01*
Y007476D01*
X015669D01*
Y00751D01*
X015635D01*
Y007544D01*
X015566D01*
Y007819D01*
X015532D01*
Y007853D01*
X014914D01*
Y007887D01*
X014674D01*
Y007922D01*
X014503D01*
Y007956D01*
X014331D01*
Y00799D01*
X014159D01*
Y008025D01*
X013988D01*
Y008059D01*
X013851D01*
Y008093D01*
X013748D01*
Y008128D01*
X01361D01*
Y008162D01*
X013301D01*
Y008128D01*
X01313D01*
Y008093D01*
X012993D01*
Y008128D01*
X013096D01*
Y008162D01*
X012993D01*
Y008196D01*
X013199D01*
Y008231D01*
X013542D01*
Y008265D01*
X013713D01*
Y008299D01*
X013851D01*
Y008334D01*
X013988D01*
Y008368D01*
X014056D01*
Y008402D01*
X014159D01*
Y008437D01*
X014228D01*
Y008471D01*
X014331D01*
Y008505D01*
X0144D01*
Y008539D01*
X014468D01*
Y008574D01*
X014537D01*
Y008608D01*
X014605D01*
Y008642D01*
X01464D01*
Y008677D01*
X014708D01*
Y008711D01*
X014743D01*
Y008745D01*
X014777D01*
Y00878D01*
X014811D01*
Y008814D01*
X01488D01*
Y008848D01*
X014914D01*
Y008883D01*
X014949D01*
Y008917D01*
X014983D01*
Y008951D01*
X015017D01*
Y008883D01*
D02*
G37*
G36*
X009767Y00703D02*
X009698D01*
Y007064D01*
X009767D01*
Y00703D01*
D02*
G37*
G36*
X010865Y006995D02*
X010831D01*
Y007064D01*
X010865D01*
Y006995D01*
D02*
G37*
G36*
X009698D02*
X009664D01*
Y00703D01*
X009698D01*
Y006995D01*
D02*
G37*
G36*
X009664Y006961D02*
X009595D01*
Y006995D01*
X009664D01*
Y006961D01*
D02*
G37*
G36*
X010213Y006927D02*
X010179D01*
Y006961D01*
X010213D01*
Y006927D01*
D02*
G37*
G36*
X009595D02*
X009561D01*
Y006961D01*
X009595D01*
Y006927D01*
D02*
G37*
G36*
X010179Y006892D02*
X010144D01*
Y006927D01*
X010179D01*
Y006892D01*
D02*
G37*
G36*
X009561D02*
X009527D01*
Y006927D01*
X009561D01*
Y006892D01*
D02*
G37*
G36*
X009458D02*
X009527D01*
Y006858D01*
X009492D01*
Y006824D01*
X009424D01*
Y007133D01*
X009458D01*
Y006892D01*
D02*
G37*
G36*
X010144Y006824D02*
X01011D01*
Y006789D01*
X010076D01*
Y006824D01*
Y006858D01*
X01011D01*
Y006892D01*
X010144D01*
Y006824D01*
D02*
G37*
G36*
X009733Y007441D02*
X009767D01*
Y007373D01*
X009801D01*
Y007338D01*
X009836D01*
Y00727D01*
X00987D01*
Y007133D01*
Y007098D01*
X009836D01*
Y007064D01*
X009904D01*
Y007133D01*
X009939D01*
Y007201D01*
X009973D01*
Y00727D01*
X010007D01*
Y007304D01*
X010041D01*
Y007235D01*
X010007D01*
Y007167D01*
X009973D01*
Y007098D01*
X009939D01*
Y006927D01*
X009973D01*
Y006721D01*
X010007D01*
Y006755D01*
X010041D01*
Y006789D01*
X010076D01*
Y006721D01*
X010041D01*
Y006686D01*
X010007D01*
Y006618D01*
X009973D01*
Y006652D01*
X009939D01*
Y006892D01*
X009904D01*
Y006995D01*
X00987D01*
Y00703D01*
X009801D01*
Y007064D01*
X009767D01*
Y007098D01*
X009801D01*
Y007235D01*
X009767D01*
Y007338D01*
X009733D01*
Y007373D01*
X009698D01*
Y007407D01*
X009664D01*
Y007441D01*
X00963D01*
Y007476D01*
X009733D01*
Y007441D01*
D02*
G37*
%LPC*%
G36*
X013027Y017667D02*
X012958D01*
Y017633D01*
X012993D01*
Y017599D01*
X013027D01*
Y017565D01*
X013061D01*
Y017633D01*
X013027D01*
Y017667D01*
D02*
G37*
G36*
X013233D02*
X013096D01*
Y017599D01*
X01313D01*
Y01753D01*
X013164D01*
Y017496D01*
X013199D01*
Y017462D01*
X013233D01*
Y017427D01*
X013301D01*
Y017393D01*
X01337D01*
Y017462D01*
X013336D01*
Y017565D01*
X013301D01*
Y017633D01*
X013233D01*
Y017667D01*
D02*
G37*
G36*
X010488Y017256D02*
X010453D01*
Y017221D01*
X010488D01*
Y017256D01*
D02*
G37*
G36*
X010453Y017221D02*
X010419D01*
Y017187D01*
X010453D01*
Y017221D01*
D02*
G37*
G36*
X010419Y017187D02*
X010385D01*
Y017153D01*
X010419D01*
Y017187D01*
D02*
G37*
G36*
X010385Y017153D02*
X01035D01*
Y017118D01*
X010385D01*
Y017153D01*
D02*
G37*
G36*
X01035Y017118D02*
X010316D01*
Y017084D01*
X01035D01*
Y017118D01*
D02*
G37*
G36*
X010316Y017084D02*
X010282D01*
Y01705D01*
X010316D01*
Y017084D01*
D02*
G37*
G36*
X010282Y01705D02*
X010247D01*
Y017015D01*
X010282D01*
Y01705D01*
D02*
G37*
G36*
X010076Y01681D02*
X010041D01*
Y016775D01*
X010076D01*
Y01681D01*
D02*
G37*
G36*
X010041Y016775D02*
X010007D01*
Y016741D01*
X010041D01*
Y016775D01*
D02*
G37*
G36*
X010076Y016672D02*
X010041D01*
Y016604D01*
X010076D01*
Y016672D01*
D02*
G37*
G36*
X009904Y016569D02*
X00987D01*
Y016535D01*
X009904D01*
Y016569D01*
D02*
G37*
G36*
X009012Y016535D02*
X008909D01*
Y016501D01*
X009012D01*
Y016535D01*
D02*
G37*
G36*
X010041Y016604D02*
X010007D01*
Y016535D01*
X009973D01*
Y016501D01*
X010007D01*
Y016466D01*
X009973D01*
Y016501D01*
X009939D01*
Y016466D01*
X009973D01*
Y016158D01*
X010007D01*
Y015986D01*
X010041D01*
Y015952D01*
Y015917D01*
X010007D01*
Y015986D01*
X009973D01*
Y015917D01*
X010007D01*
Y01578D01*
X010041D01*
Y015677D01*
X010076D01*
Y015574D01*
X01011D01*
Y015471D01*
X010144D01*
Y015403D01*
X010179D01*
Y015265D01*
X010213D01*
Y015162D01*
X010247D01*
Y015025D01*
X010282D01*
Y014922D01*
X010316D01*
Y014819D01*
X01035D01*
Y014716D01*
X010385D01*
Y014613D01*
X010419D01*
Y014579D01*
X010453D01*
Y014545D01*
X010522D01*
Y01451D01*
X010591D01*
Y014476D01*
X010762D01*
Y014442D01*
X010865D01*
Y014407D01*
X011002D01*
Y014373D01*
X011105D01*
Y014339D01*
X011174D01*
Y014305D01*
X011243D01*
Y01427D01*
X011311D01*
Y014236D01*
X01138D01*
Y014202D01*
X011448D01*
Y014167D01*
X011517D01*
Y014133D01*
X011586D01*
Y014099D01*
X011654D01*
Y014064D01*
X011689D01*
Y01403D01*
X011723D01*
Y013996D01*
X011757D01*
Y013961D01*
X011826D01*
Y013927D01*
X01186D01*
Y013893D01*
X011929D01*
Y013858D01*
X011963D01*
Y013824D01*
X011997D01*
Y01379D01*
X012032D01*
Y013755D01*
X012066D01*
Y013721D01*
X0121D01*
Y013687D01*
X012135D01*
Y013653D01*
X012169D01*
Y013618D01*
X012203D01*
Y013584D01*
X012238D01*
Y01355D01*
X012272D01*
Y013515D01*
X012306D01*
Y01355D01*
X012272D01*
Y013584D01*
X012238D01*
Y013653D01*
X012203D01*
Y013687D01*
X012169D01*
Y013721D01*
X012135D01*
Y013755D01*
X0121D01*
Y01379D01*
X012032D01*
Y013824D01*
X011997D01*
Y013858D01*
X011963D01*
Y013893D01*
X011929D01*
Y013927D01*
X011963D01*
Y013893D01*
X011997D01*
Y013858D01*
X012032D01*
Y013824D01*
X0121D01*
Y01379D01*
X012169D01*
Y013755D01*
X012238D01*
Y013721D01*
X012306D01*
Y013687D01*
X012375D01*
Y013721D01*
X012341D01*
Y01379D01*
X012306D01*
Y013824D01*
X012272D01*
Y013858D01*
X012203D01*
Y013893D01*
X012169D01*
Y013927D01*
X012135D01*
Y013961D01*
X012066D01*
Y013996D01*
X012032D01*
Y01403D01*
X011963D01*
Y014064D01*
X011895D01*
Y014099D01*
X01186D01*
Y014133D01*
X011792D01*
Y014167D01*
X011723D01*
Y014202D01*
X011654D01*
Y014236D01*
X011586D01*
Y01427D01*
X011517D01*
Y014305D01*
X011483D01*
Y014339D01*
X011414D01*
Y014373D01*
X011345D01*
Y014407D01*
X011277D01*
Y014442D01*
X011208D01*
Y014476D01*
X01114D01*
Y01451D01*
X011071D01*
Y014545D01*
X011037D01*
Y014579D01*
X010968D01*
Y014613D01*
X010899D01*
Y014648D01*
X010796D01*
Y014682D01*
X010728D01*
Y014716D01*
X010693D01*
Y014751D01*
X010659D01*
Y014785D01*
X010591D01*
Y014888D01*
X010556D01*
Y014991D01*
X010522D01*
Y015094D01*
X010488D01*
Y015197D01*
X010453D01*
Y0153D01*
X010419D01*
Y015403D01*
X010385D01*
Y015471D01*
X01035D01*
Y015574D01*
X010316D01*
Y015643D01*
X010282D01*
Y015711D01*
X010247D01*
Y015814D01*
X010213D01*
Y015917D01*
X010179D01*
Y01602D01*
X010144D01*
Y016123D01*
X01011D01*
Y016226D01*
X010076D01*
Y016432D01*
X010041D01*
Y016604D01*
D02*
G37*
G36*
X008909Y016501D02*
X008772D01*
Y016466D01*
X008909D01*
Y016501D01*
D02*
G37*
G36*
X008772Y016466D02*
X008669D01*
Y016432D01*
X008772D01*
Y016466D01*
D02*
G37*
G36*
X008669Y016432D02*
X008566D01*
Y016398D01*
X008669D01*
Y016432D01*
D02*
G37*
G36*
X008566Y016398D02*
X008463D01*
Y016363D01*
X008566D01*
Y016398D01*
D02*
G37*
G36*
X009939Y016192D02*
X009904D01*
Y016123D01*
X009939D01*
Y016192D01*
D02*
G37*
G36*
X009973Y016089D02*
X009939D01*
Y01602D01*
X009973D01*
Y016055D01*
Y016089D01*
D02*
G37*
G36*
X009767Y015917D02*
X009733D01*
Y015746D01*
X009767D01*
Y015917D01*
D02*
G37*
G36*
X009733Y015746D02*
X009698D01*
Y015609D01*
X009733D01*
Y015746D01*
D02*
G37*
G36*
X009424Y016432D02*
X009389D01*
Y016398D01*
X009218D01*
Y016363D01*
X009012D01*
Y016329D01*
X008875D01*
Y016295D01*
X008737D01*
Y016261D01*
X008635D01*
Y016226D01*
X008532D01*
Y016192D01*
X008429D01*
Y016158D01*
X00836D01*
Y016123D01*
X008291D01*
Y016089D01*
X008223D01*
Y016055D01*
X008154D01*
Y01602D01*
X008085D01*
Y015986D01*
X008017D01*
Y015952D01*
X007983D01*
Y015917D01*
X007914D01*
Y015883D01*
X007845D01*
Y015849D01*
X007777D01*
Y015814D01*
X007742D01*
Y01578D01*
X007708D01*
Y015746D01*
X007777D01*
Y015677D01*
X007811D01*
Y015609D01*
X007777D01*
Y015574D01*
X007708D01*
Y01554D01*
X007674D01*
Y015574D01*
X007571D01*
Y015677D01*
X007536D01*
Y015643D01*
X007468D01*
Y015609D01*
X007433D01*
Y01554D01*
X007468D01*
Y015471D01*
X007433D01*
Y015437D01*
X007399D01*
Y015403D01*
X007331D01*
Y015368D01*
X007262D01*
Y015403D01*
X007193D01*
Y015368D01*
X007228D01*
Y015334D01*
X007296D01*
Y0153D01*
X007331D01*
Y015265D01*
X007365D01*
Y015231D01*
X007399D01*
Y015197D01*
X007365D01*
Y015162D01*
X007296D01*
Y015128D01*
X007125D01*
Y015162D01*
X00709D01*
Y015128D01*
X007056D01*
Y015094D01*
X007022D01*
Y015059D01*
X006987D01*
Y014991D01*
X006953D01*
Y014957D01*
X006919D01*
Y014922D01*
X006884D01*
Y014854D01*
X00685D01*
Y014785D01*
X006816D01*
Y014716D01*
X00685D01*
Y014751D01*
X006953D01*
Y014785D01*
X006987D01*
Y014819D01*
X007022D01*
Y014854D01*
X007056D01*
Y014888D01*
X00709D01*
Y014854D01*
X007125D01*
Y014819D01*
X007159D01*
Y014785D01*
X007193D01*
Y014751D01*
X007228D01*
Y014613D01*
X007056D01*
Y014579D01*
X007022D01*
Y014545D01*
X006987D01*
Y01451D01*
X006919D01*
Y014545D01*
X006816D01*
Y014613D01*
X006781D01*
Y014648D01*
X006747D01*
Y014579D01*
X006713D01*
Y014545D01*
X006747D01*
Y014476D01*
X00685D01*
Y014442D01*
X006919D01*
Y014407D01*
X006953D01*
Y014339D01*
X006919D01*
Y014305D01*
X00685D01*
Y01427D01*
X006816D01*
Y014236D01*
X006884D01*
Y014167D01*
X006919D01*
Y014133D01*
X00709D01*
Y014064D01*
X007056D01*
Y01403D01*
X007022D01*
Y013996D01*
X006987D01*
Y013961D01*
X006953D01*
Y013927D01*
X006816D01*
Y013893D01*
X006781D01*
Y013858D01*
X006713D01*
Y01379D01*
X006781D01*
Y013824D01*
X006816D01*
Y013858D01*
X006884D01*
Y013824D01*
X006919D01*
Y013858D01*
X006953D01*
Y013893D01*
X006987D01*
Y013927D01*
X007056D01*
Y013961D01*
X00709D01*
Y013996D01*
X007125D01*
Y01403D01*
X007193D01*
Y014064D01*
X007262D01*
Y014099D01*
X007331D01*
Y014133D01*
X007399D01*
Y014167D01*
X007536D01*
Y014202D01*
X007674D01*
Y014236D01*
X007811D01*
Y01427D01*
X008188D01*
Y014236D01*
X008291D01*
Y014202D01*
X008326D01*
Y014167D01*
X00836D01*
Y014133D01*
X008429D01*
Y014099D01*
X008463D01*
Y014064D01*
X008497D01*
Y01403D01*
X008532D01*
Y013996D01*
X008566D01*
Y013961D01*
X0086D01*
Y013927D01*
X008635D01*
Y013893D01*
X008669D01*
Y013858D01*
X008703D01*
Y01379D01*
X008737D01*
Y013755D01*
X008772D01*
Y013721D01*
X008806D01*
Y013653D01*
X00884D01*
Y013618D01*
X008875D01*
Y013584D01*
X008909D01*
Y013618D01*
X008875D01*
Y013687D01*
X008978D01*
Y013653D01*
X009012D01*
Y013584D01*
X009046D01*
Y013653D01*
X009081D01*
Y013618D01*
X009252D01*
Y013481D01*
X009287D01*
Y013618D01*
X009321D01*
Y013755D01*
X009355D01*
Y013927D01*
X009321D01*
Y013858D01*
X009287D01*
Y013961D01*
X009321D01*
Y01403D01*
X009355D01*
Y013927D01*
X009389D01*
Y014064D01*
X009424D01*
Y014202D01*
X009458D01*
Y014339D01*
X009492D01*
Y014476D01*
X009527D01*
Y014613D01*
X009561D01*
Y014716D01*
X009527D01*
Y014751D01*
X009492D01*
Y014682D01*
X009458D01*
Y014613D01*
X009424D01*
Y01451D01*
X009389D01*
Y014373D01*
X009355D01*
Y014236D01*
X009321D01*
Y014099D01*
X009287D01*
Y01403D01*
X009252D01*
Y014407D01*
X009218D01*
Y014579D01*
X009252D01*
Y014854D01*
X009287D01*
Y014922D01*
X009252D01*
Y014888D01*
X009218D01*
Y015094D01*
X009252D01*
Y015368D01*
X009287D01*
Y01554D01*
X009321D01*
Y01578D01*
X009355D01*
Y015986D01*
X009389D01*
Y016158D01*
X009424D01*
Y016363D01*
X009458D01*
Y016398D01*
X009424D01*
Y016432D01*
D02*
G37*
G36*
X009973Y015506D02*
X00987D01*
Y015471D01*
X009939D01*
Y015437D01*
X009973D01*
Y015471D01*
Y015506D01*
D02*
G37*
G36*
X007193Y0153D02*
X007159D01*
Y015265D01*
X007193D01*
Y0153D01*
D02*
G37*
G36*
X009698Y015506D02*
X009664D01*
Y015368D01*
X00963D01*
Y015231D01*
X009767D01*
Y015265D01*
X009836D01*
Y015334D01*
X009801D01*
Y015368D01*
X009767D01*
Y015403D01*
X009698D01*
Y015506D01*
D02*
G37*
G36*
X009904Y015231D02*
X00987D01*
Y015197D01*
X009904D01*
Y015231D01*
D02*
G37*
G36*
X009801Y015094D02*
X009767D01*
Y015025D01*
X009801D01*
Y015094D01*
D02*
G37*
G36*
X009939D02*
X009904D01*
Y014991D01*
X010007D01*
Y015059D01*
X009939D01*
Y015094D01*
D02*
G37*
G36*
X00963Y015231D02*
X009595D01*
Y015094D01*
X009561D01*
Y015025D01*
X00963D01*
Y014957D01*
X009664D01*
Y015094D01*
X009698D01*
Y015128D01*
X009733D01*
Y015162D01*
X009664D01*
Y015128D01*
X00963D01*
Y015231D01*
D02*
G37*
G36*
X009595Y014991D02*
X009561D01*
Y014888D01*
X009527D01*
Y014785D01*
X009595D01*
Y014854D01*
X00963D01*
Y014957D01*
X009595D01*
Y014991D01*
D02*
G37*
G36*
X009767Y015025D02*
X009733D01*
Y014922D01*
X009698D01*
Y014785D01*
X009733D01*
Y014751D01*
X009801D01*
Y014785D01*
X009767D01*
Y014854D01*
Y014888D01*
Y015025D01*
D02*
G37*
G36*
X009939Y014785D02*
X00987D01*
Y014716D01*
X009973D01*
Y014751D01*
X009939D01*
Y014785D01*
D02*
G37*
G36*
X006816Y014716D02*
X006781D01*
Y014682D01*
X006816D01*
Y014716D01*
D02*
G37*
G36*
X010179Y014819D02*
X010144D01*
Y014785D01*
Y014751D01*
X01011D01*
Y014648D01*
X010144D01*
Y014682D01*
X010179D01*
Y014716D01*
X010213D01*
Y014751D01*
X010179D01*
Y014819D01*
D02*
G37*
G36*
X009767Y01451D02*
X009733D01*
Y014476D01*
X009767D01*
Y01451D01*
D02*
G37*
G36*
X010076Y014476D02*
X010041D01*
Y014442D01*
Y014407D01*
X01011D01*
Y014442D01*
X010076D01*
Y014476D01*
D02*
G37*
G36*
X006713D02*
X006644D01*
Y014407D01*
X006713D01*
Y014442D01*
Y014476D01*
D02*
G37*
G36*
X010488Y014373D02*
X010453D01*
Y014339D01*
X010488D01*
Y014373D01*
D02*
G37*
G36*
X010556Y01427D02*
X010522D01*
Y014202D01*
X010591D01*
Y014236D01*
X010556D01*
Y01427D01*
D02*
G37*
G36*
X006679Y014202D02*
X006644D01*
Y014167D01*
X00661D01*
Y014133D01*
X006576D01*
Y014099D01*
Y014064D01*
X00661D01*
Y014099D01*
X006679D01*
Y014202D01*
D02*
G37*
G36*
X01011Y014099D02*
X010076D01*
Y014064D01*
X01011D01*
Y01403D01*
X010144D01*
Y014064D01*
X01011D01*
Y014099D01*
D02*
G37*
G36*
X012649Y01379D02*
X012478D01*
Y013755D01*
X012444D01*
Y01379D01*
X012409D01*
Y013755D01*
X012444D01*
Y013721D01*
X012649D01*
Y013653D01*
X012684D01*
Y013584D01*
X012718D01*
Y01355D01*
X012752D01*
Y013481D01*
X012787Y013447D01*
X012615D01*
Y013412D01*
X012821D01*
Y013481D01*
X012787D01*
Y01355D01*
X012752D01*
Y013618D01*
X012718D01*
Y013687D01*
X012684D01*
Y013755D01*
X012649D01*
Y01379D01*
D02*
G37*
G36*
X009664Y013996D02*
X00963D01*
Y013927D01*
X009595D01*
Y013755D01*
X00963D01*
Y013893D01*
X009664D01*
Y013996D01*
D02*
G37*
G36*
X012581Y013481D02*
X012375D01*
Y013447D01*
X012581D01*
Y013481D01*
D02*
G37*
G36*
X012341D02*
X012306D01*
Y013447D01*
Y013412D01*
X012341D01*
Y013481D01*
D02*
G37*
G36*
X008943Y01355D02*
X008909D01*
Y013515D01*
X008943D01*
Y013447D01*
X008978D01*
Y013412D01*
X009012D01*
Y013344D01*
X009046D01*
Y013309D01*
X009081D01*
Y013241D01*
X009115D01*
Y013172D01*
X009149D01*
Y013241D01*
X009115D01*
Y013309D01*
X009081D01*
Y013378D01*
X009046D01*
Y013412D01*
X009012D01*
Y013447D01*
X008978D01*
Y013515D01*
X008943D01*
Y01355D01*
D02*
G37*
G36*
X009321Y013035D02*
X009287D01*
Y013001D01*
X009321D01*
Y012966D01*
X009355D01*
Y013001D01*
X009321Y013035D01*
D02*
G37*
G36*
Y012898D02*
X009287D01*
Y012829D01*
X009321D01*
Y012863D01*
Y012898D01*
D02*
G37*
G36*
X009355Y012795D02*
X009321D01*
Y01276D01*
X009355D01*
Y012795D01*
D02*
G37*
G36*
X009458Y012692D02*
X009424D01*
Y012657D01*
X009458D01*
Y012692D01*
D02*
G37*
G36*
X009389Y012726D02*
X009355D01*
Y012623D01*
X009389D01*
Y01252D01*
X009458D01*
Y012589D01*
X009424D01*
Y012657D01*
X009389D01*
Y012726D01*
D02*
G37*
%LPD*%
G36*
X010076Y01578D02*
X01011D01*
Y015677D01*
X010144D01*
Y015574D01*
X01011D01*
Y015643D01*
Y015677D01*
X010076D01*
Y01578D01*
X010041D01*
Y015849D01*
Y015883D01*
X010076D01*
Y01578D01*
D02*
G37*
G36*
X010179Y015506D02*
X010144D01*
Y01554D01*
X010179D01*
Y015506D01*
D02*
G37*
G36*
X010213Y015403D02*
X010179D01*
Y015437D01*
X010213D01*
Y015403D01*
D02*
G37*
G36*
X010316Y015025D02*
X010282D01*
Y015059D01*
Y015094D01*
X010316D01*
Y015025D01*
D02*
G37*
G36*
X01035Y014957D02*
Y014922D01*
X010316D01*
Y014991D01*
X01035D01*
Y014957D01*
D02*
G37*
G36*
X010385Y014819D02*
X01035D01*
Y014854D01*
Y014888D01*
X010385D01*
Y014819D01*
D02*
G37*
G36*
X010419Y014751D02*
Y014716D01*
X010453D01*
Y014648D01*
X010488D01*
Y014613D01*
X010556D01*
Y014579D01*
X010625D01*
Y014545D01*
X010693D01*
Y01451D01*
X010591D01*
Y014545D01*
X010522D01*
Y014579D01*
X010488D01*
Y014613D01*
X010453D01*
Y014648D01*
X010419D01*
Y014716D01*
X010385D01*
Y014785D01*
X010419D01*
Y014751D01*
D02*
G37*
G36*
X008703Y013893D02*
X008737D01*
Y013858D01*
X008772D01*
Y013824D01*
X008737D01*
Y013858D01*
X008703D01*
Y013893D01*
X008669D01*
Y013927D01*
X008703D01*
Y013893D01*
D02*
G37*
%LPC*%
G36*
X012066Y017565D02*
X011929D01*
Y017462D01*
Y017427D01*
Y017393D01*
X011963D01*
Y017324D01*
X011997D01*
Y017359D01*
X012032D01*
Y017393D01*
X012066D01*
Y017462D01*
X0121D01*
Y01753D01*
X012066D01*
Y017565D01*
D02*
G37*
G36*
X011277Y017393D02*
X011243D01*
Y017324D01*
X011277D01*
Y017393D01*
D02*
G37*
G36*
X013953Y016363D02*
X013885D01*
Y016329D01*
X013919D01*
Y016192D01*
X013988D01*
Y016295D01*
X013953D01*
Y016363D01*
D02*
G37*
G36*
X01862Y01554D02*
X018586D01*
Y015506D01*
X01862D01*
Y015471D01*
X018655D01*
Y015437D01*
X018689D01*
Y015403D01*
X018723D01*
Y015334D01*
X018758D01*
Y0153D01*
X018826D01*
Y015334D01*
X018792D01*
Y015368D01*
X018758D01*
Y015403D01*
X018723D01*
Y015437D01*
X018689D01*
Y015471D01*
X018655D01*
Y015506D01*
X01862D01*
Y01554D01*
D02*
G37*
G36*
X018895Y015231D02*
X018861D01*
Y015197D01*
X018895D01*
Y015162D01*
X018929D01*
Y015094D01*
X018998D01*
Y015025D01*
X019067D01*
Y014991D01*
X019101D01*
Y014922D01*
X019169D01*
Y014888D01*
X019204D01*
Y014854D01*
X019238D01*
Y014819D01*
X019272D01*
Y014785D01*
X019169D01*
Y014819D01*
X019135D01*
Y014785D01*
X019101D01*
Y014716D01*
X019032D01*
Y014682D01*
X018998D01*
Y014716D01*
X018929D01*
Y014751D01*
X018895D01*
Y014819D01*
X018861D01*
Y014922D01*
X018895D01*
Y015059D01*
X018861D01*
Y015025D01*
X018792D01*
Y014957D01*
X018826D01*
Y014922D01*
X018792D01*
Y014888D01*
X018758D01*
Y014854D01*
X018723D01*
Y014819D01*
X018655D01*
Y014854D01*
X01862D01*
Y014888D01*
X018586D01*
Y014922D01*
X018552D01*
Y014957D01*
X018517D01*
Y014991D01*
X018552D01*
Y015025D01*
X01862D01*
Y015059D01*
X018586D01*
Y015197D01*
X018552D01*
Y015231D01*
X018517D01*
Y015059D01*
X018483D01*
Y014888D01*
Y014854D01*
X018415D01*
Y014922D01*
X01838D01*
Y014682D01*
X018415D01*
Y014476D01*
X018449D01*
Y014236D01*
X018483D01*
Y01403D01*
X018517D01*
Y013858D01*
X018552D01*
Y013687D01*
X018586D01*
Y013515D01*
X01862D01*
Y013447D01*
X018689D01*
Y013412D01*
X018758D01*
Y013378D01*
X018826D01*
Y013344D01*
X018861D01*
Y013309D01*
X018929D01*
Y013275D01*
X018998D01*
Y013241D01*
X019067D01*
Y013206D01*
X019135D01*
Y013172D01*
X019204D01*
Y013138D01*
X019238D01*
Y013103D01*
X019307D01*
Y013069D01*
X019341D01*
Y013103D01*
X019375D01*
Y013138D01*
X01941D01*
Y013103D01*
X019478D01*
Y013172D01*
X019513D01*
Y013206D01*
X019581D01*
Y013275D01*
X019616D01*
Y013344D01*
X019787D01*
Y013309D01*
X019821D01*
Y013275D01*
X019856D01*
Y013309D01*
X019924D01*
Y013344D01*
X01989D01*
Y013378D01*
X019856D01*
Y013447D01*
X019821D01*
Y013515D01*
X019856D01*
Y01355D01*
X01989D01*
Y013584D01*
X020062D01*
Y01379D01*
X019924D01*
Y013824D01*
X019787D01*
Y013927D01*
X019821D01*
Y01403D01*
X019856D01*
Y014064D01*
X01989D01*
Y014133D01*
X019924D01*
Y014167D01*
X01989D01*
Y014236D01*
X019856D01*
Y01427D01*
X019821D01*
Y014305D01*
X019753D01*
Y014339D01*
X019719D01*
Y014305D01*
X019684D01*
Y014373D01*
X01965D01*
Y014442D01*
X019616D01*
Y014476D01*
X019581D01*
Y014545D01*
X019547D01*
Y014579D01*
X019513D01*
Y014648D01*
X019478D01*
Y014682D01*
X019444D01*
Y014716D01*
X01941D01*
Y014751D01*
X019375D01*
Y014785D01*
X019341D01*
Y014819D01*
X019307D01*
Y014854D01*
X019272D01*
Y014888D01*
X019204D01*
Y014922D01*
X019169D01*
Y014957D01*
X019135D01*
Y014991D01*
X019101D01*
Y015025D01*
X019067D01*
Y015059D01*
X019032D01*
Y015094D01*
X018998D01*
Y015128D01*
X018964D01*
Y015162D01*
X018929D01*
Y015197D01*
X018895D01*
Y015231D01*
D02*
G37*
G36*
X017934Y016398D02*
X0179D01*
Y016363D01*
X017934D01*
Y016329D01*
X017968D01*
Y016261D01*
X018037D01*
Y016226D01*
X018071D01*
Y016192D01*
X018106D01*
Y016158D01*
X01814D01*
Y016123D01*
X018174D01*
Y016089D01*
X018243D01*
Y016055D01*
X018312D01*
Y01602D01*
X018346D01*
Y015986D01*
X01838D01*
Y015952D01*
X018415D01*
Y015917D01*
X018449D01*
Y015883D01*
X018483D01*
Y015849D01*
X018517D01*
Y015814D01*
X018586D01*
Y01578D01*
X018689D01*
Y015746D01*
X018758D01*
Y015711D01*
X018792D01*
Y015746D01*
X018826D01*
Y015677D01*
X018861D01*
Y015609D01*
X018895D01*
Y015574D01*
X018929D01*
Y015506D01*
X018964D01*
Y015437D01*
X018998D01*
Y015403D01*
X019032D01*
Y015368D01*
X019067D01*
Y015334D01*
X019101D01*
Y0153D01*
X019135D01*
Y015231D01*
X019169D01*
Y015197D01*
X019204D01*
Y015162D01*
X019238D01*
Y015128D01*
X019272D01*
Y015094D01*
X019307D01*
Y015059D01*
X019341D01*
Y015025D01*
X019375D01*
Y014991D01*
X01941D01*
Y014957D01*
X019444D01*
Y014922D01*
X019478D01*
Y014888D01*
X019513D01*
Y014854D01*
X019547D01*
Y014819D01*
X019581D01*
Y014785D01*
X019616D01*
Y014751D01*
X01965D01*
Y014716D01*
X019684D01*
Y014682D01*
X019719D01*
Y014648D01*
X019753D01*
Y014613D01*
X019787D01*
Y014579D01*
X019821D01*
Y014545D01*
X01989D01*
Y01451D01*
X019924D01*
Y014476D01*
X019959D01*
Y014442D01*
X019924D01*
Y014476D01*
X01989D01*
Y01451D01*
X019821D01*
Y014545D01*
X019787D01*
Y014579D01*
X019753D01*
Y014613D01*
X019719D01*
Y014648D01*
X019684D01*
Y014682D01*
X01965D01*
Y014716D01*
X019581D01*
Y014751D01*
X019547D01*
Y014785D01*
X019513D01*
Y014819D01*
X019444D01*
Y014854D01*
X01941D01*
Y014922D01*
X019341D01*
Y014957D01*
X019307D01*
Y014991D01*
X019272D01*
Y015025D01*
X019238D01*
Y015059D01*
X019204D01*
Y015094D01*
X019135D01*
Y015128D01*
X019101D01*
Y015162D01*
X019067D01*
Y015197D01*
X019032D01*
Y015231D01*
X018998D01*
Y015265D01*
X018964D01*
Y015334D01*
X018929D01*
Y015368D01*
X018895D01*
Y015403D01*
X018861D01*
Y015437D01*
X018826D01*
Y015471D01*
X018792D01*
Y015506D01*
X018758D01*
Y01554D01*
X018723D01*
Y015574D01*
X018689D01*
Y015643D01*
X018655D01*
Y015677D01*
X01862D01*
Y015711D01*
X018586D01*
Y015746D01*
X018552D01*
Y01578D01*
X018517D01*
Y015814D01*
X018449D01*
Y015849D01*
X018415D01*
Y015883D01*
X01838D01*
Y015917D01*
X018346D01*
Y015952D01*
X018277D01*
Y015986D01*
X018243D01*
Y01602D01*
X018174D01*
Y016055D01*
X018106D01*
Y016089D01*
X018037D01*
Y016123D01*
X017831D01*
Y016089D01*
X017763D01*
Y016055D01*
X017694D01*
Y01602D01*
X01766D01*
Y015986D01*
X017625D01*
Y015952D01*
X017591D01*
Y015917D01*
X017557D01*
Y015849D01*
X017591D01*
Y015883D01*
X017625D01*
Y015917D01*
X01766D01*
Y015952D01*
X017694D01*
Y015986D01*
X017728D01*
Y01602D01*
X017797D01*
Y016055D01*
X017865D01*
Y016089D01*
X018003D01*
Y016055D01*
X018071D01*
Y01602D01*
X01814D01*
Y015986D01*
X018209D01*
Y015952D01*
X018277D01*
Y015917D01*
X018312D01*
Y015883D01*
X018346D01*
Y015849D01*
X018415D01*
Y015814D01*
X018449D01*
Y01578D01*
X018483D01*
Y015746D01*
X018517D01*
Y015711D01*
X018552D01*
Y015677D01*
X018586D01*
Y015643D01*
X01862D01*
Y015609D01*
X018655D01*
Y015574D01*
X018689D01*
Y01554D01*
X018723D01*
Y015506D01*
X018758D01*
Y015471D01*
X018792D01*
Y015437D01*
X018826D01*
Y015403D01*
X018861D01*
Y015368D01*
X018895D01*
Y0153D01*
X018929D01*
Y015265D01*
X018964D01*
Y015231D01*
X018998D01*
Y015197D01*
X019032D01*
Y015162D01*
X019067D01*
Y015128D01*
X019101D01*
Y015094D01*
X019135D01*
Y015059D01*
X019169D01*
Y015025D01*
X019238D01*
Y014991D01*
X019272D01*
Y014957D01*
X019307D01*
Y014922D01*
X019341D01*
Y014888D01*
X019375D01*
Y014854D01*
X01941D01*
Y014819D01*
X019444D01*
Y014785D01*
X019478D01*
Y014751D01*
X019547D01*
Y014716D01*
X019581D01*
Y014682D01*
X019616D01*
Y014648D01*
X01965D01*
Y014613D01*
X019684D01*
Y014579D01*
X019753D01*
Y014545D01*
X019787D01*
Y01451D01*
X019821D01*
Y014476D01*
X01989D01*
Y014442D01*
X019924D01*
Y014407D01*
X019993D01*
Y014373D01*
X020027D01*
Y014339D01*
X020062D01*
Y014305D01*
X020096D01*
Y014236D01*
X02013D01*
Y014133D01*
X020165D01*
Y01403D01*
X020199D01*
Y013927D01*
X020233D01*
Y013824D01*
X020268D01*
Y013687D01*
X020302D01*
Y01355D01*
X020336D01*
Y013447D01*
X020371D01*
Y013309D01*
X020405D01*
Y013138D01*
X020439D01*
Y012966D01*
X020473D01*
Y011868D01*
X020439D01*
Y011559D01*
X020405D01*
Y011353D01*
X020371D01*
Y011182D01*
X020336D01*
Y010976D01*
X020302D01*
Y010839D01*
X020336D01*
Y010942D01*
X020371D01*
Y01101D01*
X020405D01*
Y011079D01*
X020439D01*
Y011147D01*
X020473D01*
Y01125D01*
X020508D01*
Y011319D01*
X020542D01*
Y011422D01*
X020508D01*
Y011456D01*
Y011628D01*
X020542D01*
Y011422D01*
X020576D01*
Y012314D01*
X020542D01*
Y011799D01*
X020508D01*
Y012417D01*
X020542D01*
Y012898D01*
X020508D01*
Y013103D01*
X020473D01*
Y013275D01*
X020439D01*
Y013412D01*
X020405D01*
Y013584D01*
X020371D01*
Y013721D01*
X020336D01*
Y013858D01*
X020302D01*
Y013996D01*
X020268D01*
Y014099D01*
X020233D01*
Y014202D01*
X020199D01*
Y014305D01*
X020165D01*
Y014407D01*
X02013D01*
Y01451D01*
X020096D01*
Y014579D01*
X020062D01*
Y014613D01*
X019993D01*
Y014648D01*
X019924D01*
Y014682D01*
X019856D01*
Y014716D01*
X019787D01*
Y014751D01*
X019719D01*
Y014785D01*
X019684D01*
Y014819D01*
X019616D01*
Y014854D01*
X019581D01*
Y014888D01*
X019547D01*
Y014922D01*
X019478D01*
Y014957D01*
X019444D01*
Y014991D01*
X01941D01*
Y015025D01*
X019375D01*
Y015059D01*
X019341D01*
Y015094D01*
X019307D01*
Y015128D01*
X019272D01*
Y015162D01*
X019238D01*
Y015231D01*
X019204D01*
Y015265D01*
X019169D01*
Y0153D01*
X019135D01*
Y015334D01*
X019101D01*
Y015368D01*
X019067D01*
Y015403D01*
X019032D01*
Y015471D01*
X018998D01*
Y015506D01*
X018964D01*
Y015574D01*
X018929D01*
Y015643D01*
X018895D01*
Y015677D01*
X018861D01*
Y01578D01*
X018826D01*
Y015814D01*
X018792D01*
Y015849D01*
X018758D01*
Y015883D01*
X018689D01*
Y015917D01*
X018586D01*
Y015952D01*
X018517D01*
Y015986D01*
X018449D01*
Y01602D01*
X01838D01*
Y016055D01*
X018346D01*
Y016089D01*
X018277D01*
Y016123D01*
X018209D01*
Y016158D01*
X018174D01*
Y016192D01*
X01814D01*
Y016226D01*
X018071D01*
Y016261D01*
X018037D01*
Y016295D01*
X018003D01*
Y016329D01*
X017968D01*
Y016363D01*
X017934D01*
Y016398D01*
D02*
G37*
G36*
X017385Y014613D02*
X017316D01*
Y014545D01*
X017282D01*
Y014442D01*
X017248D01*
Y014339D01*
X017316D01*
Y014373D01*
X017351D01*
Y014339D01*
X017419D01*
Y014305D01*
X017488D01*
Y014236D01*
X017454D01*
Y014202D01*
X017419D01*
Y014167D01*
X017385D01*
Y014133D01*
X017316D01*
Y014099D01*
X017248D01*
Y014133D01*
X017213D01*
Y01427D01*
X017179D01*
Y014202D01*
X017145D01*
Y014064D01*
X017111D01*
Y013961D01*
X017076D01*
Y013858D01*
X017042D01*
Y013755D01*
X017179D01*
Y01379D01*
X017213D01*
Y013824D01*
X017316D01*
Y013755D01*
X017351D01*
Y013618D01*
X017522D01*
Y013584D01*
X017557D01*
Y013447D01*
X017522D01*
Y013412D01*
X017488D01*
Y013378D01*
X017419D01*
Y013412D01*
X017385D01*
Y013447D01*
X017351D01*
Y013481D01*
X017316D01*
Y013584D01*
X017351D01*
Y013618D01*
X017316D01*
Y013653D01*
X017179D01*
Y013618D01*
X017145D01*
Y013584D01*
X017111D01*
Y01355D01*
X017076D01*
Y013515D01*
X017042D01*
Y013481D01*
X017145D01*
Y013447D01*
X017111D01*
Y013275D01*
X017145D01*
Y013206D01*
X017213D01*
Y013241D01*
X017316D01*
Y013206D01*
X017351D01*
Y013035D01*
X017282D01*
Y013001D01*
X017213D01*
Y013035D01*
X017179D01*
Y013069D01*
X017145D01*
Y013103D01*
X017008D01*
Y013138D01*
X016973D01*
Y013206D01*
X016939D01*
Y013172D01*
Y013069D01*
X016973D01*
Y013103D01*
X017008D01*
Y013069D01*
X017042D01*
Y013001D01*
X017008D01*
Y012966D01*
X017042D01*
Y012932D01*
X017111D01*
Y012898D01*
X017145D01*
Y012863D01*
X017179D01*
Y012829D01*
X017145D01*
Y012795D01*
X017111D01*
Y01276D01*
X017145D01*
Y012726D01*
X017179D01*
Y012692D01*
X017213D01*
Y012623D01*
X017248D01*
Y012589D01*
X017282D01*
Y012554D01*
X017316D01*
Y01252D01*
X017351D01*
Y012486D01*
X017385D01*
Y012417D01*
X017419D01*
Y012349D01*
X017454D01*
Y012486D01*
X017488D01*
Y012623D01*
X017522D01*
Y012898D01*
X017557D01*
Y013103D01*
X017488D01*
Y013138D01*
X017454D01*
Y013172D01*
X017557D01*
Y013241D01*
X017591D01*
Y013515D01*
X017625D01*
Y013824D01*
X01766D01*
Y014064D01*
X017591D01*
Y01427D01*
X017625D01*
Y014579D01*
X017591D01*
Y014476D01*
X017557D01*
Y014442D01*
X017522D01*
Y014407D01*
X017488D01*
Y014476D01*
X017454D01*
Y01451D01*
X017385D01*
Y014613D01*
D02*
G37*
G36*
X020027Y014064D02*
X019993D01*
Y01403D01*
X020027D01*
Y014064D01*
D02*
G37*
G36*
X016596Y014133D02*
X016527D01*
Y014099D01*
X016459D01*
Y014064D01*
X016356D01*
Y01403D01*
X016253D01*
Y013996D01*
X016184D01*
Y013961D01*
X016115D01*
Y013927D01*
X016218D01*
Y013961D01*
X016321D01*
Y013996D01*
X01639D01*
Y01403D01*
X016527D01*
Y014064D01*
X016596D01*
Y014133D01*
D02*
G37*
G36*
X016115Y013927D02*
X016047D01*
Y013893D01*
X016115D01*
Y013927D01*
D02*
G37*
G36*
X016047Y013893D02*
X015944D01*
Y013858D01*
X015841D01*
Y013824D01*
X015978D01*
Y013858D01*
X016047D01*
Y013893D01*
D02*
G37*
G36*
X015841Y013824D02*
X015738D01*
Y01379D01*
X015841D01*
Y013824D01*
D02*
G37*
G36*
X015738Y01379D02*
X015601D01*
Y013755D01*
X015532D01*
Y013721D01*
X015635D01*
Y013755D01*
X015738D01*
Y01379D01*
D02*
G37*
G36*
X015532Y013721D02*
X015463D01*
Y013687D01*
X015532D01*
Y013721D01*
D02*
G37*
G36*
X015463Y013687D02*
X015395D01*
Y013653D01*
X01536D01*
Y013618D01*
X015429D01*
Y013653D01*
X015463D01*
Y013687D01*
D02*
G37*
G36*
X014743Y013584D02*
X014708D01*
Y013515D01*
X014743D01*
Y013584D01*
D02*
G37*
G36*
X01536Y013618D02*
X015292D01*
Y013584D01*
X015257D01*
Y01355D01*
X015223D01*
Y013515D01*
X015189D01*
Y013481D01*
X015257D01*
Y013515D01*
X015292D01*
Y01355D01*
X015326D01*
Y013584D01*
X01536D01*
Y013618D01*
D02*
G37*
G36*
X015052Y013515D02*
X015017D01*
Y013481D01*
X015052D01*
Y013515D01*
D02*
G37*
G36*
X014708D02*
X014674D01*
Y013447D01*
X014708D01*
Y013515D01*
D02*
G37*
G36*
X014983Y013412D02*
X014949D01*
Y013378D01*
X014983D01*
Y013412D01*
D02*
G37*
G36*
X015189Y013481D02*
X015155D01*
Y013447D01*
X01512D01*
Y013412D01*
X015086D01*
Y013378D01*
X015052D01*
Y013344D01*
X01512D01*
Y013378D01*
X015155D01*
Y013412D01*
X015189D01*
Y013481D01*
D02*
G37*
G36*
X015052Y013344D02*
X015017D01*
Y013309D01*
X015052D01*
Y013344D01*
D02*
G37*
G36*
X014674Y013447D02*
X01464D01*
Y013378D01*
X014674D01*
Y013344D01*
X014743D01*
Y013309D01*
X01488D01*
Y013275D01*
X014983D01*
Y013241D01*
X015052D01*
Y013275D01*
X015017D01*
Y013309D01*
X014914D01*
Y013344D01*
X014777D01*
Y013378D01*
X014674D01*
Y013447D01*
D02*
G37*
G36*
X019547Y013035D02*
X019478D01*
Y013001D01*
X019444D01*
Y012966D01*
X019478D01*
Y012932D01*
X019513D01*
Y012898D01*
X019547D01*
Y013035D01*
D02*
G37*
G36*
X020302Y010839D02*
X020268D01*
Y010804D01*
X020302D01*
Y010839D01*
D02*
G37*
%LPD*%
G36*
X020062Y014476D02*
X020096D01*
Y014407D01*
X02013D01*
Y014305D01*
X020165D01*
Y014236D01*
X02013D01*
Y01427D01*
Y014305D01*
X020096D01*
Y014339D01*
X020062D01*
Y014373D01*
X020027D01*
Y014407D01*
X019993D01*
Y014442D01*
X020027D01*
Y014545D01*
X020062D01*
Y014476D01*
D02*
G37*
G36*
X020199Y014167D02*
X020165D01*
Y014202D01*
X020199D01*
Y014167D01*
D02*
G37*
G36*
X020268Y013961D02*
X020233D01*
Y013996D01*
X020268D01*
Y013961D01*
D02*
G37*
G36*
X020508Y011353D02*
X020473D01*
Y011388D01*
X020508D01*
Y011353D01*
D02*
G37*
G36*
X020473Y011285D02*
X020439D01*
Y011319D01*
X020473D01*
Y011285D01*
D02*
G37*
%LPC*%
G36*
X015498Y010942D02*
X015463D01*
Y010907D01*
X015498D01*
Y010942D01*
D02*
G37*
G36*
X018826Y009363D02*
X018792D01*
Y009329D01*
X018826D01*
Y009363D01*
D02*
G37*
G36*
X018689Y009191D02*
X018655D01*
Y009157D01*
X018689D01*
Y009191D01*
D02*
G37*
G36*
X018003Y008814D02*
X017934D01*
Y00878D01*
X018003D01*
Y008814D01*
D02*
G37*
G36*
X017934Y00878D02*
X017865D01*
Y008745D01*
X017934D01*
Y00878D01*
D02*
G37*
G36*
X010179Y011319D02*
X010144D01*
Y011285D01*
X010179D01*
Y011319D01*
D02*
G37*
G36*
X010076D02*
X010007D01*
Y011285D01*
X010041D01*
Y01125D01*
X010144D01*
Y011285D01*
X010076D01*
Y011319D01*
D02*
G37*
G36*
X010247Y01125D02*
X010179D01*
Y011216D01*
X010247D01*
Y01125D01*
D02*
G37*
G36*
X00963Y010358D02*
X009287D01*
Y010324D01*
X00963D01*
Y010358D01*
D02*
G37*
G36*
X009939Y010324D02*
X009733D01*
Y01029D01*
X009939D01*
Y010255D01*
X01011D01*
Y010221D01*
X010247D01*
Y010187D01*
X010316D01*
Y010118D01*
X01035D01*
Y010152D01*
X010385D01*
Y010221D01*
X010247D01*
Y010255D01*
X01011D01*
Y01029D01*
X009939D01*
Y010324D01*
D02*
G37*
G36*
X010316Y010118D02*
X010282D01*
Y010084D01*
X010316D01*
Y010118D01*
D02*
G37*
G36*
X010282Y010084D02*
X010247D01*
Y010049D01*
X010213D01*
Y010015D01*
X010179D01*
Y009981D01*
X010247D01*
Y010015D01*
X010282D01*
Y010084D01*
D02*
G37*
G36*
X010179Y009981D02*
X01011D01*
Y009946D01*
X010179D01*
Y009981D01*
D02*
G37*
G36*
X01011Y009946D02*
X010007D01*
Y009912D01*
X01011D01*
Y009946D01*
D02*
G37*
G36*
X010007Y009912D02*
X00987D01*
Y009878D01*
X010007D01*
Y009912D01*
D02*
G37*
G36*
X00987Y009878D02*
X009733D01*
Y009843D01*
X00987D01*
Y009878D01*
D02*
G37*
G36*
X009733Y009843D02*
X009561D01*
Y009809D01*
X009733D01*
Y009843D01*
D02*
G37*
G36*
X009836Y009157D02*
X009801D01*
Y009089D01*
Y009054D01*
X009836D01*
Y009157D01*
D02*
G37*
G36*
X009801Y00902D02*
X009767D01*
Y008917D01*
X009801D01*
Y00902D01*
D02*
G37*
G36*
X009767Y008917D02*
X009733D01*
Y00878D01*
X009767D01*
Y008917D01*
D02*
G37*
G36*
X009733Y00878D02*
X009698D01*
Y008642D01*
X009733D01*
Y00878D01*
D02*
G37*
G36*
X009698Y008642D02*
X009664D01*
Y008574D01*
X009595D01*
Y008539D01*
X009698D01*
Y008642D01*
D02*
G37*
G36*
X009595Y008539D02*
X009527D01*
Y008505D01*
X009595D01*
Y008539D01*
D02*
G37*
G36*
X009527Y008505D02*
X009458D01*
Y008471D01*
X009527D01*
Y008505D01*
D02*
G37*
G36*
X009424Y008471D02*
X009321D01*
Y008437D01*
X009424D01*
Y008471D01*
D02*
G37*
G36*
X007639Y008677D02*
X007605D01*
Y008608D01*
X007639D01*
Y008574D01*
Y008539D01*
X007674D01*
Y008471D01*
X007708D01*
Y008437D01*
X007742D01*
Y008505D01*
X007708D01*
Y008539D01*
X007674D01*
Y008608D01*
X007639D01*
Y008677D01*
D02*
G37*
G36*
X009252Y008437D02*
X009218D01*
Y008402D01*
X009252D01*
Y008437D01*
D02*
G37*
G36*
X007811D02*
X007777D01*
Y008402D01*
X007811D01*
Y008437D01*
D02*
G37*
G36*
X00788Y008402D02*
X007845D01*
Y008368D01*
X00788D01*
Y008402D01*
D02*
G37*
G36*
X008772Y008368D02*
X008737D01*
Y008334D01*
X008772D01*
Y008368D01*
D02*
G37*
G36*
X008017D02*
X007983D01*
Y008334D01*
X008017D01*
Y008368D01*
D02*
G37*
G36*
X008566Y008334D02*
X008051D01*
Y008299D01*
X008566D01*
Y008334D01*
D02*
G37*
G36*
X009664Y008471D02*
X00963D01*
Y008437D01*
X009527D01*
Y008402D01*
X009424D01*
Y008368D01*
X009287D01*
Y008334D01*
X009115D01*
Y008299D01*
X008943D01*
Y008265D01*
X008635D01*
Y008231D01*
X008051D01*
Y008265D01*
X007914D01*
Y008299D01*
X007811D01*
Y008334D01*
X007777D01*
Y008368D01*
X007708D01*
Y008334D01*
X007742D01*
Y008299D01*
X007777D01*
Y008265D01*
X007811D01*
Y008196D01*
X007845D01*
Y008162D01*
X00788D01*
Y008128D01*
X007914D01*
Y008093D01*
X007948D01*
Y008059D01*
X007983D01*
Y008025D01*
X008017D01*
Y00799D01*
X008051D01*
Y007956D01*
X00812D01*
Y007922D01*
X008154D01*
Y007887D01*
X008223D01*
Y007853D01*
X008257D01*
Y007819D01*
X008326D01*
Y007785D01*
X008394D01*
Y00775D01*
X008463D01*
Y007716D01*
X008566D01*
Y007682D01*
X009115D01*
Y007716D01*
X009424D01*
Y00775D01*
X009527D01*
Y007853D01*
X009561D01*
Y007922D01*
X009595D01*
Y008059D01*
X00963D01*
Y008265D01*
X009664D01*
Y008471D01*
D02*
G37*
G36*
X011414D02*
X011311D01*
Y008437D01*
X011414D01*
Y008471D01*
D02*
G37*
G36*
X014777Y008505D02*
X014468D01*
Y008471D01*
X014605D01*
Y008437D01*
X014708D01*
Y008402D01*
X014914D01*
Y008368D01*
X015052D01*
Y008334D01*
X01512D01*
Y008368D01*
X015052D01*
Y008402D01*
X014949D01*
Y008437D01*
X014846D01*
Y008471D01*
X014777D01*
Y008505D01*
D02*
G37*
G36*
X014468Y008437D02*
X014331D01*
Y008402D01*
X014228D01*
Y008368D01*
X014159D01*
Y008334D01*
X014056D01*
Y008299D01*
X013953D01*
Y008265D01*
X013816D01*
Y008231D01*
X013713D01*
Y008196D01*
X01361D01*
Y008162D01*
X013782D01*
Y008128D01*
X013885D01*
Y008093D01*
X014056D01*
Y008059D01*
X014228D01*
Y008025D01*
X014365D01*
Y00799D01*
X014537D01*
Y007956D01*
X014743D01*
Y007922D01*
X015017D01*
Y007887D01*
X015498D01*
Y00799D01*
X015463D01*
Y008093D01*
X015429D01*
Y008196D01*
X015395D01*
Y008231D01*
X01536D01*
Y008265D01*
X015052D01*
Y008299D01*
X014846D01*
Y008334D01*
X014708D01*
Y008368D01*
X014605D01*
Y008402D01*
X014468D01*
Y008437D01*
D02*
G37*
%LPD*%
G36*
X014743D02*
X014708D01*
Y008471D01*
X014743D01*
Y008437D01*
D02*
G37*
M02*
