M48
;Layer_Color=9474304
;FILE_FORMAT=2:4
INCH,LZ
;TYPE=PLATED
T1F00S00C0.0118
T2F00S00C0.0315
T3F00S00C0.0394
T4F00S00C0.1181
%
T01
X0483Y02815
X048Y0285
X0493Y02815
X05025Y027
X0525Y0255
X05475Y027
X05625
X05775
X0585Y0285
X057
X0555
X0564Y02975
X05775Y03
X057Y0255
X04875Y02975
X04725Y03
X04575
X04565Y0305
X04425Y03
X04275
X04125
X03975
X0399Y0305
X0405Y0285
X042
X0435
X04275Y027
X04125
X03975
X03825
X039Y0285
X0345
X03525Y03
Y027
X036Y0255
X0345Y0315
X03525Y033
X03575Y03395
X0345Y0345
X03525Y036
X0345Y0375
X03525Y039
X03675
X03825
X03975
X04125
X0405Y0405
X03975Y042
X0405Y0435
X042
X045
X0465
X04575Y045
X04425
X045Y0465
X0465
X0435
X039Y0435
X0375
X03675Y045
X03525
X0345Y0435
Y0405
X03725Y03465
X039Y0345
X0399Y0344
Y03325
X0407Y0333
X04055Y033
X0409
X04095Y03265
X04055
Y03515
Y03545
Y03575
X0409
Y03545
Y03515
X04295Y0346
X0435Y0345
X045
X0456
X0463Y0351
Y03545
Y0358
X04595
X0463Y0333
Y033
Y03265
X04295Y0316
X0373Y03175
X0405Y0375
X04425Y039
X04575
X04725
X04875
X05025
X05175
X05325
X05475
X05625
X05775
Y042
X0585Y0435
X05775Y045
X05625
X057Y0465
X0555
Y0435
X0525
Y0405
Y0375
X05245Y03585
X0526Y03555
Y0352
X05325Y036
X05335Y03395
X057Y0345
X05775Y03395
X058Y03265
X0584
Y03305
X0573Y0316
X0555Y0315
X048Y032
X04755Y0333
X04725Y0345
X048
X0495Y0346
X04725Y036
Y042
X048Y0435
X0495
X04875Y045
X04725
X048Y0465
X0495
T02
X050463Y04715
X05125
X052038
X052825
X053613
X0544
X0414
X040613
X039825
X039038
X03825
X037463
T03
X05075Y02565
X051734
X053908
X054892
X040134Y026238
X037134
X038716Y0449
X0397
X051908
X052892
T04
X05825Y02525
X03465
X05825Y0473
X03465
M30
