G04*
G04 #@! TF.GenerationSoftware,Altium Limited,Altium Designer,22.9.1 (49)*
G04*
G04 Layer_Color=32768*
%FSTAX24Y24*%
%MOIN*%
G70*
G04*
G04 #@! TF.SameCoordinates,2FAE9610-6970-4823-A7E0-823FAA2A8A52*
G04*
G04*
G04 #@! TF.FilePolarity,Positive*
G04*
G01*
G75*
%ADD48C,0.0020*%
%ADD49C,0.0039*%
D48*
X015424Y003642D02*
X015976D01*
X015424Y002658D02*
X015976D01*
Y003642D01*
X015424Y002658D02*
Y003642D01*
X01468Y001273D02*
Y001667D01*
X014483Y00147D02*
X014877D01*
X014936Y000939D02*
Y002001D01*
X014424Y000939D02*
X014936D01*
X014424D02*
Y002001D01*
X014936D01*
X010424Y012031D02*
X010976D01*
X010424Y011047D02*
X010976D01*
Y012031D01*
X010424Y011047D02*
Y012031D01*
X005635Y022914D02*
X006028D01*
X005832Y022717D02*
Y023111D01*
X002938Y02187D02*
X008725D01*
X002938D02*
Y023957D01*
X008725D01*
Y02187D02*
Y023957D01*
X01787Y011304D02*
Y011698D01*
X017673Y011501D02*
X018067D01*
X017614Y01097D02*
Y012033D01*
X018126D01*
Y01097D02*
Y012033D01*
X017614Y01097D02*
X018126D01*
X00903Y001273D02*
Y001667D01*
X008833Y00147D02*
X009227D01*
X009286Y000939D02*
Y002001D01*
X008774Y000939D02*
X009286D01*
X008774D02*
Y002001D01*
X009286D01*
X00998Y001273D02*
Y001667D01*
X009783Y00147D02*
X010177D01*
X010236Y000939D02*
Y002001D01*
X009724Y000939D02*
X010236D01*
X009724D02*
Y002001D01*
X010236D01*
X01132Y011304D02*
Y011698D01*
X011123Y011501D02*
X011517D01*
X011064Y01097D02*
Y012033D01*
X011576D01*
Y01097D02*
Y012033D01*
X011064Y01097D02*
X011576D01*
X009024Y012031D02*
X009576D01*
X009024Y011047D02*
X009576D01*
Y012031D01*
X009024Y011047D02*
Y012031D01*
X009724D02*
X010276D01*
X009724Y011047D02*
X010276D01*
Y012031D01*
X009724Y011047D02*
Y012031D01*
X01195Y011304D02*
Y011698D01*
X011753Y011501D02*
X012147D01*
X011694Y01097D02*
Y012033D01*
X012206D01*
Y01097D02*
Y012033D01*
X011694Y01097D02*
X012206D01*
X00635Y011304D02*
Y011698D01*
X006153Y011501D02*
X006547D01*
X006094Y01097D02*
Y012033D01*
X006606D01*
Y01097D02*
Y012033D01*
X006094Y01097D02*
X006606D01*
X016974Y012031D02*
X017526D01*
X016974Y011047D02*
X017526D01*
Y012031D01*
X016974Y011047D02*
Y012031D01*
X01847Y011304D02*
Y011698D01*
X018273Y011501D02*
X018667D01*
X018214Y01097D02*
Y012033D01*
X018726D01*
Y01097D02*
Y012033D01*
X018214Y01097D02*
X018726D01*
X01398Y001273D02*
Y001667D01*
X013783Y00147D02*
X014177D01*
X014236Y000939D02*
Y002001D01*
X013724Y000939D02*
X014236D01*
X013724D02*
Y002001D01*
X014236D01*
X018635Y022914D02*
X019028D01*
X018831Y022717D02*
Y023111D01*
X015938Y02187D02*
X021725D01*
X015938D02*
Y023957D01*
X021725D01*
Y02187D02*
Y023957D01*
X023895Y012407D02*
Y019218D01*
X019505Y012407D02*
Y019218D01*
X023895D01*
X019505Y012407D02*
X023895D01*
X018345D02*
Y019218D01*
X013955Y012407D02*
Y019218D01*
X018345D01*
X013955Y012407D02*
X018345D01*
X021374Y012031D02*
X021926D01*
X021374Y011047D02*
X021926D01*
Y012031D01*
X021374Y011047D02*
Y012031D01*
X015624D02*
X016176D01*
X015624Y011047D02*
X016176D01*
Y012031D01*
X015624Y011047D02*
Y012031D01*
X022024D02*
X022576D01*
X022024Y011047D02*
X022576D01*
Y012031D01*
X022024Y011047D02*
Y012031D01*
X016324D02*
X016876D01*
X016324Y011047D02*
X016876D01*
Y012031D01*
X016324Y011047D02*
Y012031D01*
X022674D02*
X023226D01*
X022674Y011047D02*
X023226D01*
Y012031D01*
X022674Y011047D02*
Y012031D01*
X02357Y011304D02*
Y011698D01*
X023373Y011501D02*
X023767D01*
X023314Y01097D02*
Y012033D01*
X023826D01*
Y01097D02*
Y012033D01*
X023314Y01097D02*
X023826D01*
X02417Y011304D02*
Y011698D01*
X023973Y011501D02*
X024367D01*
X023914Y01097D02*
Y012033D01*
X024426D01*
Y01097D02*
Y012033D01*
X023914Y01097D02*
X024426D01*
X01575Y007798D02*
Y008192D01*
X015553Y007995D02*
X015947D01*
X016006Y007464D02*
Y008527D01*
X015494Y007464D02*
X016006D01*
X015494D02*
Y008527D01*
X016006D01*
X0151Y007808D02*
Y008202D01*
X014903Y008005D02*
X015297D01*
X015356Y007473D02*
Y008536D01*
X014844Y007473D02*
X015356D01*
X014844D02*
Y008536D01*
X015356D01*
X011595Y012407D02*
Y019218D01*
X007205Y012407D02*
Y019218D01*
X011595D01*
X007205Y012407D02*
X011595D01*
X005845D02*
Y019218D01*
X001455Y012407D02*
Y019218D01*
X005845D01*
X001455Y012407D02*
X005845D01*
X003574Y012031D02*
X004126D01*
X003574Y011047D02*
X004126D01*
Y012031D01*
X003574Y011047D02*
Y012031D01*
X004224D02*
X004776D01*
X004224Y011047D02*
X004776D01*
Y012031D01*
X004224Y011047D02*
Y012031D01*
X004874D02*
X005426D01*
X004874Y011047D02*
X005426D01*
Y012031D01*
X004874Y011047D02*
Y012031D01*
X00575Y011304D02*
Y011698D01*
X005553Y011501D02*
X005947D01*
X005494Y01097D02*
Y012033D01*
X006006D01*
Y01097D02*
Y012033D01*
X005494Y01097D02*
X006006D01*
D49*
X015503Y00165D02*
X015897D01*
X0157Y001453D02*
Y001847D01*
X01605Y0009D02*
Y00245D01*
X01535Y0009D02*
Y00245D01*
X01605D01*
X01535Y0009D02*
X01605D01*
X0157Y002973D02*
Y003327D01*
X015523Y00315D02*
X015877D01*
X0107Y011362D02*
Y011716D01*
X010523Y011539D02*
X010877D01*
X0093Y011362D02*
Y011716D01*
X009123Y011539D02*
X009477D01*
X01Y011362D02*
Y011716D01*
X009823Y011539D02*
X010177D01*
X01725Y011362D02*
Y011716D01*
X017073Y011539D02*
X017427D01*
X021503Y015812D02*
X021897D01*
X0217Y015615D02*
Y016009D01*
X015953Y015812D02*
X016347D01*
X01615Y015615D02*
Y016009D01*
X02165Y011362D02*
Y011716D01*
X021473Y011539D02*
X021827D01*
X0159Y011362D02*
Y011716D01*
X015723Y011539D02*
X016077D01*
X0223Y011362D02*
Y011716D01*
X022123Y011539D02*
X022477D01*
X0166Y011362D02*
Y011716D01*
X016423Y011539D02*
X016777D01*
X02295Y011362D02*
Y011716D01*
X022773Y011539D02*
X023127D01*
X009203Y015812D02*
X009597D01*
X0094Y015615D02*
Y016009D01*
X003453Y015812D02*
X003847D01*
X00365Y015615D02*
Y016009D01*
X00385Y011362D02*
Y011716D01*
X003673Y011539D02*
X004027D01*
X0045Y011362D02*
Y011716D01*
X004323Y011539D02*
X004677D01*
X00515Y011362D02*
Y011716D01*
X004973Y011539D02*
X005327D01*
M02*
