G04*
G04 #@! TF.GenerationSoftware,Altium Limited,Altium Designer,22.9.1 (49)*
G04*
G04 Layer_Color=32768*
%FSTAX24Y24*%
%MOIN*%
G70*
G04*
G04 #@! TF.SameCoordinates,2FAE9610-6970-4823-A7E0-823FAA2A8A52*
G04*
G04*
G04 #@! TF.FilePolarity,Positive*
G04*
G01*
G75*
%ADD14C,0.0079*%
%ADD49C,0.0039*%
D14*
X019099Y000725D02*
Y002989D01*
X016185D02*
X019099D01*
X016185Y000725D02*
Y002989D01*
Y000725D02*
X019099D01*
X017343Y019561D02*
Y021825D01*
Y019561D02*
X020257D01*
Y021825D01*
X017343D02*
X020257D01*
X004151Y019561D02*
Y021825D01*
Y019561D02*
X007065D01*
Y021825D01*
X004151D02*
X007065D01*
X022257Y000725D02*
Y002989D01*
X019343D02*
X022257D01*
X019343Y000725D02*
Y002989D01*
Y000725D02*
X022257D01*
X01653Y004621D02*
X02157D01*
Y007574D01*
X01653D02*
X02157D01*
X01653Y004621D02*
Y007574D01*
D49*
X004446Y005504D02*
Y007196D01*
X003068Y005504D02*
X004446D01*
X002754Y005818D02*
X003068Y005504D01*
X002754Y006881D02*
X003068Y007196D01*
X002754Y005818D02*
Y006881D01*
X003068Y007196D02*
X004446D01*
X007345Y000388D02*
Y005112D01*
X002255Y000388D02*
Y005112D01*
Y000388D02*
X007345D01*
X002255Y005112D02*
X007345D01*
M02*
