G04*
G04 #@! TF.GenerationSoftware,Altium Limited,Altium Designer,22.9.1 (49)*
G04*
G04 Layer_Color=8388736*
%FSTAX24Y24*%
%MOIN*%
G70*
G04*
G04 #@! TF.SameCoordinates,2FAE9610-6970-4823-A7E0-823FAA2A8A52*
G04*
G04*
G04 #@! TF.FilePolarity,Positive*
G04*
G01*
G75*
%ADD14C,0.0079*%
%ADD48C,0.0020*%
D14*
X019138Y000685D02*
Y003028D01*
X016146D02*
X019138D01*
X016146Y000685D02*
Y003028D01*
Y000685D02*
X019138D01*
X017304Y019522D02*
Y021865D01*
Y019522D02*
X020296D01*
Y021865D01*
X017304D02*
X020296D01*
X004112Y019522D02*
Y021865D01*
Y019522D02*
X007104D01*
Y021865D01*
X004112D02*
X007104D01*
X022296Y000685D02*
Y003028D01*
X019304D02*
X022296D01*
X019304Y000685D02*
Y003028D01*
Y000685D02*
X022296D01*
X016333Y003591D02*
X021767D01*
Y008604D01*
X016333D02*
X021767D01*
X016333Y003591D02*
Y008604D01*
D48*
X0036Y006153D02*
Y006547D01*
X003403Y00635D02*
X003797D01*
X002301Y005385D02*
X004899D01*
X002301D02*
Y007315D01*
X004899D01*
Y005385D02*
Y007315D01*
X002176Y005191D02*
X007424D01*
Y000309D02*
Y005191D01*
X002176Y000309D02*
X007424D01*
X002176D02*
Y005191D01*
M02*
