G04*
G04 #@! TF.GenerationSoftware,Altium Limited,Altium Designer,22.9.1 (49)*
G04*
G04 Layer_Physical_Order=1*
G04 Layer_Color=255*
%FSTAX24Y24*%
%MOIN*%
G70*
G04*
G04 #@! TF.SameCoordinates,2FAE9610-6970-4823-A7E0-823FAA2A8A52*
G04*
G04*
G04 #@! TF.FilePolarity,Positive*
G04*
G01*
G75*
%ADD15C,0.0100*%
%ADD16R,0.0472X0.0433*%
%ADD17R,0.0354X0.0217*%
%ADD18R,0.0315X0.0315*%
%ADD19R,0.2283X0.2441*%
%ADD20R,0.0630X0.1181*%
%ADD21R,0.1024X0.0630*%
%ADD22R,0.3996X0.3504*%
%ADD23R,0.0335X0.1713*%
G04:AMPARAMS|DCode=24|XSize=102.5mil|YSize=24.5mil|CornerRadius=12.2mil|HoleSize=0mil|Usage=FLASHONLY|Rotation=90.000|XOffset=0mil|YOffset=0mil|HoleType=Round|Shape=RoundedRectangle|*
%AMROUNDEDRECTD24*
21,1,0.1025,0.0000,0,0,90.0*
21,1,0.0780,0.0245,0,0,90.0*
1,1,0.0245,0.0000,0.0390*
1,1,0.0245,0.0000,-0.0390*
1,1,0.0245,0.0000,-0.0390*
1,1,0.0245,0.0000,0.0390*
%
%ADD24ROUNDEDRECTD24*%
%ADD25R,0.0245X0.1025*%
%ADD36C,0.0610*%
%ADD37R,0.0610X0.0610*%
%ADD41C,0.0500*%
%ADD42C,0.0512*%
%ADD43R,0.0512X0.0512*%
%ADD44C,0.1380*%
G04:AMPARAMS|DCode=45|XSize=59.1mil|YSize=59.1mil|CornerRadius=14.8mil|HoleSize=0mil|Usage=FLASHONLY|Rotation=0.000|XOffset=0mil|YOffset=0mil|HoleType=Round|Shape=RoundedRectangle|*
%AMROUNDEDRECTD45*
21,1,0.0591,0.0295,0,0,0.0*
21,1,0.0295,0.0591,0,0,0.0*
1,1,0.0295,0.0148,-0.0148*
1,1,0.0295,-0.0148,-0.0148*
1,1,0.0295,-0.0148,0.0148*
1,1,0.0295,0.0148,0.0148*
%
%ADD45ROUNDEDRECTD45*%
%ADD46C,0.0591*%
%ADD47C,0.0236*%
G36*
X025847Y000153D02*
X000153D01*
Y024197D01*
X025847D01*
Y000153D01*
D02*
G37*
%LPC*%
G36*
X0177Y023505D02*
Y0232D01*
X018005D01*
X017982Y023287D01*
X017935Y023369D01*
X017869Y023435D01*
X017788Y023482D01*
X0177Y023505D01*
D02*
G37*
G36*
X0047D02*
Y0232D01*
X005005D01*
X004982Y023287D01*
X004935Y023369D01*
X004869Y023435D01*
X004788Y023482D01*
X0047Y023505D01*
D02*
G37*
G36*
X0176D02*
X017513Y023482D01*
X017432Y023435D01*
X017366Y023369D01*
X017319Y023287D01*
X017295Y0232D01*
X0176D01*
Y023505D01*
D02*
G37*
G36*
X0046D02*
X004513Y023482D01*
X004432Y023435D01*
X004366Y023369D01*
X004319Y023287D01*
X004295Y0232D01*
X0046D01*
Y023505D01*
D02*
G37*
G36*
X018005Y0231D02*
X0177D01*
Y022795D01*
X017788Y022818D01*
X017869Y022865D01*
X017935Y022931D01*
X017982Y023013D01*
X018005Y0231D01*
D02*
G37*
G36*
X005005D02*
X0047D01*
Y022795D01*
X004788Y022818D01*
X004869Y022865D01*
X004935Y022931D01*
X004982Y023013D01*
X005005Y0231D01*
D02*
G37*
G36*
X0176D02*
X017295D01*
X017319Y023013D01*
X017366Y022931D01*
X017432Y022865D01*
X017513Y022818D01*
X0176Y022795D01*
Y0231D01*
D02*
G37*
G36*
X0046D02*
X004295D01*
X004319Y023013D01*
X004366Y022931D01*
X004432Y022865D01*
X004513Y022818D01*
X0046Y022795D01*
Y0231D01*
D02*
G37*
G36*
X020059Y023506D02*
X019966D01*
X019875Y023482D01*
X019794Y023435D01*
X019728Y023369D01*
X019681Y023287D01*
X019657Y023197D01*
Y023103D01*
X019681Y023013D01*
X019728Y022931D01*
X019794Y022865D01*
X019875Y022818D01*
X019966Y022794D01*
X020059D01*
X02015Y022818D01*
X020231Y022865D01*
X020297Y022931D01*
X020344Y023013D01*
X020368Y023103D01*
Y023197D01*
X020344Y023287D01*
X020297Y023369D01*
X020231Y023435D01*
X02015Y023482D01*
X020059Y023506D01*
D02*
G37*
G36*
X019272D02*
X019178D01*
X019088Y023482D01*
X019007Y023435D01*
X01894Y023369D01*
X018894Y023287D01*
X018869Y023197D01*
Y023103D01*
X018894Y023013D01*
X01894Y022931D01*
X019007Y022865D01*
X019088Y022818D01*
X019178Y022794D01*
X019272D01*
X019363Y022818D01*
X019444Y022865D01*
X01951Y022931D01*
X019557Y023013D01*
X019581Y023103D01*
Y023197D01*
X019557Y023287D01*
X01951Y023369D01*
X019444Y023435D01*
X019363Y023482D01*
X019272Y023506D01*
D02*
G37*
G36*
X018485D02*
X018391D01*
X0183Y023482D01*
X018219Y023435D01*
X018153Y023369D01*
X018106Y023287D01*
X018082Y023197D01*
Y023103D01*
X018106Y023013D01*
X018153Y022931D01*
X018219Y022865D01*
X0183Y022818D01*
X018391Y022794D01*
X018485D01*
X018575Y022818D01*
X018656Y022865D01*
X018723Y022931D01*
X018769Y023013D01*
X018794Y023103D01*
Y023197D01*
X018769Y023287D01*
X018723Y023369D01*
X018656Y023435D01*
X018575Y023482D01*
X018485Y023506D01*
D02*
G37*
G36*
X007059D02*
X006966D01*
X006875Y023482D01*
X006794Y023435D01*
X006728Y023369D01*
X006681Y023287D01*
X006657Y023197D01*
Y023103D01*
X006681Y023013D01*
X006728Y022931D01*
X006794Y022865D01*
X006875Y022818D01*
X006966Y022794D01*
X007059D01*
X00715Y022818D01*
X007231Y022865D01*
X007297Y022931D01*
X007344Y023013D01*
X007369Y023103D01*
Y023197D01*
X007344Y023287D01*
X007297Y023369D01*
X007231Y023435D01*
X00715Y023482D01*
X007059Y023506D01*
D02*
G37*
G36*
X006272D02*
X006178D01*
X006088Y023482D01*
X006007Y023435D01*
X00594Y023369D01*
X005894Y023287D01*
X005869Y023197D01*
Y023103D01*
X005894Y023013D01*
X00594Y022931D01*
X006007Y022865D01*
X006088Y022818D01*
X006178Y022794D01*
X006272D01*
X006363Y022818D01*
X006444Y022865D01*
X00651Y022931D01*
X006557Y023013D01*
X006581Y023103D01*
Y023197D01*
X006557Y023287D01*
X00651Y023369D01*
X006444Y023435D01*
X006363Y023482D01*
X006272Y023506D01*
D02*
G37*
G36*
X005485D02*
X005391D01*
X0053Y023482D01*
X005219Y023435D01*
X005153Y023369D01*
X005106Y023287D01*
X005082Y023197D01*
Y023103D01*
X005106Y023013D01*
X005153Y022931D01*
X005219Y022865D01*
X0053Y022818D01*
X005391Y022794D01*
X005485D01*
X005575Y022818D01*
X005656Y022865D01*
X005723Y022931D01*
X005769Y023013D01*
X005794Y023103D01*
Y023197D01*
X005769Y023287D01*
X005723Y023369D01*
X005656Y023435D01*
X005575Y023482D01*
X005485Y023506D01*
D02*
G37*
G36*
X024728Y02409D02*
X024572D01*
X02442Y02406D01*
X024276Y024D01*
X024146Y023914D01*
X024036Y023804D01*
X02395Y023674D01*
X02389Y02353D01*
X02386Y023378D01*
Y023222D01*
X02389Y02307D01*
X02395Y022926D01*
X024036Y022796D01*
X024146Y022686D01*
X024276Y0226D01*
X02442Y02254D01*
X024572Y02251D01*
X024728D01*
X02488Y02254D01*
X025024Y0226D01*
X025154Y022686D01*
X025264Y022796D01*
X02535Y022926D01*
X02541Y02307D01*
X02544Y023222D01*
Y023378D01*
X02541Y02353D01*
X02535Y023674D01*
X025264Y023804D01*
X025154Y023914D01*
X025024Y024D01*
X02488Y02406D01*
X024728Y02409D01*
D02*
G37*
G36*
X001128D02*
X000972D01*
X00082Y02406D01*
X000676Y024D01*
X000546Y023914D01*
X000436Y023804D01*
X00035Y023674D01*
X00029Y02353D01*
X00026Y023378D01*
Y023222D01*
X00029Y02307D01*
X00035Y022926D01*
X000436Y022796D01*
X000546Y022686D01*
X000676Y0226D01*
X00082Y02254D01*
X000972Y02251D01*
X001128D01*
X00128Y02254D01*
X001424Y0226D01*
X001554Y022686D01*
X001664Y022796D01*
X00175Y022926D01*
X00181Y02307D01*
X00184Y023222D01*
Y023378D01*
X00181Y02353D01*
X00175Y023674D01*
X001664Y023804D01*
X001554Y023914D01*
X001424Y024D01*
X00128Y02406D01*
X001128Y02409D01*
D02*
G37*
G36*
X019345Y021305D02*
X019239D01*
X019136Y021278D01*
X019043Y021224D01*
X018968Y021149D01*
X018915Y021056D01*
X018887Y020953D01*
Y020847D01*
X018915Y020744D01*
X018968Y020651D01*
X019043Y020576D01*
X019136Y020522D01*
X019239Y020495D01*
X019345D01*
X019448Y020522D01*
X019541Y020576D01*
X019616Y020651D01*
X01967Y020744D01*
X019697Y020847D01*
Y020953D01*
X01967Y021056D01*
X019616Y021149D01*
X019541Y021224D01*
X019448Y021278D01*
X019345Y021305D01*
D02*
G37*
G36*
X018713D02*
X017903D01*
Y020495D01*
X018713D01*
Y021305D01*
D02*
G37*
G36*
X006153D02*
X006047D01*
X005944Y021278D01*
X005851Y021224D01*
X005776Y021149D01*
X005722Y021056D01*
X005695Y020953D01*
Y020847D01*
X005722Y020744D01*
X005776Y020651D01*
X005851Y020576D01*
X005944Y020522D01*
X006047Y020495D01*
X006153D01*
X006256Y020522D01*
X006349Y020576D01*
X006424Y020651D01*
X006478Y020744D01*
X006505Y020847D01*
Y020953D01*
X006478Y021056D01*
X006424Y021149D01*
X006349Y021224D01*
X006256Y021278D01*
X006153Y021305D01*
D02*
G37*
G36*
X005521D02*
X004711D01*
Y020495D01*
X005521D01*
Y021305D01*
D02*
G37*
G36*
X02015Y014406D02*
X019933D01*
Y0135D01*
X02015D01*
Y014406D01*
D02*
G37*
G36*
X0146D02*
X014383D01*
Y0135D01*
X0146D01*
Y014406D01*
D02*
G37*
G36*
X00785D02*
X007633D01*
Y0135D01*
X00785D01*
Y014406D01*
D02*
G37*
G36*
X0021D02*
X001883D01*
Y0135D01*
X0021D01*
Y014406D01*
D02*
G37*
G36*
X02015Y0134D02*
X019933D01*
Y012494D01*
X02015D01*
Y012495D01*
D01*
X02015Y012514D01*
X020148Y012531D01*
X020145Y012547D01*
X020142Y01256D01*
X020138Y012571D01*
X020132Y01258D01*
X020126Y012587D01*
X020118Y012592D01*
X02011Y012595D01*
X0201Y012596D01*
X02015D01*
Y0134D01*
D02*
G37*
G36*
X0146D02*
X014383D01*
Y012494D01*
X0146D01*
Y012495D01*
D01*
X014599Y012514D01*
X014598Y012531D01*
X014596Y012547D01*
X014592Y01256D01*
X014588Y012571D01*
X014582Y01258D01*
X014576Y012587D01*
X014568Y012592D01*
X01456Y012595D01*
X01455Y012596D01*
X0146D01*
Y0134D01*
D02*
G37*
G36*
X00785D02*
X007633D01*
Y012494D01*
X00785D01*
Y012495D01*
D01*
X00785Y012514D01*
X007848Y012531D01*
X007846Y012547D01*
X007842Y01256D01*
X007837Y012571D01*
X007832Y01258D01*
X007825Y012587D01*
X007818Y012592D01*
X00781Y012595D01*
X0078Y012596D01*
X00785D01*
Y0134D01*
D02*
G37*
G36*
X0021D02*
X001883D01*
Y012494D01*
X0021D01*
Y012495D01*
D01*
X0021Y012514D01*
X002098Y012531D01*
X002095Y012547D01*
X002092Y01256D01*
X002087Y012571D01*
X002082Y01258D01*
X002076Y012587D01*
X002068Y012592D01*
X00206Y012595D01*
X00205Y012596D01*
X0021D01*
Y0134D01*
D02*
G37*
G36*
X023227Y011462D02*
X023D01*
Y011304D01*
X023125D01*
Y011354D01*
X023126Y011344D01*
X023129Y011336D01*
X023134Y011328D01*
X023141Y011322D01*
X02315Y011316D01*
X023161Y011312D01*
X023174Y011308D01*
X02319Y011306D01*
X023207Y011304D01*
X023226Y011304D01*
X023227D01*
Y011462D01*
D02*
G37*
G36*
X0229D02*
X022673D01*
Y011304D01*
X022674D01*
X022693Y011304D01*
X02271Y011306D01*
X022726Y011308D01*
X022739Y011312D01*
X02275Y011316D01*
X022759Y011322D01*
X022766Y011328D01*
X022771Y011336D01*
X022774Y011344D01*
X022775Y011354D01*
Y011304D01*
X0229D01*
Y011462D01*
D02*
G37*
G36*
X022577D02*
X02235D01*
Y011304D01*
X022475D01*
Y011354D01*
X022476Y011344D01*
X022479Y011336D01*
X022484Y011328D01*
X022491Y011322D01*
X0225Y011316D01*
X022511Y011312D01*
X022524Y011308D01*
X02254Y011306D01*
X022557Y011304D01*
X022576Y011304D01*
X022577D01*
Y011462D01*
D02*
G37*
G36*
X02225D02*
X022023D01*
Y011304D01*
X02225D01*
Y011462D01*
D02*
G37*
G36*
X017527D02*
X0173D01*
Y011304D01*
X017425D01*
Y011354D01*
X017426Y011344D01*
X017429Y011336D01*
X017434Y011328D01*
X017441Y011322D01*
X01745Y011316D01*
X017461Y011312D01*
X017474Y011308D01*
X01749Y011306D01*
X017507Y011304D01*
X017526Y011304D01*
X017527D01*
Y011462D01*
D02*
G37*
G36*
X0172D02*
X016973D01*
Y011304D01*
X016974D01*
X016993Y011304D01*
X01701Y011306D01*
X017026Y011308D01*
X017039Y011312D01*
X01705Y011316D01*
X017059Y011322D01*
X017066Y011328D01*
X017071Y011336D01*
X017074Y011344D01*
X017075Y011354D01*
Y011304D01*
X0172D01*
Y011462D01*
D02*
G37*
G36*
X016877D02*
X01665D01*
Y011304D01*
X016775D01*
Y011354D01*
X016776Y011344D01*
X016779Y011336D01*
X016784Y011328D01*
X016791Y011322D01*
X0168Y011316D01*
X016811Y011312D01*
X016824Y011308D01*
X01684Y011306D01*
X016857Y011304D01*
X016876Y011304D01*
X016877D01*
Y011462D01*
D02*
G37*
G36*
X01655D02*
X016323D01*
Y011304D01*
X01655D01*
Y011462D01*
D02*
G37*
G36*
X010977D02*
X01075D01*
Y011304D01*
X010875D01*
Y011354D01*
X010876Y011344D01*
X010879Y011336D01*
X010884Y011328D01*
X010891Y011322D01*
X0109Y011316D01*
X010911Y011312D01*
X010924Y011308D01*
X01094Y011306D01*
X010957Y011304D01*
X010976Y011304D01*
X010977D01*
Y011462D01*
D02*
G37*
G36*
X01065D02*
X010423D01*
Y011304D01*
X010424D01*
X010443Y011304D01*
X01046Y011306D01*
X010476Y011308D01*
X010489Y011312D01*
X0105Y011316D01*
X010509Y011322D01*
X010516Y011328D01*
X010521Y011336D01*
X010524Y011344D01*
X010525Y011354D01*
Y011304D01*
X01065D01*
Y011462D01*
D02*
G37*
G36*
X010277D02*
X01005D01*
Y011304D01*
X010175D01*
Y011354D01*
X010176Y011344D01*
X010179Y011336D01*
X010184Y011328D01*
X010191Y011322D01*
X0102Y011316D01*
X010211Y011312D01*
X010224Y011308D01*
X01024Y011306D01*
X010257Y011304D01*
X010276Y011304D01*
X010277D01*
Y011462D01*
D02*
G37*
G36*
X00995D02*
X009723D01*
Y011304D01*
X00995D01*
Y011462D01*
D02*
G37*
G36*
X005427D02*
X0052D01*
Y011304D01*
X005325D01*
Y011354D01*
X005326Y011344D01*
X005329Y011336D01*
X005334Y011328D01*
X005341Y011322D01*
X00535Y011316D01*
X005361Y011312D01*
X005374Y011308D01*
X00539Y011306D01*
X005407Y011304D01*
X005426Y011304D01*
X005427D01*
Y011462D01*
D02*
G37*
G36*
X0051D02*
X004873D01*
Y011304D01*
X004874D01*
X004893Y011304D01*
X00491Y011306D01*
X004926Y011308D01*
X004939Y011312D01*
X00495Y011316D01*
X004959Y011322D01*
X004966Y011328D01*
X004971Y011336D01*
X004974Y011344D01*
X004975Y011354D01*
Y011304D01*
X0051D01*
Y011462D01*
D02*
G37*
G36*
X004777D02*
X00455D01*
Y011304D01*
X004675D01*
Y011354D01*
X004676Y011344D01*
X004679Y011336D01*
X004684Y011328D01*
X004691Y011322D01*
X0047Y011316D01*
X004711Y011312D01*
X004724Y011308D01*
X00474Y011306D01*
X004757Y011304D01*
X004776Y011304D01*
X004777D01*
Y011462D01*
D02*
G37*
G36*
X00445D02*
X004223D01*
Y011304D01*
X00445D01*
Y011462D01*
D02*
G37*
G36*
X02352Y011156D02*
X023415D01*
Y011154D01*
X023415Y011156D01*
X023313D01*
Y010948D01*
X02352D01*
Y011156D01*
D02*
G37*
G36*
X023227Y011204D02*
X023226D01*
X023207Y011203D01*
X02319Y011202D01*
X023174Y011199D01*
X023161Y011196D01*
X02315Y011191D01*
X023141Y011186D01*
X023134Y011179D01*
X023129Y011172D01*
X023126Y011163D01*
X023125Y011154D01*
Y011204D01*
X023D01*
Y011045D01*
X023227D01*
Y011204D01*
D02*
G37*
G36*
X0229D02*
X022775D01*
Y011154D01*
X022774Y011163D01*
X022771Y011172D01*
X022766Y011179D01*
X022759Y011186D01*
X02275Y011191D01*
X022739Y011196D01*
X022726Y011199D01*
X02271Y011202D01*
X022693Y011203D01*
X022674Y011204D01*
X022673D01*
Y011045D01*
X0229D01*
Y011204D01*
D02*
G37*
G36*
X022577D02*
X022576D01*
X022557Y011203D01*
X02254Y011202D01*
X022524Y011199D01*
X022511Y011196D01*
X0225Y011191D01*
X022491Y011186D01*
X022484Y011179D01*
X022479Y011172D01*
X022476Y011163D01*
X022475Y011154D01*
Y011204D01*
X02235D01*
Y011045D01*
X022577D01*
Y011204D01*
D02*
G37*
G36*
X01782Y011156D02*
X017715D01*
Y011154D01*
X017715Y011156D01*
X017613D01*
Y010948D01*
X01782D01*
Y011156D01*
D02*
G37*
G36*
X017527Y011204D02*
X017526D01*
X017507Y011203D01*
X01749Y011202D01*
X017474Y011199D01*
X017461Y011196D01*
X01745Y011191D01*
X017441Y011186D01*
X017434Y011179D01*
X017429Y011172D01*
X017426Y011163D01*
X017425Y011154D01*
Y011204D01*
X0173D01*
Y011045D01*
X017527D01*
Y011204D01*
D02*
G37*
G36*
X0172D02*
X017075D01*
Y011154D01*
X017074Y011163D01*
X017071Y011172D01*
X017066Y011179D01*
X017059Y011186D01*
X01705Y011191D01*
X017039Y011196D01*
X017026Y011199D01*
X01701Y011202D01*
X016993Y011203D01*
X016974Y011204D01*
X016973D01*
Y011045D01*
X0172D01*
Y011204D01*
D02*
G37*
G36*
X016877D02*
X016876D01*
X016857Y011203D01*
X01684Y011202D01*
X016824Y011199D01*
X016811Y011196D01*
X0168Y011191D01*
X016791Y011186D01*
X016784Y011179D01*
X016779Y011172D01*
X016776Y011163D01*
X016775Y011154D01*
Y011204D01*
X01665D01*
Y011045D01*
X016877D01*
Y011204D01*
D02*
G37*
G36*
X01127Y011156D02*
X011165D01*
Y011154D01*
X011165Y011156D01*
X011063D01*
Y010948D01*
X01127D01*
Y011156D01*
D02*
G37*
G36*
X010977Y011204D02*
X010976D01*
X010957Y011203D01*
X01094Y011202D01*
X010924Y011199D01*
X010911Y011196D01*
X0109Y011191D01*
X010891Y011186D01*
X010884Y011179D01*
X010879Y011172D01*
X010876Y011163D01*
X010875Y011154D01*
Y011204D01*
X01075D01*
Y011045D01*
X010977D01*
Y011204D01*
D02*
G37*
G36*
X01065D02*
X010525D01*
Y011154D01*
X010524Y011163D01*
X010521Y011172D01*
X010516Y011179D01*
X010509Y011186D01*
X0105Y011191D01*
X010489Y011196D01*
X010476Y011199D01*
X01046Y011202D01*
X010443Y011203D01*
X010424Y011204D01*
X010423D01*
Y011045D01*
X01065D01*
Y011204D01*
D02*
G37*
G36*
X010277D02*
X010276D01*
X010257Y011203D01*
X01024Y011202D01*
X010224Y011199D01*
X010211Y011196D01*
X0102Y011191D01*
X010191Y011186D01*
X010184Y011179D01*
X010179Y011172D01*
X010176Y011163D01*
X010175Y011154D01*
Y011204D01*
X01005D01*
Y011045D01*
X010277D01*
Y011204D01*
D02*
G37*
G36*
X0057Y011156D02*
X005595D01*
Y011154D01*
X005595Y011156D01*
X005493D01*
Y010948D01*
X0057D01*
Y011156D01*
D02*
G37*
G36*
X005427Y011204D02*
X005426D01*
X005407Y011203D01*
X00539Y011202D01*
X005374Y011199D01*
X005361Y011196D01*
X00535Y011191D01*
X005341Y011186D01*
X005334Y011179D01*
X005329Y011172D01*
X005326Y011163D01*
X005325Y011154D01*
Y011204D01*
X0052D01*
Y011045D01*
X005427D01*
Y011204D01*
D02*
G37*
G36*
X0051D02*
X004975D01*
Y011154D01*
X004974Y011163D01*
X004971Y011172D01*
X004966Y011179D01*
X004959Y011186D01*
X00495Y011191D01*
X004939Y011196D01*
X004926Y011199D01*
X00491Y011202D01*
X004893Y011203D01*
X004874Y011204D01*
X004873D01*
Y011045D01*
X0051D01*
Y011204D01*
D02*
G37*
G36*
X004777D02*
X004776D01*
X004757Y011203D01*
X00474Y011202D01*
X004724Y011199D01*
X004711Y011196D01*
X0047Y011191D01*
X004691Y011186D01*
X004684Y011179D01*
X004679Y011172D01*
X004676Y011163D01*
X004675Y011154D01*
Y011204D01*
X00455D01*
Y011045D01*
X004777D01*
Y011204D01*
D02*
G37*
G36*
X02412Y011156D02*
X024015D01*
Y011106D01*
X024014Y011115D01*
X024011Y011124D01*
X024006Y011131D01*
X023999Y011138D01*
X02399Y011143D01*
X023978Y011148D01*
X023965Y011151D01*
X02395Y011154D01*
X023933Y011155D01*
X023914Y011156D01*
X023913D01*
Y010948D01*
X02412D01*
Y01095D01*
X0241D01*
X0241Y010969D01*
X024098Y010986D01*
X024095Y011001D01*
X024092Y011014D01*
X024088Y011026D01*
X024082Y011035D01*
X024076Y011042D01*
X024068Y011047D01*
X02406Y01105D01*
X02405Y011051D01*
X02412D01*
Y011156D01*
D02*
G37*
G36*
X023827D02*
X023826D01*
X023807Y011155D01*
X02379Y011154D01*
X023775Y011151D01*
X023762Y011148D01*
X023751Y011143D01*
X023742Y011138D01*
X023735Y011131D01*
X02373Y011124D01*
X023727Y011115D01*
X023726Y011106D01*
Y011156D01*
X02362D01*
Y010948D01*
X023827D01*
Y011156D01*
D02*
G37*
G36*
X01842D02*
X018315D01*
Y011106D01*
X018314Y011115D01*
X018311Y011124D01*
X018306Y011131D01*
X018299Y011138D01*
X01829Y011143D01*
X018278Y011148D01*
X018265Y011151D01*
X01825Y011154D01*
X018233Y011155D01*
X018214Y011156D01*
X018213D01*
Y010948D01*
X01842D01*
Y011156D01*
D02*
G37*
G36*
X018127D02*
X018126D01*
X018107Y011155D01*
X01809Y011154D01*
X018075Y011151D01*
X018062Y011148D01*
X018051Y011143D01*
X018042Y011138D01*
X018035Y011131D01*
X01803Y011124D01*
X018027Y011115D01*
X018026Y011106D01*
Y011156D01*
X01792D01*
Y010948D01*
X018127D01*
Y011156D01*
D02*
G37*
G36*
X0119D02*
X011795D01*
Y011106D01*
X011794Y011115D01*
X011791Y011124D01*
X011786Y011131D01*
X011779Y011138D01*
X01177Y011143D01*
X011758Y011148D01*
X011745Y011151D01*
X01173Y011154D01*
X011713Y011155D01*
X011694Y011156D01*
X011693D01*
Y010948D01*
X0119D01*
Y011156D01*
D02*
G37*
G36*
X011577D02*
X011576D01*
X011557Y011155D01*
X01154Y011154D01*
X011525Y011151D01*
X011512Y011148D01*
X011501Y011143D01*
X011492Y011138D01*
X011485Y011131D01*
X01148Y011124D01*
X011477Y011115D01*
X011476Y011106D01*
Y011156D01*
X01137D01*
Y010948D01*
X011577D01*
Y011156D01*
D02*
G37*
G36*
X0063D02*
X006195D01*
Y011106D01*
X006194Y011115D01*
X006191Y011124D01*
X006186Y011131D01*
X006179Y011138D01*
X00617Y011143D01*
X006158Y011148D01*
X006145Y011151D01*
X00613Y011154D01*
X006113Y011155D01*
X006094Y011156D01*
X006093D01*
Y010948D01*
X0063D01*
Y01095D01*
X00625D01*
X006249Y010969D01*
X006248Y010986D01*
X006245Y011001D01*
X006242Y011014D01*
X006237Y011026D01*
X006232Y011035D01*
X006226Y011042D01*
X006218Y011047D01*
X006209Y01105D01*
X0062Y011051D01*
X0063D01*
Y011156D01*
D02*
G37*
G36*
X006007D02*
X006006D01*
X005987Y011155D01*
X00597Y011154D01*
X005955Y011151D01*
X005942Y011148D01*
X005931Y011143D01*
X005922Y011138D01*
X005915Y011131D01*
X00591Y011124D01*
X005907Y011115D01*
X005906Y011106D01*
Y011156D01*
X0058D01*
Y010948D01*
X006007D01*
Y011156D01*
D02*
G37*
G36*
X01655Y011204D02*
X016323D01*
Y011045D01*
X01655D01*
Y011204D01*
D02*
G37*
G36*
X00995D02*
X009723D01*
Y011045D01*
X00995D01*
Y011204D01*
D02*
G37*
G36*
X00445D02*
X004223D01*
Y011045D01*
X00445D01*
Y011204D01*
D02*
G37*
G36*
X012207Y011156D02*
X012D01*
Y011051D01*
X0121D01*
X012091Y01105D01*
X012082Y011047D01*
X012075Y011042D01*
X012068Y011035D01*
X012062Y011026D01*
X012058Y011014D01*
X012055Y011001D01*
X012052Y010986D01*
X01205Y010969D01*
X01205Y01095D01*
X012D01*
Y010948D01*
X012207D01*
Y011156D01*
D02*
G37*
G36*
X004127Y011462D02*
X003573D01*
Y01121D01*
X00357Y011195D01*
Y010853D01*
X003526Y010835D01*
X003465Y010774D01*
X003432Y010693D01*
Y010607D01*
X003465Y010526D01*
X003526Y010465D01*
X003607Y010432D01*
X003693D01*
X003774Y010465D01*
X003835Y010526D01*
X003868Y010607D01*
Y010684D01*
X003876Y010723D01*
Y011045D01*
X004127D01*
Y011462D01*
D02*
G37*
G36*
X016177D02*
X015623D01*
Y011045D01*
X015747D01*
Y010764D01*
X015747Y010762D01*
X015746Y010759D01*
X015746Y010757D01*
X015745Y010756D01*
X015745Y010756D01*
X015743Y010754D01*
X015738Y010747D01*
X015715Y010724D01*
X015682Y010643D01*
Y010557D01*
X015715Y010476D01*
X015776Y010415D01*
X015857Y010382D01*
X015943D01*
X016024Y010415D01*
X016085Y010476D01*
X016118Y010557D01*
Y010643D01*
X016085Y010724D01*
X016062Y010747D01*
X016057Y010754D01*
X016055Y010756D01*
X016055Y010756D01*
X016054Y010757D01*
X016054Y010759D01*
X016053Y010762D01*
X016053Y010764D01*
Y011045D01*
X016177D01*
Y011462D01*
D02*
G37*
G36*
X009577D02*
X009023D01*
Y011045D01*
X009197D01*
Y010764D01*
X009197Y010762D01*
X009196Y010759D01*
X009196Y010757D01*
X009195Y010756D01*
X009195Y010756D01*
X009193Y010754D01*
X009188Y010747D01*
X009165Y010724D01*
X009132Y010643D01*
Y010557D01*
X009165Y010476D01*
X009226Y010415D01*
X009307Y010382D01*
X009393D01*
X009474Y010415D01*
X009535Y010476D01*
X009568Y010557D01*
Y010643D01*
X009535Y010724D01*
X009512Y010747D01*
X009507Y010754D01*
X009505Y010756D01*
X009505Y010756D01*
X009504Y010757D01*
X009504Y010759D01*
X009503Y010762D01*
X009503Y010764D01*
Y011045D01*
X009577D01*
Y011462D01*
D02*
G37*
G36*
X015357Y008557D02*
X01515D01*
Y00835D01*
X015255D01*
Y0084D01*
X015256Y00839D01*
X015259Y008382D01*
X015264Y008375D01*
X015271Y008368D01*
X01528Y008363D01*
X015292Y008358D01*
X015305Y008354D01*
X01532Y008352D01*
X015337Y00835D01*
X015356Y00835D01*
X015357D01*
Y008557D01*
D02*
G37*
G36*
X01505D02*
X014843D01*
Y00835D01*
X014844D01*
D01*
X014863Y00835D01*
X01488Y008352D01*
X014895Y008354D01*
X014908Y008358D01*
X014919Y008363D01*
X014928Y008368D01*
X014935Y008375D01*
X01494Y008382D01*
X014943Y00839D01*
X014944Y0084D01*
Y00835D01*
X01505D01*
Y008557D01*
D02*
G37*
G36*
X016007Y008548D02*
X0158D01*
Y008547D01*
X0158D01*
X0158Y008528D01*
X015802Y00851D01*
X015805Y008495D01*
X015808Y008482D01*
X015812Y008471D01*
X015818Y008462D01*
X015825Y008455D01*
X015832Y00845D01*
X015841Y008447D01*
X01585Y008446D01*
X0158D01*
Y008341D01*
X016007D01*
Y008548D01*
D02*
G37*
G36*
X0157D02*
X015493D01*
Y008341D01*
X015494D01*
Y00835D01*
X015513Y00835D01*
X01553Y008352D01*
X015545Y008354D01*
X015558Y008358D01*
X015569Y008363D01*
X015578Y008368D01*
X015585Y008375D01*
X01559Y008382D01*
X015593Y00839D01*
X015594Y0084D01*
Y008341D01*
X0157D01*
Y008446D01*
X01565D01*
X01566Y008447D01*
X015668Y00845D01*
X015675Y008455D01*
X015682Y008462D01*
X015688Y008471D01*
X015692Y008482D01*
X015696Y008495D01*
X015698Y00851D01*
X015699Y008528D01*
X0157Y008547D01*
Y008548D01*
D02*
G37*
G36*
X003608Y023507D02*
X003604Y023506D01*
X003507D01*
Y023416D01*
X003507Y023416D01*
X003504Y023391D01*
X003498Y023369D01*
X003485Y023338D01*
X003464Y023301D01*
X003436Y023257D01*
X003401Y02321D01*
X003247Y023033D01*
X003247Y023033D01*
X0021Y021887D01*
X002044Y021814D01*
X002009Y021728D01*
X001997Y021637D01*
Y019481D01*
X001996Y01943D01*
X001989Y019353D01*
X001978Y019286D01*
X001963Y019232D01*
X001946Y019191D01*
X001928Y019162D01*
X001911Y019143D01*
X001894Y019132D01*
X001875Y019125D01*
X001839Y019121D01*
X001839Y019121D01*
X001552D01*
Y015417D01*
X003497D01*
Y014406D01*
X0022D01*
Y01345D01*
Y012596D01*
X00225D01*
X002241Y012595D01*
X002232Y012592D01*
X002225Y012587D01*
X002218Y01258D01*
X002212Y012571D01*
X002208Y01256D01*
X002204Y012547D01*
X002202Y012531D01*
X002201Y012514D01*
X0022Y012495D01*
Y012494D01*
X002497D01*
Y01015D01*
X002509Y010091D01*
X002542Y010042D01*
X002992Y009592D01*
X003041Y009559D01*
X0031Y009547D01*
X006638D01*
X006657Y009501D01*
X006628Y009472D01*
X006606Y009439D01*
X006598Y0094D01*
Y009003D01*
X003184D01*
X003093Y008991D01*
X003008Y008956D01*
X002935Y0089D01*
X002642Y008607D01*
X002586Y008534D01*
X00255Y008448D01*
X002538Y008357D01*
Y007125D01*
X002537Y007075D01*
X00253Y006997D01*
X002519Y00693D01*
X002505Y006876D01*
X002488Y006835D01*
X00247Y006806D01*
X002452Y006787D01*
X002435Y006776D01*
X002416Y006769D01*
X002381Y006765D01*
X00238Y006765D01*
X00228D01*
Y005935D01*
X00239D01*
X002416Y005932D01*
X002435Y005926D01*
X002452Y005914D01*
X00247Y005895D01*
X002488Y005866D01*
X002505Y005824D01*
X002519Y00577D01*
X00253Y005704D01*
X002537Y005626D01*
X002538Y005575D01*
Y004737D01*
X00255Y004645D01*
X002586Y00456D01*
X002642Y004487D01*
X003181Y003948D01*
Y002929D01*
X003176Y002614D01*
X00317Y002532D01*
X003167Y002509D01*
X003166Y002502D01*
X003165Y0025D01*
X003153Y002483D01*
X003134Y002386D01*
Y002091D01*
X003153Y001994D01*
X003208Y001912D01*
X00329Y001857D01*
X003387Y001838D01*
X003668D01*
X003692Y001824D01*
X003736Y001794D01*
X003896Y00166D01*
X003907Y001649D01*
X00449Y001067D01*
X004539Y001033D01*
X004598Y001022D01*
X008773D01*
Y000917D01*
X009287D01*
Y001022D01*
X009723D01*
Y000917D01*
X010237D01*
Y001022D01*
X010835D01*
Y000646D01*
X011665D01*
Y002027D01*
X010835D01*
Y001328D01*
X010237D01*
Y001432D01*
X009723D01*
Y001328D01*
X009287D01*
Y001432D01*
X008773D01*
Y001328D01*
X004661D01*
X004123Y001866D01*
X004112Y001877D01*
X004016Y001987D01*
X003979Y002035D01*
X003949Y00208D01*
X003934Y002104D01*
Y002386D01*
X003915Y002483D01*
X00391Y00249D01*
X003887Y002972D01*
Y004094D01*
X003875Y004185D01*
X00384Y00427D01*
X003784Y004343D01*
X003244Y004883D01*
Y005575D01*
X003246Y005626D01*
X003253Y005704D01*
X003264Y00577D01*
X003278Y005824D01*
X003295Y005866D01*
X003313Y005895D01*
X00333Y005914D01*
X003347Y005926D01*
X003367Y005932D01*
X003393Y005935D01*
X003503D01*
Y006765D01*
X003403D01*
X003402Y006765D01*
X003366Y006769D01*
X003347Y006776D01*
X00333Y006787D01*
X003313Y006806D01*
X003295Y006835D01*
X003278Y006876D01*
X003264Y00693D01*
X003253Y006997D01*
X003246Y007075D01*
X003244Y007125D01*
Y008211D01*
X00333Y008297D01*
X0127D01*
X012708Y008298D01*
X01295D01*
X012989Y008306D01*
X013022Y008328D01*
X013044Y008361D01*
X013052Y0084D01*
Y008642D01*
X013053Y00865D01*
X013052Y008658D01*
Y0095D01*
X013094Y009547D01*
X013846D01*
X013856Y009497D01*
X013826Y009485D01*
X013765Y009424D01*
X013732Y009343D01*
Y009281D01*
X013721Y009223D01*
Y009118D01*
X013709Y0091D01*
X013697Y009041D01*
Y007753D01*
X009514D01*
X009512Y007753D01*
X009509Y007754D01*
X009507Y007754D01*
X009506Y007755D01*
X009506Y007755D01*
X009504Y007757D01*
X009497Y007762D01*
X009474Y007785D01*
X009393Y007818D01*
X009324D01*
X009275Y007828D01*
X003904D01*
X003885Y007874D01*
X003824Y007935D01*
X003743Y007968D01*
X003657D01*
X003576Y007935D01*
X003515Y007874D01*
X003482Y007793D01*
Y007707D01*
X003515Y007626D01*
X003576Y007565D01*
X003657Y007532D01*
X003726D01*
X003775Y007522D01*
X009146D01*
X009165Y007476D01*
X009226Y007415D01*
X009307Y007382D01*
X009393D01*
X009474Y007415D01*
X009497Y007438D01*
X009504Y007443D01*
X009506Y007445D01*
X009506Y007445D01*
X009507Y007446D01*
X009509Y007446D01*
X009512Y007447D01*
X009514Y007447D01*
X014934D01*
X014944Y007449D01*
X014993D01*
X014997Y007445D01*
Y005914D01*
X014997Y005912D01*
X014996Y005909D01*
X014996Y005907D01*
X014995Y005906D01*
X014995Y005906D01*
X014993Y005904D01*
X014988Y005897D01*
X014965Y005874D01*
X014932Y005793D01*
Y005707D01*
X014965Y005626D01*
X014988Y005603D01*
X014993Y005596D01*
X014995Y005594D01*
X014995Y005594D01*
X014996Y005593D01*
X014996Y005591D01*
X014997Y005588D01*
X014997Y005586D01*
Y001743D01*
X014987Y001737D01*
X014937Y001764D01*
Y002023D01*
X01473D01*
Y002022D01*
X01475D01*
X01475Y002002D01*
X014752Y001985D01*
X014755Y00197D01*
X014758Y001957D01*
X014763Y001946D01*
X014768Y001937D01*
X014775Y001929D01*
X014782Y001924D01*
X014791Y001921D01*
X0148Y00192D01*
X01473D01*
Y001765D01*
Y001483D01*
X014739Y001461D01*
X014715Y001432D01*
X014423D01*
Y001328D01*
X014237D01*
Y001432D01*
X013945D01*
X013922Y001458D01*
X01393Y00148D01*
Y001715D01*
X013723D01*
Y00154D01*
X013723Y001508D01*
X01368Y00149D01*
X013465D01*
Y002027D01*
X012635D01*
Y000646D01*
X013465D01*
Y001184D01*
X013723D01*
Y000917D01*
X014237D01*
Y001022D01*
X014423D01*
Y000917D01*
X014937D01*
Y001084D01*
X015364D01*
Y00092D01*
X016036D01*
Y001553D01*
X015364D01*
Y00139D01*
X015176D01*
X015157Y001436D01*
X015258Y001537D01*
X015291Y001586D01*
X015303Y001645D01*
Y005586D01*
X015303Y005588D01*
X015304Y005591D01*
X015304Y005593D01*
X015305Y005594D01*
X015305Y005594D01*
X015307Y005596D01*
X015312Y005603D01*
X015335Y005626D01*
X015368Y005707D01*
Y005793D01*
X015335Y005874D01*
X015312Y005897D01*
X015307Y005904D01*
X015305Y005906D01*
X015305Y005906D01*
X015304Y005907D01*
X015304Y005909D01*
X015303Y005912D01*
X015303Y005914D01*
Y007452D01*
X015357D01*
Y007547D01*
X015493D01*
Y007443D01*
X015597D01*
Y00725D01*
X015609Y007191D01*
X015642Y007142D01*
X015892Y006892D01*
X015941Y006859D01*
X016Y006847D01*
X016647D01*
Y004912D01*
X016578D01*
Y003688D01*
X016997D01*
Y002126D01*
X016995Y002117D01*
X01699Y002104D01*
X016983Y002087D01*
X016972Y002068D01*
X016958Y002046D01*
X016941Y002024D01*
X016893Y001969D01*
X016864Y001939D01*
X016859Y001931D01*
X016826Y001899D01*
X016772Y001806D01*
X016745Y001703D01*
Y001597D01*
X016772Y001494D01*
X016826Y001401D01*
X016901Y001326D01*
X016994Y001272D01*
X017097Y001245D01*
X017203D01*
X017306Y001272D01*
X017399Y001326D01*
X017474Y001401D01*
X017528Y001494D01*
X017555Y001597D01*
Y001703D01*
X017528Y001806D01*
X017474Y001899D01*
X017441Y001931D01*
X017436Y001939D01*
X017407Y001969D01*
X017359Y002024D01*
X017342Y002046D01*
X017328Y002068D01*
X017317Y002087D01*
X01731Y002104D01*
X017305Y002117D01*
X017303Y002126D01*
Y003658D01*
X017312Y003666D01*
X01733Y003681D01*
X017336Y003685D01*
X017341Y003688D01*
X017345Y00369D01*
X017347Y003691D01*
X017351Y003692D01*
X017351Y003692D01*
X017352D01*
X017359Y003695D01*
X017387Y003701D01*
X01746Y00375D01*
X01751Y003823D01*
X017525Y003898D01*
X017575D01*
X01759Y003823D01*
X01764Y00375D01*
X017646Y003746D01*
X017647Y003728D01*
Y001984D01*
X017659Y001926D01*
X017692Y001876D01*
X017729Y001839D01*
Y001245D01*
X018539D01*
Y002055D01*
X017953D01*
Y003732D01*
X017954Y003742D01*
X017954Y003745D01*
X01796Y00375D01*
X01801Y003823D01*
X018025Y003898D01*
X018075D01*
X01809Y003823D01*
X01814Y00375D01*
X018146Y003746D01*
X018147Y003728D01*
Y00325D01*
X018159Y003191D01*
X018192Y003142D01*
X019792Y001542D01*
X019841Y001509D01*
X0199Y001497D01*
X019915D01*
X019919Y001497D01*
X019925Y001495D01*
X019929Y001494D01*
X019931Y001493D01*
X019984Y001401D01*
X020059Y001326D01*
X020152Y001272D01*
X020255Y001245D01*
X020361D01*
X020464Y001272D01*
X020557Y001326D01*
X020632Y001401D01*
X020685Y001494D01*
X020713Y001597D01*
Y00165D01*
X020763Y001671D01*
X020787Y001646D01*
X020837Y001613D01*
X020887Y001603D01*
Y001245D01*
X021697D01*
Y002055D01*
X020887D01*
Y002045D01*
X020841Y002025D01*
X019218Y003649D01*
X019242Y003695D01*
X0193Y003683D01*
X019387Y003701D01*
X01946Y00375D01*
X01951Y003823D01*
X019525Y003898D01*
X019575D01*
X01959Y003823D01*
X01964Y00375D01*
X019713Y003701D01*
X0198Y003683D01*
X019887Y003701D01*
X01996Y00375D01*
X02001Y003823D01*
X020025Y003898D01*
X020075D01*
X02009Y003823D01*
X02014Y00375D01*
X020213Y003701D01*
X0203Y003683D01*
X020387Y003701D01*
X02046Y00375D01*
X02051Y003823D01*
X020525Y003898D01*
X020575D01*
X02059Y003823D01*
X02064Y00375D01*
X020713Y003701D01*
X0208Y003683D01*
X020887Y003701D01*
X02096Y00375D01*
X02101Y003823D01*
X021025Y003898D01*
X021075D01*
X02109Y003823D01*
X02114Y00375D01*
X021213Y003701D01*
X02125Y003693D01*
Y0043D01*
Y004758D01*
X021201D01*
X02121Y004759D01*
X021219Y004764D01*
X021226Y004771D01*
X021232Y004781D01*
X021238Y004794D01*
X021242Y004809D01*
X021246Y004828D01*
X021248Y004849D01*
X02125Y004873D01*
X02125Y0049D01*
Y004907D01*
X021213Y004899D01*
X02114Y00485D01*
X02109Y004777D01*
X021075Y004702D01*
X021025D01*
X02101Y004777D01*
X02096Y00485D01*
X020887Y004899D01*
X0208Y004917D01*
X020713Y004899D01*
X02064Y00485D01*
X02059Y004777D01*
X020575Y004702D01*
X020525D01*
X02051Y004777D01*
X02046Y00485D01*
X020387Y004899D01*
X0203Y004917D01*
X020213Y004899D01*
X02014Y00485D01*
X02009Y004777D01*
X020075Y004702D01*
X020025D01*
X02001Y004777D01*
X01996Y00485D01*
X019887Y004899D01*
X0198Y004917D01*
X019713Y004899D01*
X01964Y00485D01*
X01959Y004777D01*
X019575Y004702D01*
X019525D01*
X01951Y004777D01*
X01946Y00485D01*
X019387Y004899D01*
X0193Y004917D01*
X019213Y004899D01*
X01914Y00485D01*
X01909Y004777D01*
X019075Y004702D01*
X019025D01*
X01901Y004777D01*
X01896Y00485D01*
X018887Y004899D01*
X0188Y004917D01*
X018713Y004899D01*
X01864Y00485D01*
X01859Y004777D01*
X018575Y004702D01*
X018525D01*
X01851Y004777D01*
X01846Y00485D01*
X018387Y004899D01*
X0183Y004917D01*
X018213Y004899D01*
X01814Y00485D01*
X01809Y004777D01*
X018075Y004702D01*
X018025D01*
X01801Y004777D01*
X01796Y00485D01*
X017887Y004899D01*
X0178Y004917D01*
X017713Y004899D01*
X01764Y00485D01*
X01759Y004777D01*
X017575Y004702D01*
X017525D01*
X01751Y004777D01*
X01746Y00485D01*
X017387Y004899D01*
X0173Y004917D01*
X017213Y004899D01*
X01714Y00485D01*
X01709Y004777D01*
X017073Y00469D01*
Y00391D01*
X017072Y00391D01*
X017022Y003935D01*
Y004912D01*
X016953D01*
Y007D01*
Y007326D01*
X016954Y007337D01*
X016954Y00734D01*
X01696Y007345D01*
X01701Y007418D01*
X017025Y007493D01*
X017075D01*
X01709Y007418D01*
X01714Y007345D01*
X017213Y007295D01*
X01725Y007288D01*
Y007294D01*
X01725D01*
X01725Y007322D01*
X017246Y007367D01*
X017242Y007386D01*
X017238Y007401D01*
X017232Y007414D01*
X017226Y007424D01*
X017219Y007431D01*
X01721Y007435D01*
X017201Y007437D01*
X01725D01*
Y007895D01*
Y008334D01*
X017179Y008266D01*
X017185Y008273D01*
X017188Y008282D01*
X017188Y008292D01*
X017186Y008303D01*
X017181Y008316D01*
X017173Y00833D01*
X017163Y008345D01*
X01715Y008361D01*
X017134Y008379D01*
X017116Y008398D01*
X017186Y008469D01*
X017206Y00845D01*
X017241Y008421D01*
X01725Y008415D01*
Y008502D01*
X017213Y008494D01*
X01714Y008445D01*
X01709Y008372D01*
X017075Y008296D01*
X017025D01*
X01701Y008372D01*
X01696Y008445D01*
X016887Y008494D01*
X0168Y008512D01*
X016713Y008494D01*
X01664Y008445D01*
X01659Y008372D01*
X016573Y008285D01*
Y007505D01*
X01659Y007418D01*
X01664Y007345D01*
X016646Y007341D01*
X016647Y007323D01*
Y007153D01*
X016063D01*
X015903Y007313D01*
Y007443D01*
X016007D01*
Y007957D01*
X015493D01*
Y007853D01*
X015357D01*
Y007967D01*
X014843D01*
Y007753D01*
X014003D01*
Y008989D01*
X014015Y009006D01*
X014026Y009065D01*
Y009096D01*
X014074Y009115D01*
X014135Y009176D01*
X014168Y009257D01*
Y009343D01*
X014135Y009424D01*
X014074Y009485D01*
X014044Y009497D01*
X014054Y009547D01*
X016837D01*
X017647Y008737D01*
Y008463D01*
X017646Y008453D01*
X017646Y008449D01*
X01764Y008445D01*
X01759Y008372D01*
X017575Y008296D01*
X017525D01*
X01751Y008372D01*
X01746Y008445D01*
X017387Y008494D01*
X01735Y008502D01*
Y007895D01*
Y007437D01*
X017399D01*
X01739Y007435D01*
X017381Y007431D01*
X017374Y007424D01*
X017368Y007414D01*
X017362Y007401D01*
X017358Y007386D01*
X017354Y007367D01*
X017352Y007346D01*
X01735Y007322D01*
X01735Y007294D01*
Y007288D01*
X017387Y007295D01*
X01746Y007345D01*
X01751Y007418D01*
X017525Y007493D01*
X017575D01*
X01759Y007418D01*
X01764Y007345D01*
X017713Y007295D01*
X0178Y007278D01*
X017887Y007295D01*
X01796Y007345D01*
X01801Y007418D01*
X018025Y007493D01*
X018075D01*
X01809Y007418D01*
X01814Y007345D01*
X018213Y007295D01*
X0183Y007278D01*
X018387Y007295D01*
X01846Y007345D01*
X01851Y007418D01*
X018525Y007493D01*
X018575D01*
X01859Y007418D01*
X01864Y007345D01*
X018713Y007295D01*
X0188Y007278D01*
X018887Y007295D01*
X01896Y007345D01*
X01901Y007418D01*
X019025Y007493D01*
X019075D01*
X01909Y007418D01*
X01914Y007345D01*
X019213Y007295D01*
X0193Y007278D01*
X019387Y007295D01*
X01946Y007345D01*
X01951Y007418D01*
X019525Y007493D01*
X019575D01*
X01959Y007418D01*
X01964Y007345D01*
X019713Y007295D01*
X0198Y007278D01*
X019887Y007295D01*
X01996Y007345D01*
X02001Y007418D01*
X020025Y007493D01*
X020075D01*
X02009Y007418D01*
X02014Y007345D01*
X020213Y007295D01*
X0203Y007278D01*
X020387Y007295D01*
X02046Y007345D01*
X02051Y007418D01*
X020525Y007493D01*
X020575D01*
X02059Y007418D01*
X02064Y007345D01*
X020713Y007295D01*
X0208Y007278D01*
X020887Y007295D01*
X02096Y007345D01*
X02101Y007418D01*
X021025Y007493D01*
X021075D01*
X02109Y007418D01*
X02114Y007345D01*
X021213Y007295D01*
X0213Y007278D01*
X021387Y007295D01*
X02146Y007345D01*
X02151Y007418D01*
X021527Y007505D01*
Y008285D01*
X02151Y008372D01*
X02146Y008445D01*
X021387Y008494D01*
X0213Y008512D01*
X021213Y008494D01*
X02114Y008445D01*
X02109Y008372D01*
X021075Y008296D01*
X021025D01*
X02101Y008372D01*
X02096Y008445D01*
X020887Y008494D01*
X0208Y008512D01*
X020713Y008494D01*
X02064Y008445D01*
X02059Y008372D01*
X020575Y008296D01*
X020525D01*
X02051Y008372D01*
X02046Y008445D01*
X020387Y008494D01*
X0203Y008512D01*
X020213Y008494D01*
X02014Y008445D01*
X02009Y008372D01*
X020075Y008296D01*
X020025D01*
X02001Y008372D01*
X01996Y008445D01*
X019887Y008494D01*
X0198Y008512D01*
X019713Y008494D01*
X01964Y008445D01*
X01959Y008372D01*
X019575Y008296D01*
X019525D01*
X01951Y008372D01*
X01946Y008445D01*
X019454Y008449D01*
X019453Y008467D01*
Y008537D01*
X020808Y009892D01*
X020841Y009941D01*
X020853Y01D01*
Y012494D01*
X021047D01*
Y012274D01*
X021059Y012216D01*
X021092Y012166D01*
X02137Y011888D01*
Y011883D01*
X021373Y011868D01*
Y011616D01*
X021927D01*
Y012033D01*
X021649D01*
X021631Y01206D01*
X021353Y012338D01*
Y012494D01*
X022047D01*
Y012033D01*
X022023D01*
Y011936D01*
X022022Y011932D01*
X022023Y011928D01*
Y011616D01*
X022577D01*
Y011841D01*
X022627Y011862D01*
X022648Y011841D01*
X022663Y011825D01*
X022673Y011813D01*
Y011616D01*
X023227D01*
X023227Y011616D01*
X023274Y011608D01*
X023313Y011557D01*
Y011539D01*
X023315D01*
X023335Y011513D01*
X023313Y011463D01*
X023313D01*
Y011256D01*
X023314D01*
Y011304D01*
X023333Y011304D01*
X02335Y011306D01*
X023365Y011308D01*
X023378Y011312D01*
X02339Y011316D01*
X023399Y011322D01*
X023406Y011328D01*
X023411Y011336D01*
X023414Y011344D01*
X023415Y011354D01*
Y011256D01*
X02357D01*
X023726D01*
Y011306D01*
X023727Y011296D01*
X02373Y011288D01*
X023735Y01128D01*
X023742Y011274D01*
X023751Y011268D01*
X023762Y011264D01*
X023775Y01126D01*
X02379Y011258D01*
X023807Y011256D01*
X023826Y011256D01*
Y011256D01*
X023827D01*
Y011397D01*
X023913D01*
Y011256D01*
X023914D01*
Y011256D01*
X023933Y011256D01*
X02395Y011258D01*
X023965Y01126D01*
X023978Y011264D01*
X02399Y011268D01*
X023999Y011274D01*
X024006Y01128D01*
X024011Y011288D01*
X024014Y011296D01*
X024015Y011306D01*
Y011256D01*
X02417D01*
Y011206D01*
X02422D01*
Y011051D01*
X02425D01*
X024241Y01105D01*
X024232Y011047D01*
X024225Y011042D01*
X02422Y011037D01*
Y010948D01*
X024427D01*
X024447Y010906D01*
Y00905D01*
Y009002D01*
X0243D01*
X024261Y008994D01*
X024228Y008972D01*
X024206Y008939D01*
X024198Y0089D01*
Y008732D01*
X024182Y008693D01*
Y008607D01*
X024198Y008568D01*
Y0085D01*
X024206Y008461D01*
X024228Y008428D01*
X024328Y008328D01*
X024361Y008306D01*
X0244Y008298D01*
X024792Y008298D01*
X0248Y008297D01*
X024808Y008298D01*
X02495D01*
X024989Y008306D01*
X025022Y008328D01*
X025122Y008428D01*
X025144Y008461D01*
X025152Y0085D01*
Y008642D01*
X025153Y00865D01*
Y00905D01*
Y011457D01*
X025141Y011548D01*
X025106Y011634D01*
X02505Y011707D01*
X024757Y012D01*
X024684Y012056D01*
X024598Y012091D01*
X024507Y012103D01*
X023902D01*
Y0122D01*
X023894Y012239D01*
X023872Y012272D01*
X023467Y012677D01*
Y014406D01*
X021853D01*
Y015417D01*
X023798D01*
Y019121D01*
X021311D01*
X021311Y019121D01*
X021275Y019125D01*
X021256Y019132D01*
X021239Y019143D01*
X021222Y019162D01*
X021204Y019191D01*
X021187Y019232D01*
X021172Y019286D01*
X021161Y019353D01*
X021154Y01943D01*
X021153Y019481D01*
Y023092D01*
X021156Y023103D01*
Y023197D01*
X021132Y023287D01*
X021085Y023369D01*
X021019Y023435D01*
X020937Y023482D01*
X020847Y023506D01*
X020753D01*
X020663Y023482D01*
X020581Y023435D01*
X020515Y023369D01*
X020468Y023287D01*
X020444Y023197D01*
Y023103D01*
X020447Y023092D01*
Y019481D01*
X020446Y01943D01*
X020439Y019353D01*
X020428Y019286D01*
X020413Y019232D01*
X020396Y019191D01*
X020378Y019162D01*
X020361Y019143D01*
X020344Y019132D01*
X020325Y019125D01*
X020289Y019121D01*
X020289Y019121D01*
X019602D01*
Y015417D01*
X021547D01*
Y014406D01*
X02025D01*
Y01345D01*
Y012596D01*
X0203D01*
X020291Y012595D01*
X020282Y012592D01*
X020275Y012587D01*
X020268Y01258D01*
X020262Y012571D01*
X020258Y01256D01*
X020254Y012547D01*
X020252Y012531D01*
X02025Y012514D01*
X02025Y012495D01*
Y012494D01*
X020547D01*
Y010063D01*
X019192Y008708D01*
X019159Y008659D01*
X019147Y0086D01*
Y008463D01*
X019146Y008453D01*
X019146Y008449D01*
X01914Y008445D01*
X01909Y008372D01*
X019075Y008296D01*
X019025D01*
X01901Y008372D01*
X01896Y008445D01*
X018954Y008449D01*
X018953Y008467D01*
Y00855D01*
X018941Y008609D01*
X018908Y008658D01*
X017308Y010258D01*
X017259Y010291D01*
X0172Y010303D01*
X015663D01*
X015303Y010663D01*
Y012494D01*
X015497D01*
Y0122D01*
X015509Y012141D01*
X015542Y012092D01*
X01562Y012014D01*
Y011883D01*
X015623Y011868D01*
Y011616D01*
X016177D01*
Y012033D01*
X015926D01*
Y012077D01*
X015914Y012136D01*
X015881Y012185D01*
X015803Y012263D01*
Y012494D01*
X016497D01*
Y012033D01*
X016323D01*
Y011616D01*
X016877D01*
Y012033D01*
X016803D01*
Y012494D01*
X017097D01*
Y012033D01*
X016973D01*
Y011616D01*
X017527D01*
X017527Y011616D01*
X017574Y011608D01*
X017613Y011557D01*
Y011539D01*
X017625D01*
X017649Y011512D01*
X017631Y011463D01*
X017613D01*
Y011256D01*
X017614D01*
Y011304D01*
X017633Y011304D01*
X01765Y011306D01*
X017665Y011308D01*
X017678Y011312D01*
X01769Y011316D01*
X017699Y011322D01*
X017706Y011328D01*
X017711Y011336D01*
X017714Y011344D01*
X017715Y011354D01*
Y011256D01*
X01787D01*
X018026D01*
Y011306D01*
X018027Y011296D01*
X01803Y011288D01*
X018035Y01128D01*
X018042Y011274D01*
X018051Y011268D01*
X018062Y011264D01*
X018075Y01126D01*
X01809Y011258D01*
X018107Y011256D01*
X018126Y011256D01*
Y011256D01*
X018127D01*
Y011443D01*
X018213D01*
Y011256D01*
X018214D01*
Y011256D01*
X018233Y011256D01*
X01825Y011258D01*
X018265Y01126D01*
X018278Y011264D01*
X01829Y011268D01*
X018299Y011274D01*
X018306Y01128D01*
X018311Y011288D01*
X018314Y011296D01*
X018315Y011306D01*
Y011256D01*
X01847D01*
Y011206D01*
X01852D01*
Y011085D01*
X018626Y011191D01*
X018621Y011183D01*
X018618Y011174D01*
Y011163D01*
X018621Y011151D01*
X018626Y011138D01*
X018635Y011123D01*
X018646Y011107D01*
X01866Y011089D01*
X018697Y01105D01*
X018626Y010979D01*
X018606Y010999D01*
X018569Y01103D01*
X018553Y011041D01*
X018538Y01105D01*
X018524Y011055D01*
X01852Y011056D01*
Y010948D01*
X018727D01*
Y010963D01*
X018774Y010982D01*
X018778Y010978D01*
X018811Y010956D01*
X01885Y010948D01*
X0192D01*
X019239Y010956D01*
X019272Y010978D01*
X019322Y011028D01*
X019344Y011061D01*
X019352Y0111D01*
Y011542D01*
X019353Y01155D01*
X019341Y011641D01*
X019306Y011727D01*
X01925Y0118D01*
X019003Y012046D01*
X01893Y012102D01*
X018845Y012137D01*
X018754Y012149D01*
X018152D01*
Y012363D01*
X018149Y012377D01*
X018148Y012391D01*
X018145Y012396D01*
X018144Y012402D01*
X018136Y012413D01*
X01813Y012426D01*
X017917Y012692D01*
Y014406D01*
X016303D01*
Y015417D01*
X018248D01*
Y019121D01*
X017374D01*
X017374Y019121D01*
X017338Y019125D01*
X017319Y019132D01*
X017302Y019143D01*
X017285Y019162D01*
X017267Y019191D01*
X01725Y019232D01*
X017235Y019286D01*
X017224Y019353D01*
X017217Y01943D01*
X017216Y019481D01*
Y022564D01*
X017217Y022794D01*
X017219D01*
Y022891D01*
X01722Y022895D01*
X017219Y022899D01*
Y023506D01*
X016507D01*
Y022899D01*
X016506Y022895D01*
X016506Y022895D01*
X016506Y022894D01*
X016507Y022814D01*
Y022794D01*
X016507D01*
X01651Y022508D01*
Y019481D01*
X016509Y01943D01*
X016502Y019353D01*
X016491Y019286D01*
X016476Y019232D01*
X016459Y019191D01*
X016441Y019162D01*
X016424Y019143D01*
X016407Y019132D01*
X016388Y019125D01*
X016352Y019121D01*
X016352Y019121D01*
X014052D01*
Y015417D01*
X015997D01*
Y014406D01*
X0147D01*
Y01345D01*
Y012596D01*
X01475D01*
X014741Y012595D01*
X014732Y012592D01*
X014725Y012587D01*
X014718Y01258D01*
X014713Y012571D01*
X014708Y01256D01*
X014705Y012547D01*
X014702Y012531D01*
X0147Y012514D01*
X0147Y012495D01*
Y012494D01*
X014997D01*
Y0106D01*
X015009Y010541D01*
X015042Y010492D01*
X015435Y010099D01*
X015415Y010053D01*
X009213D01*
X008436Y010831D01*
Y012494D01*
X008747D01*
Y012156D01*
X008759Y012097D01*
X008792Y012047D01*
X008998Y011841D01*
X009013Y011825D01*
X009023Y011813D01*
Y011616D01*
X009577D01*
Y012033D01*
X009243D01*
X009218Y012053D01*
X009053Y012219D01*
Y012494D01*
X009747D01*
Y0122D01*
X009759Y012141D01*
X009792Y012092D01*
X009801Y012083D01*
X00978Y012033D01*
X009723D01*
Y011616D01*
X010277D01*
Y011891D01*
X010327Y011912D01*
X010398Y011841D01*
X010413Y011825D01*
X010423Y011813D01*
Y011616D01*
X010977D01*
X010977Y011616D01*
X011024Y011608D01*
X011063Y011557D01*
Y011539D01*
X011075D01*
X011099Y011512D01*
X011081Y011463D01*
X011063D01*
Y011256D01*
X011064D01*
Y011304D01*
X011083Y011304D01*
X0111Y011306D01*
X011115Y011308D01*
X011128Y011312D01*
X01114Y011316D01*
X011149Y011322D01*
X011156Y011328D01*
X011161Y011336D01*
X011164Y011344D01*
X011165Y011354D01*
Y011256D01*
X01132D01*
X011476D01*
Y011306D01*
X011477Y011296D01*
X01148Y011288D01*
X011485Y01128D01*
X011492Y011274D01*
X011501Y011268D01*
X011512Y011264D01*
X011525Y01126D01*
X01154Y011258D01*
X011557Y011256D01*
X011576Y011256D01*
Y011256D01*
X011577D01*
Y011443D01*
X011693D01*
Y011256D01*
X011694D01*
Y011256D01*
X011713Y011256D01*
X01173Y011258D01*
X011745Y01126D01*
X011758Y011264D01*
X01177Y011268D01*
X011779Y011274D01*
X011786Y01128D01*
X011791Y011288D01*
X011794Y011296D01*
X011795Y011306D01*
Y011256D01*
X01195D01*
X012207D01*
Y011447D01*
X012348D01*
Y01095D01*
X012356Y010911D01*
X012378Y010878D01*
X012411Y010856D01*
X01245Y010848D01*
X01295D01*
X012989Y010856D01*
X013022Y010878D01*
X013044Y010911D01*
X013052Y01095D01*
Y011792D01*
X013053Y0118D01*
X013041Y011891D01*
X013006Y011977D01*
X01295Y01205D01*
X012877Y012106D01*
X012791Y012141D01*
X0127Y012153D01*
X011954D01*
X011927Y012149D01*
X011602D01*
Y01225D01*
X011594Y012289D01*
X011572Y012322D01*
X011167Y012727D01*
Y014406D01*
X009553D01*
Y015417D01*
X011498D01*
Y019121D01*
X009911D01*
X009911Y019121D01*
X009875Y019125D01*
X009856Y019132D01*
X009839Y019143D01*
X009822Y019162D01*
X009804Y019191D01*
X009787Y019232D01*
X009772Y019286D01*
X009761Y019353D01*
X009754Y01943D01*
X009753Y019481D01*
Y02D01*
X009741Y020091D01*
X009706Y020177D01*
X00965Y02025D01*
X008153Y021746D01*
Y023092D01*
X008156Y023103D01*
Y023197D01*
X008132Y023287D01*
X008085Y023369D01*
X008019Y023435D01*
X007937Y023482D01*
X007847Y023506D01*
X007753D01*
X007663Y023482D01*
X007581Y023435D01*
X007515Y023369D01*
X007468Y023287D01*
X007444Y023197D01*
Y023103D01*
X007447Y023092D01*
Y0216D01*
X007459Y021509D01*
X007494Y021423D01*
X00755Y02135D01*
X009047Y019854D01*
Y019481D01*
X009046Y01943D01*
X009039Y019353D01*
X009028Y019286D01*
X009013Y019232D01*
X008996Y019191D01*
X008978Y019162D01*
X008961Y019143D01*
X008944Y019132D01*
X008925Y019125D01*
X008889Y019121D01*
X008889Y019121D01*
X007302D01*
Y015417D01*
X009247D01*
Y014406D01*
X00795D01*
Y01345D01*
Y012596D01*
X008D01*
X00799Y012595D01*
X007982Y012592D01*
X007975Y012587D01*
X007968Y01258D01*
X007962Y012571D01*
X007958Y01256D01*
X007954Y012547D01*
X007952Y012531D01*
X007951Y012514D01*
X00795Y012495D01*
Y012494D01*
X00813D01*
Y010767D01*
X008141Y010709D01*
X008175Y010659D01*
X008935Y009899D01*
X008915Y009853D01*
X003163D01*
X002803Y010213D01*
Y012494D01*
X002997D01*
Y012456D01*
X003009Y012397D01*
X003042Y012347D01*
X003548Y011841D01*
X003563Y011825D01*
X003573Y011813D01*
Y011616D01*
X004127D01*
Y011916D01*
X004173Y011935D01*
X00422Y011888D01*
Y011883D01*
X004223Y011868D01*
Y011616D01*
X004777D01*
Y011847D01*
X004823Y011866D01*
X004848Y011841D01*
X004863Y011825D01*
X004873Y011813D01*
Y011616D01*
X005427D01*
X005467Y011591D01*
X005493Y011557D01*
Y011539D01*
X005505D01*
X005529Y011512D01*
X005511Y011463D01*
X005493D01*
Y011256D01*
X005494D01*
Y011304D01*
X005513Y011304D01*
X00553Y011306D01*
X005545Y011308D01*
X005558Y011312D01*
X00557Y011316D01*
X005579Y011322D01*
X005586Y011328D01*
X005591Y011336D01*
X005594Y011344D01*
X005595Y011354D01*
Y011256D01*
X00575D01*
X005906D01*
Y011306D01*
X005907Y011296D01*
X00591Y011288D01*
X005915Y01128D01*
X005922Y011274D01*
X005931Y011268D01*
X005942Y011264D01*
X005955Y01126D01*
X00597Y011258D01*
X005987Y011256D01*
X006006Y011256D01*
Y011256D01*
X006007D01*
Y011443D01*
X006093D01*
Y011256D01*
X006094D01*
Y011256D01*
X006113Y011256D01*
X00613Y011258D01*
X006145Y01126D01*
X006158Y011264D01*
X00617Y011268D01*
X006179Y011274D01*
X006186Y01128D01*
X006191Y011288D01*
X006194Y011296D01*
X006195Y011306D01*
Y011256D01*
X00635D01*
Y011206D01*
X0064D01*
Y011051D01*
X0064D01*
X0064D01*
Y010948D01*
X006607D01*
Y011079D01*
X006655Y011095D01*
X006768Y01094D01*
X006773Y010935D01*
X006778Y010928D01*
X006788Y010921D01*
X006797Y010913D01*
X006804Y01091D01*
X006811Y010906D01*
X006823Y010903D01*
X006834Y010899D01*
X006842Y0109D01*
X00685Y010898D01*
X00735D01*
X007389Y010906D01*
X007422Y010928D01*
X007572Y011078D01*
X007594Y011111D01*
X007602Y01115D01*
Y01185D01*
X007601Y011854D01*
X007602Y011857D01*
X007597Y011873D01*
X007594Y011889D01*
X007592Y011892D01*
X007591Y011896D01*
X007491Y012096D01*
X007481Y012109D01*
X007472Y012122D01*
X007469Y012124D01*
X007467Y012127D01*
X007453Y012135D01*
X007439Y012144D01*
X007435Y012145D01*
X007432Y012147D01*
X007416Y012149D01*
X0074Y012152D01*
X00645D01*
X006438Y012149D01*
X00635D01*
X006345Y012149D01*
X005869D01*
X005417Y01267D01*
Y014406D01*
X003803D01*
Y015417D01*
X005748D01*
Y019121D01*
X002861D01*
X002861Y019121D01*
X002825Y019125D01*
X002806Y019132D01*
X002789Y019143D01*
X002772Y019162D01*
X002754Y019191D01*
X002737Y019232D01*
X002722Y019286D01*
X002711Y019353D01*
X002704Y01943D01*
X002703Y019481D01*
Y021491D01*
X003712Y022499D01*
X00381Y022593D01*
X003923Y022688D01*
X00397Y022723D01*
X004014Y022751D01*
X004051Y022772D01*
X004082Y022785D01*
X004104Y022791D01*
X004129Y022794D01*
X004129Y022794D01*
X004219D01*
Y022891D01*
X00422Y022895D01*
X004219Y022899D01*
Y022904D01*
X004219Y022906D01*
X004219Y022907D01*
Y023506D01*
X00362D01*
X003619Y023506D01*
X003617Y023506D01*
X003612D01*
X003608Y023507D01*
D02*
G37*
G36*
X0157Y008241D02*
X015594D01*
Y0082D01*
X015593Y008209D01*
X01559Y008218D01*
X015585Y008225D01*
X015578Y008232D01*
X015569Y008238D01*
X015561Y008241D01*
X015493D01*
Y008033D01*
X0157D01*
Y008241D01*
D02*
G37*
G36*
X015357Y00825D02*
X015356D01*
D01*
X015337Y008249D01*
X01532Y008248D01*
X015305Y008245D01*
X015292Y008242D01*
X01528Y008238D01*
X015271Y008232D01*
X015264Y008225D01*
X015259Y008218D01*
X015256Y008209D01*
X015255Y0082D01*
Y00825D01*
X01515D01*
Y008043D01*
X015357D01*
Y00825D01*
D02*
G37*
G36*
X01505D02*
X014944D01*
Y0082D01*
X014943Y008209D01*
X01494Y008218D01*
X014935Y008225D01*
X014928Y008232D01*
X014919Y008238D01*
X014908Y008242D01*
X014895Y008245D01*
X01488Y008248D01*
X014863Y008249D01*
X014844Y00825D01*
X014843D01*
Y008043D01*
X01505D01*
Y00825D01*
D02*
G37*
G36*
X016007Y008241D02*
X0158D01*
Y008033D01*
X016007D01*
Y008241D01*
D02*
G37*
G36*
X00492Y006765D02*
X004359D01*
Y0064D01*
X004818D01*
Y0066D01*
X004819Y00659D01*
X004822Y006582D01*
X004827Y006575D01*
X004834Y006568D01*
X004843Y006562D01*
X004854Y006558D01*
X004868Y006554D01*
X004883Y006552D01*
X0049Y00655D01*
X004919Y00655D01*
Y00645D01*
X0049Y006449D01*
X004883Y006448D01*
X004868Y006446D01*
X004854Y006442D01*
X004843Y006438D01*
X004834Y006432D01*
X004827Y006425D01*
X004822Y006418D01*
X004819Y00641D01*
X004818Y0064D01*
X00492D01*
Y006765D01*
D02*
G37*
G36*
X004259D02*
X003697D01*
Y0064D01*
X004259D01*
Y006765D01*
D02*
G37*
G36*
X00492Y0063D02*
X004359D01*
Y005935D01*
X00492D01*
Y0063D01*
D02*
G37*
G36*
X004259D02*
X003697D01*
Y005935D01*
X004259D01*
Y0063D01*
D02*
G37*
G36*
X021927Y011462D02*
X021373D01*
Y011045D01*
X021651D01*
X021669Y011018D01*
X022647Y01004D01*
Y005914D01*
X022647Y005912D01*
X022646Y005909D01*
X022646Y005907D01*
X022645Y005906D01*
X022645Y005906D01*
X022643Y005904D01*
X022638Y005897D01*
X022615Y005874D01*
X022582Y005793D01*
Y005707D01*
X022615Y005626D01*
X022676Y005565D01*
X022757Y005532D01*
X022843D01*
X022924Y005565D01*
X022985Y005626D01*
X023018Y005707D01*
Y005793D01*
X022985Y005874D01*
X022962Y005897D01*
X022957Y005904D01*
X022955Y005906D01*
X022955Y005906D01*
X022954Y005907D01*
X022954Y005909D01*
X022953Y005912D01*
X022953Y005914D01*
Y010104D01*
X022941Y010162D01*
X022908Y010212D01*
X022121Y010999D01*
X02214Y011045D01*
X02225D01*
Y011204D01*
X022023D01*
Y011162D01*
X021977Y011143D01*
X02193Y01119D01*
Y011195D01*
X021927Y01121D01*
Y011462D01*
D02*
G37*
G36*
X02135Y004907D02*
Y0049D01*
D01*
X02135Y004873D01*
X021354Y004828D01*
X021358Y004809D01*
X021362Y004794D01*
X021368Y004781D01*
X021374Y004771D01*
X021381Y004764D01*
X02139Y004759D01*
X021399Y004758D01*
X02135D01*
Y00435D01*
X021527D01*
Y00469D01*
X02151Y004777D01*
X02146Y00485D01*
X021387Y004899D01*
X02135Y004907D01*
D02*
G37*
G36*
X013392Y005484D02*
X0122D01*
Y004213D01*
X013392D01*
Y005484D01*
D02*
G37*
G36*
X0121D02*
X010908D01*
Y004213D01*
X010909D01*
D01*
X010928Y004214D01*
X010945Y004215D01*
X01096Y004218D01*
X010973Y004221D01*
X010984Y004226D01*
X010993Y004231D01*
X011Y004238D01*
X011005Y004245D01*
X011008Y004254D01*
X011009Y004263D01*
Y004213D01*
X0121D01*
Y005484D01*
D02*
G37*
G36*
Y004113D02*
X011009D01*
Y004063D01*
X011008Y004073D01*
X011005Y004081D01*
X011Y004089D01*
X010993Y004095D01*
X010984Y004101D01*
X010973Y004105D01*
X01096Y004109D01*
X010945Y004111D01*
X010928Y004113D01*
X010909Y004113D01*
X010908D01*
Y002843D01*
X0121D01*
Y004113D01*
D02*
G37*
G36*
X021527Y00425D02*
X02135D01*
Y003693D01*
X021387Y003701D01*
X02146Y00375D01*
X02151Y003823D01*
X021527Y00391D01*
Y00425D01*
D02*
G37*
G36*
X015977Y003644D02*
X01575D01*
Y003643D01*
X01575Y003623D01*
X015752Y003606D01*
X015754Y003591D01*
X015758Y003578D01*
X015762Y003567D01*
X015768Y003557D01*
X015775Y00355D01*
X015782Y003545D01*
X01579Y003542D01*
X0158Y003541D01*
X01575D01*
Y003485D01*
X015977D01*
Y003644D01*
D02*
G37*
G36*
X01565D02*
X015423D01*
Y003485D01*
X01565D01*
Y003541D01*
X0156D01*
X01561Y003542D01*
X015618Y003545D01*
X015625Y00355D01*
X015632Y003557D01*
X015638Y003567D01*
X015642Y003578D01*
X015646Y003591D01*
X015648Y003606D01*
X015649Y003623D01*
X01565Y003643D01*
Y003644D01*
D02*
G37*
G36*
X015977Y003385D02*
X01575D01*
Y003227D01*
X015977D01*
Y003385D01*
D02*
G37*
G36*
X01565D02*
X015423D01*
Y003227D01*
X01565D01*
Y003385D01*
D02*
G37*
G36*
X013392Y004113D02*
X0122D01*
Y002843D01*
X013392D01*
Y004113D01*
D02*
G37*
G36*
X006603Y002629D02*
X006609Y002615D01*
X006623Y00259D01*
X006641Y002564D01*
X006659Y002539D01*
X006689Y002544D01*
X00672Y00255D01*
X006748Y002558D01*
X006762Y002563D01*
X006687Y002607D01*
X006603Y002629D01*
D02*
G37*
G36*
X006859Y002466D02*
X006854Y002452D01*
X006846Y002424D01*
X00684Y002393D01*
X006835Y00236D01*
X00683Y002288D01*
X00693D01*
Y00229D01*
X006903Y002391D01*
X006859Y002466D01*
D02*
G37*
G36*
X006622Y002449D02*
X006584D01*
Y002288D01*
X006782D01*
X006622Y002449D01*
D02*
G37*
G36*
X006465Y002629D02*
X006382Y002607D01*
X006292Y002555D01*
X006218Y002481D01*
X006166Y002391D01*
X006139Y00229D01*
Y002288D01*
X006484D01*
Y002449D01*
X006328D01*
X006357Y002479D01*
X006407Y002537D01*
X006428Y002564D01*
X006445Y00259D01*
X006459Y002615D01*
X006465Y002629D01*
D02*
G37*
G36*
X00693Y002188D02*
X006584D01*
Y001843D01*
X006586D01*
X006687Y00187D01*
X006777Y001922D01*
X006851Y001996D01*
X006903Y002086D01*
X00693Y002186D01*
Y002188D01*
D02*
G37*
G36*
X006484D02*
X006139D01*
Y002186D01*
X006166Y002086D01*
X006218Y001996D01*
X006292Y001922D01*
X006382Y00187D01*
X006482Y001843D01*
X006484D01*
Y002188D01*
D02*
G37*
G36*
X014237Y002023D02*
X01403D01*
Y002022D01*
D01*
X01403Y002002D01*
X014032Y001985D01*
X014035Y00197D01*
X014038Y001957D01*
X014043Y001946D01*
X014048Y001937D01*
X014054Y001929D01*
X014062Y001924D01*
X014071Y001921D01*
X01408Y00192D01*
X01403D01*
Y001815D01*
X014135D01*
Y001865D01*
X014136Y001856D01*
X014139Y001847D01*
X014144Y00184D01*
X014151Y001833D01*
X01416Y001828D01*
X014172Y001823D01*
X014185Y00182D01*
X0142Y001817D01*
X014217Y001816D01*
X014236Y001815D01*
X014237D01*
Y002023D01*
D02*
G37*
G36*
X009287D02*
X00908D01*
Y001815D01*
X009185D01*
Y001865D01*
X009186Y001856D01*
X009189Y001847D01*
X009194Y00184D01*
X009201Y001833D01*
X00921Y001828D01*
X009222Y001823D01*
X009235Y00182D01*
X00925Y001817D01*
X009267Y001816D01*
X009286Y001815D01*
X009287D01*
Y002023D01*
D02*
G37*
G36*
X010237D02*
X01003D01*
Y001959D01*
X010033Y00197D01*
X010035Y001985D01*
X010037Y002002D01*
X010037Y002022D01*
X010137D01*
X010136Y001922D01*
X01003Y001921D01*
Y001815D01*
X010237D01*
Y002023D01*
D02*
G37*
G36*
X01463D02*
X014423D01*
Y001815D01*
X014424D01*
D01*
X014443Y001816D01*
X01446Y001817D01*
X014475Y00182D01*
X014488Y001823D01*
X014499Y001828D01*
X014508Y001833D01*
X014515Y00184D01*
X01452Y001847D01*
X014523Y001856D01*
X014524Y001865D01*
Y001815D01*
X01463D01*
Y00192D01*
X0146D01*
X01461Y001921D01*
X014618Y001924D01*
X014626Y001929D01*
X01463Y001934D01*
Y002023D01*
D02*
G37*
G36*
X00993D02*
X009723D01*
Y001815D01*
X009724D01*
D01*
X009743Y001816D01*
X00976Y001817D01*
X009775Y00182D01*
X009788Y001823D01*
X009799Y001828D01*
X009808Y001833D01*
X009815Y00184D01*
X00982Y001847D01*
X009823Y001856D01*
X009824Y001865D01*
Y001815D01*
X00993D01*
Y002023D01*
D02*
G37*
G36*
X01393D02*
X013723D01*
Y001815D01*
X01393D01*
Y00192D01*
X01388D01*
X013889Y001921D01*
X013898Y001924D01*
X013906Y001929D01*
X013912Y001937D01*
X013917Y001946D01*
X013922Y001957D01*
X013925Y00197D01*
X013928Y001985D01*
X01393Y002002D01*
X01393Y002022D01*
Y002023D01*
D02*
G37*
G36*
X00898D02*
X008773D01*
Y001815D01*
X00898D01*
Y002023D01*
D02*
G37*
G36*
X015977Y003073D02*
X015423D01*
Y002656D01*
X015547D01*
Y00238D01*
X015364D01*
Y001747D01*
X016036D01*
Y00238D01*
X015853D01*
Y002656D01*
X015977D01*
Y003073D01*
D02*
G37*
G36*
X01463Y001715D02*
X014524D01*
Y001665D01*
X014523Y001675D01*
X01452Y001683D01*
X014515Y001691D01*
X014508Y001697D01*
X014499Y001703D01*
X014488Y001707D01*
X014475Y001711D01*
X01446Y001713D01*
X014443Y001715D01*
X014424Y001715D01*
X014423D01*
Y001508D01*
X01463D01*
Y001715D01*
D02*
G37*
G36*
X014237D02*
X014236D01*
D01*
X014217Y001715D01*
X0142Y001713D01*
X014185Y001711D01*
X014172Y001707D01*
X01416Y001703D01*
X014151Y001697D01*
X014144Y001691D01*
X014139Y001683D01*
X014136Y001675D01*
X014135Y001665D01*
Y001715D01*
X01403D01*
Y001508D01*
X014237D01*
Y001715D01*
D02*
G37*
G36*
X00993D02*
X009824D01*
Y001665D01*
X009823Y001675D01*
X00982Y001683D01*
X009815Y001691D01*
X009808Y001697D01*
X009799Y001703D01*
X009788Y001707D01*
X009775Y001711D01*
X00976Y001713D01*
X009743Y001715D01*
X009724Y001715D01*
X009723D01*
Y001508D01*
X00993D01*
Y001715D01*
D02*
G37*
G36*
X009287D02*
X009286D01*
D01*
X009267Y001715D01*
X00925Y001713D01*
X009235Y001711D01*
X009222Y001707D01*
X00921Y001703D01*
X009201Y001697D01*
X009194Y001691D01*
X009189Y001683D01*
X009186Y001675D01*
X009185Y001665D01*
Y001715D01*
X00908D01*
Y001508D01*
X009287D01*
Y001715D01*
D02*
G37*
G36*
X010237D02*
X01003D01*
Y001508D01*
X010237D01*
Y001715D01*
D02*
G37*
G36*
X00898D02*
X008773D01*
Y001508D01*
X00898D01*
Y001715D01*
D02*
G37*
G36*
X024728Y00204D02*
X024572D01*
X02442Y00201D01*
X024276Y00195D01*
X024146Y001864D01*
X024036Y001754D01*
X02395Y001624D01*
X02389Y00148D01*
X02386Y001328D01*
Y001172D01*
X02389Y00102D01*
X02395Y000876D01*
X024036Y000746D01*
X024146Y000636D01*
X024276Y00055D01*
X02442Y00049D01*
X024572Y00046D01*
X024728D01*
X02488Y00049D01*
X025024Y00055D01*
X025154Y000636D01*
X025264Y000746D01*
X02535Y000876D01*
X02541Y00102D01*
X02544Y001172D01*
Y001328D01*
X02541Y00148D01*
X02535Y001624D01*
X025264Y001754D01*
X025154Y001864D01*
X025024Y00195D01*
X02488Y00201D01*
X024728Y00204D01*
D02*
G37*
G36*
X001128D02*
X000972D01*
X00082Y00201D01*
X000676Y00195D01*
X000546Y001864D01*
X000436Y001754D01*
X00035Y001624D01*
X00029Y00148D01*
X00026Y001328D01*
Y001172D01*
X00029Y00102D01*
X00035Y000876D01*
X000436Y000746D01*
X000546Y000636D01*
X000676Y00055D01*
X00082Y00049D01*
X000972Y00046D01*
X001128D01*
X00128Y00049D01*
X001424Y00055D01*
X001554Y000636D01*
X001664Y000746D01*
X00175Y000876D01*
X00181Y00102D01*
X00184Y001172D01*
Y001328D01*
X00181Y00148D01*
X00175Y001624D01*
X001664Y001754D01*
X001554Y001864D01*
X001424Y00195D01*
X00128Y00201D01*
X001128Y00204D01*
D02*
G37*
%LPD*%
G36*
X003813Y011146D02*
X003805Y011143D01*
X003797Y011138D01*
X003791Y011131D01*
X003785Y011122D01*
X003781Y011111D01*
X003777Y011098D01*
X003775Y011083D01*
X003773Y011066D01*
X003773Y011047D01*
X003673D01*
X003674Y011147D01*
X003823D01*
X003813Y011146D01*
D02*
G37*
G36*
X003773Y010814D02*
X003765Y010677D01*
X003637Y010767D01*
X003644Y010769D01*
X00365Y010771D01*
X003655Y010775D01*
X00366Y01078D01*
X003664Y010787D01*
X003667Y010794D01*
X00367Y010803D01*
X003671Y010813D01*
X003672Y010824D01*
X003673Y010837D01*
X003773Y010814D01*
D02*
G37*
G36*
X015991Y011146D02*
X015982Y011143D01*
X015975Y011138D01*
X015968Y011131D01*
X015963Y011122D01*
X015958Y011111D01*
X015955Y011098D01*
X015952Y011083D01*
X01595Y011066D01*
X01595Y011047D01*
X01585D01*
X015849Y011066D01*
X015848Y011083D01*
X015846Y011098D01*
X015842Y011111D01*
X015838Y011122D01*
X015832Y011131D01*
X015826Y011138D01*
X015818Y011143D01*
X01581Y011146D01*
X0158Y011147D01*
X016D01*
X015991Y011146D01*
D02*
G37*
G36*
X01595Y010766D02*
X015951Y010754D01*
X015953Y010744D01*
X015955Y010733D01*
X015958Y010724D01*
X015962Y010715D01*
X015966Y010706D01*
X015971Y010698D01*
X015976Y010691D01*
X015983Y010684D01*
X015817D01*
X015824Y010691D01*
X015829Y010698D01*
X015834Y010706D01*
X015838Y010715D01*
X015842Y010724D01*
X015845Y010733D01*
X015847Y010744D01*
X015849Y010754D01*
X01585Y010766D01*
X01585Y010778D01*
X01595D01*
X01595Y010766D01*
D02*
G37*
G36*
X009441Y011146D02*
X009432Y011143D01*
X009424Y011138D01*
X009418Y011131D01*
X009413Y011122D01*
X009408Y011111D01*
X009405Y011098D01*
X009402Y011083D01*
X009401Y011066D01*
X0094Y011047D01*
X0093D01*
X009299Y011066D01*
X009298Y011083D01*
X009295Y011098D01*
X009292Y011111D01*
X009287Y011122D01*
X009282Y011131D01*
X009276Y011138D01*
X009268Y011143D01*
X009259Y011146D01*
X00925Y011147D01*
X00945D01*
X009441Y011146D01*
D02*
G37*
G36*
X0094Y010766D02*
X009401Y010754D01*
X009403Y010744D01*
X009405Y010733D01*
X009408Y010724D01*
X009412Y010715D01*
X009416Y010706D01*
X009421Y010698D01*
X009426Y010691D01*
X009433Y010684D01*
X009267D01*
X009274Y010691D01*
X009279Y010698D01*
X009284Y010706D01*
X009288Y010715D01*
X009292Y010724D01*
X009295Y010733D01*
X009297Y010744D01*
X009299Y010754D01*
X0093Y010766D01*
X0093Y010778D01*
X0094D01*
X0094Y010766D01*
D02*
G37*
G36*
X004118Y022895D02*
X004085Y022892D01*
X004047Y022881D01*
X004006Y022863D01*
X003961Y022839D01*
X003912Y022807D01*
X003859Y022768D01*
X003742Y022669D01*
X003608Y022542D01*
X003255Y022895D01*
X003322Y022964D01*
X003481Y023147D01*
X00352Y023199D01*
X003552Y023248D01*
X003576Y023293D01*
X003594Y023334D01*
X003605Y023372D01*
X003608Y023405D01*
X004118Y022895D01*
D02*
G37*
G36*
X017117Y02289D02*
X017116Y022875D01*
X017113Y022395D01*
X016613D01*
X016608Y022895D01*
X017118D01*
X017117Y02289D01*
D02*
G37*
G36*
X021052Y019425D02*
X02106Y01934D01*
X021072Y019265D01*
X02109Y0192D01*
X021112Y019145D01*
X02114Y0191D01*
X021172Y019065D01*
X02121Y01904D01*
X021253Y019025D01*
X0213Y01902D01*
X0203D01*
X020347Y019025D01*
X02039Y01904D01*
X020427Y019065D01*
X02046Y0191D01*
X020487Y019145D01*
X02051Y0192D01*
X020528Y019265D01*
X02054Y01934D01*
X020547Y019425D01*
X02055Y01952D01*
X02105D01*
X021052Y019425D01*
D02*
G37*
G36*
X017115D02*
X017123Y01934D01*
X017135Y019265D01*
X017153Y0192D01*
X017175Y019145D01*
X017203Y0191D01*
X017235Y019065D01*
X017273Y01904D01*
X017315Y019025D01*
X017363Y01902D01*
X016363D01*
X01641Y019025D01*
X016453Y01904D01*
X01649Y019065D01*
X016523Y0191D01*
X01655Y019145D01*
X016573Y0192D01*
X01659Y019265D01*
X016603Y01934D01*
X01661Y019425D01*
X016613Y01952D01*
X017113D01*
X017115Y019425D01*
D02*
G37*
G36*
X009653D02*
X00966Y01934D01*
X009672Y019265D01*
X00969Y0192D01*
X009712Y019145D01*
X00974Y0191D01*
X009772Y019065D01*
X00981Y01904D01*
X009852Y019025D01*
X0099Y01902D01*
X0089D01*
X008947Y019025D01*
X00899Y01904D01*
X009028Y019065D01*
X00906Y0191D01*
X009087Y019145D01*
X00911Y0192D01*
X009128Y019265D01*
X00914Y01934D01*
X009147Y019425D01*
X00915Y01952D01*
X00965D01*
X009653Y019425D01*
D02*
G37*
G36*
X002603D02*
X00261Y01934D01*
X002623Y019265D01*
X00264Y0192D01*
X002663Y019145D01*
X00269Y0191D01*
X002722Y019065D01*
X00276Y01904D01*
X002803Y019025D01*
X00285Y01902D01*
X00185D01*
X001898Y019025D01*
X00194Y01904D01*
X001978Y019065D01*
X00201Y0191D01*
X002037Y019145D01*
X00206Y0192D01*
X002077Y019265D01*
X00209Y01934D01*
X002097Y019425D01*
X0021Y01952D01*
X0026D01*
X002603Y019425D01*
D02*
G37*
G36*
X021853Y017064D02*
X021831Y017029D01*
X021812Y016988D01*
X021796Y01694D01*
X021782Y016887D01*
X02177Y016827D01*
X021761Y01676D01*
X021751Y016609D01*
X02175Y016524D01*
X02165D01*
X021649Y016609D01*
X02163Y016827D01*
X021618Y016887D01*
X021604Y01694D01*
X021588Y016988D01*
X021569Y017029D01*
X021547Y017064D01*
X021523Y017092D01*
X021877D01*
X021853Y017064D01*
D02*
G37*
G36*
X016303D02*
X016281Y017029D01*
X016262Y016988D01*
X016246Y01694D01*
X016232Y016887D01*
X01622Y016827D01*
X016211Y01676D01*
X016201Y016609D01*
X0162Y016524D01*
X0161D01*
X016099Y016609D01*
X01608Y016827D01*
X016068Y016887D01*
X016054Y01694D01*
X016038Y016988D01*
X016019Y017029D01*
X015997Y017064D01*
X015973Y017092D01*
X016327D01*
X016303Y017064D01*
D02*
G37*
G36*
X009553D02*
X009531Y017029D01*
X009512Y016988D01*
X009496Y01694D01*
X009482Y016887D01*
X00947Y016827D01*
X009461Y01676D01*
X009451Y016609D01*
X00945Y016524D01*
X00935D01*
X009349Y016609D01*
X00933Y016827D01*
X009318Y016887D01*
X009304Y01694D01*
X009288Y016988D01*
X009269Y017029D01*
X009247Y017064D01*
X009223Y017092D01*
X009577D01*
X009553Y017064D01*
D02*
G37*
G36*
X003803D02*
X003781Y017029D01*
X003762Y016988D01*
X003746Y01694D01*
X003732Y016887D01*
X00372Y016827D01*
X003711Y01676D01*
X003701Y016609D01*
X0037Y016524D01*
X0036D01*
X003599Y016609D01*
X00358Y016827D01*
X003568Y016887D01*
X003554Y01694D01*
X003538Y016988D01*
X003519Y017029D01*
X003497Y017064D01*
X003473Y017092D01*
X003827D01*
X003803Y017064D01*
D02*
G37*
G36*
X02179Y015518D02*
X021782Y015515D01*
X021774Y01551D01*
X021768Y015503D01*
X021762Y015494D01*
X021758Y015483D01*
X021755Y01547D01*
X021752Y015455D01*
X021751Y015437D01*
X02175Y015418D01*
X02165D01*
X021649Y015437D01*
X021648Y015455D01*
X021646Y01547D01*
X021642Y015483D01*
X021637Y015494D01*
X021632Y015503D01*
X021625Y01551D01*
X021618Y015515D01*
X021609Y015518D01*
X0216Y015519D01*
X0218D01*
X02179Y015518D01*
D02*
G37*
G36*
X016241D02*
X016232Y015515D01*
X016224Y01551D01*
X016218Y015503D01*
X016213Y015494D01*
X016208Y015483D01*
X016205Y01547D01*
X016202Y015455D01*
X0162Y015437D01*
X0162Y015418D01*
X0161D01*
X016099Y015437D01*
X016098Y015455D01*
X016095Y01547D01*
X016092Y015483D01*
X016087Y015494D01*
X016082Y015503D01*
X016076Y01551D01*
X016068Y015515D01*
X016059Y015518D01*
X01605Y015519D01*
X01625D01*
X016241Y015518D01*
D02*
G37*
G36*
X009491D02*
X009482Y015515D01*
X009474Y01551D01*
X009468Y015503D01*
X009463Y015494D01*
X009458Y015483D01*
X009455Y01547D01*
X009452Y015455D01*
X009451Y015437D01*
X00945Y015418D01*
X00935D01*
X009349Y015437D01*
X009348Y015455D01*
X009345Y01547D01*
X009342Y015483D01*
X009337Y015494D01*
X009332Y015503D01*
X009326Y01551D01*
X009318Y015515D01*
X009309Y015518D01*
X0093Y015519D01*
X0095D01*
X009491Y015518D01*
D02*
G37*
G36*
X00374D02*
X003732Y015515D01*
X003724Y01551D01*
X003718Y015503D01*
X003713Y015494D01*
X003708Y015483D01*
X003704Y01547D01*
X003702Y015455D01*
X003701Y015437D01*
X0037Y015418D01*
X0036D01*
X0036Y015437D01*
X003598Y015455D01*
X003595Y01547D01*
X003592Y015483D01*
X003587Y015494D01*
X003582Y015503D01*
X003575Y01551D01*
X003568Y015515D01*
X003559Y015518D01*
X00355Y015519D01*
X00375D01*
X00374Y015518D01*
D02*
G37*
G36*
X021751Y014386D02*
X021752Y014369D01*
X021755Y014354D01*
X021758Y014341D01*
X021762Y01433D01*
X021768Y014321D01*
X021774Y014314D01*
X021782Y014309D01*
X02179Y014306D01*
X0218Y014305D01*
X0216D01*
X021609Y014306D01*
X021618Y014309D01*
X021625Y014314D01*
X021632Y014321D01*
X021637Y01433D01*
X021642Y014341D01*
X021646Y014354D01*
X021648Y014369D01*
X021649Y014386D01*
X02165Y014405D01*
X02175D01*
X021751Y014386D01*
D02*
G37*
G36*
X0162D02*
X016202Y014369D01*
X016205Y014354D01*
X016208Y014341D01*
X016213Y01433D01*
X016218Y014321D01*
X016224Y014314D01*
X016232Y014309D01*
X016241Y014306D01*
X01625Y014305D01*
X01605D01*
X016059Y014306D01*
X016068Y014309D01*
X016076Y014314D01*
X016082Y014321D01*
X016087Y01433D01*
X016092Y014341D01*
X016095Y014354D01*
X016098Y014369D01*
X016099Y014386D01*
X0161Y014405D01*
X0162D01*
X0162Y014386D01*
D02*
G37*
G36*
X009451D02*
X009452Y014369D01*
X009455Y014354D01*
X009458Y014341D01*
X009463Y01433D01*
X009468Y014321D01*
X009474Y014314D01*
X009482Y014309D01*
X009491Y014306D01*
X0095Y014305D01*
X0093D01*
X009309Y014306D01*
X009318Y014309D01*
X009326Y014314D01*
X009332Y014321D01*
X009337Y01433D01*
X009342Y014341D01*
X009345Y014354D01*
X009348Y014369D01*
X009349Y014386D01*
X00935Y014405D01*
X00945D01*
X009451Y014386D01*
D02*
G37*
G36*
X003701D02*
X003702Y014369D01*
X003704Y014354D01*
X003708Y014341D01*
X003713Y01433D01*
X003718Y014321D01*
X003724Y014314D01*
X003732Y014309D01*
X00374Y014306D01*
X00375Y014305D01*
X00355D01*
X003559Y014306D01*
X003568Y014309D01*
X003575Y014314D01*
X003582Y014321D01*
X003587Y01433D01*
X003592Y014341D01*
X003595Y014354D01*
X003598Y014369D01*
X0036Y014386D01*
X0036Y014405D01*
X0037D01*
X003701Y014386D01*
D02*
G37*
G36*
X022791Y012595D02*
X022782Y012592D01*
X022775Y012587D01*
X022768Y01258D01*
X022762Y012571D01*
X022758Y01256D01*
X022754Y012547D01*
X022752Y012531D01*
X02275Y012514D01*
X02275Y012495D01*
X02265D01*
X02265Y012514D01*
X022648Y012531D01*
X022645Y012547D01*
X022642Y01256D01*
X022638Y012571D01*
X022632Y01258D01*
X022626Y012587D01*
X022618Y012592D01*
X02261Y012595D01*
X0226Y012596D01*
X0228D01*
X022791Y012595D01*
D02*
G37*
G36*
X02229D02*
X022282Y012592D01*
X022274Y012587D01*
X022268Y01258D01*
X022262Y012571D01*
X022258Y01256D01*
X022255Y012547D01*
X022252Y012531D01*
X02225Y012514D01*
X02225Y012495D01*
X02215D01*
X02215Y012514D01*
X022148Y012531D01*
X022146Y012547D01*
X022142Y01256D01*
X022137Y012571D01*
X022132Y01258D01*
X022125Y012587D01*
X022118Y012592D01*
X022109Y012595D01*
X0221Y012596D01*
X0223D01*
X02229Y012595D01*
D02*
G37*
G36*
X021291D02*
X021282Y012592D01*
X021274Y012587D01*
X021268Y01258D01*
X021263Y012571D01*
X021258Y01256D01*
X021254Y012547D01*
X021252Y012531D01*
X021251Y012514D01*
X02125Y012495D01*
X02115D01*
X021149Y012514D01*
X021148Y012531D01*
X021146Y012547D01*
X021142Y01256D01*
X021137Y012571D01*
X021132Y01258D01*
X021126Y012587D01*
X021118Y012592D01*
X021109Y012595D01*
X0211Y012596D01*
X0213D01*
X021291Y012595D01*
D02*
G37*
G36*
X020791D02*
X020782Y012592D01*
X020775Y012587D01*
X020768Y01258D01*
X020763Y012571D01*
X020758Y01256D01*
X020754Y012547D01*
X020752Y012531D01*
X020751Y012514D01*
X02075Y012495D01*
X02065D01*
X020649Y012514D01*
X020648Y012531D01*
X020645Y012547D01*
X020642Y01256D01*
X020638Y012571D01*
X020632Y01258D01*
X020626Y012587D01*
X020618Y012592D01*
X02061Y012595D01*
X0206Y012596D01*
X0208D01*
X020791Y012595D01*
D02*
G37*
G36*
X017316Y012595D02*
X017313Y012594D01*
X01731Y012591D01*
X017308Y012586D01*
X017306Y012579D01*
X017304Y01257D01*
X017303Y012559D01*
X017301Y012531D01*
X0173Y012495D01*
X0172D01*
X017199Y012514D01*
X017198Y012531D01*
X017196Y012546D01*
X017192Y012559D01*
X017188Y012571D01*
X017182Y01258D01*
X017176Y012587D01*
X017168Y012592D01*
X01716Y012595D01*
X01715Y012596D01*
X017316Y012595D01*
D02*
G37*
G36*
X01674Y012595D02*
X016732Y012592D01*
X016724Y012587D01*
X016718Y01258D01*
X016712Y012571D01*
X016708Y01256D01*
X016704Y012547D01*
X016702Y012531D01*
X016701Y012514D01*
X0167Y012495D01*
X0166D01*
X0166Y012514D01*
X016598Y012531D01*
X016595Y012547D01*
X016592Y01256D01*
X016588Y012571D01*
X016582Y01258D01*
X016575Y012587D01*
X016568Y012592D01*
X016559Y012595D01*
X01655Y012596D01*
X01675D01*
X01674Y012595D01*
D02*
G37*
G36*
X01574D02*
X015732Y012592D01*
X015725Y012587D01*
X015718Y01258D01*
X015712Y012571D01*
X015708Y01256D01*
X015704Y012547D01*
X015702Y012531D01*
X015701Y012514D01*
X0157Y012495D01*
X0156D01*
X015599Y012514D01*
X015598Y012531D01*
X015596Y012547D01*
X015592Y01256D01*
X015588Y012571D01*
X015582Y01258D01*
X015575Y012587D01*
X015568Y012592D01*
X01556Y012595D01*
X01555Y012596D01*
X01575D01*
X01574Y012595D01*
D02*
G37*
G36*
X01524D02*
X015232Y012592D01*
X015224Y012587D01*
X015218Y01258D01*
X015213Y012571D01*
X015208Y01256D01*
X015204Y012547D01*
X015202Y012531D01*
X015201Y012514D01*
X0152Y012495D01*
X0151D01*
X0151Y012514D01*
X015098Y012531D01*
X015095Y012547D01*
X015092Y01256D01*
X015087Y012571D01*
X015082Y01258D01*
X015076Y012587D01*
X015068Y012592D01*
X015059Y012595D01*
X01505Y012596D01*
X01525D01*
X01524Y012595D01*
D02*
G37*
G36*
X01049D02*
X010482Y012592D01*
X010474Y012587D01*
X010468Y01258D01*
X010462Y012571D01*
X010458Y01256D01*
X010454Y012547D01*
X010452Y012531D01*
X010451Y012514D01*
X01045Y012495D01*
X01035D01*
X01035Y012514D01*
X010348Y012531D01*
X010345Y012547D01*
X010342Y01256D01*
X010338Y012571D01*
X010332Y01258D01*
X010325Y012587D01*
X010318Y012592D01*
X010309Y012595D01*
X0103Y012596D01*
X0105D01*
X01049Y012595D01*
D02*
G37*
G36*
X009991D02*
X009982Y012592D01*
X009974Y012587D01*
X009968Y01258D01*
X009962Y012571D01*
X009958Y01256D01*
X009955Y012547D01*
X009952Y012531D01*
X009951Y012514D01*
X00995Y012495D01*
X00985D01*
X00985Y012514D01*
X009848Y012531D01*
X009845Y012547D01*
X009842Y01256D01*
X009837Y012571D01*
X009832Y01258D01*
X009826Y012587D01*
X009818Y012592D01*
X009809Y012595D01*
X0098Y012596D01*
X01D01*
X009991Y012595D01*
D02*
G37*
G36*
X00899D02*
X008982Y012592D01*
X008974Y012587D01*
X008968Y01258D01*
X008963Y012571D01*
X008958Y01256D01*
X008954Y012547D01*
X008952Y012531D01*
X00895Y012514D01*
X00895Y012495D01*
X00885D01*
X008849Y012514D01*
X008848Y012531D01*
X008845Y012547D01*
X008842Y01256D01*
X008838Y012571D01*
X008832Y01258D01*
X008826Y012587D01*
X008818Y012592D01*
X008809Y012595D01*
X0088Y012596D01*
X009D01*
X00899Y012595D01*
D02*
G37*
G36*
X008373Y012595D02*
X008365Y012592D01*
X008357Y012587D01*
X008351Y01258D01*
X008345Y012571D01*
X008341Y012559D01*
X008337Y012546D01*
X008335Y012531D01*
X008333Y012514D01*
X008333Y012495D01*
X008233D01*
X008234Y012595D01*
X008383Y012596D01*
X008373Y012595D01*
D02*
G37*
G36*
X00474Y012595D02*
X004732Y012592D01*
X004724Y012587D01*
X004718Y01258D01*
X004712Y012571D01*
X004708Y01256D01*
X004705Y012547D01*
X004702Y012531D01*
X004701Y012514D01*
X0047Y012495D01*
X0046D01*
X0046Y012514D01*
X004598Y012531D01*
X004595Y012547D01*
X004592Y01256D01*
X004588Y012571D01*
X004582Y01258D01*
X004575Y012587D01*
X004568Y012592D01*
X004559Y012595D01*
X00455Y012596D01*
X00475D01*
X00474Y012595D01*
D02*
G37*
G36*
X004241D02*
X004232Y012592D01*
X004225Y012587D01*
X004218Y01258D01*
X004212Y012571D01*
X004208Y01256D01*
X004205Y012547D01*
X004202Y012531D01*
X0042Y012514D01*
X0042Y012495D01*
X0041D01*
X004099Y012514D01*
X004098Y012531D01*
X004096Y012547D01*
X004092Y01256D01*
X004087Y012571D01*
X004082Y01258D01*
X004076Y012587D01*
X004068Y012592D01*
X00406Y012595D01*
X00405Y012596D01*
X00425D01*
X004241Y012595D01*
D02*
G37*
G36*
X003241D02*
X003232Y012592D01*
X003225Y012587D01*
X003218Y01258D01*
X003212Y012571D01*
X003208Y01256D01*
X003205Y012547D01*
X003202Y012531D01*
X003201Y012514D01*
X0032Y012495D01*
X0031D01*
X003099Y012514D01*
X003098Y012531D01*
X003095Y012547D01*
X003092Y01256D01*
X003088Y012571D01*
X003082Y01258D01*
X003076Y012587D01*
X003068Y012592D01*
X003059Y012595D01*
X00305Y012596D01*
X00325D01*
X003241Y012595D01*
D02*
G37*
G36*
X00274D02*
X002732Y012592D01*
X002725Y012587D01*
X002718Y01258D01*
X002713Y012571D01*
X002708Y01256D01*
X002704Y012547D01*
X002702Y012531D01*
X0027Y012514D01*
X0027Y012495D01*
X0026D01*
X0026Y012514D01*
X002598Y012531D01*
X002596Y012547D01*
X002592Y01256D01*
X002587Y012571D01*
X002582Y01258D01*
X002576Y012587D01*
X002568Y012592D01*
X00256Y012595D01*
X00255Y012596D01*
X00275D01*
X00274Y012595D01*
D02*
G37*
G36*
X02225Y012012D02*
X022252Y011995D01*
X022255Y01198D01*
X022258Y011967D01*
X022262Y011956D01*
X022268Y011947D01*
X022274Y01194D01*
X022282Y011935D01*
X02229Y011931D01*
X0223Y01193D01*
X022124Y011932D01*
X022129Y011933D01*
X022133Y011936D01*
X022137Y011941D01*
X022141Y011948D01*
X022144Y011957D01*
X022146Y011968D01*
X022148Y011981D01*
X022149Y011996D01*
X02215Y012032D01*
X02225D01*
X02225Y012012D01*
D02*
G37*
G36*
X0173Y012012D02*
X017302Y011995D01*
X017305Y01198D01*
X017308Y011967D01*
X017313Y011956D01*
X017318Y011947D01*
X017325Y011939D01*
X017332Y011934D01*
X017341Y011931D01*
X01735Y01193D01*
X01715D01*
X01716Y011931D01*
X017168Y011934D01*
X017176Y011939D01*
X017182Y011947D01*
X017188Y011956D01*
X017192Y011967D01*
X017196Y01198D01*
X017198Y011995D01*
X017199Y012012D01*
X0172Y012032D01*
X0173D01*
X0173Y012012D01*
D02*
G37*
G36*
X016701D02*
X016702Y011995D01*
X016704Y01198D01*
X016708Y011967D01*
X016712Y011956D01*
X016718Y011947D01*
X016724Y011939D01*
X016732Y011934D01*
X01674Y011931D01*
X01675Y01193D01*
X01655D01*
X016559Y011931D01*
X016568Y011934D01*
X016575Y011939D01*
X016582Y011947D01*
X016588Y011956D01*
X016592Y011967D01*
X016595Y01198D01*
X016598Y011995D01*
X0166Y012012D01*
X0166Y012032D01*
X0167D01*
X016701Y012012D01*
D02*
G37*
G36*
X015823Y012012D02*
X015825Y011995D01*
X015827Y01198D01*
X015831Y011967D01*
X015835Y011956D01*
X015841Y011947D01*
X015847Y01194D01*
X015855Y011935D01*
X015863Y011931D01*
X015873Y01193D01*
X015724Y011932D01*
X015724Y011933D01*
X015724Y011936D01*
X015723Y011981D01*
X015723Y012032D01*
X015823D01*
X015823Y012012D01*
D02*
G37*
G36*
X01005Y012012D02*
X010052Y011995D01*
X010055Y01198D01*
X010058Y011967D01*
X010063Y011956D01*
X010068Y011947D01*
X010074Y011939D01*
X010082Y011934D01*
X010091Y011931D01*
X0101Y01193D01*
X0099D01*
X009909Y011931D01*
X009918Y011934D01*
X009926Y011939D01*
X009932Y011947D01*
X009937Y011956D01*
X009942Y011967D01*
X009945Y01198D01*
X009948Y011995D01*
X009949Y012012D01*
X00995Y012032D01*
X01005D01*
X01005Y012012D01*
D02*
G37*
G36*
X01805Y012363D02*
Y011909D01*
X018044Y011906D01*
X01776D01*
Y01234D01*
X0175Y0126D01*
Y01275D01*
X01774D01*
X01805Y012363D01*
D02*
G37*
G36*
X0115Y01225D02*
Y0119D01*
X0112D01*
X01075Y01235D01*
Y0127D01*
X01105D01*
X0115Y01225D01*
D02*
G37*
G36*
X005911Y011945D02*
X00589Y0119D01*
X00555D01*
X004986Y012605D01*
X005008Y01265D01*
X0053D01*
X005911Y011945D01*
D02*
G37*
G36*
X0238Y0122D02*
Y01185D01*
X02365D01*
X023529Y011971D01*
X023529Y01197D01*
X023532Y011964D01*
X023535Y011958D01*
X023539Y011955D01*
X023543Y011952D01*
X023547Y011952D01*
X023414Y011953D01*
X023416Y011953D01*
X023417Y011956D01*
X023419Y011959D01*
X02342Y011965D01*
X023421Y011971D01*
X023422Y011989D01*
X023423Y012013D01*
X023423Y012027D01*
X023473D01*
X02305Y01245D01*
Y012495D01*
X02305Y012514D01*
X023046Y01257D01*
X023044Y012579D01*
X023042Y012586D01*
X02304Y012591D01*
X023037Y012594D01*
X023034Y012595D01*
X02305Y012595D01*
Y01265D01*
X02335D01*
X0238Y0122D01*
D02*
G37*
G36*
X022795Y011982D02*
X022832Y011951D01*
X022848Y01194D01*
X022863Y011931D01*
X022876Y011925D01*
X022888Y011922D01*
X022899Y011922D01*
X022908Y011925D01*
X022915Y01193D01*
X022775Y01179D01*
X022781Y011798D01*
X022783Y011807D01*
X022783Y011817D01*
X02278Y011829D01*
X022775Y011843D01*
X022766Y011858D01*
X022755Y011874D01*
X02274Y011892D01*
X022703Y011932D01*
X022774Y012002D01*
X022795Y011982D01*
D02*
G37*
G36*
X010545D02*
X010582Y011951D01*
X010598Y01194D01*
X010613Y011931D01*
X010626Y011925D01*
X010638Y011922D01*
X010649Y011922D01*
X010658Y011925D01*
X010665Y01193D01*
X010525Y01179D01*
X010531Y011798D01*
X010533Y011807D01*
X010533Y011817D01*
X01053Y011829D01*
X010525Y011843D01*
X010516Y011858D01*
X010505Y011874D01*
X01049Y011892D01*
X010453Y011932D01*
X010524Y012002D01*
X010545Y011982D01*
D02*
G37*
G36*
X009145D02*
X009182Y011951D01*
X009198Y01194D01*
X009213Y011931D01*
X009226Y011925D01*
X009238Y011922D01*
X009249Y011922D01*
X009258Y011925D01*
X009265Y01193D01*
X009125Y01179D01*
X009131Y011798D01*
X009133Y011807D01*
X009133Y011817D01*
X00913Y011829D01*
X009125Y011843D01*
X009116Y011858D01*
X009105Y011874D01*
X00909Y011892D01*
X009053Y011932D01*
X009124Y012002D01*
X009145Y011982D01*
D02*
G37*
G36*
X004995D02*
X005032Y011951D01*
X005048Y01194D01*
X005063Y011931D01*
X005076Y011925D01*
X005088Y011922D01*
X005099Y011922D01*
X005108Y011925D01*
X005115Y01193D01*
X004975Y01179D01*
X004981Y011798D01*
X004983Y011807D01*
X004983Y011817D01*
X00498Y011829D01*
X004975Y011843D01*
X004966Y011858D01*
X004955Y011874D01*
X00494Y011892D01*
X004903Y011932D01*
X004974Y012002D01*
X004995Y011982D01*
D02*
G37*
G36*
X003695D02*
X003732Y011951D01*
X003748Y01194D01*
X003763Y011931D01*
X003776Y011925D01*
X003788Y011922D01*
X003799Y011922D01*
X003808Y011925D01*
X003815Y01193D01*
X003675Y01179D01*
X003681Y011798D01*
X003683Y011807D01*
X003683Y011817D01*
X00368Y011829D01*
X003675Y011843D01*
X003666Y011858D01*
X003655Y011874D01*
X00364Y011892D01*
X003603Y011932D01*
X003674Y012002D01*
X003695Y011982D01*
D02*
G37*
G36*
X01925Y01155D02*
Y0111D01*
X0192Y01105D01*
X01885D01*
X01875Y01115D01*
Y01195D01*
X01885D01*
X01925Y01155D01*
D02*
G37*
G36*
X0075Y01185D02*
Y01115D01*
X00735Y011D01*
X00685D01*
X006607Y011333D01*
Y011463D01*
X006513D01*
X00645Y01155D01*
Y01205D01*
X0074D01*
X0075Y01185D01*
D02*
G37*
G36*
X0127Y01205D02*
X01295Y0118D01*
Y01095D01*
X01245D01*
Y0115D01*
X01225Y0117D01*
Y01205D01*
X0127Y01205D01*
D02*
G37*
G36*
X013958Y009182D02*
X013952Y009181D01*
X013946Y009179D01*
X013941Y009175D01*
X013936Y00917D01*
X013932Y009164D01*
X013929Y009156D01*
X013927Y009148D01*
X013925Y009138D01*
X013924Y009127D01*
X013923Y009114D01*
X013823Y009139D01*
X013834Y009276D01*
X013958Y009182D01*
D02*
G37*
G36*
X0075Y0094D02*
Y00885D01*
X00735Y0087D01*
Y00865D01*
X00695D01*
X0067Y0089D01*
Y0094D01*
X006847Y009547D01*
X007353D01*
X0075Y0094D01*
D02*
G37*
G36*
X01295Y0084D02*
X01245D01*
Y0095D01*
X01295D01*
Y0084D01*
D02*
G37*
G36*
X02505Y0085D02*
X02495Y0084D01*
X0244Y0084D01*
X0243Y0085D01*
X0243Y0089D01*
X02505D01*
Y0085D01*
D02*
G37*
G36*
X01935Y008468D02*
X019354Y008423D01*
X019358Y008404D01*
X019362Y008389D01*
X019368Y008376D01*
X019374Y008366D01*
X019381Y008359D01*
X01939Y008354D01*
X019399Y008353D01*
X019201D01*
X01921Y008354D01*
X019219Y008359D01*
X019226Y008366D01*
X019232Y008376D01*
X019238Y008389D01*
X019242Y008404D01*
X019246Y008423D01*
X019248Y008444D01*
X01925Y008468D01*
X01925Y008495D01*
X01935D01*
X01935Y008468D01*
D02*
G37*
G36*
X01885D02*
X018854Y008423D01*
X018858Y008404D01*
X018862Y008389D01*
X018868Y008376D01*
X018874Y008366D01*
X018881Y008359D01*
X01889Y008354D01*
X018899Y008353D01*
X018701D01*
X01871Y008354D01*
X018719Y008359D01*
X018726Y008366D01*
X018732Y008376D01*
X018738Y008389D01*
X018742Y008404D01*
X018746Y008423D01*
X018748Y008444D01*
X01875Y008468D01*
X01875Y008495D01*
X01885D01*
X01885Y008468D01*
D02*
G37*
G36*
X01785D02*
X017854Y008423D01*
X017858Y008404D01*
X017862Y008389D01*
X017868Y008376D01*
X017874Y008366D01*
X017881Y008359D01*
X01789Y008354D01*
X017899Y008353D01*
X017701D01*
X01771Y008354D01*
X017719Y008359D01*
X017726Y008366D01*
X017732Y008376D01*
X017738Y008389D01*
X017742Y008404D01*
X017746Y008423D01*
X017748Y008444D01*
X01775Y008468D01*
X01775Y008495D01*
X01785D01*
X01785Y008468D01*
D02*
G37*
G36*
X01834Y008473D02*
X018344Y008429D01*
X018348Y008412D01*
X018352Y008397D01*
X018358Y008385D01*
X018364Y008376D01*
X018371Y00837D01*
X01838Y008366D01*
X018389Y008366D01*
X018194Y008346D01*
X018203Y008358D01*
X018211Y008371D01*
X018217Y008384D01*
X018223Y008398D01*
X018228Y008412D01*
X018233Y008427D01*
X018236Y008442D01*
X018238Y008458D01*
X018239Y008474D01*
X01824Y008491D01*
X01834Y008499D01*
X01834Y008473D01*
D02*
G37*
G36*
X003819Y007754D02*
X003821Y007748D01*
X003825Y007742D01*
X00383Y007738D01*
X003836Y007734D01*
X003844Y007731D01*
X003853Y007728D01*
X003863Y007726D01*
X003874Y007725D01*
X003886Y007725D01*
X003862Y007625D01*
X003725Y007635D01*
X003818Y00776D01*
X003819Y007754D01*
D02*
G37*
G36*
X015594Y0076D02*
X015593Y00761D01*
X01559Y007618D01*
X015585Y007625D01*
X015578Y007632D01*
X015569Y007638D01*
X015558Y007642D01*
X015545Y007645D01*
X01553Y007648D01*
X015513Y007649D01*
X015494Y00765D01*
Y00775D01*
X015513Y00775D01*
X01553Y007752D01*
X015545Y007754D01*
X015558Y007758D01*
X015569Y007763D01*
X015578Y007768D01*
X015585Y007775D01*
X01559Y007782D01*
X015593Y00779D01*
X015594Y0078D01*
Y0076D01*
D02*
G37*
G36*
X015256Y00779D02*
X015259Y007782D01*
X015264Y007775D01*
X015271Y007768D01*
X01528Y007763D01*
X015292Y007758D01*
X015305Y007754D01*
X01532Y007752D01*
X015337Y00775D01*
X015356Y00775D01*
Y00765D01*
X015337Y007649D01*
X01532Y007648D01*
X015305Y007645D01*
X015292Y007642D01*
X01528Y007638D01*
X015271Y007632D01*
X015264Y007625D01*
X015259Y007618D01*
X015256Y00761D01*
X015255Y0076D01*
Y0078D01*
X015256Y00779D01*
D02*
G37*
G36*
X009325Y007715D02*
X009232Y00759D01*
X009231Y007596D01*
X009229Y007602D01*
X009225Y007608D01*
X00922Y007612D01*
X009214Y007616D01*
X009206Y007619D01*
X009197Y007622D01*
X009187Y007624D01*
X009176Y007625D01*
X009164Y007625D01*
X009188Y007725D01*
X009325Y007715D01*
D02*
G37*
G36*
X009441Y007676D02*
X009448Y007671D01*
X009456Y007666D01*
X009465Y007662D01*
X009474Y007658D01*
X009483Y007655D01*
X009494Y007653D01*
X009504Y007651D01*
X009516Y00765D01*
X009528Y00765D01*
Y00755D01*
X009516Y00755D01*
X009504Y007549D01*
X009494Y007547D01*
X009483Y007545D01*
X009474Y007542D01*
X009465Y007538D01*
X009456Y007534D01*
X009448Y007529D01*
X009441Y007524D01*
X009434Y007517D01*
Y007683D01*
X009441Y007676D01*
D02*
G37*
G36*
X01524Y007553D02*
X015232Y00755D01*
X015224Y007545D01*
X015218Y007538D01*
X015213Y007529D01*
X015208Y007518D01*
X015204Y007505D01*
X015202Y00749D01*
X015201Y007472D01*
X0152Y007453D01*
X0151D01*
X0151Y007472D01*
X015098Y00749D01*
X015095Y007505D01*
X015092Y007518D01*
X015087Y007529D01*
X015082Y007538D01*
X015076Y007545D01*
X015068Y00755D01*
X015059Y007553D01*
X01505Y007554D01*
X01525D01*
X01524Y007553D01*
D02*
G37*
G36*
X015841Y007544D02*
X015832Y007541D01*
X015825Y007536D01*
X015818Y007529D01*
X015812Y00752D01*
X015808Y007508D01*
X015805Y007495D01*
X015802Y00748D01*
X0158Y007463D01*
X0158Y007444D01*
X0157D01*
X015699Y007463D01*
X015698Y00748D01*
X015696Y007495D01*
X015692Y007508D01*
X015688Y00752D01*
X015682Y007529D01*
X015675Y007536D01*
X015668Y007541D01*
X01566Y007544D01*
X01565Y007545D01*
X01585D01*
X015841Y007544D01*
D02*
G37*
G36*
X01689Y007435D02*
X016881Y007431D01*
X016874Y007424D01*
X016868Y007414D01*
X016862Y007401D01*
X016858Y007386D01*
X016854Y007367D01*
X016852Y007346D01*
X01685Y007322D01*
X01685Y007294D01*
X01675D01*
X01675Y007322D01*
X016746Y007367D01*
X016742Y007386D01*
X016738Y007401D01*
X016732Y007414D01*
X016726Y007424D01*
X016719Y007431D01*
X01671Y007435D01*
X016701Y007437D01*
X016899D01*
X01689Y007435D01*
D02*
G37*
G36*
X01685Y007D02*
X01675Y00685D01*
X016749Y006869D01*
X016746Y006886D01*
X016741Y006901D01*
X016734Y006914D01*
X016725Y006925D01*
X016714Y006934D01*
X016701Y006941D01*
X016686Y006946D01*
X016669Y006949D01*
X01665Y00695D01*
Y00705D01*
X016669Y007051D01*
X016686Y007054D01*
X016701Y007059D01*
X016714Y007066D01*
X016725Y007075D01*
X016734Y007086D01*
X016741Y007099D01*
X016746Y007114D01*
X016749Y007131D01*
X01675Y00715D01*
X01685Y007D01*
D02*
G37*
G36*
X003144Y007069D02*
X003151Y006984D01*
X003164Y006909D01*
X003181Y006844D01*
X003204Y006789D01*
X003231Y006744D01*
X003264Y006709D01*
X003301Y006684D01*
X003344Y006669D01*
X003391Y006664D01*
X002391D01*
X002439Y006669D01*
X002481Y006684D01*
X002519Y006709D01*
X002551Y006744D01*
X002579Y006789D01*
X002601Y006844D01*
X002619Y006909D01*
X002631Y006984D01*
X002639Y007069D01*
X002641Y007164D01*
X003141D01*
X003144Y007069D01*
D02*
G37*
G36*
X0152Y005916D02*
X015201Y005904D01*
X015203Y005894D01*
X015205Y005883D01*
X015208Y005874D01*
X015212Y005865D01*
X015216Y005856D01*
X015221Y005848D01*
X015226Y005841D01*
X015233Y005834D01*
X015067D01*
X015074Y005841D01*
X015079Y005848D01*
X015084Y005856D01*
X015088Y005865D01*
X015092Y005874D01*
X015095Y005883D01*
X015097Y005894D01*
X015099Y005904D01*
X0151Y005916D01*
X0151Y005928D01*
X0152D01*
X0152Y005916D01*
D02*
G37*
G36*
X015226Y005659D02*
X015221Y005652D01*
X015216Y005644D01*
X015212Y005635D01*
X015208Y005626D01*
X015205Y005617D01*
X015203Y005606D01*
X015201Y005596D01*
X0152Y005584D01*
X0152Y005572D01*
X0151D01*
X0151Y005584D01*
X015099Y005596D01*
X015097Y005606D01*
X015095Y005617D01*
X015092Y005626D01*
X015088Y005635D01*
X015084Y005644D01*
X015079Y005652D01*
X015074Y005659D01*
X015067Y005666D01*
X015233D01*
X015226Y005659D01*
D02*
G37*
G36*
X003344Y006032D02*
X003301Y006017D01*
X003264Y005992D01*
X003231Y005957D01*
X003204Y005912D01*
X003181Y005857D01*
X003164Y005792D01*
X003151Y005717D01*
X003144Y005631D01*
X003141Y005536D01*
X002641D01*
X002639Y005631D01*
X002631Y005717D01*
X002619Y005792D01*
X002601Y005857D01*
X002579Y005912D01*
X002551Y005957D01*
X002519Y005992D01*
X002481Y006017D01*
X002439Y006032D01*
X002391Y006037D01*
X003391D01*
X003344Y006032D01*
D02*
G37*
G36*
X016851Y004892D02*
X016852Y004875D01*
X016854Y00486D01*
X016858Y004846D01*
X016862Y004835D01*
X016868Y004826D01*
X016875Y004819D01*
X016882Y004814D01*
X01689Y004811D01*
X0169Y00481D01*
X0167D01*
X01671Y004811D01*
X016718Y004814D01*
X016725Y004819D01*
X016732Y004826D01*
X016738Y004835D01*
X016742Y004846D01*
X016746Y00486D01*
X016748Y004875D01*
X01675Y004892D01*
X01675Y004911D01*
X01685D01*
X016851Y004892D01*
D02*
G37*
G36*
X017332Y003792D02*
X017322Y00379D01*
X017312Y003787D01*
X017302Y003783D01*
X017291Y003777D01*
X01728Y003771D01*
X017269Y003763D01*
X017244Y003743D01*
X017232Y003731D01*
X017218Y003719D01*
X017129Y003771D01*
X017147Y003789D01*
X017173Y003821D01*
X017183Y003835D01*
X017189Y003848D01*
X017193Y00386D01*
X017194Y00387D01*
X017192Y003879D01*
X017188Y003886D01*
X017181Y003892D01*
X017332Y003792D01*
D02*
G37*
G36*
X01839Y003841D02*
X018381Y003836D01*
X018374Y003829D01*
X018368Y003819D01*
X018362Y003806D01*
X018358Y003791D01*
X018354Y003772D01*
X018352Y003751D01*
X01835Y003727D01*
X01835Y0037D01*
X01825D01*
X01825Y003727D01*
X018246Y003772D01*
X018242Y003791D01*
X018238Y003806D01*
X018232Y003819D01*
X018226Y003829D01*
X018219Y003836D01*
X01821Y003841D01*
X018201Y003842D01*
X018399D01*
X01839Y003841D01*
D02*
G37*
G36*
X01789D02*
X017881Y003836D01*
X017874Y003829D01*
X017868Y003819D01*
X017862Y003806D01*
X017858Y003791D01*
X017854Y003772D01*
X017852Y003751D01*
X01785Y003727D01*
X01785Y0037D01*
X01775D01*
X01775Y003727D01*
X017746Y003772D01*
X017742Y003791D01*
X017738Y003806D01*
X017732Y003819D01*
X017726Y003829D01*
X017719Y003836D01*
X01771Y003841D01*
X017701Y003842D01*
X017899D01*
X01789Y003841D01*
D02*
G37*
G36*
X00381Y00246D02*
X003259D01*
X003264Y002471D01*
X003268Y002492D01*
X003272Y002522D01*
X003278Y002609D01*
X003284Y002992D01*
X003784D01*
X00381Y00246D01*
D02*
G37*
G36*
X017202Y002112D02*
X017207Y00209D01*
X017215Y002066D01*
X017226Y002041D01*
X017241Y002015D01*
X017259Y001987D01*
X01728Y001959D01*
X017333Y001899D01*
X017364Y001868D01*
X016936D01*
X016968Y001899D01*
X01702Y001959D01*
X017041Y001987D01*
X017059Y002015D01*
X017074Y002041D01*
X017085Y002066D01*
X017093Y00209D01*
X017098Y002112D01*
X0171Y002134D01*
X0172D01*
X017202Y002112D01*
D02*
G37*
G36*
X003787Y002201D02*
X003797Y002161D01*
X003812Y002119D01*
X003834Y002074D01*
X003862Y002026D01*
X003897Y001975D01*
X003937Y001922D01*
X004037Y001808D01*
X004096Y001747D01*
X004026Y001676D01*
X003965Y001735D01*
X003797Y001876D01*
X003747Y00191D01*
X003699Y001938D01*
X003654Y00196D01*
X003611Y001976D01*
X003571Y001985D01*
X003534Y001988D01*
X003784Y002238D01*
X003787Y002201D01*
D02*
G37*
G36*
X020989Y001662D02*
X020988Y00167D01*
X020986Y001677D01*
X020981Y001684D01*
X020974Y001689D01*
X020966Y001694D01*
X020956Y001698D01*
X020943Y001701D01*
X020929Y001703D01*
X020913Y001704D01*
X020896Y001704D01*
Y001804D01*
X020913Y001805D01*
X020929Y001806D01*
X020943Y001808D01*
X020956Y001811D01*
X020966Y001815D01*
X020974Y00182D01*
X020981Y001825D01*
X020986Y001832D01*
X020988Y001839D01*
X020989Y001847D01*
Y001662D01*
D02*
G37*
G36*
X020027Y00153D02*
X020021Y001543D01*
X020013Y001555D01*
X020003Y001566D01*
X019993Y001575D01*
X019981Y001583D01*
X019967Y001589D01*
X019952Y001594D01*
X019936Y001597D01*
X019919Y001599D01*
X0199Y0016D01*
Y0017D01*
X019919Y001701D01*
X019936Y001703D01*
X019952Y001706D01*
X019967Y001711D01*
X019981Y001717D01*
X019993Y001725D01*
X020003Y001734D01*
X020013Y001745D01*
X020021Y001757D01*
X020027Y00177D01*
Y00153D01*
D02*
G37*
G36*
X014907Y001331D02*
X014887Y00131D01*
X014873Y001294D01*
X014885Y001291D01*
X0149Y001288D01*
X014917Y001287D01*
X014936Y001287D01*
Y001187D01*
X014917Y001186D01*
X0149Y001185D01*
X014885Y001182D01*
X014872Y001179D01*
X014861Y001174D01*
X014851Y001169D01*
X014844Y001162D01*
X014839Y001155D01*
X014836Y001146D01*
X014835Y001137D01*
X014836Y001242D01*
X014836Y001242D01*
X01483Y001229D01*
X014827Y001217D01*
X014827Y001206D01*
X01483Y001197D01*
X014835Y00119D01*
X014695Y00133D01*
X014703Y001324D01*
X014712Y001322D01*
X014722Y001322D01*
X014734Y001325D01*
X014748Y00133D01*
X014762Y001339D01*
X014779Y00135D01*
X014796Y001365D01*
X014836Y001402D01*
X014907Y001331D01*
D02*
G37*
G36*
X013364Y001427D02*
X013367Y001419D01*
X013372Y001411D01*
X013379Y001405D01*
X013388Y001399D01*
X013399Y001395D01*
X013412Y001391D01*
X013427Y001389D01*
X013445Y001387D01*
X013464Y001387D01*
Y001287D01*
X013445Y001286D01*
X013427Y001285D01*
X013412Y001282D01*
X013399Y001279D01*
X013388Y001274D01*
X013379Y001269D01*
X013372Y001262D01*
X013367Y001255D01*
X013364Y001246D01*
X013363Y001237D01*
Y001437D01*
X013364Y001427D01*
D02*
G37*
G36*
X015466Y001137D02*
X015465Y001146D01*
X015462Y001155D01*
X015457Y001162D01*
X01545Y001169D01*
X015441Y001174D01*
X01543Y001179D01*
X015417Y001182D01*
X015401Y001185D01*
X015384Y001186D01*
X015365Y001187D01*
Y001287D01*
X015384Y001287D01*
X015401Y001289D01*
X015417Y001291D01*
X01543Y001295D01*
X015441Y001299D01*
X01545Y001305D01*
X015457Y001311D01*
X015462Y001319D01*
X015465Y001327D01*
X015466Y001337D01*
Y001137D01*
D02*
G37*
G36*
X014524Y001075D02*
X014523Y001084D01*
X01452Y001093D01*
X014515Y0011D01*
X014508Y001107D01*
X014499Y001112D01*
X014488Y001117D01*
X014475Y00112D01*
X01446Y001123D01*
X014443Y001124D01*
X014424Y001125D01*
Y001225D01*
X014443Y001225D01*
X01446Y001227D01*
X014475Y001229D01*
X014488Y001233D01*
X014499Y001237D01*
X014508Y001243D01*
X014515Y001249D01*
X01452Y001257D01*
X014523Y001265D01*
X014524Y001275D01*
Y001075D01*
D02*
G37*
G36*
X014136Y001265D02*
X014139Y001257D01*
X014144Y001249D01*
X014151Y001243D01*
X01416Y001237D01*
X014172Y001233D01*
X014185Y001229D01*
X0142Y001227D01*
X014217Y001225D01*
X014236Y001225D01*
Y001125D01*
X014217Y001124D01*
X0142Y001123D01*
X014185Y00112D01*
X014172Y001117D01*
X01416Y001112D01*
X014151Y001107D01*
X014144Y0011D01*
X014139Y001093D01*
X014136Y001084D01*
X014135Y001075D01*
Y001275D01*
X014136Y001265D01*
D02*
G37*
G36*
X010936Y001075D02*
X010935Y001084D01*
X010932Y001093D01*
X010927Y0011D01*
X01092Y001107D01*
X010911Y001112D01*
X0109Y001117D01*
X010887Y00112D01*
X010872Y001123D01*
X010855Y001124D01*
X010836Y001125D01*
Y001225D01*
X010855Y001225D01*
X010872Y001227D01*
X010887Y001229D01*
X0109Y001233D01*
X010911Y001237D01*
X01092Y001243D01*
X010927Y001249D01*
X010932Y001257D01*
X010935Y001265D01*
X010936Y001275D01*
Y001075D01*
D02*
G37*
G36*
X010136Y001265D02*
X010139Y001257D01*
X010144Y001249D01*
X010151Y001243D01*
X01016Y001237D01*
X010172Y001233D01*
X010185Y001229D01*
X0102Y001227D01*
X010217Y001225D01*
X010236Y001225D01*
Y001125D01*
X010217Y001124D01*
X0102Y001123D01*
X010185Y00112D01*
X010172Y001117D01*
X01016Y001112D01*
X010151Y001107D01*
X010144Y0011D01*
X010139Y001093D01*
X010136Y001084D01*
X010135Y001075D01*
Y001275D01*
X010136Y001265D01*
D02*
G37*
G36*
X009824Y001075D02*
X009823Y001084D01*
X00982Y001093D01*
X009815Y0011D01*
X009808Y001107D01*
X009799Y001112D01*
X009788Y001117D01*
X009775Y00112D01*
X00976Y001123D01*
X009743Y001124D01*
X009724Y001125D01*
Y001225D01*
X009743Y001225D01*
X00976Y001227D01*
X009775Y001229D01*
X009788Y001233D01*
X009799Y001237D01*
X009808Y001243D01*
X009815Y001249D01*
X00982Y001257D01*
X009823Y001265D01*
X009824Y001275D01*
Y001075D01*
D02*
G37*
G36*
X009186Y001265D02*
X009189Y001257D01*
X009194Y001249D01*
X009201Y001243D01*
X00921Y001237D01*
X009222Y001233D01*
X009235Y001229D01*
X00925Y001227D01*
X009267Y001225D01*
X009286Y001225D01*
Y001125D01*
X009267Y001124D01*
X00925Y001123D01*
X009235Y00112D01*
X009222Y001117D01*
X00921Y001112D01*
X009201Y001107D01*
X009194Y0011D01*
X009189Y001093D01*
X009186Y001084D01*
X009185Y001075D01*
Y001275D01*
X009186Y001265D01*
D02*
G37*
G36*
X008874Y001075D02*
X008873Y001084D01*
X00887Y001093D01*
X008865Y0011D01*
X008858Y001107D01*
X008849Y001112D01*
X008838Y001117D01*
X008825Y00112D01*
X00881Y001123D01*
X008793Y001124D01*
X008774Y001125D01*
Y001225D01*
X008793Y001225D01*
X00881Y001227D01*
X008825Y001229D01*
X008838Y001233D01*
X008849Y001237D01*
X008858Y001243D01*
X008865Y001249D01*
X00887Y001257D01*
X008873Y001265D01*
X008874Y001275D01*
Y001075D01*
D02*
G37*
G36*
X004813Y00617D02*
X00481Y006161D01*
X00481Y00615D01*
X004813Y006138D01*
X004819Y006125D01*
X004827Y00611D01*
X004839Y006094D01*
X004853Y006076D01*
X00489Y006036D01*
X004819Y005966D01*
X004799Y005985D01*
X004762Y006017D01*
X004745Y006028D01*
X004731Y006037D01*
X004717Y006043D01*
X004705Y006046D01*
X004695Y006046D01*
X004686Y006043D01*
X004678Y006037D01*
X004818Y006178D01*
X004813Y00617D01*
D02*
G37*
G36*
X02285Y005916D02*
X022851Y005904D01*
X022853Y005894D01*
X022855Y005883D01*
X022858Y005874D01*
X022862Y005865D01*
X022866Y005856D01*
X022871Y005848D01*
X022876Y005841D01*
X022883Y005834D01*
X022717D01*
X022724Y005841D01*
X022729Y005848D01*
X022734Y005856D01*
X022738Y005865D01*
X022742Y005874D01*
X022745Y005883D01*
X022747Y005894D01*
X022749Y005904D01*
X02275Y005916D01*
X02275Y005928D01*
X02285D01*
X02285Y005916D01*
D02*
G37*
G36*
X011151Y002944D02*
X011143Y00295D01*
X011134Y002953D01*
X011123D01*
X011111Y00295D01*
X011098Y002944D01*
X011083Y002936D01*
X011067Y002924D01*
X011049Y00291D01*
X011009Y002873D01*
X010939Y002944D01*
X010959Y002965D01*
X01099Y003001D01*
X011001Y003018D01*
X011009Y003033D01*
X011015Y003046D01*
X011018Y003058D01*
Y003069D01*
X011015Y003078D01*
X011009Y003086D01*
X011151Y002944D01*
D02*
G37*
G36*
X013284Y003078D02*
X013281Y003069D01*
X013281Y003058D01*
X013284Y003046D01*
X01329Y003033D01*
X013299Y003018D01*
X01331Y003002D01*
X013324Y002984D01*
X013361Y002944D01*
X013291Y002873D01*
X01327Y002893D01*
X013233Y002925D01*
X013217Y002936D01*
X013202Y002945D01*
X013188Y00295D01*
X013176Y002953D01*
X013166Y002954D01*
X013157Y002951D01*
X013149Y002945D01*
X013289Y003086D01*
X013284Y003078D01*
D02*
G37*
G36*
X01579Y002756D02*
X015782Y002754D01*
X015775Y002749D01*
X015768Y002742D01*
X015762Y002733D01*
X015758Y002722D01*
X015754Y002709D01*
X015752Y002693D01*
X01575Y002677D01*
X01575Y002657D01*
X01565D01*
X015649Y002677D01*
X015648Y002693D01*
X015646Y002709D01*
X015642Y002722D01*
X015638Y002733D01*
X015632Y002742D01*
X015625Y002749D01*
X015618Y002754D01*
X01561Y002756D01*
X0156Y002758D01*
X0158D01*
X01579Y002756D01*
D02*
G37*
G36*
X01575Y00236D02*
X015752Y002343D01*
X015754Y002328D01*
X015758Y002315D01*
X015762Y002304D01*
X015768Y002295D01*
X015775Y002288D01*
X015782Y002283D01*
X01579Y00228D01*
X0158Y002279D01*
X0156D01*
X01561Y00228D01*
X015618Y002283D01*
X015625Y002288D01*
X015632Y002295D01*
X015638Y002304D01*
X015642Y002315D01*
X015646Y002328D01*
X015648Y002343D01*
X015649Y00236D01*
X01565Y002379D01*
X01575D01*
X01575Y00236D01*
D02*
G37*
D15*
X01975Y00995D02*
X0202Y0104D01*
X02415Y00997D02*
X02417Y00995D01*
X02415Y00997D02*
Y011186D01*
X024132Y008032D02*
Y009912D01*
X02417Y00995D01*
X0237Y0076D02*
X024132Y008032D01*
X02415Y011186D02*
X02417Y011206D01*
X0063Y0104D02*
X0075D01*
X0079Y0108D02*
Y01345D01*
X0075Y0104D02*
X0079Y0108D01*
X01468Y001765D02*
X0147Y001785D01*
Y00415D01*
X0157Y003435D02*
Y00415D01*
Y002063D02*
Y002865D01*
X014742Y001237D02*
X01515Y001645D01*
X01468Y001175D02*
X014742Y001237D01*
X0157D01*
X0231Y0124D02*
Y01335D01*
Y0124D02*
X023473Y012027D01*
X0231Y01335D02*
X0232Y01345D01*
X023473Y011893D02*
Y012027D01*
Y011893D02*
X02357Y011796D01*
X01776Y011963D02*
X017763Y01196D01*
X01765Y01345D02*
X01776Y01334D01*
X017763Y011904D02*
X01787Y011796D01*
X01776Y011963D02*
Y01334D01*
X017763Y011904D02*
Y01196D01*
X0109Y01235D02*
Y01345D01*
Y01235D02*
X011223Y012027D01*
Y011893D02*
X01132Y011796D01*
X011223Y011893D02*
Y012027D01*
X005705Y011842D02*
X00575Y011796D01*
X005243Y012507D02*
Y013357D01*
X00515Y01345D02*
X005243Y013357D01*
X005705Y011842D02*
Y012045D01*
X005243Y012507D02*
X005705Y012045D01*
X00935Y0076D02*
X0139D01*
X0217Y01345D02*
Y017269D01*
X01615Y01345D02*
Y017269D01*
X0094Y01345D02*
Y017269D01*
X00365Y01345D02*
Y017269D01*
X004598Y001175D02*
X00903D01*
X003534Y002238D02*
X004598Y001175D01*
X01365Y0105D02*
X0143D01*
X012D02*
X01365D01*
X00215Y00995D02*
Y01345D01*
Y0095D02*
Y00995D01*
X0024Y00925D02*
X0063D01*
X00215Y0095D02*
X0024Y00925D01*
X0031Y0097D02*
X0169D01*
X00265Y01015D02*
Y01345D01*
Y01015D02*
X0031Y0097D01*
X0143Y0105D02*
X01465Y01085D01*
Y01345D01*
X0202Y0104D02*
Y01345D01*
X01847Y011206D02*
X019726Y00995D01*
X01975D01*
X0172Y01015D02*
X0188Y00855D01*
X0156Y01015D02*
X0172D01*
X01515Y0106D02*
X0156Y01015D01*
X01705Y0099D02*
X01829Y00866D01*
X0169Y0097D02*
X0178Y0088D01*
X01515Y0106D02*
Y01345D01*
X00915Y0099D02*
X01705D01*
X009275Y007675D02*
X00935Y0076D01*
X0037Y00775D02*
X003775Y007675D01*
X009275D01*
X0139Y0076D02*
X014934D01*
X013873Y009223D02*
X01395Y0093D01*
X01385Y00765D02*
Y009041D01*
X013873Y009065D02*
Y009223D01*
X01385Y00765D02*
X0139Y0076D01*
X01385Y009041D02*
X013873Y009065D01*
X014993Y007602D02*
X0151Y007709D01*
X014934Y0076D02*
X014936Y007602D01*
X014993D01*
X01515Y00575D02*
Y007659D01*
X015109Y0077D02*
X01575D01*
X008283Y010767D02*
X00915Y0099D01*
X0144Y008D02*
X0147Y0083D01*
X0151D01*
X0168Y0043D02*
Y007D01*
X01195Y011206D02*
X012Y011156D01*
Y0105D02*
Y011156D01*
X0063Y0065D02*
X01205D01*
X0063Y011156D02*
X00635Y011206D01*
X0063Y0104D02*
Y011156D01*
X004309Y00635D02*
X004459Y0065D01*
X0063D01*
X021777Y011126D02*
Y011195D01*
Y011126D02*
X0228Y010104D01*
X02165Y011254D02*
X021719D01*
X021777Y011195D01*
X0228Y00575D02*
Y010104D01*
X01515Y001645D02*
Y00575D01*
X0159Y0106D02*
Y011254D01*
X0093D02*
X00935Y011204D01*
Y0106D02*
Y011204D01*
X008283Y010767D02*
Y013333D01*
X00365Y01065D02*
X003723Y010723D01*
X003781Y011254D02*
X00385D01*
X003723Y011195D02*
X003781Y011254D01*
X003723Y010723D02*
Y011195D01*
X02357Y011206D02*
X02417D01*
X02295Y011254D02*
X023522D01*
X02357Y011206D01*
X0223Y011254D02*
X02295D01*
X01787Y011206D02*
X01847D01*
X01725Y011254D02*
X017822D01*
X01787Y011206D01*
X0166Y011254D02*
X01725D01*
X01132Y011206D02*
X01195D01*
X0107Y011254D02*
X011272D01*
X01132Y011206D01*
X01Y011254D02*
X0107D01*
X006534Y002238D02*
Y004321D01*
X004506Y00635D02*
X006534Y004321D01*
X004309Y00635D02*
X004506D01*
X00575Y011206D02*
X00635D01*
X00515Y011254D02*
X005702D01*
X00575Y011206D01*
X0045Y011254D02*
X00515D01*
X003781Y011824D02*
X00385D01*
X00315Y012456D02*
X003781Y011824D01*
X00315Y012456D02*
Y01345D01*
X004373Y011883D02*
X004431Y011824D01*
X0045D01*
X004373Y011883D02*
Y011952D01*
X00415Y012174D02*
X004373Y011952D01*
X00415Y012174D02*
Y01345D01*
X005081Y011824D02*
X00515D01*
X00465Y012256D02*
X005081Y011824D01*
X00465Y012256D02*
Y01345D01*
X0089Y012156D02*
Y01345D01*
X009231Y011824D02*
X0093D01*
X0089Y012156D02*
X009231Y011824D01*
X0099Y0122D02*
Y01345D01*
Y0122D02*
X01Y0121D01*
Y011824D02*
Y0121D01*
X010631Y011824D02*
X0107D01*
X0104Y012056D02*
X010631Y011824D01*
X0104Y012056D02*
Y01345D01*
X01565Y0122D02*
Y01345D01*
X015773Y011883D02*
X015831Y011824D01*
X0159D01*
X015773Y011883D02*
Y012077D01*
X01565Y0122D02*
X015773Y012077D01*
X0166Y011824D02*
X01665Y011874D01*
Y01345D01*
X01715D02*
X01725Y01335D01*
Y011824D02*
Y01335D01*
X0227Y012006D02*
X022881Y011824D01*
X0227Y012006D02*
Y01345D01*
X022881Y011824D02*
X02295D01*
X0222Y011883D02*
X022258Y011824D01*
X0223D01*
X0222Y011883D02*
Y01345D01*
X021523Y011883D02*
Y011952D01*
X0212Y012274D02*
X021523Y011952D01*
X0212Y012274D02*
Y01345D01*
X021581Y011824D02*
X02165D01*
X021523Y011883D02*
X021581Y011824D01*
X008459Y004163D02*
X01215D01*
X006534Y002238D02*
X008459Y004163D01*
X00903Y001175D02*
X00998D01*
X011088D01*
X01125Y001337D01*
X01215Y004085D02*
Y004163D01*
X010087Y002022D02*
X01215Y004085D01*
X010087Y001873D02*
Y002022D01*
X00998Y001765D02*
X010087Y001873D01*
X00903Y001765D02*
X00998D01*
X01398D02*
Y002255D01*
X01215Y004085D02*
X01398Y002255D01*
Y001765D02*
X01468D01*
X01398Y001175D02*
X01468D01*
X01305Y001337D02*
X013818D01*
X01398Y001175D01*
X0213Y0043D02*
Y0062D01*
X0212Y0063D02*
X0213Y0062D01*
X0174Y0063D02*
X0212D01*
X0173Y0064D02*
X0174Y0063D01*
X0173Y0064D02*
Y007895D01*
X0193Y0086D02*
X0207Y01D01*
Y01345D01*
X0178Y007895D02*
Y0088D01*
X008283Y013333D02*
X0084Y01345D01*
X016685Y0089D02*
X0173Y008285D01*
X01595Y0089D02*
X016685D01*
X01575Y0087D02*
X01595Y0089D01*
X01575Y008291D02*
Y0087D01*
X018863Y003787D02*
X020896Y001754D01*
X0188Y003871D02*
Y0043D01*
Y003871D02*
X018863Y003808D01*
Y003787D02*
Y003808D01*
X01715Y00165D02*
Y003721D01*
X0173Y003871D02*
Y0043D01*
X01715Y003721D02*
X0173Y003871D01*
X020896Y001754D02*
X021188D01*
X0193Y007895D02*
Y0086D01*
X01829Y007905D02*
Y00866D01*
X0188Y007895D02*
Y00855D01*
X0173Y007895D02*
Y008285D01*
X01829Y007905D02*
X0183Y007895D01*
X016Y007D02*
X0168D01*
X01575Y00725D02*
X016Y007D01*
X0168D02*
Y007895D01*
X021188Y001754D02*
X021292Y00165D01*
X015741Y0083D02*
X01575Y008291D01*
X0151Y0083D02*
X015741D01*
X01575Y00725D02*
Y0077D01*
X0183Y00325D02*
X0199Y00165D01*
X020308D01*
X0183Y00325D02*
Y0043D01*
X0178Y001984D02*
X018134Y00165D01*
X0178Y001984D02*
Y0043D01*
D16*
X0157Y002063D02*
D03*
Y001237D02*
D03*
D17*
Y003435D02*
D03*
Y002865D02*
D03*
X0107Y011824D02*
D03*
Y011254D02*
D03*
X0093Y011824D02*
D03*
Y011254D02*
D03*
X01Y011824D02*
D03*
Y011254D02*
D03*
X01725Y011824D02*
D03*
Y011254D02*
D03*
X02165Y011824D02*
D03*
Y011254D02*
D03*
X0159Y011824D02*
D03*
Y011254D02*
D03*
X0223Y011824D02*
D03*
Y011254D02*
D03*
X0166Y011824D02*
D03*
Y011254D02*
D03*
X02295Y011824D02*
D03*
Y011254D02*
D03*
X00385Y011824D02*
D03*
Y011254D02*
D03*
X0045Y011824D02*
D03*
Y011254D02*
D03*
X00515Y011824D02*
D03*
Y011254D02*
D03*
D18*
X01468Y001175D02*
D03*
Y001765D02*
D03*
X01787Y011796D02*
D03*
Y011206D02*
D03*
X00903Y001175D02*
D03*
Y001765D02*
D03*
X00998Y001175D02*
D03*
Y001765D02*
D03*
X01132Y011796D02*
D03*
Y011206D02*
D03*
X01195Y011796D02*
D03*
Y011206D02*
D03*
X00635Y011796D02*
D03*
Y011206D02*
D03*
X01847Y011796D02*
D03*
Y011206D02*
D03*
X01398Y001175D02*
D03*
Y001765D02*
D03*
X02357Y011796D02*
D03*
Y011206D02*
D03*
X02417Y011796D02*
D03*
Y011206D02*
D03*
X01575Y0077D02*
D03*
Y008291D02*
D03*
X0151Y007709D02*
D03*
Y0083D02*
D03*
X00575Y011796D02*
D03*
Y011206D02*
D03*
D19*
X01215Y004163D02*
D03*
D20*
X01305Y001337D02*
D03*
X01125D02*
D03*
D21*
X002891Y00635D02*
D03*
X004309D02*
D03*
D22*
X0217Y017269D02*
D03*
X01615D02*
D03*
X0094D02*
D03*
X00365D02*
D03*
D23*
X0232Y01345D02*
D03*
X0227D02*
D03*
X0222D02*
D03*
X0217D02*
D03*
X0212D02*
D03*
X0207D02*
D03*
X0202D02*
D03*
X01765D02*
D03*
X01715D02*
D03*
X01665D02*
D03*
X01615D02*
D03*
X01565D02*
D03*
X01515D02*
D03*
X01465D02*
D03*
X0109D02*
D03*
X0104D02*
D03*
X0099D02*
D03*
X0094D02*
D03*
X0089D02*
D03*
X0084D02*
D03*
X0079D02*
D03*
X00515D02*
D03*
X00465D02*
D03*
X00415D02*
D03*
X00365D02*
D03*
X00315D02*
D03*
X00265D02*
D03*
X00215D02*
D03*
D24*
X0168Y007895D02*
D03*
X0173D02*
D03*
X0178D02*
D03*
X0183D02*
D03*
X0188D02*
D03*
X0193D02*
D03*
X0198D02*
D03*
X0203D02*
D03*
X0208D02*
D03*
X0213D02*
D03*
Y0043D02*
D03*
X0208D02*
D03*
X0203D02*
D03*
X0198D02*
D03*
X0193D02*
D03*
X0188D02*
D03*
X0183D02*
D03*
X0178D02*
D03*
X0173D02*
D03*
D25*
X0168D02*
D03*
D36*
X01715Y00165D02*
D03*
X019292Y0209D02*
D03*
X0061D02*
D03*
X020308Y00165D02*
D03*
D37*
X018134D02*
D03*
X018308Y0209D02*
D03*
X005116D02*
D03*
X021292Y00165D02*
D03*
D41*
X0248Y00865D02*
Y00905D01*
Y011457D01*
X024507Y01175D02*
X0248Y011457D01*
X023616Y01175D02*
X024507D01*
X003184Y00865D02*
X0127D01*
X006904Y011796D02*
X0071Y0116D01*
X00635Y011796D02*
X006904D01*
X0071Y01145D02*
Y0116D01*
X005751Y011796D02*
X006349D01*
X00575Y011796D02*
X005751Y011796D01*
X0208Y018169D02*
X0217Y017269D01*
X0208Y018169D02*
Y02315D01*
X016863Y017982D02*
Y02315D01*
X01615Y017269D02*
X016863Y017982D01*
X0094Y017269D02*
Y02D01*
X0078Y0216D02*
X0094Y02D01*
X0078Y0216D02*
Y02315D01*
X00235Y018569D02*
X00365Y017269D01*
X00235Y018569D02*
Y021637D01*
X003863Y02315D01*
X002891Y008357D02*
X003184Y00865D01*
X002891Y00635D02*
Y008357D01*
X01847Y011796D02*
X018754D01*
X01787D02*
X01847D01*
X018754D02*
X019Y01155D01*
X02357Y011796D02*
X023616Y01175D01*
X01132Y011796D02*
X01195D01*
X011954Y0118D01*
X0127D01*
X002891Y004737D02*
X003534Y004094D01*
Y002238D02*
Y004094D01*
X002891Y004737D02*
Y00635D01*
D42*
X0078Y02315D02*
D03*
X007013D02*
D03*
X005438D02*
D03*
X00465D02*
D03*
X006225D02*
D03*
X0208D02*
D03*
X020013D02*
D03*
X018438D02*
D03*
X01765D02*
D03*
X019225D02*
D03*
D43*
X003863D02*
D03*
X016863D02*
D03*
D44*
X02465Y0233D02*
D03*
Y00125D02*
D03*
X00105Y0233D02*
D03*
Y00125D02*
D03*
D45*
X003534Y002238D02*
D03*
D46*
X006534D02*
D03*
D47*
X0249Y0195D02*
D03*
Y0045D02*
D03*
X0234Y0225D02*
D03*
X02415Y021D02*
D03*
Y018D02*
D03*
Y015D02*
D03*
X0234Y0105D02*
D03*
X02415Y006D02*
D03*
X0234Y0045D02*
D03*
X02415Y003D02*
D03*
X0234Y0015D02*
D03*
X0219Y0225D02*
D03*
X02265Y021D02*
D03*
X0219Y0195D02*
D03*
X02265Y015D02*
D03*
X0219Y0075D02*
D03*
Y0045D02*
D03*
X02265Y003D02*
D03*
X02115Y015D02*
D03*
Y003D02*
D03*
X0189Y0195D02*
D03*
Y0165D02*
D03*
X01965Y015D02*
D03*
X0189Y0135D02*
D03*
X01965Y012D02*
D03*
X0189Y0015D02*
D03*
X01815Y015D02*
D03*
X0159Y0225D02*
D03*
Y0195D02*
D03*
X01665Y015D02*
D03*
Y003D02*
D03*
X0144Y0225D02*
D03*
X01515Y021D02*
D03*
X0144Y0195D02*
D03*
X01515Y015D02*
D03*
X0144Y0105D02*
D03*
Y0045D02*
D03*
X0129Y0225D02*
D03*
X01365Y021D02*
D03*
X0129Y0195D02*
D03*
X01365Y018D02*
D03*
Y015D02*
D03*
Y012D02*
D03*
Y006D02*
D03*
X0114Y0225D02*
D03*
X01215Y021D02*
D03*
X0114Y0195D02*
D03*
X01215Y015D02*
D03*
X0114Y0105D02*
D03*
X01215Y006D02*
D03*
X0099Y0225D02*
D03*
X01065Y021D02*
D03*
Y015D02*
D03*
X0099Y0105D02*
D03*
X01065Y006D02*
D03*
X0099Y0045D02*
D03*
X0084Y0195D02*
D03*
X00915Y006D02*
D03*
X0084Y0045D02*
D03*
X00915Y003D02*
D03*
X0069Y0195D02*
D03*
Y0165D02*
D03*
X00765Y015D02*
D03*
X0069Y0135D02*
D03*
X00765Y006D02*
D03*
X0069Y0045D02*
D03*
X00765Y003D02*
D03*
X0054Y0195D02*
D03*
X00615Y018D02*
D03*
Y015D02*
D03*
X0054Y0105D02*
D03*
X00615Y006D02*
D03*
X0054Y0045D02*
D03*
X00615Y003D02*
D03*
X0039Y0195D02*
D03*
X00465Y015D02*
D03*
Y003D02*
D03*
X00315Y021D02*
D03*
Y015D02*
D03*
X0024Y0015D02*
D03*
X00165Y021D02*
D03*
X0009Y0195D02*
D03*
Y0165D02*
D03*
X00165Y015D02*
D03*
X0009Y0135D02*
D03*
X00165Y012D02*
D03*
X0009Y0105D02*
D03*
X00165Y009D02*
D03*
X0009Y0075D02*
D03*
X00165Y006D02*
D03*
X0009Y0045D02*
D03*
X00165Y003D02*
D03*
X01975Y00995D02*
D03*
X01885Y01185D02*
D03*
X019Y0112D02*
D03*
X0127Y0093D02*
D03*
Y009D02*
D03*
X01235Y0118D02*
D03*
X0127Y0111D02*
D03*
Y01145D02*
D03*
X0244Y00865D02*
D03*
X0248D02*
D03*
Y00905D02*
D03*
X02415Y00995D02*
D03*
X0071Y0093D02*
D03*
X0073Y009D02*
D03*
X00695D02*
D03*
X00735Y00865D02*
D03*
X00695Y01175D02*
D03*
Y01115D02*
D03*
X0073D02*
D03*
Y01145D02*
D03*
Y01175D02*
D03*
X00695Y01145D02*
D03*
X0147Y00415D02*
D03*
X0157D02*
D03*
X01365Y0105D02*
D03*
X00215Y00995D02*
D03*
X0063Y00925D02*
D03*
X0237Y0076D02*
D03*
X00935D02*
D03*
X0144Y008D02*
D03*
X012Y0105D02*
D03*
X01205Y0065D02*
D03*
X0063Y0104D02*
D03*
Y0065D02*
D03*
X0228Y00575D02*
D03*
X01515D02*
D03*
X0159Y0106D02*
D03*
X01395Y0093D02*
D03*
X00935Y0106D02*
D03*
X00365Y01065D02*
D03*
X0037Y00775D02*
D03*
X019Y01155D02*
D03*
X00695Y00865D02*
D03*
X0127Y0118D02*
D03*
Y00865D02*
D03*
M02*
