G04*
G04 #@! TF.GenerationSoftware,Altium Limited,Altium Designer,22.9.1 (49)*
G04*
G04 Layer_Color=2752767*
%FSTAX24Y24*%
%MOIN*%
G70*
G04*
G04 #@! TF.SameCoordinates,2FAE9610-6970-4823-A7E0-823FAA2A8A52*
G04*
G04*
G04 #@! TF.FilePolarity,Positive*
G04*
G01*
G75*
%ADD12C,0.0050*%
%ADD51C,0.0067*%
D12*
X0078Y02295D02*
X0076Y02335D01*
X008D01*
X0078Y02295D01*
X007013D02*
X006813Y02335D01*
X007213D01*
X007013Y02295D01*
X005438D02*
X005238Y02335D01*
X005638D01*
X005438Y02295D01*
X003863D02*
X003663Y02335D01*
X004063D01*
X003863Y02295D01*
X00465D02*
X00445Y02335D01*
X00485D01*
X00465Y02295D01*
X006225D02*
X006025Y02335D01*
X006425D01*
X006225Y02295D01*
X02445Y0231D02*
Y0235D01*
X02485D01*
Y0231D01*
X02445D01*
Y00105D02*
Y00145D01*
X02485D01*
Y00105D01*
X02445D01*
X00085Y0231D02*
Y0235D01*
X00125D01*
Y0231D01*
X00085D01*
Y00105D02*
Y00145D01*
X00125D01*
Y00105D01*
X00085D01*
X0208Y02295D02*
X0206Y02335D01*
X021D01*
X0208Y02295D01*
X020013D02*
X019813Y02335D01*
X020213D01*
X020013Y02295D01*
X018438D02*
X018238Y02335D01*
X018638D01*
X018438Y02295D01*
X016863D02*
X016663Y02335D01*
X017063D01*
X016863Y02295D01*
X01765D02*
X01745Y02335D01*
X01785D01*
X01765Y02295D01*
X019225D02*
X019025Y02335D01*
X019425D01*
X019225Y02295D01*
X0247Y0193D02*
X0248Y0195D01*
X0247Y0197D01*
X0249Y0196D01*
X0251Y0197D01*
X025Y0195D01*
X0251Y0193D01*
X0249Y0194D01*
X0247Y0193D01*
Y0043D02*
X0248Y0045D01*
X0247Y0047D01*
X0249Y0046D01*
X0251Y0047D01*
X025Y0045D01*
X0251Y0043D01*
X0249Y0044D01*
X0247Y0043D01*
X0232Y0223D02*
X0233Y0225D01*
X0232Y0227D01*
X0234Y0226D01*
X0236Y0227D01*
X0235Y0225D01*
X0236Y0223D01*
X0234Y0224D01*
X0232Y0223D01*
X02395Y0208D02*
X02405Y021D01*
X02395Y0212D01*
X02415Y0211D01*
X02435Y0212D01*
X02425Y021D01*
X02435Y0208D01*
X02415Y0209D01*
X02395Y0208D01*
Y0178D02*
X02405Y018D01*
X02395Y0182D01*
X02415Y0181D01*
X02435Y0182D01*
X02425Y018D01*
X02435Y0178D01*
X02415Y0179D01*
X02395Y0178D01*
Y0148D02*
X02405Y015D01*
X02395Y0152D01*
X02415Y0151D01*
X02435Y0152D01*
X02425Y015D01*
X02435Y0148D01*
X02415Y0149D01*
X02395Y0148D01*
X0232Y0103D02*
X0233Y0105D01*
X0232Y0107D01*
X0234Y0106D01*
X0236Y0107D01*
X0235Y0105D01*
X0236Y0103D01*
X0234Y0104D01*
X0232Y0103D01*
X02395Y0058D02*
X02405Y006D01*
X02395Y0062D01*
X02415Y0061D01*
X02435Y0062D01*
X02425Y006D01*
X02435Y0058D01*
X02415Y0059D01*
X02395Y0058D01*
X0232Y0043D02*
X0233Y0045D01*
X0232Y0047D01*
X0234Y0046D01*
X0236Y0047D01*
X0235Y0045D01*
X0236Y0043D01*
X0234Y0044D01*
X0232Y0043D01*
X02395Y0028D02*
X02405Y003D01*
X02395Y0032D01*
X02415Y0031D01*
X02435Y0032D01*
X02425Y003D01*
X02435Y0028D01*
X02415Y0029D01*
X02395Y0028D01*
X0232Y0013D02*
X0233Y0015D01*
X0232Y0017D01*
X0234Y0016D01*
X0236Y0017D01*
X0235Y0015D01*
X0236Y0013D01*
X0234Y0014D01*
X0232Y0013D01*
X0217Y0223D02*
X0218Y0225D01*
X0217Y0227D01*
X0219Y0226D01*
X0221Y0227D01*
X022Y0225D01*
X0221Y0223D01*
X0219Y0224D01*
X0217Y0223D01*
X02245Y0208D02*
X02255Y021D01*
X02245Y0212D01*
X02265Y0211D01*
X02285Y0212D01*
X02275Y021D01*
X02285Y0208D01*
X02265Y0209D01*
X02245Y0208D01*
X0217Y0193D02*
X0218Y0195D01*
X0217Y0197D01*
X0219Y0196D01*
X0221Y0197D01*
X022Y0195D01*
X0221Y0193D01*
X0219Y0194D01*
X0217Y0193D01*
X02245Y0148D02*
X02255Y015D01*
X02245Y0152D01*
X02265Y0151D01*
X02285Y0152D01*
X02275Y015D01*
X02285Y0148D01*
X02265Y0149D01*
X02245Y0148D01*
X0217Y0073D02*
X0218Y0075D01*
X0217Y0077D01*
X0219Y0076D01*
X0221Y0077D01*
X022Y0075D01*
X0221Y0073D01*
X0219Y0074D01*
X0217Y0073D01*
Y0043D02*
X0218Y0045D01*
X0217Y0047D01*
X0219Y0046D01*
X0221Y0047D01*
X022Y0045D01*
X0221Y0043D01*
X0219Y0044D01*
X0217Y0043D01*
X02245Y0028D02*
X02255Y003D01*
X02245Y0032D01*
X02265Y0031D01*
X02285Y0032D01*
X02275Y003D01*
X02285Y0028D01*
X02265Y0029D01*
X02245Y0028D01*
X02095Y0148D02*
X02105Y015D01*
X02095Y0152D01*
X02115Y0151D01*
X02135Y0152D01*
X02125Y015D01*
X02135Y0148D01*
X02115Y0149D01*
X02095Y0148D01*
Y0028D02*
X02105Y003D01*
X02095Y0032D01*
X02115Y0031D01*
X02135Y0032D01*
X02125Y003D01*
X02135Y0028D01*
X02115Y0029D01*
X02095Y0028D01*
X0187Y0193D02*
X0188Y0195D01*
X0187Y0197D01*
X0189Y0196D01*
X0191Y0197D01*
X019Y0195D01*
X0191Y0193D01*
X0189Y0194D01*
X0187Y0193D01*
Y0163D02*
X0188Y0165D01*
X0187Y0167D01*
X0189Y0166D01*
X0191Y0167D01*
X019Y0165D01*
X0191Y0163D01*
X0189Y0164D01*
X0187Y0163D01*
X01945Y0148D02*
X01955Y015D01*
X01945Y0152D01*
X01965Y0151D01*
X01985Y0152D01*
X01975Y015D01*
X01985Y0148D01*
X01965Y0149D01*
X01945Y0148D01*
X0187Y0133D02*
X0188Y0135D01*
X0187Y0137D01*
X0189Y0136D01*
X0191Y0137D01*
X019Y0135D01*
X0191Y0133D01*
X0189Y0134D01*
X0187Y0133D01*
X01945Y0118D02*
X01955Y012D01*
X01945Y0122D01*
X01965Y0121D01*
X01985Y0122D01*
X01975Y012D01*
X01985Y0118D01*
X01965Y0119D01*
X01945Y0118D01*
X0187Y0013D02*
X0188Y0015D01*
X0187Y0017D01*
X0189Y0016D01*
X0191Y0017D01*
X019Y0015D01*
X0191Y0013D01*
X0189Y0014D01*
X0187Y0013D01*
X01795Y0148D02*
X01805Y015D01*
X01795Y0152D01*
X01815Y0151D01*
X01835Y0152D01*
X01825Y015D01*
X01835Y0148D01*
X01815Y0149D01*
X01795Y0148D01*
X0157Y0223D02*
X0158Y0225D01*
X0157Y0227D01*
X0159Y0226D01*
X0161Y0227D01*
X016Y0225D01*
X0161Y0223D01*
X0159Y0224D01*
X0157Y0223D01*
Y0193D02*
X0158Y0195D01*
X0157Y0197D01*
X0159Y0196D01*
X0161Y0197D01*
X016Y0195D01*
X0161Y0193D01*
X0159Y0194D01*
X0157Y0193D01*
X01645Y0148D02*
X01655Y015D01*
X01645Y0152D01*
X01665Y0151D01*
X01685Y0152D01*
X01675Y015D01*
X01685Y0148D01*
X01665Y0149D01*
X01645Y0148D01*
Y0028D02*
X01655Y003D01*
X01645Y0032D01*
X01665Y0031D01*
X01685Y0032D01*
X01675Y003D01*
X01685Y0028D01*
X01665Y0029D01*
X01645Y0028D01*
X0142Y0223D02*
X0143Y0225D01*
X0142Y0227D01*
X0144Y0226D01*
X0146Y0227D01*
X0145Y0225D01*
X0146Y0223D01*
X0144Y0224D01*
X0142Y0223D01*
X01495Y0208D02*
X01505Y021D01*
X01495Y0212D01*
X01515Y0211D01*
X01535Y0212D01*
X01525Y021D01*
X01535Y0208D01*
X01515Y0209D01*
X01495Y0208D01*
X0142Y0193D02*
X0143Y0195D01*
X0142Y0197D01*
X0144Y0196D01*
X0146Y0197D01*
X0145Y0195D01*
X0146Y0193D01*
X0144Y0194D01*
X0142Y0193D01*
X01495Y0148D02*
X01505Y015D01*
X01495Y0152D01*
X01515Y0151D01*
X01535Y0152D01*
X01525Y015D01*
X01535Y0148D01*
X01515Y0149D01*
X01495Y0148D01*
X0142Y0103D02*
X0143Y0105D01*
X0142Y0107D01*
X0144Y0106D01*
X0146Y0107D01*
X0145Y0105D01*
X0146Y0103D01*
X0144Y0104D01*
X0142Y0103D01*
Y0043D02*
X0143Y0045D01*
X0142Y0047D01*
X0144Y0046D01*
X0146Y0047D01*
X0145Y0045D01*
X0146Y0043D01*
X0144Y0044D01*
X0142Y0043D01*
X0127Y0223D02*
X0128Y0225D01*
X0127Y0227D01*
X0129Y0226D01*
X0131Y0227D01*
X013Y0225D01*
X0131Y0223D01*
X0129Y0224D01*
X0127Y0223D01*
X01345Y0208D02*
X01355Y021D01*
X01345Y0212D01*
X01365Y0211D01*
X01385Y0212D01*
X01375Y021D01*
X01385Y0208D01*
X01365Y0209D01*
X01345Y0208D01*
X0127Y0193D02*
X0128Y0195D01*
X0127Y0197D01*
X0129Y0196D01*
X0131Y0197D01*
X013Y0195D01*
X0131Y0193D01*
X0129Y0194D01*
X0127Y0193D01*
X01345Y0178D02*
X01355Y018D01*
X01345Y0182D01*
X01365Y0181D01*
X01385Y0182D01*
X01375Y018D01*
X01385Y0178D01*
X01365Y0179D01*
X01345Y0178D01*
Y0148D02*
X01355Y015D01*
X01345Y0152D01*
X01365Y0151D01*
X01385Y0152D01*
X01375Y015D01*
X01385Y0148D01*
X01365Y0149D01*
X01345Y0148D01*
Y0118D02*
X01355Y012D01*
X01345Y0122D01*
X01365Y0121D01*
X01385Y0122D01*
X01375Y012D01*
X01385Y0118D01*
X01365Y0119D01*
X01345Y0118D01*
Y0058D02*
X01355Y006D01*
X01345Y0062D01*
X01365Y0061D01*
X01385Y0062D01*
X01375Y006D01*
X01385Y0058D01*
X01365Y0059D01*
X01345Y0058D01*
X0112Y0223D02*
X0113Y0225D01*
X0112Y0227D01*
X0114Y0226D01*
X0116Y0227D01*
X0115Y0225D01*
X0116Y0223D01*
X0114Y0224D01*
X0112Y0223D01*
X01195Y0208D02*
X01205Y021D01*
X01195Y0212D01*
X01215Y0211D01*
X01235Y0212D01*
X01225Y021D01*
X01235Y0208D01*
X01215Y0209D01*
X01195Y0208D01*
X0112Y0193D02*
X0113Y0195D01*
X0112Y0197D01*
X0114Y0196D01*
X0116Y0197D01*
X0115Y0195D01*
X0116Y0193D01*
X0114Y0194D01*
X0112Y0193D01*
X01195Y0148D02*
X01205Y015D01*
X01195Y0152D01*
X01215Y0151D01*
X01235Y0152D01*
X01225Y015D01*
X01235Y0148D01*
X01215Y0149D01*
X01195Y0148D01*
X0112Y0103D02*
X0113Y0105D01*
X0112Y0107D01*
X0114Y0106D01*
X0116Y0107D01*
X0115Y0105D01*
X0116Y0103D01*
X0114Y0104D01*
X0112Y0103D01*
X01195Y0058D02*
X01205Y006D01*
X01195Y0062D01*
X01215Y0061D01*
X01235Y0062D01*
X01225Y006D01*
X01235Y0058D01*
X01215Y0059D01*
X01195Y0058D01*
X0097Y0223D02*
X0098Y0225D01*
X0097Y0227D01*
X0099Y0226D01*
X0101Y0227D01*
X01Y0225D01*
X0101Y0223D01*
X0099Y0224D01*
X0097Y0223D01*
X01045Y0208D02*
X01055Y021D01*
X01045Y0212D01*
X01065Y0211D01*
X01085Y0212D01*
X01075Y021D01*
X01085Y0208D01*
X01065Y0209D01*
X01045Y0208D01*
Y0148D02*
X01055Y015D01*
X01045Y0152D01*
X01065Y0151D01*
X01085Y0152D01*
X01075Y015D01*
X01085Y0148D01*
X01065Y0149D01*
X01045Y0148D01*
X0097Y0103D02*
X0098Y0105D01*
X0097Y0107D01*
X0099Y0106D01*
X0101Y0107D01*
X01Y0105D01*
X0101Y0103D01*
X0099Y0104D01*
X0097Y0103D01*
X01045Y0058D02*
X01055Y006D01*
X01045Y0062D01*
X01065Y0061D01*
X01085Y0062D01*
X01075Y006D01*
X01085Y0058D01*
X01065Y0059D01*
X01045Y0058D01*
X0097Y0043D02*
X0098Y0045D01*
X0097Y0047D01*
X0099Y0046D01*
X0101Y0047D01*
X01Y0045D01*
X0101Y0043D01*
X0099Y0044D01*
X0097Y0043D01*
X0082Y0193D02*
X0083Y0195D01*
X0082Y0197D01*
X0084Y0196D01*
X0086Y0197D01*
X0085Y0195D01*
X0086Y0193D01*
X0084Y0194D01*
X0082Y0193D01*
X00895Y0058D02*
X00905Y006D01*
X00895Y0062D01*
X00915Y0061D01*
X00935Y0062D01*
X00925Y006D01*
X00935Y0058D01*
X00915Y0059D01*
X00895Y0058D01*
X0082Y0043D02*
X0083Y0045D01*
X0082Y0047D01*
X0084Y0046D01*
X0086Y0047D01*
X0085Y0045D01*
X0086Y0043D01*
X0084Y0044D01*
X0082Y0043D01*
X00895Y0028D02*
X00905Y003D01*
X00895Y0032D01*
X00915Y0031D01*
X00935Y0032D01*
X00925Y003D01*
X00935Y0028D01*
X00915Y0029D01*
X00895Y0028D01*
X0067Y0193D02*
X0068Y0195D01*
X0067Y0197D01*
X0069Y0196D01*
X0071Y0197D01*
X007Y0195D01*
X0071Y0193D01*
X0069Y0194D01*
X0067Y0193D01*
Y0163D02*
X0068Y0165D01*
X0067Y0167D01*
X0069Y0166D01*
X0071Y0167D01*
X007Y0165D01*
X0071Y0163D01*
X0069Y0164D01*
X0067Y0163D01*
X00745Y0148D02*
X00755Y015D01*
X00745Y0152D01*
X00765Y0151D01*
X00785Y0152D01*
X00775Y015D01*
X00785Y0148D01*
X00765Y0149D01*
X00745Y0148D01*
X0067Y0133D02*
X0068Y0135D01*
X0067Y0137D01*
X0069Y0136D01*
X0071Y0137D01*
X007Y0135D01*
X0071Y0133D01*
X0069Y0134D01*
X0067Y0133D01*
X00745Y0058D02*
X00755Y006D01*
X00745Y0062D01*
X00765Y0061D01*
X00785Y0062D01*
X00775Y006D01*
X00785Y0058D01*
X00765Y0059D01*
X00745Y0058D01*
X0067Y0043D02*
X0068Y0045D01*
X0067Y0047D01*
X0069Y0046D01*
X0071Y0047D01*
X007Y0045D01*
X0071Y0043D01*
X0069Y0044D01*
X0067Y0043D01*
X00745Y0028D02*
X00755Y003D01*
X00745Y0032D01*
X00765Y0031D01*
X00785Y0032D01*
X00775Y003D01*
X00785Y0028D01*
X00765Y0029D01*
X00745Y0028D01*
X0052Y0193D02*
X0053Y0195D01*
X0052Y0197D01*
X0054Y0196D01*
X0056Y0197D01*
X0055Y0195D01*
X0056Y0193D01*
X0054Y0194D01*
X0052Y0193D01*
X00595Y0178D02*
X00605Y018D01*
X00595Y0182D01*
X00615Y0181D01*
X00635Y0182D01*
X00625Y018D01*
X00635Y0178D01*
X00615Y0179D01*
X00595Y0178D01*
Y0148D02*
X00605Y015D01*
X00595Y0152D01*
X00615Y0151D01*
X00635Y0152D01*
X00625Y015D01*
X00635Y0148D01*
X00615Y0149D01*
X00595Y0148D01*
X0052Y0103D02*
X0053Y0105D01*
X0052Y0107D01*
X0054Y0106D01*
X0056Y0107D01*
X0055Y0105D01*
X0056Y0103D01*
X0054Y0104D01*
X0052Y0103D01*
X00595Y0058D02*
X00605Y006D01*
X00595Y0062D01*
X00615Y0061D01*
X00635Y0062D01*
X00625Y006D01*
X00635Y0058D01*
X00615Y0059D01*
X00595Y0058D01*
X0052Y0043D02*
X0053Y0045D01*
X0052Y0047D01*
X0054Y0046D01*
X0056Y0047D01*
X0055Y0045D01*
X0056Y0043D01*
X0054Y0044D01*
X0052Y0043D01*
X00595Y0028D02*
X00605Y003D01*
X00595Y0032D01*
X00615Y0031D01*
X00635Y0032D01*
X00625Y003D01*
X00635Y0028D01*
X00615Y0029D01*
X00595Y0028D01*
X0037Y0193D02*
X0038Y0195D01*
X0037Y0197D01*
X0039Y0196D01*
X0041Y0197D01*
X004Y0195D01*
X0041Y0193D01*
X0039Y0194D01*
X0037Y0193D01*
X00445Y0148D02*
X00455Y015D01*
X00445Y0152D01*
X00465Y0151D01*
X00485Y0152D01*
X00475Y015D01*
X00485Y0148D01*
X00465Y0149D01*
X00445Y0148D01*
Y0028D02*
X00455Y003D01*
X00445Y0032D01*
X00465Y0031D01*
X00485Y0032D01*
X00475Y003D01*
X00485Y0028D01*
X00465Y0029D01*
X00445Y0028D01*
X00295Y0208D02*
X00305Y021D01*
X00295Y0212D01*
X00315Y0211D01*
X00335Y0212D01*
X00325Y021D01*
X00335Y0208D01*
X00315Y0209D01*
X00295Y0208D01*
Y0148D02*
X00305Y015D01*
X00295Y0152D01*
X00315Y0151D01*
X00335Y0152D01*
X00325Y015D01*
X00335Y0148D01*
X00315Y0149D01*
X00295Y0148D01*
X0022Y0013D02*
X0023Y0015D01*
X0022Y0017D01*
X0024Y0016D01*
X0026Y0017D01*
X0025Y0015D01*
X0026Y0013D01*
X0024Y0014D01*
X0022Y0013D01*
X00145Y0208D02*
X00155Y021D01*
X00145Y0212D01*
X00165Y0211D01*
X00185Y0212D01*
X00175Y021D01*
X00185Y0208D01*
X00165Y0209D01*
X00145Y0208D01*
X0007Y0193D02*
X0008Y0195D01*
X0007Y0197D01*
X0009Y0196D01*
X0011Y0197D01*
X001Y0195D01*
X0011Y0193D01*
X0009Y0194D01*
X0007Y0193D01*
Y0163D02*
X0008Y0165D01*
X0007Y0167D01*
X0009Y0166D01*
X0011Y0167D01*
X001Y0165D01*
X0011Y0163D01*
X0009Y0164D01*
X0007Y0163D01*
X00145Y0148D02*
X00155Y015D01*
X00145Y0152D01*
X00165Y0151D01*
X00185Y0152D01*
X00175Y015D01*
X00185Y0148D01*
X00165Y0149D01*
X00145Y0148D01*
X0007Y0133D02*
X0008Y0135D01*
X0007Y0137D01*
X0009Y0136D01*
X0011Y0137D01*
X001Y0135D01*
X0011Y0133D01*
X0009Y0134D01*
X0007Y0133D01*
X00145Y0118D02*
X00155Y012D01*
X00145Y0122D01*
X00165Y0121D01*
X00185Y0122D01*
X00175Y012D01*
X00185Y0118D01*
X00165Y0119D01*
X00145Y0118D01*
X0007Y0103D02*
X0008Y0105D01*
X0007Y0107D01*
X0009Y0106D01*
X0011Y0107D01*
X001Y0105D01*
X0011Y0103D01*
X0009Y0104D01*
X0007Y0103D01*
X00145Y0088D02*
X00155Y009D01*
X00145Y0092D01*
X00165Y0091D01*
X00185Y0092D01*
X00175Y009D01*
X00185Y0088D01*
X00165Y0089D01*
X00145Y0088D01*
X0007Y0073D02*
X0008Y0075D01*
X0007Y0077D01*
X0009Y0076D01*
X0011Y0077D01*
X001Y0075D01*
X0011Y0073D01*
X0009Y0074D01*
X0007Y0073D01*
X00145Y0058D02*
X00155Y006D01*
X00145Y0062D01*
X00165Y0061D01*
X00185Y0062D01*
X00175Y006D01*
X00185Y0058D01*
X00165Y0059D01*
X00145Y0058D01*
X0007Y0043D02*
X0008Y0045D01*
X0007Y0047D01*
X0009Y0046D01*
X0011Y0047D01*
X001Y0045D01*
X0011Y0043D01*
X0009Y0044D01*
X0007Y0043D01*
X00145Y0028D02*
X00155Y003D01*
X00145Y0032D01*
X00165Y0031D01*
X00185Y0032D01*
X00175Y003D01*
X00185Y0028D01*
X00165Y0029D01*
X00145Y0028D01*
X01955Y00975D02*
X01965Y00995D01*
X01955Y01015D01*
X01975Y01005D01*
X01995Y01015D01*
X01985Y00995D01*
X01995Y00975D01*
X01975Y00985D01*
X01955Y00975D01*
X01865Y01165D02*
X01875Y01185D01*
X01865Y01205D01*
X01885Y01195D01*
X01905Y01205D01*
X01895Y01185D01*
X01905Y01165D01*
X01885Y01175D01*
X01865Y01165D01*
X0188Y011D02*
X0189Y0112D01*
X0188Y0114D01*
X019Y0113D01*
X0192Y0114D01*
X0191Y0112D01*
X0192Y011D01*
X019Y0111D01*
X0188Y011D01*
X0125Y0091D02*
X0126Y0093D01*
X0125Y0095D01*
X0127Y0094D01*
X0129Y0095D01*
X0128Y0093D01*
X0129Y0091D01*
X0127Y0092D01*
X0125Y0091D01*
Y0088D02*
X0126Y009D01*
X0125Y0092D01*
X0127Y0091D01*
X0129Y0092D01*
X0128Y009D01*
X0129Y0088D01*
X0127Y0089D01*
X0125Y0088D01*
X01215Y0116D02*
X01225Y0118D01*
X01215Y012D01*
X01235Y0119D01*
X01255Y012D01*
X01245Y0118D01*
X01255Y0116D01*
X01235Y0117D01*
X01215Y0116D01*
X0125Y0109D02*
X0126Y0111D01*
X0125Y0113D01*
X0127Y0112D01*
X0129Y0113D01*
X0128Y0111D01*
X0129Y0109D01*
X0127Y011D01*
X0125Y0109D01*
Y01125D02*
X0126Y01145D01*
X0125Y01165D01*
X0127Y01155D01*
X0129Y01165D01*
X0128Y01145D01*
X0129Y01125D01*
X0127Y01135D01*
X0125Y01125D01*
X0242Y00845D02*
X0243Y00865D01*
X0242Y00885D01*
X0244Y00875D01*
X0246Y00885D01*
X0245Y00865D01*
X0246Y00845D01*
X0244Y00855D01*
X0242Y00845D01*
X0246D02*
X0247Y00865D01*
X0246Y00885D01*
X0248Y00875D01*
X025Y00885D01*
X0249Y00865D01*
X025Y00845D01*
X0248Y00855D01*
X0246Y00845D01*
Y00885D02*
X0247Y00905D01*
X0246Y00925D01*
X0248Y00915D01*
X025Y00925D01*
X0249Y00905D01*
X025Y00885D01*
X0248Y00895D01*
X0246Y00885D01*
X02395Y00975D02*
X02405Y00995D01*
X02395Y01015D01*
X02415Y01005D01*
X02435Y01015D01*
X02425Y00995D01*
X02435Y00975D01*
X02415Y00985D01*
X02395Y00975D01*
X0069Y0091D02*
X007Y0093D01*
X0069Y0095D01*
X0071Y0094D01*
X0073Y0095D01*
X0072Y0093D01*
X0073Y0091D01*
X0071Y0092D01*
X0069Y0091D01*
X0071Y0088D02*
X0072Y009D01*
X0071Y0092D01*
X0073Y0091D01*
X0075Y0092D01*
X0074Y009D01*
X0075Y0088D01*
X0073Y0089D01*
X0071Y0088D01*
X00675D02*
X00685Y009D01*
X00675Y0092D01*
X00695Y0091D01*
X00715Y0092D01*
X00705Y009D01*
X00715Y0088D01*
X00695Y0089D01*
X00675Y0088D01*
X00715Y00845D02*
X00725Y00865D01*
X00715Y00885D01*
X00735Y00875D01*
X00755Y00885D01*
X00745Y00865D01*
X00755Y00845D01*
X00735Y00855D01*
X00715Y00845D01*
X00675Y01155D02*
X00685Y01175D01*
X00675Y01195D01*
X00695Y01185D01*
X00715Y01195D01*
X00705Y01175D01*
X00715Y01155D01*
X00695Y01165D01*
X00675Y01155D01*
Y01095D02*
X00685Y01115D01*
X00675Y01135D01*
X00695Y01125D01*
X00715Y01135D01*
X00705Y01115D01*
X00715Y01095D01*
X00695Y01105D01*
X00675Y01095D01*
X0071D02*
X0072Y01115D01*
X0071Y01135D01*
X0073Y01125D01*
X0075Y01135D01*
X0074Y01115D01*
X0075Y01095D01*
X0073Y01105D01*
X0071Y01095D01*
Y01125D02*
X0072Y01145D01*
X0071Y01165D01*
X0073Y01155D01*
X0075Y01165D01*
X0074Y01145D01*
X0075Y01125D01*
X0073Y01135D01*
X0071Y01125D01*
Y01155D02*
X0072Y01175D01*
X0071Y01195D01*
X0073Y01185D01*
X0075Y01195D01*
X0074Y01175D01*
X0075Y01155D01*
X0073Y01165D01*
X0071Y01155D01*
X00675Y01125D02*
X00685Y01145D01*
X00675Y01165D01*
X00695Y01155D01*
X00715Y01165D01*
X00705Y01145D01*
X00715Y01125D01*
X00695Y01135D01*
X00675Y01125D01*
X0145Y00395D02*
X0146Y00415D01*
X0145Y00435D01*
X0147Y00425D01*
X0149Y00435D01*
X0148Y00415D01*
X0149Y00395D01*
X0147Y00405D01*
X0145Y00395D01*
X0155D02*
X0156Y00415D01*
X0155Y00435D01*
X0157Y00425D01*
X0159Y00435D01*
X0158Y00415D01*
X0159Y00395D01*
X0157Y00405D01*
X0155Y00395D01*
X01345Y0103D02*
X01355Y0105D01*
X01345Y0107D01*
X01365Y0106D01*
X01385Y0107D01*
X01375Y0105D01*
X01385Y0103D01*
X01365Y0104D01*
X01345Y0103D01*
X00195Y00975D02*
X00205Y00995D01*
X00195Y01015D01*
X00215Y01005D01*
X00235Y01015D01*
X00225Y00995D01*
X00235Y00975D01*
X00215Y00985D01*
X00195Y00975D01*
X0061Y00905D02*
X0062Y00925D01*
X0061Y00945D01*
X0063Y00935D01*
X0065Y00945D01*
X0064Y00925D01*
X0065Y00905D01*
X0063Y00915D01*
X0061Y00905D01*
X0235Y0074D02*
X0236Y0076D01*
X0235Y0078D01*
X0237Y0077D01*
X0239Y0078D01*
X0238Y0076D01*
X0239Y0074D01*
X0237Y0075D01*
X0235Y0074D01*
X00915D02*
X00925Y0076D01*
X00915Y0078D01*
X00935Y0077D01*
X00955Y0078D01*
X00945Y0076D01*
X00955Y0074D01*
X00935Y0075D01*
X00915Y0074D01*
X0142Y0078D02*
X0143Y008D01*
X0142Y0082D01*
X0144Y0081D01*
X0146Y0082D01*
X0145Y008D01*
X0146Y0078D01*
X0144Y0079D01*
X0142Y0078D01*
X0118Y0103D02*
X0119Y0105D01*
X0118Y0107D01*
X012Y0106D01*
X0122Y0107D01*
X0121Y0105D01*
X0122Y0103D01*
X012Y0104D01*
X0118Y0103D01*
X01185Y0063D02*
X01195Y0065D01*
X01185Y0067D01*
X01205Y0066D01*
X01225Y0067D01*
X01215Y0065D01*
X01225Y0063D01*
X01205Y0064D01*
X01185Y0063D01*
X0061Y0102D02*
X0062Y0104D01*
X0061Y0106D01*
X0063Y0105D01*
X0065Y0106D01*
X0064Y0104D01*
X0065Y0102D01*
X0063Y0103D01*
X0061Y0102D01*
Y0063D02*
X0062Y0065D01*
X0061Y0067D01*
X0063Y0066D01*
X0065Y0067D01*
X0064Y0065D01*
X0065Y0063D01*
X0063Y0064D01*
X0061Y0063D01*
X0226Y00555D02*
X0227Y00575D01*
X0226Y00595D01*
X0228Y00585D01*
X023Y00595D01*
X0229Y00575D01*
X023Y00555D01*
X0228Y00565D01*
X0226Y00555D01*
X01495D02*
X01505Y00575D01*
X01495Y00595D01*
X01515Y00585D01*
X01535Y00595D01*
X01525Y00575D01*
X01535Y00555D01*
X01515Y00565D01*
X01495Y00555D01*
X0157Y0104D02*
X0158Y0106D01*
X0157Y0108D01*
X0159Y0107D01*
X0161Y0108D01*
X016Y0106D01*
X0161Y0104D01*
X0159Y0105D01*
X0157Y0104D01*
X01375Y0091D02*
X01385Y0093D01*
X01375Y0095D01*
X01395Y0094D01*
X01415Y0095D01*
X01405Y0093D01*
X01415Y0091D01*
X01395Y0092D01*
X01375Y0091D01*
X00915Y0104D02*
X00925Y0106D01*
X00915Y0108D01*
X00935Y0107D01*
X00955Y0108D01*
X00945Y0106D01*
X00955Y0104D01*
X00935Y0105D01*
X00915Y0104D01*
X00345Y01045D02*
X00355Y01065D01*
X00345Y01085D01*
X00365Y01075D01*
X00385Y01085D01*
X00375Y01065D01*
X00385Y01045D01*
X00365Y01055D01*
X00345Y01045D01*
X0035Y00755D02*
X0036Y00775D01*
X0035Y00795D01*
X0037Y00785D01*
X0039Y00795D01*
X0038Y00775D01*
X0039Y00755D01*
X0037Y00765D01*
X0035Y00755D01*
X0188Y01135D02*
X0189Y01155D01*
X0188Y01175D01*
X019Y01165D01*
X0192Y01175D01*
X0191Y01155D01*
X0192Y01135D01*
X019Y01145D01*
X0188Y01135D01*
X00675Y00845D02*
X00685Y00865D01*
X00675Y00885D01*
X00695Y00875D01*
X00715Y00885D01*
X00705Y00865D01*
X00715Y00845D01*
X00695Y00855D01*
X00675Y00845D01*
X0125Y0116D02*
X0126Y0118D01*
X0125Y012D01*
X0127Y0119D01*
X0129Y012D01*
X0128Y0118D01*
X0129Y0116D01*
X0127Y0117D01*
X0125Y0116D01*
Y00845D02*
X0126Y00865D01*
X0125Y00885D01*
X0127Y00875D01*
X0129Y00885D01*
X0128Y00865D01*
X0129Y00845D01*
X0127Y00855D01*
X0125Y00845D01*
D51*
X01735Y00165D02*
G03*
X01735Y00165I-0002J0D01*
G01*
X018334D02*
G03*
X018334Y00165I-0002J0D01*
G01*
X019492Y0209D02*
G03*
X019492Y0209I-0002J0D01*
G01*
X018508D02*
G03*
X018508Y0209I-0002J0D01*
G01*
X0063D02*
G03*
X0063Y0209I-0002J0D01*
G01*
X005316D02*
G03*
X005316Y0209I-0002J0D01*
G01*
X020508Y00165D02*
G03*
X020508Y00165I-0002J0D01*
G01*
X021492D02*
G03*
X021492Y00165I-0002J0D01*
G01*
X003734Y002238D02*
G03*
X003734Y002238I-0002J0D01*
G01*
X006734D02*
G03*
X006734Y002238I-0002J0D01*
G01*
M02*
