G04*
G04 #@! TF.GenerationSoftware,Altium Limited,Altium Designer,22.9.1 (49)*
G04*
G04 Layer_Color=16711935*
%FSTAX24Y24*%
%MOIN*%
G70*
G04*
G04 #@! TF.SameCoordinates,2FAE9610-6970-4823-A7E0-823FAA2A8A52*
G04*
G04*
G04 #@! TF.FilePolarity,Positive*
G04*
G01*
G75*
%ADD49C,0.0039*%
D49*
X015966Y001237D02*
Y002063D01*
X015434Y001237D02*
Y002063D01*
X015966D01*
X015434Y001237D02*
X015966D01*
X015523Y003465D02*
X015877D01*
X015523Y002835D02*
X015877D01*
Y003465D01*
X015523Y002835D02*
Y003465D01*
X014523Y001155D02*
Y001785D01*
X014837Y001155D02*
Y001785D01*
X014523Y001155D02*
X014837D01*
X014523Y001785D02*
X014837D01*
X010523Y011854D02*
X010877D01*
X010523Y011224D02*
X010877D01*
Y011854D01*
X010523Y011224D02*
Y011854D01*
X008587Y021989D02*
Y023839D01*
X003076Y021989D02*
X008587D01*
X003076D02*
Y023839D01*
X003076Y023839D02*
X008587D01*
X018027Y011186D02*
Y011816D01*
X017713Y011186D02*
Y011816D01*
X018027D01*
X017713Y011186D02*
X018027D01*
X008873Y001155D02*
Y001785D01*
X009187Y001155D02*
Y001785D01*
X008873Y001155D02*
X009187D01*
X008873Y001785D02*
X009187D01*
X009823Y001155D02*
Y001785D01*
X010137Y001155D02*
Y001785D01*
X009823Y001155D02*
X010137D01*
X009823Y001785D02*
X010137D01*
X011477Y011186D02*
Y011816D01*
X011163Y011186D02*
Y011816D01*
X011477D01*
X011163Y011186D02*
X011477D01*
X009123Y011854D02*
X009477D01*
X009123Y011224D02*
X009477D01*
Y011854D01*
X009123Y011224D02*
Y011854D01*
X009823D02*
X010177D01*
X009823Y011224D02*
X010177D01*
Y011854D01*
X009823Y011224D02*
Y011854D01*
X012107Y011186D02*
Y011816D01*
X011793Y011186D02*
Y011816D01*
X012107D01*
X011793Y011186D02*
X012107D01*
X006507D02*
Y011816D01*
X006193Y011186D02*
Y011816D01*
X006507D01*
X006193Y011186D02*
X006507D01*
X017073Y011854D02*
X017427D01*
X017073Y011224D02*
X017427D01*
Y011854D01*
X017073Y011224D02*
Y011854D01*
X018627Y011186D02*
Y011816D01*
X018313Y011186D02*
Y011816D01*
X018627D01*
X018313Y011186D02*
X018627D01*
X013823Y001155D02*
Y001785D01*
X014137Y001155D02*
Y001785D01*
X013823Y001155D02*
X014137D01*
X013823Y001785D02*
X014137D01*
X021587Y021989D02*
Y023839D01*
X016076Y021989D02*
X021587D01*
X016076D02*
Y023839D01*
X016076Y023839D02*
X021587D01*
X023649Y014828D02*
Y018529D01*
X019751Y014828D02*
Y018529D01*
X023649D01*
X019751Y014828D02*
X023649D01*
X018099D02*
Y018529D01*
X014201Y014828D02*
Y018529D01*
X018099D01*
X014201Y014828D02*
X018099D01*
X021473Y011854D02*
X021827D01*
X021473Y011224D02*
X021827D01*
Y011854D01*
X021473Y011224D02*
Y011854D01*
X015723D02*
X016077D01*
X015723Y011224D02*
X016077D01*
Y011854D01*
X015723Y011224D02*
Y011854D01*
X022123D02*
X022477D01*
X022123Y011224D02*
X022477D01*
Y011854D01*
X022123Y011224D02*
Y011854D01*
X016423D02*
X016777D01*
X016423Y011224D02*
X016777D01*
Y011854D01*
X016423Y011224D02*
Y011854D01*
X022773D02*
X023127D01*
X022773Y011224D02*
X023127D01*
Y011854D01*
X022773Y011224D02*
Y011854D01*
X023727Y011186D02*
Y011816D01*
X023413Y011186D02*
Y011816D01*
X023727D01*
X023413Y011186D02*
X023727D01*
X024327D02*
Y011816D01*
X024013Y011186D02*
Y011816D01*
X024327D01*
X024013Y011186D02*
X024327D01*
X015593Y00768D02*
Y00831D01*
X015907Y00768D02*
Y00831D01*
X015593Y00768D02*
X015907D01*
X015593Y00831D02*
X015907D01*
X014943Y00769D02*
Y00832D01*
X015257Y00769D02*
Y00832D01*
X014943Y00769D02*
X015257D01*
X014943Y00832D02*
X015257D01*
X011349Y014828D02*
Y018529D01*
X007451Y014828D02*
Y018529D01*
X011349D01*
X007451Y014828D02*
X011349D01*
X005599D02*
Y018529D01*
X001701Y014828D02*
Y018529D01*
X005599D01*
X001701Y014828D02*
X005599D01*
X003673Y011854D02*
X004027D01*
X003673Y011224D02*
X004027D01*
Y011854D01*
X003673Y011224D02*
Y011854D01*
X004323D02*
X004677D01*
X004323Y011224D02*
X004677D01*
Y011854D01*
X004323Y011224D02*
Y011854D01*
X004973D02*
X005327D01*
X004973Y011224D02*
X005327D01*
Y011854D01*
X004973Y011224D02*
Y011854D01*
X005907Y011186D02*
Y011816D01*
X005593Y011186D02*
Y011816D01*
X005907D01*
X005593Y011186D02*
X005907D01*
M02*
